<svg xmlns="http://www.w3.org/2000/svg" xmlns:xlink="http://www.w3.org/1999/xlink" width="29.837" height="43.109" viewBox="0 0 29.837 43.109">
  <defs>
    <linearGradient id="linear-gradient" y1="0.5" x2="1" y2="0.5" gradientUnits="objectBoundingBox">
      <stop offset="0" stop-color="#54be9a"/>
      <stop offset="0.33" stop-color="#2cabb0"/>
      <stop offset="0.74" stop-color="#2785c0"/>
      <stop offset="1" stop-color="#3a67b0"/>
    </linearGradient>
    <linearGradient id="linear-gradient-3" x1="0" y1="0.5" x2="1" y2="0.5" xlink:href="#linear-gradient"/>
    <linearGradient id="linear-gradient-5" x1="0" y1="0.497" x2="1" y2="0.497" xlink:href="#linear-gradient"/>
    <linearGradient id="linear-gradient-6" x1="0" y1="0.497" x2="1" y2="0.497" xlink:href="#linear-gradient"/>
    <linearGradient id="linear-gradient-7" x1="0" y1="0.504" x2="1" y2="0.504" xlink:href="#linear-gradient"/>
    <linearGradient id="linear-gradient-8" x1="-0.001" y1="0.5" x2="1" y2="0.5" xlink:href="#linear-gradient"/>
    <linearGradient id="linear-gradient-9" x1="-0.002" y1="0.5" x2="1" y2="0.5" xlink:href="#linear-gradient"/>
    <linearGradient id="linear-gradient-10" x1="0" y1="0.5" x2="1" y2="0.5" xlink:href="#linear-gradient"/>
  </defs>
  <g id="Group_5292" data-name="Group 5292" transform="translate(-59.001 -1389.997)">
    <g id="Group_3759" data-name="Group 3759" transform="translate(-28.149 1305.117)">
      <g id="Rectangle_2135" data-name="Rectangle 2135" transform="translate(87.15 84.88)">
        <path id="Path_24938" data-name="Path 24938" d="M110.446,118.91H93.691a6.545,6.545,0,0,1-6.541-6.541V91.421a6.545,6.545,0,0,1,6.541-6.541h16.755a6.545,6.545,0,0,1,6.541,6.541v20.948A6.545,6.545,0,0,1,110.446,118.91ZM93.691,85.369a6.081,6.081,0,0,0-6.068,6.068v20.948a6.081,6.081,0,0,0,6.068,6.068h16.755a6.081,6.081,0,0,0,6.068-6.068V91.437a6.081,6.081,0,0,0-6.068-6.068Z" transform="translate(-87.15 -84.88)" fill="url(#linear-gradient)"/>
        <path id="Path_24939" data-name="Path 24939" d="M110.3,118.372H93.547a6.155,6.155,0,0,1-6.147-6.147V91.277a6.155,6.155,0,0,1,6.147-6.147H110.3a6.155,6.155,0,0,1,6.147,6.147v20.948A6.155,6.155,0,0,1,110.3,118.372ZM93.547,85.619a5.681,5.681,0,0,0-5.674,5.674v20.948a5.681,5.681,0,0,0,5.674,5.674H110.3a5.681,5.681,0,0,0,5.674-5.674V91.293a5.681,5.681,0,0,0-5.674-5.674Z" transform="translate(-87.006 -84.736)" fill="url(#linear-gradient)"/>
      </g>
      <g id="Rectangle_2136" data-name="Rectangle 2136" transform="translate(90.302 87.244)">
        <path id="Path_24940" data-name="Path 24940" d="M109.877,101.007H92.539a3.384,3.384,0,0,1-3.389-3.389V89.769a3.384,3.384,0,0,1,3.389-3.389h17.338a3.384,3.384,0,0,1,3.389,3.389v7.849A3.384,3.384,0,0,1,109.877,101.007ZM92.539,86.853a2.919,2.919,0,0,0-2.916,2.916v7.849a2.919,2.919,0,0,0,2.916,2.916h17.338a2.919,2.919,0,0,0,2.916-2.916V89.769a2.919,2.919,0,0,0-2.916-2.916Z" transform="translate(-89.15 -86.38)" fill="url(#linear-gradient-3)"/>
        <path id="Path_24941" data-name="Path 24941" d="M109.733,100.469H92.395A2.993,2.993,0,0,1,89.4,97.474V89.625a2.993,2.993,0,0,1,2.995-2.995h17.338a2.993,2.993,0,0,1,2.995,2.995v7.849A2.993,2.993,0,0,1,109.733,100.469ZM92.395,87.1a2.529,2.529,0,0,0-2.522,2.522v7.849A2.529,2.529,0,0,0,92.395,100h17.338a2.529,2.529,0,0,0,2.522-2.522V89.625a2.529,2.529,0,0,0-2.522-2.522Z" transform="translate(-89.006 -86.236)" fill="url(#linear-gradient-3)"/>
      </g>
      <g id="Group_3731" data-name="Group 3731" transform="translate(97.269 89.64)">
        <g id="Ellipse_1141" data-name="Ellipse 1141" transform="translate(1.844)">
          <path id="Path_24942" data-name="Path 24942" d="M97.53,93.48a2.79,2.79,0,1,1,2.79-2.79A2.795,2.795,0,0,1,97.53,93.48Zm0-5.123a2.317,2.317,0,1,0,2.317,2.317A2.321,2.321,0,0,0,97.53,88.357Z" transform="translate(-94.74 -87.9)" fill="url(#linear-gradient-5)"/>
          <path id="Path_24943" data-name="Path 24943" d="M97.386,92.942a2.4,2.4,0,1,1,2.4-2.4A2.395,2.395,0,0,1,97.386,92.942Zm0-4.335a1.923,1.923,0,1,0,1.923,1.923A1.931,1.931,0,0,0,97.386,88.607Z" transform="translate(-94.596 -87.756)" fill="url(#linear-gradient-6)"/>
        </g>
        <path id="Path_24944" data-name="Path 24944" d="M103.216,94.874H93.57l.142-.331c.126-.284,1.261-2.758,2.364-3.231l.063-.032H96.2a.548.548,0,0,1,.221.095c2.049,1.1,2.632.678,3.152.315a1.713,1.713,0,0,1,.8-.363h.047c1.088,0,2.38,2.664,2.616,3.215l.158.331ZM94.311,94.4h8.165c-.583-1.182-1.5-2.6-2.033-2.6h-.016a1.168,1.168,0,0,0-.567.268c-.6.426-1.324.946-3.562-.236h-.032l-.079-.047a7.282,7.282,0,0,0-1.876,2.6Z" transform="translate(-93.57 -85.952)" fill="url(#linear-gradient-7)"/>
      </g>
      <g id="Rectangle_2137" data-name="Rectangle 2137" transform="translate(96.623 104.283)">
        <path id="Path_24945" data-name="Path 24945" d="M100.726,111.817H96.549a3.384,3.384,0,0,1-3.389-3.389v-7.849a3.384,3.384,0,0,1,3.389-3.389h4.177a3.384,3.384,0,0,1,3.389,3.389v7.849A3.384,3.384,0,0,1,100.726,111.817ZM96.533,97.663a2.919,2.919,0,0,0-2.916,2.916v7.849a2.919,2.919,0,0,0,2.916,2.916h4.177a2.919,2.919,0,0,0,2.916-2.916v-7.849a2.919,2.919,0,0,0-2.916-2.916Z" transform="translate(-93.16 -97.19)" fill="url(#linear-gradient-8)"/>
        <path id="Path_24946" data-name="Path 24946" d="M100.582,111.279H96.4a2.993,2.993,0,0,1-2.995-2.995v-7.849A2.993,2.993,0,0,1,96.4,97.44h4.177a2.993,2.993,0,0,1,2.995,2.995v7.849A2.993,2.993,0,0,1,100.582,111.279ZM96.389,97.913a2.529,2.529,0,0,0-2.522,2.522v7.849a2.529,2.529,0,0,0,2.522,2.522h4.177a2.529,2.529,0,0,0,2.522-2.522v-7.849a2.529,2.529,0,0,0-2.522-2.522Z" transform="translate(-93.016 -97.046)" fill="url(#linear-gradient-9)"/>
      </g>
      <path id="Path_24947" data-name="Path 24947" d="M113.622,119.041H93.368l-2.27-2.033a3.011,3.011,0,0,1,4.114-4.4c.063.063,1.072.9,2.191,1.828V103.074a2.671,2.671,0,0,1,2.664-2.664,2.082,2.082,0,0,1,.441.032,2.743,2.743,0,0,1,2.207,2.758v6.3l6.9,2.711a6.259,6.259,0,0,1,3.988,5.611h0v1.2Zm-20.065-.473h19.608v-.473a5.776,5.776,0,0,0-3.688-5.406l-7.2-2.837v-6.636a2.247,2.247,0,0,0-1.828-2.285,2.585,2.585,0,0,0-.363-.032,2.186,2.186,0,0,0-2.191,2.191v12.373l-.394-.315c-1.214-1.009-2.553-2.112-2.616-2.175a2.542,2.542,0,0,0-3.483,3.7l2.128,1.907Z" transform="translate(1.726 8.948)" fill="url(#linear-gradient-10)"/>
      <g id="Rectangle_2138" data-name="Rectangle 2138" transform="translate(109.217 109.311)">
        <path id="Path_24948" data-name="Path 24948" d="M106.351,102.429h-5.2V100.38h5.2Zm-4.729-.473h4.256v-1.1h-4.256Z" transform="translate(-101.15 -100.38)" fill="url(#linear-gradient-3)"/>
        <rect id="Rectangle_1994" data-name="Rectangle 1994" width="3.152" height="0.473" transform="translate(1.025 0.788)" fill="url(#linear-gradient-3)"/>
      </g>
      <g id="Rectangle_2139" data-name="Rectangle 2139" transform="translate(109.217 112.463)">
        <path id="Path_24949" data-name="Path 24949" d="M106.351,104.429h-5.2V102.38h5.2Zm-4.729-.473h4.256v-1.1h-4.256Z" transform="translate(-101.15 -102.38)" fill="url(#linear-gradient-3)"/>
        <rect id="Rectangle_1995" data-name="Rectangle 1995" width="3.152" height="0.473" transform="translate(1.025 0.788)" fill="url(#linear-gradient-3)"/>
      </g>
    </g>
    <g id="Group_3759-2" data-name="Group 3759" transform="translate(-28.149 1305.117)">
      <g id="Rectangle_2135-2" data-name="Rectangle 2135" transform="translate(87.15 84.88)">
        <path id="Path_24938-2" data-name="Path 24938" d="M110.446,118.91H93.691a6.545,6.545,0,0,1-6.541-6.541V91.421a6.545,6.545,0,0,1,6.541-6.541h16.755a6.545,6.545,0,0,1,6.541,6.541v20.948A6.545,6.545,0,0,1,110.446,118.91ZM93.691,85.369a6.081,6.081,0,0,0-6.068,6.068v20.948a6.081,6.081,0,0,0,6.068,6.068h16.755a6.081,6.081,0,0,0,6.068-6.068V91.437a6.081,6.081,0,0,0-6.068-6.068Z" transform="translate(-87.15 -84.88)" fill="url(#linear-gradient)"/>
        <path id="Path_24939-2" data-name="Path 24939" d="M110.3,118.372H93.547a6.155,6.155,0,0,1-6.147-6.147V91.277a6.155,6.155,0,0,1,6.147-6.147H110.3a6.155,6.155,0,0,1,6.147,6.147v20.948A6.155,6.155,0,0,1,110.3,118.372ZM93.547,85.619a5.681,5.681,0,0,0-5.674,5.674v20.948a5.681,5.681,0,0,0,5.674,5.674H110.3a5.681,5.681,0,0,0,5.674-5.674V91.293a5.681,5.681,0,0,0-5.674-5.674Z" transform="translate(-87.006 -84.736)" fill="url(#linear-gradient)"/>
      </g>
      <g id="Rectangle_2136-2" data-name="Rectangle 2136" transform="translate(90.302 87.244)">
        <path id="Path_24940-2" data-name="Path 24940" d="M109.877,101.007H92.539a3.384,3.384,0,0,1-3.389-3.389V89.769a3.384,3.384,0,0,1,3.389-3.389h17.338a3.384,3.384,0,0,1,3.389,3.389v7.849A3.384,3.384,0,0,1,109.877,101.007ZM92.539,86.853a2.919,2.919,0,0,0-2.916,2.916v7.849a2.919,2.919,0,0,0,2.916,2.916h17.338a2.919,2.919,0,0,0,2.916-2.916V89.769a2.919,2.919,0,0,0-2.916-2.916Z" transform="translate(-89.15 -86.38)" fill="url(#linear-gradient-3)"/>
        <path id="Path_24941-2" data-name="Path 24941" d="M109.733,100.469H92.395A2.993,2.993,0,0,1,89.4,97.474V89.625a2.993,2.993,0,0,1,2.995-2.995h17.338a2.993,2.993,0,0,1,2.995,2.995v7.849A2.993,2.993,0,0,1,109.733,100.469ZM92.395,87.1a2.529,2.529,0,0,0-2.522,2.522v7.849A2.529,2.529,0,0,0,92.395,100h17.338a2.529,2.529,0,0,0,2.522-2.522V89.625a2.529,2.529,0,0,0-2.522-2.522Z" transform="translate(-89.006 -86.236)" fill="url(#linear-gradient-3)"/>
      </g>
      <g id="Group_3731-2" data-name="Group 3731" transform="translate(97.269 89.64)">
        <g id="Ellipse_1141-2" data-name="Ellipse 1141" transform="translate(1.844)">
          <path id="Path_24942-2" data-name="Path 24942" d="M97.53,93.48a2.79,2.79,0,1,1,2.79-2.79A2.795,2.795,0,0,1,97.53,93.48Zm0-5.123a2.317,2.317,0,1,0,2.317,2.317A2.321,2.321,0,0,0,97.53,88.357Z" transform="translate(-94.74 -87.9)" fill="url(#linear-gradient-5)"/>
          <path id="Path_24943-2" data-name="Path 24943" d="M97.386,92.942a2.4,2.4,0,1,1,2.4-2.4A2.395,2.395,0,0,1,97.386,92.942Zm0-4.335a1.923,1.923,0,1,0,1.923,1.923A1.931,1.931,0,0,0,97.386,88.607Z" transform="translate(-94.596 -87.756)" fill="url(#linear-gradient-6)"/>
        </g>
        <path id="Path_24944-2" data-name="Path 24944" d="M103.216,94.874H93.57l.142-.331c.126-.284,1.261-2.758,2.364-3.231l.063-.032H96.2a.548.548,0,0,1,.221.095c2.049,1.1,2.632.678,3.152.315a1.713,1.713,0,0,1,.8-.363h.047c1.088,0,2.38,2.664,2.616,3.215l.158.331ZM94.311,94.4h8.165c-.583-1.182-1.5-2.6-2.033-2.6h-.016a1.168,1.168,0,0,0-.567.268c-.6.426-1.324.946-3.562-.236h-.032l-.079-.047a7.282,7.282,0,0,0-1.876,2.6Z" transform="translate(-93.57 -85.952)" fill="url(#linear-gradient-7)"/>
      </g>
      <g id="Rectangle_2137-2" data-name="Rectangle 2137" transform="translate(96.623 104.283)">
        <path id="Path_24945-2" data-name="Path 24945" d="M100.726,111.817H96.549a3.384,3.384,0,0,1-3.389-3.389v-7.849a3.384,3.384,0,0,1,3.389-3.389h4.177a3.384,3.384,0,0,1,3.389,3.389v7.849A3.384,3.384,0,0,1,100.726,111.817ZM96.533,97.663a2.919,2.919,0,0,0-2.916,2.916v7.849a2.919,2.919,0,0,0,2.916,2.916h4.177a2.919,2.919,0,0,0,2.916-2.916v-7.849a2.919,2.919,0,0,0-2.916-2.916Z" transform="translate(-93.16 -97.19)" fill="url(#linear-gradient-8)"/>
        <path id="Path_24946-2" data-name="Path 24946" d="M100.582,111.279H96.4a2.993,2.993,0,0,1-2.995-2.995v-7.849A2.993,2.993,0,0,1,96.4,97.44h4.177a2.993,2.993,0,0,1,2.995,2.995v7.849A2.993,2.993,0,0,1,100.582,111.279ZM96.389,97.913a2.529,2.529,0,0,0-2.522,2.522v7.849a2.529,2.529,0,0,0,2.522,2.522h4.177a2.529,2.529,0,0,0,2.522-2.522v-7.849a2.529,2.529,0,0,0-2.522-2.522Z" transform="translate(-93.016 -97.046)" fill="url(#linear-gradient-9)"/>
      </g>
      <path id="Path_24947-2" data-name="Path 24947" d="M113.622,119.041H93.368l-2.27-2.033a3.011,3.011,0,0,1,4.114-4.4c.063.063,1.072.9,2.191,1.828V103.074a2.671,2.671,0,0,1,2.664-2.664,2.082,2.082,0,0,1,.441.032,2.743,2.743,0,0,1,2.207,2.758v6.3l6.9,2.711a6.259,6.259,0,0,1,3.988,5.611h0v1.2Zm-20.065-.473h19.608v-.473a5.776,5.776,0,0,0-3.688-5.406l-7.2-2.837v-6.636a2.247,2.247,0,0,0-1.828-2.285,2.585,2.585,0,0,0-.363-.032,2.186,2.186,0,0,0-2.191,2.191v12.373l-.394-.315c-1.214-1.009-2.553-2.112-2.616-2.175a2.542,2.542,0,0,0-3.483,3.7l2.128,1.907Z" transform="translate(1.726 8.948)" fill="url(#linear-gradient-10)"/>
      <g id="Rectangle_2138-2" data-name="Rectangle 2138" transform="translate(109.217 109.311)">
        <path id="Path_24948-2" data-name="Path 24948" d="M106.351,102.429h-5.2V100.38h5.2Zm-4.729-.473h4.256v-1.1h-4.256Z" transform="translate(-101.15 -100.38)" fill="url(#linear-gradient-3)"/>
        <rect id="Rectangle_1994-2" data-name="Rectangle 1994" width="3.152" height="0.473" transform="translate(1.025 0.788)" fill="url(#linear-gradient-3)"/>
      </g>
      <g id="Rectangle_2139-2" data-name="Rectangle 2139" transform="translate(109.217 112.463)">
        <path id="Path_24949-2" data-name="Path 24949" d="M106.351,104.429h-5.2V102.38h5.2Zm-4.729-.473h4.256v-1.1h-4.256Z" transform="translate(-101.15 -102.38)" fill="url(#linear-gradient-3)"/>
        <rect id="Rectangle_1995-2" data-name="Rectangle 1995" width="3.152" height="0.473" transform="translate(1.025 0.788)" fill="url(#linear-gradient-3)"/>
      </g>
    </g>
  </g>
</svg>
