<svg xmlns="http://www.w3.org/2000/svg" xmlns:xlink="http://www.w3.org/1999/xlink" width="40.068" height="35.002" viewBox="0 0 40.068 35.002">
  <defs>
    <linearGradient id="linear-gradient" x1="-14.648" y1="24.768" x2="-14.648" y2="24.716" gradientUnits="objectBoundingBox">
      <stop offset="0" stop-color="#56be9a"/>
      <stop offset="0.25" stop-color="#2cabb0"/>
      <stop offset="0.55" stop-color="#2a85bf"/>
      <stop offset="1" stop-color="#3a67b0"/>
    </linearGradient>
  </defs>
  <g id="Group_3589" data-name="Group 3589" transform="translate(-95.91 -2.55)" opacity="0.63">
    <g id="Group_3588" data-name="Group 3588" transform="translate(95.91 2.55)">
      <path id="Path_16641" data-name="Path 16641" d="M115.658,7.008A3.9,3.9,0,0,0,114.566,8.2a.167.167,0,0,1-.069.069.224.224,0,0,1-.3-.069A4.7,4.7,0,0,0,113.1,7.008a3.39,3.39,0,0,0-1.368-.608h0a3.72,3.72,0,0,0-1.409-.014,4.174,4.174,0,0,0-1.382.511,4.5,4.5,0,0,0-1.119.926,3.709,3.709,0,0,0-.7,1.188h0s-.041.138-.069.207a1.035,1.035,0,0,0-.055.221.208.208,0,0,1-.207.166,4.16,4.16,0,0,0-1.451.525,4.855,4.855,0,0,0-1.271,1.105,5.664,5.664,0,0,0-.912,1.589,5.86,5.86,0,0,0-.359,1.824v.5a.251.251,0,0,1-.083.193,7.709,7.709,0,0,0-.829.677,8.521,8.521,0,0,0-.663.746,5.1,5.1,0,0,0-.691,1.3,4.423,4.423,0,0,0-.069,2.708,4.886,4.886,0,0,0,.566,1.257h0a5.724,5.724,0,0,0,.47.663,7.978,7.978,0,0,0,.58.608.228.228,0,0,1,.069.207,4.24,4.24,0,0,0-.1.829,5.556,5.556,0,0,0,.041.829,5.014,5.014,0,0,0,.414,1.409,5.915,5.915,0,0,0,.829,1.271,5.833,5.833,0,0,0,1.064.953,4.9,4.9,0,0,0,1.23.622,4.491,4.491,0,0,0,.58.152,3.775,3.775,0,0,0,.553.069.224.224,0,0,1,.221.166,3.6,3.6,0,0,0,.525,1.23,4.261,4.261,0,0,0,.953,1.036,4.347,4.347,0,0,0,1.6.788,3.858,3.858,0,0,0,1.686.041,3.561,3.561,0,0,0,1.451-.663,4.158,4.158,0,0,0,1.119-1.285c.014-.028.055-.055.083-.083a.218.218,0,0,1,.29.083h0a4.214,4.214,0,0,0,.953,1.2,3.455,3.455,0,0,0,1.285.663,3.882,3.882,0,0,0,1.782.041,4.641,4.641,0,0,0,1.768-.788,4.323,4.323,0,0,0,1.064-1.064,3.513,3.513,0,0,0,.594-1.257.22.22,0,0,1,.18-.18,4.08,4.08,0,0,0,1.575-.663,5.384,5.384,0,0,0,1.313-1.313,5.792,5.792,0,0,0,.788-1.672,6.019,6.019,0,0,0,.221-1.851.209.209,0,0,1,.1-.193,10.248,10.248,0,0,0,.857-.677,5.91,5.91,0,0,0,.677-.76h0a4.316,4.316,0,0,0,.663-1.243,4.423,4.423,0,0,0,.249-1.34,4.767,4.767,0,0,0-.663-2.515h0a5.347,5.347,0,0,0-.511-.732,5.992,5.992,0,0,0-.649-.677.228.228,0,0,1-.069-.207,4.765,4.765,0,0,0,.1-.76,6.988,6.988,0,0,0-.028-.76,5.332,5.332,0,0,0-.387-1.465,4.8,4.8,0,0,0-.829-1.313,5.584,5.584,0,0,0-1.078-.981,5.284,5.284,0,0,0-1.243-.636h0a3.026,3.026,0,0,0-.677-.166h0a2.679,2.679,0,0,0-.663-.041.21.21,0,0,1-.221-.166A4.133,4.133,0,0,0,121.7,9a3.18,3.18,0,0,0-.207-.442,4.259,4.259,0,0,0-.774-1.009,4.816,4.816,0,0,0-1.064-.76,3.791,3.791,0,0,0-1.271-.4,3.655,3.655,0,0,0-1.285.041,3.905,3.905,0,0,0-1.382.622h0Zm6.079,4.173a.222.222,0,0,1,.193-.152,2.681,2.681,0,0,1,.47.028,2.757,2.757,0,0,1,.484.124,3.283,3.283,0,0,1,.9.47,3.824,3.824,0,0,1,.774.718h0a3.878,3.878,0,0,1,.594.967,3.8,3.8,0,0,1,.276,1.05,3.5,3.5,0,0,1,0,.76,3.31,3.31,0,0,1-.166.732h0a.726.726,0,0,0,0,.484.768.768,0,0,0,.29.373h0a5.026,5.026,0,0,1,.691.636,4.433,4.433,0,0,1,.539.718,3.449,3.449,0,0,1,.373.87,2.955,2.955,0,0,1-.069,1.8,3.321,3.321,0,0,1-.456.843h0a4.836,4.836,0,0,1-.677.732,5.366,5.366,0,0,1-.912.636h-.014a.815.815,0,0,0-.3.345.692.692,0,0,0-.041.442v.028a4.464,4.464,0,0,1-.083,1.6,4.317,4.317,0,0,1-.636,1.437,3.729,3.729,0,0,1-.746.8,3.061,3.061,0,0,1-.884.484h0a.212.212,0,0,1-.263-.138,3.717,3.717,0,0,0-2.376-2.446h-.028a.637.637,0,0,0-.525-.055.732.732,0,0,0-.4.332v.028a.681.681,0,0,0,.29.926h0c1.022.525,1.782.926,1.768,2.211a2.179,2.179,0,0,1-.318,1.091,3.34,3.34,0,0,1-2.045,1.465,2.469,2.469,0,0,1-1.188,0,2.169,2.169,0,0,1-1.354-1.133,6.056,6.056,0,0,1-.525-1.6v-.055a.573.573,0,0,0-.484-.525,1.287,1.287,0,0,0-.746,0,.56.56,0,0,0-.47.525v.055a5.107,5.107,0,0,1-.857,1.893,2.4,2.4,0,0,1-1.4.912,2.431,2.431,0,0,1-1.091-.041,3.126,3.126,0,0,1-1.05-.525,2.84,2.84,0,0,1-.746-.87,2.064,2.064,0,0,1-.276-1.022c0-1.354.815-1.81,1.893-2.363a.7.7,0,1,0-.636-1.243h0a3.994,3.994,0,0,0-2.487,2.542.224.224,0,0,1-.221.166,1.841,1.841,0,0,1-.387-.041,1.909,1.909,0,0,1-.373-.111,3.577,3.577,0,0,1-.884-.456,3.95,3.95,0,0,1-1.368-1.617,3.7,3.7,0,0,1-.3-1.009h0a3.454,3.454,0,0,1,.166-1.617h0a.9.9,0,0,0,0-.47h0a.761.761,0,0,0-.276-.373h0a6.486,6.486,0,0,1-.649-.58,4.711,4.711,0,0,1-.511-.663,3.416,3.416,0,0,1-.511-1.8,3.139,3.139,0,0,1,.166-.953,3.328,3.328,0,0,1,.484-.9,4.837,4.837,0,0,1,.677-.732,6.936,6.936,0,0,1,.884-.649.654.654,0,0,0,.276-.3h0a.876.876,0,0,0,.069-.414v-.041h0c-.014-.138-.028-.263-.041-.387a4.143,4.143,0,0,1,0-.414,4.445,4.445,0,0,1,.263-1.354,3.8,3.8,0,0,1,.663-1.174,3.621,3.621,0,0,1,.76-.691,2.819,2.819,0,0,1,.857-.387h0a.212.212,0,0,1,.263.138,3.629,3.629,0,0,0,1.078,1.7h.028a.607.607,0,0,0,.484.193.633.633,0,0,0,.47-.221h0a.8.8,0,0,0,.18-.511.662.662,0,0,0-.221-.484,2.12,2.12,0,0,1-.677-1.078,2.023,2.023,0,0,1,.028-1.368,2.538,2.538,0,0,1,.47-.788,3.122,3.122,0,0,1,.732-.608h0a2.637,2.637,0,0,1,.9-.345,2.528,2.528,0,0,1,.912,0,2.19,2.19,0,0,1,1.2.7,4.1,4.1,0,0,1,.829,1.423h0a.722.722,0,0,0,.622.442,2.091,2.091,0,0,0,.414.028h0a1.284,1.284,0,0,0,.4-.069.626.626,0,0,0,.442-.345V9.827a1.977,1.977,0,0,1,.608-1.257,2.74,2.74,0,0,1,1.354-.815,2.388,2.388,0,0,1,.829-.014,2.814,2.814,0,0,1,.815.263h.028a3.241,3.241,0,0,1,.718.511,2.783,2.783,0,0,1,.525.677,2.062,2.062,0,0,1,.235,1.313,1.614,1.614,0,0,1-.414,1.078h0a.676.676,0,0,0-.166.511.643.643,0,0,0,.235.456h.028a.676.676,0,0,0,.953-.055v-.028a2.865,2.865,0,0,0,.649-1.271h0Z" transform="translate(-94.242 -1.109)" fill="url(#linear-gradient)"/>
      <g id="Group_3587" data-name="Group 3587">
        <g id="Rectangle_2050" data-name="Rectangle 2050" transform="translate(14.77 12.642)">
          <rect id="Rectangle_1885" data-name="Rectangle 1885" width="10.404" height="10.404" transform="translate(0 0)" fill="none"/>
          <path id="Path_24519" data-name="Path 24519" d="M117,22.1H106.6V11.7H117Zm-9.713-.691h9.022V12.391h-9.022Z" transform="translate(-106.6 -11.7)" fill="#2a8abd"/>
        </g>
        <g id="Rectangle_2051" data-name="Rectangle 2051" transform="translate(16.248 14.12)">
          <rect id="Rectangle_1886" data-name="Rectangle 1886" width="7.433" height="7.433" transform="translate(0.014 0.014)" fill="none"/>
          <path id="Path_24520" data-name="Path 24520" d="M115.1,20.2H107.67V12.77H115.1Zm-6.729-.691h6.052V13.461h-6.052Z" transform="translate(-107.67 -12.77)" fill="#2a8abd"/>
        </g>
        <path id="Path_24521" data-name="Path 24521" d="M109.657,16.708h-9.34v-4.3H98.59V11.72h2.418v4.3h8.649Z" transform="translate(-94.887 0.95)" fill="#2a8abd"/>
        <path id="Path_24522" data-name="Path 24522" d="M100.311,23.982H99.62V18.4h9.644v.691h-8.953Z" transform="translate(-94.494 3.499)" fill="#2a8abd"/>
        <path id="Path_24523" data-name="Path 24523" d="M122.521,16.491H113.9V15.8h7.931V6.46h.691Z" transform="translate(-89.044 -1.058)" fill="#2a8abd"/>
        <path id="Path_24524" data-name="Path 24524" d="M108.087,16.792H104.37V5.67h.691V16.1h3.026Z" transform="translate(-92.681 -1.359)" fill="#2a8abd"/>
        <path id="Path_24525" data-name="Path 24525" d="M127.33,16.1H113.9v-.691h12.739V13.32h.691Z" transform="translate(-89.044 1.56)" fill="#2a8abd"/>
        <path id="Path_24526" data-name="Path 24526" d="M127.509,24.673h-.691V17.281H113.9V16.59h13.609Z" transform="translate(-89.044 2.808)" fill="#2a8abd"/>
        <path id="Path_24527" data-name="Path 24527" d="M119.245,28.431h-.691V24.852h4.421V19.091h-7.7V18.4h8.387v7.143h-4.421Z" transform="translate(-88.518 3.499)" fill="#2a8abd"/>
        <g id="Ellipse_1011" data-name="Ellipse 1011" transform="translate(0 9.671)">
          <circle id="Ellipse_1005" data-name="Ellipse 1005" cx="2" cy="2" r="2" transform="translate(0 0.329)" fill="none"/>
          <path id="Path_24528" data-name="Path 24528" d="M97.982,13.695a2.072,2.072,0,1,1,2.072-2.072A2.07,2.07,0,0,1,97.982,13.695Zm0-3.454a1.382,1.382,0,1,0,1.382,1.382A1.386,1.386,0,0,0,97.982,10.241Z" transform="translate(-95.91 -9.55)" fill="#2a8abd"/>
        </g>
        <g id="Ellipse_1012" data-name="Ellipse 1012" transform="translate(0 17.961)">
          <circle id="Ellipse_1006" data-name="Ellipse 1006" cx="2" cy="2" r="2" transform="translate(0 0.04)" fill="none"/>
          <path id="Path_24529" data-name="Path 24529" d="M97.982,19.695a2.072,2.072,0,1,1,2.072-2.072A2.07,2.07,0,0,1,97.982,19.695Zm0-3.454a1.382,1.382,0,1,0,1.382,1.382A1.386,1.386,0,0,0,97.982,16.241Z" transform="translate(-95.91 -15.55)" fill="#2a8abd"/>
        </g>
        <g id="Ellipse_1013" data-name="Ellipse 1013" transform="translate(2.763 27.633)">
          <circle id="Ellipse_1007" data-name="Ellipse 1007" cx="2" cy="2" r="2" transform="translate(0.237 0.368)" fill="none"/>
          <path id="Path_24530" data-name="Path 24530" d="M99.982,26.695a2.072,2.072,0,1,1,2.072-2.072A2.07,2.07,0,0,1,99.982,26.695Zm0-3.454a1.382,1.382,0,1,0,1.382,1.382A1.386,1.386,0,0,0,99.982,23.241Z" transform="translate(-97.91 -22.55)" fill="#2a8abd"/>
        </g>
        <g id="Ellipse_1014" data-name="Ellipse 1014" transform="translate(29.014 31.778)">
          <circle id="Ellipse_1008" data-name="Ellipse 1008" cx="1.5" cy="1.5" r="1.5" transform="translate(-0.015 0.224)" fill="none"/>
          <path id="Path_24531" data-name="Path 24531" d="M118.292,28.313a1.382,1.382,0,1,1,1.382-1.382A1.386,1.386,0,0,1,118.292,28.313Zm0-2.072a.691.691,0,1,0,.691.691A.684.684,0,0,0,118.292,26.241Z" transform="translate(-116.91 -25.55)" fill="#2a8abd"/>
        </g>
        <g id="Ellipse_1015" data-name="Ellipse 1015" transform="translate(35.923 27.633)">
          <circle id="Ellipse_1009" data-name="Ellipse 1009" cx="2" cy="2" r="2" transform="translate(0.077 0.368)" fill="none"/>
          <path id="Path_24532" data-name="Path 24532" d="M123.982,26.695a2.072,2.072,0,1,1,2.072-2.072A2.07,2.07,0,0,1,123.982,26.695Zm0-3.454a1.382,1.382,0,1,0,1.382,1.382A1.386,1.386,0,0,0,123.982,23.241Z" transform="translate(-121.91 -22.55)" fill="#2a8abd"/>
        </g>
        <g id="Ellipse_1016" data-name="Ellipse 1016" transform="translate(35.923 9.671)">
          <circle id="Ellipse_1010" data-name="Ellipse 1010" cx="2" cy="2" r="2" transform="translate(0.077 0.329)" fill="none"/>
          <path id="Path_24533" data-name="Path 24533" d="M123.982,13.695a2.072,2.072,0,1,1,2.072-2.072A2.07,2.07,0,0,1,123.982,13.695Zm0-3.454a1.382,1.382,0,1,0,1.382,1.382A1.386,1.386,0,0,0,123.982,10.241Z" transform="translate(-121.91 -9.55)" fill="#2a8abd"/>
        </g>
        <g id="Ellipse_1017" data-name="Ellipse 1017" transform="translate(31.778 1.382)">
          <ellipse id="Ellipse_1011-2" data-name="Ellipse 1011" cx="2" cy="2.5" rx="2" ry="2.5" transform="translate(0.222 -0.382)" fill="none"/>
          <path id="Path_24534" data-name="Path 24534" d="M120.982,7.695a2.072,2.072,0,1,1,2.072-2.072A2.07,2.07,0,0,1,120.982,7.695Zm0-3.454a1.382,1.382,0,1,0,1.382,1.382A1.386,1.386,0,0,0,120.982,4.241Z" transform="translate(-118.91 -3.55)" fill="#2a8abd"/>
        </g>
        <g id="Ellipse_1018" data-name="Ellipse 1018" transform="translate(9.671)">
          <circle id="Ellipse_1012-2" data-name="Ellipse 1012" cx="2" cy="2" r="2" transform="translate(0.328 0.001)" fill="none"/>
          <path id="Path_24535" data-name="Path 24535" d="M104.982,6.695a2.072,2.072,0,1,1,2.072-2.072A2.07,2.07,0,0,1,104.982,6.695Zm0-3.454a1.382,1.382,0,1,0,1.382,1.382,1.386,1.386,0,0,0-1.382-1.382Z" transform="translate(-102.91 -2.55)" fill="#2a8abd"/>
        </g>
        <rect id="Rectangle_1887" data-name="Rectangle 1887" width="10.984" height="0.691" transform="translate(3.924 19.495)" fill="#2a8abd"/>
        <rect id="Rectangle_1888" data-name="Rectangle 1888" width="0.691" height="1.838" transform="translate(16.11 11.012)" fill="#2a8abd"/>
        <rect id="Rectangle_1889" data-name="Rectangle 1889" width="0.691" height="1.423" transform="translate(16.11 22.838)" fill="#2a8abd"/>
        <rect id="Rectangle_1890" data-name="Rectangle 1890" width="0.691" height="1.838" transform="translate(18.652 11.012)" fill="#2a8abd"/>
        <rect id="Rectangle_1891" data-name="Rectangle 1891" width="0.691" height="1.423" transform="translate(18.652 22.838)" fill="#2a8abd"/>
        <rect id="Rectangle_1892" data-name="Rectangle 1892" width="0.691" height="1.838" transform="translate(20.959 11.012)" fill="#2a8abd"/>
        <rect id="Rectangle_1893" data-name="Rectangle 1893" width="0.691" height="1.423" transform="translate(20.959 22.838)" fill="#2a8abd"/>
        <rect id="Rectangle_1894" data-name="Rectangle 1894" width="0.691" height="1.838" transform="translate(23.502 11.012)" fill="#2a8abd"/>
        <rect id="Rectangle_1895" data-name="Rectangle 1895" width="0.691" height="1.423" transform="translate(23.502 22.838)" fill="#2a8abd"/>
      </g>
    </g>
  </g>
</svg>
