<svg xmlns="http://www.w3.org/2000/svg" xmlns:xlink="http://www.w3.org/1999/xlink" width="29" height="25" viewBox="0 0 29 25">
  <defs>
    <linearGradient id="linear-gradient" x1="0.5" x2="0.5" y2="1" gradientUnits="objectBoundingBox">
      <stop offset="0" stop-color="#33d4a3"/>
      <stop offset="0.246" stop-color="#2dacb1"/>
      <stop offset="0.549" stop-color="#2986c0"/>
      <stop offset="1" stop-color="#2466cf"/>
    </linearGradient>
  </defs>
  <g id="Group_3589" data-name="Group 3589" transform="translate(1921.147 -9861)">
    <g id="Group_3588" data-name="Group 3588" transform="translate(-1921 9861)">
      <path id="Path_16641" data-name="Path 16641" d="M45.4,42.459a3.107,3.107,0,0,0-.793.857.124.124,0,0,1-.046.046.158.158,0,0,1-.215-.046,3.107,3.107,0,0,0-.793-.857,2.539,2.539,0,0,0-.994-.438H42.55a2.707,2.707,0,0,0-1.019-.011,3.069,3.069,0,0,0-1,.368,3.225,3.225,0,0,0-.806.669,2.815,2.815,0,0,0-.513.863h0c-.019.048-.035.1-.051.153s-.03.1-.04.156a.153.153,0,0,1-.148.124,2.938,2.938,0,0,0-1.051.382,3.612,3.612,0,0,0-.925.8,4.054,4.054,0,0,0-.656,1.145,4.248,4.248,0,0,0-.261,1.317c0,.062,0,.121,0,.183s0,.116,0,.177a.157.157,0,0,1-.065.137,5.593,5.593,0,0,0-.6.492,4.39,4.39,0,0,0-.476.54,3.533,3.533,0,0,0-.5.941,3.2,3.2,0,0,0-.046,1.962,3.565,3.565,0,0,0,.411.906h0a4.186,4.186,0,0,0,.344.476,4.571,4.571,0,0,0,.419.435.16.16,0,0,1,.048.145,3.637,3.637,0,0,0-.073.6,3.718,3.718,0,0,0,.032.6,3.623,3.623,0,0,0,.3,1.021,3.86,3.86,0,0,0,.6.919,3.952,3.952,0,0,0,.769.688,3.673,3.673,0,0,0,.887.449,3.205,3.205,0,0,0,.419.11,2.583,2.583,0,0,0,.4.048.155.155,0,0,1,.156.124,2.674,2.674,0,0,0,.376.892,3.084,3.084,0,0,0,.688.747,3.139,3.139,0,0,0,1.156.567,2.708,2.708,0,0,0,1.22.032,2.6,2.6,0,0,0,1.048-.478,3.177,3.177,0,0,0,.814-.933.14.14,0,0,1,.062-.056.155.155,0,0,1,.21.065,2.876,2.876,0,0,0,.693.865,2.511,2.511,0,0,0,.93.484,2.755,2.755,0,0,0,1.29.027,3.352,3.352,0,0,0,1.277-.567,3.273,3.273,0,0,0,.771-.769,2.787,2.787,0,0,0,.433-.911.154.154,0,0,1,.126-.126,2.942,2.942,0,0,0,1.142-.478,3.713,3.713,0,0,0,.949-.951,4.1,4.1,0,0,0,.567-1.209,4.291,4.291,0,0,0,.156-1.344.15.15,0,0,1,.067-.14,5.411,5.411,0,0,0,.618-.495,4.2,4.2,0,0,0,.489-.551h0a3.456,3.456,0,0,0,.484-.9,3.224,3.224,0,0,0,.183-.97,3.319,3.319,0,0,0-.11-.933,3.566,3.566,0,0,0-.371-.89l-.005-.005A4.161,4.161,0,0,0,54,49.388a4.424,4.424,0,0,0-.468-.486.158.158,0,0,1-.051-.148,3.585,3.585,0,0,0,.07-.554,3.717,3.717,0,0,0-.016-.548,3.587,3.587,0,0,0-.285-1.059,3.909,3.909,0,0,0-.6-.954,4.078,4.078,0,0,0-.782-.712,3.6,3.6,0,0,0-.9-.46l-.008,0a3.025,3.025,0,0,0-.495-.124H50.47a2.653,2.653,0,0,0-.481-.035.156.156,0,0,1-.161-.118,2.646,2.646,0,0,0-.1-.323,3.066,3.066,0,0,0-.148-.317,2.939,2.939,0,0,0-.559-.728,3.275,3.275,0,0,0-.769-.546,3,3,0,0,0-.925-.293,2.707,2.707,0,0,0-.93.027,2.808,2.808,0,0,0-1,.452Zm4.394,3.026a.16.16,0,0,1,.14-.11,1.484,1.484,0,0,1,.344.016,2.141,2.141,0,0,1,.355.089,2.6,2.6,0,0,1,.653.336,2.92,2.92,0,0,1,.564.516l0,.005a2.821,2.821,0,0,1,.433.691,2.554,2.554,0,0,1,.2.755,2.52,2.52,0,0,1,0,.551,2.466,2.466,0,0,1-.121.535l0,.011a.532.532,0,0,0,0,.336.524.524,0,0,0,.207.269l.008.005a3.4,3.4,0,0,1,.5.454,3.1,3.1,0,0,1,.387.524,2.5,2.5,0,0,1,.266.626,2.124,2.124,0,0,1-.048,1.3,2.468,2.468,0,0,1-.331.61l0,0a3.206,3.206,0,0,1-.495.527,4.606,4.606,0,0,1-.656.462L52.188,54a.507.507,0,0,0-.215.242.534.534,0,0,0-.035.317l0,.022a3.314,3.314,0,0,1-.056,1.161,3.029,3.029,0,0,1-.457,1.037,2.725,2.725,0,0,1-.538.581,2.045,2.045,0,0,1-.642.352h0a.156.156,0,0,1-.194-.1,2.705,2.705,0,0,0-1.715-1.768l-.019-.011a.517.517,0,0,0-.379-.027.481.481,0,0,0-.288.242l-.008.016a.5.5,0,0,0,.223.672c.742.379,1.29.667,1.282,1.6a1.563,1.563,0,0,1-.234.787,2.322,2.322,0,0,1-.629.669,2.35,2.35,0,0,1-.855.392,1.757,1.757,0,0,1-.86-.005,1.567,1.567,0,0,1-.976-.82,4.288,4.288,0,0,1-.379-1.161.118.118,0,0,1-.005-.043.412.412,0,0,0-.347-.376.92.92,0,0,0-.271-.038,1,1,0,0,0-.271.038.417.417,0,0,0-.344.376.182.182,0,0,1-.005.038,3.606,3.606,0,0,1-.624,1.368,1.728,1.728,0,0,1-1.008.661,1.756,1.756,0,0,1-.793-.027,2.19,2.19,0,0,1-.755-.376,2.023,2.023,0,0,1-.538-.626,1.558,1.558,0,0,1-.2-.739c0-.978.591-1.306,1.373-1.707a.5.5,0,0,0-.452-.9l-.008,0a2.882,2.882,0,0,0-1.8,1.838.159.159,0,0,1-.156.116,1.65,1.65,0,0,1-.277-.032,1.807,1.807,0,0,1-.269-.075,2.71,2.71,0,0,1-.64-.325,2.957,2.957,0,0,1-.556-.5,2.84,2.84,0,0,1-.433-.667,2.6,2.6,0,0,1-.22-.728v-.005a2.363,2.363,0,0,1-.011-.586,2.536,2.536,0,0,1,.126-.578l0-.008a.526.526,0,0,0,0-.328l0-.005a.525.525,0,0,0-.2-.269l-.005-.005a3.31,3.31,0,0,1-.465-.417,3.051,3.051,0,0,1-.366-.478,2.644,2.644,0,0,1-.285-.637,2.284,2.284,0,0,1-.091-.661,2.153,2.153,0,0,1,.124-.691,2.535,2.535,0,0,1,.347-.648,3.257,3.257,0,0,1,.486-.527,4.489,4.489,0,0,1,.637-.468.519.519,0,0,0,.2-.215l0-.008a.5.5,0,0,0,.046-.288.131.131,0,0,1,0-.032v-.005c-.013-.094-.021-.188-.027-.28s-.005-.2,0-.3a3.181,3.181,0,0,1,.191-.981A3,3,0,0,1,37.8,46.2a2.528,2.528,0,0,1,.548-.5,1.975,1.975,0,0,1,.615-.28h0a.156.156,0,0,1,.194.1,2.579,2.579,0,0,0,.777,1.231l.016.013a.493.493,0,0,0,.355.129.488.488,0,0,0,.341-.156l.008-.011a.493.493,0,0,0,.129-.355.511.511,0,0,0-.161-.349,1.507,1.507,0,0,1-.492-.785,1.49,1.49,0,0,1,.016-.986,1.776,1.776,0,0,1,.344-.57,2.119,2.119,0,0,1,.527-.435l.008-.005a2.074,2.074,0,0,1,.653-.247,1.7,1.7,0,0,1,.658,0,1.679,1.679,0,0,1,.873.505,2.935,2.935,0,0,1,.6,1.029l0,.005a.544.544,0,0,0,.454.317,1.23,1.23,0,0,0,.3.019h0a1.133,1.133,0,0,0,.29-.054.449.449,0,0,0,.317-.25v-.062a1.429,1.429,0,0,1,.441-.914A2.03,2.03,0,0,1,46.592,43a1.714,1.714,0,0,1,.6-.013,2.029,2.029,0,0,1,.591.191l.016.005a2.2,2.2,0,0,1,.519.366,2,2,0,0,1,.376.489,1.515,1.515,0,0,1,.175.946,1.254,1.254,0,0,1-.3.785l0,0a.5.5,0,0,0-.116.366.493.493,0,0,0,.167.331l.016.013a.5.5,0,0,0,.691-.056l.013-.019a2.216,2.216,0,0,0,.46-.919Z" transform="translate(-30.046 -38.191)" fill="url(#linear-gradient)"/>
      <g id="Group_3587" data-name="Group 3587" transform="translate(0 0)">
        <path id="Path_16642" data-name="Path 16642" d="M-2957.422,10234.266" transform="translate(2963.886 -10223.296)" fill="none" stroke="#298bbe" stroke-width="1"/>
        <g id="Rectangle_2050" data-name="Rectangle 2050" transform="translate(10.542 9.152)" fill="none" stroke="#298bbe" stroke-width="0.5">
          <rect width="7.527" height="7.527" stroke="none"/>
          <rect x="0.25" y="0.25" width="7.027" height="7.027" fill="none"/>
        </g>
        <g id="Rectangle_2051" data-name="Rectangle 2051" transform="translate(11.617 10.228)" fill="none" stroke="#298bbe" stroke-width="0.5">
          <rect width="5.376" height="5.376" stroke="none"/>
          <rect x="0.25" y="0.25" width="4.876" height="4.876" fill="none"/>
        </g>
        <path id="Path_16643" data-name="Path 16643" d="M-2977.345,10225h1.5v3.108h6.513" transform="translate(2979.872 -10215.579)" fill="none" stroke="#298bbe" stroke-width="0.5"/>
        <path id="Path_16644" data-name="Path 16644" d="M-2966.853,10265h-6.736v3.789" transform="translate(2977.396 -10248.896)" fill="none" stroke="#298bbe" stroke-width="0.5"/>
        <path id="Path_16645" data-name="Path 16645" d="M-2885,10199.03h5.993v-7.011" transform="translate(2902.838 -10188.104)" fill="none" stroke="#298bbe" stroke-width="0.5"/>
        <path id="Path_16646" data-name="Path 16646" d="M-2882.555,10199.821H-2885v-7.8" transform="translate(2893.557 -10188.896)" fill="none" stroke="#298bbe" stroke-width="0.5"/>
        <path id="Path_16647" data-name="Path 16647" d="M-2885,10234.869h9.472v-1.757" transform="translate(2902.838 -10222.335)" fill="none" stroke="#298bbe" stroke-width="0.5"/>
        <path id="Path_16648" data-name="Path 16648" d="M-2885,10254.146h9.6v5.6" transform="translate(2902.838 -10239.854)" fill="none" stroke="#298bbe" stroke-width="0.5"/>
        <path id="Path_16649" data-name="Path 16649" d="M-2884.913,10265h5.819v4.671h-3.208v2.343" transform="translate(2904.139 -10248.896)" fill="none" stroke="#298bbe" stroke-width="0.5"/>
        <g id="Ellipse_1011" data-name="Ellipse 1011" transform="translate(-0.147 7)" fill="none" stroke="#298bbe" stroke-width="0.5">
          <circle cx="1.5" cy="1.5" r="1.5" stroke="none"/>
          <circle cx="1.5" cy="1.5" r="1.25" fill="none"/>
        </g>
        <g id="Ellipse_1012" data-name="Ellipse 1012" transform="translate(-0.147 13)" fill="none" stroke="#298bbe" stroke-width="0.5">
          <circle cx="1.5" cy="1.5" r="1.5" stroke="none"/>
          <circle cx="1.5" cy="1.5" r="1.25" fill="none"/>
        </g>
        <g id="Ellipse_1013" data-name="Ellipse 1013" transform="translate(1.853 20)" fill="none" stroke="#298bbe" stroke-width="0.5">
          <circle cx="1.5" cy="1.5" r="1.5" stroke="none"/>
          <circle cx="1.5" cy="1.5" r="1.25" fill="none"/>
        </g>
        <g id="Ellipse_1014" data-name="Ellipse 1014" transform="translate(20.853 23)" fill="none" stroke="#298bbe" stroke-width="0.5">
          <circle cx="1" cy="1" r="1" stroke="none"/>
          <circle cx="1" cy="1" r="0.75" fill="none"/>
        </g>
        <g id="Ellipse_1015" data-name="Ellipse 1015" transform="translate(25.853 20)" fill="none" stroke="#298bbe" stroke-width="0.5">
          <circle cx="1.5" cy="1.5" r="1.5" stroke="none"/>
          <circle cx="1.5" cy="1.5" r="1.25" fill="none"/>
        </g>
        <g id="Ellipse_1016" data-name="Ellipse 1016" transform="translate(25.853 7)" fill="none" stroke="#298bbe" stroke-width="0.5">
          <circle cx="1.5" cy="1.5" r="1.5" stroke="none"/>
          <circle cx="1.5" cy="1.5" r="1.25" fill="none"/>
        </g>
        <g id="Ellipse_1017" data-name="Ellipse 1017" transform="translate(22.853 1)" fill="none" stroke="#298bbe" stroke-width="0.5">
          <circle cx="1.5" cy="1.5" r="1.5" stroke="none"/>
          <circle cx="1.5" cy="1.5" r="1.25" fill="none"/>
        </g>
        <g id="Ellipse_1018" data-name="Ellipse 1018" transform="translate(6.853)" fill="none" stroke="#298bbe" stroke-width="0.5">
          <circle cx="1.5" cy="1.5" r="1.5" stroke="none"/>
          <circle cx="1.5" cy="1.5" r="1.25" fill="none"/>
        </g>
        <path id="Path_16650" data-name="Path 16650" d="M-2980,10255.584h7.948" transform="translate(2982.694 -10241.22)" fill="none" stroke="#298bbe" stroke-width="0.5"/>
        <line id="Line_1609" data-name="Line 1609" y2="1.33" transform="translate(11.763 7.968)" fill="none" stroke="#298bbe" stroke-width="0.5"/>
        <line id="Line_1613" data-name="Line 1613" y2="1.031" transform="translate(11.763 16.533)" fill="none" stroke="#298bbe" stroke-width="0.5"/>
        <line id="Line_1610" data-name="Line 1610" y2="1.33" transform="translate(13.6 7.968)" fill="none" stroke="#298bbe" stroke-width="0.5"/>
        <line id="Line_1614" data-name="Line 1614" y2="1.031" transform="translate(13.6 16.533)" fill="none" stroke="#298bbe" stroke-width="0.5"/>
        <line id="Line_1611" data-name="Line 1611" y2="1.33" transform="translate(15.27 7.968)" fill="none" stroke="#298bbe" stroke-width="0.5"/>
        <line id="Line_1615" data-name="Line 1615" y2="1.031" transform="translate(15.27 16.533)" fill="none" stroke="#298bbe" stroke-width="0.5"/>
        <line id="Line_1612" data-name="Line 1612" y2="1.33" transform="translate(17.107 7.968)" fill="none" stroke="#298bbe" stroke-width="0.5"/>
        <line id="Line_1616" data-name="Line 1616" y2="1.031" transform="translate(17.107 16.533)" fill="none" stroke="#298bbe" stroke-width="0.5"/>
      </g>
    </g>
  </g>
</svg>
