<svg id="artificial-intelligence-ai-icon" xmlns="http://www.w3.org/2000/svg" xmlns:xlink="http://www.w3.org/1999/xlink" width="23.999" height="24.731" viewBox="0 0 23.999 24.731">
  <defs>
    <linearGradient id="linear-gradient" x1="0.5" x2="0.5" y2="1" gradientUnits="objectBoundingBox">
      <stop offset="0" stop-color="#33d4a3"/>
      <stop offset="0.246" stop-color="#2dacb1"/>
      <stop offset="0.549" stop-color="#2986c0"/>
      <stop offset="1" stop-color="#2466cf"/>
    </linearGradient>
  </defs>
  <path id="Path_16641" data-name="Path 16641" d="M17.364,20.952a.805.805,0,0,0-.612,0,.769.769,0,0,0-.252.169l-.006,0a.722.722,0,0,0-.109.137.837.837,0,0,0-.046.085h-1.27v-1.1a2.745,2.745,0,0,1-.606.2c-.036.008-.07.014-.107.02V21.7a.357.357,0,0,0,.356.356h1.638a.675.675,0,0,0,.042.072.779.779,0,0,0,.1.119l.006.006a.793.793,0,0,0,.26.173.813.813,0,0,0,.306.06.788.788,0,0,0,.3-.058l.006,0a.815.815,0,0,0,.26-.173.793.793,0,0,0,.173-.26.813.813,0,0,0,.06-.306.829.829,0,0,0-.06-.306.793.793,0,0,0-.173-.26.888.888,0,0,0-.264-.171Zm-5.806-7.547H10.068l-.213.7H8.515l1.6-4.25h1.437l1.594,4.25H11.771l-.213-.7Zm-.278-.922-.465-1.527-.467,1.527Zm2.236-2.63h1.318V14.1H13.516V9.853Zm-1-4.357a2.326,2.326,0,0,0-.594.642.093.093,0,0,1-.034.034.118.118,0,0,1-.161-.034,2.326,2.326,0,0,0-.594-.642,1.9,1.9,0,0,0-.745-.328h0a2.027,2.027,0,0,0-.763-.008,2.3,2.3,0,0,0-.749.276,2.415,2.415,0,0,0-.6.5,2.108,2.108,0,0,0-.384.646h0c-.014.036-.026.074-.038.115s-.022.076-.03.117a.114.114,0,0,1-.111.093,2.2,2.2,0,0,0-.787.286,2.7,2.7,0,0,0-.692.6,3.036,3.036,0,0,0-.491.857,3.181,3.181,0,0,0-.2.986c0,.046,0,.091,0,.137s0,.087,0,.133a.118.118,0,0,1-.048.1,4.188,4.188,0,0,0-.447.368,3.288,3.288,0,0,0-.356.4,2.646,2.646,0,0,0-.372.7,2.4,2.4,0,0,0-.034,1.469,2.669,2.669,0,0,0,.308.678h0a3.135,3.135,0,0,0,.258.356,3.423,3.423,0,0,0,.314.326.12.12,0,0,1,.036.109,2.724,2.724,0,0,0-.054.453,2.784,2.784,0,0,0,.024.451,2.713,2.713,0,0,0,.227.765,2.891,2.891,0,0,0,.447.688,2.96,2.96,0,0,0,.576.515,2.751,2.751,0,0,0,.664.336,2.4,2.4,0,0,0,.314.083,1.934,1.934,0,0,0,.3.036.116.116,0,0,1,.117.093,2,2,0,0,0,.282.668,2.309,2.309,0,0,0,.515.559,2.35,2.35,0,0,0,.865.425,2.028,2.028,0,0,0,.914.024,1.948,1.948,0,0,0,.785-.358,2.379,2.379,0,0,0,.61-.7.105.105,0,0,1,.046-.042.116.116,0,0,1,.157.048,2.153,2.153,0,0,0,.519.648,1.88,1.88,0,0,0,.7.362,2.063,2.063,0,0,0,.966.02,2.51,2.51,0,0,0,.956-.425A2.451,2.451,0,0,0,15.7,18.5a2.086,2.086,0,0,0,.324-.682.115.115,0,0,1,.095-.095,2.2,2.2,0,0,0,.855-.358,2.78,2.78,0,0,0,.71-.712,3.073,3.073,0,0,0,.425-.906,3.213,3.213,0,0,0,.117-1.006.112.112,0,0,1,.05-.1,4.052,4.052,0,0,0,.463-.37,3.149,3.149,0,0,0,.366-.413h0a2.588,2.588,0,0,0,.362-.674,2.414,2.414,0,0,0,.137-.727,2.485,2.485,0,0,0-.083-.7,2.67,2.67,0,0,0-.278-.666l0,0a3.117,3.117,0,0,0-.28-.4,3.313,3.313,0,0,0-.35-.364.118.118,0,0,1-.038-.111,2.685,2.685,0,0,0,.052-.415,2.783,2.783,0,0,0-.012-.411,2.686,2.686,0,0,0-.213-.793,2.927,2.927,0,0,0-.447-.714,3.054,3.054,0,0,0-.586-.533A2.692,2.692,0,0,0,16.691,7l-.006,0a2.265,2.265,0,0,0-.37-.093h0a1.987,1.987,0,0,0-.36-.026.117.117,0,0,1-.121-.089,1.981,1.981,0,0,0-.076-.241,2.3,2.3,0,0,0-.111-.237,2.2,2.2,0,0,0-.419-.545,2.452,2.452,0,0,0-.576-.409,2.243,2.243,0,0,0-.692-.219,2.027,2.027,0,0,0-.7.02,2.1,2.1,0,0,0-.749.338ZM15.8,7.762a.12.12,0,0,1,.1-.083,1.112,1.112,0,0,1,.258.012,1.6,1.6,0,0,1,.266.066,1.946,1.946,0,0,1,.489.252,2.186,2.186,0,0,1,.423.386l0,0a2.112,2.112,0,0,1,.324.517,1.912,1.912,0,0,1,.153.566,1.887,1.887,0,0,1,0,.413,1.846,1.846,0,0,1-.091.4l0,.008a.4.4,0,0,0,0,.252.392.392,0,0,0,.155.2l.006,0a2.545,2.545,0,0,1,.374.34,2.321,2.321,0,0,1,.29.392,1.868,1.868,0,0,1,.2.469,1.59,1.59,0,0,1-.036.972,1.849,1.849,0,0,1-.248.457l0,0a2.4,2.4,0,0,1-.37.394,3.449,3.449,0,0,1-.491.346l-.006,0a.379.379,0,0,0-.161.181.4.4,0,0,0-.026.237l0,.016a2.482,2.482,0,0,1-.042.869,2.268,2.268,0,0,1-.342.777,2.041,2.041,0,0,1-.4.435,1.531,1.531,0,0,1-.481.264h0A.117.117,0,0,1,16,16.84a2.026,2.026,0,0,0-1.284-1.324l-.014-.008a.387.387,0,0,0-.284-.02.36.36,0,0,0-.215.181l-.006.012a.378.378,0,0,0,.167.5c.555.284.966.5.96,1.2a1.17,1.17,0,0,1-.175.59,1.738,1.738,0,0,1-.471.5,1.759,1.759,0,0,1-.64.294,1.315,1.315,0,0,1-.644,0,1.173,1.173,0,0,1-.731-.614,3.211,3.211,0,0,1-.284-.869.089.089,0,0,1,0-.032.308.308,0,0,0-.26-.282.689.689,0,0,0-.2-.028.751.751,0,0,0-.2.028.312.312,0,0,0-.258.282.136.136,0,0,1,0,.028,2.7,2.7,0,0,1-.467,1.024,1.294,1.294,0,0,1-.755.5,1.315,1.315,0,0,1-.594-.02,1.64,1.64,0,0,1-.566-.282,1.515,1.515,0,0,1-.4-.469,1.166,1.166,0,0,1-.147-.553c0-.733.443-.978,1.028-1.278a.378.378,0,0,0-.338-.676l-.006,0a2.158,2.158,0,0,0-1.35,1.377.119.119,0,0,1-.117.087,1.236,1.236,0,0,1-.207-.024,1.353,1.353,0,0,1-.2-.056,2.029,2.029,0,0,1-.479-.244,2.213,2.213,0,0,1-.417-.374,2.127,2.127,0,0,1-.324-.5,1.946,1.946,0,0,1-.165-.545v0a1.769,1.769,0,0,1-.008-.439,1.9,1.9,0,0,1,.095-.433l0-.006a.394.394,0,0,0,0-.246l0,0a.393.393,0,0,0-.151-.2l0,0a2.479,2.479,0,0,1-.348-.312,2.285,2.285,0,0,1-.274-.358,1.98,1.98,0,0,1-.213-.477,1.71,1.71,0,0,1-.068-.5,1.612,1.612,0,0,1,.093-.517,1.9,1.9,0,0,1,.26-.485,2.439,2.439,0,0,1,.364-.394,3.362,3.362,0,0,1,.477-.35.389.389,0,0,0,.147-.161l0-.006a.377.377,0,0,0,.034-.215.1.1,0,0,1,0-.024v0c-.01-.07-.016-.141-.02-.209s0-.149,0-.221a2.382,2.382,0,0,1,.143-.735A2.248,2.248,0,0,1,6.826,8.3a1.893,1.893,0,0,1,.411-.376A1.479,1.479,0,0,1,7.7,7.712h0a.117.117,0,0,1,.145.076,1.931,1.931,0,0,0,.582.922l.012.01a.369.369,0,0,0,.266.1A.365.365,0,0,0,8.957,8.7l.006-.008a.369.369,0,0,0,.1-.266.383.383,0,0,0-.121-.262,1.128,1.128,0,0,1-.368-.588,1.116,1.116,0,0,1,.012-.739,1.33,1.33,0,0,1,.258-.427,1.586,1.586,0,0,1,.394-.326l.006,0A1.553,1.553,0,0,1,9.73,5.9a1.27,1.27,0,0,1,.493,0,1.258,1.258,0,0,1,.654.378,2.2,2.2,0,0,1,.453.771l0,0a.408.408,0,0,0,.34.237A.921.921,0,0,0,11.9,7.3h0a.848.848,0,0,0,.217-.04.336.336,0,0,0,.237-.187V7.03a1.07,1.07,0,0,1,.33-.684,1.52,1.52,0,0,1,.724-.445,1.283,1.283,0,0,1,.447-.01,1.52,1.52,0,0,1,.443.143l.012,0a1.65,1.65,0,0,1,.388.274,1.5,1.5,0,0,1,.282.366,1.135,1.135,0,0,1,.131.708.939.939,0,0,1-.227.588l0,0a.374.374,0,0,0-.087.274.369.369,0,0,0,.125.248l.012.01a.375.375,0,0,0,.517-.042l.01-.014a1.659,1.659,0,0,0,.344-.688Zm4.419,9.849a.805.805,0,0,1,0-.612.769.769,0,0,1,.169-.252l0-.006a.723.723,0,0,1,.137-.109.838.838,0,0,1,.085-.046v-1.27H19.054c0-.083,0-.165,0-.25a.128.128,0,0,1,.056-.119,4.4,4.4,0,0,0,.441-.344H20.97a.357.357,0,0,1,.356.356V16.6a.675.675,0,0,1,.072.042.779.779,0,0,1,.119.1l.006.006A.793.793,0,0,1,21.7,17a.813.813,0,0,1,.06.306.8.8,0,0,1-.058.3l0,.006a.815.815,0,0,1-.173.26.793.793,0,0,1-.26.173.813.813,0,0,1-.306.06.829.829,0,0,1-.306-.06.793.793,0,0,1-.26-.173.888.888,0,0,1-.171-.264Zm2.262-4.075H20.36c.036-.078.068-.157.1-.237a2.531,2.531,0,0,0,.121-.475h1.906c.014-.026.028-.052.044-.078a.747.747,0,0,1,.1-.131.783.783,0,0,1,.26-.173.813.813,0,0,1,.306-.06.8.8,0,0,1,.3.058l.006,0a.815.815,0,0,1,.26.173.793.793,0,0,1,.173.26.813.813,0,0,1,.06.306.829.829,0,0,1-.06.306.8.8,0,0,1-.433.433.813.813,0,0,1-.306.06.8.8,0,0,1-.3-.058l-.006,0a.815.815,0,0,1-.26-.173.786.786,0,0,1-.1-.127l0-.006c-.014-.024-.028-.05-.042-.076Zm.676-1.948H20.489a3.132,3.132,0,0,0-.286-.654l0-.006-.03-.052h2.636V8.551c-.02-.012-.04-.024-.06-.038a.818.818,0,0,1-.111-.093.793.793,0,0,1-.173-.26.8.8,0,0,1,.173-.871.793.793,0,0,1,.26-.173.813.813,0,0,1,.306-.06.829.829,0,0,1,.306.06.8.8,0,0,1,.433.433.813.813,0,0,1,.06.306.8.8,0,0,1-.058.3l0,.006a.815.815,0,0,1-.173.26.809.809,0,0,1-.248.169v2.64a.361.361,0,0,1-.358.358ZM20.368,9.869h-.91a2.98,2.98,0,0,0,.044-.4c0-.107,0-.211,0-.314h.511V8.106a.641.641,0,0,1-.08-.046.76.76,0,0,1-.135-.109h0a.793.793,0,0,1-.173-.26.81.81,0,0,1-.06-.3.8.8,0,0,1,.227-.559l.006-.006a.793.793,0,0,1,.26-.173.805.805,0,0,1,.612,0,.8.8,0,0,1,.254.169l.006,0a.783.783,0,0,1,.171.254l0,.006a.805.805,0,0,1,0,.612.829.829,0,0,1-.167.254l-.006.006a.834.834,0,0,1-.129.1.545.545,0,0,1-.074.042V9.513a.354.354,0,0,1-.1.252.358.358,0,0,1-.252.1ZM6.265,3.777a.805.805,0,0,0,.612,0,.769.769,0,0,0,.252-.169l.006,0a.723.723,0,0,0,.109-.137.837.837,0,0,0,.046-.085h1.27v1.1a2.645,2.645,0,0,1,.712-.256v-1.2a.357.357,0,0,0-.356-.356H7.277A.675.675,0,0,0,7.235,2.6a.779.779,0,0,0-.1-.119l-.006-.006a.793.793,0,0,0-.26-.173.813.813,0,0,0-.306-.06.788.788,0,0,0-.3.058l-.006,0A.815.815,0,0,0,6,2.473a.793.793,0,0,0-.173.26.813.813,0,0,0-.06.306.829.829,0,0,0,.06.306A.793.793,0,0,0,6,3.6a.88.88,0,0,0,.264.173Zm4.077-2.262V4.264a2.212,2.212,0,0,1,.686.334l.024.018c0-.006,0-.012,0-.018V1.515c.026-.014.052-.028.078-.044a.746.746,0,0,0,.131-.1A.8.8,0,0,0,11.5.8a.8.8,0,0,0-.058-.3l0-.006a.815.815,0,0,0-.173-.26A.793.793,0,0,0,11,.062.813.813,0,0,0,10.7,0a.829.829,0,0,0-.306.06A.8.8,0,0,0,9.96.5.813.813,0,0,0,9.9.8a.8.8,0,0,0,.058.3l0,.006a.815.815,0,0,0,.173.26.785.785,0,0,0,.127.1l0,0c.026.016.05.03.078.044ZM12.288.839V4.86a2.437,2.437,0,0,1,.3-.262A2.133,2.133,0,0,1,13,4.365V1.193h2.324c.012.02.024.04.038.06a.818.818,0,0,0,.093.111.793.793,0,0,0,.26.173.813.813,0,0,0,.306.06.821.821,0,0,0,.306-.06A.8.8,0,0,0,16.76,1.1.813.813,0,0,0,16.82.8a.829.829,0,0,0-.06-.306.793.793,0,0,0-.173-.26A.856.856,0,0,0,16.323.06a.81.81,0,0,0-.3-.06.8.8,0,0,0-.3.058l-.006,0a.815.815,0,0,0-.26.173.809.809,0,0,0-.169.248h-2.64a.354.354,0,0,0-.252.1.363.363,0,0,0-.1.254ZM14.007,3.63v.551a2.024,2.024,0,0,1,.219.022,2.426,2.426,0,0,1,.493.125v-.34H15.77a.641.641,0,0,0,.046.08.76.76,0,0,0,.109.135h0a.793.793,0,0,0,.26.173.81.81,0,0,0,.3.06.8.8,0,0,0,.559-.227l.006-.006a.793.793,0,0,0,.173-.26.805.805,0,0,0,0-.612.8.8,0,0,0-.169-.254l0-.006A.783.783,0,0,0,16.8,2.9l-.006,0a.805.805,0,0,0-.612,0,.829.829,0,0,0-.254.167l-.006.006a.834.834,0,0,0-.1.129.544.544,0,0,0-.042.074H14.363a.354.354,0,0,0-.252.1.346.346,0,0,0-.1.25ZM3.777,7.084a.805.805,0,0,1,0,.612.769.769,0,0,1-.169.252l0,.006a.723.723,0,0,1-.137.109.837.837,0,0,1-.085.046v1.27H4.7V9.44c0,.048,0,.1,0,.151a.131.131,0,0,1-.054.117,4.592,4.592,0,0,0-.469.382H3.031a.357.357,0,0,1-.356-.356V8.1A.675.675,0,0,1,2.6,8.054a.779.779,0,0,1-.119-.1l-.006-.006a.793.793,0,0,1-.173-.26.813.813,0,0,1-.06-.306.8.8,0,0,1,.058-.3l0-.006a.815.815,0,0,1,.173-.26.793.793,0,0,1,.26-.173.813.813,0,0,1,.306-.06.829.829,0,0,1,.306.06.793.793,0,0,1,.26.173.923.923,0,0,1,.169.264ZM1.515,11.159H3.407c-.032.072-.06.147-.087.219a2.69,2.69,0,0,0-.121.491H1.515c-.014.026-.028.052-.044.078a.746.746,0,0,1-.1.131.783.783,0,0,1-.26.173.813.813,0,0,1-.306.06.8.8,0,0,1-.3-.058l-.006,0a.815.815,0,0,1-.26-.173.793.793,0,0,1-.173-.26A.813.813,0,0,1,0,11.513a.829.829,0,0,1,.06-.306A.8.8,0,0,1,.5,10.775a.813.813,0,0,1,.306-.06.8.8,0,0,1,.3.058l.006,0a.815.815,0,0,1,.26.173.785.785,0,0,1,.1.127l0,.006.042.078ZM.839,13.107H3.3a3.008,3.008,0,0,0,.328.7v0l0,.008H1.193v2.324c.02.012.04.024.06.038a.818.818,0,0,1,.111.093.793.793,0,0,1,.173.26.813.813,0,0,1,.06.306.821.821,0,0,1-.06.306.815.815,0,0,1-.173.26.793.793,0,0,1-.26.173.813.813,0,0,1-.306.06.829.829,0,0,1-.306-.06.793.793,0,0,1-.26-.173.906.906,0,0,1-.173-.264A.813.813,0,0,1,0,16.836a.8.8,0,0,1,.058-.3l0-.006a.815.815,0,0,1,.173-.26A.809.809,0,0,1,.481,16.1v-2.64a.354.354,0,0,1,.1-.252.37.37,0,0,1,.254-.1ZM3.63,14.826h.664a2.941,2.941,0,0,0-.038.392,2.812,2.812,0,0,0,.006.32H3.987v1.051a.64.64,0,0,1,.08.046.76.76,0,0,1,.135.109h0a.793.793,0,0,1,.173.26.805.805,0,0,1,0,.612.829.829,0,0,1-.167.254l-.006.006a.793.793,0,0,1-.26.173.805.805,0,0,1-.612,0,.8.8,0,0,1-.254-.169l-.006,0a.783.783,0,0,1-.171-.254l0-.006A.805.805,0,0,1,2.9,17a.829.829,0,0,1,.167-.254l.006-.006a.834.834,0,0,1,.129-.1.544.544,0,0,1,.074-.042V15.184a.354.354,0,0,1,.1-.252.34.34,0,0,1,.252-.107Zm9.658,8.388V20.4a2.077,2.077,0,0,1-.706-.384l0,0v3.206c-.026.014-.052.028-.078.044a.746.746,0,0,0-.131.1.8.8,0,0,0-.233.566.8.8,0,0,0,.058.3l0,.006a.815.815,0,0,0,.173.26.793.793,0,0,0,.26.173.813.813,0,0,0,.306.06.829.829,0,0,0,.306-.06.8.8,0,0,0,.433-.433.813.813,0,0,0,.06-.306.8.8,0,0,0-.058-.3l0-.006a.815.815,0,0,0-.173-.26.785.785,0,0,0-.127-.1l-.006,0c-.026-.016-.052-.03-.078-.044Zm-1.948.676V19.833a2.4,2.4,0,0,1-.266.233,2.206,2.206,0,0,1-.447.264v3.208H8.3c-.012-.02-.024-.04-.038-.06a.818.818,0,0,0-.093-.111.793.793,0,0,0-.26-.173.8.8,0,0,0-.871.173.793.793,0,0,0-.173.26.813.813,0,0,0-.06.306.829.829,0,0,0,.06.306.8.8,0,0,0,.433.433.813.813,0,0,0,.306.06.8.8,0,0,0,.3-.058l.006,0a.815.815,0,0,0,.26-.173.809.809,0,0,0,.169-.248h2.64a.354.354,0,0,0,.252-.1.364.364,0,0,0,.107-.256ZM9.622,21.1v-.586a2.447,2.447,0,0,1-.467-.07c-.083-.02-.165-.046-.246-.074v.376H7.859a.641.641,0,0,0-.046-.08.76.76,0,0,0-.109-.135h0a.793.793,0,0,0-.26-.173.81.81,0,0,0-.3-.06.8.8,0,0,0-.559.227l-.006,0a.793.793,0,0,0-.173.26.805.805,0,0,0,0,.612.8.8,0,0,0,.169.254l0,.006a.783.783,0,0,0,.254.171l.006,0a.813.813,0,0,0,.306.06.8.8,0,0,0,.559-.227l.006-.006a.834.834,0,0,0,.1-.129.545.545,0,0,0,.042-.074H9.265a.357.357,0,0,0,.356-.356Z" transform="translate(0 0)" fill="url(#linear-gradient)"/>
</svg>
