<svg xmlns="http://www.w3.org/2000/svg" xmlns:xlink="http://www.w3.org/1999/xlink" width="40.068" height="41.302" viewBox="0 0 40.068 41.302">
  <defs>
    <linearGradient id="linear-gradient" x1="-10.995" y1="19.72" x2="-10.995" y2="19.679" gradientUnits="objectBoundingBox">
      <stop offset="0" stop-color="#56be9a"/>
      <stop offset="0.25" stop-color="#2cabb0"/>
      <stop offset="0.55" stop-color="#2a85bf"/>
      <stop offset="1" stop-color="#3a67b0"/>
    </linearGradient>
  </defs>
  <path id="Path_16641" data-name="Path 16641" d="M87.667,34.968a1.344,1.344,0,0,0-1.018,0,1.422,1.422,0,0,0-.417.284h0a2.274,2.274,0,0,0-.184.234.93.93,0,0,1-.083.133H83.845V33.783a4.282,4.282,0,0,1-1.018.334.71.71,0,0,0-.184.033v2.069a.6.6,0,0,0,.6.6h2.737s.05.083.067.117a1.768,1.768,0,0,0,.167.2h0a1.129,1.129,0,0,0,.434.3,1.36,1.36,0,0,0,.517.1,1.339,1.339,0,0,0,.5-.1h0a1.265,1.265,0,0,0,.718-.718,1.36,1.36,0,0,0,.1-.517,1.424,1.424,0,0,0-.1-.517,1.305,1.305,0,0,0-.284-.434,1.764,1.764,0,0,0-.434-.284h0Zm-9.7-12.583H75.485l-.35,1.168H72.9l2.67-7.092h2.4l2.653,7.092h-2.3l-.35-1.168Zm-.451-1.552-.784-2.553-.784,2.553H77.5Zm3.721-4.389h2.2v7.092h-2.2ZM79.573,9.185a3.538,3.538,0,0,0-.985,1.068.075.075,0,0,1-.05.05.2.2,0,0,1-.267-.05,4.021,4.021,0,0,0-.985-1.068,3.427,3.427,0,0,0-1.235-.551h0a3.244,3.244,0,0,0-1.268,0,3.79,3.79,0,0,0-1.252.467,3.71,3.71,0,0,0-1,.834,3.1,3.1,0,0,0-.634,1.085h0a1.663,1.663,0,0,0-.067.184l-.05.2a.2.2,0,0,1-.184.15,3.4,3.4,0,0,0-1.318.484,4.409,4.409,0,0,0-1.151,1,4.917,4.917,0,0,0-.818,1.435,5.111,5.111,0,0,0-.334,1.652v.451s-.033.134-.083.167a6.714,6.714,0,0,0-.751.617,5.712,5.712,0,0,0-.6.668,4.353,4.353,0,0,0-.617,1.168,3.974,3.974,0,0,0-.05,2.453,4.1,4.1,0,0,0,.517,1.135h0a6.77,6.77,0,0,0,.434.6c.167.2.334.367.517.551a.251.251,0,0,1,.067.184,3.834,3.834,0,0,0-.083.751,5.655,5.655,0,0,0,.033.751,4.542,4.542,0,0,0,.384,1.285,5.258,5.258,0,0,0,.751,1.151,4.274,4.274,0,0,0,.968.851,5.736,5.736,0,0,0,1.1.567c.167.05.35.1.517.134s.334.05.5.067a.2.2,0,0,1,.2.15,3.462,3.462,0,0,0,.467,1.118,3.834,3.834,0,0,0,.868.935,3.967,3.967,0,0,0,1.435.7,3.277,3.277,0,0,0,2.82-.567,4.02,4.02,0,0,0,1.018-1.168.167.167,0,0,1,.083-.067.21.21,0,0,1,.267.083h0a3.662,3.662,0,0,0,.868,1.085,3.118,3.118,0,0,0,1.168.6,3.538,3.538,0,0,0,1.619.033,4.433,4.433,0,0,0,1.6-.7,3.89,3.89,0,0,0,.951-.935,3.364,3.364,0,0,0,.534-1.135.161.161,0,0,1,.15-.15,3.582,3.582,0,0,0,1.418-.6,4.446,4.446,0,0,0,1.185-1.185,5.035,5.035,0,0,0,.7-1.519,5.759,5.759,0,0,0,.2-1.685.205.205,0,0,1,.083-.167,6.9,6.9,0,0,0,.768-.617A6.016,6.016,0,0,0,90.6,23.2h0a4.15,4.15,0,0,0,.834-2.336A4.564,4.564,0,0,0,91.3,19.7a4.67,4.67,0,0,0-.467-1.118h0a6,6,0,0,0-.467-.668,4.968,4.968,0,0,0-.584-.6.2.2,0,0,1-.067-.184,3.329,3.329,0,0,0,.083-.684c0-.234,0-.451-.017-.684a4.534,4.534,0,0,0-.35-1.318,4.2,4.2,0,0,0-.751-1.185,4.977,4.977,0,0,0-.985-.884,4.306,4.306,0,0,0-1.135-.584h0a3.707,3.707,0,0,0-.617-.15h0a3.648,3.648,0,0,0-.6-.05.185.185,0,0,1-.2-.15,3.754,3.754,0,0,0-.134-.4,4.264,4.264,0,0,0-.184-.4,3.724,3.724,0,0,0-.7-.918,4.411,4.411,0,0,0-.968-.684,4.032,4.032,0,0,0-1.151-.367,3.436,3.436,0,0,0-1.168.033,3.54,3.54,0,0,0-1.252.567h0Zm5.49,3.771s.083-.134.167-.134a3.772,3.772,0,0,1,.434.017,2.241,2.241,0,0,1,.451.117,3.778,3.778,0,0,1,.818.417,3.25,3.25,0,0,1,.7.651h0a3.575,3.575,0,0,1,.534.868,3.082,3.082,0,0,1,.25.951,2.35,2.35,0,0,1,0,.684,4.315,4.315,0,0,1-.15.668h0a.651.651,0,0,0,.267.768h0a3.327,3.327,0,0,1,.617.567,3.659,3.659,0,0,1,.484.651,2.713,2.713,0,0,1,.334.784,2.56,2.56,0,0,1-.067,1.619,2.867,2.867,0,0,1-.417.768h0a3.8,3.8,0,0,1-.617.651,5.608,5.608,0,0,1-.818.584h0a.589.589,0,0,0-.267.3.808.808,0,0,0-.05.4v.033a4.255,4.255,0,0,1-.067,1.452,3.775,3.775,0,0,1-.567,1.3,3.411,3.411,0,0,1-.668.718,2.209,2.209,0,0,1-.8.434h0a.172.172,0,0,1-.234-.1,3.388,3.388,0,0,0-2.136-2.2h-.017a.579.579,0,0,0-.467-.05.649.649,0,0,0-.367.3h0a.643.643,0,0,0,.284.851c.935.467,1.619.834,1.6,2a1.893,1.893,0,0,1-.3.985,2.678,2.678,0,0,1-.784.834,2.819,2.819,0,0,1-1.068.484,2.31,2.31,0,0,1-1.068,0,1.907,1.907,0,0,1-1.218-1.018,4.927,4.927,0,0,1-.467-1.452v-.05a.514.514,0,0,0-.434-.467,1.076,1.076,0,0,0-.334-.05.776.776,0,0,0-.334.05.514.514,0,0,0-.434.467v.05a4.29,4.29,0,0,1-.784,1.7A2.145,2.145,0,0,1,75.8,31.4a2.175,2.175,0,0,1-.985-.033,2.813,2.813,0,0,1-.951-.467,2.737,2.737,0,0,1-.668-.784,2.219,2.219,0,0,1-.25-.918c0-1.218.734-1.635,1.719-2.136a.653.653,0,0,0,.267-.851.644.644,0,0,0-.834-.284h0a3.6,3.6,0,0,0-2.253,2.3.2.2,0,0,1-.2.15,2.489,2.489,0,0,1-.35-.033,1.271,1.271,0,0,1-.334-.1,3.6,3.6,0,0,1-.8-.4,4.888,4.888,0,0,1-.7-.617,3.382,3.382,0,0,1-.534-.834,2.908,2.908,0,0,1-.267-.918h0a2.705,2.705,0,0,1,0-.734,3.429,3.429,0,0,1,.15-.718h0a.6.6,0,0,0,0-.417h0a.711.711,0,0,0-.25-.334h0a4.316,4.316,0,0,1-.584-.517,4.032,4.032,0,0,1-.451-.6,3.433,3.433,0,0,1-.35-.8,2.8,2.8,0,0,1-.117-.834,2.566,2.566,0,0,1,.15-.868,2.864,2.864,0,0,1,.434-.8,4.482,4.482,0,0,1,.6-.651,5.461,5.461,0,0,1,.8-.584.773.773,0,0,0,.25-.267h0a.7.7,0,0,0,.05-.367v-.033h0a2.489,2.489,0,0,1-.033-.35v-.367a3.758,3.758,0,0,1,.234-1.218,3.832,3.832,0,0,1,.567-1.1,4.113,4.113,0,0,1,.684-.634,2.281,2.281,0,0,1,.768-.35h0a.183.183,0,0,1,.234.134,3.11,3.11,0,0,0,.968,1.535h.017a.58.58,0,0,0,.451.184.557.557,0,0,0,.417-.2h0a.688.688,0,0,0,.167-.451.623.623,0,0,0-.2-.434A1.917,1.917,0,0,1,73,12.706a1.845,1.845,0,0,1,.017-1.235,2.427,2.427,0,0,1,.434-.718A2.924,2.924,0,0,1,74.1,10.2h0a2.294,2.294,0,0,1,.818-.3,2.245,2.245,0,0,1,.818,0,2.114,2.114,0,0,1,1.085.634,3.572,3.572,0,0,1,.751,1.285h0a.689.689,0,0,0,.567.4,1.482,1.482,0,0,0,.384.017h0a1.419,1.419,0,0,0,.367-.067.585.585,0,0,0,.4-.317v-.067a1.75,1.75,0,0,1,.551-1.135,2.675,2.675,0,0,1,1.2-.751,2.27,2.27,0,0,1,.751-.017,2.356,2.356,0,0,1,.734.234h.017a2.841,2.841,0,0,1,.651.451,2.411,2.411,0,0,1,.467.617,1.831,1.831,0,0,1,.217,1.185,1.547,1.547,0,0,1-.384.985h0a.642.642,0,0,0-.15.451.586.586,0,0,0,.2.417h.017a.61.61,0,0,0,.868-.05h.017a2.93,2.93,0,0,0,.567-1.168h0ZM92.44,29.394a1.343,1.343,0,0,1,0-1.018,1.421,1.421,0,0,1,.284-.417h0a2.273,2.273,0,0,1,.234-.184.933.933,0,0,0,.134-.083V25.573h-2.6v-.417a.428.428,0,0,1,.1-.2c.25-.184.5-.367.734-.567h2.37a.6.6,0,0,1,.6.6v2.737s.083.05.117.067a1.769,1.769,0,0,1,.2.167h0a1.554,1.554,0,0,1,.3.434,1.36,1.36,0,0,1,.1.517,1.339,1.339,0,0,1-.1.5h0a1.582,1.582,0,0,1-.284.451,1.305,1.305,0,0,1-.434.284,1.36,1.36,0,0,1-.517.1,1.424,1.424,0,0,1-.517-.1,1.305,1.305,0,0,1-.434-.284,1.764,1.764,0,0,1-.284-.434h0ZM96.211,22.6H92.673a4.073,4.073,0,0,0,.167-.4,3.133,3.133,0,0,0,.2-.8h3.187a.928.928,0,0,0,.067-.134,1.071,1.071,0,0,1,.167-.217,1.305,1.305,0,0,1,.434-.284,1.36,1.36,0,0,1,.517-.1,1.339,1.339,0,0,1,.5.1h0a1.265,1.265,0,0,1,.718.718,1.36,1.36,0,0,1,.1.517,1.424,1.424,0,0,1-.1.517,1.316,1.316,0,0,1-.718.718,1.36,1.36,0,0,1-.517.1,1.339,1.339,0,0,1-.5-.1h0a1.305,1.305,0,0,1-.434-.284,1.071,1.071,0,0,1-.167-.217h0l-.067-.134h0Zm1.118-3.254H92.873a4.886,4.886,0,0,0-.484-1.085h0l-.05-.1h4.406V14.275a.48.48,0,0,1-.1-.067,1.772,1.772,0,0,1-.184-.15,1.305,1.305,0,0,1-.284-.434,1.336,1.336,0,0,1,.284-1.452,1.305,1.305,0,0,1,.434-.284,1.36,1.36,0,0,1,.517-.1,1.424,1.424,0,0,1,.517.1,1.316,1.316,0,0,1,.718.718,1.36,1.36,0,0,1,.1.517,1.339,1.339,0,0,1-.1.5h0a1.583,1.583,0,0,1-.284.451,1.421,1.421,0,0,1-.417.284v4.406a.6.6,0,0,1-.6.6h0Zm-4.656-2.87H91.155a4.524,4.524,0,0,0,.067-.668v-.517h.851V13.541s-.083-.05-.134-.083a2.243,2.243,0,0,1-.234-.184h0a1.305,1.305,0,0,1-.284-.434,1.339,1.339,0,0,1-.1-.5,1.313,1.313,0,0,1,.384-.935h0a1.129,1.129,0,0,1,.434-.3,1.344,1.344,0,0,1,1.018,0,1.421,1.421,0,0,1,.417.284h0a1.421,1.421,0,0,1,.284.417h0a1.387,1.387,0,0,1,0,1.035,1.421,1.421,0,0,1-.284.417h0a1.611,1.611,0,0,1-.217.184.418.418,0,0,1-.117.067v2.37a.57.57,0,0,1-.584.584h0ZM69.143,6.315a1.344,1.344,0,0,0,1.018,0,1.422,1.422,0,0,0,.417-.284h0a2.274,2.274,0,0,0,.184-.234c.033-.05.05-.1.083-.15h2.119V7.483a4.206,4.206,0,0,1,1.185-.434v-2a.6.6,0,0,0-.6-.6H70.812s-.05-.083-.067-.117a1.768,1.768,0,0,0-.167-.2h0a1.129,1.129,0,0,0-.434-.3,1.36,1.36,0,0,0-.517-.1,1.339,1.339,0,0,0-.5.1h0a1.5,1.5,0,0,0-.434.284,1.305,1.305,0,0,0-.284.434,1.36,1.36,0,0,0-.1.517,1.424,1.424,0,0,0,.1.517A1.232,1.232,0,0,0,68.693,6a1.764,1.764,0,0,0,.434.284h0Zm6.809-3.771V7.132a3.667,3.667,0,0,1,1.151.551l.033.033V2.543a.929.929,0,0,1,.134-.067,1.071,1.071,0,0,0,.217-.167,1.368,1.368,0,0,0,.4-.951,1.339,1.339,0,0,0-.1-.5h0A1.582,1.582,0,0,0,77.5.407a1.582,1.582,0,0,0-.451-.284,1.339,1.339,0,0,0-.5-.1,1.424,1.424,0,0,0-.517.1,1.294,1.294,0,0,0-.718.734,1.339,1.339,0,0,0-.1.5,1.339,1.339,0,0,0,.1.5h0a1.583,1.583,0,0,0,.284.451,1.072,1.072,0,0,0,.217.167h0a.928.928,0,0,0,.134.067Zm3.237-1.135V8.117a3.116,3.116,0,0,1,.5-.434,3.968,3.968,0,0,1,.684-.384V1.993h3.872a.48.48,0,0,0,.067.1,1.773,1.773,0,0,0,.15.184,1.305,1.305,0,0,0,.434.284,1.36,1.36,0,0,0,.517.1,1.424,1.424,0,0,0,.517-.1,1.294,1.294,0,0,0,.718-.734,1.339,1.339,0,0,0,.1-.5,1.424,1.424,0,0,0-.1-.517,1.305,1.305,0,0,0-.284-.434A1.764,1.764,0,0,0,85.931.09a1.3,1.3,0,0,0-1,0h0A1.305,1.305,0,0,0,84.5.374a1.421,1.421,0,0,0-.284.417H79.807a.57.57,0,0,0-.584.584h0Zm2.87,4.656v.918a2.729,2.729,0,0,1,.367.033,4.5,4.5,0,0,1,.818.2V6.648H85s.05.083.083.134a2.243,2.243,0,0,0,.184.234h0A1.305,1.305,0,0,0,85.7,7.3a1.339,1.339,0,0,0,.5.1,1.313,1.313,0,0,0,.935-.384h0a1.583,1.583,0,0,0,.284-.451,1.344,1.344,0,0,0,0-1.018,1.422,1.422,0,0,0-.284-.417h0a1.209,1.209,0,0,0-.417-.3h0a1.344,1.344,0,0,0-1.018,0,1.422,1.422,0,0,0-.417.284h0s-.117.15-.167.217a.419.419,0,0,0-.067.117h-2.37a.57.57,0,0,0-.584.584h0ZM64.988,11.822a1.344,1.344,0,0,1,0,1.018,1.421,1.421,0,0,1-.284.417h0a2.273,2.273,0,0,1-.234.184c-.05.033-.1.05-.15.083v2.119h2.186v.35a.558.558,0,0,1-.083.2,9.31,9.31,0,0,0-.784.634H63.72a.6.6,0,0,1-.6-.6v-2.72s-.083-.05-.134-.083a1.767,1.767,0,0,1-.2-.167h0a1.582,1.582,0,0,1-.284-.451,1.36,1.36,0,0,1-.1-.517,1.339,1.339,0,0,1,.1-.5h0a1.583,1.583,0,0,1,.284-.451,1.305,1.305,0,0,1,.434-.284,1.36,1.36,0,0,1,.517-.1,1.424,1.424,0,0,1,.517.1,1.3,1.3,0,0,1,.434.284,1.764,1.764,0,0,1,.284.434h0ZM61.217,18.63h3.154c-.05.117-.1.25-.15.367a3.447,3.447,0,0,0-.2.818h-2.8a.929.929,0,0,0-.067.134,1.071,1.071,0,0,1-.167.217,1.3,1.3,0,0,1-.434.284,1.36,1.36,0,0,1-.517.1,1.339,1.339,0,0,1-.5-.1h0a1.265,1.265,0,0,1-.718-.718,1.8,1.8,0,0,1-.117-.517,1.424,1.424,0,0,1,.1-.517,1.294,1.294,0,0,1,.734-.718,1.36,1.36,0,0,1,.517-.1,1.339,1.339,0,0,1,.5.1h0a1.305,1.305,0,0,1,.434.284,1.071,1.071,0,0,1,.167.217h0l.067.134h0ZM60.1,21.884H64.2a4.988,4.988,0,0,0,.551,1.168H60.683v3.872a.48.48,0,0,1,.1.067,1.772,1.772,0,0,1,.184.15,1.3,1.3,0,0,1,.284.434,1.36,1.36,0,0,1,.1.517,1.424,1.424,0,0,1-.1.517,1.265,1.265,0,0,1-.718.718,1.36,1.36,0,0,1-.517.1,1.424,1.424,0,0,1-.517-.1,1.305,1.305,0,0,1-.434-.284,1.764,1.764,0,0,1-.284-.434,1.3,1.3,0,0,1,0-1h0a1.582,1.582,0,0,1,.284-.451,1.422,1.422,0,0,1,.417-.284V22.469a.579.579,0,0,1,.167-.417.658.658,0,0,1,.417-.167h0Zm4.656,2.87h1.1c-.033.217-.05.434-.067.651v.534h-.467v1.752s.083.05.134.083a2.245,2.245,0,0,1,.234.184h0a1.305,1.305,0,0,1,.284.434,1.344,1.344,0,0,1,0,1.018,1.422,1.422,0,0,1-.284.417h0a1.129,1.129,0,0,1-.434.3,1.344,1.344,0,0,1-1.018,0,1.421,1.421,0,0,1-.417-.284h0a1.421,1.421,0,0,1-.284-.417h0a1.33,1.33,0,0,1,.284-1.469h0a1.61,1.61,0,0,1,.217-.184.418.418,0,0,1,.117-.067V25.356a.579.579,0,0,1,.167-.417.6.6,0,0,1,.417-.184h0Zm16.1,13.984V34.05a3.536,3.536,0,0,1-1.185-.634h0v5.357a.928.928,0,0,1-.133.067,1.071,1.071,0,0,0-.217.167,1.323,1.323,0,0,0-.384.951,1.339,1.339,0,0,0,.1.5h0a1.582,1.582,0,0,0,.284.451,1.305,1.305,0,0,0,.434.284,1.36,1.36,0,0,0,.517.1,1.424,1.424,0,0,0,.517-.1,1.316,1.316,0,0,0,.718-.718,1.36,1.36,0,0,0,.1-.517,1.339,1.339,0,0,0-.1-.5h0a1.583,1.583,0,0,0-.284-.451,1.072,1.072,0,0,0-.217-.167h0a.928.928,0,0,0-.134-.067h0Zm-3.237,1.135V33.1a4.023,4.023,0,0,1-1.2.818v5.357H72.531a.48.48,0,0,0-.067-.1,1.773,1.773,0,0,0-.15-.184,1.305,1.305,0,0,0-.434-.284,1.336,1.336,0,0,0-1.452.284,1.305,1.305,0,0,0-.284.434,1.36,1.36,0,0,0-.1.517,1.424,1.424,0,0,0,.1.517,1.316,1.316,0,0,0,.718.718,1.36,1.36,0,0,0,.517.1,1.339,1.339,0,0,0,.5-.1h0a1.305,1.305,0,0,0,.434-.284,1.421,1.421,0,0,0,.284-.417H77a.579.579,0,0,0,.417-.167.606.606,0,0,0,.184-.434h0Zm-2.87-4.656v-.985a3.187,3.187,0,0,1-.784-.117c-.133-.033-.267-.083-.417-.117v.634H71.8s-.05-.083-.083-.134a2.243,2.243,0,0,0-.184-.234h0a1.305,1.305,0,0,0-.434-.284,1.339,1.339,0,0,0-.5-.1,1.312,1.312,0,0,0-.935.384h0a1.3,1.3,0,0,0-.284.434,1.344,1.344,0,0,0,0,1.018,1.421,1.421,0,0,0,.284.417h0a1.209,1.209,0,0,0,.417.3h0a1.36,1.36,0,0,0,.517.1,1.312,1.312,0,0,0,.935-.384h0s.117-.15.167-.234a.419.419,0,0,0,.067-.117h2.37a.6.6,0,0,0,.6-.6h0Z" transform="translate(-58.68 0.01)" opacity="0.63" fill="url(#linear-gradient)"/>
</svg>
