<svg xmlns="http://www.w3.org/2000/svg" xmlns:xlink="http://www.w3.org/1999/xlink" width="91.146" height="86.469" viewBox="0 0 91.146 86.469">
  <defs>
    <linearGradient id="linear-gradient" x1="-0.001" y1="0.499" x2="0.999" y2="0.499" gradientUnits="objectBoundingBox">
      <stop offset="0" stop-color="#55bf9b"/>
      <stop offset="0.15" stop-color="#2dacb1"/>
      <stop offset="0.4" stop-color="#2986c1"/>
      <stop offset="1" stop-color="#3b67b1"/>
    </linearGradient>
  </defs>
  <path id="Path_24988" data-name="Path 24988" d="M278.565,182.829c-2.286,0-4.157-2.182-4.157-4.885,0-3.741,3.326-7.171,3.43-7.379l.727-.831.728.831s3.43,3.638,3.43,7.379c0,2.7-1.871,4.885-4.157,4.885Zm0-9.873c-.831,1.143-2.079,3.118-2.079,4.989,0,1.559.935,2.806,2.079,2.806s2.079-1.247,2.079-2.806A9.353,9.353,0,0,0,278.565,172.956Zm-73.374,8.938h-6.236v-5.716a9.432,9.432,0,0,1-4.157-7.795V153.729a9.37,9.37,0,0,1,7.275-9.146c-.624-.727-1.247-1.559-1.871-2.39-2.494-3.326-5.4-8.418-5.4-13.511V104.674h2.079V102.6H192.72V96.36h64.748V102.6h-4.157v2.079h2.079v24.007c0,5.093-2.91,10.185-5.4,13.511-.624.831-1.247,1.559-1.871,2.39a9.632,9.632,0,0,1,5.716,3.949h.52l12.783-.312v-4.157h12.575V150.3h-2.183a13.489,13.489,0,0,1,6.34,11.536v5.2H271.29v-5.2a.982.982,0,0,0-1.039-1.039l-14.862.312v7.379a9.3,9.3,0,0,1-4.157,7.795V182H245V177.84H205.3V182Zm-4.261-2.079h2.079v-4.157h43.858v4.157h2.078V174.93l.52-.312a7.327,7.327,0,0,0,3.638-6.34v-9.354l16.94-.416a3.127,3.127,0,0,1,3.118,3.118v3.118h8.418v-3.118a11.577,11.577,0,0,0-11.536-11.536v-2.079h7.275v-2.078H268.9v4.157l-16.629.416-.312-.52a7.327,7.327,0,0,0-6.34-3.637h-2.39l1.663-1.767a33.973,33.973,0,0,0,3.118-3.638c2.286-3.118,4.988-7.795,4.988-12.367V106.649H250.92v-6.236h4.157V98.335H194.487v2.079h4.157v6.236h-2.079v21.929c0,4.573,2.7,9.25,4.989,12.367a33.946,33.946,0,0,0,3.118,3.638l1.663,1.767h-2.39a7.3,7.3,0,0,0-7.275,7.275v14.654a7.327,7.327,0,0,0,3.638,6.34l.52.312v4.885ZM244.477,161a15.585,15.585,0,0,1-9.769-3.845,18.8,18.8,0,0,1-3.014,1.975l-1.559.831v-9.458h-2.079v10.081l-.831.208a11.3,11.3,0,0,1-4.573,0l-.831-.208V150.507h-2.079v9.458l-1.559-.831a30.085,30.085,0,0,1-3.014-1.975c-5.2,4.157-10.5,4.989-15.8,2.39l-.624-.312v-5.508a5.212,5.212,0,0,1,5.2-5.2h7.587l-5.716-5.82h0l-1.351-1.559h0a25.729,25.729,0,0,1-1.975-2.7c-1.663-2.494-3.638-6.236-3.638-9.769L198.54,110.6l52.8-.935-.312,19.019c0,3.534-1.975,7.275-3.638,9.769a29.652,29.652,0,0,1-2.6,3.43l-.208.312-6.236,6.34h7.587a5.212,5.212,0,0,1,5.2,5.2v5.508l-.624.312A14.259,14.259,0,0,1,244.476,161Zm-9.769-6.548.728.624c4.573,3.949,9.042,4.885,13.615,2.91v-4.261a3.127,3.127,0,0,0-3.118-3.118H232.317v5.82a11.348,11.348,0,0,0,1.767-1.351l.624-.624Zm-33.777,3.43c4.573,1.975,9.042,1.039,13.615-2.91l.728-.624.624.624a11.352,11.352,0,0,0,1.767,1.351v-5.82H204.048a3.127,3.127,0,0,0-3.118,3.118v4.261Zm23.072.935h2.079v-8.314H224Zm8.314-10.393H234.4V128.162h-2.079Zm-2.078,0h0V126.084h6.236v21.305l6.755-6.859a25.243,25.243,0,0,0,2.494-3.326c1.455-2.287,3.326-5.612,3.326-8.626l.312-16.94-48.639.935.312,16.005c0,3.014,1.767,6.34,3.326,8.626a25.215,25.215,0,0,0,2.494,3.326l6.755,6.859V126.084h6.236v22.345h2.078V126.084h6.236v22.345h2.078Zm-6.236,0h2.079V128.162H224Zm-8.418,0h2.078V128.162h-2.078Z" transform="translate(-192.72 -96.36)" fill="url(#linear-gradient)"/>
</svg>
