<svg xmlns="http://www.w3.org/2000/svg" xmlns:xlink="http://www.w3.org/1999/xlink" width="54.265" height="41.106" viewBox="0 0 54.265 41.106">
  <defs>
    <linearGradient id="linear-gradient" x1="0.001" y1="0.499" x2="0.992" y2="0.499" gradientUnits="objectBoundingBox">
      <stop offset="0" stop-color="#55bf9b"/>
      <stop offset="0.15" stop-color="#2dacb1"/>
      <stop offset="0.4" stop-color="#2986c1"/>
      <stop offset="1" stop-color="#3b67b1"/>
    </linearGradient>
    <linearGradient id="linear-gradient-2" x1="0.001" y1="0.498" x2="0.999" y2="0.498" xlink:href="#linear-gradient"/>
    <linearGradient id="linear-gradient-3" x1="0" y1="0.497" x2="0.996" y2="0.497" xlink:href="#linear-gradient"/>
    <linearGradient id="linear-gradient-4" x1="0.001" y1="0.501" x2="0.994" y2="0.501" xlink:href="#linear-gradient"/>
    <linearGradient id="linear-gradient-5" x1="4.479" y1="0.455" x2="5.218" y2="0.455" xlink:href="#linear-gradient"/>
    <linearGradient id="linear-gradient-6" x1="8.729" y1="0.797" x2="9.713" y2="0.797" xlink:href="#linear-gradient"/>
  </defs>
  <g id="Group_6425" data-name="Group 6425" transform="translate(-3269.24 -345)">
    <g id="Group_5259" data-name="Group 5259" transform="translate(3269.24 345)">
      <path id="Path_26760" data-name="Path 26760" d="M207.827,189.246a2.242,2.242,0,0,1-.87-.435,28.241,28.241,0,0,1-2.03-3.552,1.232,1.232,0,0,1,.725-1.667l.217-.145a18.582,18.582,0,0,1,2.9-1.595,1.335,1.335,0,0,1,1.3.217,1.106,1.106,0,0,1,.217,1.16c-.073.362-1.015.87-1.667,1.232.435.072.942.217,1.3.29a17.42,17.42,0,0,0,13.919-3.552l.217-.145c.507-.363,1.232-.943,1.16-1.45l-1.3-10.366s0-.435.217-.58c.362-.507.58-.507.652-.507H238.2l-4.495-8.772a1.8,1.8,0,0,1-.145-1.595,3.366,3.366,0,0,1,2.1-1.74c1.957-.725,2.537.435,3.117,1.522l.217.362c.362.652.652,1.3,1.015,1.957a24.3,24.3,0,0,0,1.45,2.682,3.185,3.185,0,0,1,2.755.725,3.9,3.9,0,0,1,1.16,3.335,2.446,2.446,0,0,1-.58,1.232,1.516,1.516,0,0,0-.29.435l3.045,5.944c.507,1.522-.725,2.537-2.175,3.045a1.871,1.871,0,0,1-2.392-.58l-.58-.942-1.45,11.091-.362.508h-13.7a2.936,2.936,0,0,1-.725-.943,22.51,22.51,0,0,1-.29-2.32,12.981,12.981,0,0,0-.145-1.74c-.145.145-.362.29-.507.435-.217.217-.435.362-.507.435a19.671,19.671,0,0,1-16.311,3.262s0,.145.072.145a6.582,6.582,0,0,1,.652,1.3,1.2,1.2,0,0,1-.652,1.087c-.145,0-.29.072-.435.072Zm1.45-6.742h-.29a20.683,20.683,0,0,0-2.682,1.522l-.217.145c-.507.362-.58.435-.435.8a36.674,36.674,0,0,0,1.957,3.335.4.4,0,0,0,.435.145c.073,0,.217-.145.217-.362a3.83,3.83,0,0,0-.58-1.015c-.508-.87-.652-1.087-.363-1.377l.145-.145h.217a18.62,18.62,0,0,0,16.456-2.9c.073,0,.217-.217.435-.362.87-.725.942-.8,1.16-.8.363,0,.508.507.508.58a19.308,19.308,0,0,1,.217,2.03c0,.725.145,1.522.217,2.247a.516.516,0,0,0,.217.435h13.049l.145-.217,1.595-12.976,1.595,2.682c.435.507.8.58,1.595.29.363-.145,2.175-.87,1.74-2.1l-3.19-6.234v-.145a6.4,6.4,0,0,1,.58-.8,1.431,1.431,0,0,0,.435-.87,3.039,3.039,0,0,0-.942-2.682,2.431,2.431,0,0,0-2.32-.507h-.29l-.145-.145c-.58-.942-1.087-1.957-1.595-2.972-.29-.652-.652-1.3-.943-1.885l-.217-.362c-.58-1.16-.942-1.74-2.247-1.232-.507.217-1.45.652-1.667,1.3a1.309,1.309,0,0,0,.145,1.015l5,9.787h-14.5a1.582,1.582,0,0,0-.217.362l1.3,10.294c.145.87-.8,1.595-1.45,2.1l-.217.145a18.034,18.034,0,0,1-14.426,3.7c-2.175-.362-2.32-.652-2.392-.8v-.217l.145-.29h.073a11.74,11.74,0,0,0,2.03-1.16v-.435a.75.75,0,0,0-.29-.072ZM224.5,169.021v0Z" transform="translate(-193.405 -148.14)" fill="url(#linear-gradient)"/>
      <path id="Path_26761" data-name="Path 26761" d="M232.483,173.465a4.166,4.166,0,0,1-.725-.145,34.134,34.134,0,0,1-3.48-2.1,1.17,1.17,0,0,1-.29-1.232,1.008,1.008,0,0,1,1.015-.58h0a10.465,10.465,0,0,1,1.74.8.225.225,0,0,1,.145.072,17.14,17.14,0,0,0-8.264-11.091,17.693,17.693,0,0,0-14.716-1.232,3.282,3.282,0,0,0-.725.362,4.066,4.066,0,0,1-1.522.58h0a1.034,1.034,0,0,1-.87-.435,1.1,1.1,0,0,1,0-1.16c.363-.725,3.987-1.812,4.06-1.812a19.463,19.463,0,0,1,24.14,13.991.225.225,0,0,1,.072-.145c.29-.58.652-1.16,1.16-1.3a1.062,1.062,0,0,1,.8.145c.8.508.363,1.377.145,1.74h0a9.1,9.1,0,0,1-.943,1.667,16.307,16.307,0,0,0-.87,1.522h0s-.507.435-.725.435ZM229,170.131s-.217,0-.29.145a.533.533,0,0,0,.145.435c.217.145,2.9,1.74,3.19,1.885.363.145.508.145.652,0l.87-1.522a16.273,16.273,0,0,0,.87-1.522v-.145c.363-.58.363-.725.145-.8-.145-.072-.217,0-.217,0-.217,0-.507.58-.725.942a5.29,5.29,0,0,1-.652.943l-.435.362-.145-.58A18.763,18.763,0,0,0,209,156.067a16,16,0,0,0-3.552,1.45v.435c0,.072.145.145.29.145h0s.8-.29,1.232-.507a7.076,7.076,0,0,1,.8-.362,18.5,18.5,0,0,1,15.3,1.232,18.132,18.132,0,0,1,8.772,12.324v.145l-.073.145c-.217.29-.435.145-1.3-.362a8.7,8.7,0,0,0-1.377-.725h0Z" transform="translate(-194.573 -154.76)" fill="url(#linear-gradient-2)"/>
      <path id="Path_26762" data-name="Path 26762" d="M212.661,187.424h-.145a13.623,13.623,0,0,1-2.755-1.957,19.489,19.489,0,0,1-2.392-26.532,11.129,11.129,0,0,1,.87-.942l.58-.58h-1.595c-.435,0-.725-.435-.8-.942,0-.58.217-1.015.725-1.087a27.127,27.127,0,0,1,4.2,0c1.087.072,1.087.652,1.16,1.377,0,0,.217,3.77-.363,4.35a1.115,1.115,0,0,1-1.232.217.834.834,0,0,1-.58-.725v-1.667a16.67,16.67,0,0,0-4.857,13.484,17.371,17.371,0,0,0,7.829,13.194,1.15,1.15,0,0,1,.29,1.377,1.045,1.045,0,0,1-.943.58Zm-3.189-30.809h.29v.29s0,.507-.145.58a11.124,11.124,0,0,1-.87.942,8.716,8.716,0,0,0-.8.87,18.865,18.865,0,0,0,2.247,25.59,29.883,29.883,0,0,0,2.392,1.812c.217,0,.362-.072.362-.145a1.418,1.418,0,0,0-.072-.507,17.737,17.737,0,0,1-8.119-13.7,17.153,17.153,0,0,1,5.727-14.644l.58-.508v3.335h0a.749.749,0,0,0,.29.072h.29a12.258,12.258,0,0,0,.145-3.77q0-.652-.507-.725a36.53,36.53,0,0,0-3.987,0c-.145,0-.145.072-.217.217,0,.217,0,.362.145.362h2.247Z" transform="translate(-203.241 -151.392)" fill="url(#linear-gradient-3)"/>
      <path id="Path_26765" data-name="Path 26765" d="M214.009,181.72a9.14,9.14,0,0,1-7.9-4.277c-3.407-5.219-.435-9.787,1.957-13.484,1.3-2.03,2.827-3.987,4.277-5.944l1.885-2.465.58.87c.8,1.232,1.667,2.392,2.61,3.625a69.165,69.165,0,0,1,4.132,6.089c1.74,3.045,3.117,6.089,1.232,10.149a9.255,9.255,0,0,1-7.9,5.365h-.725Zm.073-23.633-.652.87c-1.45,1.885-2.9,3.842-4.2,5.872-2.827,4.35-4.64,7.829-1.957,11.889A8.141,8.141,0,0,0,221.33,175.7c1.45-3.117.725-5.437-1.16-8.772a47.791,47.791,0,0,0-4.06-5.944c-.652-.942-1.377-1.885-2.03-2.827Z" transform="translate(-194.947 -149.821)" fill="url(#linear-gradient-4)"/>
      <path id="Path_26766" data-name="Path 26766" d="M208.5,163.429c-1.232,0-2.827-2.465-2.827-2.537-.725-1.232-.87-2.03-.58-2.537a.965.965,0,0,1,1.015-.362c.725,0,.943.725,1.087,1.087a.554.554,0,0,0,.145.362,10.743,10.743,0,0,0,.58.942l.507.507c.58.507,1.3,1.232.942,1.957a.784.784,0,0,1-.8.508h0Zm-2.61-4.712h-.217c-.072.145,0,.725.58,1.812.363.652,1.595,2.175,2.175,2.175,0,0,.072,0,.217-.145h0a4.058,4.058,0,0,0-.8-1.087l-.58-.58a5.4,5.4,0,0,1-.652-1.087,3.513,3.513,0,0,1-.217-.507c-.145-.435-.217-.58-.435-.58h-.073Z" transform="translate(-192.553 -134.647)" fill="url(#linear-gradient-5)"/>
      <path id="Path_26767" data-name="Path 26767" d="M206.579,160.716a1.074,1.074,0,0,1-.942-.725.974.974,0,0,1,.29-1.16h0a1.091,1.091,0,0,1,1.3-.072,1.148,1.148,0,0,1,.435,1.16,1.013,1.013,0,0,1-.943.8h-.145Zm-.217-1.3h0s-.072.217,0,.29c0,.145.145.217.29.217a.37.37,0,0,0,.362-.29c0-.145,0-.29-.145-.362a.445.445,0,0,0-.435.072Z" transform="translate(-188.822 -130.92)" fill="url(#linear-gradient-6)"/>
      <path id="Path_26784" data-name="Path 26784" d="M1409.417-18491.535c4.514,8-1.6-2.957-1.6-2.957S1404.9-18499.537,1409.417-18491.535Z" transform="translate(-1361.941 18515.646)" fill="none" stroke="#3fb4a7" stroke-width="1"/>
      <path id="Path_26785" data-name="Path 26785" d="M1409.417-18491.535c4.514,8-1.6-2.957-1.6-2.957S1404.9-18499.537,1409.417-18491.535Z" transform="translate(-1359.635 18510.404)" fill="none" stroke="#3fb4a7" stroke-width="1"/>
    </g>
    <g id="Group_5428" data-name="Group 5428" transform="translate(3269.24 345)">
      <path id="Path_26760-2" data-name="Path 26760" d="M207.827,189.246a2.242,2.242,0,0,1-.87-.435,28.241,28.241,0,0,1-2.03-3.552,1.232,1.232,0,0,1,.725-1.667l.217-.145a18.582,18.582,0,0,1,2.9-1.595,1.335,1.335,0,0,1,1.3.217,1.106,1.106,0,0,1,.217,1.16c-.073.362-1.015.87-1.667,1.232.435.072.942.217,1.3.29a17.42,17.42,0,0,0,13.919-3.552l.217-.145c.507-.363,1.232-.943,1.16-1.45l-1.3-10.366s0-.435.217-.58c.362-.507.58-.507.652-.507H238.2l-4.495-8.772a1.8,1.8,0,0,1-.145-1.595,3.366,3.366,0,0,1,2.1-1.74c1.957-.725,2.537.435,3.117,1.522l.217.362c.362.652.652,1.3,1.015,1.957a24.3,24.3,0,0,0,1.45,2.682,3.185,3.185,0,0,1,2.755.725,3.9,3.9,0,0,1,1.16,3.335,2.446,2.446,0,0,1-.58,1.232,1.516,1.516,0,0,0-.29.435l3.045,5.944c.507,1.522-.725,2.537-2.175,3.045a1.871,1.871,0,0,1-2.392-.58l-.58-.942-1.45,11.091-.362.508h-13.7a2.936,2.936,0,0,1-.725-.943,22.51,22.51,0,0,1-.29-2.32,12.981,12.981,0,0,0-.145-1.74c-.145.145-.362.29-.507.435-.217.217-.435.362-.507.435a19.671,19.671,0,0,1-16.311,3.262s0,.145.072.145a6.582,6.582,0,0,1,.652,1.3,1.2,1.2,0,0,1-.652,1.087c-.145,0-.29.072-.435.072Zm1.45-6.742h-.29a20.683,20.683,0,0,0-2.682,1.522l-.217.145c-.507.362-.58.435-.435.8a36.674,36.674,0,0,0,1.957,3.335.4.4,0,0,0,.435.145c.073,0,.217-.145.217-.362a3.83,3.83,0,0,0-.58-1.015c-.508-.87-.652-1.087-.363-1.377l.145-.145h.217a18.62,18.62,0,0,0,16.456-2.9c.073,0,.217-.217.435-.362.87-.725.942-.8,1.16-.8.363,0,.508.507.508.58a19.308,19.308,0,0,1,.217,2.03c0,.725.145,1.522.217,2.247a.516.516,0,0,0,.217.435h13.049l.145-.217,1.595-12.976,1.595,2.682c.435.507.8.58,1.595.29.363-.145,2.175-.87,1.74-2.1l-3.19-6.234v-.145a6.4,6.4,0,0,1,.58-.8,1.431,1.431,0,0,0,.435-.87,3.039,3.039,0,0,0-.942-2.682,2.431,2.431,0,0,0-2.32-.507h-.29l-.145-.145c-.58-.942-1.087-1.957-1.595-2.972-.29-.652-.652-1.3-.943-1.885l-.217-.362c-.58-1.16-.942-1.74-2.247-1.232-.507.217-1.45.652-1.667,1.3a1.309,1.309,0,0,0,.145,1.015l5,9.787h-14.5a1.582,1.582,0,0,0-.217.362l1.3,10.294c.145.87-.8,1.595-1.45,2.1l-.217.145a18.034,18.034,0,0,1-14.426,3.7c-2.175-.362-2.32-.652-2.392-.8v-.217l.145-.29h.073a11.74,11.74,0,0,0,2.03-1.16v-.435a.75.75,0,0,0-.29-.072ZM224.5,169.021v0Z" transform="translate(-193.405 -148.14)" fill="url(#linear-gradient)"/>
      <path id="Path_26761-2" data-name="Path 26761" d="M232.483,173.465a4.166,4.166,0,0,1-.725-.145,34.134,34.134,0,0,1-3.48-2.1,1.17,1.17,0,0,1-.29-1.232,1.008,1.008,0,0,1,1.015-.58h0a10.465,10.465,0,0,1,1.74.8.225.225,0,0,1,.145.072,17.14,17.14,0,0,0-8.264-11.091,17.693,17.693,0,0,0-14.716-1.232,3.282,3.282,0,0,0-.725.362,4.066,4.066,0,0,1-1.522.58h0a1.034,1.034,0,0,1-.87-.435,1.1,1.1,0,0,1,0-1.16c.363-.725,3.987-1.812,4.06-1.812a19.463,19.463,0,0,1,24.14,13.991.225.225,0,0,1,.072-.145c.29-.58.652-1.16,1.16-1.3a1.062,1.062,0,0,1,.8.145c.8.508.363,1.377.145,1.74h0a9.1,9.1,0,0,1-.943,1.667,16.307,16.307,0,0,0-.87,1.522h0s-.507.435-.725.435ZM229,170.131s-.217,0-.29.145a.533.533,0,0,0,.145.435c.217.145,2.9,1.74,3.19,1.885.363.145.508.145.652,0l.87-1.522a16.273,16.273,0,0,0,.87-1.522v-.145c.363-.58.363-.725.145-.8-.145-.072-.217,0-.217,0-.217,0-.507.58-.725.942a5.29,5.29,0,0,1-.652.943l-.435.362-.145-.58A18.763,18.763,0,0,0,209,156.067a16,16,0,0,0-3.552,1.45v.435c0,.072.145.145.29.145h0s.8-.29,1.232-.507a7.076,7.076,0,0,1,.8-.362,18.5,18.5,0,0,1,15.3,1.232,18.132,18.132,0,0,1,8.772,12.324v.145l-.073.145c-.217.29-.435.145-1.3-.362a8.7,8.7,0,0,0-1.377-.725h0Z" transform="translate(-194.573 -154.76)" fill="url(#linear-gradient-2)"/>
      <path id="Path_26762-2" data-name="Path 26762" d="M212.661,187.424h-.145a13.623,13.623,0,0,1-2.755-1.957,19.489,19.489,0,0,1-2.392-26.532,11.129,11.129,0,0,1,.87-.942l.58-.58h-1.595c-.435,0-.725-.435-.8-.942,0-.58.217-1.015.725-1.087a27.127,27.127,0,0,1,4.2,0c1.087.072,1.087.652,1.16,1.377,0,0,.217,3.77-.363,4.35a1.115,1.115,0,0,1-1.232.217.834.834,0,0,1-.58-.725v-1.667a16.67,16.67,0,0,0-4.857,13.484,17.371,17.371,0,0,0,7.829,13.194,1.15,1.15,0,0,1,.29,1.377,1.045,1.045,0,0,1-.943.58Zm-3.189-30.809h.29v.29s0,.507-.145.58a11.124,11.124,0,0,1-.87.942,8.716,8.716,0,0,0-.8.87,18.865,18.865,0,0,0,2.247,25.59,29.883,29.883,0,0,0,2.392,1.812c.217,0,.362-.072.362-.145a1.418,1.418,0,0,0-.072-.507,17.737,17.737,0,0,1-8.119-13.7,17.153,17.153,0,0,1,5.727-14.644l.58-.508v3.335h0a.749.749,0,0,0,.29.072h.29a12.258,12.258,0,0,0,.145-3.77q0-.652-.507-.725a36.53,36.53,0,0,0-3.987,0c-.145,0-.145.072-.217.217,0,.217,0,.362.145.362h2.247Z" transform="translate(-203.241 -151.392)" fill="url(#linear-gradient-3)"/>
      <path id="Path_26765-2" data-name="Path 26765" d="M214.009,181.72a9.14,9.14,0,0,1-7.9-4.277c-3.407-5.219-.435-9.787,1.957-13.484,1.3-2.03,2.827-3.987,4.277-5.944l1.885-2.465.58.87c.8,1.232,1.667,2.392,2.61,3.625a69.165,69.165,0,0,1,4.132,6.089c1.74,3.045,3.117,6.089,1.232,10.149a9.255,9.255,0,0,1-7.9,5.365h-.725Zm.073-23.633-.652.87c-1.45,1.885-2.9,3.842-4.2,5.872-2.827,4.35-4.64,7.829-1.957,11.889A8.141,8.141,0,0,0,221.33,175.7c1.45-3.117.725-5.437-1.16-8.772a47.791,47.791,0,0,0-4.06-5.944c-.652-.942-1.377-1.885-2.03-2.827Z" transform="translate(-194.947 -149.821)" fill="url(#linear-gradient-4)"/>
      <path id="Path_26766-2" data-name="Path 26766" d="M208.5,163.429c-1.232,0-2.827-2.465-2.827-2.537-.725-1.232-.87-2.03-.58-2.537a.965.965,0,0,1,1.015-.362c.725,0,.943.725,1.087,1.087a.554.554,0,0,0,.145.362,10.743,10.743,0,0,0,.58.942l.507.507c.58.507,1.3,1.232.942,1.957a.784.784,0,0,1-.8.508h0Zm-2.61-4.712h-.217c-.072.145,0,.725.58,1.812.363.652,1.595,2.175,2.175,2.175,0,0,.072,0,.217-.145h0a4.058,4.058,0,0,0-.8-1.087l-.58-.58a5.4,5.4,0,0,1-.652-1.087,3.513,3.513,0,0,1-.217-.507c-.145-.435-.217-.58-.435-.58h-.073Z" transform="translate(-192.553 -134.647)" fill="url(#linear-gradient-5)"/>
      <path id="Path_26767-2" data-name="Path 26767" d="M206.579,160.716a1.074,1.074,0,0,1-.942-.725.974.974,0,0,1,.29-1.16h0a1.091,1.091,0,0,1,1.3-.072,1.148,1.148,0,0,1,.435,1.16,1.013,1.013,0,0,1-.943.8h-.145Zm-.217-1.3h0s-.072.217,0,.29c0,.145.145.217.29.217a.37.37,0,0,0,.362-.29c0-.145,0-.29-.145-.362a.445.445,0,0,0-.435.072Z" transform="translate(-188.822 -130.92)" fill="url(#linear-gradient-6)"/>
      <path id="Path_26784-2" data-name="Path 26784" d="M1409.417-18491.535c4.514,8-1.6-2.957-1.6-2.957S1404.9-18499.537,1409.417-18491.535Z" transform="translate(-1361.941 18515.646)" fill="none" stroke="#3fb4a7" stroke-width="1"/>
      <path id="Path_26785-2" data-name="Path 26785" d="M1409.417-18491.535c4.514,8-1.6-2.957-1.6-2.957S1404.9-18499.537,1409.417-18491.535Z" transform="translate(-1359.635 18510.404)" fill="none" stroke="#3fb4a7" stroke-width="1"/>
    </g>
    <g id="Group_5429" data-name="Group 5429" transform="translate(3269.24 345)">
      <path id="Path_26760-3" data-name="Path 26760" d="M207.827,189.246a2.242,2.242,0,0,1-.87-.435,28.241,28.241,0,0,1-2.03-3.552,1.232,1.232,0,0,1,.725-1.667l.217-.145a18.582,18.582,0,0,1,2.9-1.595,1.335,1.335,0,0,1,1.3.217,1.106,1.106,0,0,1,.217,1.16c-.073.362-1.015.87-1.667,1.232.435.072.942.217,1.3.29a17.42,17.42,0,0,0,13.919-3.552l.217-.145c.507-.363,1.232-.943,1.16-1.45l-1.3-10.366s0-.435.217-.58c.362-.507.58-.507.652-.507H238.2l-4.495-8.772a1.8,1.8,0,0,1-.145-1.595,3.366,3.366,0,0,1,2.1-1.74c1.957-.725,2.537.435,3.117,1.522l.217.362c.362.652.652,1.3,1.015,1.957a24.3,24.3,0,0,0,1.45,2.682,3.185,3.185,0,0,1,2.755.725,3.9,3.9,0,0,1,1.16,3.335,2.446,2.446,0,0,1-.58,1.232,1.516,1.516,0,0,0-.29.435l3.045,5.944c.507,1.522-.725,2.537-2.175,3.045a1.871,1.871,0,0,1-2.392-.58l-.58-.942-1.45,11.091-.362.508h-13.7a2.936,2.936,0,0,1-.725-.943,22.51,22.51,0,0,1-.29-2.32,12.981,12.981,0,0,0-.145-1.74c-.145.145-.362.29-.507.435-.217.217-.435.362-.507.435a19.671,19.671,0,0,1-16.311,3.262s0,.145.072.145a6.582,6.582,0,0,1,.652,1.3,1.2,1.2,0,0,1-.652,1.087c-.145,0-.29.072-.435.072Zm1.45-6.742h-.29a20.683,20.683,0,0,0-2.682,1.522l-.217.145c-.507.362-.58.435-.435.8a36.674,36.674,0,0,0,1.957,3.335.4.4,0,0,0,.435.145c.073,0,.217-.145.217-.362a3.83,3.83,0,0,0-.58-1.015c-.508-.87-.652-1.087-.363-1.377l.145-.145h.217a18.62,18.62,0,0,0,16.456-2.9c.073,0,.217-.217.435-.362.87-.725.942-.8,1.16-.8.363,0,.508.507.508.58a19.308,19.308,0,0,1,.217,2.03c0,.725.145,1.522.217,2.247a.516.516,0,0,0,.217.435h13.049l.145-.217,1.595-12.976,1.595,2.682c.435.507.8.58,1.595.29.363-.145,2.175-.87,1.74-2.1l-3.19-6.234v-.145a6.4,6.4,0,0,1,.58-.8,1.431,1.431,0,0,0,.435-.87,3.039,3.039,0,0,0-.942-2.682,2.431,2.431,0,0,0-2.32-.507h-.29l-.145-.145c-.58-.942-1.087-1.957-1.595-2.972-.29-.652-.652-1.3-.943-1.885l-.217-.362c-.58-1.16-.942-1.74-2.247-1.232-.507.217-1.45.652-1.667,1.3a1.309,1.309,0,0,0,.145,1.015l5,9.787h-14.5a1.582,1.582,0,0,0-.217.362l1.3,10.294c.145.87-.8,1.595-1.45,2.1l-.217.145a18.034,18.034,0,0,1-14.426,3.7c-2.175-.362-2.32-.652-2.392-.8v-.217l.145-.29h.073a11.74,11.74,0,0,0,2.03-1.16v-.435a.75.75,0,0,0-.29-.072ZM224.5,169.021v0Z" transform="translate(-193.405 -148.14)" fill="url(#linear-gradient)"/>
      <path id="Path_26761-3" data-name="Path 26761" d="M232.483,173.465a4.166,4.166,0,0,1-.725-.145,34.134,34.134,0,0,1-3.48-2.1,1.17,1.17,0,0,1-.29-1.232,1.008,1.008,0,0,1,1.015-.58h0a10.465,10.465,0,0,1,1.74.8.225.225,0,0,1,.145.072,17.14,17.14,0,0,0-8.264-11.091,17.693,17.693,0,0,0-14.716-1.232,3.282,3.282,0,0,0-.725.362,4.066,4.066,0,0,1-1.522.58h0a1.034,1.034,0,0,1-.87-.435,1.1,1.1,0,0,1,0-1.16c.363-.725,3.987-1.812,4.06-1.812a19.463,19.463,0,0,1,24.14,13.991.225.225,0,0,1,.072-.145c.29-.58.652-1.16,1.16-1.3a1.062,1.062,0,0,1,.8.145c.8.508.363,1.377.145,1.74h0a9.1,9.1,0,0,1-.943,1.667,16.307,16.307,0,0,0-.87,1.522h0s-.507.435-.725.435ZM229,170.131s-.217,0-.29.145a.533.533,0,0,0,.145.435c.217.145,2.9,1.74,3.19,1.885.363.145.508.145.652,0l.87-1.522a16.273,16.273,0,0,0,.87-1.522v-.145c.363-.58.363-.725.145-.8-.145-.072-.217,0-.217,0-.217,0-.507.58-.725.942a5.29,5.29,0,0,1-.652.943l-.435.362-.145-.58A18.763,18.763,0,0,0,209,156.067a16,16,0,0,0-3.552,1.45v.435c0,.072.145.145.29.145h0s.8-.29,1.232-.507a7.076,7.076,0,0,1,.8-.362,18.5,18.5,0,0,1,15.3,1.232,18.132,18.132,0,0,1,8.772,12.324v.145l-.073.145c-.217.29-.435.145-1.3-.362a8.7,8.7,0,0,0-1.377-.725h0Z" transform="translate(-194.573 -154.76)" fill="url(#linear-gradient-2)"/>
      <path id="Path_26762-3" data-name="Path 26762" d="M212.661,187.424h-.145a13.623,13.623,0,0,1-2.755-1.957,19.489,19.489,0,0,1-2.392-26.532,11.129,11.129,0,0,1,.87-.942l.58-.58h-1.595c-.435,0-.725-.435-.8-.942,0-.58.217-1.015.725-1.087a27.127,27.127,0,0,1,4.2,0c1.087.072,1.087.652,1.16,1.377,0,0,.217,3.77-.363,4.35a1.115,1.115,0,0,1-1.232.217.834.834,0,0,1-.58-.725v-1.667a16.67,16.67,0,0,0-4.857,13.484,17.371,17.371,0,0,0,7.829,13.194,1.15,1.15,0,0,1,.29,1.377,1.045,1.045,0,0,1-.943.58Zm-3.189-30.809h.29v.29s0,.507-.145.58a11.124,11.124,0,0,1-.87.942,8.716,8.716,0,0,0-.8.87,18.865,18.865,0,0,0,2.247,25.59,29.883,29.883,0,0,0,2.392,1.812c.217,0,.362-.072.362-.145a1.418,1.418,0,0,0-.072-.507,17.737,17.737,0,0,1-8.119-13.7,17.153,17.153,0,0,1,5.727-14.644l.58-.508v3.335h0a.749.749,0,0,0,.29.072h.29a12.258,12.258,0,0,0,.145-3.77q0-.652-.507-.725a36.53,36.53,0,0,0-3.987,0c-.145,0-.145.072-.217.217,0,.217,0,.362.145.362h2.247Z" transform="translate(-203.241 -151.392)" fill="url(#linear-gradient-3)"/>
      <path id="Path_26765-3" data-name="Path 26765" d="M214.009,181.72a9.14,9.14,0,0,1-7.9-4.277c-3.407-5.219-.435-9.787,1.957-13.484,1.3-2.03,2.827-3.987,4.277-5.944l1.885-2.465.58.87c.8,1.232,1.667,2.392,2.61,3.625a69.165,69.165,0,0,1,4.132,6.089c1.74,3.045,3.117,6.089,1.232,10.149a9.255,9.255,0,0,1-7.9,5.365h-.725Zm.073-23.633-.652.87c-1.45,1.885-2.9,3.842-4.2,5.872-2.827,4.35-4.64,7.829-1.957,11.889A8.141,8.141,0,0,0,221.33,175.7c1.45-3.117.725-5.437-1.16-8.772a47.791,47.791,0,0,0-4.06-5.944c-.652-.942-1.377-1.885-2.03-2.827Z" transform="translate(-194.947 -149.821)" fill="url(#linear-gradient-4)"/>
      <path id="Path_26766-3" data-name="Path 26766" d="M208.5,163.429c-1.232,0-2.827-2.465-2.827-2.537-.725-1.232-.87-2.03-.58-2.537a.965.965,0,0,1,1.015-.362c.725,0,.943.725,1.087,1.087a.554.554,0,0,0,.145.362,10.743,10.743,0,0,0,.58.942l.507.507c.58.507,1.3,1.232.942,1.957a.784.784,0,0,1-.8.508h0Zm-2.61-4.712h-.217c-.072.145,0,.725.58,1.812.363.652,1.595,2.175,2.175,2.175,0,0,.072,0,.217-.145h0a4.058,4.058,0,0,0-.8-1.087l-.58-.58a5.4,5.4,0,0,1-.652-1.087,3.513,3.513,0,0,1-.217-.507c-.145-.435-.217-.58-.435-.58h-.073Z" transform="translate(-192.553 -134.647)" fill="url(#linear-gradient-5)"/>
      <path id="Path_26767-3" data-name="Path 26767" d="M206.579,160.716a1.074,1.074,0,0,1-.942-.725.974.974,0,0,1,.29-1.16h0a1.091,1.091,0,0,1,1.3-.072,1.148,1.148,0,0,1,.435,1.16,1.013,1.013,0,0,1-.943.8h-.145Zm-.217-1.3h0s-.072.217,0,.29c0,.145.145.217.29.217a.37.37,0,0,0,.362-.29c0-.145,0-.29-.145-.362a.445.445,0,0,0-.435.072Z" transform="translate(-188.822 -130.92)" fill="url(#linear-gradient-6)"/>
      <path id="Path_26784-3" data-name="Path 26784" d="M1409.417-18491.535c4.514,8-1.6-2.957-1.6-2.957S1404.9-18499.537,1409.417-18491.535Z" transform="translate(-1361.941 18515.646)" fill="none" stroke="#3fb4a7" stroke-width="1"/>
      <path id="Path_26785-3" data-name="Path 26785" d="M1409.417-18491.535c4.514,8-1.6-2.957-1.6-2.957S1404.9-18499.537,1409.417-18491.535Z" transform="translate(-1359.635 18510.404)" fill="none" stroke="#3fb4a7" stroke-width="1"/>
    </g>
  </g>
</svg>
