<svg xmlns="http://www.w3.org/2000/svg" xmlns:xlink="http://www.w3.org/1999/xlink" width="94.153" height="71.321" viewBox="0 0 94.153 71.321">
  <defs>
    <linearGradient id="linear-gradient" x1="0.001" y1="0.499" x2="0.992" y2="0.499" gradientUnits="objectBoundingBox">
      <stop offset="0" stop-color="#55bf9b"/>
      <stop offset="0.15" stop-color="#2dacb1"/>
      <stop offset="0.4" stop-color="#2986c1"/>
      <stop offset="1" stop-color="#3b67b1"/>
    </linearGradient>
    <linearGradient id="linear-gradient-2" x1="0.001" y1="0.498" x2="0.999" y2="0.498" xlink:href="#linear-gradient"/>
    <linearGradient id="linear-gradient-3" x1="0" y1="0.497" x2="0.996" y2="0.497" xlink:href="#linear-gradient"/>
    <linearGradient id="linear-gradient-4" x1="0.001" y1="0.501" x2="0.994" y2="0.501" xlink:href="#linear-gradient"/>
    <linearGradient id="linear-gradient-5" x1="4.479" y1="0.455" x2="5.218" y2="0.455" xlink:href="#linear-gradient"/>
    <linearGradient id="linear-gradient-6" x1="8.729" y1="0.797" x2="9.713" y2="0.797" xlink:href="#linear-gradient"/>
  </defs>
  <g id="Group_5259" data-name="Group 5259" transform="translate(-3269.24 -345)">
    <path id="Path_26760" data-name="Path 26760" d="M210.042,213.817a3.891,3.891,0,0,1-1.509-.755,49,49,0,0,1-3.522-6.163c-.629-1.635.377-2.39,1.258-2.893l.377-.252a32.241,32.241,0,0,1,5.031-2.767,2.316,2.316,0,0,1,2.264.377,1.919,1.919,0,0,1,.377,2.012c-.126.629-1.761,1.509-2.893,2.138.755.126,1.635.377,2.264.5a30.225,30.225,0,0,0,24.15-6.163l.377-.252c.881-.629,2.138-1.635,2.012-2.516L237.965,179.1s0-.755.377-1.006c.629-.881,1.006-.881,1.132-.881h23.269L254.945,162a3.128,3.128,0,0,1-.251-2.767c.5-1.509,2.264-2.516,3.647-3.019,3.4-1.258,4.4.755,5.409,2.641l.377.629c.629,1.132,1.132,2.264,1.761,3.4a42.156,42.156,0,0,0,2.516,4.654,5.525,5.525,0,0,1,4.78,1.258,6.768,6.768,0,0,1,2.012,5.786,4.245,4.245,0,0,1-1.006,2.138,2.63,2.63,0,0,0-.5.755l5.283,10.314c.88,2.641-1.258,4.4-3.773,5.283-1.887.629-3.019.377-4.151-1.006l-1.006-1.635-2.516,19.244-.629.881H243.122a5.1,5.1,0,0,1-1.258-1.635,39.053,39.053,0,0,1-.5-4.025,22.52,22.52,0,0,0-.252-3.019c-.251.252-.629.5-.881.755-.377.377-.755.629-.88.755a34.13,34.13,0,0,1-28.3,5.66s0,.252.126.252a11.417,11.417,0,0,1,1.132,2.264,2.075,2.075,0,0,1-1.132,1.887c-.251,0-.5.126-.755.126Zm2.516-11.7h-.5a35.886,35.886,0,0,0-4.654,2.642l-.377.252c-.881.629-1.006.755-.755,1.384a63.626,63.626,0,0,0,3.4,5.786.7.7,0,0,0,.755.252c.126,0,.377-.252.377-.629a6.646,6.646,0,0,0-1.006-1.761c-.881-1.509-1.132-1.887-.629-2.39l.252-.252h.377a32.307,32.307,0,0,0,28.552-5.031c.126,0,.377-.377.755-.629,1.509-1.258,1.635-1.384,2.012-1.384.629,0,.881.881.881,1.006a33.5,33.5,0,0,1,.377,3.522c0,1.258.251,2.642.377,3.9a.9.9,0,0,0,.377.755h22.64l.252-.377,2.767-22.514,2.767,4.654c.755.881,1.384,1.006,2.767.5.629-.252,3.773-1.509,3.019-3.647L271.8,177.342v-.252a11.107,11.107,0,0,1,1.006-1.384,2.483,2.483,0,0,0,.755-1.509,5.273,5.273,0,0,0-1.635-4.654,4.219,4.219,0,0,0-4.025-.881h-.5l-.251-.252c-1.006-1.635-1.887-3.4-2.767-5.157-.5-1.132-1.132-2.264-1.635-3.27l-.377-.629c-1.006-2.012-1.635-3.019-3.9-2.138-.881.377-2.515,1.132-2.893,2.264a2.272,2.272,0,0,0,.251,1.761l8.679,16.98H239.349a2.744,2.744,0,0,0-.377.629l2.264,17.861c.251,1.509-1.384,2.767-2.516,3.647l-.377.252a31.289,31.289,0,0,1-25.03,6.415c-3.773-.629-4.025-1.132-4.151-1.384v-.377l.251-.5h.126a20.373,20.373,0,0,0,3.522-2.012v-.755a1.3,1.3,0,0,0-.5-.126Zm26.414-23.395v0Z" transform="translate(3084.223 202.504)" fill="url(#linear-gradient)"/>
    <path id="Path_26761" data-name="Path 26761" d="M252.958,187.215a7.229,7.229,0,0,1-1.258-.252,59.218,59.218,0,0,1-6.037-3.647,2.03,2.03,0,0,1-.5-2.138,1.75,1.75,0,0,1,1.761-1.006h0a18.156,18.156,0,0,1,3.019,1.384.39.39,0,0,1,.251.126,29.74,29.74,0,0,0-14.339-19.244,30.7,30.7,0,0,0-25.533-2.138,5.694,5.694,0,0,0-1.258.629,7.055,7.055,0,0,1-2.642,1.006h0a1.793,1.793,0,0,1-1.509-.755,1.917,1.917,0,0,1,0-2.012c.629-1.258,6.918-3.144,7.044-3.144A33.769,33.769,0,0,1,253.839,180.3a.39.39,0,0,1,.126-.252c.5-1.006,1.132-2.012,2.012-2.264a1.843,1.843,0,0,1,1.384.252c1.384.881.629,2.39.252,3.019h0a15.8,15.8,0,0,1-1.635,2.893,28.3,28.3,0,0,0-1.509,2.641h0s-.88.755-1.258.755Zm-6.037-5.786s-.377,0-.5.252a.924.924,0,0,0,.251.755c.377.252,5.031,3.019,5.534,3.27.629.252.881.252,1.132,0l1.509-2.641a28.241,28.241,0,0,0,1.509-2.642v-.252c.629-1.006.629-1.258.252-1.384-.252-.126-.377,0-.377,0-.377,0-.88,1.006-1.258,1.635a9.178,9.178,0,0,1-1.132,1.635l-.755.629-.252-1.006a32.555,32.555,0,0,0-40.627-24.653c-1.761.5-5.786,2.012-6.163,2.516v.755c0,.126.252.252.5.252h0s1.383-.5,2.138-.881a12.275,12.275,0,0,1,1.384-.629,32.1,32.1,0,0,1,26.539,2.138,31.461,31.461,0,0,1,15.219,21.382v.252l-.126.252c-.377.5-.755.252-2.264-.629a15.1,15.1,0,0,0-2.39-1.258h0Z" transform="translate(3082.059 190.24)" fill="url(#linear-gradient-2)"/>
    <path id="Path_26762" data-name="Path 26762" d="M219.585,211.038h-.251c-1.006-.126-4.78-3.4-4.78-3.4a33.815,33.815,0,0,1-4.151-46.035,19.307,19.307,0,0,1,1.509-1.635l1.006-1.006h-2.767c-.755,0-1.258-.755-1.384-1.635,0-1.006.377-1.761,1.258-1.887a47.065,47.065,0,0,1,7.295,0c1.887.126,1.887,1.132,2.013,2.39,0,0,.377,6.54-.629,7.547a1.934,1.934,0,0,1-2.138.377,1.447,1.447,0,0,1-1.006-1.258v-2.893A28.923,28.923,0,0,0,207.133,185a30.14,30.14,0,0,0,13.584,22.892,2,2,0,0,1,.5,2.39,1.813,1.813,0,0,1-1.635,1.006Zm-5.534-53.456h.5v.5s0,.881-.252,1.006a19.3,19.3,0,0,1-1.509,1.635,15.123,15.123,0,0,0-1.383,1.509,32.731,32.731,0,0,0,3.9,44.4,51.842,51.842,0,0,0,4.151,3.144c.377,0,.629-.126.629-.252a2.46,2.46,0,0,0-.126-.881,30.774,30.774,0,0,1-14.087-23.772,29.761,29.761,0,0,1,9.936-25.407l1.006-.881v5.786h0a1.3,1.3,0,0,0,.5.126h.5c.377-.629.5-4.905.251-6.541q0-1.132-.881-1.258a63.38,63.38,0,0,0-6.918,0c-.251,0-.251.126-.377.377,0,.377,0,.629.252.629h3.9Z" transform="translate(3066 196.479)" fill="url(#linear-gradient-3)"/>
    <path id="Path_26765" data-name="Path 26765" d="M220.948,200.956a15.859,15.859,0,0,1-13.71-7.421c-5.912-9.056-.755-16.98,3.4-23.395,2.264-3.522,4.905-6.918,7.421-10.314l3.27-4.277,1.006,1.509c1.383,2.138,2.893,4.151,4.528,6.289a120,120,0,0,1,7.169,10.565c3.019,5.283,5.408,10.565,2.138,17.609a16.057,16.057,0,0,1-13.71,9.308H221.2Zm.126-41-1.132,1.509c-2.515,3.27-5.031,6.666-7.295,10.188-4.905,7.547-8.05,13.584-3.4,20.628a14.125,14.125,0,0,0,24.4-1.761c2.516-5.408,1.258-9.433-2.012-15.219a82.92,82.92,0,0,0-7.044-10.314c-1.132-1.635-2.39-3.27-3.522-4.905Z" transform="translate(3081.365 199.391)" fill="url(#linear-gradient-4)"/>
    <path id="Path_26766" data-name="Path 26766" d="M211.105,167.436c-2.138,0-4.905-4.277-4.905-4.4-1.258-2.138-1.509-3.522-1.006-4.4a1.675,1.675,0,0,1,1.761-.629c1.258,0,1.635,1.258,1.887,1.887a.961.961,0,0,0,.252.629,18.63,18.63,0,0,0,1.006,1.635l.88.881c1.006.881,2.264,2.138,1.635,3.4a1.36,1.36,0,0,1-1.384.881h0Zm-4.528-8.176H206.2c-.126.252,0,1.258,1.006,3.144.629,1.132,2.767,3.773,3.773,3.773,0,0,.126,0,.377-.252h0a7.041,7.041,0,0,0-1.384-1.887l-1.006-1.006a9.361,9.361,0,0,1-1.132-1.887,6.1,6.1,0,0,1-.377-.881c-.252-.755-.377-1.006-.755-1.006h-.126Z" transform="translate(3085.801 227.502)" fill="url(#linear-gradient-5)"/>
    <path id="Path_26767" data-name="Path 26767" d="M207.336,162.291a1.863,1.863,0,0,1-1.635-1.258,1.69,1.69,0,0,1,.5-2.012h0a1.894,1.894,0,0,1,2.264-.126,1.991,1.991,0,0,1,.755,2.013,1.758,1.758,0,0,1-1.635,1.384h-.251Zm-.377-2.264h0s-.126.377,0,.5c0,.252.252.377.5.377a.642.642,0,0,0,.629-.5c0-.252,0-.5-.251-.629a.772.772,0,0,0-.755.126Z" transform="translate(3092.714 234.408)" fill="url(#linear-gradient-6)"/>
    <path id="Path_26784" data-name="Path 26784" d="M1411.274-18488.207c7.831,13.885-2.777-5.129-2.777-5.129S1403.443-18502.092,1411.274-18488.207Z" transform="translate(1940.342 18875.043)" fill="none" stroke="#3fb4a7" stroke-width="1"/>
    <path id="Path_26785" data-name="Path 26785" d="M1411.274-18488.207c7.831,13.885-2.777-5.129-2.777-5.129S1403.443-18502.092,1411.274-18488.207Z" transform="translate(1944.342 18865.945)" fill="none" stroke="#3fb4a7" stroke-width="1"/>
  </g>
</svg>
