<svg xmlns="http://www.w3.org/2000/svg" xmlns:xlink="http://www.w3.org/1999/xlink" width="110.607" height="125.319" viewBox="0 0 110.607 125.319">
  <defs>
    <filter id="apartment-icon" x="0" y="0" width="110.607" height="125.319" filterUnits="userSpaceOnUse">
      <feOffset input="SourceAlpha"/>
      <feGaussianBlur stdDeviation="4.5" result="blur"/>
      <feFlood flood-color="#009530"/>
      <feComposite operator="in" in2="blur"/>
    </filter>
    <filter id="apartment-icon-2" x="0" y="0" width="110.607" height="125.319" filterUnits="userSpaceOnUse">
      <feOffset dx="-17" dy="3" input="SourceAlpha"/>
      <feGaussianBlur stdDeviation="3" result="blur-2"/>
      <feFlood flood-color="#009530" flood-opacity="0.91" result="color"/>
      <feComposite operator="out" in="SourceGraphic" in2="blur-2"/>
      <feComposite operator="in" in="color"/>
      <feComposite operator="in" in2="SourceGraphic"/>
    </filter>
  </defs>
  <g data-type="innerShadowGroup">
    <g transform="matrix(1, 0, 0, 1, 0, 0)" filter="url(#apartment-icon)">
      <path id="apartment-icon-3" data-name="apartment-icon" d="M2.826,94.995H0v2.834H73.633V94.995H72.041V81.461a.971.971,0,0,0-.971-.971H60.139a.971.971,0,0,0-.971.971V94.995H38.588V75.816a1.3,1.3,0,0,0-1.3-1.29H15.875a1.3,1.3,0,0,0-1.3,1.29V94.995H0V2.072A2.221,2.221,0,0,1,.653.679h0A2.261,2.261,0,0,1,2.245.01H50.9a2.245,2.245,0,0,1,1.592.669l.1.1a2.253,2.253,0,0,1,.573,1.5V27.524H81.2a1.9,1.9,0,0,1,1.345.557h0a1.879,1.879,0,0,1,.557,1.337v67.1a1.3,1.3,0,0,1-1.3,1.3H73.633V94.987h6.775V30.254H53.173V95.011H50.338V2.836H2.826Zm67.3,0H61.11V82.4h9.02V94.995Zm-2.1-59.167h7.014c.056,0,.1.08.1.175v4.546c0,.08-.048.167-.1.167H68.028c-.056,0-.1-.072-.1-.167V36C67.925,35.907,67.972,35.827,68.028,35.827Zm0,31.526h7.014c.056,0,.1.08.1.167v4.546c0,.088-.048.175-.1.175H68.028c-.056,0-.1-.08-.1-.175V67.521C67.925,67.433,67.972,67.353,68.028,67.353Zm-11.822,0h7.006c.064,0,.111.08.111.167v4.546c0,.088-.048.175-.111.175H56.206c-.064,0-.111-.08-.111-.175V67.521C56.094,67.433,56.142,67.353,56.206,67.353ZM68.028,56.845h7.014c.056,0,.1.08.1.175v4.546c0,.088-.048.175-.1.175H68.028c-.056,0-.1-.08-.1-.175V57.02C67.925,56.916,67.972,56.845,68.028,56.845Zm0-10.509h7.014c.056,0,.1.08.1.175v4.546c0,.088-.048.175-.1.175H68.028c-.056,0-.1-.08-.1-.175V46.511c0-.1.048-.175.1-.175ZM56.206,35.827h7.006c.064,0,.111.08.111.175v4.546c0,.08-.048.167-.111.167H56.206c-.064,0-.111-.072-.111-.167V36C56.094,35.907,56.142,35.827,56.206,35.827Zm0,21.017h7.006c.064,0,.111.08.111.175v4.546c0,.088-.048.175-.111.175H56.206c-.064,0-.111-.08-.111-.175V57.02C56.094,56.916,56.142,56.845,56.206,56.845Zm0-10.509h7.006c.064,0,.111.08.111.175v4.546c0,.088-.048.175-.111.175H56.206c-.064,0-.111-.08-.111-.175V46.511c0-.1.048-.175.111-.175ZM35.992,94.995H17.172V77.114h18.82ZM9.657,9.969h7.627a.223.223,0,0,1,.215.215v7.635a.223.223,0,0,1-.215.215H9.657a.223.223,0,0,1-.215-.215V10.184A.223.223,0,0,1,9.657,9.969Zm26.224,0h7.627a.223.223,0,0,1,.215.215v7.635a.223.223,0,0,1-.215.215H35.881a.223.223,0,0,1-.215-.215V10.184A.223.223,0,0,1,35.881,9.969Zm-13.112,0H30.4a.223.223,0,0,1,.215.215v7.635a.223.223,0,0,1-.215.215H22.769a.223.223,0,0,1-.215-.215V10.184A.223.223,0,0,1,22.769,9.969ZM9.657,26.5h7.627a.223.223,0,0,1,.215.215v7.635a.223.223,0,0,1-.215.215H9.657a.223.223,0,0,1-.215-.215V26.712A.223.223,0,0,1,9.657,26.5Zm26.224,0h7.627a.223.223,0,0,1,.215.215v7.635a.223.223,0,0,1-.215.215H35.881a.223.223,0,0,1-.215-.215V26.712A.223.223,0,0,1,35.881,26.5Zm-13.112,0H30.4a.223.223,0,0,1,.215.215v7.635a.223.223,0,0,1-.215.215H22.769a.223.223,0,0,1-.215-.215V26.712A.223.223,0,0,1,22.769,26.5ZM9.657,59.552h7.627a.215.215,0,0,1,.215.215v7.627a.215.215,0,0,1-.215.215H9.657a.215.215,0,0,1-.215-.215V59.766a.215.215,0,0,1,.215-.215Zm26.224,0h7.627a.215.215,0,0,1,.215.215v7.627a.215.215,0,0,1-.215.215H35.881a.215.215,0,0,1-.215-.215V59.766a.215.215,0,0,1,.215-.215Zm-13.112,0H30.4a.215.215,0,0,1,.215.215v7.627a.215.215,0,0,1-.215.215H22.769a.215.215,0,0,1-.215-.215V59.766a.215.215,0,0,1,.215-.215ZM9.657,42.992h7.627a.215.215,0,0,1,.215.215v7.667a.223.223,0,0,1-.215.215H9.657a.223.223,0,0,1-.215-.215V43.239a.215.215,0,0,1,.215-.215Zm26.224,0h7.627a.215.215,0,0,1,.215.215v7.667a.223.223,0,0,1-.215.215H35.881a.223.223,0,0,1-.215-.215V43.239a.215.215,0,0,1,.215-.215Zm-13.112,0H30.4a.215.215,0,0,1,.215.215v7.667a.223.223,0,0,1-.215.215H22.769a.223.223,0,0,1-.215-.215V43.239a.215.215,0,0,1,.215-.247Z" transform="translate(13.75 13.74)" fill="#d5d5d5" stroke="#009530" stroke-width="0.5"/>
    </g>
    <path id="apartment-icon-4" data-name="apartment-icon" d="M2.826,94.995H0v2.834H73.633V94.995H72.041V81.461a.971.971,0,0,0-.971-.971H60.139a.971.971,0,0,0-.971.971V94.995H38.588V75.816a1.3,1.3,0,0,0-1.3-1.29H15.875a1.3,1.3,0,0,0-1.3,1.29V94.995H0V2.072A2.221,2.221,0,0,1,.653.679h0A2.261,2.261,0,0,1,2.245.01H50.9a2.245,2.245,0,0,1,1.592.669l.1.1a2.253,2.253,0,0,1,.573,1.5V27.524H81.2a1.9,1.9,0,0,1,1.345.557h0a1.879,1.879,0,0,1,.557,1.337v67.1a1.3,1.3,0,0,1-1.3,1.3H73.633V94.987h6.775V30.254H53.173V95.011H50.338V2.836H2.826Zm67.3,0H61.11V82.4h9.02V94.995Zm-2.1-59.167h7.014c.056,0,.1.08.1.175v4.546c0,.08-.048.167-.1.167H68.028c-.056,0-.1-.072-.1-.167V36C67.925,35.907,67.972,35.827,68.028,35.827Zm0,31.526h7.014c.056,0,.1.08.1.167v4.546c0,.088-.048.175-.1.175H68.028c-.056,0-.1-.08-.1-.175V67.521C67.925,67.433,67.972,67.353,68.028,67.353Zm-11.822,0h7.006c.064,0,.111.08.111.167v4.546c0,.088-.048.175-.111.175H56.206c-.064,0-.111-.08-.111-.175V67.521C56.094,67.433,56.142,67.353,56.206,67.353ZM68.028,56.845h7.014c.056,0,.1.08.1.175v4.546c0,.088-.048.175-.1.175H68.028c-.056,0-.1-.08-.1-.175V57.02C67.925,56.916,67.972,56.845,68.028,56.845Zm0-10.509h7.014c.056,0,.1.08.1.175v4.546c0,.088-.048.175-.1.175H68.028c-.056,0-.1-.08-.1-.175V46.511c0-.1.048-.175.1-.175ZM56.206,35.827h7.006c.064,0,.111.08.111.175v4.546c0,.08-.048.167-.111.167H56.206c-.064,0-.111-.072-.111-.167V36C56.094,35.907,56.142,35.827,56.206,35.827Zm0,21.017h7.006c.064,0,.111.08.111.175v4.546c0,.088-.048.175-.111.175H56.206c-.064,0-.111-.08-.111-.175V57.02C56.094,56.916,56.142,56.845,56.206,56.845Zm0-10.509h7.006c.064,0,.111.08.111.175v4.546c0,.088-.048.175-.111.175H56.206c-.064,0-.111-.08-.111-.175V46.511c0-.1.048-.175.111-.175ZM35.992,94.995H17.172V77.114h18.82ZM9.657,9.969h7.627a.223.223,0,0,1,.215.215v7.635a.223.223,0,0,1-.215.215H9.657a.223.223,0,0,1-.215-.215V10.184A.223.223,0,0,1,9.657,9.969Zm26.224,0h7.627a.223.223,0,0,1,.215.215v7.635a.223.223,0,0,1-.215.215H35.881a.223.223,0,0,1-.215-.215V10.184A.223.223,0,0,1,35.881,9.969Zm-13.112,0H30.4a.223.223,0,0,1,.215.215v7.635a.223.223,0,0,1-.215.215H22.769a.223.223,0,0,1-.215-.215V10.184A.223.223,0,0,1,22.769,9.969ZM9.657,26.5h7.627a.223.223,0,0,1,.215.215v7.635a.223.223,0,0,1-.215.215H9.657a.223.223,0,0,1-.215-.215V26.712A.223.223,0,0,1,9.657,26.5Zm26.224,0h7.627a.223.223,0,0,1,.215.215v7.635a.223.223,0,0,1-.215.215H35.881a.223.223,0,0,1-.215-.215V26.712A.223.223,0,0,1,35.881,26.5Zm-13.112,0H30.4a.223.223,0,0,1,.215.215v7.635a.223.223,0,0,1-.215.215H22.769a.223.223,0,0,1-.215-.215V26.712A.223.223,0,0,1,22.769,26.5ZM9.657,59.552h7.627a.215.215,0,0,1,.215.215v7.627a.215.215,0,0,1-.215.215H9.657a.215.215,0,0,1-.215-.215V59.766a.215.215,0,0,1,.215-.215Zm26.224,0h7.627a.215.215,0,0,1,.215.215v7.627a.215.215,0,0,1-.215.215H35.881a.215.215,0,0,1-.215-.215V59.766a.215.215,0,0,1,.215-.215Zm-13.112,0H30.4a.215.215,0,0,1,.215.215v7.627a.215.215,0,0,1-.215.215H22.769a.215.215,0,0,1-.215-.215V59.766a.215.215,0,0,1,.215-.215ZM9.657,42.992h7.627a.215.215,0,0,1,.215.215v7.667a.223.223,0,0,1-.215.215H9.657a.223.223,0,0,1-.215-.215V43.239a.215.215,0,0,1,.215-.215Zm26.224,0h7.627a.215.215,0,0,1,.215.215v7.667a.223.223,0,0,1-.215.215H35.881a.223.223,0,0,1-.215-.215V43.239a.215.215,0,0,1,.215-.215Zm-13.112,0H30.4a.215.215,0,0,1,.215.215v7.667a.223.223,0,0,1-.215.215H22.769a.223.223,0,0,1-.215-.215V43.239a.215.215,0,0,1,.215-.247Z" transform="translate(13.75 13.74)" fill="#d5d5d5"/>
    <g transform="matrix(1, 0, 0, 1, 0, 0)" filter="url(#apartment-icon-2)">
      <path id="apartment-icon-5" data-name="apartment-icon" d="M2.826,94.995H0v2.834H73.633V94.995H72.041V81.461a.971.971,0,0,0-.971-.971H60.139a.971.971,0,0,0-.971.971V94.995H38.588V75.816a1.3,1.3,0,0,0-1.3-1.29H15.875a1.3,1.3,0,0,0-1.3,1.29V94.995H0V2.072A2.221,2.221,0,0,1,.653.679h0A2.261,2.261,0,0,1,2.245.01H50.9a2.245,2.245,0,0,1,1.592.669l.1.1a2.253,2.253,0,0,1,.573,1.5V27.524H81.2a1.9,1.9,0,0,1,1.345.557h0a1.879,1.879,0,0,1,.557,1.337v67.1a1.3,1.3,0,0,1-1.3,1.3H73.633V94.987h6.775V30.254H53.173V95.011H50.338V2.836H2.826Zm67.3,0H61.11V82.4h9.02V94.995Zm-2.1-59.167h7.014c.056,0,.1.08.1.175v4.546c0,.08-.048.167-.1.167H68.028c-.056,0-.1-.072-.1-.167V36C67.925,35.907,67.972,35.827,68.028,35.827Zm0,31.526h7.014c.056,0,.1.08.1.167v4.546c0,.088-.048.175-.1.175H68.028c-.056,0-.1-.08-.1-.175V67.521C67.925,67.433,67.972,67.353,68.028,67.353Zm-11.822,0h7.006c.064,0,.111.08.111.167v4.546c0,.088-.048.175-.111.175H56.206c-.064,0-.111-.08-.111-.175V67.521C56.094,67.433,56.142,67.353,56.206,67.353ZM68.028,56.845h7.014c.056,0,.1.08.1.175v4.546c0,.088-.048.175-.1.175H68.028c-.056,0-.1-.08-.1-.175V57.02C67.925,56.916,67.972,56.845,68.028,56.845Zm0-10.509h7.014c.056,0,.1.08.1.175v4.546c0,.088-.048.175-.1.175H68.028c-.056,0-.1-.08-.1-.175V46.511c0-.1.048-.175.1-.175ZM56.206,35.827h7.006c.064,0,.111.08.111.175v4.546c0,.08-.048.167-.111.167H56.206c-.064,0-.111-.072-.111-.167V36C56.094,35.907,56.142,35.827,56.206,35.827Zm0,21.017h7.006c.064,0,.111.08.111.175v4.546c0,.088-.048.175-.111.175H56.206c-.064,0-.111-.08-.111-.175V57.02C56.094,56.916,56.142,56.845,56.206,56.845Zm0-10.509h7.006c.064,0,.111.08.111.175v4.546c0,.088-.048.175-.111.175H56.206c-.064,0-.111-.08-.111-.175V46.511c0-.1.048-.175.111-.175ZM35.992,94.995H17.172V77.114h18.82ZM9.657,9.969h7.627a.223.223,0,0,1,.215.215v7.635a.223.223,0,0,1-.215.215H9.657a.223.223,0,0,1-.215-.215V10.184A.223.223,0,0,1,9.657,9.969Zm26.224,0h7.627a.223.223,0,0,1,.215.215v7.635a.223.223,0,0,1-.215.215H35.881a.223.223,0,0,1-.215-.215V10.184A.223.223,0,0,1,35.881,9.969Zm-13.112,0H30.4a.223.223,0,0,1,.215.215v7.635a.223.223,0,0,1-.215.215H22.769a.223.223,0,0,1-.215-.215V10.184A.223.223,0,0,1,22.769,9.969ZM9.657,26.5h7.627a.223.223,0,0,1,.215.215v7.635a.223.223,0,0,1-.215.215H9.657a.223.223,0,0,1-.215-.215V26.712A.223.223,0,0,1,9.657,26.5Zm26.224,0h7.627a.223.223,0,0,1,.215.215v7.635a.223.223,0,0,1-.215.215H35.881a.223.223,0,0,1-.215-.215V26.712A.223.223,0,0,1,35.881,26.5Zm-13.112,0H30.4a.223.223,0,0,1,.215.215v7.635a.223.223,0,0,1-.215.215H22.769a.223.223,0,0,1-.215-.215V26.712A.223.223,0,0,1,22.769,26.5ZM9.657,59.552h7.627a.215.215,0,0,1,.215.215v7.627a.215.215,0,0,1-.215.215H9.657a.215.215,0,0,1-.215-.215V59.766a.215.215,0,0,1,.215-.215Zm26.224,0h7.627a.215.215,0,0,1,.215.215v7.627a.215.215,0,0,1-.215.215H35.881a.215.215,0,0,1-.215-.215V59.766a.215.215,0,0,1,.215-.215Zm-13.112,0H30.4a.215.215,0,0,1,.215.215v7.627a.215.215,0,0,1-.215.215H22.769a.215.215,0,0,1-.215-.215V59.766a.215.215,0,0,1,.215-.215ZM9.657,42.992h7.627a.215.215,0,0,1,.215.215v7.667a.223.223,0,0,1-.215.215H9.657a.223.223,0,0,1-.215-.215V43.239a.215.215,0,0,1,.215-.215Zm26.224,0h7.627a.215.215,0,0,1,.215.215v7.667a.223.223,0,0,1-.215.215H35.881a.223.223,0,0,1-.215-.215V43.239a.215.215,0,0,1,.215-.215Zm-13.112,0H30.4a.215.215,0,0,1,.215.215v7.667a.223.223,0,0,1-.215.215H22.769a.223.223,0,0,1-.215-.215V43.239a.215.215,0,0,1,.215-.247Z" transform="translate(13.75 13.74)" fill="#fff"/>
    </g>
    <path id="apartment-icon-6" data-name="apartment-icon" d="M2.826,94.995H0v2.834H73.633V94.995H72.041V81.461a.971.971,0,0,0-.971-.971H60.139a.971.971,0,0,0-.971.971V94.995H38.588V75.816a1.3,1.3,0,0,0-1.3-1.29H15.875a1.3,1.3,0,0,0-1.3,1.29V94.995H0V2.072A2.221,2.221,0,0,1,.653.679h0A2.261,2.261,0,0,1,2.245.01H50.9a2.245,2.245,0,0,1,1.592.669l.1.1a2.253,2.253,0,0,1,.573,1.5V27.524H81.2a1.9,1.9,0,0,1,1.345.557h0a1.879,1.879,0,0,1,.557,1.337v67.1a1.3,1.3,0,0,1-1.3,1.3H73.633V94.987h6.775V30.254H53.173V95.011H50.338V2.836H2.826Zm67.3,0H61.11V82.4h9.02V94.995Zm-2.1-59.167h7.014c.056,0,.1.08.1.175v4.546c0,.08-.048.167-.1.167H68.028c-.056,0-.1-.072-.1-.167V36C67.925,35.907,67.972,35.827,68.028,35.827Zm0,31.526h7.014c.056,0,.1.08.1.167v4.546c0,.088-.048.175-.1.175H68.028c-.056,0-.1-.08-.1-.175V67.521C67.925,67.433,67.972,67.353,68.028,67.353Zm-11.822,0h7.006c.064,0,.111.08.111.167v4.546c0,.088-.048.175-.111.175H56.206c-.064,0-.111-.08-.111-.175V67.521C56.094,67.433,56.142,67.353,56.206,67.353ZM68.028,56.845h7.014c.056,0,.1.08.1.175v4.546c0,.088-.048.175-.1.175H68.028c-.056,0-.1-.08-.1-.175V57.02C67.925,56.916,67.972,56.845,68.028,56.845Zm0-10.509h7.014c.056,0,.1.08.1.175v4.546c0,.088-.048.175-.1.175H68.028c-.056,0-.1-.08-.1-.175V46.511c0-.1.048-.175.1-.175ZM56.206,35.827h7.006c.064,0,.111.08.111.175v4.546c0,.08-.048.167-.111.167H56.206c-.064,0-.111-.072-.111-.167V36C56.094,35.907,56.142,35.827,56.206,35.827Zm0,21.017h7.006c.064,0,.111.08.111.175v4.546c0,.088-.048.175-.111.175H56.206c-.064,0-.111-.08-.111-.175V57.02C56.094,56.916,56.142,56.845,56.206,56.845Zm0-10.509h7.006c.064,0,.111.08.111.175v4.546c0,.088-.048.175-.111.175H56.206c-.064,0-.111-.08-.111-.175V46.511c0-.1.048-.175.111-.175ZM35.992,94.995H17.172V77.114h18.82ZM9.657,9.969h7.627a.223.223,0,0,1,.215.215v7.635a.223.223,0,0,1-.215.215H9.657a.223.223,0,0,1-.215-.215V10.184A.223.223,0,0,1,9.657,9.969Zm26.224,0h7.627a.223.223,0,0,1,.215.215v7.635a.223.223,0,0,1-.215.215H35.881a.223.223,0,0,1-.215-.215V10.184A.223.223,0,0,1,35.881,9.969Zm-13.112,0H30.4a.223.223,0,0,1,.215.215v7.635a.223.223,0,0,1-.215.215H22.769a.223.223,0,0,1-.215-.215V10.184A.223.223,0,0,1,22.769,9.969ZM9.657,26.5h7.627a.223.223,0,0,1,.215.215v7.635a.223.223,0,0,1-.215.215H9.657a.223.223,0,0,1-.215-.215V26.712A.223.223,0,0,1,9.657,26.5Zm26.224,0h7.627a.223.223,0,0,1,.215.215v7.635a.223.223,0,0,1-.215.215H35.881a.223.223,0,0,1-.215-.215V26.712A.223.223,0,0,1,35.881,26.5Zm-13.112,0H30.4a.223.223,0,0,1,.215.215v7.635a.223.223,0,0,1-.215.215H22.769a.223.223,0,0,1-.215-.215V26.712A.223.223,0,0,1,22.769,26.5ZM9.657,59.552h7.627a.215.215,0,0,1,.215.215v7.627a.215.215,0,0,1-.215.215H9.657a.215.215,0,0,1-.215-.215V59.766a.215.215,0,0,1,.215-.215Zm26.224,0h7.627a.215.215,0,0,1,.215.215v7.627a.215.215,0,0,1-.215.215H35.881a.215.215,0,0,1-.215-.215V59.766a.215.215,0,0,1,.215-.215Zm-13.112,0H30.4a.215.215,0,0,1,.215.215v7.627a.215.215,0,0,1-.215.215H22.769a.215.215,0,0,1-.215-.215V59.766a.215.215,0,0,1,.215-.215ZM9.657,42.992h7.627a.215.215,0,0,1,.215.215v7.667a.223.223,0,0,1-.215.215H9.657a.223.223,0,0,1-.215-.215V43.239a.215.215,0,0,1,.215-.215Zm26.224,0h7.627a.215.215,0,0,1,.215.215v7.667a.223.223,0,0,1-.215.215H35.881a.223.223,0,0,1-.215-.215V43.239a.215.215,0,0,1,.215-.215Zm-13.112,0H30.4a.215.215,0,0,1,.215.215v7.667a.223.223,0,0,1-.215.215H22.769a.223.223,0,0,1-.215-.215V43.239a.215.215,0,0,1,.215-.247Z" transform="translate(13.75 13.74)" fill="none" stroke="#009530" stroke-width="0.5"/>
  </g>
</svg>
