<svg xmlns="http://www.w3.org/2000/svg" xmlns:xlink="http://www.w3.org/1999/xlink" width="37.77" height="37.802" viewBox="0 0 37.77 37.802">
  <defs>
    <linearGradient id="linear-gradient" x1="-0.001" y1="0.503" x2="0.999" y2="0.503" gradientUnits="objectBoundingBox">
      <stop offset="0" stop-color="#55bf9b"/>
      <stop offset="0.15" stop-color="#2dacb1"/>
      <stop offset="0.4" stop-color="#2986c1"/>
      <stop offset="1" stop-color="#3b67b1"/>
    </linearGradient>
    <linearGradient id="linear-gradient-2" x1="0.001" y1="0.501" x2="0.998" y2="0.501" xlink:href="#linear-gradient"/>
    <linearGradient id="linear-gradient-3" x1="-0.002" y1="0.5" x2="0.997" y2="0.5" xlink:href="#linear-gradient"/>
    <linearGradient id="linear-gradient-4" x1="0" y1="0.493" x2="1.008" y2="0.493" xlink:href="#linear-gradient"/>
    <linearGradient id="linear-gradient-5" x1="0" y1="0.502" x2="0.999" y2="0.502" xlink:href="#linear-gradient"/>
    <linearGradient id="linear-gradient-6" x1="0" y1="0.5" x2="1" y2="0.5" xlink:href="#linear-gradient"/>
    <linearGradient id="linear-gradient-7" x1="0" y1="0.5" x2="1.002" y2="0.5" xlink:href="#linear-gradient"/>
  </defs>
  <g id="Group_5334" data-name="Group 5334" transform="translate(-55 -1681)">
    <g id="Group_5329" data-name="Group 5329">
      <path id="Path_26373" data-name="Path 26373" d="M162.007,180.725a13.426,13.426,0,0,1-2.114-.189l-6.185-.379s-1.357-.631-1.388-1.641c0-.631.442-1.231,1.357-1.735l.221-.063,5.49-.221a1.257,1.257,0,0,0,.221-.284c-.032,0-.126-.032-.284-.063l-4.481.063c-1.2.252-3.124,1.01-3.092,1.767q0,.442-3.092,1.357c-.82.252-1.893.568-2.619.789l.316.158-1.294.252a3.149,3.149,0,0,1-2.587-.536,1.9,1.9,0,0,1-.347-1.83l.063-.221,13.41-6.216h.126c2.461.221,6.279.252,7-.316l3.155-1.546,4.228,5.585-3.944,3.881s-1.041,1.325-4.1,1.325Zm-7.983-1.451,6,.347c4.134.663,5.4-.82,5.427-.852l3.408-3.345-3.282-4.323-2.367,1.167c-1.167.915-6.184.6-7.478.473l-2.272,1.041-10.476,4.859a.818.818,0,0,0,.158.757,2.037,2.037,0,0,0,1.546.284,22.038,22.038,0,0,1,3.692-1.231c.915-.252,1.988-.6,2.43-.757.284-1.578,3.282-2.3,3.913-2.43l4.67-.063c.694.095,1.041.347,1.168.726.158.631-.473,1.2-.663,1.357l-.126.095-5.711.221c-.5.284-.789.6-.789.82,0,.284.442.6.757.757Z" transform="translate(-77.347 1511.13)" fill="url(#linear-gradient)"/>
      <path id="Path_26374" data-name="Path 26374" d="M140.63,187.322l.143-7.743a3.456,3.456,0,0,1-1.577-2.318c-.167-1.171.406-2.414,1.7-3.7l.621-.6v3.632l1.243.741,1.051-.693v-3.465l.55.335a4.351,4.351,0,0,1,1.96,2.868,4.051,4.051,0,0,1-1.553,3.322l-.215,5.688-3.9,1.936Zm.167-12.546a3.244,3.244,0,0,0-.884,2.414,2.959,2.959,0,0,0,1.41,1.912l.191.1-.119,7,2.461-1.219.191-5.544.119-.1a3.468,3.468,0,0,0,1.434-2.82,3.149,3.149,0,0,0-1.075-1.912v2.485l-1.744,1.147L140.8,177.07v-2.246Z" transform="translate(-81.247 1519.613)" fill="url(#linear-gradient-2)"/>
      <path id="Path_26375" data-name="Path 26375" d="M153.9,183.025h-4.1l-.15-1.774c-.5-.525-2.349-2.549-1.849-3.973,0-.55.275-3.348,4.023-3.748,1.5.15,4.123,1.249,3.823,4.273,0,.05,0,1.074-1.649,3.1l-.075,2.1Zm-3.423-.75h2.7l.05-1.624.075-.1c1.524-1.849,1.549-2.749,1.549-2.774.325-3.1-2.924-3.473-3.073-3.5-3.348.35-3.273,2.948-3.273,3.048v.075l-.025.075c-.35.825.875,2.474,1.749,3.323l.1.1.125,1.374Z" transform="translate(-65.119 1522.013)" fill="url(#linear-gradient-3)"/>
      <path id="Path_26376" data-name="Path 26376" d="M149.68,179.184a1,1,0,0,1-.925-.9l-.075-.924h3.148v.85a1.186,1.186,0,0,1-.95.974Zm-.175-1.1v.15c0,.15.2.2.225.2H150.8a.441.441,0,0,0,.275-.325h-1.6Z" transform="translate(-63.674 1527.752)" fill="url(#linear-gradient-4)"/>
      <path id="Path_26377" data-name="Path 26377" d="M143.387,189.378l-4.417-5.617,3.345-3.408a8.647,8.647,0,0,1,5.459-1.988l4.985.41,2.4.095c.252.063,1.42.379,1.672,1.294a1.646,1.646,0,0,1-.568,1.672l-.095.095a8.087,8.087,0,0,1-4.417.694,6.347,6.347,0,0,0-2.083,0v.126a3.4,3.4,0,0,0,1.325.158c1.294.095,4.8.095,6.058-1.041a1.258,1.258,0,0,0,.442-.852V180.7l6.595-2.146c.284-.063,2.146-.316,2.871.6a1.574,1.574,0,0,1,.095,1.7l-.063.158-11.454,5.617s-1.956,1.136-5.932.789a7.484,7.484,0,0,0-5.774,1.641l-.379.284Zm-3.155-5.553,3.313,4.228a8.194,8.194,0,0,1,6.121-1.546,9.914,9.914,0,0,0,5.364-.694l11.17-5.49a.785.785,0,0,0,0-.6c-.284-.347-1.294-.347-1.925-.252l-5.9,1.925a2.109,2.109,0,0,1-.726,1.2c-1.83,1.609-6.532,1.294-6.721,1.262-1.2,0-1.893-.189-2.177-.663a.914.914,0,0,1-.063-.694.813.813,0,0,1,.221-.5c.568-.568,2.209-.41,2.9-.316a7.233,7.233,0,0,0,3.755-.5c.189-.221.379-.5.316-.726-.095-.316-.663-.568-.915-.631l-2.3-.063-4.985-.41a7.636,7.636,0,0,0-4.733,1.7l-2.745,2.777Z" transform="translate(-83.97 1529.424)" fill="url(#linear-gradient-5)"/>
      <path id="Path_26378" data-name="Path 26378" d="M146.846,181.142a3.426,3.426,0,1,1,3.426-3.426A3.443,3.443,0,0,1,146.846,181.142Zm0-6.189a2.763,2.763,0,1,0,2.763,2.763A2.764,2.764,0,0,0,146.846,174.953Z" transform="translate(-73.287 1522.604)" fill="url(#linear-gradient-6)"/>
      <path id="Path_26379" data-name="Path 26379" d="M149.484,185.207h-2.365l-.221-1.017-1.017-.464-1.105.508-1.658-1.68.685-.862-.486-.995-1.127-.464v-2.3l1.039-.221.553-1.105-.663-.973,1.7-1.5.906.508,1.171-.442.111-1.149,2.409.133.243,1.017,1.105.442.95-.619,1.7,1.746-.575.884.4,1.105,1.238.287-.155,2.254-.995.243-.4,1.171.486.906-1.613,1.614-.884-.531-1.26.531-.221.928Zm-1.835-.663h1.3l.177-.751,1.9-.8.729.442.884-.906-.4-.729.619-1.79.862-.221.088-1.216-1.039-.243-.641-1.768.464-.729-.95-.973-.774.508-1.724-.685-.221-.862-1.3-.066-.088.928-1.835.707-.774-.42-.906.818.553.818-.884,1.724-.818.177v1.326l.95.376.774,1.591-.575.729.928.928.973-.442,1.591.729.177.818Z" transform="translate(-74.775 1521.104)" fill="url(#linear-gradient-7)"/>
    </g>
    <g id="Group_5330" data-name="Group 5330">
      <path id="Path_26373-2" data-name="Path 26373" d="M162.007,180.725a13.426,13.426,0,0,1-2.114-.189l-6.185-.379s-1.357-.631-1.388-1.641c0-.631.442-1.231,1.357-1.735l.221-.063,5.49-.221a1.257,1.257,0,0,0,.221-.284c-.032,0-.126-.032-.284-.063l-4.481.063c-1.2.252-3.124,1.01-3.092,1.767q0,.442-3.092,1.357c-.82.252-1.893.568-2.619.789l.316.158-1.294.252a3.149,3.149,0,0,1-2.587-.536,1.9,1.9,0,0,1-.347-1.83l.063-.221,13.41-6.216h.126c2.461.221,6.279.252,7-.316l3.155-1.546,4.228,5.585-3.944,3.881s-1.041,1.325-4.1,1.325Zm-7.983-1.451,6,.347c4.134.663,5.4-.82,5.427-.852l3.408-3.345-3.282-4.323-2.367,1.167c-1.167.915-6.184.6-7.478.473l-2.272,1.041-10.476,4.859a.818.818,0,0,0,.158.757,2.037,2.037,0,0,0,1.546.284,22.038,22.038,0,0,1,3.692-1.231c.915-.252,1.988-.6,2.43-.757.284-1.578,3.282-2.3,3.913-2.43l4.67-.063c.694.095,1.041.347,1.168.726.158.631-.473,1.2-.663,1.357l-.126.095-5.711.221c-.5.284-.789.6-.789.82,0,.284.442.6.757.757Z" transform="translate(-77.347 1511.13)" fill="url(#linear-gradient)"/>
      <path id="Path_26374-2" data-name="Path 26374" d="M140.63,187.322l.143-7.743a3.456,3.456,0,0,1-1.577-2.318c-.167-1.171.406-2.414,1.7-3.7l.621-.6v3.632l1.243.741,1.051-.693v-3.465l.55.335a4.351,4.351,0,0,1,1.96,2.868,4.051,4.051,0,0,1-1.553,3.322l-.215,5.688-3.9,1.936Zm.167-12.546a3.244,3.244,0,0,0-.884,2.414,2.959,2.959,0,0,0,1.41,1.912l.191.1-.119,7,2.461-1.219.191-5.544.119-.1a3.468,3.468,0,0,0,1.434-2.82,3.149,3.149,0,0,0-1.075-1.912v2.485l-1.744,1.147L140.8,177.07v-2.246Z" transform="translate(-81.247 1519.613)" fill="url(#linear-gradient-2)"/>
      <path id="Path_26375-2" data-name="Path 26375" d="M153.9,183.025h-4.1l-.15-1.774c-.5-.525-2.349-2.549-1.849-3.973,0-.55.275-3.348,4.023-3.748,1.5.15,4.123,1.249,3.823,4.273,0,.05,0,1.074-1.649,3.1l-.075,2.1Zm-3.423-.75h2.7l.05-1.624.075-.1c1.524-1.849,1.549-2.749,1.549-2.774.325-3.1-2.924-3.473-3.073-3.5-3.348.35-3.273,2.948-3.273,3.048v.075l-.025.075c-.35.825.875,2.474,1.749,3.323l.1.1.125,1.374Z" transform="translate(-65.119 1522.013)" fill="url(#linear-gradient-3)"/>
      <path id="Path_26376-2" data-name="Path 26376" d="M149.68,179.184a1,1,0,0,1-.925-.9l-.075-.924h3.148v.85a1.186,1.186,0,0,1-.95.974Zm-.175-1.1v.15c0,.15.2.2.225.2H150.8a.441.441,0,0,0,.275-.325h-1.6Z" transform="translate(-63.674 1527.752)" fill="url(#linear-gradient-4)"/>
      <path id="Path_26377-2" data-name="Path 26377" d="M143.387,189.378l-4.417-5.617,3.345-3.408a8.647,8.647,0,0,1,5.459-1.988l4.985.41,2.4.095c.252.063,1.42.379,1.672,1.294a1.646,1.646,0,0,1-.568,1.672l-.095.095a8.087,8.087,0,0,1-4.417.694,6.347,6.347,0,0,0-2.083,0v.126a3.4,3.4,0,0,0,1.325.158c1.294.095,4.8.095,6.058-1.041a1.258,1.258,0,0,0,.442-.852V180.7l6.595-2.146c.284-.063,2.146-.316,2.871.6a1.574,1.574,0,0,1,.095,1.7l-.063.158-11.454,5.617s-1.956,1.136-5.932.789a7.484,7.484,0,0,0-5.774,1.641l-.379.284Zm-3.155-5.553,3.313,4.228a8.194,8.194,0,0,1,6.121-1.546,9.914,9.914,0,0,0,5.364-.694l11.17-5.49a.785.785,0,0,0,0-.6c-.284-.347-1.294-.347-1.925-.252l-5.9,1.925a2.109,2.109,0,0,1-.726,1.2c-1.83,1.609-6.532,1.294-6.721,1.262-1.2,0-1.893-.189-2.177-.663a.914.914,0,0,1-.063-.694.813.813,0,0,1,.221-.5c.568-.568,2.209-.41,2.9-.316a7.233,7.233,0,0,0,3.755-.5c.189-.221.379-.5.316-.726-.095-.316-.663-.568-.915-.631l-2.3-.063-4.985-.41a7.636,7.636,0,0,0-4.733,1.7l-2.745,2.777Z" transform="translate(-83.97 1529.424)" fill="url(#linear-gradient-5)"/>
      <path id="Path_26378-2" data-name="Path 26378" d="M146.846,181.142a3.426,3.426,0,1,1,3.426-3.426A3.443,3.443,0,0,1,146.846,181.142Zm0-6.189a2.763,2.763,0,1,0,2.763,2.763A2.764,2.764,0,0,0,146.846,174.953Z" transform="translate(-73.287 1522.604)" fill="url(#linear-gradient-6)"/>
      <path id="Path_26379-2" data-name="Path 26379" d="M149.484,185.207h-2.365l-.221-1.017-1.017-.464-1.105.508-1.658-1.68.685-.862-.486-.995-1.127-.464v-2.3l1.039-.221.553-1.105-.663-.973,1.7-1.5.906.508,1.171-.442.111-1.149,2.409.133.243,1.017,1.105.442.95-.619,1.7,1.746-.575.884.4,1.105,1.238.287-.155,2.254-.995.243-.4,1.171.486.906-1.613,1.614-.884-.531-1.26.531-.221.928Zm-1.835-.663h1.3l.177-.751,1.9-.8.729.442.884-.906-.4-.729.619-1.79.862-.221.088-1.216-1.039-.243-.641-1.768.464-.729-.95-.973-.774.508-1.724-.685-.221-.862-1.3-.066-.088.928-1.835.707-.774-.42-.906.818.553.818-.884,1.724-.818.177v1.326l.95.376.774,1.591-.575.729.928.928.973-.442,1.591.729.177.818Z" transform="translate(-74.775 1521.104)" fill="url(#linear-gradient-7)"/>
    </g>
    <g id="Group_5331" data-name="Group 5331">
      <path id="Path_26373-3" data-name="Path 26373" d="M162.007,180.725a13.426,13.426,0,0,1-2.114-.189l-6.185-.379s-1.357-.631-1.388-1.641c0-.631.442-1.231,1.357-1.735l.221-.063,5.49-.221a1.257,1.257,0,0,0,.221-.284c-.032,0-.126-.032-.284-.063l-4.481.063c-1.2.252-3.124,1.01-3.092,1.767q0,.442-3.092,1.357c-.82.252-1.893.568-2.619.789l.316.158-1.294.252a3.149,3.149,0,0,1-2.587-.536,1.9,1.9,0,0,1-.347-1.83l.063-.221,13.41-6.216h.126c2.461.221,6.279.252,7-.316l3.155-1.546,4.228,5.585-3.944,3.881s-1.041,1.325-4.1,1.325Zm-7.983-1.451,6,.347c4.134.663,5.4-.82,5.427-.852l3.408-3.345-3.282-4.323-2.367,1.167c-1.167.915-6.184.6-7.478.473l-2.272,1.041-10.476,4.859a.818.818,0,0,0,.158.757,2.037,2.037,0,0,0,1.546.284,22.038,22.038,0,0,1,3.692-1.231c.915-.252,1.988-.6,2.43-.757.284-1.578,3.282-2.3,3.913-2.43l4.67-.063c.694.095,1.041.347,1.168.726.158.631-.473,1.2-.663,1.357l-.126.095-5.711.221c-.5.284-.789.6-.789.82,0,.284.442.6.757.757Z" transform="translate(-77.347 1511.13)" fill="url(#linear-gradient)"/>
      <path id="Path_26374-3" data-name="Path 26374" d="M140.63,187.322l.143-7.743a3.456,3.456,0,0,1-1.577-2.318c-.167-1.171.406-2.414,1.7-3.7l.621-.6v3.632l1.243.741,1.051-.693v-3.465l.55.335a4.351,4.351,0,0,1,1.96,2.868,4.051,4.051,0,0,1-1.553,3.322l-.215,5.688-3.9,1.936Zm.167-12.546a3.244,3.244,0,0,0-.884,2.414,2.959,2.959,0,0,0,1.41,1.912l.191.1-.119,7,2.461-1.219.191-5.544.119-.1a3.468,3.468,0,0,0,1.434-2.82,3.149,3.149,0,0,0-1.075-1.912v2.485l-1.744,1.147L140.8,177.07v-2.246Z" transform="translate(-81.247 1519.613)" fill="url(#linear-gradient-2)"/>
      <path id="Path_26375-3" data-name="Path 26375" d="M153.9,183.025h-4.1l-.15-1.774c-.5-.525-2.349-2.549-1.849-3.973,0-.55.275-3.348,4.023-3.748,1.5.15,4.123,1.249,3.823,4.273,0,.05,0,1.074-1.649,3.1l-.075,2.1Zm-3.423-.75h2.7l.05-1.624.075-.1c1.524-1.849,1.549-2.749,1.549-2.774.325-3.1-2.924-3.473-3.073-3.5-3.348.35-3.273,2.948-3.273,3.048v.075l-.025.075c-.35.825.875,2.474,1.749,3.323l.1.1.125,1.374Z" transform="translate(-65.119 1522.013)" fill="url(#linear-gradient-3)"/>
      <path id="Path_26376-3" data-name="Path 26376" d="M149.68,179.184a1,1,0,0,1-.925-.9l-.075-.924h3.148v.85a1.186,1.186,0,0,1-.95.974Zm-.175-1.1v.15c0,.15.2.2.225.2H150.8a.441.441,0,0,0,.275-.325h-1.6Z" transform="translate(-63.674 1527.752)" fill="url(#linear-gradient-4)"/>
      <path id="Path_26377-3" data-name="Path 26377" d="M143.387,189.378l-4.417-5.617,3.345-3.408a8.647,8.647,0,0,1,5.459-1.988l4.985.41,2.4.095c.252.063,1.42.379,1.672,1.294a1.646,1.646,0,0,1-.568,1.672l-.095.095a8.087,8.087,0,0,1-4.417.694,6.347,6.347,0,0,0-2.083,0v.126a3.4,3.4,0,0,0,1.325.158c1.294.095,4.8.095,6.058-1.041a1.258,1.258,0,0,0,.442-.852V180.7l6.595-2.146c.284-.063,2.146-.316,2.871.6a1.574,1.574,0,0,1,.095,1.7l-.063.158-11.454,5.617s-1.956,1.136-5.932.789a7.484,7.484,0,0,0-5.774,1.641l-.379.284Zm-3.155-5.553,3.313,4.228a8.194,8.194,0,0,1,6.121-1.546,9.914,9.914,0,0,0,5.364-.694l11.17-5.49a.785.785,0,0,0,0-.6c-.284-.347-1.294-.347-1.925-.252l-5.9,1.925a2.109,2.109,0,0,1-.726,1.2c-1.83,1.609-6.532,1.294-6.721,1.262-1.2,0-1.893-.189-2.177-.663a.914.914,0,0,1-.063-.694.813.813,0,0,1,.221-.5c.568-.568,2.209-.41,2.9-.316a7.233,7.233,0,0,0,3.755-.5c.189-.221.379-.5.316-.726-.095-.316-.663-.568-.915-.631l-2.3-.063-4.985-.41a7.636,7.636,0,0,0-4.733,1.7l-2.745,2.777Z" transform="translate(-83.97 1529.424)" fill="url(#linear-gradient-5)"/>
      <path id="Path_26378-3" data-name="Path 26378" d="M146.846,181.142a3.426,3.426,0,1,1,3.426-3.426A3.443,3.443,0,0,1,146.846,181.142Zm0-6.189a2.763,2.763,0,1,0,2.763,2.763A2.764,2.764,0,0,0,146.846,174.953Z" transform="translate(-73.287 1522.604)" fill="url(#linear-gradient-6)"/>
      <path id="Path_26379-3" data-name="Path 26379" d="M149.484,185.207h-2.365l-.221-1.017-1.017-.464-1.105.508-1.658-1.68.685-.862-.486-.995-1.127-.464v-2.3l1.039-.221.553-1.105-.663-.973,1.7-1.5.906.508,1.171-.442.111-1.149,2.409.133.243,1.017,1.105.442.95-.619,1.7,1.746-.575.884.4,1.105,1.238.287-.155,2.254-.995.243-.4,1.171.486.906-1.613,1.614-.884-.531-1.26.531-.221.928Zm-1.835-.663h1.3l.177-.751,1.9-.8.729.442.884-.906-.4-.729.619-1.79.862-.221.088-1.216-1.039-.243-.641-1.768.464-.729-.95-.973-.774.508-1.724-.685-.221-.862-1.3-.066-.088.928-1.835.707-.774-.42-.906.818.553.818-.884,1.724-.818.177v1.326l.95.376.774,1.591-.575.729.928.928.973-.442,1.591.729.177.818Z" transform="translate(-74.775 1521.104)" fill="url(#linear-gradient-7)"/>
    </g>
    <g id="Group_5332" data-name="Group 5332">
      <path id="Path_26373-4" data-name="Path 26373" d="M162.007,180.725a13.426,13.426,0,0,1-2.114-.189l-6.185-.379s-1.357-.631-1.388-1.641c0-.631.442-1.231,1.357-1.735l.221-.063,5.49-.221a1.257,1.257,0,0,0,.221-.284c-.032,0-.126-.032-.284-.063l-4.481.063c-1.2.252-3.124,1.01-3.092,1.767q0,.442-3.092,1.357c-.82.252-1.893.568-2.619.789l.316.158-1.294.252a3.149,3.149,0,0,1-2.587-.536,1.9,1.9,0,0,1-.347-1.83l.063-.221,13.41-6.216h.126c2.461.221,6.279.252,7-.316l3.155-1.546,4.228,5.585-3.944,3.881s-1.041,1.325-4.1,1.325Zm-7.983-1.451,6,.347c4.134.663,5.4-.82,5.427-.852l3.408-3.345-3.282-4.323-2.367,1.167c-1.167.915-6.184.6-7.478.473l-2.272,1.041-10.476,4.859a.818.818,0,0,0,.158.757,2.037,2.037,0,0,0,1.546.284,22.038,22.038,0,0,1,3.692-1.231c.915-.252,1.988-.6,2.43-.757.284-1.578,3.282-2.3,3.913-2.43l4.67-.063c.694.095,1.041.347,1.168.726.158.631-.473,1.2-.663,1.357l-.126.095-5.711.221c-.5.284-.789.6-.789.82,0,.284.442.6.757.757Z" transform="translate(-77.347 1511.13)" fill="url(#linear-gradient)"/>
      <path id="Path_26374-4" data-name="Path 26374" d="M140.63,187.322l.143-7.743a3.456,3.456,0,0,1-1.577-2.318c-.167-1.171.406-2.414,1.7-3.7l.621-.6v3.632l1.243.741,1.051-.693v-3.465l.55.335a4.351,4.351,0,0,1,1.96,2.868,4.051,4.051,0,0,1-1.553,3.322l-.215,5.688-3.9,1.936Zm.167-12.546a3.244,3.244,0,0,0-.884,2.414,2.959,2.959,0,0,0,1.41,1.912l.191.1-.119,7,2.461-1.219.191-5.544.119-.1a3.468,3.468,0,0,0,1.434-2.82,3.149,3.149,0,0,0-1.075-1.912v2.485l-1.744,1.147L140.8,177.07v-2.246Z" transform="translate(-81.247 1519.613)" fill="url(#linear-gradient-2)"/>
      <path id="Path_26375-4" data-name="Path 26375" d="M153.9,183.025h-4.1l-.15-1.774c-.5-.525-2.349-2.549-1.849-3.973,0-.55.275-3.348,4.023-3.748,1.5.15,4.123,1.249,3.823,4.273,0,.05,0,1.074-1.649,3.1l-.075,2.1Zm-3.423-.75h2.7l.05-1.624.075-.1c1.524-1.849,1.549-2.749,1.549-2.774.325-3.1-2.924-3.473-3.073-3.5-3.348.35-3.273,2.948-3.273,3.048v.075l-.025.075c-.35.825.875,2.474,1.749,3.323l.1.1.125,1.374Z" transform="translate(-65.119 1522.013)" fill="url(#linear-gradient-3)"/>
      <path id="Path_26376-4" data-name="Path 26376" d="M149.68,179.184a1,1,0,0,1-.925-.9l-.075-.924h3.148v.85a1.186,1.186,0,0,1-.95.974Zm-.175-1.1v.15c0,.15.2.2.225.2H150.8a.441.441,0,0,0,.275-.325h-1.6Z" transform="translate(-63.674 1527.752)" fill="url(#linear-gradient-4)"/>
      <path id="Path_26377-4" data-name="Path 26377" d="M143.387,189.378l-4.417-5.617,3.345-3.408a8.647,8.647,0,0,1,5.459-1.988l4.985.41,2.4.095c.252.063,1.42.379,1.672,1.294a1.646,1.646,0,0,1-.568,1.672l-.095.095a8.087,8.087,0,0,1-4.417.694,6.347,6.347,0,0,0-2.083,0v.126a3.4,3.4,0,0,0,1.325.158c1.294.095,4.8.095,6.058-1.041a1.258,1.258,0,0,0,.442-.852V180.7l6.595-2.146c.284-.063,2.146-.316,2.871.6a1.574,1.574,0,0,1,.095,1.7l-.063.158-11.454,5.617s-1.956,1.136-5.932.789a7.484,7.484,0,0,0-5.774,1.641l-.379.284Zm-3.155-5.553,3.313,4.228a8.194,8.194,0,0,1,6.121-1.546,9.914,9.914,0,0,0,5.364-.694l11.17-5.49a.785.785,0,0,0,0-.6c-.284-.347-1.294-.347-1.925-.252l-5.9,1.925a2.109,2.109,0,0,1-.726,1.2c-1.83,1.609-6.532,1.294-6.721,1.262-1.2,0-1.893-.189-2.177-.663a.914.914,0,0,1-.063-.694.813.813,0,0,1,.221-.5c.568-.568,2.209-.41,2.9-.316a7.233,7.233,0,0,0,3.755-.5c.189-.221.379-.5.316-.726-.095-.316-.663-.568-.915-.631l-2.3-.063-4.985-.41a7.636,7.636,0,0,0-4.733,1.7l-2.745,2.777Z" transform="translate(-83.97 1529.424)" fill="url(#linear-gradient-5)"/>
      <path id="Path_26378-4" data-name="Path 26378" d="M146.846,181.142a3.426,3.426,0,1,1,3.426-3.426A3.443,3.443,0,0,1,146.846,181.142Zm0-6.189a2.763,2.763,0,1,0,2.763,2.763A2.764,2.764,0,0,0,146.846,174.953Z" transform="translate(-73.287 1522.604)" fill="url(#linear-gradient-6)"/>
      <path id="Path_26379-4" data-name="Path 26379" d="M149.484,185.207h-2.365l-.221-1.017-1.017-.464-1.105.508-1.658-1.68.685-.862-.486-.995-1.127-.464v-2.3l1.039-.221.553-1.105-.663-.973,1.7-1.5.906.508,1.171-.442.111-1.149,2.409.133.243,1.017,1.105.442.95-.619,1.7,1.746-.575.884.4,1.105,1.238.287-.155,2.254-.995.243-.4,1.171.486.906-1.613,1.614-.884-.531-1.26.531-.221.928Zm-1.835-.663h1.3l.177-.751,1.9-.8.729.442.884-.906-.4-.729.619-1.79.862-.221.088-1.216-1.039-.243-.641-1.768.464-.729-.95-.973-.774.508-1.724-.685-.221-.862-1.3-.066-.088.928-1.835.707-.774-.42-.906.818.553.818-.884,1.724-.818.177v1.326l.95.376.774,1.591-.575.729.928.928.973-.442,1.591.729.177.818Z" transform="translate(-74.775 1521.104)" fill="url(#linear-gradient-7)"/>
    </g>
    <g id="Group_5333" data-name="Group 5333">
      <path id="Path_26373-5" data-name="Path 26373" d="M162.007,180.725a13.426,13.426,0,0,1-2.114-.189l-6.185-.379s-1.357-.631-1.388-1.641c0-.631.442-1.231,1.357-1.735l.221-.063,5.49-.221a1.257,1.257,0,0,0,.221-.284c-.032,0-.126-.032-.284-.063l-4.481.063c-1.2.252-3.124,1.01-3.092,1.767q0,.442-3.092,1.357c-.82.252-1.893.568-2.619.789l.316.158-1.294.252a3.149,3.149,0,0,1-2.587-.536,1.9,1.9,0,0,1-.347-1.83l.063-.221,13.41-6.216h.126c2.461.221,6.279.252,7-.316l3.155-1.546,4.228,5.585-3.944,3.881s-1.041,1.325-4.1,1.325Zm-7.983-1.451,6,.347c4.134.663,5.4-.82,5.427-.852l3.408-3.345-3.282-4.323-2.367,1.167c-1.167.915-6.184.6-7.478.473l-2.272,1.041-10.476,4.859a.818.818,0,0,0,.158.757,2.037,2.037,0,0,0,1.546.284,22.038,22.038,0,0,1,3.692-1.231c.915-.252,1.988-.6,2.43-.757.284-1.578,3.282-2.3,3.913-2.43l4.67-.063c.694.095,1.041.347,1.168.726.158.631-.473,1.2-.663,1.357l-.126.095-5.711.221c-.5.284-.789.6-.789.82,0,.284.442.6.757.757Z" transform="translate(-77.347 1511.13)" fill="url(#linear-gradient)"/>
      <path id="Path_26374-5" data-name="Path 26374" d="M140.63,187.322l.143-7.743a3.456,3.456,0,0,1-1.577-2.318c-.167-1.171.406-2.414,1.7-3.7l.621-.6v3.632l1.243.741,1.051-.693v-3.465l.55.335a4.351,4.351,0,0,1,1.96,2.868,4.051,4.051,0,0,1-1.553,3.322l-.215,5.688-3.9,1.936Zm.167-12.546a3.244,3.244,0,0,0-.884,2.414,2.959,2.959,0,0,0,1.41,1.912l.191.1-.119,7,2.461-1.219.191-5.544.119-.1a3.468,3.468,0,0,0,1.434-2.82,3.149,3.149,0,0,0-1.075-1.912v2.485l-1.744,1.147L140.8,177.07v-2.246Z" transform="translate(-81.247 1519.613)" fill="url(#linear-gradient-2)"/>
      <path id="Path_26375-5" data-name="Path 26375" d="M153.9,183.025h-4.1l-.15-1.774c-.5-.525-2.349-2.549-1.849-3.973,0-.55.275-3.348,4.023-3.748,1.5.15,4.123,1.249,3.823,4.273,0,.05,0,1.074-1.649,3.1l-.075,2.1Zm-3.423-.75h2.7l.05-1.624.075-.1c1.524-1.849,1.549-2.749,1.549-2.774.325-3.1-2.924-3.473-3.073-3.5-3.348.35-3.273,2.948-3.273,3.048v.075l-.025.075c-.35.825.875,2.474,1.749,3.323l.1.1.125,1.374Z" transform="translate(-65.119 1522.013)" fill="url(#linear-gradient-3)"/>
      <path id="Path_26376-5" data-name="Path 26376" d="M149.68,179.184a1,1,0,0,1-.925-.9l-.075-.924h3.148v.85a1.186,1.186,0,0,1-.95.974Zm-.175-1.1v.15c0,.15.2.2.225.2H150.8a.441.441,0,0,0,.275-.325h-1.6Z" transform="translate(-63.674 1527.752)" fill="url(#linear-gradient-4)"/>
      <path id="Path_26377-5" data-name="Path 26377" d="M143.387,189.378l-4.417-5.617,3.345-3.408a8.647,8.647,0,0,1,5.459-1.988l4.985.41,2.4.095c.252.063,1.42.379,1.672,1.294a1.646,1.646,0,0,1-.568,1.672l-.095.095a8.087,8.087,0,0,1-4.417.694,6.347,6.347,0,0,0-2.083,0v.126a3.4,3.4,0,0,0,1.325.158c1.294.095,4.8.095,6.058-1.041a1.258,1.258,0,0,0,.442-.852V180.7l6.595-2.146c.284-.063,2.146-.316,2.871.6a1.574,1.574,0,0,1,.095,1.7l-.063.158-11.454,5.617s-1.956,1.136-5.932.789a7.484,7.484,0,0,0-5.774,1.641l-.379.284Zm-3.155-5.553,3.313,4.228a8.194,8.194,0,0,1,6.121-1.546,9.914,9.914,0,0,0,5.364-.694l11.17-5.49a.785.785,0,0,0,0-.6c-.284-.347-1.294-.347-1.925-.252l-5.9,1.925a2.109,2.109,0,0,1-.726,1.2c-1.83,1.609-6.532,1.294-6.721,1.262-1.2,0-1.893-.189-2.177-.663a.914.914,0,0,1-.063-.694.813.813,0,0,1,.221-.5c.568-.568,2.209-.41,2.9-.316a7.233,7.233,0,0,0,3.755-.5c.189-.221.379-.5.316-.726-.095-.316-.663-.568-.915-.631l-2.3-.063-4.985-.41a7.636,7.636,0,0,0-4.733,1.7l-2.745,2.777Z" transform="translate(-83.97 1529.424)" fill="url(#linear-gradient-5)"/>
      <path id="Path_26378-5" data-name="Path 26378" d="M146.846,181.142a3.426,3.426,0,1,1,3.426-3.426A3.443,3.443,0,0,1,146.846,181.142Zm0-6.189a2.763,2.763,0,1,0,2.763,2.763A2.764,2.764,0,0,0,146.846,174.953Z" transform="translate(-73.287 1522.604)" fill="url(#linear-gradient-6)"/>
      <path id="Path_26379-5" data-name="Path 26379" d="M149.484,185.207h-2.365l-.221-1.017-1.017-.464-1.105.508-1.658-1.68.685-.862-.486-.995-1.127-.464v-2.3l1.039-.221.553-1.105-.663-.973,1.7-1.5.906.508,1.171-.442.111-1.149,2.409.133.243,1.017,1.105.442.95-.619,1.7,1.746-.575.884.4,1.105,1.238.287-.155,2.254-.995.243-.4,1.171.486.906-1.613,1.614-.884-.531-1.26.531-.221.928Zm-1.835-.663h1.3l.177-.751,1.9-.8.729.442.884-.906-.4-.729.619-1.79.862-.221.088-1.216-1.039-.243-.641-1.768.464-.729-.95-.973-.774.508-1.724-.685-.221-.862-1.3-.066-.088.928-1.835.707-.774-.42-.906.818.553.818-.884,1.724-.818.177v1.326l.95.376.774,1.591-.575.729.928.928.973-.442,1.591.729.177.818Z" transform="translate(-74.775 1521.104)" fill="url(#linear-gradient-7)"/>
    </g>
  </g>
</svg>
