<svg xmlns="http://www.w3.org/2000/svg" xmlns:xlink="http://www.w3.org/1999/xlink" width="492.09" height="491.409" viewBox="0 0 492.09 491.409">
  <defs>
    <filter id="Ellipse_278" x="0" y="0" width="492.09" height="491.409" filterUnits="userSpaceOnUse">
      <feOffset dx="9" dy="7" input="SourceAlpha"/>
      <feGaussianBlur stdDeviation="2" result="blur"/>
      <feFlood flood-color="#050069"/>
      <feComposite operator="in" in2="blur"/>
    </filter>
    <filter id="Ellipse_278-2" x="0" y="0" width="492.09" height="491.409" filterUnits="userSpaceOnUse">
      <feOffset dx="-7" dy="17" input="SourceAlpha"/>
      <feGaussianBlur result="blur-2"/>
      <feFlood flood-color="#05007b" result="color"/>
      <feComposite operator="out" in="SourceGraphic" in2="blur-2"/>
      <feComposite operator="in" in="color"/>
      <feComposite operator="in" in2="SourceGraphic"/>
    </filter>
    <linearGradient id="linear-gradient" y1="0.5" x2="1" y2="0.5" gradientUnits="objectBoundingBox">
      <stop offset="0" stop-color="#1bc384"/>
      <stop offset="0.19" stop-color="#1c9ba9"/>
      <stop offset="0.51" stop-color="#1f54ed"/>
      <stop offset="0.99" stop-color="#680080"/>
    </linearGradient>
  </defs>
  <g id="Group_3740" data-name="Group 3740" transform="translate(-2653.5 -428.092)">
    <g data-type="innerShadowGroup">
      <g transform="matrix(1, 0, 0, 1, 2653.5, 428.09)" filter="url(#Ellipse_278)">
        <ellipse id="Ellipse_278-3" data-name="Ellipse 278" cx="70.045" cy="70.704" rx="70.045" ry="70.704" transform="translate(168.5 168.5)" fill="none" stroke="#00f9f9" stroke-width="49" opacity="0.69"/>
      </g>
      <g transform="matrix(1, 0, 0, 1, 2653.5, 428.09)" filter="url(#Ellipse_278-2)">
        <ellipse id="Ellipse_278-4" data-name="Ellipse 278" cx="70.045" cy="70.704" rx="70.045" ry="70.704" transform="translate(168.5 168.5)" fill="#fff" opacity="0.69"/>
      </g>
      <ellipse id="Ellipse_278-5" data-name="Ellipse 278" cx="70.045" cy="70.704" rx="70.045" ry="70.704" transform="translate(2822 596.592)" fill="none" stroke="#00f9f9" stroke-width="49" opacity="0.69"/>
    </g>
    <g id="Group_2285" data-name="Group 2285" transform="translate(2790 586.92) rotate(-7)">
      <path id="Path_3542" data-name="Path 3542" d="M137.505,279.261a92.175,92.175,0,1,1,92.175-92.175A92.271,92.271,0,0,1,137.505,279.261Zm0-172.9a80.722,80.722,0,1,0,80.722,80.722,80.818,80.818,0,0,0-80.722-80.722Z" transform="translate(-45.33 -94.91)" fill="#3c3e40"/>
    </g>
    <path id="Path_3544" data-name="Path 3544" d="M138.284,280.709a93.084,93.084,0,0,1,0-186.169,7.054,7.054,0,1,1,0,14.108,78.94,78.94,0,1,0,78.94,78.94,7.054,7.054,0,0,1,14.108,0,93.171,93.171,0,0,1-93.084,93.084Z" transform="translate(2754.346 479.46)" fill="url(#linear-gradient)"/>
    <circle id="Ellipse_890" data-name="Ellipse 890" cx="78" cy="78" r="78" transform="translate(2815.547 590)"/>
  </g>
</svg>
