<svg xmlns="http://www.w3.org/2000/svg" xmlns:xlink="http://www.w3.org/1999/xlink" width="79" height="66.92" viewBox="0 0 79 66.92">
  <defs>
    <linearGradient id="linear-gradient" x1="0.5" x2="0.5" y2="1" gradientUnits="objectBoundingBox">
      <stop offset="0" stop-color="#33d4a3"/>
      <stop offset="0.304" stop-color="#2dacb1"/>
      <stop offset="1" stop-color="#2986c0"/>
      <stop offset="1" stop-color="#2466cf"/>
    </linearGradient>
  </defs>
  <path id="hotel_class_24dp_5F6368_FILL0_wght200_GRAD0_opsz24" d="M174.477-734.5l15.7-13.558,6.518.608-16.929,14.591,5.006,22.084-5.528-3.356Zm-8.622-26.646-4.4-10.377,2.5-6.17,7.179,17.042ZM137.61-722.251l14.236-8.586,14.236,8.7-3.728-16.269,12.541-10.846-16.5-1.469-6.553-15.366-6.553,15.252-16.5,1.469,12.541,10.959Zm-6.892,9.481,5.606-24.013L117.69-752.921l24.543-2.129,9.612-22.639,9.612,22.639L186-752.921l-18.634,16.138,5.606,24.013-21.128-12.749ZM151.845-741.884Z" transform="translate(-117.69 777.69)" opacity="0.54" fill="url(#linear-gradient)"/>
</svg>
