<svg xmlns="http://www.w3.org/2000/svg" xmlns:xlink="http://www.w3.org/1999/xlink" width="36.391" height="56.776" viewBox="0 0 36.391 56.776">
  <defs>
    <linearGradient id="linear-gradient" y1="0.5" x2="1" y2="0.5" gradientUnits="objectBoundingBox">
      <stop offset="0" stop-color="#56bf9b"/>
      <stop offset="0.24" stop-color="#2dacb1"/>
      <stop offset="0.44" stop-color="#2986c1"/>
      <stop offset="1" stop-color="#3c67b1"/>
    </linearGradient>
    <linearGradient id="linear-gradient-2" x1="0" y1="0.498" y2="0.498" xlink:href="#linear-gradient"/>
    <linearGradient id="linear-gradient-3" x1="0" y1="0.499" y2="0.499" xlink:href="#linear-gradient"/>
    <linearGradient id="linear-gradient-4" x1="0" y1="0.499" y2="0.499" xlink:href="#linear-gradient"/>
    <linearGradient id="linear-gradient-8" x1="0" y1="0.501" y2="0.501" xlink:href="#linear-gradient"/>
    <linearGradient id="linear-gradient-9" x1="0" y1="0.5" y2="0.5" xlink:href="#linear-gradient"/>
  </defs>
  <g id="Group_5706" data-name="Group 5706" transform="translate(-779.766 -322)">
    <path id="Path_27641" data-name="Path 27641" d="M230.593,114.851H228.58V102.813H218.133v12.038H216.12V100.8h14.473Z" transform="translate(574.724 257.916)" fill="#ffffff"/>
    <rect id="Rectangle_2947" data-name="Rectangle 2947" width="2.013" height="6.059" transform="translate(783.145 336.895)" fill="#ffffff"/>
    <rect id="Rectangle_2948" data-name="Rectangle 2948" width="2.013" height="6.19" transform="translate(789.737 336.895)" fill="#ffffff"/>
    <rect id="Rectangle_2949" data-name="Rectangle 2949" width="2.013" height="4.137" transform="translate(803.305 342.22)" fill="#ffffff"/>
    <rect id="Rectangle_2950" data-name="Rectangle 2950" width="2.013" height="4.137" transform="translate(808.76 342.22)" fill="#ffffff"/>
    <rect id="Rectangle_2951" data-name="Rectangle 2951" width="2.013" height="3.744" transform="translate(803.687 350.725)" fill="#ffffff"/>
    <rect id="Rectangle_2952" data-name="Rectangle 2952" width="2.013" height="3.744" transform="translate(808.76 350.725)" fill="#ffffff"/>
    <rect id="Rectangle_2953" data-name="Rectangle 2953" width="2.013" height="3.976" transform="translate(808.76 358.605)" fill="#ffffff"/>
    <path id="Path_27645" data-name="Path 27645" d="M241.494,121.1l-24.639-.05-.181-.07a7.789,7.789,0,0,1-2.093-1.228,8.911,8.911,0,0,1-3.04-5.979l-.06-16c-2.7-.463-6.552-2.224-6.361-6.572V84.258h14.966l.02,7.216s.181,5.012-6.6,6.291l.06,15.892a6.868,6.868,0,0,0,2.3,4.529,5.893,5.893,0,0,0,1.389.845l22.233.04V67.662l-13.759,7.277v26.772H223.72V73.721l17.785-9.4v56.766ZM207.133,86.271v4.962c-.181,4.177,5.2,4.61,5.425,4.63h.05c5.526-.805,5.5-4.207,5.485-4.348V86.271Z" transform="translate(574.653 257.68)" fill="#ffffff"/>
  </g>
</svg>
