<svg xmlns="http://www.w3.org/2000/svg" width="85.287" height="81.988" viewBox="0 0 85.287 81.988">
  <g id="Group_5467" data-name="Group 5467" transform="translate(-2659.191 -339.999)">
    <rect id="Rectangle_2085" data-name="Rectangle 2085" width="9.054" height="37.845" transform="translate(2697.578 363.5)" fill="#fff"/>
    <path id="Path_24989" data-name="Path 24989" d="M189.834,126.92l-1.268-1.086s-3.078-2.535-5.795-2.173h0a4.533,4.533,0,0,1-2.9-1.992,4.619,4.619,0,0,1,0-3.8,3.752,3.752,0,0,1,2.535-1.811,5.089,5.089,0,0,1,4.527,1.268c.181.181,4.165,3.44,3.259,7.967l-.362,1.449Zm-6.337-5.07a9.205,9.205,0,0,1,4.889,1.63,8.531,8.531,0,0,0-2.716-4.708,4.312,4.312,0,0,0-3.078-.905,1.882,1.882,0,0,0-1.268.905,2.279,2.279,0,0,0,0,2.173c.362.724,1.268.906,1.449,1.086h.724Z" transform="translate(2506.838 234.045)" fill="#fff"/>
    <path id="Path_24990" data-name="Path 24990" d="M185.207,128.733l-.905-.362-.543.362s-4.346-5.794-3.622-9.778h0a3.657,3.657,0,0,1,1.449-2.716,5.171,5.171,0,0,1,4.165-.724,4.23,4.23,0,0,1,3.078,5.432l-3.44,7.786Zm-.905-11.589a3.114,3.114,0,0,0-1.811.543,2.653,2.653,0,0,0-.906,1.449c-.362,2.173,1.268,5.251,2.535,7.243l2.716-5.976a2.7,2.7,0,0,0-1.811-3.259H184.3Z" transform="translate(2516.898 224.627)" fill="#fff"/>
    <path id="Path_24991" data-name="Path 24991" d="M181.852,125.561l-.543-.543h-.724a8.939,8.939,0,0,1,2.535-7.243c1.63-1.449,5.07-3.078,7.605-.362h0a4.49,4.49,0,0,1,0,3.621,3.673,3.673,0,0,1-2.535,1.992h-.362s-3.078-.543-6.338,2.354Zm5.794-7.967a6.21,6.21,0,0,0-3.078,1.268,7.722,7.722,0,0,0-1.992,3.8,7.775,7.775,0,0,1,5.794-1.449,2.309,2.309,0,0,0,1.268-.905c.362-.543,0-1.449,0-1.811a2.594,2.594,0,0,0-1.811-.724Z" transform="translate(2524.78 234.5)" fill="#fff"/>
    <path id="Path_24992" data-name="Path 24992" d="M256.919,171.394H184.308a6.3,6.3,0,0,1-6.338-6.338V123.228a6.3,6.3,0,0,1,6.338-6.338h72.611a6.3,6.3,0,0,1,6.338,6.338v41.828A6.3,6.3,0,0,1,256.919,171.394Zm-72.792-52.512a4.483,4.483,0,0,0-4.527,4.527v41.828a4.483,4.483,0,0,0,4.527,4.527h72.611a4.483,4.483,0,0,0,4.527-4.527V123.409a4.483,4.483,0,0,0-4.527-4.527Z" transform="translate(2481.221 250.594)" fill="#fff"/>
    <path id="Path_24993" data-name="Path 24993" d="M188.94,125.368l-10.14-1.811,4.527-6.338,5.251,1.086,2.354,3.622-1.811,3.259Zm-7.062-3.078,6.156,1.086.724-1.086-1.268-2.173-3.259-.724-2.173,2.9Z" transform="translate(2495.42 256.24)" fill="#fff"/>
    <path id="Path_24994" data-name="Path 24994" d="M178.342,125.042l3.259-7.062h5.251l2.9,3.259-1.268,3.44H178.16Zm4.527-5.07-1.63,3.259H187.4l.362-1.449-1.63-1.811h-3.259Z" transform="translate(2484.471 269.242)" fill="#fff"/>
    <path id="Path_24995" data-name="Path 24995" d="M184.823,128.121l-5.613-2.535,5.07-7.786,4.165,2.9a2.765,2.765,0,0,1,.724,2.173c-.181,1.086-1.086,1.992-2.9,2.716l-1.449,2.716Zm-3.078-3.44,2.173.905L185,123.776h.362c1.811-.905,2.173-1.449,2.173-1.63v-.362L185,120.154l-2.9,4.527Z" transform="translate(2502.434 266.162)" fill="#fff"/>
    <path id="Path_24996" data-name="Path 24996" d="M189.9,126.224l-3.259-1.992H181.21l1.268-7.062,7.786.905,2.535,6.157-2.716,1.992Zm-6.519-3.8h3.8l2.716,1.63.724-.543-1.63-3.8-4.889-.543-.543,3.44Z" transform="translate(2536.648 255.385)" fill="#fff"/>
    <path id="Path_24997" data-name="Path 24997" d="M185.749,126.763l-4.889-3.078v-2.535l7.062-3.259.724,5.613Zm-3.078-3.984,2.716,1.811,1.449-1.449-.362-2.354-3.8,1.811v.181Z" transform="translate(2530.661 267.701)" fill="#fff"/>
    <path id="Path_24998" data-name="Path 24998" d="M184.476,124.62l-2.716-2.354,3.44-4.346,8.691.905v5.07h-4.708l-4.889.724Zm-.181-2.535.724.543,4.165-.724h3.078v-1.449l-6.157-.543-1.811,2.173Z" transform="translate(2546.059 268.215)" fill="#fff"/>
    <path id="Path_24999" data-name="Path 24999" d="M217.321,125.084a3,3,0,0,1-2.716-1.449c-1.992-2.716-4.708-2.9-5.251-2.716l-.362.362c-2.173,1.992-4.346,3.8-6.338,3.44-.543,0-1.268-.362-1.811-1.449-.905-1.992-5.432-2.173-7.424-2.173-1.449,1.63-4.708,3.8-8.148,1.811s-5.976-.724-5.976-.724l-.905-1.63a8.343,8.343,0,0,1,7.786.724c3.078,1.811,5.976-1.63,5.976-1.811v-.362h.724c.724,0,7.967-.362,9.6,3.078.362.724.543.543.724.543,1.268,0,3.622-2.173,4.527-2.9l.543-.543a3.283,3.283,0,0,1,2.354-.362,7.8,7.8,0,0,1,5.433,3.44c1.268,1.63,4.164,0,6.7-1.811a11.1,11.1,0,0,1,1.086-.724l.724,1.63a3.126,3.126,0,0,0-.724.543c-1.449,1.086-3.984,2.9-6.338,2.9Z" transform="translate(2488.405 284.229)" fill="#fff"/>
    <path id="Path_25000" data-name="Path 25000" d="M186.559,123.978a4.643,4.643,0,0,1-3.8-1.449c-.905-1.086-3.621-1.449-4.346-1.449V119.27s4.165,0,5.794,1.992a4.683,4.683,0,0,0,2.9.724,4.389,4.389,0,0,0,3.44-1.449,2.3,2.3,0,0,1,1.63-1.268,6.08,6.08,0,0,1,2.535.905s.362.362.543.362h-.362l.543,1.811a3.947,3.947,0,0,1-1.811-.724c-.362-.181-.905-.724-1.086-.724,0,0-.181,0-.362.362-.724,1.268-2.716,2.173-4.889,2.354h-.543Z" transform="translate(2488.748 291.311)" fill="#fff"/>
    <path id="Path_25001" data-name="Path 25001" d="M199.79,124.5a7.892,7.892,0,0,1-3.259-.724h-.181c-4.708-3.984-7.243-2.173-7.243-2.173-6.519,4.346-9.6,1.268-9.6,1.268l1.268-1.268s2.173,1.992,7.243-1.449c0,0,3.622-2.535,9.416,1.992.543.181,3.8,1.268,5.613-1.086,1.449-1.268,4.889-2.535,8.511.543,0,0,3.44,1.992,7.605-1.992h.362s3.8-1.449,6.338,1.63c0,0,1.63,1.449,2.9.362.724-.724,1.449-1.268,1.992-.724.724.724,0,1.449-.724,2.535h-.362c-1.992,1.268-4.164,0-5.251-.905a4.158,4.158,0,0,0-4.165-1.449c-5.07,4.708-9.778,1.992-9.778,1.992-3.622-2.9-6.157-.905-6.157-.724a5.787,5.787,0,0,1-4.708,2.173Z" transform="translate(2507.566 291.33)" fill="#fff"/>
    <path id="Path_25002" data-name="Path 25002" d="M185.989,122.327a16.143,16.143,0,0,1-4.889-.543l.362-1.811s6.519,1.268,10.321-.724h.362s7.424-1.268,10.5,1.449l-1.086,1.449c-1.992-1.63-6.881-1.449-8.873-1.086a13.558,13.558,0,0,1-6.519,1.268Z" transform="translate(2534.767 285.898)" fill="#fff"/>
    <rect id="Rectangle_2086" data-name="Rectangle 2086" width="2.716" height="32.775" transform="translate(2694.798 368.74) rotate(0.29)" fill="#fff"/>
    <rect id="Rectangle_2087" data-name="Rectangle 2087" width="2.716" height="32.775" transform="translate(2706.205 368.797) rotate(0.29)" fill="#fff"/>
  </g>
</svg>
