<svg id="Group_6444" data-name="Group 6444" xmlns="http://www.w3.org/2000/svg" width="39.903" height="46.894" viewBox="0 0 39.903 46.894">
  <g id="Group_4721" data-name="Group 4721" transform="translate(0)">
    <path id="Path_25019" data-name="Path 25019" d="M229.245,188.107h-24.9v-41.9l9.881-.27v-2.97h14.347l.677,45.138Zm-24-.9h23.1l-.632-43.337H215.168v2.97l-9.881.27v40.142Z" transform="translate(-200.234 -142.97)" fill="#fff"/>
    <path id="Path_25020" data-name="Path 25020" d="M207.767,147.165H205.06V144.69h2.707Zm-2.256-.45h1.8V145.14h-1.8Z" transform="translate(-197.706 -136.949)" fill="#fff"/>
    <path id="Path_25021" data-name="Path 25021" d="M207.767,148.155H205.06V145.68h2.707Zm-2.256-.45h1.8V146.13h-1.8Z" transform="translate(-197.706 -133.484)" fill="#fff"/>
    <path id="Path_25022" data-name="Path 25022" d="M207.737,149.165H205.03V146.69h2.707Zm-2.256-.45h1.8V147.14h-1.8Z" transform="translate(-197.811 -129.949)" fill="#fff"/>
    <path id="Path_25023" data-name="Path 25023" d="M207.737,150.175H205.03V147.7h2.707Zm-2.256-.45h1.8V148.15h-1.8Z" transform="translate(-197.811 -126.414)" fill="#fff"/>
    <path id="Path_25024" data-name="Path 25024" d="M207.737,151.185H205.03V148.71h2.707Zm-2.256-.45h1.8V149.16h-1.8Z" transform="translate(-197.811 -122.878)" fill="#fff"/>
    <path id="Path_25025" data-name="Path 25025" d="M207.737,152.205H205.03V149.73h2.707Zm-2.3-.45h1.8V150.18h-1.8Z" transform="translate(-197.811 -119.308)" fill="#fff"/>
    <path id="Path_25026" data-name="Path 25026" d="M219.42,147.105H206.11V144.63h13.31Zm-12.858-.45h12.407V145.08H206.561Z" transform="translate(-194.019 -137.16)" fill="#fff"/>
    <path id="Path_25027" data-name="Path 25027" d="M219.42,148.105H206.11V145.63h13.31Zm-12.858-.45h12.407V146.08H206.561Z" transform="translate(-194.019 -133.659)" fill="#fff"/>
    <path id="Path_25028" data-name="Path 25028" d="M219.42,149.105H206.11V146.63h13.31Zm-12.858-.45h12.407V147.08H206.561Z" transform="translate(-194.019 -130.158)" fill="#fff"/>
    <path id="Path_25029" data-name="Path 25029" d="M219.42,150.115H206.11V147.64h13.31Zm-12.858-.45h12.407V148.09H206.561Z" transform="translate(-194.019 -126.623)" fill="#fff"/>
    <path id="Path_25030" data-name="Path 25030" d="M219.42,151.125H206.11V148.65h13.31Zm-12.858-.45h12.407V149.1H206.561Z" transform="translate(-194.019 -123.088)" fill="#fff"/>
    <path id="Path_25031" data-name="Path 25031" d="M219.42,152.145H206.11V149.67h13.31Zm-12.858-.45h12.407V150.12H206.561Z" transform="translate(-194.019 -119.517)" fill="#fff"/>
    <path id="Path_25032" data-name="Path 25032" d="M216.608,157.825H206.1v-.45h10.061V151.93h-9.836v5.31h-.451v-5.76h10.738Z" transform="translate(-194.861 -113.183)" fill="#fff"/>
    <path id="Path_25033" data-name="Path 25033" d="M239.795,155.311H203.43v-1.935h.451v1.485h35.462v-1.53c-2.978,0-34.425-.09-35.462,0v-.45c1.038-.09,34.244,0,35.688,0h.226v2.43Z" transform="translate(-203.43 -108.418)" fill="#fff"/>
    <path id="Path_25034" data-name="Path 25034" d="M212.9,163.061a2.006,2.006,0,0,1-1.714-.81l-1.4-1.26.316-.315,1.4,1.26a2.079,2.079,0,0,0,2.166.54c1.579-.4,2.075-2.385,2.075-2.385V160l.722-.36v-1.485h.226a2.359,2.359,0,0,0,2.391-1.26V152.08h.18c.812-.18,1.263-.45,1.308-.765.09-.4-.406-.855-.677-1.08h-8.617c-.5.45-.677.855-.587,1.17.135.45.993.63,1.308.675h.18v4.41a2.122,2.122,0,0,0,2.166,1.71h.226l.09,1.44.361.4v.135a2.077,2.077,0,0,1-.9,1.4,2.457,2.457,0,0,1-1.76.135h-.045l-2.481-1.98.271-.36,2.436,1.935a2.43,2.43,0,0,0,1.353-.09,1.334,1.334,0,0,0,.632-.945l-.316-.315-.09-1.215a2.564,2.564,0,0,1-2.391-2.115v-4.05c-.361-.09-1.263-.315-1.444-.945-.18-.5.09-1.035.767-1.665h.045l8.933-.045h.045s1.083.81.9,1.62q-.135.743-1.489,1.08v4.59a3.017,3.017,0,0,1-2.481,1.575h-.135V160l-.722.36a3.688,3.688,0,0,1-2.346,2.61,3.183,3.183,0,0,1-.9.135Z" transform="translate(-181.096 -118.643)" fill="#fff"/>
    <path id="Path_25035" data-name="Path 25035" d="M210.415,153.38v-3.735s.406-.72.948-.765h.045a1.264,1.264,0,0,1,.993.675h0v3.825h-1.985Zm.451-3.645v3.15h1.173v-3.2s-.361-.4-.587-.4h0c-.226,0-.451.315-.541.45Z" transform="translate(-179.058 -122.283)" fill="#fff"/>
    <path id="Path_25036" data-name="Path 25036" d="M211.405,153.38v-3.735s.406-.72.948-.765h.045a1.264,1.264,0,0,1,.993.675h0v3.825h-1.985Zm.406-3.645v3.15h1.173v-3.2s-.406-.45-.587-.4c-.226,0-.451.315-.541.45Z" transform="translate(-175.581 -122.283)" fill="#fff"/>
  </g>
  <g id="Group_5424" data-name="Group 5424" transform="translate(0)">
    <path id="Path_25019-2" data-name="Path 25019" d="M229.245,188.107h-24.9v-41.9l9.881-.27v-2.97h14.347l.677,45.138Zm-24-.9h23.1l-.632-43.337H215.168v2.97l-9.881.27v40.142Z" transform="translate(-200.234 -142.97)" fill="#fff"/>
    <path id="Path_25020-2" data-name="Path 25020" d="M207.767,147.165H205.06V144.69h2.707Zm-2.256-.45h1.8V145.14h-1.8Z" transform="translate(-197.706 -136.949)" fill="#fff"/>
    <path id="Path_25021-2" data-name="Path 25021" d="M207.767,148.155H205.06V145.68h2.707Zm-2.256-.45h1.8V146.13h-1.8Z" transform="translate(-197.706 -133.484)" fill="#fff"/>
    <path id="Path_25022-2" data-name="Path 25022" d="M207.737,149.165H205.03V146.69h2.707Zm-2.256-.45h1.8V147.14h-1.8Z" transform="translate(-197.811 -129.949)" fill="#fff"/>
    <path id="Path_25023-2" data-name="Path 25023" d="M207.737,150.175H205.03V147.7h2.707Zm-2.256-.45h1.8V148.15h-1.8Z" transform="translate(-197.811 -126.414)" fill="#fff"/>
    <path id="Path_25024-2" data-name="Path 25024" d="M207.737,151.185H205.03V148.71h2.707Zm-2.256-.45h1.8V149.16h-1.8Z" transform="translate(-197.811 -122.878)" fill="#fff"/>
    <path id="Path_25025-2" data-name="Path 25025" d="M207.737,152.205H205.03V149.73h2.707Zm-2.3-.45h1.8V150.18h-1.8Z" transform="translate(-197.811 -119.308)" fill="#fff"/>
    <path id="Path_25026-2" data-name="Path 25026" d="M219.42,147.105H206.11V144.63h13.31Zm-12.858-.45h12.407V145.08H206.561Z" transform="translate(-194.019 -137.16)" fill="#fff"/>
    <path id="Path_25027-2" data-name="Path 25027" d="M219.42,148.105H206.11V145.63h13.31Zm-12.858-.45h12.407V146.08H206.561Z" transform="translate(-194.019 -133.659)" fill="#fff"/>
    <path id="Path_25028-2" data-name="Path 25028" d="M219.42,149.105H206.11V146.63h13.31Zm-12.858-.45h12.407V147.08H206.561Z" transform="translate(-194.019 -130.158)" fill="#fff"/>
    <path id="Path_25029-2" data-name="Path 25029" d="M219.42,150.115H206.11V147.64h13.31Zm-12.858-.45h12.407V148.09H206.561Z" transform="translate(-194.019 -126.623)" fill="#fff"/>
    <path id="Path_25030-2" data-name="Path 25030" d="M219.42,151.125H206.11V148.65h13.31Zm-12.858-.45h12.407V149.1H206.561Z" transform="translate(-194.019 -123.088)" fill="#fff"/>
    <path id="Path_25031-2" data-name="Path 25031" d="M219.42,152.145H206.11V149.67h13.31Zm-12.858-.45h12.407V150.12H206.561Z" transform="translate(-194.019 -119.517)" fill="#fff"/>
    <path id="Path_25032-2" data-name="Path 25032" d="M216.608,157.825H206.1v-.45h10.061V151.93h-9.836v5.31h-.451v-5.76h10.738Z" transform="translate(-194.861 -113.183)" fill="#fff"/>
    <path id="Path_25033-2" data-name="Path 25033" d="M239.795,155.311H203.43v-1.935h.451v1.485h35.462v-1.53c-2.978,0-34.425-.09-35.462,0v-.45c1.038-.09,34.244,0,35.688,0h.226v2.43Z" transform="translate(-203.43 -108.418)" fill="#fff"/>
    <path id="Path_25034-2" data-name="Path 25034" d="M212.9,163.061a2.006,2.006,0,0,1-1.714-.81l-1.4-1.26.316-.315,1.4,1.26a2.079,2.079,0,0,0,2.166.54c1.579-.4,2.075-2.385,2.075-2.385V160l.722-.36v-1.485h.226a2.359,2.359,0,0,0,2.391-1.26V152.08h.18c.812-.18,1.263-.45,1.308-.765.09-.4-.406-.855-.677-1.08h-8.617c-.5.45-.677.855-.587,1.17.135.45.993.63,1.308.675h.18v4.41a2.122,2.122,0,0,0,2.166,1.71h.226l.09,1.44.361.4v.135a2.077,2.077,0,0,1-.9,1.4,2.457,2.457,0,0,1-1.76.135h-.045l-2.481-1.98.271-.36,2.436,1.935a2.43,2.43,0,0,0,1.353-.09,1.334,1.334,0,0,0,.632-.945l-.316-.315-.09-1.215a2.564,2.564,0,0,1-2.391-2.115v-4.05c-.361-.09-1.263-.315-1.444-.945-.18-.5.09-1.035.767-1.665h.045l8.933-.045h.045s1.083.81.9,1.62q-.135.743-1.489,1.08v4.59a3.017,3.017,0,0,1-2.481,1.575h-.135V160l-.722.36a3.688,3.688,0,0,1-2.346,2.61,3.183,3.183,0,0,1-.9.135Z" transform="translate(-181.096 -118.643)" fill="#fff"/>
    <path id="Path_25035-2" data-name="Path 25035" d="M210.415,153.38v-3.735s.406-.72.948-.765h.045a1.264,1.264,0,0,1,.993.675h0v3.825h-1.985Zm.451-3.645v3.15h1.173v-3.2s-.361-.4-.587-.4h0c-.226,0-.451.315-.541.45Z" transform="translate(-179.058 -122.283)" fill="#fff"/>
    <path id="Path_25036-2" data-name="Path 25036" d="M211.405,153.38v-3.735s.406-.72.948-.765h.045a1.264,1.264,0,0,1,.993.675h0v3.825h-1.985Zm.406-3.645v3.15h1.173v-3.2s-.406-.45-.587-.4c-.226,0-.451.315-.541.45Z" transform="translate(-175.581 -122.283)" fill="#fff"/>
  </g>
  <g id="Group_5425" data-name="Group 5425" transform="translate(0)">
    <path id="Path_25019-3" data-name="Path 25019" d="M229.245,188.107h-24.9v-41.9l9.881-.27v-2.97h14.347l.677,45.138Zm-24-.9h23.1l-.632-43.337H215.168v2.97l-9.881.27v40.142Z" transform="translate(-200.234 -142.97)" fill="#fff"/>
    <path id="Path_25020-3" data-name="Path 25020" d="M207.767,147.165H205.06V144.69h2.707Zm-2.256-.45h1.8V145.14h-1.8Z" transform="translate(-197.706 -136.949)" fill="#fff"/>
    <path id="Path_25021-3" data-name="Path 25021" d="M207.767,148.155H205.06V145.68h2.707Zm-2.256-.45h1.8V146.13h-1.8Z" transform="translate(-197.706 -133.484)" fill="#fff"/>
    <path id="Path_25022-3" data-name="Path 25022" d="M207.737,149.165H205.03V146.69h2.707Zm-2.256-.45h1.8V147.14h-1.8Z" transform="translate(-197.811 -129.949)" fill="#fff"/>
    <path id="Path_25023-3" data-name="Path 25023" d="M207.737,150.175H205.03V147.7h2.707Zm-2.256-.45h1.8V148.15h-1.8Z" transform="translate(-197.811 -126.414)" fill="#fff"/>
    <path id="Path_25024-3" data-name="Path 25024" d="M207.737,151.185H205.03V148.71h2.707Zm-2.256-.45h1.8V149.16h-1.8Z" transform="translate(-197.811 -122.878)" fill="#fff"/>
    <path id="Path_25025-3" data-name="Path 25025" d="M207.737,152.205H205.03V149.73h2.707Zm-2.3-.45h1.8V150.18h-1.8Z" transform="translate(-197.811 -119.308)" fill="#fff"/>
    <path id="Path_25026-3" data-name="Path 25026" d="M219.42,147.105H206.11V144.63h13.31Zm-12.858-.45h12.407V145.08H206.561Z" transform="translate(-194.019 -137.16)" fill="#fff"/>
    <path id="Path_25027-3" data-name="Path 25027" d="M219.42,148.105H206.11V145.63h13.31Zm-12.858-.45h12.407V146.08H206.561Z" transform="translate(-194.019 -133.659)" fill="#fff"/>
    <path id="Path_25028-3" data-name="Path 25028" d="M219.42,149.105H206.11V146.63h13.31Zm-12.858-.45h12.407V147.08H206.561Z" transform="translate(-194.019 -130.158)" fill="#fff"/>
    <path id="Path_25029-3" data-name="Path 25029" d="M219.42,150.115H206.11V147.64h13.31Zm-12.858-.45h12.407V148.09H206.561Z" transform="translate(-194.019 -126.623)" fill="#fff"/>
    <path id="Path_25030-3" data-name="Path 25030" d="M219.42,151.125H206.11V148.65h13.31Zm-12.858-.45h12.407V149.1H206.561Z" transform="translate(-194.019 -123.088)" fill="#fff"/>
    <path id="Path_25031-3" data-name="Path 25031" d="M219.42,152.145H206.11V149.67h13.31Zm-12.858-.45h12.407V150.12H206.561Z" transform="translate(-194.019 -119.517)" fill="#fff"/>
    <path id="Path_25032-3" data-name="Path 25032" d="M216.608,157.825H206.1v-.45h10.061V151.93h-9.836v5.31h-.451v-5.76h10.738Z" transform="translate(-194.861 -113.183)" fill="#fff"/>
    <path id="Path_25033-3" data-name="Path 25033" d="M239.795,155.311H203.43v-1.935h.451v1.485h35.462v-1.53c-2.978,0-34.425-.09-35.462,0v-.45c1.038-.09,34.244,0,35.688,0h.226v2.43Z" transform="translate(-203.43 -108.418)" fill="#fff"/>
    <path id="Path_25034-3" data-name="Path 25034" d="M212.9,163.061a2.006,2.006,0,0,1-1.714-.81l-1.4-1.26.316-.315,1.4,1.26a2.079,2.079,0,0,0,2.166.54c1.579-.4,2.075-2.385,2.075-2.385V160l.722-.36v-1.485h.226a2.359,2.359,0,0,0,2.391-1.26V152.08h.18c.812-.18,1.263-.45,1.308-.765.09-.4-.406-.855-.677-1.08h-8.617c-.5.45-.677.855-.587,1.17.135.45.993.63,1.308.675h.18v4.41a2.122,2.122,0,0,0,2.166,1.71h.226l.09,1.44.361.4v.135a2.077,2.077,0,0,1-.9,1.4,2.457,2.457,0,0,1-1.76.135h-.045l-2.481-1.98.271-.36,2.436,1.935a2.43,2.43,0,0,0,1.353-.09,1.334,1.334,0,0,0,.632-.945l-.316-.315-.09-1.215a2.564,2.564,0,0,1-2.391-2.115v-4.05c-.361-.09-1.263-.315-1.444-.945-.18-.5.09-1.035.767-1.665h.045l8.933-.045h.045s1.083.81.9,1.62q-.135.743-1.489,1.08v4.59a3.017,3.017,0,0,1-2.481,1.575h-.135V160l-.722.36a3.688,3.688,0,0,1-2.346,2.61,3.183,3.183,0,0,1-.9.135Z" transform="translate(-181.096 -118.643)" fill="#fff"/>
    <path id="Path_25035-3" data-name="Path 25035" d="M210.415,153.38v-3.735s.406-.72.948-.765h.045a1.264,1.264,0,0,1,.993.675h0v3.825h-1.985Zm.451-3.645v3.15h1.173v-3.2s-.361-.4-.587-.4h0c-.226,0-.451.315-.541.45Z" transform="translate(-179.058 -122.283)" fill="#fff"/>
    <path id="Path_25036-3" data-name="Path 25036" d="M211.405,153.38v-3.735s.406-.72.948-.765h.045a1.264,1.264,0,0,1,.993.675h0v3.825h-1.985Zm.406-3.645v3.15h1.173v-3.2s-.406-.45-.587-.4c-.226,0-.451.315-.541.45Z" transform="translate(-175.581 -122.283)" fill="#fff"/>
  </g>
</svg>
