<svg xmlns="http://www.w3.org/2000/svg" xmlns:xlink="http://www.w3.org/1999/xlink" width="89.983" height="106.014" viewBox="0 0 89.983 106.014">
  <defs>
    <linearGradient id="linear-gradient" y1="0.5" x2="1" y2="0.5" gradientUnits="objectBoundingBox">
      <stop offset="0" stop-color="#55bf9b"/>
      <stop offset="0.15" stop-color="#2dacb1"/>
      <stop offset="0.4" stop-color="#2986c1"/>
      <stop offset="1" stop-color="#3b67b1"/>
    </linearGradient>
    <linearGradient id="linear-gradient-2" x1="0" y1="0.491" x2="1" y2="0.491" xlink:href="#linear-gradient"/>
    <linearGradient id="linear-gradient-3" x1="0" y1="0.509" x2="1" y2="0.509" xlink:href="#linear-gradient"/>
    <linearGradient id="linear-gradient-14" x1="0" y1="0.504" x2="1" y2="0.504" xlink:href="#linear-gradient"/>
    <linearGradient id="linear-gradient-15" x1="0" y1="0.508" x2="1" y2="0.508" xlink:href="#linear-gradient"/>
    <linearGradient id="linear-gradient-16" x1="0" y1="0.495" x2="1.002" y2="0.495" xlink:href="#linear-gradient"/>
    <linearGradient id="linear-gradient-17" x1="0.022" y1="0.49" x2="1.022" y2="0.49" xlink:href="#linear-gradient"/>
    <linearGradient id="linear-gradient-18" x1="0" y1="0.49" x2="1.022" y2="0.49" xlink:href="#linear-gradient"/>
  </defs>
  <g id="Group_4721" data-name="Group 4721" transform="translate(-1259.928 -438.394)">
    <path id="Path_25019" data-name="Path 25019" d="M260.5,245.014H204.34V150.3l22.281-.61V142.97h32.353L260.5,245.014Zm-54.126-2.035h52.091L257.042,145H228.758v6.715l-22.281.611v90.751Z" transform="translate(1064.848 295.424)" fill="url(#linear-gradient)"/>
    <path id="Path_25020" data-name="Path 25020" d="M211.165,150.286h-6.1v-5.6h6.1Zm-5.087-1.017h4.07v-3.561h-4.07Z" transform="translate(1071.451 311.205)" fill="url(#linear-gradient-2)"/>
    <path id="Path_25021" data-name="Path 25021" d="M211.165,151.276h-6.1v-5.6h6.1Zm-5.087-1.017h4.07V146.7h-4.07Z" transform="translate(1071.451 320.285)" fill="url(#linear-gradient-3)"/>
    <path id="Path_25022" data-name="Path 25022" d="M211.135,152.286h-6.1v-5.6h6.1Zm-5.087-1.017h4.07v-3.561h-4.07Z" transform="translate(1071.178 329.551)" fill="url(#linear-gradient-3)"/>
    <path id="Path_25023" data-name="Path 25023" d="M211.135,153.3h-6.1v-5.6h6.1Zm-5.087-1.017h4.07v-3.561h-4.07Z" transform="translate(1071.178 338.816)" fill="url(#linear-gradient-2)"/>
    <path id="Path_25024" data-name="Path 25024" d="M211.135,154.306h-6.1v-5.6h6.1Zm-5.087-1.017h4.07v-3.561h-4.07Z" transform="translate(1071.178 348.082)" fill="url(#linear-gradient-2)"/>
    <path id="Path_25025" data-name="Path 25025" d="M211.135,155.326h-6.1v-5.6h6.1Zm-5.189-1.017h4.07v-3.561h-4.07Z" transform="translate(1071.178 357.439)" fill="url(#linear-gradient-2)"/>
    <path id="Path_25026" data-name="Path 25026" d="M236.123,150.226H206.11v-5.6h30.013Zm-29-1.017h27.979v-3.561H207.128Z" transform="translate(1081.084 310.652)" fill="url(#linear-gradient-2)"/>
    <path id="Path_25027" data-name="Path 25027" d="M236.123,151.226H206.11v-5.6h30.013Zm-29-1.017h27.979v-3.561H207.128Z" transform="translate(1081.084 319.826)" fill="url(#linear-gradient-2)"/>
    <path id="Path_25028" data-name="Path 25028" d="M236.123,152.226H206.11v-5.6h30.013Zm-29-1.017h27.979v-3.561H207.128Z" transform="translate(1081.084 329.002)" fill="url(#linear-gradient-3)"/>
    <path id="Path_25029" data-name="Path 25029" d="M236.123,153.236H206.11v-5.6h30.013Zm-29-1.017h27.979v-3.561H207.128Z" transform="translate(1081.084 338.268)" fill="url(#linear-gradient-3)"/>
    <path id="Path_25030" data-name="Path 25030" d="M236.123,154.246H206.11v-5.6h30.013Zm-29-1.017h27.979v-3.561H207.128Z" transform="translate(1081.084 347.533)" fill="url(#linear-gradient-2)"/>
    <path id="Path_25031" data-name="Path 25031" d="M236.123,155.266H206.11v-5.6h30.013Zm-29-1.017h27.979v-3.561H207.128Z" transform="translate(1081.084 356.891)" fill="url(#linear-gradient-3)"/>
    <path id="Path_25032" data-name="Path 25032" d="M230.084,165.825H206.379v-1.018h22.688V152.5H206.888V164.5H205.87V151.48h24.214Z" transform="translate(1078.883 373.494)" fill="url(#linear-gradient-14)"/>
    <path id="Path_25033" data-name="Path 25033" d="M285.433,158.425h-82v-4.375h1.017v3.357h79.968v-3.459c-6.715,0-77.628-.2-79.968,0v-1.017c2.34-.2,77.221,0,80.477,0h.509v5.494Z" transform="translate(1056.498 385.982)" fill="url(#linear-gradient-15)"/>
    <path id="Path_25034" data-name="Path 25034" d="M216.81,179.628a4.518,4.518,0,0,1-3.866-1.831l-3.154-2.849.712-.712,3.154,2.849c1.729,2.238,4.782,1.221,4.883,1.221,3.561-.916,4.68-5.392,4.68-5.392v-.2l1.628-.814v-3.357h.509a5.318,5.318,0,0,0,5.392-2.849V154.8h.407c1.831-.407,2.849-1.018,2.95-1.73.2-.916-.916-1.933-1.526-2.442H213.147c-1.119,1.017-1.526,1.933-1.323,2.645.305,1.017,2.238,1.424,2.95,1.526h.407v9.97c.61,3.866,4.68,3.866,4.884,3.866h.509l.2,3.256.814.916v.305a4.7,4.7,0,0,1-2.035,3.154,5.529,5.529,0,0,1-3.968.305h-.1l-5.6-4.477.61-.814L216,175.66a5.466,5.466,0,0,0,3.052-.2,3.016,3.016,0,0,0,1.424-2.137l-.712-.712-.2-2.747a5.787,5.787,0,0,1-5.392-4.782v-9.156c-.814-.2-2.849-.712-3.256-2.137-.407-1.119.2-2.34,1.73-3.764h.1l20.145-.1h.1s2.442,1.831,2.035,3.662q-.305,1.679-3.357,2.442V166.4s-1.831,3.561-5.6,3.561h-.305v2.747l-1.628.814c-.305,1.017-1.628,4.985-5.291,5.9a7.16,7.16,0,0,1-2.035.305Z" transform="translate(1114.844 359.184)" fill="url(#linear-gradient-16)"/>
    <path id="Path_25035" data-name="Path 25035" d="M210.472,159.054v-8.444s.916-1.628,2.137-1.729h.1a2.849,2.849,0,0,1,2.238,1.526h0v8.648h-4.477Zm1.017-8.241v7.122h2.645v-7.224s-.814-.916-1.323-.916h0c-.509,0-1.017.712-1.221,1.017Z" transform="translate(1120.168 349.643)" fill="url(#linear-gradient-17)"/>
    <path id="Path_25036" data-name="Path 25036" d="M211.462,159.054v-8.444s.916-1.628,2.137-1.729h.1a2.849,2.849,0,0,1,2.238,1.526h0v8.648h-4.477Zm.916-8.241v7.122h2.645v-7.224s-.916-1.017-1.323-.916c-.509,0-1.017.712-1.221,1.017Z" transform="translate(1129.25 349.643)" fill="url(#linear-gradient-18)"/>
  </g>
</svg>
