<svg xmlns="http://www.w3.org/2000/svg" xmlns:xlink="http://www.w3.org/1999/xlink" width="345.964" height="345.964" viewBox="0 0 345.964 345.964">
  <defs>
    <filter id="Ellipse_922" x="0" y="0" width="345.964" height="345.964" filterUnits="userSpaceOnUse">
      <feOffset dx="6" dy="14" input="SourceAlpha"/>
      <feGaussianBlur stdDeviation="11.5" result="blur"/>
      <feFlood flood-color="aqua"/>
      <feComposite operator="in" in2="blur"/>
    </filter>
    <filter id="Ellipse_922-2" x="0" y="0" width="345.964" height="345.964" filterUnits="userSpaceOnUse">
      <feOffset dx="-8" dy="7" input="SourceAlpha"/>
      <feGaussianBlur stdDeviation="5" result="blur-2"/>
      <feFlood flood-color="aqua" flood-opacity="0.51" result="color"/>
      <feComposite operator="out" in="SourceGraphic" in2="blur-2"/>
      <feComposite operator="in" in="color"/>
      <feComposite operator="in" in2="SourceGraphic"/>
    </filter>
  </defs>
  <g id="Group_3560" data-name="Group 3560" transform="translate(-573.5 -1854.018)">
    <g id="Group_3071" data-name="Group 3071" transform="translate(23 -5)">
      <g data-type="innerShadowGroup">
        <g transform="matrix(1, 0, 0, 1, 550.5, 1859.02)" filter="url(#Ellipse_922)">
          <g id="Ellipse_922-3" data-name="Ellipse 922" transform="translate(79.5 71.5)" fill="none" stroke="aqua" stroke-linejoin="bevel" stroke-width="2.5">
            <circle cx="87.482" cy="87.482" r="87.482" stroke="none"/>
            <circle cx="87.482" cy="87.482" r="86.232" fill="none"/>
          </g>
        </g>
        <g transform="matrix(1, 0, 0, 1, 550.5, 1859.02)" filter="url(#Ellipse_922-2)">
          <circle id="Ellipse_922-4" data-name="Ellipse 922" cx="87.482" cy="87.482" r="87.482" transform="translate(79.5 71.5)" fill="#fff"/>
        </g>
        <g id="Ellipse_922-5" data-name="Ellipse 922" transform="translate(630 1930.518)" fill="none" stroke="aqua" stroke-linejoin="bevel" stroke-width="2.5">
          <circle cx="87.482" cy="87.482" r="87.482" stroke="none"/>
          <circle cx="87.482" cy="87.482" r="86.232" fill="none"/>
        </g>
      </g>
      <circle id="Ellipse_953" data-name="Ellipse 953" cx="75" cy="75" r="75" transform="translate(643 1943.518)" fill="#23bae9" opacity="0.24"/>
      <g id="Group_2968" data-name="Group 2968" transform="translate(6436.148 -6194.246)">
        <path id="Path_14208" data-name="Path 14208" d="M-5652.469,8247.529c-1.53-5.826,0-59.535,0-59.535s2.61-5.446,7.345-5.988,56.268,0,56.268,0,4.2.349,5.637,5.988,0,73.31,0,73.31l-20.172-8.879h-41.732S-5650.942,8253.355-5652.469,8247.529Z" transform="translate(-99.999 -9.001)" fill="#2ea4e1"/>
        <path id="Path_14209" data-name="Path 14209" d="M-5648.212,8204.037s26.129,19.222,47.907,0" transform="translate(-94.187 17.232)" fill="none" stroke="#fff" stroke-width="4"/>
      </g>
    </g>
  </g>
</svg>
