<svg xmlns="http://www.w3.org/2000/svg" xmlns:xlink="http://www.w3.org/1999/xlink" width="529.309" height="122.331" viewBox="0 0 529.309 122.331">
  <defs>
    <linearGradient id="linear-gradient" x1="0.5" x2="0.5" y2="1" gradientUnits="objectBoundingBox">
      <stop offset="0" stop-color="#33d4a3"/>
      <stop offset="0.304" stop-color="#2dacb1"/>
      <stop offset="1" stop-color="#2986c0"/>
      <stop offset="1" stop-color="#2466cf"/>
    </linearGradient>
  </defs>
  <g id="Group_2940" data-name="Group 2940" transform="translate(-14.422 -841)">
    <path id="chevron_right_24dp_5F6368_FILL0_wght400_GRAD0_opsz24_1_" data-name="chevron_right_24dp_5F6368_FILL0_wght400_GRAD0_opsz24 (1)" d="M329.815-707.2,320-717.013,322.987-720l12.8,12.8-12.8,12.8L320-697.384Z" transform="translate(-196 551) rotate(90)" fill="#fff"/>
    <line id="Line_1580" data-name="Line 1580" x2="529.309" transform="translate(14.422 962.332)" fill="none" stroke="#fff" stroke-width="2"/>
    <path id="construction_24dp_5F6368_FILL0_wght200_GRAD0_opsz24" d="M207.056-724.479,180.78-750.755l5.024-5.024L212.08-729.5Zm-65.767,0-5.024-5.024,32.929-32.929-14.053-13.962-2.585,2.585-4.487-4.579v8.519l-2.585,2.585-12.4-12.406,2.584-2.584h8.519l-4.551-4.459,10.249-10.249a10.825,10.825,0,0,1,3.585-2.43,10.924,10.924,0,0,1,4.151-.791,10.918,10.918,0,0,1,4.151.791,10.837,10.837,0,0,1,3.586,2.43l-7.791,7.791L162.751-784l-2.585,2.585,14.053,13.962,12.105-12.105a9.983,9.983,0,0,1-1.543-3.222,14.2,14.2,0,0,1-.433-3.614,13.351,13.351,0,0,1,4.019-9.815,13.354,13.354,0,0,1,9.816-4.018,15.842,15.842,0,0,1,2.371.173,8.033,8.033,0,0,1,2.252.7l-9.8,9.8,8.337,8.337,9.8-9.8a7.241,7.241,0,0,1,.713,2.251,17.122,17.122,0,0,1,.16,2.371A13.353,13.353,0,0,1,208-776.58a13.352,13.352,0,0,1-9.816,4.019,14.668,14.668,0,0,1-3.613-.419,9.5,9.5,0,0,1-3.222-1.557Z" transform="translate(-98.08 1641.23)" fill="url(#linear-gradient)"/>
    <text id="Maintenance" transform="translate(231 890)" fill="#fff" font-size="31" font-family="Helvetica"><tspan x="-88.754" y="0">Maintenance</tspan></text>
  </g>
</svg>
