<svg xmlns="http://www.w3.org/2000/svg" xmlns:xlink="http://www.w3.org/1999/xlink" width="137.752" height="112.318" viewBox="0 0 137.752 112.318">
  <defs>
    <linearGradient id="linear-gradient" x1="0.001" y1="0.5" x2="0.999" y2="0.5" gradientUnits="objectBoundingBox">
      <stop offset="0" stop-color="#55bf9b"/>
      <stop offset="0.15" stop-color="#2dacb1"/>
      <stop offset="0.4" stop-color="#2986c1"/>
      <stop offset="1" stop-color="#3b67b1"/>
    </linearGradient>
    <linearGradient id="linear-gradient-2" x1="0" y1="0.5" x2="1" y2="0.5" xlink:href="#linear-gradient"/>
    <linearGradient id="linear-gradient-3" x1="0.003" y1="0.5" x2="1" y2="0.5" xlink:href="#linear-gradient"/>
    <linearGradient id="linear-gradient-4" x1="0" y1="0.499" x2="0.999" y2="0.499" xlink:href="#linear-gradient"/>
    <linearGradient id="linear-gradient-5" x1="0.125" y1="0.5" x2="0.873" y2="0.5" xlink:href="#linear-gradient"/>
    <linearGradient id="linear-gradient-6" x1="0.127" y1="0.5" x2="0.873" y2="0.5" xlink:href="#linear-gradient"/>
    <linearGradient id="linear-gradient-7" x1="0.126" y1="0.5" x2="0.874" y2="0.5" xlink:href="#linear-gradient"/>
    <linearGradient id="linear-gradient-8" x1="0" y1="0.502" x2="1" y2="0.502" xlink:href="#linear-gradient"/>
  </defs>
  <g id="Group_5439" data-name="Group 5439" transform="translate(-693.037 -325)">
    <path id="Path_25009" data-name="Path 25009" d="M293.312,184.1H178.49v-10.06l2.947-1.986V147.964l7.945-18.454h30.756v42.1h73.237v12.431Zm-112.836-1.922H291.454v-8.586H218.216V131.5H190.664l-7.24,17.108v24.541l-2.947,1.986v7.112Z" transform="translate(514.547 236.364)" fill="url(#linear-gradient)"/>
    <rect id="Rectangle_2093" data-name="Rectangle 2093" width="39.855" height="1.922" transform="translate(696.371 408.548)" fill="url(#linear-gradient-2)"/>
    <path id="Path_25010" data-name="Path 25010" d="M203.273,143.137H181.231v-1.794l-.961-.192c.256-1.153,3.78-8.65,4.485-10.124l.256-.577h18.2v12.687Zm-20.953-1.922h19.03v-8.842H186.293C184.563,136.089,182.769,140,182.32,141.215Z" transform="translate(524.172 241.448)" fill="url(#linear-gradient-3)"/>
    <path id="Path_25011" data-name="Path 25011" d="M244.392,207.448l-55.617-31.2a5.923,5.923,0,0,1-2.179-3.652q-.384-2.6,1.922-5.382L206.4,133.057l-3.909-4.87V127.8c.128-.32.641-3.4,2.691-4.357a3.706,3.706,0,0,1,3.652.384l.32.256,6.023,8.2-3.4,6.215,59.4,34.985s1.858,1.986,1.474,4.229a4.594,4.594,0,0,1-2.563,3.2l-25.63,26.655Zm-39.919-79.773,4.165,5.126L190.12,168.234a5.763,5.763,0,0,0-1.6,4.037,3.387,3.387,0,0,0,1.346,2.307l54.207,30.436L269,179.191a2.828,2.828,0,0,0,1.73-1.858,3.4,3.4,0,0,0-.9-2.5l-60.679-35.626,3.716-6.792-5.126-7.048a1.738,1.738,0,0,0-1.73-.192c-.833.384-1.346,1.73-1.538,2.563Z" transform="translate(558.088 201.869)" fill="url(#linear-gradient-4)"/>
    <rect id="Rectangle_2094" data-name="Rectangle 2094" width="33.191" height="1.922" transform="translate(754.816 376.834) rotate(-45.13)" fill="url(#linear-gradient-5)"/>
    <rect id="Rectangle_2095" data-name="Rectangle 2095" width="33.191" height="1.922" transform="translate(776.039 388.684) rotate(-45.13)" fill="url(#linear-gradient-6)"/>
    <rect id="Rectangle_2096" data-name="Rectangle 2096" width="33.127" height="1.922" transform="translate(796.523 399.586) rotate(-45.13)" fill="url(#linear-gradient-7)"/>
    <path id="Path_25012" data-name="Path 25012" d="M204.56,150.039H189.31V133.7h15.25Zm-13.328-1.922h11.405V135.622H191.232Z" transform="translate(573.059 259.022)" fill="url(#linear-gradient-8)"/>
    <path id="Path_25013" data-name="Path 25013" d="M193.32,163.48a13.52,13.52,0,1,1,13.52-13.52A13.564,13.564,0,0,1,193.32,163.48Zm0-25.117a11.6,11.6,0,1,0,11.6,11.6A11.594,11.594,0,0,0,193.32,138.362Z" transform="translate(521.631 273.839)" fill="url(#linear-gradient-2)"/>
    <path id="Path_25014" data-name="Path 25014" d="M203.96,163.48a13.52,13.52,0,1,1,13.52-13.52A13.564,13.564,0,0,1,203.96,163.48Zm0-25.117a11.6,11.6,0,1,0,11.6,11.6A11.595,11.595,0,0,0,203.96,138.362Z" transform="translate(579.168 273.839)" fill="url(#linear-gradient-2)"/>
    <circle id="Ellipse_1013" data-name="Ellipse 1013" cx="4.357" cy="4.357" r="4.357" transform="translate(710.596 420.53)" fill="url(#linear-gradient-2)"/>
    <circle id="Ellipse_1014" data-name="Ellipse 1014" cx="4.357" cy="4.357" r="4.357" transform="translate(778.77 420.53)" fill="url(#linear-gradient-2)"/>
  </g>
</svg>
