<svg xmlns="http://www.w3.org/2000/svg" xmlns:xlink="http://www.w3.org/1999/xlink" width="29.901" height="24.89" viewBox="0 0 29.901 24.89">
  <defs>
    <linearGradient id="linear-gradient" y1="0.501" x2="1" y2="0.501" gradientUnits="objectBoundingBox">
      <stop offset="0" stop-color="#55bf9b"/>
      <stop offset="0.33" stop-color="#2dacb1"/>
      <stop offset="0.74" stop-color="#2986c1"/>
      <stop offset="1" stop-color="#3b67b1"/>
    </linearGradient>
    <linearGradient id="linear-gradient-2" y1="0.501" x2="1" y2="0.501" gradientUnits="objectBoundingBox">
      <stop offset="0" stop-color="#55bf9b"/>
      <stop offset="0.15" stop-color="#2dacb1"/>
      <stop offset="0.4" stop-color="#2986c1"/>
      <stop offset="1" stop-color="#3b67b1"/>
    </linearGradient>
    <linearGradient id="linear-gradient-3" x1="-0.001" y1="0.498" x2="1" y2="0.498" xlink:href="#linear-gradient"/>
    <linearGradient id="linear-gradient-4" x1="0.001" y1="0.5" x2="1" y2="0.5" xlink:href="#linear-gradient-2"/>
    <linearGradient id="linear-gradient-5" x1="-0.001" y1="0.499" x2="0.998" y2="0.499" xlink:href="#linear-gradient"/>
    <linearGradient id="linear-gradient-6" x1="0" y1="0.498" x2="1" y2="0.498" xlink:href="#linear-gradient-2"/>
    <linearGradient id="linear-gradient-7" x1="0" y1="0.501" x2="1" y2="0.501" xlink:href="#linear-gradient"/>
    <linearGradient id="linear-gradient-8" x1="0" y1="0.501" x2="1" y2="0.501" xlink:href="#linear-gradient-2"/>
    <linearGradient id="linear-gradient-9" x1="0.004" y1="0.497" x2="0.997" y2="0.497" xlink:href="#linear-gradient"/>
    <linearGradient id="linear-gradient-10" x1="0" y1="0.5" x2="0.997" y2="0.5" xlink:href="#linear-gradient"/>
  </defs>
  <g id="Group_5352" data-name="Group 5352" transform="translate(-61 -1933.999)">
    <g id="Group_4336" data-name="Group 4336" transform="translate(61 1933.998)">
      <g id="Group_4293" data-name="Group 4293" transform="translate(0 15.004)">
        <path id="Path_25366" data-name="Path 25366" d="M59.549,74.863l-.226-.2,1.8-1.977-5.1-6.717-2.566,1.449L53.3,67.15l2.792-1.57L61.511,72.7Z" transform="translate(-52.983 -65.293)" fill="url(#linear-gradient)"/>
        <path id="Path_25367" data-name="Path 25367" d="M59.671,75.277l-.558-.5,1.826-2.008-4.875-6.4-2.6,1.449-.377-.649,3.17-1.781.121.151,5.54,7.275Z" transform="translate(-53.09 -65.39)" fill="url(#linear-gradient-2)"/>
      </g>
      <g id="Group_4294" data-name="Group 4294" transform="translate(7.426 12.542)">
        <path id="Path_25368" data-name="Path 25368" d="M58.241,72.776l-.091-.287,1.057-.347H71.116l8.83-6.792a1.452,1.452,0,0,0-.634-1.011,2.226,2.226,0,0,0-2.008.181l-4.815,2.808-.151-.257,4.83-2.823a2.479,2.479,0,0,1,2.294-.166,1.878,1.878,0,0,1,.8,1.328v.075l-.06.045-8.981,6.913H59.237l-.981.332Z" transform="translate(-57.939 -63.703)" fill="url(#linear-gradient-3)"/>
        <path id="Path_25369" data-name="Path 25369" d="M58.206,73.013l-.2-.574,1.238-.408H71.112l8.724-6.7a1.288,1.288,0,0,0-.543-.815,2.138,2.138,0,0,0-1.872.181l-4.936,2.883-.3-.528,4.966-2.9a2.682,2.682,0,0,1,2.46-.166,2,2,0,0,1,.875,1.449V65.6l-.121.106-9.026,6.943H59.323l-1.1.377Zm1.087-.664H71.232l6.4-4.936-6.4,4.936Zm20.015-8.166s.091.045.136.075a1.634,1.634,0,0,1,.709,1.117v.03a1.632,1.632,0,0,0-.709-1.147c-.045-.03-.091-.045-.136-.075Z" transform="translate(-58.01 -63.759)" fill="url(#linear-gradient-4)"/>
      </g>
      <g id="Group_4295" data-name="Group 4295" transform="translate(3.457 12.553)">
        <path id="Path_25370" data-name="Path 25370" d="M65.583,68.616v-.3l7.547-.106a.779.779,0,0,0,.121-.649c-.181-.8-1.374-1.509-1.585-1.63H69.115a5.012,5.012,0,0,1-2.566-.287c0,.015-.03.03-.045.06-.106.106-.211.06-.679-.392l-.845-.815.74.408c-1.057-1.042-4.106-.709-4.438-.664l-5.6,3.426-.151-.257,5.69-3.457c.151-.015,3.713-.5,4.845.875.151.181.257.317.332.423a5.066,5.066,0,0,0,2.717.377h2.657l.03.015c.06.03,1.54.83,1.766,1.841a1.134,1.134,0,0,1-.211.951l-.045.06h-.075l-7.623.106Z" transform="translate(-55.304 -63.72)" fill="url(#linear-gradient-5)"/>
        <path id="Path_25371" data-name="Path 25371" d="M65.508,68.813v-.6l7.607-.106a.632.632,0,0,0,.06-.468c-.151-.709-1.238-1.374-1.479-1.509H69.191a5.111,5.111,0,0,1-2.521-.257c-.241.211-.5-.03-.875-.392l-.875-.845a9.511,9.511,0,0,0-3.517-.181L55.7,67.938l-.317-.513,5.872-3.562c.151-.015,3.789-.513,4.981.921.136.166.242.287.317.392a4.88,4.88,0,0,0,2.6.347h2.717l.06.03c.166.091,1.615.906,1.841,1.947a1.3,1.3,0,0,1-.242,1.087l-.091.121h-.151l-7.773.106Zm.3-.3,6.324-.091-6.324.091Zm7.532-.211a.047.047,0,0,1-.015.03h0s.015,0,.03-.03Zm0,0Zm-17.554-.785.075-.045Zm15.954-1.691h.075a4.973,4.973,0,0,1,1.449,1.283,4.861,4.861,0,0,0-1.494-1.283H69.161a5.14,5.14,0,0,1-2.626-.332l.03.03h.091a4.59,4.59,0,0,0,2.491.287h2.581Zm-5.751-.574a2.051,2.051,0,0,0,.483.392l.045-.091-.528-.3Zm-.121-.423.015.015h0a.047.047,0,0,1-.03-.015Zm-4.543-.679h0c.075,0,.211-.03.377-.045A3.16,3.16,0,0,0,61.327,64.149Z" transform="translate(-55.38 -63.767)" fill="url(#linear-gradient-6)"/>
      </g>
      <g id="Group_4296" data-name="Group 4296" transform="translate(14.067 0.001)">
        <path id="Path_25372" data-name="Path 25372" d="M68.668,67.883a6.17,6.17,0,0,1-6.1-5.313h0a6.165,6.165,0,1,1,6.958,5.253A5.5,5.5,0,0,1,68.668,67.883Zm-5.8-5.358a5.86,5.86,0,1,0,5-6.611,5.857,5.857,0,0,0-5,6.611h0Z" transform="translate(-62.358 -55.401)" fill="url(#linear-gradient-7)"/>
        <path id="Path_25373" data-name="Path 25373" d="M68.72,68.084a6.317,6.317,0,1,1,3.8-11.366A6.317,6.317,0,0,1,69.6,68.023,5.694,5.694,0,0,1,68.72,68.084Zm1.66-.528a5.207,5.207,0,0,1-.815.166c-.06,0-.121.015-.181.015a.735.735,0,0,0,.181-.015A6.482,6.482,0,0,0,70.38,67.555Zm-7.306-5A5.714,5.714,0,0,0,74.4,60.989a5.714,5.714,0,1,0-11.321,1.57h0Zm5.645-6.807a6.038,6.038,0,0,1,5.962,5.177,5.875,5.875,0,0,1-.257,2.762,5.894,5.894,0,0,0,.257-2.762,5.975,5.975,0,0,0-2.34-3.97A5.876,5.876,0,0,0,67.9,55.812a5.36,5.36,0,0,0-.709.136,5.36,5.36,0,0,1,.709-.136,7.676,7.676,0,0,1,.83-.06ZM63.1,59.646a6.017,6.017,0,0,0-.332,2.943,1.36,1.36,0,0,0,.045.242,1.36,1.36,0,0,0-.045-.242h0A6.2,6.2,0,0,1,63.1,59.646Z" transform="translate(-62.409 -55.451)" fill="url(#linear-gradient-8)"/>
      </g>
      <path id="Path_25374" data-name="Path 25374" d="M67.678,64.182a2.184,2.184,0,0,1-1.374-.528,3.817,3.817,0,0,1-.423-5.54,2.685,2.685,0,0,1,3.457,0l-.181.242a2.409,2.409,0,0,0-3.049,0,3.479,3.479,0,0,0,.423,5.1A1.873,1.873,0,0,0,67.8,63.9a1.95,1.95,0,0,0,1.343-.785l.226.2a2.208,2.208,0,0,1-1.555.891h-.121Z" transform="translate(-47.09 -54.431)" fill="url(#linear-gradient-9)"/>
      <rect id="Rectangle_2194" data-name="Rectangle 2194" width="4.558" height="0.302" transform="translate(17.026 6.792)" fill="url(#linear-gradient-10)"/>
      <rect id="Rectangle_2195" data-name="Rectangle 2195" width="4.558" height="0.302" transform="translate(17.026 5.494)" fill="url(#linear-gradient-10)"/>
    </g>
    <g id="Group_5342" data-name="Group 5342" transform="translate(61 1933.998)">
      <g id="Group_4293-2" data-name="Group 4293" transform="translate(0 15.004)">
        <path id="Path_25366-2" data-name="Path 25366" d="M59.549,74.863l-.226-.2,1.8-1.977-5.1-6.717-2.566,1.449L53.3,67.15l2.792-1.57L61.511,72.7Z" transform="translate(-52.983 -65.293)" fill="url(#linear-gradient)"/>
        <path id="Path_25367-2" data-name="Path 25367" d="M59.671,75.277l-.558-.5,1.826-2.008-4.875-6.4-2.6,1.449-.377-.649,3.17-1.781.121.151,5.54,7.275Z" transform="translate(-53.09 -65.39)" fill="url(#linear-gradient-2)"/>
      </g>
      <g id="Group_4294-2" data-name="Group 4294" transform="translate(7.426 12.542)">
        <path id="Path_25368-2" data-name="Path 25368" d="M58.241,72.776l-.091-.287,1.057-.347H71.116l8.83-6.792a1.452,1.452,0,0,0-.634-1.011,2.226,2.226,0,0,0-2.008.181l-4.815,2.808-.151-.257,4.83-2.823a2.479,2.479,0,0,1,2.294-.166,1.878,1.878,0,0,1,.8,1.328v.075l-.06.045-8.981,6.913H59.237l-.981.332Z" transform="translate(-57.939 -63.703)" fill="url(#linear-gradient-3)"/>
        <path id="Path_25369-2" data-name="Path 25369" d="M58.206,73.013l-.2-.574,1.238-.408H71.112l8.724-6.7a1.288,1.288,0,0,0-.543-.815,2.138,2.138,0,0,0-1.872.181l-4.936,2.883-.3-.528,4.966-2.9a2.682,2.682,0,0,1,2.46-.166,2,2,0,0,1,.875,1.449V65.6l-.121.106-9.026,6.943H59.323l-1.1.377Zm1.087-.664H71.232l6.4-4.936-6.4,4.936Zm20.015-8.166s.091.045.136.075a1.634,1.634,0,0,1,.709,1.117v.03a1.632,1.632,0,0,0-.709-1.147c-.045-.03-.091-.045-.136-.075Z" transform="translate(-58.01 -63.759)" fill="url(#linear-gradient-4)"/>
      </g>
      <g id="Group_4295-2" data-name="Group 4295" transform="translate(3.457 12.553)">
        <path id="Path_25370-2" data-name="Path 25370" d="M65.583,68.616v-.3l7.547-.106a.779.779,0,0,0,.121-.649c-.181-.8-1.374-1.509-1.585-1.63H69.115a5.012,5.012,0,0,1-2.566-.287c0,.015-.03.03-.045.06-.106.106-.211.06-.679-.392l-.845-.815.74.408c-1.057-1.042-4.106-.709-4.438-.664l-5.6,3.426-.151-.257,5.69-3.457c.151-.015,3.713-.5,4.845.875.151.181.257.317.332.423a5.066,5.066,0,0,0,2.717.377h2.657l.03.015c.06.03,1.54.83,1.766,1.841a1.134,1.134,0,0,1-.211.951l-.045.06h-.075l-7.623.106Z" transform="translate(-55.304 -63.72)" fill="url(#linear-gradient-5)"/>
        <path id="Path_25371-2" data-name="Path 25371" d="M65.508,68.813v-.6l7.607-.106a.632.632,0,0,0,.06-.468c-.151-.709-1.238-1.374-1.479-1.509H69.191a5.111,5.111,0,0,1-2.521-.257c-.241.211-.5-.03-.875-.392l-.875-.845a9.511,9.511,0,0,0-3.517-.181L55.7,67.938l-.317-.513,5.872-3.562c.151-.015,3.789-.513,4.981.921.136.166.242.287.317.392a4.88,4.88,0,0,0,2.6.347h2.717l.06.03c.166.091,1.615.906,1.841,1.947a1.3,1.3,0,0,1-.242,1.087l-.091.121h-.151l-7.773.106Zm.3-.3,6.324-.091-6.324.091Zm7.532-.211a.047.047,0,0,1-.015.03h0s.015,0,.03-.03Zm0,0Zm-17.554-.785.075-.045Zm15.954-1.691h.075a4.973,4.973,0,0,1,1.449,1.283,4.861,4.861,0,0,0-1.494-1.283H69.161a5.14,5.14,0,0,1-2.626-.332l.03.03h.091a4.59,4.59,0,0,0,2.491.287h2.581Zm-5.751-.574a2.051,2.051,0,0,0,.483.392l.045-.091-.528-.3Zm-.121-.423.015.015h0a.047.047,0,0,1-.03-.015Zm-4.543-.679h0c.075,0,.211-.03.377-.045A3.16,3.16,0,0,0,61.327,64.149Z" transform="translate(-55.38 -63.767)" fill="url(#linear-gradient-6)"/>
      </g>
      <g id="Group_4296-2" data-name="Group 4296" transform="translate(14.067 0.001)">
        <path id="Path_25372-2" data-name="Path 25372" d="M68.668,67.883a6.17,6.17,0,0,1-6.1-5.313h0a6.165,6.165,0,1,1,6.958,5.253A5.5,5.5,0,0,1,68.668,67.883Zm-5.8-5.358a5.86,5.86,0,1,0,5-6.611,5.857,5.857,0,0,0-5,6.611h0Z" transform="translate(-62.358 -55.401)" fill="url(#linear-gradient-7)"/>
        <path id="Path_25373-2" data-name="Path 25373" d="M68.72,68.084a6.317,6.317,0,1,1,3.8-11.366A6.317,6.317,0,0,1,69.6,68.023,5.694,5.694,0,0,1,68.72,68.084Zm1.66-.528a5.207,5.207,0,0,1-.815.166c-.06,0-.121.015-.181.015a.735.735,0,0,0,.181-.015A6.482,6.482,0,0,0,70.38,67.555Zm-7.306-5A5.714,5.714,0,0,0,74.4,60.989a5.714,5.714,0,1,0-11.321,1.57h0Zm5.645-6.807a6.038,6.038,0,0,1,5.962,5.177,5.875,5.875,0,0,1-.257,2.762,5.894,5.894,0,0,0,.257-2.762,5.975,5.975,0,0,0-2.34-3.97A5.876,5.876,0,0,0,67.9,55.812a5.36,5.36,0,0,0-.709.136,5.36,5.36,0,0,1,.709-.136,7.676,7.676,0,0,1,.83-.06ZM63.1,59.646a6.017,6.017,0,0,0-.332,2.943,1.36,1.36,0,0,0,.045.242,1.36,1.36,0,0,0-.045-.242h0A6.2,6.2,0,0,1,63.1,59.646Z" transform="translate(-62.409 -55.451)" fill="url(#linear-gradient-8)"/>
      </g>
      <path id="Path_25374-2" data-name="Path 25374" d="M67.678,64.182a2.184,2.184,0,0,1-1.374-.528,3.817,3.817,0,0,1-.423-5.54,2.685,2.685,0,0,1,3.457,0l-.181.242a2.409,2.409,0,0,0-3.049,0,3.479,3.479,0,0,0,.423,5.1A1.873,1.873,0,0,0,67.8,63.9a1.95,1.95,0,0,0,1.343-.785l.226.2a2.208,2.208,0,0,1-1.555.891h-.121Z" transform="translate(-47.09 -54.431)" fill="url(#linear-gradient-9)"/>
      <rect id="Rectangle_2194-2" data-name="Rectangle 2194" width="4.558" height="0.302" transform="translate(17.026 6.792)" fill="url(#linear-gradient-10)"/>
      <rect id="Rectangle_2195-2" data-name="Rectangle 2195" width="4.558" height="0.302" transform="translate(17.026 5.494)" fill="url(#linear-gradient-10)"/>
    </g>
    <g id="Group_5343" data-name="Group 5343" transform="translate(61 1933.998)">
      <g id="Group_4293-3" data-name="Group 4293" transform="translate(0 15.004)">
        <path id="Path_25366-3" data-name="Path 25366" d="M59.549,74.863l-.226-.2,1.8-1.977-5.1-6.717-2.566,1.449L53.3,67.15l2.792-1.57L61.511,72.7Z" transform="translate(-52.983 -65.293)" fill="url(#linear-gradient)"/>
        <path id="Path_25367-3" data-name="Path 25367" d="M59.671,75.277l-.558-.5,1.826-2.008-4.875-6.4-2.6,1.449-.377-.649,3.17-1.781.121.151,5.54,7.275Z" transform="translate(-53.09 -65.39)" fill="url(#linear-gradient-2)"/>
      </g>
      <g id="Group_4294-3" data-name="Group 4294" transform="translate(7.426 12.542)">
        <path id="Path_25368-3" data-name="Path 25368" d="M58.241,72.776l-.091-.287,1.057-.347H71.116l8.83-6.792a1.452,1.452,0,0,0-.634-1.011,2.226,2.226,0,0,0-2.008.181l-4.815,2.808-.151-.257,4.83-2.823a2.479,2.479,0,0,1,2.294-.166,1.878,1.878,0,0,1,.8,1.328v.075l-.06.045-8.981,6.913H59.237l-.981.332Z" transform="translate(-57.939 -63.703)" fill="url(#linear-gradient-3)"/>
        <path id="Path_25369-3" data-name="Path 25369" d="M58.206,73.013l-.2-.574,1.238-.408H71.112l8.724-6.7a1.288,1.288,0,0,0-.543-.815,2.138,2.138,0,0,0-1.872.181l-4.936,2.883-.3-.528,4.966-2.9a2.682,2.682,0,0,1,2.46-.166,2,2,0,0,1,.875,1.449V65.6l-.121.106-9.026,6.943H59.323l-1.1.377Zm1.087-.664H71.232l6.4-4.936-6.4,4.936Zm20.015-8.166s.091.045.136.075a1.634,1.634,0,0,1,.709,1.117v.03a1.632,1.632,0,0,0-.709-1.147c-.045-.03-.091-.045-.136-.075Z" transform="translate(-58.01 -63.759)" fill="url(#linear-gradient-4)"/>
      </g>
      <g id="Group_4295-3" data-name="Group 4295" transform="translate(3.457 12.553)">
        <path id="Path_25370-3" data-name="Path 25370" d="M65.583,68.616v-.3l7.547-.106a.779.779,0,0,0,.121-.649c-.181-.8-1.374-1.509-1.585-1.63H69.115a5.012,5.012,0,0,1-2.566-.287c0,.015-.03.03-.045.06-.106.106-.211.06-.679-.392l-.845-.815.74.408c-1.057-1.042-4.106-.709-4.438-.664l-5.6,3.426-.151-.257,5.69-3.457c.151-.015,3.713-.5,4.845.875.151.181.257.317.332.423a5.066,5.066,0,0,0,2.717.377h2.657l.03.015c.06.03,1.54.83,1.766,1.841a1.134,1.134,0,0,1-.211.951l-.045.06h-.075l-7.623.106Z" transform="translate(-55.304 -63.72)" fill="url(#linear-gradient-5)"/>
        <path id="Path_25371-3" data-name="Path 25371" d="M65.508,68.813v-.6l7.607-.106a.632.632,0,0,0,.06-.468c-.151-.709-1.238-1.374-1.479-1.509H69.191a5.111,5.111,0,0,1-2.521-.257c-.241.211-.5-.03-.875-.392l-.875-.845a9.511,9.511,0,0,0-3.517-.181L55.7,67.938l-.317-.513,5.872-3.562c.151-.015,3.789-.513,4.981.921.136.166.242.287.317.392a4.88,4.88,0,0,0,2.6.347h2.717l.06.03c.166.091,1.615.906,1.841,1.947a1.3,1.3,0,0,1-.242,1.087l-.091.121h-.151l-7.773.106Zm.3-.3,6.324-.091-6.324.091Zm7.532-.211a.047.047,0,0,1-.015.03h0s.015,0,.03-.03Zm0,0Zm-17.554-.785.075-.045Zm15.954-1.691h.075a4.973,4.973,0,0,1,1.449,1.283,4.861,4.861,0,0,0-1.494-1.283H69.161a5.14,5.14,0,0,1-2.626-.332l.03.03h.091a4.59,4.59,0,0,0,2.491.287h2.581Zm-5.751-.574a2.051,2.051,0,0,0,.483.392l.045-.091-.528-.3Zm-.121-.423.015.015h0a.047.047,0,0,1-.03-.015Zm-4.543-.679h0c.075,0,.211-.03.377-.045A3.16,3.16,0,0,0,61.327,64.149Z" transform="translate(-55.38 -63.767)" fill="url(#linear-gradient-6)"/>
      </g>
      <g id="Group_4296-3" data-name="Group 4296" transform="translate(14.067 0.001)">
        <path id="Path_25372-3" data-name="Path 25372" d="M68.668,67.883a6.17,6.17,0,0,1-6.1-5.313h0a6.165,6.165,0,1,1,6.958,5.253A5.5,5.5,0,0,1,68.668,67.883Zm-5.8-5.358a5.86,5.86,0,1,0,5-6.611,5.857,5.857,0,0,0-5,6.611h0Z" transform="translate(-62.358 -55.401)" fill="url(#linear-gradient-7)"/>
        <path id="Path_25373-3" data-name="Path 25373" d="M68.72,68.084a6.317,6.317,0,1,1,3.8-11.366A6.317,6.317,0,0,1,69.6,68.023,5.694,5.694,0,0,1,68.72,68.084Zm1.66-.528a5.207,5.207,0,0,1-.815.166c-.06,0-.121.015-.181.015a.735.735,0,0,0,.181-.015A6.482,6.482,0,0,0,70.38,67.555Zm-7.306-5A5.714,5.714,0,0,0,74.4,60.989a5.714,5.714,0,1,0-11.321,1.57h0Zm5.645-6.807a6.038,6.038,0,0,1,5.962,5.177,5.875,5.875,0,0,1-.257,2.762,5.894,5.894,0,0,0,.257-2.762,5.975,5.975,0,0,0-2.34-3.97A5.876,5.876,0,0,0,67.9,55.812a5.36,5.36,0,0,0-.709.136,5.36,5.36,0,0,1,.709-.136,7.676,7.676,0,0,1,.83-.06ZM63.1,59.646a6.017,6.017,0,0,0-.332,2.943,1.36,1.36,0,0,0,.045.242,1.36,1.36,0,0,0-.045-.242h0A6.2,6.2,0,0,1,63.1,59.646Z" transform="translate(-62.409 -55.451)" fill="url(#linear-gradient-8)"/>
      </g>
      <path id="Path_25374-3" data-name="Path 25374" d="M67.678,64.182a2.184,2.184,0,0,1-1.374-.528,3.817,3.817,0,0,1-.423-5.54,2.685,2.685,0,0,1,3.457,0l-.181.242a2.409,2.409,0,0,0-3.049,0,3.479,3.479,0,0,0,.423,5.1A1.873,1.873,0,0,0,67.8,63.9a1.95,1.95,0,0,0,1.343-.785l.226.2a2.208,2.208,0,0,1-1.555.891h-.121Z" transform="translate(-47.09 -54.431)" fill="url(#linear-gradient-9)"/>
      <rect id="Rectangle_2194-3" data-name="Rectangle 2194" width="4.558" height="0.302" transform="translate(17.026 6.792)" fill="url(#linear-gradient-10)"/>
      <rect id="Rectangle_2195-3" data-name="Rectangle 2195" width="4.558" height="0.302" transform="translate(17.026 5.494)" fill="url(#linear-gradient-10)"/>
    </g>
    <g id="Group_5344" data-name="Group 5344" transform="translate(61 1933.998)">
      <g id="Group_4293-4" data-name="Group 4293" transform="translate(0 15.004)">
        <path id="Path_25366-4" data-name="Path 25366" d="M59.549,74.863l-.226-.2,1.8-1.977-5.1-6.717-2.566,1.449L53.3,67.15l2.792-1.57L61.511,72.7Z" transform="translate(-52.983 -65.293)" fill="url(#linear-gradient)"/>
        <path id="Path_25367-4" data-name="Path 25367" d="M59.671,75.277l-.558-.5,1.826-2.008-4.875-6.4-2.6,1.449-.377-.649,3.17-1.781.121.151,5.54,7.275Z" transform="translate(-53.09 -65.39)" fill="url(#linear-gradient-2)"/>
      </g>
      <g id="Group_4294-4" data-name="Group 4294" transform="translate(7.426 12.542)">
        <path id="Path_25368-4" data-name="Path 25368" d="M58.241,72.776l-.091-.287,1.057-.347H71.116l8.83-6.792a1.452,1.452,0,0,0-.634-1.011,2.226,2.226,0,0,0-2.008.181l-4.815,2.808-.151-.257,4.83-2.823a2.479,2.479,0,0,1,2.294-.166,1.878,1.878,0,0,1,.8,1.328v.075l-.06.045-8.981,6.913H59.237l-.981.332Z" transform="translate(-57.939 -63.703)" fill="url(#linear-gradient-3)"/>
        <path id="Path_25369-4" data-name="Path 25369" d="M58.206,73.013l-.2-.574,1.238-.408H71.112l8.724-6.7a1.288,1.288,0,0,0-.543-.815,2.138,2.138,0,0,0-1.872.181l-4.936,2.883-.3-.528,4.966-2.9a2.682,2.682,0,0,1,2.46-.166,2,2,0,0,1,.875,1.449V65.6l-.121.106-9.026,6.943H59.323l-1.1.377Zm1.087-.664H71.232l6.4-4.936-6.4,4.936Zm20.015-8.166s.091.045.136.075a1.634,1.634,0,0,1,.709,1.117v.03a1.632,1.632,0,0,0-.709-1.147c-.045-.03-.091-.045-.136-.075Z" transform="translate(-58.01 -63.759)" fill="url(#linear-gradient-4)"/>
      </g>
      <g id="Group_4295-4" data-name="Group 4295" transform="translate(3.457 12.553)">
        <path id="Path_25370-4" data-name="Path 25370" d="M65.583,68.616v-.3l7.547-.106a.779.779,0,0,0,.121-.649c-.181-.8-1.374-1.509-1.585-1.63H69.115a5.012,5.012,0,0,1-2.566-.287c0,.015-.03.03-.045.06-.106.106-.211.06-.679-.392l-.845-.815.74.408c-1.057-1.042-4.106-.709-4.438-.664l-5.6,3.426-.151-.257,5.69-3.457c.151-.015,3.713-.5,4.845.875.151.181.257.317.332.423a5.066,5.066,0,0,0,2.717.377h2.657l.03.015c.06.03,1.54.83,1.766,1.841a1.134,1.134,0,0,1-.211.951l-.045.06h-.075l-7.623.106Z" transform="translate(-55.304 -63.72)" fill="url(#linear-gradient-5)"/>
        <path id="Path_25371-4" data-name="Path 25371" d="M65.508,68.813v-.6l7.607-.106a.632.632,0,0,0,.06-.468c-.151-.709-1.238-1.374-1.479-1.509H69.191a5.111,5.111,0,0,1-2.521-.257c-.241.211-.5-.03-.875-.392l-.875-.845a9.511,9.511,0,0,0-3.517-.181L55.7,67.938l-.317-.513,5.872-3.562c.151-.015,3.789-.513,4.981.921.136.166.242.287.317.392a4.88,4.88,0,0,0,2.6.347h2.717l.06.03c.166.091,1.615.906,1.841,1.947a1.3,1.3,0,0,1-.242,1.087l-.091.121h-.151l-7.773.106Zm.3-.3,6.324-.091-6.324.091Zm7.532-.211a.047.047,0,0,1-.015.03h0s.015,0,.03-.03Zm0,0Zm-17.554-.785.075-.045Zm15.954-1.691h.075a4.973,4.973,0,0,1,1.449,1.283,4.861,4.861,0,0,0-1.494-1.283H69.161a5.14,5.14,0,0,1-2.626-.332l.03.03h.091a4.59,4.59,0,0,0,2.491.287h2.581Zm-5.751-.574a2.051,2.051,0,0,0,.483.392l.045-.091-.528-.3Zm-.121-.423.015.015h0a.047.047,0,0,1-.03-.015Zm-4.543-.679h0c.075,0,.211-.03.377-.045A3.16,3.16,0,0,0,61.327,64.149Z" transform="translate(-55.38 -63.767)" fill="url(#linear-gradient-6)"/>
      </g>
      <g id="Group_4296-4" data-name="Group 4296" transform="translate(14.067 0.001)">
        <path id="Path_25372-4" data-name="Path 25372" d="M68.668,67.883a6.17,6.17,0,0,1-6.1-5.313h0a6.165,6.165,0,1,1,6.958,5.253A5.5,5.5,0,0,1,68.668,67.883Zm-5.8-5.358a5.86,5.86,0,1,0,5-6.611,5.857,5.857,0,0,0-5,6.611h0Z" transform="translate(-62.358 -55.401)" fill="url(#linear-gradient-7)"/>
        <path id="Path_25373-4" data-name="Path 25373" d="M68.72,68.084a6.317,6.317,0,1,1,3.8-11.366A6.317,6.317,0,0,1,69.6,68.023,5.694,5.694,0,0,1,68.72,68.084Zm1.66-.528a5.207,5.207,0,0,1-.815.166c-.06,0-.121.015-.181.015a.735.735,0,0,0,.181-.015A6.482,6.482,0,0,0,70.38,67.555Zm-7.306-5A5.714,5.714,0,0,0,74.4,60.989a5.714,5.714,0,1,0-11.321,1.57h0Zm5.645-6.807a6.038,6.038,0,0,1,5.962,5.177,5.875,5.875,0,0,1-.257,2.762,5.894,5.894,0,0,0,.257-2.762,5.975,5.975,0,0,0-2.34-3.97A5.876,5.876,0,0,0,67.9,55.812a5.36,5.36,0,0,0-.709.136,5.36,5.36,0,0,1,.709-.136,7.676,7.676,0,0,1,.83-.06ZM63.1,59.646a6.017,6.017,0,0,0-.332,2.943,1.36,1.36,0,0,0,.045.242,1.36,1.36,0,0,0-.045-.242h0A6.2,6.2,0,0,1,63.1,59.646Z" transform="translate(-62.409 -55.451)" fill="url(#linear-gradient-8)"/>
      </g>
      <path id="Path_25374-4" data-name="Path 25374" d="M67.678,64.182a2.184,2.184,0,0,1-1.374-.528,3.817,3.817,0,0,1-.423-5.54,2.685,2.685,0,0,1,3.457,0l-.181.242a2.409,2.409,0,0,0-3.049,0,3.479,3.479,0,0,0,.423,5.1A1.873,1.873,0,0,0,67.8,63.9a1.95,1.95,0,0,0,1.343-.785l.226.2a2.208,2.208,0,0,1-1.555.891h-.121Z" transform="translate(-47.09 -54.431)" fill="url(#linear-gradient-9)"/>
      <rect id="Rectangle_2194-4" data-name="Rectangle 2194" width="4.558" height="0.302" transform="translate(17.026 6.792)" fill="url(#linear-gradient-10)"/>
      <rect id="Rectangle_2195-4" data-name="Rectangle 2195" width="4.558" height="0.302" transform="translate(17.026 5.494)" fill="url(#linear-gradient-10)"/>
    </g>
    <g id="Group_5345" data-name="Group 5345" transform="translate(61 1933.998)">
      <g id="Group_4293-5" data-name="Group 4293" transform="translate(0 15.004)">
        <path id="Path_25366-5" data-name="Path 25366" d="M59.549,74.863l-.226-.2,1.8-1.977-5.1-6.717-2.566,1.449L53.3,67.15l2.792-1.57L61.511,72.7Z" transform="translate(-52.983 -65.293)" fill="url(#linear-gradient)"/>
        <path id="Path_25367-5" data-name="Path 25367" d="M59.671,75.277l-.558-.5,1.826-2.008-4.875-6.4-2.6,1.449-.377-.649,3.17-1.781.121.151,5.54,7.275Z" transform="translate(-53.09 -65.39)" fill="url(#linear-gradient-2)"/>
      </g>
      <g id="Group_4294-5" data-name="Group 4294" transform="translate(7.426 12.542)">
        <path id="Path_25368-5" data-name="Path 25368" d="M58.241,72.776l-.091-.287,1.057-.347H71.116l8.83-6.792a1.452,1.452,0,0,0-.634-1.011,2.226,2.226,0,0,0-2.008.181l-4.815,2.808-.151-.257,4.83-2.823a2.479,2.479,0,0,1,2.294-.166,1.878,1.878,0,0,1,.8,1.328v.075l-.06.045-8.981,6.913H59.237l-.981.332Z" transform="translate(-57.939 -63.703)" fill="url(#linear-gradient-3)"/>
        <path id="Path_25369-5" data-name="Path 25369" d="M58.206,73.013l-.2-.574,1.238-.408H71.112l8.724-6.7a1.288,1.288,0,0,0-.543-.815,2.138,2.138,0,0,0-1.872.181l-4.936,2.883-.3-.528,4.966-2.9a2.682,2.682,0,0,1,2.46-.166,2,2,0,0,1,.875,1.449V65.6l-.121.106-9.026,6.943H59.323l-1.1.377Zm1.087-.664H71.232l6.4-4.936-6.4,4.936Zm20.015-8.166s.091.045.136.075a1.634,1.634,0,0,1,.709,1.117v.03a1.632,1.632,0,0,0-.709-1.147c-.045-.03-.091-.045-.136-.075Z" transform="translate(-58.01 -63.759)" fill="url(#linear-gradient-4)"/>
      </g>
      <g id="Group_4295-5" data-name="Group 4295" transform="translate(3.457 12.553)">
        <path id="Path_25370-5" data-name="Path 25370" d="M65.583,68.616v-.3l7.547-.106a.779.779,0,0,0,.121-.649c-.181-.8-1.374-1.509-1.585-1.63H69.115a5.012,5.012,0,0,1-2.566-.287c0,.015-.03.03-.045.06-.106.106-.211.06-.679-.392l-.845-.815.74.408c-1.057-1.042-4.106-.709-4.438-.664l-5.6,3.426-.151-.257,5.69-3.457c.151-.015,3.713-.5,4.845.875.151.181.257.317.332.423a5.066,5.066,0,0,0,2.717.377h2.657l.03.015c.06.03,1.54.83,1.766,1.841a1.134,1.134,0,0,1-.211.951l-.045.06h-.075l-7.623.106Z" transform="translate(-55.304 -63.72)" fill="url(#linear-gradient-5)"/>
        <path id="Path_25371-5" data-name="Path 25371" d="M65.508,68.813v-.6l7.607-.106a.632.632,0,0,0,.06-.468c-.151-.709-1.238-1.374-1.479-1.509H69.191a5.111,5.111,0,0,1-2.521-.257c-.241.211-.5-.03-.875-.392l-.875-.845a9.511,9.511,0,0,0-3.517-.181L55.7,67.938l-.317-.513,5.872-3.562c.151-.015,3.789-.513,4.981.921.136.166.242.287.317.392a4.88,4.88,0,0,0,2.6.347h2.717l.06.03c.166.091,1.615.906,1.841,1.947a1.3,1.3,0,0,1-.242,1.087l-.091.121h-.151l-7.773.106Zm.3-.3,6.324-.091-6.324.091Zm7.532-.211a.047.047,0,0,1-.015.03h0s.015,0,.03-.03Zm0,0Zm-17.554-.785.075-.045Zm15.954-1.691h.075a4.973,4.973,0,0,1,1.449,1.283,4.861,4.861,0,0,0-1.494-1.283H69.161a5.14,5.14,0,0,1-2.626-.332l.03.03h.091a4.59,4.59,0,0,0,2.491.287h2.581Zm-5.751-.574a2.051,2.051,0,0,0,.483.392l.045-.091-.528-.3Zm-.121-.423.015.015h0a.047.047,0,0,1-.03-.015Zm-4.543-.679h0c.075,0,.211-.03.377-.045A3.16,3.16,0,0,0,61.327,64.149Z" transform="translate(-55.38 -63.767)" fill="url(#linear-gradient-6)"/>
      </g>
      <g id="Group_4296-5" data-name="Group 4296" transform="translate(14.067 0.001)">
        <path id="Path_25372-5" data-name="Path 25372" d="M68.668,67.883a6.17,6.17,0,0,1-6.1-5.313h0a6.165,6.165,0,1,1,6.958,5.253A5.5,5.5,0,0,1,68.668,67.883Zm-5.8-5.358a5.86,5.86,0,1,0,5-6.611,5.857,5.857,0,0,0-5,6.611h0Z" transform="translate(-62.358 -55.401)" fill="url(#linear-gradient-7)"/>
        <path id="Path_25373-5" data-name="Path 25373" d="M68.72,68.084a6.317,6.317,0,1,1,3.8-11.366A6.317,6.317,0,0,1,69.6,68.023,5.694,5.694,0,0,1,68.72,68.084Zm1.66-.528a5.207,5.207,0,0,1-.815.166c-.06,0-.121.015-.181.015a.735.735,0,0,0,.181-.015A6.482,6.482,0,0,0,70.38,67.555Zm-7.306-5A5.714,5.714,0,0,0,74.4,60.989a5.714,5.714,0,1,0-11.321,1.57h0Zm5.645-6.807a6.038,6.038,0,0,1,5.962,5.177,5.875,5.875,0,0,1-.257,2.762,5.894,5.894,0,0,0,.257-2.762,5.975,5.975,0,0,0-2.34-3.97A5.876,5.876,0,0,0,67.9,55.812a5.36,5.36,0,0,0-.709.136,5.36,5.36,0,0,1,.709-.136,7.676,7.676,0,0,1,.83-.06ZM63.1,59.646a6.017,6.017,0,0,0-.332,2.943,1.36,1.36,0,0,0,.045.242,1.36,1.36,0,0,0-.045-.242h0A6.2,6.2,0,0,1,63.1,59.646Z" transform="translate(-62.409 -55.451)" fill="url(#linear-gradient-8)"/>
      </g>
      <path id="Path_25374-5" data-name="Path 25374" d="M67.678,64.182a2.184,2.184,0,0,1-1.374-.528,3.817,3.817,0,0,1-.423-5.54,2.685,2.685,0,0,1,3.457,0l-.181.242a2.409,2.409,0,0,0-3.049,0,3.479,3.479,0,0,0,.423,5.1A1.873,1.873,0,0,0,67.8,63.9a1.95,1.95,0,0,0,1.343-.785l.226.2a2.208,2.208,0,0,1-1.555.891h-.121Z" transform="translate(-47.09 -54.431)" fill="url(#linear-gradient-9)"/>
      <rect id="Rectangle_2194-5" data-name="Rectangle 2194" width="4.558" height="0.302" transform="translate(17.026 6.792)" fill="url(#linear-gradient-10)"/>
      <rect id="Rectangle_2195-5" data-name="Rectangle 2195" width="4.558" height="0.302" transform="translate(17.026 5.494)" fill="url(#linear-gradient-10)"/>
    </g>
    <g id="Group_5346" data-name="Group 5346" transform="translate(61 1933.998)">
      <g id="Group_4293-6" data-name="Group 4293" transform="translate(0 15.004)">
        <path id="Path_25366-6" data-name="Path 25366" d="M59.549,74.863l-.226-.2,1.8-1.977-5.1-6.717-2.566,1.449L53.3,67.15l2.792-1.57L61.511,72.7Z" transform="translate(-52.983 -65.293)" fill="url(#linear-gradient)"/>
        <path id="Path_25367-6" data-name="Path 25367" d="M59.671,75.277l-.558-.5,1.826-2.008-4.875-6.4-2.6,1.449-.377-.649,3.17-1.781.121.151,5.54,7.275Z" transform="translate(-53.09 -65.39)" fill="url(#linear-gradient-2)"/>
      </g>
      <g id="Group_4294-6" data-name="Group 4294" transform="translate(7.426 12.542)">
        <path id="Path_25368-6" data-name="Path 25368" d="M58.241,72.776l-.091-.287,1.057-.347H71.116l8.83-6.792a1.452,1.452,0,0,0-.634-1.011,2.226,2.226,0,0,0-2.008.181l-4.815,2.808-.151-.257,4.83-2.823a2.479,2.479,0,0,1,2.294-.166,1.878,1.878,0,0,1,.8,1.328v.075l-.06.045-8.981,6.913H59.237l-.981.332Z" transform="translate(-57.939 -63.703)" fill="url(#linear-gradient-3)"/>
        <path id="Path_25369-6" data-name="Path 25369" d="M58.206,73.013l-.2-.574,1.238-.408H71.112l8.724-6.7a1.288,1.288,0,0,0-.543-.815,2.138,2.138,0,0,0-1.872.181l-4.936,2.883-.3-.528,4.966-2.9a2.682,2.682,0,0,1,2.46-.166,2,2,0,0,1,.875,1.449V65.6l-.121.106-9.026,6.943H59.323l-1.1.377Zm1.087-.664H71.232l6.4-4.936-6.4,4.936Zm20.015-8.166s.091.045.136.075a1.634,1.634,0,0,1,.709,1.117v.03a1.632,1.632,0,0,0-.709-1.147c-.045-.03-.091-.045-.136-.075Z" transform="translate(-58.01 -63.759)" fill="url(#linear-gradient-4)"/>
      </g>
      <g id="Group_4295-6" data-name="Group 4295" transform="translate(3.457 12.553)">
        <path id="Path_25370-6" data-name="Path 25370" d="M65.583,68.616v-.3l7.547-.106a.779.779,0,0,0,.121-.649c-.181-.8-1.374-1.509-1.585-1.63H69.115a5.012,5.012,0,0,1-2.566-.287c0,.015-.03.03-.045.06-.106.106-.211.06-.679-.392l-.845-.815.74.408c-1.057-1.042-4.106-.709-4.438-.664l-5.6,3.426-.151-.257,5.69-3.457c.151-.015,3.713-.5,4.845.875.151.181.257.317.332.423a5.066,5.066,0,0,0,2.717.377h2.657l.03.015c.06.03,1.54.83,1.766,1.841a1.134,1.134,0,0,1-.211.951l-.045.06h-.075l-7.623.106Z" transform="translate(-55.304 -63.72)" fill="url(#linear-gradient-5)"/>
        <path id="Path_25371-6" data-name="Path 25371" d="M65.508,68.813v-.6l7.607-.106a.632.632,0,0,0,.06-.468c-.151-.709-1.238-1.374-1.479-1.509H69.191a5.111,5.111,0,0,1-2.521-.257c-.241.211-.5-.03-.875-.392l-.875-.845a9.511,9.511,0,0,0-3.517-.181L55.7,67.938l-.317-.513,5.872-3.562c.151-.015,3.789-.513,4.981.921.136.166.242.287.317.392a4.88,4.88,0,0,0,2.6.347h2.717l.06.03c.166.091,1.615.906,1.841,1.947a1.3,1.3,0,0,1-.242,1.087l-.091.121h-.151l-7.773.106Zm.3-.3,6.324-.091-6.324.091Zm7.532-.211a.047.047,0,0,1-.015.03h0s.015,0,.03-.03Zm0,0Zm-17.554-.785.075-.045Zm15.954-1.691h.075a4.973,4.973,0,0,1,1.449,1.283,4.861,4.861,0,0,0-1.494-1.283H69.161a5.14,5.14,0,0,1-2.626-.332l.03.03h.091a4.59,4.59,0,0,0,2.491.287h2.581Zm-5.751-.574a2.051,2.051,0,0,0,.483.392l.045-.091-.528-.3Zm-.121-.423.015.015h0a.047.047,0,0,1-.03-.015Zm-4.543-.679h0c.075,0,.211-.03.377-.045A3.16,3.16,0,0,0,61.327,64.149Z" transform="translate(-55.38 -63.767)" fill="url(#linear-gradient-6)"/>
      </g>
      <g id="Group_4296-6" data-name="Group 4296" transform="translate(14.067 0.001)">
        <path id="Path_25372-6" data-name="Path 25372" d="M68.668,67.883a6.17,6.17,0,0,1-6.1-5.313h0a6.165,6.165,0,1,1,6.958,5.253A5.5,5.5,0,0,1,68.668,67.883Zm-5.8-5.358a5.86,5.86,0,1,0,5-6.611,5.857,5.857,0,0,0-5,6.611h0Z" transform="translate(-62.358 -55.401)" fill="url(#linear-gradient-7)"/>
        <path id="Path_25373-6" data-name="Path 25373" d="M68.72,68.084a6.317,6.317,0,1,1,3.8-11.366A6.317,6.317,0,0,1,69.6,68.023,5.694,5.694,0,0,1,68.72,68.084Zm1.66-.528a5.207,5.207,0,0,1-.815.166c-.06,0-.121.015-.181.015a.735.735,0,0,0,.181-.015A6.482,6.482,0,0,0,70.38,67.555Zm-7.306-5A5.714,5.714,0,0,0,74.4,60.989a5.714,5.714,0,1,0-11.321,1.57h0Zm5.645-6.807a6.038,6.038,0,0,1,5.962,5.177,5.875,5.875,0,0,1-.257,2.762,5.894,5.894,0,0,0,.257-2.762,5.975,5.975,0,0,0-2.34-3.97A5.876,5.876,0,0,0,67.9,55.812a5.36,5.36,0,0,0-.709.136,5.36,5.36,0,0,1,.709-.136,7.676,7.676,0,0,1,.83-.06ZM63.1,59.646a6.017,6.017,0,0,0-.332,2.943,1.36,1.36,0,0,0,.045.242,1.36,1.36,0,0,0-.045-.242h0A6.2,6.2,0,0,1,63.1,59.646Z" transform="translate(-62.409 -55.451)" fill="url(#linear-gradient-8)"/>
      </g>
      <path id="Path_25374-6" data-name="Path 25374" d="M67.678,64.182a2.184,2.184,0,0,1-1.374-.528,3.817,3.817,0,0,1-.423-5.54,2.685,2.685,0,0,1,3.457,0l-.181.242a2.409,2.409,0,0,0-3.049,0,3.479,3.479,0,0,0,.423,5.1A1.873,1.873,0,0,0,67.8,63.9a1.95,1.95,0,0,0,1.343-.785l.226.2a2.208,2.208,0,0,1-1.555.891h-.121Z" transform="translate(-47.09 -54.431)" fill="url(#linear-gradient-9)"/>
      <rect id="Rectangle_2194-6" data-name="Rectangle 2194" width="4.558" height="0.302" transform="translate(17.026 6.792)" fill="url(#linear-gradient-10)"/>
      <rect id="Rectangle_2195-6" data-name="Rectangle 2195" width="4.558" height="0.302" transform="translate(17.026 5.494)" fill="url(#linear-gradient-10)"/>
    </g>
    <g id="Group_5347" data-name="Group 5347" transform="translate(61 1933.998)">
      <g id="Group_4293-7" data-name="Group 4293" transform="translate(0 15.004)">
        <path id="Path_25366-7" data-name="Path 25366" d="M59.549,74.863l-.226-.2,1.8-1.977-5.1-6.717-2.566,1.449L53.3,67.15l2.792-1.57L61.511,72.7Z" transform="translate(-52.983 -65.293)" fill="url(#linear-gradient)"/>
        <path id="Path_25367-7" data-name="Path 25367" d="M59.671,75.277l-.558-.5,1.826-2.008-4.875-6.4-2.6,1.449-.377-.649,3.17-1.781.121.151,5.54,7.275Z" transform="translate(-53.09 -65.39)" fill="url(#linear-gradient-2)"/>
      </g>
      <g id="Group_4294-7" data-name="Group 4294" transform="translate(7.426 12.542)">
        <path id="Path_25368-7" data-name="Path 25368" d="M58.241,72.776l-.091-.287,1.057-.347H71.116l8.83-6.792a1.452,1.452,0,0,0-.634-1.011,2.226,2.226,0,0,0-2.008.181l-4.815,2.808-.151-.257,4.83-2.823a2.479,2.479,0,0,1,2.294-.166,1.878,1.878,0,0,1,.8,1.328v.075l-.06.045-8.981,6.913H59.237l-.981.332Z" transform="translate(-57.939 -63.703)" fill="url(#linear-gradient-3)"/>
        <path id="Path_25369-7" data-name="Path 25369" d="M58.206,73.013l-.2-.574,1.238-.408H71.112l8.724-6.7a1.288,1.288,0,0,0-.543-.815,2.138,2.138,0,0,0-1.872.181l-4.936,2.883-.3-.528,4.966-2.9a2.682,2.682,0,0,1,2.46-.166,2,2,0,0,1,.875,1.449V65.6l-.121.106-9.026,6.943H59.323l-1.1.377Zm1.087-.664H71.232l6.4-4.936-6.4,4.936Zm20.015-8.166s.091.045.136.075a1.634,1.634,0,0,1,.709,1.117v.03a1.632,1.632,0,0,0-.709-1.147c-.045-.03-.091-.045-.136-.075Z" transform="translate(-58.01 -63.759)" fill="url(#linear-gradient-4)"/>
      </g>
      <g id="Group_4295-7" data-name="Group 4295" transform="translate(3.457 12.553)">
        <path id="Path_25370-7" data-name="Path 25370" d="M65.583,68.616v-.3l7.547-.106a.779.779,0,0,0,.121-.649c-.181-.8-1.374-1.509-1.585-1.63H69.115a5.012,5.012,0,0,1-2.566-.287c0,.015-.03.03-.045.06-.106.106-.211.06-.679-.392l-.845-.815.74.408c-1.057-1.042-4.106-.709-4.438-.664l-5.6,3.426-.151-.257,5.69-3.457c.151-.015,3.713-.5,4.845.875.151.181.257.317.332.423a5.066,5.066,0,0,0,2.717.377h2.657l.03.015c.06.03,1.54.83,1.766,1.841a1.134,1.134,0,0,1-.211.951l-.045.06h-.075l-7.623.106Z" transform="translate(-55.304 -63.72)" fill="url(#linear-gradient-5)"/>
        <path id="Path_25371-7" data-name="Path 25371" d="M65.508,68.813v-.6l7.607-.106a.632.632,0,0,0,.06-.468c-.151-.709-1.238-1.374-1.479-1.509H69.191a5.111,5.111,0,0,1-2.521-.257c-.241.211-.5-.03-.875-.392l-.875-.845a9.511,9.511,0,0,0-3.517-.181L55.7,67.938l-.317-.513,5.872-3.562c.151-.015,3.789-.513,4.981.921.136.166.242.287.317.392a4.88,4.88,0,0,0,2.6.347h2.717l.06.03c.166.091,1.615.906,1.841,1.947a1.3,1.3,0,0,1-.242,1.087l-.091.121h-.151l-7.773.106Zm.3-.3,6.324-.091-6.324.091Zm7.532-.211a.047.047,0,0,1-.015.03h0s.015,0,.03-.03Zm0,0Zm-17.554-.785.075-.045Zm15.954-1.691h.075a4.973,4.973,0,0,1,1.449,1.283,4.861,4.861,0,0,0-1.494-1.283H69.161a5.14,5.14,0,0,1-2.626-.332l.03.03h.091a4.59,4.59,0,0,0,2.491.287h2.581Zm-5.751-.574a2.051,2.051,0,0,0,.483.392l.045-.091-.528-.3Zm-.121-.423.015.015h0a.047.047,0,0,1-.03-.015Zm-4.543-.679h0c.075,0,.211-.03.377-.045A3.16,3.16,0,0,0,61.327,64.149Z" transform="translate(-55.38 -63.767)" fill="url(#linear-gradient-6)"/>
      </g>
      <g id="Group_4296-7" data-name="Group 4296" transform="translate(14.067 0.001)">
        <path id="Path_25372-7" data-name="Path 25372" d="M68.668,67.883a6.17,6.17,0,0,1-6.1-5.313h0a6.165,6.165,0,1,1,6.958,5.253A5.5,5.5,0,0,1,68.668,67.883Zm-5.8-5.358a5.86,5.86,0,1,0,5-6.611,5.857,5.857,0,0,0-5,6.611h0Z" transform="translate(-62.358 -55.401)" fill="url(#linear-gradient-7)"/>
        <path id="Path_25373-7" data-name="Path 25373" d="M68.72,68.084a6.317,6.317,0,1,1,3.8-11.366A6.317,6.317,0,0,1,69.6,68.023,5.694,5.694,0,0,1,68.72,68.084Zm1.66-.528a5.207,5.207,0,0,1-.815.166c-.06,0-.121.015-.181.015a.735.735,0,0,0,.181-.015A6.482,6.482,0,0,0,70.38,67.555Zm-7.306-5A5.714,5.714,0,0,0,74.4,60.989a5.714,5.714,0,1,0-11.321,1.57h0Zm5.645-6.807a6.038,6.038,0,0,1,5.962,5.177,5.875,5.875,0,0,1-.257,2.762,5.894,5.894,0,0,0,.257-2.762,5.975,5.975,0,0,0-2.34-3.97A5.876,5.876,0,0,0,67.9,55.812a5.36,5.36,0,0,0-.709.136,5.36,5.36,0,0,1,.709-.136,7.676,7.676,0,0,1,.83-.06ZM63.1,59.646a6.017,6.017,0,0,0-.332,2.943,1.36,1.36,0,0,0,.045.242,1.36,1.36,0,0,0-.045-.242h0A6.2,6.2,0,0,1,63.1,59.646Z" transform="translate(-62.409 -55.451)" fill="url(#linear-gradient-8)"/>
      </g>
      <path id="Path_25374-7" data-name="Path 25374" d="M67.678,64.182a2.184,2.184,0,0,1-1.374-.528,3.817,3.817,0,0,1-.423-5.54,2.685,2.685,0,0,1,3.457,0l-.181.242a2.409,2.409,0,0,0-3.049,0,3.479,3.479,0,0,0,.423,5.1A1.873,1.873,0,0,0,67.8,63.9a1.95,1.95,0,0,0,1.343-.785l.226.2a2.208,2.208,0,0,1-1.555.891h-.121Z" transform="translate(-47.09 -54.431)" fill="url(#linear-gradient-9)"/>
      <rect id="Rectangle_2194-7" data-name="Rectangle 2194" width="4.558" height="0.302" transform="translate(17.026 6.792)" fill="url(#linear-gradient-10)"/>
      <rect id="Rectangle_2195-7" data-name="Rectangle 2195" width="4.558" height="0.302" transform="translate(17.026 5.494)" fill="url(#linear-gradient-10)"/>
    </g>
    <g id="Group_5348" data-name="Group 5348" transform="translate(61 1933.998)">
      <g id="Group_4293-8" data-name="Group 4293" transform="translate(0 15.004)">
        <path id="Path_25366-8" data-name="Path 25366" d="M59.549,74.863l-.226-.2,1.8-1.977-5.1-6.717-2.566,1.449L53.3,67.15l2.792-1.57L61.511,72.7Z" transform="translate(-52.983 -65.293)" fill="url(#linear-gradient)"/>
        <path id="Path_25367-8" data-name="Path 25367" d="M59.671,75.277l-.558-.5,1.826-2.008-4.875-6.4-2.6,1.449-.377-.649,3.17-1.781.121.151,5.54,7.275Z" transform="translate(-53.09 -65.39)" fill="url(#linear-gradient-2)"/>
      </g>
      <g id="Group_4294-8" data-name="Group 4294" transform="translate(7.426 12.542)">
        <path id="Path_25368-8" data-name="Path 25368" d="M58.241,72.776l-.091-.287,1.057-.347H71.116l8.83-6.792a1.452,1.452,0,0,0-.634-1.011,2.226,2.226,0,0,0-2.008.181l-4.815,2.808-.151-.257,4.83-2.823a2.479,2.479,0,0,1,2.294-.166,1.878,1.878,0,0,1,.8,1.328v.075l-.06.045-8.981,6.913H59.237l-.981.332Z" transform="translate(-57.939 -63.703)" fill="url(#linear-gradient-3)"/>
        <path id="Path_25369-8" data-name="Path 25369" d="M58.206,73.013l-.2-.574,1.238-.408H71.112l8.724-6.7a1.288,1.288,0,0,0-.543-.815,2.138,2.138,0,0,0-1.872.181l-4.936,2.883-.3-.528,4.966-2.9a2.682,2.682,0,0,1,2.46-.166,2,2,0,0,1,.875,1.449V65.6l-.121.106-9.026,6.943H59.323l-1.1.377Zm1.087-.664H71.232l6.4-4.936-6.4,4.936Zm20.015-8.166s.091.045.136.075a1.634,1.634,0,0,1,.709,1.117v.03a1.632,1.632,0,0,0-.709-1.147c-.045-.03-.091-.045-.136-.075Z" transform="translate(-58.01 -63.759)" fill="url(#linear-gradient-4)"/>
      </g>
      <g id="Group_4295-8" data-name="Group 4295" transform="translate(3.457 12.553)">
        <path id="Path_25370-8" data-name="Path 25370" d="M65.583,68.616v-.3l7.547-.106a.779.779,0,0,0,.121-.649c-.181-.8-1.374-1.509-1.585-1.63H69.115a5.012,5.012,0,0,1-2.566-.287c0,.015-.03.03-.045.06-.106.106-.211.06-.679-.392l-.845-.815.74.408c-1.057-1.042-4.106-.709-4.438-.664l-5.6,3.426-.151-.257,5.69-3.457c.151-.015,3.713-.5,4.845.875.151.181.257.317.332.423a5.066,5.066,0,0,0,2.717.377h2.657l.03.015c.06.03,1.54.83,1.766,1.841a1.134,1.134,0,0,1-.211.951l-.045.06h-.075l-7.623.106Z" transform="translate(-55.304 -63.72)" fill="url(#linear-gradient-5)"/>
        <path id="Path_25371-8" data-name="Path 25371" d="M65.508,68.813v-.6l7.607-.106a.632.632,0,0,0,.06-.468c-.151-.709-1.238-1.374-1.479-1.509H69.191a5.111,5.111,0,0,1-2.521-.257c-.241.211-.5-.03-.875-.392l-.875-.845a9.511,9.511,0,0,0-3.517-.181L55.7,67.938l-.317-.513,5.872-3.562c.151-.015,3.789-.513,4.981.921.136.166.242.287.317.392a4.88,4.88,0,0,0,2.6.347h2.717l.06.03c.166.091,1.615.906,1.841,1.947a1.3,1.3,0,0,1-.242,1.087l-.091.121h-.151l-7.773.106Zm.3-.3,6.324-.091-6.324.091Zm7.532-.211a.047.047,0,0,1-.015.03h0s.015,0,.03-.03Zm0,0Zm-17.554-.785.075-.045Zm15.954-1.691h.075a4.973,4.973,0,0,1,1.449,1.283,4.861,4.861,0,0,0-1.494-1.283H69.161a5.14,5.14,0,0,1-2.626-.332l.03.03h.091a4.59,4.59,0,0,0,2.491.287h2.581Zm-5.751-.574a2.051,2.051,0,0,0,.483.392l.045-.091-.528-.3Zm-.121-.423.015.015h0a.047.047,0,0,1-.03-.015Zm-4.543-.679h0c.075,0,.211-.03.377-.045A3.16,3.16,0,0,0,61.327,64.149Z" transform="translate(-55.38 -63.767)" fill="url(#linear-gradient-6)"/>
      </g>
      <g id="Group_4296-8" data-name="Group 4296" transform="translate(14.067 0.001)">
        <path id="Path_25372-8" data-name="Path 25372" d="M68.668,67.883a6.17,6.17,0,0,1-6.1-5.313h0a6.165,6.165,0,1,1,6.958,5.253A5.5,5.5,0,0,1,68.668,67.883Zm-5.8-5.358a5.86,5.86,0,1,0,5-6.611,5.857,5.857,0,0,0-5,6.611h0Z" transform="translate(-62.358 -55.401)" fill="url(#linear-gradient-7)"/>
        <path id="Path_25373-8" data-name="Path 25373" d="M68.72,68.084a6.317,6.317,0,1,1,3.8-11.366A6.317,6.317,0,0,1,69.6,68.023,5.694,5.694,0,0,1,68.72,68.084Zm1.66-.528a5.207,5.207,0,0,1-.815.166c-.06,0-.121.015-.181.015a.735.735,0,0,0,.181-.015A6.482,6.482,0,0,0,70.38,67.555Zm-7.306-5A5.714,5.714,0,0,0,74.4,60.989a5.714,5.714,0,1,0-11.321,1.57h0Zm5.645-6.807a6.038,6.038,0,0,1,5.962,5.177,5.875,5.875,0,0,1-.257,2.762,5.894,5.894,0,0,0,.257-2.762,5.975,5.975,0,0,0-2.34-3.97A5.876,5.876,0,0,0,67.9,55.812a5.36,5.36,0,0,0-.709.136,5.36,5.36,0,0,1,.709-.136,7.676,7.676,0,0,1,.83-.06ZM63.1,59.646a6.017,6.017,0,0,0-.332,2.943,1.36,1.36,0,0,0,.045.242,1.36,1.36,0,0,0-.045-.242h0A6.2,6.2,0,0,1,63.1,59.646Z" transform="translate(-62.409 -55.451)" fill="url(#linear-gradient-8)"/>
      </g>
      <path id="Path_25374-8" data-name="Path 25374" d="M67.678,64.182a2.184,2.184,0,0,1-1.374-.528,3.817,3.817,0,0,1-.423-5.54,2.685,2.685,0,0,1,3.457,0l-.181.242a2.409,2.409,0,0,0-3.049,0,3.479,3.479,0,0,0,.423,5.1A1.873,1.873,0,0,0,67.8,63.9a1.95,1.95,0,0,0,1.343-.785l.226.2a2.208,2.208,0,0,1-1.555.891h-.121Z" transform="translate(-47.09 -54.431)" fill="url(#linear-gradient-9)"/>
      <rect id="Rectangle_2194-8" data-name="Rectangle 2194" width="4.558" height="0.302" transform="translate(17.026 6.792)" fill="url(#linear-gradient-10)"/>
      <rect id="Rectangle_2195-8" data-name="Rectangle 2195" width="4.558" height="0.302" transform="translate(17.026 5.494)" fill="url(#linear-gradient-10)"/>
    </g>
    <g id="Group_5349" data-name="Group 5349" transform="translate(61 1933.998)">
      <g id="Group_4293-9" data-name="Group 4293" transform="translate(0 15.004)">
        <path id="Path_25366-9" data-name="Path 25366" d="M59.549,74.863l-.226-.2,1.8-1.977-5.1-6.717-2.566,1.449L53.3,67.15l2.792-1.57L61.511,72.7Z" transform="translate(-52.983 -65.293)" fill="url(#linear-gradient)"/>
        <path id="Path_25367-9" data-name="Path 25367" d="M59.671,75.277l-.558-.5,1.826-2.008-4.875-6.4-2.6,1.449-.377-.649,3.17-1.781.121.151,5.54,7.275Z" transform="translate(-53.09 -65.39)" fill="url(#linear-gradient-2)"/>
      </g>
      <g id="Group_4294-9" data-name="Group 4294" transform="translate(7.426 12.542)">
        <path id="Path_25368-9" data-name="Path 25368" d="M58.241,72.776l-.091-.287,1.057-.347H71.116l8.83-6.792a1.452,1.452,0,0,0-.634-1.011,2.226,2.226,0,0,0-2.008.181l-4.815,2.808-.151-.257,4.83-2.823a2.479,2.479,0,0,1,2.294-.166,1.878,1.878,0,0,1,.8,1.328v.075l-.06.045-8.981,6.913H59.237l-.981.332Z" transform="translate(-57.939 -63.703)" fill="url(#linear-gradient-3)"/>
        <path id="Path_25369-9" data-name="Path 25369" d="M58.206,73.013l-.2-.574,1.238-.408H71.112l8.724-6.7a1.288,1.288,0,0,0-.543-.815,2.138,2.138,0,0,0-1.872.181l-4.936,2.883-.3-.528,4.966-2.9a2.682,2.682,0,0,1,2.46-.166,2,2,0,0,1,.875,1.449V65.6l-.121.106-9.026,6.943H59.323l-1.1.377Zm1.087-.664H71.232l6.4-4.936-6.4,4.936Zm20.015-8.166s.091.045.136.075a1.634,1.634,0,0,1,.709,1.117v.03a1.632,1.632,0,0,0-.709-1.147c-.045-.03-.091-.045-.136-.075Z" transform="translate(-58.01 -63.759)" fill="url(#linear-gradient-4)"/>
      </g>
      <g id="Group_4295-9" data-name="Group 4295" transform="translate(3.457 12.553)">
        <path id="Path_25370-9" data-name="Path 25370" d="M65.583,68.616v-.3l7.547-.106a.779.779,0,0,0,.121-.649c-.181-.8-1.374-1.509-1.585-1.63H69.115a5.012,5.012,0,0,1-2.566-.287c0,.015-.03.03-.045.06-.106.106-.211.06-.679-.392l-.845-.815.74.408c-1.057-1.042-4.106-.709-4.438-.664l-5.6,3.426-.151-.257,5.69-3.457c.151-.015,3.713-.5,4.845.875.151.181.257.317.332.423a5.066,5.066,0,0,0,2.717.377h2.657l.03.015c.06.03,1.54.83,1.766,1.841a1.134,1.134,0,0,1-.211.951l-.045.06h-.075l-7.623.106Z" transform="translate(-55.304 -63.72)" fill="url(#linear-gradient-5)"/>
        <path id="Path_25371-9" data-name="Path 25371" d="M65.508,68.813v-.6l7.607-.106a.632.632,0,0,0,.06-.468c-.151-.709-1.238-1.374-1.479-1.509H69.191a5.111,5.111,0,0,1-2.521-.257c-.241.211-.5-.03-.875-.392l-.875-.845a9.511,9.511,0,0,0-3.517-.181L55.7,67.938l-.317-.513,5.872-3.562c.151-.015,3.789-.513,4.981.921.136.166.242.287.317.392a4.88,4.88,0,0,0,2.6.347h2.717l.06.03c.166.091,1.615.906,1.841,1.947a1.3,1.3,0,0,1-.242,1.087l-.091.121h-.151l-7.773.106Zm.3-.3,6.324-.091-6.324.091Zm7.532-.211a.047.047,0,0,1-.015.03h0s.015,0,.03-.03Zm0,0Zm-17.554-.785.075-.045Zm15.954-1.691h.075a4.973,4.973,0,0,1,1.449,1.283,4.861,4.861,0,0,0-1.494-1.283H69.161a5.14,5.14,0,0,1-2.626-.332l.03.03h.091a4.59,4.59,0,0,0,2.491.287h2.581Zm-5.751-.574a2.051,2.051,0,0,0,.483.392l.045-.091-.528-.3Zm-.121-.423.015.015h0a.047.047,0,0,1-.03-.015Zm-4.543-.679h0c.075,0,.211-.03.377-.045A3.16,3.16,0,0,0,61.327,64.149Z" transform="translate(-55.38 -63.767)" fill="url(#linear-gradient-6)"/>
      </g>
      <g id="Group_4296-9" data-name="Group 4296" transform="translate(14.067 0.001)">
        <path id="Path_25372-9" data-name="Path 25372" d="M68.668,67.883a6.17,6.17,0,0,1-6.1-5.313h0a6.165,6.165,0,1,1,6.958,5.253A5.5,5.5,0,0,1,68.668,67.883Zm-5.8-5.358a5.86,5.86,0,1,0,5-6.611,5.857,5.857,0,0,0-5,6.611h0Z" transform="translate(-62.358 -55.401)" fill="url(#linear-gradient-7)"/>
        <path id="Path_25373-9" data-name="Path 25373" d="M68.72,68.084a6.317,6.317,0,1,1,3.8-11.366A6.317,6.317,0,0,1,69.6,68.023,5.694,5.694,0,0,1,68.72,68.084Zm1.66-.528a5.207,5.207,0,0,1-.815.166c-.06,0-.121.015-.181.015a.735.735,0,0,0,.181-.015A6.482,6.482,0,0,0,70.38,67.555Zm-7.306-5A5.714,5.714,0,0,0,74.4,60.989a5.714,5.714,0,1,0-11.321,1.57h0Zm5.645-6.807a6.038,6.038,0,0,1,5.962,5.177,5.875,5.875,0,0,1-.257,2.762,5.894,5.894,0,0,0,.257-2.762,5.975,5.975,0,0,0-2.34-3.97A5.876,5.876,0,0,0,67.9,55.812a5.36,5.36,0,0,0-.709.136,5.36,5.36,0,0,1,.709-.136,7.676,7.676,0,0,1,.83-.06ZM63.1,59.646a6.017,6.017,0,0,0-.332,2.943,1.36,1.36,0,0,0,.045.242,1.36,1.36,0,0,0-.045-.242h0A6.2,6.2,0,0,1,63.1,59.646Z" transform="translate(-62.409 -55.451)" fill="url(#linear-gradient-8)"/>
      </g>
      <path id="Path_25374-9" data-name="Path 25374" d="M67.678,64.182a2.184,2.184,0,0,1-1.374-.528,3.817,3.817,0,0,1-.423-5.54,2.685,2.685,0,0,1,3.457,0l-.181.242a2.409,2.409,0,0,0-3.049,0,3.479,3.479,0,0,0,.423,5.1A1.873,1.873,0,0,0,67.8,63.9a1.95,1.95,0,0,0,1.343-.785l.226.2a2.208,2.208,0,0,1-1.555.891h-.121Z" transform="translate(-47.09 -54.431)" fill="url(#linear-gradient-9)"/>
      <rect id="Rectangle_2194-9" data-name="Rectangle 2194" width="4.558" height="0.302" transform="translate(17.026 6.792)" fill="url(#linear-gradient-10)"/>
      <rect id="Rectangle_2195-9" data-name="Rectangle 2195" width="4.558" height="0.302" transform="translate(17.026 5.494)" fill="url(#linear-gradient-10)"/>
    </g>
    <g id="Group_5350" data-name="Group 5350" transform="translate(61 1933.998)">
      <g id="Group_4293-10" data-name="Group 4293" transform="translate(0 15.004)">
        <path id="Path_25366-10" data-name="Path 25366" d="M59.549,74.863l-.226-.2,1.8-1.977-5.1-6.717-2.566,1.449L53.3,67.15l2.792-1.57L61.511,72.7Z" transform="translate(-52.983 -65.293)" fill="url(#linear-gradient)"/>
        <path id="Path_25367-10" data-name="Path 25367" d="M59.671,75.277l-.558-.5,1.826-2.008-4.875-6.4-2.6,1.449-.377-.649,3.17-1.781.121.151,5.54,7.275Z" transform="translate(-53.09 -65.39)" fill="url(#linear-gradient-2)"/>
      </g>
      <g id="Group_4294-10" data-name="Group 4294" transform="translate(7.426 12.542)">
        <path id="Path_25368-10" data-name="Path 25368" d="M58.241,72.776l-.091-.287,1.057-.347H71.116l8.83-6.792a1.452,1.452,0,0,0-.634-1.011,2.226,2.226,0,0,0-2.008.181l-4.815,2.808-.151-.257,4.83-2.823a2.479,2.479,0,0,1,2.294-.166,1.878,1.878,0,0,1,.8,1.328v.075l-.06.045-8.981,6.913H59.237l-.981.332Z" transform="translate(-57.939 -63.703)" fill="url(#linear-gradient-3)"/>
        <path id="Path_25369-10" data-name="Path 25369" d="M58.206,73.013l-.2-.574,1.238-.408H71.112l8.724-6.7a1.288,1.288,0,0,0-.543-.815,2.138,2.138,0,0,0-1.872.181l-4.936,2.883-.3-.528,4.966-2.9a2.682,2.682,0,0,1,2.46-.166,2,2,0,0,1,.875,1.449V65.6l-.121.106-9.026,6.943H59.323l-1.1.377Zm1.087-.664H71.232l6.4-4.936-6.4,4.936Zm20.015-8.166s.091.045.136.075a1.634,1.634,0,0,1,.709,1.117v.03a1.632,1.632,0,0,0-.709-1.147c-.045-.03-.091-.045-.136-.075Z" transform="translate(-58.01 -63.759)" fill="url(#linear-gradient-4)"/>
      </g>
      <g id="Group_4295-10" data-name="Group 4295" transform="translate(3.457 12.553)">
        <path id="Path_25370-10" data-name="Path 25370" d="M65.583,68.616v-.3l7.547-.106a.779.779,0,0,0,.121-.649c-.181-.8-1.374-1.509-1.585-1.63H69.115a5.012,5.012,0,0,1-2.566-.287c0,.015-.03.03-.045.06-.106.106-.211.06-.679-.392l-.845-.815.74.408c-1.057-1.042-4.106-.709-4.438-.664l-5.6,3.426-.151-.257,5.69-3.457c.151-.015,3.713-.5,4.845.875.151.181.257.317.332.423a5.066,5.066,0,0,0,2.717.377h2.657l.03.015c.06.03,1.54.83,1.766,1.841a1.134,1.134,0,0,1-.211.951l-.045.06h-.075l-7.623.106Z" transform="translate(-55.304 -63.72)" fill="url(#linear-gradient-5)"/>
        <path id="Path_25371-10" data-name="Path 25371" d="M65.508,68.813v-.6l7.607-.106a.632.632,0,0,0,.06-.468c-.151-.709-1.238-1.374-1.479-1.509H69.191a5.111,5.111,0,0,1-2.521-.257c-.241.211-.5-.03-.875-.392l-.875-.845a9.511,9.511,0,0,0-3.517-.181L55.7,67.938l-.317-.513,5.872-3.562c.151-.015,3.789-.513,4.981.921.136.166.242.287.317.392a4.88,4.88,0,0,0,2.6.347h2.717l.06.03c.166.091,1.615.906,1.841,1.947a1.3,1.3,0,0,1-.242,1.087l-.091.121h-.151l-7.773.106Zm.3-.3,6.324-.091-6.324.091Zm7.532-.211a.047.047,0,0,1-.015.03h0s.015,0,.03-.03Zm0,0Zm-17.554-.785.075-.045Zm15.954-1.691h.075a4.973,4.973,0,0,1,1.449,1.283,4.861,4.861,0,0,0-1.494-1.283H69.161a5.14,5.14,0,0,1-2.626-.332l.03.03h.091a4.59,4.59,0,0,0,2.491.287h2.581Zm-5.751-.574a2.051,2.051,0,0,0,.483.392l.045-.091-.528-.3Zm-.121-.423.015.015h0a.047.047,0,0,1-.03-.015Zm-4.543-.679h0c.075,0,.211-.03.377-.045A3.16,3.16,0,0,0,61.327,64.149Z" transform="translate(-55.38 -63.767)" fill="url(#linear-gradient-6)"/>
      </g>
      <g id="Group_4296-10" data-name="Group 4296" transform="translate(14.067 0.001)">
        <path id="Path_25372-10" data-name="Path 25372" d="M68.668,67.883a6.17,6.17,0,0,1-6.1-5.313h0a6.165,6.165,0,1,1,6.958,5.253A5.5,5.5,0,0,1,68.668,67.883Zm-5.8-5.358a5.86,5.86,0,1,0,5-6.611,5.857,5.857,0,0,0-5,6.611h0Z" transform="translate(-62.358 -55.401)" fill="url(#linear-gradient-7)"/>
        <path id="Path_25373-10" data-name="Path 25373" d="M68.72,68.084a6.317,6.317,0,1,1,3.8-11.366A6.317,6.317,0,0,1,69.6,68.023,5.694,5.694,0,0,1,68.72,68.084Zm1.66-.528a5.207,5.207,0,0,1-.815.166c-.06,0-.121.015-.181.015a.735.735,0,0,0,.181-.015A6.482,6.482,0,0,0,70.38,67.555Zm-7.306-5A5.714,5.714,0,0,0,74.4,60.989a5.714,5.714,0,1,0-11.321,1.57h0Zm5.645-6.807a6.038,6.038,0,0,1,5.962,5.177,5.875,5.875,0,0,1-.257,2.762,5.894,5.894,0,0,0,.257-2.762,5.975,5.975,0,0,0-2.34-3.97A5.876,5.876,0,0,0,67.9,55.812a5.36,5.36,0,0,0-.709.136,5.36,5.36,0,0,1,.709-.136,7.676,7.676,0,0,1,.83-.06ZM63.1,59.646a6.017,6.017,0,0,0-.332,2.943,1.36,1.36,0,0,0,.045.242,1.36,1.36,0,0,0-.045-.242h0A6.2,6.2,0,0,1,63.1,59.646Z" transform="translate(-62.409 -55.451)" fill="url(#linear-gradient-8)"/>
      </g>
      <path id="Path_25374-10" data-name="Path 25374" d="M67.678,64.182a2.184,2.184,0,0,1-1.374-.528,3.817,3.817,0,0,1-.423-5.54,2.685,2.685,0,0,1,3.457,0l-.181.242a2.409,2.409,0,0,0-3.049,0,3.479,3.479,0,0,0,.423,5.1A1.873,1.873,0,0,0,67.8,63.9a1.95,1.95,0,0,0,1.343-.785l.226.2a2.208,2.208,0,0,1-1.555.891h-.121Z" transform="translate(-47.09 -54.431)" fill="url(#linear-gradient-9)"/>
      <rect id="Rectangle_2194-10" data-name="Rectangle 2194" width="4.558" height="0.302" transform="translate(17.026 6.792)" fill="url(#linear-gradient-10)"/>
      <rect id="Rectangle_2195-10" data-name="Rectangle 2195" width="4.558" height="0.302" transform="translate(17.026 5.494)" fill="url(#linear-gradient-10)"/>
    </g>
    <g id="Group_5351" data-name="Group 5351" transform="translate(61 1933.998)">
      <g id="Group_4293-11" data-name="Group 4293" transform="translate(0 15.004)">
        <path id="Path_25366-11" data-name="Path 25366" d="M59.549,74.863l-.226-.2,1.8-1.977-5.1-6.717-2.566,1.449L53.3,67.15l2.792-1.57L61.511,72.7Z" transform="translate(-52.983 -65.293)" fill="url(#linear-gradient)"/>
        <path id="Path_25367-11" data-name="Path 25367" d="M59.671,75.277l-.558-.5,1.826-2.008-4.875-6.4-2.6,1.449-.377-.649,3.17-1.781.121.151,5.54,7.275Z" transform="translate(-53.09 -65.39)" fill="url(#linear-gradient-2)"/>
      </g>
      <g id="Group_4294-11" data-name="Group 4294" transform="translate(7.426 12.542)">
        <path id="Path_25368-11" data-name="Path 25368" d="M58.241,72.776l-.091-.287,1.057-.347H71.116l8.83-6.792a1.452,1.452,0,0,0-.634-1.011,2.226,2.226,0,0,0-2.008.181l-4.815,2.808-.151-.257,4.83-2.823a2.479,2.479,0,0,1,2.294-.166,1.878,1.878,0,0,1,.8,1.328v.075l-.06.045-8.981,6.913H59.237l-.981.332Z" transform="translate(-57.939 -63.703)" fill="url(#linear-gradient-3)"/>
        <path id="Path_25369-11" data-name="Path 25369" d="M58.206,73.013l-.2-.574,1.238-.408H71.112l8.724-6.7a1.288,1.288,0,0,0-.543-.815,2.138,2.138,0,0,0-1.872.181l-4.936,2.883-.3-.528,4.966-2.9a2.682,2.682,0,0,1,2.46-.166,2,2,0,0,1,.875,1.449V65.6l-.121.106-9.026,6.943H59.323l-1.1.377Zm1.087-.664H71.232l6.4-4.936-6.4,4.936Zm20.015-8.166s.091.045.136.075a1.634,1.634,0,0,1,.709,1.117v.03a1.632,1.632,0,0,0-.709-1.147c-.045-.03-.091-.045-.136-.075Z" transform="translate(-58.01 -63.759)" fill="url(#linear-gradient-4)"/>
      </g>
      <g id="Group_4295-11" data-name="Group 4295" transform="translate(3.457 12.553)">
        <path id="Path_25370-11" data-name="Path 25370" d="M65.583,68.616v-.3l7.547-.106a.779.779,0,0,0,.121-.649c-.181-.8-1.374-1.509-1.585-1.63H69.115a5.012,5.012,0,0,1-2.566-.287c0,.015-.03.03-.045.06-.106.106-.211.06-.679-.392l-.845-.815.74.408c-1.057-1.042-4.106-.709-4.438-.664l-5.6,3.426-.151-.257,5.69-3.457c.151-.015,3.713-.5,4.845.875.151.181.257.317.332.423a5.066,5.066,0,0,0,2.717.377h2.657l.03.015c.06.03,1.54.83,1.766,1.841a1.134,1.134,0,0,1-.211.951l-.045.06h-.075l-7.623.106Z" transform="translate(-55.304 -63.72)" fill="url(#linear-gradient-5)"/>
        <path id="Path_25371-11" data-name="Path 25371" d="M65.508,68.813v-.6l7.607-.106a.632.632,0,0,0,.06-.468c-.151-.709-1.238-1.374-1.479-1.509H69.191a5.111,5.111,0,0,1-2.521-.257c-.241.211-.5-.03-.875-.392l-.875-.845a9.511,9.511,0,0,0-3.517-.181L55.7,67.938l-.317-.513,5.872-3.562c.151-.015,3.789-.513,4.981.921.136.166.242.287.317.392a4.88,4.88,0,0,0,2.6.347h2.717l.06.03c.166.091,1.615.906,1.841,1.947a1.3,1.3,0,0,1-.242,1.087l-.091.121h-.151l-7.773.106Zm.3-.3,6.324-.091-6.324.091Zm7.532-.211a.047.047,0,0,1-.015.03h0s.015,0,.03-.03Zm0,0Zm-17.554-.785.075-.045Zm15.954-1.691h.075a4.973,4.973,0,0,1,1.449,1.283,4.861,4.861,0,0,0-1.494-1.283H69.161a5.14,5.14,0,0,1-2.626-.332l.03.03h.091a4.59,4.59,0,0,0,2.491.287h2.581Zm-5.751-.574a2.051,2.051,0,0,0,.483.392l.045-.091-.528-.3Zm-.121-.423.015.015h0a.047.047,0,0,1-.03-.015Zm-4.543-.679h0c.075,0,.211-.03.377-.045A3.16,3.16,0,0,0,61.327,64.149Z" transform="translate(-55.38 -63.767)" fill="url(#linear-gradient-6)"/>
      </g>
      <g id="Group_4296-11" data-name="Group 4296" transform="translate(14.067 0.001)">
        <path id="Path_25372-11" data-name="Path 25372" d="M68.668,67.883a6.17,6.17,0,0,1-6.1-5.313h0a6.165,6.165,0,1,1,6.958,5.253A5.5,5.5,0,0,1,68.668,67.883Zm-5.8-5.358a5.86,5.86,0,1,0,5-6.611,5.857,5.857,0,0,0-5,6.611h0Z" transform="translate(-62.358 -55.401)" fill="url(#linear-gradient-7)"/>
        <path id="Path_25373-11" data-name="Path 25373" d="M68.72,68.084a6.317,6.317,0,1,1,3.8-11.366A6.317,6.317,0,0,1,69.6,68.023,5.694,5.694,0,0,1,68.72,68.084Zm1.66-.528a5.207,5.207,0,0,1-.815.166c-.06,0-.121.015-.181.015a.735.735,0,0,0,.181-.015A6.482,6.482,0,0,0,70.38,67.555Zm-7.306-5A5.714,5.714,0,0,0,74.4,60.989a5.714,5.714,0,1,0-11.321,1.57h0Zm5.645-6.807a6.038,6.038,0,0,1,5.962,5.177,5.875,5.875,0,0,1-.257,2.762,5.894,5.894,0,0,0,.257-2.762,5.975,5.975,0,0,0-2.34-3.97A5.876,5.876,0,0,0,67.9,55.812a5.36,5.36,0,0,0-.709.136,5.36,5.36,0,0,1,.709-.136,7.676,7.676,0,0,1,.83-.06ZM63.1,59.646a6.017,6.017,0,0,0-.332,2.943,1.36,1.36,0,0,0,.045.242,1.36,1.36,0,0,0-.045-.242h0A6.2,6.2,0,0,1,63.1,59.646Z" transform="translate(-62.409 -55.451)" fill="url(#linear-gradient-8)"/>
      </g>
      <path id="Path_25374-11" data-name="Path 25374" d="M67.678,64.182a2.184,2.184,0,0,1-1.374-.528,3.817,3.817,0,0,1-.423-5.54,2.685,2.685,0,0,1,3.457,0l-.181.242a2.409,2.409,0,0,0-3.049,0,3.479,3.479,0,0,0,.423,5.1A1.873,1.873,0,0,0,67.8,63.9a1.95,1.95,0,0,0,1.343-.785l.226.2a2.208,2.208,0,0,1-1.555.891h-.121Z" transform="translate(-47.09 -54.431)" fill="url(#linear-gradient-9)"/>
      <rect id="Rectangle_2194-11" data-name="Rectangle 2194" width="4.558" height="0.302" transform="translate(17.026 6.792)" fill="url(#linear-gradient-10)"/>
      <rect id="Rectangle_2195-11" data-name="Rectangle 2195" width="4.558" height="0.302" transform="translate(17.026 5.494)" fill="url(#linear-gradient-10)"/>
    </g>
  </g>
</svg>
