<svg xmlns="http://www.w3.org/2000/svg" xmlns:xlink="http://www.w3.org/1999/xlink" width="114.102" height="135.909" viewBox="0 0 114.102 135.909">
  <defs>
    <filter id="country-icon" x="0" y="0" width="114.102" height="135.909" filterUnits="userSpaceOnUse">
      <feOffset dy="3" input="SourceAlpha"/>
      <feGaussianBlur stdDeviation="5" result="blur"/>
      <feFlood flood-color="aqua"/>
      <feComposite operator="in" in2="blur"/>
    </filter>
    <filter id="country-icon-2" x="0" y="0" width="114.102" height="135.909" filterUnits="userSpaceOnUse">
      <feOffset dx="-17" dy="-2" input="SourceAlpha"/>
      <feGaussianBlur stdDeviation="1" result="blur-2"/>
      <feFlood flood-color="aqua" result="color"/>
      <feComposite operator="out" in="SourceGraphic" in2="blur-2"/>
      <feComposite operator="in" in="color"/>
      <feComposite operator="in" in2="SourceGraphic"/>
    </filter>
  </defs>
  <g data-type="innerShadowGroup">
    <g transform="matrix(1, 0, 0, 1, 0, 0)" filter="url(#country-icon)">
      <path id="country-icon-3" data-name="country-icon" d="M80.531,64.522a1.507,1.507,0,0,1-1.149,1.5,10.064,10.064,0,0,1-2.728.741,1.514,1.514,0,0,1-1.487-1.1l-1.489-4.232c-.239-.682-.474-1.349-.7-2.03l-2.831,5.352a6.984,6.984,0,0,1-2.01,1.559,1.511,1.511,0,0,1-2.094-.42,1.465,1.465,0,0,1-.227-.562L64.14,56.975,61.848,55.42l-5.321-.832c.187.282.379.564.566.84A13.406,13.406,0,0,1,59.3,59.6c.519,2.244-.284,4.147-4.009,5.574a3.236,3.236,0,0,1,.325.21c1.487,1.087,1.874,2.73-1.225,6.966q-1.177,1.6-2.022,2.833c-.443.647-.857,1.266-1.235,1.864l.828,5.206a2.84,2.84,0,0,1-.482,2.057c-.7,1.054-1.713,1.468-2.574,2.314-.117.117-.227.235-.323.348l.36,1.485A1.5,1.5,0,0,1,48.5,89.93a3.711,3.711,0,0,1-.931.509,6.469,6.469,0,0,1-.443,1.271A7.737,7.737,0,0,1,43.8,95.251c-1.571.776-3.369.614-5.09.651a1.511,1.511,0,0,1-1.542-1.478,10.386,10.386,0,0,0-.294-2.17c-.43-1.829-1.291-3.47-1.783-5.292-.434-1.608-.675-3.785.278-5.249a5.492,5.492,0,0,0,.142-1.553,5.808,5.808,0,0,0-.941-2.733,8.448,8.448,0,0,1-1.347-3c-.054-2.467-.91-2.99-2.084-2.965-1.8.037-3.6.581-5.463.62a3.433,3.433,0,0,1-2.36-1.032,18.041,18.041,0,0,1-3.1-4.419,4.576,4.576,0,0,1-.645-2.879c-.13-4.19-.249-8.152,3.731-11.159a15,15,0,0,1,4.9-5.016,13.707,13.707,0,0,1,6.808-1.528,1.511,1.511,0,0,1,1.542,1.478l.045,2.142,1.829.754.025-.124c.332-1.742,2.212-1.174,3.311-.8,1.324.447,2.055,1.207,3.63.865.6-.132.465-.294.527-.9l-1.791.2a1.509,1.509,0,0,1-1.186-.4,4.723,4.723,0,0,1-.579-.855,7.934,7.934,0,0,0-3.212-2.187,22.464,22.464,0,0,1-5.9-3.789c-7.166,2.714-9.464,3.116-10.078,1.516-.36-.935.113-1.7.75-2.733a7.115,7.115,0,0,0,1.363-3.478,1.51,1.51,0,0,1,.976-1.446l6.017-2.905c-1.433,0-1.985-2.475-2.214-3.484-.321-1.417,1.446-2.045,2.385-2.708q.958-.68,2.29-1.742l.056-.045A38.742,38.742,0,0,0,3.621,56.584a40.65,40.65,0,0,0,.329,15.6c.031.136.062.272.095.408L11.1,75.787A1.544,1.544,0,0,1,12,77.3a12.67,12.67,0,0,1-.91,4.779,12.22,12.22,0,0,0-.813,3.653,1.425,1.425,0,0,1-.066.412A38.306,38.306,0,0,0,20.739,96.2,38.834,38.834,0,0,0,34.8,101.76a40.447,40.447,0,0,0,15.6-.332,38.809,38.809,0,0,0,13.817-6.153A38.352,38.352,0,0,0,74.417,84.642a38.834,38.834,0,0,0,5.562-14.064,39.712,39.712,0,0,0,.589-7.782c-.027.566-.049,1.155-.037,1.726ZM61.105,10.24a8.016,8.016,0,1,1-8.016,8.018A8.016,8.016,0,0,1,61.105,10.24Zm9.268,30.138a33.171,33.171,0,0,1-7.063,5.869,2.928,2.928,0,0,1-3.3.119A40.3,40.3,0,0,1,50.1,37.518a31.953,31.953,0,0,1-6.74-14.6A20.119,20.119,0,0,1,45.908,8.749,17.82,17.82,0,0,1,49.86,4.376,19.024,19.024,0,0,1,61.834,0,17.571,17.571,0,0,1,76.4,8.418c2.759,4.551,3.377,10.3,2.185,16.078A34.249,34.249,0,0,1,70.373,40.378Zm-8.8,3.521c14.046-8.517,19.465-28.252,9.8-37.071-5.893-5.379-13.615-5.01-19.694-.167C41.02,15.151,45.8,33.877,61.572,43.9Zm14.573-4.207A41.9,41.9,0,0,1,82.6,54.321,43.59,43.59,0,0,1,82.953,71.1a41.845,41.845,0,0,1-6,15.162,41.3,41.3,0,0,1-11,11.478,41.893,41.893,0,0,1-14.894,6.637,43.43,43.43,0,0,1-16.782.356,41.834,41.834,0,0,1-15.162-6,41.275,41.275,0,0,1-11.478-11A41.853,41.853,0,0,1,1,72.839,43.6,43.6,0,0,1,.648,56.055a41.921,41.921,0,0,1,17-26.637,41.411,41.411,0,0,1,21.491-7.555c.039.313.084.628.136.941.171,1.065.4,2.137.686,3.21a1.874,1.874,0,0,0-1.291.358,16.225,16.225,0,0,0-2.049,1.441Q35.3,28.86,34.19,29.65c-.432.307-.828.572-1.188.8.562.119,1.028.408,1.417,2.109.249,1.077.772,2.768-.521,3.391l-5.654,2.728A11.036,11.036,0,0,1,26.482,42.8a.22.22,0,0,1-.045.051,26.271,26.271,0,0,1,6.54-3.538,1.51,1.51,0,0,1,1.7.309A19.3,19.3,0,0,0,40.458,43.5c1.767.855,3.231,1.563,4.3,3.058l2.434-.27A1.511,1.511,0,0,1,49,47.74a8.969,8.969,0,0,1-.6,4.026,3.548,3.548,0,0,1-2.36,1.544c-2.076.461-3.132-.091-4.938-.842a1.919,1.919,0,0,1-.371.995,1.509,1.509,0,0,1-1.748.449l-4.347-1.794a1.515,1.515,0,0,1-1.044-1.406l-.033-1.567A9.2,9.2,0,0,0,29.682,50.2a12.562,12.562,0,0,0-3.98,4.223,1.5,1.5,0,0,1-.42.455c-2.908,2.088-2.809,5.341-2.7,8.789.021.7.035.972.039,1.182,0,.07.08.047.247.354a15.642,15.642,0,0,0,2.467,3.608q.275.247.278.247c1.837-.039,3.636-.579,5.463-.62,2.93-.06,5.061.982,5.166,5.924,0,.006.885,1.476.916,1.526a8.445,8.445,0,0,1,1.271,5.961c-.321,1.985-1.1,1.839-.426,4.332.5,1.845,1.359,3.484,1.81,5.387q.154.658.247,1.283a5.783,5.783,0,0,0,2.411-.3A4.587,4.587,0,0,0,44.7,89.339a1.529,1.529,0,0,1,1.028-1.371c-.171-.7-.469-1.408-.056-2.086a8.927,8.927,0,0,1,2.634-2.636,2.788,2.788,0,0,0,.632-.55c.043-.072.043-.006.027-.113l-.883-5.537a1.5,1.5,0,0,1,.194-1.122q.633-1.013,1.614-2.442.954-1.384,2.067-2.905a15.445,15.445,0,0,0,1.884-2.753,3.412,3.412,0,0,0-.624-.276,4.612,4.612,0,0,1-2.294-1.495c-.69-.96-.955-2.537.6-2.9,4.077-.943,5.07-1.874,4.837-2.875A11.694,11.694,0,0,0,54.6,57.123,22.831,22.831,0,0,1,52.36,53.3a1.508,1.508,0,0,1,1.573-2.172L62.1,52.4a2.632,2.632,0,0,1,1.139.332l2.986,2.02a1.514,1.514,0,0,1,.756,1.034l1.231,6.159,3.68-6.954a1.512,1.512,0,0,1,2.813.119c.933,2.741,1.861,5.444,2.821,8.173.033-.832.095-1.915.212-3a17.868,17.868,0,0,1,.546-3.052,4.557,4.557,0,0,1,.752-1.551,35.748,35.748,0,0,0-1.013-4.219A34.619,34.619,0,0,0,76.137,46.6a39.055,39.055,0,0,0-2.191-3.982q1.168-1.421,2.2-2.928ZM8.04,81.7c.062-.194.126-.385.192-.577a12.248,12.248,0,0,0,.737-3l-3.2-1.448A35.771,35.771,0,0,0,8.04,81.7Z" transform="translate(15.25 12.25)" fill="#d5d5d5" stroke="aqua" stroke-width="0.5"/>
    </g>
    <path id="country-icon-4" data-name="country-icon" d="M80.531,64.522a1.507,1.507,0,0,1-1.149,1.5,10.064,10.064,0,0,1-2.728.741,1.514,1.514,0,0,1-1.487-1.1l-1.489-4.232c-.239-.682-.474-1.349-.7-2.03l-2.831,5.352a6.984,6.984,0,0,1-2.01,1.559,1.511,1.511,0,0,1-2.094-.42,1.465,1.465,0,0,1-.227-.562L64.14,56.975,61.848,55.42l-5.321-.832c.187.282.379.564.566.84A13.406,13.406,0,0,1,59.3,59.6c.519,2.244-.284,4.147-4.009,5.574a3.236,3.236,0,0,1,.325.21c1.487,1.087,1.874,2.73-1.225,6.966q-1.177,1.6-2.022,2.833c-.443.647-.857,1.266-1.235,1.864l.828,5.206a2.84,2.84,0,0,1-.482,2.057c-.7,1.054-1.713,1.468-2.574,2.314-.117.117-.227.235-.323.348l.36,1.485A1.5,1.5,0,0,1,48.5,89.93a3.711,3.711,0,0,1-.931.509,6.469,6.469,0,0,1-.443,1.271A7.737,7.737,0,0,1,43.8,95.251c-1.571.776-3.369.614-5.09.651a1.511,1.511,0,0,1-1.542-1.478,10.386,10.386,0,0,0-.294-2.17c-.43-1.829-1.291-3.47-1.783-5.292-.434-1.608-.675-3.785.278-5.249a5.492,5.492,0,0,0,.142-1.553,5.808,5.808,0,0,0-.941-2.733,8.448,8.448,0,0,1-1.347-3c-.054-2.467-.91-2.99-2.084-2.965-1.8.037-3.6.581-5.463.62a3.433,3.433,0,0,1-2.36-1.032,18.041,18.041,0,0,1-3.1-4.419,4.576,4.576,0,0,1-.645-2.879c-.13-4.19-.249-8.152,3.731-11.159a15,15,0,0,1,4.9-5.016,13.707,13.707,0,0,1,6.808-1.528,1.511,1.511,0,0,1,1.542,1.478l.045,2.142,1.829.754.025-.124c.332-1.742,2.212-1.174,3.311-.8,1.324.447,2.055,1.207,3.63.865.6-.132.465-.294.527-.9l-1.791.2a1.509,1.509,0,0,1-1.186-.4,4.723,4.723,0,0,1-.579-.855,7.934,7.934,0,0,0-3.212-2.187,22.464,22.464,0,0,1-5.9-3.789c-7.166,2.714-9.464,3.116-10.078,1.516-.36-.935.113-1.7.75-2.733a7.115,7.115,0,0,0,1.363-3.478,1.51,1.51,0,0,1,.976-1.446l6.017-2.905c-1.433,0-1.985-2.475-2.214-3.484-.321-1.417,1.446-2.045,2.385-2.708q.958-.68,2.29-1.742l.056-.045A38.742,38.742,0,0,0,3.621,56.584a40.65,40.65,0,0,0,.329,15.6c.031.136.062.272.095.408L11.1,75.787A1.544,1.544,0,0,1,12,77.3a12.67,12.67,0,0,1-.91,4.779,12.22,12.22,0,0,0-.813,3.653,1.425,1.425,0,0,1-.066.412A38.306,38.306,0,0,0,20.739,96.2,38.834,38.834,0,0,0,34.8,101.76a40.447,40.447,0,0,0,15.6-.332,38.809,38.809,0,0,0,13.817-6.153A38.352,38.352,0,0,0,74.417,84.642a38.834,38.834,0,0,0,5.562-14.064,39.712,39.712,0,0,0,.589-7.782c-.027.566-.049,1.155-.037,1.726ZM61.105,10.24a8.016,8.016,0,1,1-8.016,8.018A8.016,8.016,0,0,1,61.105,10.24Zm9.268,30.138a33.171,33.171,0,0,1-7.063,5.869,2.928,2.928,0,0,1-3.3.119A40.3,40.3,0,0,1,50.1,37.518a31.953,31.953,0,0,1-6.74-14.6A20.119,20.119,0,0,1,45.908,8.749,17.82,17.82,0,0,1,49.86,4.376,19.024,19.024,0,0,1,61.834,0,17.571,17.571,0,0,1,76.4,8.418c2.759,4.551,3.377,10.3,2.185,16.078A34.249,34.249,0,0,1,70.373,40.378Zm-8.8,3.521c14.046-8.517,19.465-28.252,9.8-37.071-5.893-5.379-13.615-5.01-19.694-.167C41.02,15.151,45.8,33.877,61.572,43.9Zm14.573-4.207A41.9,41.9,0,0,1,82.6,54.321,43.59,43.59,0,0,1,82.953,71.1a41.845,41.845,0,0,1-6,15.162,41.3,41.3,0,0,1-11,11.478,41.893,41.893,0,0,1-14.894,6.637,43.43,43.43,0,0,1-16.782.356,41.834,41.834,0,0,1-15.162-6,41.275,41.275,0,0,1-11.478-11A41.853,41.853,0,0,1,1,72.839,43.6,43.6,0,0,1,.648,56.055a41.921,41.921,0,0,1,17-26.637,41.411,41.411,0,0,1,21.491-7.555c.039.313.084.628.136.941.171,1.065.4,2.137.686,3.21a1.874,1.874,0,0,0-1.291.358,16.225,16.225,0,0,0-2.049,1.441Q35.3,28.86,34.19,29.65c-.432.307-.828.572-1.188.8.562.119,1.028.408,1.417,2.109.249,1.077.772,2.768-.521,3.391l-5.654,2.728A11.036,11.036,0,0,1,26.482,42.8a.22.22,0,0,1-.045.051,26.271,26.271,0,0,1,6.54-3.538,1.51,1.51,0,0,1,1.7.309A19.3,19.3,0,0,0,40.458,43.5c1.767.855,3.231,1.563,4.3,3.058l2.434-.27A1.511,1.511,0,0,1,49,47.74a8.969,8.969,0,0,1-.6,4.026,3.548,3.548,0,0,1-2.36,1.544c-2.076.461-3.132-.091-4.938-.842a1.919,1.919,0,0,1-.371.995,1.509,1.509,0,0,1-1.748.449l-4.347-1.794a1.515,1.515,0,0,1-1.044-1.406l-.033-1.567A9.2,9.2,0,0,0,29.682,50.2a12.562,12.562,0,0,0-3.98,4.223,1.5,1.5,0,0,1-.42.455c-2.908,2.088-2.809,5.341-2.7,8.789.021.7.035.972.039,1.182,0,.07.08.047.247.354a15.642,15.642,0,0,0,2.467,3.608q.275.247.278.247c1.837-.039,3.636-.579,5.463-.62,2.93-.06,5.061.982,5.166,5.924,0,.006.885,1.476.916,1.526a8.445,8.445,0,0,1,1.271,5.961c-.321,1.985-1.1,1.839-.426,4.332.5,1.845,1.359,3.484,1.81,5.387q.154.658.247,1.283a5.783,5.783,0,0,0,2.411-.3A4.587,4.587,0,0,0,44.7,89.339a1.529,1.529,0,0,1,1.028-1.371c-.171-.7-.469-1.408-.056-2.086a8.927,8.927,0,0,1,2.634-2.636,2.788,2.788,0,0,0,.632-.55c.043-.072.043-.006.027-.113l-.883-5.537a1.5,1.5,0,0,1,.194-1.122q.633-1.013,1.614-2.442.954-1.384,2.067-2.905a15.445,15.445,0,0,0,1.884-2.753,3.412,3.412,0,0,0-.624-.276,4.612,4.612,0,0,1-2.294-1.495c-.69-.96-.955-2.537.6-2.9,4.077-.943,5.07-1.874,4.837-2.875A11.694,11.694,0,0,0,54.6,57.123,22.831,22.831,0,0,1,52.36,53.3a1.508,1.508,0,0,1,1.573-2.172L62.1,52.4a2.632,2.632,0,0,1,1.139.332l2.986,2.02a1.514,1.514,0,0,1,.756,1.034l1.231,6.159,3.68-6.954a1.512,1.512,0,0,1,2.813.119c.933,2.741,1.861,5.444,2.821,8.173.033-.832.095-1.915.212-3a17.868,17.868,0,0,1,.546-3.052,4.557,4.557,0,0,1,.752-1.551,35.748,35.748,0,0,0-1.013-4.219A34.619,34.619,0,0,0,76.137,46.6a39.055,39.055,0,0,0-2.191-3.982q1.168-1.421,2.2-2.928ZM8.04,81.7c.062-.194.126-.385.192-.577a12.248,12.248,0,0,0,.737-3l-3.2-1.448A35.771,35.771,0,0,0,8.04,81.7Z" transform="translate(15.251 12.253)" fill="#d5d5d5"/>
    <g transform="matrix(1, 0, 0, 1, 0, 0)" filter="url(#country-icon-2)">
      <path id="country-icon-5" data-name="country-icon" d="M80.531,64.522a1.507,1.507,0,0,1-1.149,1.5,10.064,10.064,0,0,1-2.728.741,1.514,1.514,0,0,1-1.487-1.1l-1.489-4.232c-.239-.682-.474-1.349-.7-2.03l-2.831,5.352a6.984,6.984,0,0,1-2.01,1.559,1.511,1.511,0,0,1-2.094-.42,1.465,1.465,0,0,1-.227-.562L64.14,56.975,61.848,55.42l-5.321-.832c.187.282.379.564.566.84A13.406,13.406,0,0,1,59.3,59.6c.519,2.244-.284,4.147-4.009,5.574a3.236,3.236,0,0,1,.325.21c1.487,1.087,1.874,2.73-1.225,6.966q-1.177,1.6-2.022,2.833c-.443.647-.857,1.266-1.235,1.864l.828,5.206a2.84,2.84,0,0,1-.482,2.057c-.7,1.054-1.713,1.468-2.574,2.314-.117.117-.227.235-.323.348l.36,1.485A1.5,1.5,0,0,1,48.5,89.93a3.711,3.711,0,0,1-.931.509,6.469,6.469,0,0,1-.443,1.271A7.737,7.737,0,0,1,43.8,95.251c-1.571.776-3.369.614-5.09.651a1.511,1.511,0,0,1-1.542-1.478,10.386,10.386,0,0,0-.294-2.17c-.43-1.829-1.291-3.47-1.783-5.292-.434-1.608-.675-3.785.278-5.249a5.492,5.492,0,0,0,.142-1.553,5.808,5.808,0,0,0-.941-2.733,8.448,8.448,0,0,1-1.347-3c-.054-2.467-.91-2.99-2.084-2.965-1.8.037-3.6.581-5.463.62a3.433,3.433,0,0,1-2.36-1.032,18.041,18.041,0,0,1-3.1-4.419,4.576,4.576,0,0,1-.645-2.879c-.13-4.19-.249-8.152,3.731-11.159a15,15,0,0,1,4.9-5.016,13.707,13.707,0,0,1,6.808-1.528,1.511,1.511,0,0,1,1.542,1.478l.045,2.142,1.829.754.025-.124c.332-1.742,2.212-1.174,3.311-.8,1.324.447,2.055,1.207,3.63.865.6-.132.465-.294.527-.9l-1.791.2a1.509,1.509,0,0,1-1.186-.4,4.723,4.723,0,0,1-.579-.855,7.934,7.934,0,0,0-3.212-2.187,22.464,22.464,0,0,1-5.9-3.789c-7.166,2.714-9.464,3.116-10.078,1.516-.36-.935.113-1.7.75-2.733a7.115,7.115,0,0,0,1.363-3.478,1.51,1.51,0,0,1,.976-1.446l6.017-2.905c-1.433,0-1.985-2.475-2.214-3.484-.321-1.417,1.446-2.045,2.385-2.708q.958-.68,2.29-1.742l.056-.045A38.742,38.742,0,0,0,3.621,56.584a40.65,40.65,0,0,0,.329,15.6c.031.136.062.272.095.408L11.1,75.787A1.544,1.544,0,0,1,12,77.3a12.67,12.67,0,0,1-.91,4.779,12.22,12.22,0,0,0-.813,3.653,1.425,1.425,0,0,1-.066.412A38.306,38.306,0,0,0,20.739,96.2,38.834,38.834,0,0,0,34.8,101.76a40.447,40.447,0,0,0,15.6-.332,38.809,38.809,0,0,0,13.817-6.153A38.352,38.352,0,0,0,74.417,84.642a38.834,38.834,0,0,0,5.562-14.064,39.712,39.712,0,0,0,.589-7.782c-.027.566-.049,1.155-.037,1.726ZM61.105,10.24a8.016,8.016,0,1,1-8.016,8.018A8.016,8.016,0,0,1,61.105,10.24Zm9.268,30.138a33.171,33.171,0,0,1-7.063,5.869,2.928,2.928,0,0,1-3.3.119A40.3,40.3,0,0,1,50.1,37.518a31.953,31.953,0,0,1-6.74-14.6A20.119,20.119,0,0,1,45.908,8.749,17.82,17.82,0,0,1,49.86,4.376,19.024,19.024,0,0,1,61.834,0,17.571,17.571,0,0,1,76.4,8.418c2.759,4.551,3.377,10.3,2.185,16.078A34.249,34.249,0,0,1,70.373,40.378Zm-8.8,3.521c14.046-8.517,19.465-28.252,9.8-37.071-5.893-5.379-13.615-5.01-19.694-.167C41.02,15.151,45.8,33.877,61.572,43.9Zm14.573-4.207A41.9,41.9,0,0,1,82.6,54.321,43.59,43.59,0,0,1,82.953,71.1a41.845,41.845,0,0,1-6,15.162,41.3,41.3,0,0,1-11,11.478,41.893,41.893,0,0,1-14.894,6.637,43.43,43.43,0,0,1-16.782.356,41.834,41.834,0,0,1-15.162-6,41.275,41.275,0,0,1-11.478-11A41.853,41.853,0,0,1,1,72.839,43.6,43.6,0,0,1,.648,56.055a41.921,41.921,0,0,1,17-26.637,41.411,41.411,0,0,1,21.491-7.555c.039.313.084.628.136.941.171,1.065.4,2.137.686,3.21a1.874,1.874,0,0,0-1.291.358,16.225,16.225,0,0,0-2.049,1.441Q35.3,28.86,34.19,29.65c-.432.307-.828.572-1.188.8.562.119,1.028.408,1.417,2.109.249,1.077.772,2.768-.521,3.391l-5.654,2.728A11.036,11.036,0,0,1,26.482,42.8a.22.22,0,0,1-.045.051,26.271,26.271,0,0,1,6.54-3.538,1.51,1.51,0,0,1,1.7.309A19.3,19.3,0,0,0,40.458,43.5c1.767.855,3.231,1.563,4.3,3.058l2.434-.27A1.511,1.511,0,0,1,49,47.74a8.969,8.969,0,0,1-.6,4.026,3.548,3.548,0,0,1-2.36,1.544c-2.076.461-3.132-.091-4.938-.842a1.919,1.919,0,0,1-.371.995,1.509,1.509,0,0,1-1.748.449l-4.347-1.794a1.515,1.515,0,0,1-1.044-1.406l-.033-1.567A9.2,9.2,0,0,0,29.682,50.2a12.562,12.562,0,0,0-3.98,4.223,1.5,1.5,0,0,1-.42.455c-2.908,2.088-2.809,5.341-2.7,8.789.021.7.035.972.039,1.182,0,.07.08.047.247.354a15.642,15.642,0,0,0,2.467,3.608q.275.247.278.247c1.837-.039,3.636-.579,5.463-.62,2.93-.06,5.061.982,5.166,5.924,0,.006.885,1.476.916,1.526a8.445,8.445,0,0,1,1.271,5.961c-.321,1.985-1.1,1.839-.426,4.332.5,1.845,1.359,3.484,1.81,5.387q.154.658.247,1.283a5.783,5.783,0,0,0,2.411-.3A4.587,4.587,0,0,0,44.7,89.339a1.529,1.529,0,0,1,1.028-1.371c-.171-.7-.469-1.408-.056-2.086a8.927,8.927,0,0,1,2.634-2.636,2.788,2.788,0,0,0,.632-.55c.043-.072.043-.006.027-.113l-.883-5.537a1.5,1.5,0,0,1,.194-1.122q.633-1.013,1.614-2.442.954-1.384,2.067-2.905a15.445,15.445,0,0,0,1.884-2.753,3.412,3.412,0,0,0-.624-.276,4.612,4.612,0,0,1-2.294-1.495c-.69-.96-.955-2.537.6-2.9,4.077-.943,5.07-1.874,4.837-2.875A11.694,11.694,0,0,0,54.6,57.123,22.831,22.831,0,0,1,52.36,53.3a1.508,1.508,0,0,1,1.573-2.172L62.1,52.4a2.632,2.632,0,0,1,1.139.332l2.986,2.02a1.514,1.514,0,0,1,.756,1.034l1.231,6.159,3.68-6.954a1.512,1.512,0,0,1,2.813.119c.933,2.741,1.861,5.444,2.821,8.173.033-.832.095-1.915.212-3a17.868,17.868,0,0,1,.546-3.052,4.557,4.557,0,0,1,.752-1.551,35.748,35.748,0,0,0-1.013-4.219A34.619,34.619,0,0,0,76.137,46.6a39.055,39.055,0,0,0-2.191-3.982q1.168-1.421,2.2-2.928ZM8.04,81.7c.062-.194.126-.385.192-.577a12.248,12.248,0,0,0,.737-3l-3.2-1.448A35.771,35.771,0,0,0,8.04,81.7Z" transform="translate(15.25 12.25)" fill="#fff"/>
    </g>
    <path id="country-icon-6" data-name="country-icon" d="M80.531,64.522a1.507,1.507,0,0,1-1.149,1.5,10.064,10.064,0,0,1-2.728.741,1.514,1.514,0,0,1-1.487-1.1l-1.489-4.232c-.239-.682-.474-1.349-.7-2.03l-2.831,5.352a6.984,6.984,0,0,1-2.01,1.559,1.511,1.511,0,0,1-2.094-.42,1.465,1.465,0,0,1-.227-.562L64.14,56.975,61.848,55.42l-5.321-.832c.187.282.379.564.566.84A13.406,13.406,0,0,1,59.3,59.6c.519,2.244-.284,4.147-4.009,5.574a3.236,3.236,0,0,1,.325.21c1.487,1.087,1.874,2.73-1.225,6.966q-1.177,1.6-2.022,2.833c-.443.647-.857,1.266-1.235,1.864l.828,5.206a2.84,2.84,0,0,1-.482,2.057c-.7,1.054-1.713,1.468-2.574,2.314-.117.117-.227.235-.323.348l.36,1.485A1.5,1.5,0,0,1,48.5,89.93a3.711,3.711,0,0,1-.931.509,6.469,6.469,0,0,1-.443,1.271A7.737,7.737,0,0,1,43.8,95.251c-1.571.776-3.369.614-5.09.651a1.511,1.511,0,0,1-1.542-1.478,10.386,10.386,0,0,0-.294-2.17c-.43-1.829-1.291-3.47-1.783-5.292-.434-1.608-.675-3.785.278-5.249a5.492,5.492,0,0,0,.142-1.553,5.808,5.808,0,0,0-.941-2.733,8.448,8.448,0,0,1-1.347-3c-.054-2.467-.91-2.99-2.084-2.965-1.8.037-3.6.581-5.463.62a3.433,3.433,0,0,1-2.36-1.032,18.041,18.041,0,0,1-3.1-4.419,4.576,4.576,0,0,1-.645-2.879c-.13-4.19-.249-8.152,3.731-11.159a15,15,0,0,1,4.9-5.016,13.707,13.707,0,0,1,6.808-1.528,1.511,1.511,0,0,1,1.542,1.478l.045,2.142,1.829.754.025-.124c.332-1.742,2.212-1.174,3.311-.8,1.324.447,2.055,1.207,3.63.865.6-.132.465-.294.527-.9l-1.791.2a1.509,1.509,0,0,1-1.186-.4,4.723,4.723,0,0,1-.579-.855,7.934,7.934,0,0,0-3.212-2.187,22.464,22.464,0,0,1-5.9-3.789c-7.166,2.714-9.464,3.116-10.078,1.516-.36-.935.113-1.7.75-2.733a7.115,7.115,0,0,0,1.363-3.478,1.51,1.51,0,0,1,.976-1.446l6.017-2.905c-1.433,0-1.985-2.475-2.214-3.484-.321-1.417,1.446-2.045,2.385-2.708q.958-.68,2.29-1.742l.056-.045A38.742,38.742,0,0,0,3.621,56.584a40.65,40.65,0,0,0,.329,15.6c.031.136.062.272.095.408L11.1,75.787A1.544,1.544,0,0,1,12,77.3a12.67,12.67,0,0,1-.91,4.779,12.22,12.22,0,0,0-.813,3.653,1.425,1.425,0,0,1-.066.412A38.306,38.306,0,0,0,20.739,96.2,38.834,38.834,0,0,0,34.8,101.76a40.447,40.447,0,0,0,15.6-.332,38.809,38.809,0,0,0,13.817-6.153A38.352,38.352,0,0,0,74.417,84.642a38.834,38.834,0,0,0,5.562-14.064,39.712,39.712,0,0,0,.589-7.782c-.027.566-.049,1.155-.037,1.726ZM61.105,10.24a8.016,8.016,0,1,1-8.016,8.018A8.016,8.016,0,0,1,61.105,10.24Zm9.268,30.138a33.171,33.171,0,0,1-7.063,5.869,2.928,2.928,0,0,1-3.3.119A40.3,40.3,0,0,1,50.1,37.518a31.953,31.953,0,0,1-6.74-14.6A20.119,20.119,0,0,1,45.908,8.749,17.82,17.82,0,0,1,49.86,4.376,19.024,19.024,0,0,1,61.834,0,17.571,17.571,0,0,1,76.4,8.418c2.759,4.551,3.377,10.3,2.185,16.078A34.249,34.249,0,0,1,70.373,40.378Zm-8.8,3.521c14.046-8.517,19.465-28.252,9.8-37.071-5.893-5.379-13.615-5.01-19.694-.167C41.02,15.151,45.8,33.877,61.572,43.9Zm14.573-4.207A41.9,41.9,0,0,1,82.6,54.321,43.59,43.59,0,0,1,82.953,71.1a41.845,41.845,0,0,1-6,15.162,41.3,41.3,0,0,1-11,11.478,41.893,41.893,0,0,1-14.894,6.637,43.43,43.43,0,0,1-16.782.356,41.834,41.834,0,0,1-15.162-6,41.275,41.275,0,0,1-11.478-11A41.853,41.853,0,0,1,1,72.839,43.6,43.6,0,0,1,.648,56.055a41.921,41.921,0,0,1,17-26.637,41.411,41.411,0,0,1,21.491-7.555c.039.313.084.628.136.941.171,1.065.4,2.137.686,3.21a1.874,1.874,0,0,0-1.291.358,16.225,16.225,0,0,0-2.049,1.441Q35.3,28.86,34.19,29.65c-.432.307-.828.572-1.188.8.562.119,1.028.408,1.417,2.109.249,1.077.772,2.768-.521,3.391l-5.654,2.728A11.036,11.036,0,0,1,26.482,42.8a.22.22,0,0,1-.045.051,26.271,26.271,0,0,1,6.54-3.538,1.51,1.51,0,0,1,1.7.309A19.3,19.3,0,0,0,40.458,43.5c1.767.855,3.231,1.563,4.3,3.058l2.434-.27A1.511,1.511,0,0,1,49,47.74a8.969,8.969,0,0,1-.6,4.026,3.548,3.548,0,0,1-2.36,1.544c-2.076.461-3.132-.091-4.938-.842a1.919,1.919,0,0,1-.371.995,1.509,1.509,0,0,1-1.748.449l-4.347-1.794a1.515,1.515,0,0,1-1.044-1.406l-.033-1.567A9.2,9.2,0,0,0,29.682,50.2a12.562,12.562,0,0,0-3.98,4.223,1.5,1.5,0,0,1-.42.455c-2.908,2.088-2.809,5.341-2.7,8.789.021.7.035.972.039,1.182,0,.07.08.047.247.354a15.642,15.642,0,0,0,2.467,3.608q.275.247.278.247c1.837-.039,3.636-.579,5.463-.62,2.93-.06,5.061.982,5.166,5.924,0,.006.885,1.476.916,1.526a8.445,8.445,0,0,1,1.271,5.961c-.321,1.985-1.1,1.839-.426,4.332.5,1.845,1.359,3.484,1.81,5.387q.154.658.247,1.283a5.783,5.783,0,0,0,2.411-.3A4.587,4.587,0,0,0,44.7,89.339a1.529,1.529,0,0,1,1.028-1.371c-.171-.7-.469-1.408-.056-2.086a8.927,8.927,0,0,1,2.634-2.636,2.788,2.788,0,0,0,.632-.55c.043-.072.043-.006.027-.113l-.883-5.537a1.5,1.5,0,0,1,.194-1.122q.633-1.013,1.614-2.442.954-1.384,2.067-2.905a15.445,15.445,0,0,0,1.884-2.753,3.412,3.412,0,0,0-.624-.276,4.612,4.612,0,0,1-2.294-1.495c-.69-.96-.955-2.537.6-2.9,4.077-.943,5.07-1.874,4.837-2.875A11.694,11.694,0,0,0,54.6,57.123,22.831,22.831,0,0,1,52.36,53.3a1.508,1.508,0,0,1,1.573-2.172L62.1,52.4a2.632,2.632,0,0,1,1.139.332l2.986,2.02a1.514,1.514,0,0,1,.756,1.034l1.231,6.159,3.68-6.954a1.512,1.512,0,0,1,2.813.119c.933,2.741,1.861,5.444,2.821,8.173.033-.832.095-1.915.212-3a17.868,17.868,0,0,1,.546-3.052,4.557,4.557,0,0,1,.752-1.551,35.748,35.748,0,0,0-1.013-4.219A34.619,34.619,0,0,0,76.137,46.6a39.055,39.055,0,0,0-2.191-3.982q1.168-1.421,2.2-2.928ZM8.04,81.7c.062-.194.126-.385.192-.577a12.248,12.248,0,0,0,.737-3l-3.2-1.448A35.771,35.771,0,0,0,8.04,81.7Z" transform="translate(15.251 12.253)" fill="none" stroke="aqua" stroke-width="0.5"/>
  </g>
</svg>
