<svg xmlns="http://www.w3.org/2000/svg" xmlns:xlink="http://www.w3.org/1999/xlink" width="79" height="72.07" viewBox="0 0 79 72.07">
  <defs>
    <linearGradient id="linear-gradient" x1="0.5" x2="0.5" y2="1" gradientUnits="objectBoundingBox">
      <stop offset="0" stop-color="#33d4a3"/>
      <stop offset="0.304" stop-color="#2dacb1"/>
      <stop offset="1" stop-color="#2986c0"/>
      <stop offset="1" stop-color="#2466cf"/>
    </linearGradient>
  </defs>
  <path id="developer_board_24dp_5F6368_FILL0_wght200_GRAD0_opsz24" d="M136.507-727.93a7.049,7.049,0,0,1-5.194-2.083,7.049,7.049,0,0,1-2.083-5.194v-57.516a7.048,7.048,0,0,1,2.083-5.193A7.048,7.048,0,0,1,136.507-800h57.517a7.047,7.047,0,0,1,5.192,2.083,7.048,7.048,0,0,1,2.083,5.193v9.7h6.93v4.5H201.3v12.3h6.93v4.5H201.3v12.3h6.93v4.5H201.3v9.7a7.049,7.049,0,0,1-2.083,5.194,7.048,7.048,0,0,1-5.192,2.083Zm0-4.5h57.517a2.648,2.648,0,0,0,1.905-.866,2.65,2.65,0,0,0,.866-1.907v-57.516a2.649,2.649,0,0,0-.866-1.906,2.649,2.649,0,0,0-1.905-.866H136.507a2.652,2.652,0,0,0-1.907.866,2.649,2.649,0,0,0-.866,1.906v57.516a2.65,2.65,0,0,0,.866,1.907A2.652,2.652,0,0,0,136.507-732.434Zm9.7-12.474H164.4v-13.687H146.208Zm24.427-28.932h13.687v-9.182H170.635Zm-24.427,9.009H164.4v-18.191H146.208Zm24.427,19.923h13.687v-22.7H170.635Zm-36.9-50.588v0Z" transform="translate(-129.23 800)" fill="url(#linear-gradient)"/>
</svg>
