<svg id="Group_5678" data-name="Group 5678" xmlns="http://www.w3.org/2000/svg" xmlns:xlink="http://www.w3.org/1999/xlink" width="44.73" height="49.038" viewBox="0 0 44.73 49.038">
  <defs>
    <linearGradient id="linear-gradient" y1="0.498" x2="0.998" y2="0.498" gradientUnits="objectBoundingBox">
      <stop offset="0" stop-color="#55bf9b"/>
      <stop offset="0.15" stop-color="#2dacb1"/>
      <stop offset="0.4" stop-color="#2986c1"/>
      <stop offset="1" stop-color="#3b67b1"/>
    </linearGradient>
    <linearGradient id="linear-gradient-2" x1="0" y1="0.5" x2="1" y2="0.5" xlink:href="#linear-gradient"/>
    <linearGradient id="linear-gradient-3" x1="0" y1="0.5" x2="1" y2="0.5" xlink:href="#linear-gradient"/>
    <linearGradient id="linear-gradient-4" x1="0" y1="0.497" x2="1.003" y2="0.497" xlink:href="#linear-gradient"/>
  </defs>
  <path id="Path_25015" data-name="Path 25015" d="M247.751,161.5h-3.886l-.216-.431c-.324-.646-1.4-2.315-2.752-2.368-1.241-.108-2.429,1.292-3.238,2.476l-.216.377h-13.33l-.216-.377c-.432-.7-1.835-2.422-3.346-2.422h0q-1.538,0-3.076,2.422l-.216.377H214.4l.108-8.343c.324-.592,3.184-5.813,6.638-6.459H233.5l.216.161a48.672,48.672,0,0,1,5.72,4.845c1.349.215,6.746,1.4,8.311,4.791v.323l.054,4.683Zm-2.914-1.615h1.3v-2.907c-1.3-2.368-5.666-3.5-7.285-3.768h-.27l-.216-.269a43.97,43.97,0,0,0-5.451-4.683H221.2c-2,.377-4.371,3.876-5.235,5.437v6.136h.324c1.241-1.884,2.644-2.853,4.209-2.853,2.159,0,3.832,1.992,4.479,2.853h11.6c1.4-1.992,2.914-2.907,4.425-2.853,1.943.108,3.292,1.938,3.832,2.853Z" transform="translate(-208.314 -129.524)" fill="url(#linear-gradient)"/>
  <path id="Path_25016" data-name="Path 25016" d="M218.357,155.492l-1.025-.431,1.349-3.283H216.63l1.835-4.468.971.377-1.187,3.014H220.3Z" transform="translate(-198.51 -127.07)" fill="url(#linear-gradient-2)"/>
  <path id="Path_25017" data-name="Path 25017" d="M235.6,188.9a19.969,19.969,0,0,1-5.666-.7c-18.942-5.383-16.568-23.631-16.568-23.846,2.7-19.755,21.425-19.97,21.8-19.97h0v1.615h0c-1.025,0-17.647.269-20.129,18.571-.108.7-2.159,17.064,15.38,22.07.756.215,17.971,5.168,25.634-15.018h0s1.619-6.729-2.159-15.233l1.457-.646c4.047,9.1,2.267,16.095,2.213,16.418-5.451,14.318-15.6,16.794-21.964,16.794Z" transform="translate(-213.272 -139.912)" fill="url(#linear-gradient-3)"/>
  <path id="Path_25018" data-name="Path 25018" d="M226.138,153.831H221.5a5.1,5.1,0,0,1-4.263-5.329c0-3.607,3.886-4.9,4.048-4.952h4.8v2.261H228.3a1.079,1.079,0,0,1,.755.807,1.313,1.313,0,0,1-.486,1.13l-.162.161h-2.428v1.776H228.4a1.047,1.047,0,0,1,.108,1.884l-.162.108H226.03v2.153Zm-4.587-9.2c-.486.161-3.238,1.292-3.238,3.983a3.908,3.908,0,0,0,3.292,4.2h3.454v-1.992h-.108v-3.983h.378V146.3h-.27V144.68h-3.454Z" transform="translate(-195.876 -143.55)" fill="url(#linear-gradient-4)"/>
  <ellipse id="Ellipse_1015" data-name="Ellipse 1015" cx="2.213" cy="2.207" rx="2.213" ry="2.207" transform="translate(10.029 29.548)" fill="url(#linear-gradient-2)"/>
  <ellipse id="Ellipse_1016" data-name="Ellipse 1016" cx="2.213" cy="2.207" rx="2.213" ry="2.207" transform="translate(30.098 29.548)" fill="url(#linear-gradient-2)"/>
</svg>
