<svg xmlns="http://www.w3.org/2000/svg" width="461" height="58" viewBox="0 0 461 58">
  <g id="Group_5420" data-name="Group 5420" transform="translate(-52 -41)">
    <text id="Energy_Analytics" data-name="Energy Analytics" transform="translate(245 88)" fill="#fff" font-size="52" font-family="ArialMT, Arial"><tspan x="-192.207" y="0">Energy Analytics</tspan></text>
    <g id="Group_5119" data-name="Group 5119" transform="translate(14282.379 11622.139)">
      <path id="Path_24986" data-name="Path 24986" d="M46.369,9.024c-9.966-4.783-21.613-3.667-28.783,5-2.3,2.8-6.228,9.813-1.475,11.605-5.531,6.3-8.86,6.945-15.119,1C.348,24.5,2.5,25.464,3.031,24.46,9.1,13.059,10.949,3.533,26.764,1.055c6.084-.953,17.29,1.6,19.605,7.979Z" transform="translate(-13833 -11581)" fill="#fff"/>
      <g id="Group_5117" data-name="Group 5117" transform="translate(-13810.75 -11571.955)">
        <path id="Path_24987" data-name="Path 24987" d="M27.57,42.037l12.087-14.6c.512-3.042-3.81-.031-2.991-2.96L40.661,8.85C48.722,23.661,48.138,41.853,27.57,42.037Z" transform="translate(-21.601 -8.85)" fill="#fff"/>
        <path id="Path_24988" data-name="Path 24988" d="M28.715,27.789C35.5,27.5,27.23,38.35,25.2,37.868,15.7,27.083,27.906,20,36.3,14.75c-.43,5.613-4.22,9.065-7.57,13.039Z" transform="translate(-21.743 -8.707)" fill="#fff"/>
      </g>
      <g id="Group_5118" data-name="Group 5118" transform="translate(-13819.91 -11554.726)">
        <path id="Path_24989" data-name="Path 24989" d="M19.738,48.666c9.751,7.139,33.31-4.558,30.289-16.45-.246-.953-3.052-.154-2.049-2.643,3.606-.707,4.978-4.978,9.1-3.647,1.5.481,7.037,4.353,6.013,5.613-.133.164-1.793.061-2.469,1.024-2.991,4.271-4.179,11.124-9.628,16.594-3.1,3.124-11.11,6.6-11.083,6.545H25.791c.253.219-5.47-3.923-8.071-6.033l2.018-1Z" transform="translate(-12.68 -25.671)" fill="#fff"/>
        <path id="Path_24990" data-name="Path 24990" d="M19.857,48.217l-2.018,1c-1.4-1.137-4.527-1.3-5.04-5.019,3.421-.625,5.111,2.581,7.057,4.015Z" transform="translate(-12.8 -25.222)" fill="#fff"/>
      </g>
    </g>
  </g>
</svg>
