<svg xmlns="http://www.w3.org/2000/svg" xmlns:xlink="http://www.w3.org/1999/xlink" width="234.552" height="234.575" viewBox="0 0 234.552 234.575">
  <defs>
    <linearGradient id="linear-gradient" x1="-0.354" y1="0.462" x2="1" y2="0.5" gradientUnits="objectBoundingBox">
      <stop offset="0" stop-color="#33b281" stop-opacity="0"/>
      <stop offset="0" stop-color="#2466ad"/>
      <stop offset="0.591" stop-color="#2564ac" stop-opacity="0.98"/>
      <stop offset="1" stop-color="#d9dada" stop-opacity="0.984"/>
      <stop offset="1" stop-color="#2b8a97"/>
      <stop offset="1" stop-color="#680080" stop-opacity="0"/>
    </linearGradient>
    <linearGradient id="linear-gradient-2" y1="0.5" x2="1" y2="0.5" gradientUnits="objectBoundingBox">
      <stop offset="0" stop-color="#1bc384"/>
      <stop offset="0.19" stop-color="#1c9ba9"/>
      <stop offset="0.51" stop-color="#1f54ed"/>
      <stop offset="0.99" stop-color="#008054"/>
      <stop offset="1" stop-color="#680080"/>
    </linearGradient>
    <linearGradient id="linear-gradient-3" x1="0.5" x2="0.5" y2="1" gradientUnits="objectBoundingBox">
      <stop offset="0" stop-color="#1bc384"/>
      <stop offset="0.347" stop-color="#1c9ba9"/>
      <stop offset="0.546" stop-color="#1f54ed"/>
      <stop offset="1" stop-color="#00805a"/>
    </linearGradient>
  </defs>
  <g id="Group_5419" data-name="Group 5419" transform="translate(-3059 -549)">
    <g id="Group_5415" data-name="Group 5415">
      <g id="Group_2284" data-name="Group 2284" transform="translate(3084 575.346)" opacity="0.3">
        <path id="Path_3542" data-name="Path 3542" d="M137.505,279.261a92.175,92.175,0,1,1,92.175-92.175A92.271,92.271,0,0,1,137.505,279.261Zm0-172.9a80.722,80.722,0,1,0,80.722,80.722,80.818,80.818,0,0,0-80.722-80.722Z" transform="translate(-45.33 -94.91)" fill="url(#linear-gradient)"/>
      </g>
      <path id="Path_13830" data-name="Path 13830" d="M138.284,280.709a93.084,93.084,0,0,1,0-186.169,7.054,7.054,0,1,1,0,14.108,78.94,78.94,0,1,0,78.94,78.94,7.054,7.054,0,0,1,14.108,0,93.171,93.171,0,0,1-93.084,93.084Z" transform="matrix(0.951, 0.309, -0.309, 0.951, 3102.756, 445.119)" fill="url(#linear-gradient-2)"/>
    </g>
    <path id="Path_3605" data-name="Path 3605" d="M6371.3,468.83l25.3-38.43-3.72,27.753h14.881l-27.753,40.439,7.18-29.762Z" transform="translate(-3209.299 179.6)" fill="url(#linear-gradient-3)"/>
  </g>
</svg>
