<svg xmlns="http://www.w3.org/2000/svg" width="76.586" height="111.999" viewBox="0 0 76.586 111.999">
  <g id="Group_5469" data-name="Group 5469" transform="translate(-3199.359 -325)">
    <path id="Path_24684" data-name="Path 24684" d="M279.116,93.356H202.53V81.96h76.586Zm-74.136-2.451h71.685V84.411H204.981Z" transform="translate(2996.829 262.892)" fill="#fff"/>
    <path id="Path_24685" data-name="Path 24685" d="M212.693,157.406l-9.8-73.033,2.328-.368,9.558,70.827,44.6-.368,8.577-71.685,2.451.245-8.823,73.768Z" transform="translate(3000.881 272.119)" fill="#fff"/>
    <rect id="Rectangle_1973" data-name="Rectangle 1973" width="47.3" height="2.451" transform="translate(3214.064 418.007)" fill="#fff"/>
    <path id="Path_24688" data-name="Path 24688" d="M204.578,95.71l-1.838-9.068,24.14-5.882,3.431,13.112-2.328.613L225.042,83.7,205.681,88.48l1.225,6.74Z" transform="translate(2999.193 249.387)" fill="#fff"/>
    <path id="Path_24689" data-name="Path 24689" d="M228.415,95.737l-1.838-1.593,2.206-2.573L212.117,84.1l-4.9,10.171-2.206-.98,5.882-12.376,21.934,9.8Z" transform="translate(3024.739 251.075)" fill="#fff"/>
    <path id="Path_24690" data-name="Path 24690" d="M231.268,92.594l-2.328-.613.858-4.044-21.444-4.779-1.715,4.289-2.328-.858,2.573-6.249L232.739,86.1Z" transform="translate(3016.861 244.66)" fill="#fff"/>
    <path id="Path_24691" data-name="Path 24691" d="M223.573,94.522,213.4,83.861,207.643,86.8l-1.1-2.206,7.352-3.676,11.518,11.886Z" transform="translate(3041.957 251.188)" fill="#fff"/>
    <path id="Path_24692" data-name="Path 24692" d="M204.28,100.245l7.965-15.195,2.206,1.1-6,11.519H214.7l-.368,1.1L214.083,100H204.4Z" transform="translate(3016.523 297.666)" fill="#fff"/>
    <path id="Path_24693" data-name="Path 24693" d="M222.573,93.155H205.54V90.7h12.744l-2.328-3.8,2.083-1.225Z" transform="translate(3030.703 304.756)" fill="#fff"/>
    <path id="Path_24694" data-name="Path 24694" d="M216.543,100.453l-6.494-11.519-2.7,4.9-2.083-1.1,4.656-8.823,8.7,15.317Z" transform="translate(3027.665 284.836)" fill="#fff"/>
    <path id="Path_24695" data-name="Path 24695" d="M211,92.355l-1.348-4.289-4.166,1.348-.858-2.328,6.617-2.206,2.083,6.74Z" transform="translate(3020.462 295.752)" fill="#fff"/>
    <path id="Path_24696" data-name="Path 24696" d="M209.526,95.348l-4.166-5.514,5.759-4.044,1.348,1.961-3.676,2.573,2.7,3.554Z" transform="translate(3028.678 305.993)" fill="#fff"/>
    <path id="Path_24697" data-name="Path 24697" d="M212.57,92.192l-6.74-2.083.735-2.328,4.289,1.348,1.225-4.289,2.328.613Z" transform="translate(3033.967 295.302)" fill="#fff"/>
    <path id="Path_24686" data-name="Path 24686" d="M212.965,104.11a7.965,7.965,0,1,1,7.965-7.965A7.949,7.949,0,0,1,212.965,104.11Zm0-13.479a5.514,5.514,0,1,0,5.514,5.514A5.491,5.491,0,0,0,212.965,90.631Z" transform="translate(3024.626 332.89)" fill="#fff"/>
    <circle id="Ellipse_1004" data-name="Ellipse 1004" cx="6" cy="6" r="6" transform="translate(3232 423)" fill="#195c6f"/>
    <path id="Path_24687" data-name="Path 24687" d="M209.153,96.217a3.883,3.883,0,1,1,3.883-3.883A3.882,3.882,0,0,1,209.153,96.217Zm0-5.621a1.748,1.748,0,0,0-1.737,1.84,1.723,1.723,0,0,0,1.737,1.737,1.789,1.789,0,1,0,0-3.577Z" transform="translate(3028.561 336.667)" fill="#fff"/>
  </g>
</svg>
