<svg xmlns="http://www.w3.org/2000/svg" xmlns:xlink="http://www.w3.org/1999/xlink" width="28.341" height="49.691" viewBox="0 0 28.341 49.691">
  <defs>
    <linearGradient id="linear-gradient" y1="0.502" x2="1" y2="0.502" gradientUnits="objectBoundingBox">
      <stop offset="0" stop-color="#54be9a"/>
      <stop offset="0.33" stop-color="#2cabb0"/>
      <stop offset="0.74" stop-color="#2785c0"/>
      <stop offset="1" stop-color="#3a67b0"/>
    </linearGradient>
    <linearGradient id="linear-gradient-2" x1="0" y1="0.5" x2="1" y2="0.5" xlink:href="#linear-gradient"/>
    <linearGradient id="linear-gradient-3" x1="-0.001" y1="0.5" x2="1" y2="0.5" xlink:href="#linear-gradient"/>
    <linearGradient id="linear-gradient-4" x1="0" y1="0.5" x2="1.001" y2="0.5" xlink:href="#linear-gradient"/>
    <linearGradient id="linear-gradient-5" x1="0" y1="0.499" x2="1" y2="0.499" xlink:href="#linear-gradient"/>
    <linearGradient id="linear-gradient-6" x1="-0.001" y1="0.498" x2="1.001" y2="0.498" xlink:href="#linear-gradient"/>
    <linearGradient id="linear-gradient-7" x1="0.002" y1="0.5" x2="1.005" y2="0.5" xlink:href="#linear-gradient"/>
    <linearGradient id="linear-gradient-8" x1="0" y1="0.5" x2="0.999" y2="0.5" xlink:href="#linear-gradient"/>
    <linearGradient id="linear-gradient-9" x1="-0.002" y1="0.5" x2="0.997" y2="0.5" xlink:href="#linear-gradient"/>
  </defs>
  <g id="Group_5289" data-name="Group 5289" transform="translate(-60.001 -1207)">
    <g id="Group_4172" data-name="Group 4172" transform="translate(38.001 -51.432)" opacity="0.64">
      <g id="Group_4169" data-name="Group 4169" transform="translate(22 1258.432)">
        <path id="Path_24919" data-name="Path 24919" d="M54.031,87.749a3.233,3.233,0,0,1-3.108-2.337l-.023-.159V82.19H79.136l.045.51a14.193,14.193,0,0,1,0,2.6,3.514,3.514,0,0,1-2.031,2.371l-.113.057H76.9c-.2,0-20.635-.227-22.666,0H54.02Zm-2-2.564a2.069,2.069,0,0,0,2.11,1.429c2.008-.227,20.681-.023,22.643,0,.408-.227,1.191-.771,1.271-1.418a12.705,12.705,0,0,0,.034-1.86H52.034Z" transform="translate(-50.9 -82.19)" fill="url(#linear-gradient)"/>
        <path id="Path_24920" data-name="Path 24920" d="M59.291,96.582a.527.527,0,0,1-.261-.068l-4.56-2.36V86.667a.567.567,0,0,1,1.134,0v6.807l3.948,2.042a.555.555,0,0,1,.238.76A.566.566,0,0,1,59.291,96.582Z" transform="translate(-50.42 -81.664)" fill="url(#linear-gradient-2)"/>
        <path id="Path_24921" data-name="Path 24921" d="M68.2,96.582a.553.553,0,0,1-.5-.306.559.559,0,0,1,.238-.76l3.948-2.042V86.667a.567.567,0,0,1,1.134,0v7.487l-4.56,2.36A.527.527,0,0,1,68.2,96.582Z" transform="translate(-48.65 -81.664)" fill="url(#linear-gradient-3)"/>
        <path id="Path_24922" data-name="Path 24922" d="M70.065,100.093H58.55l.023-2.995a1.9,1.9,0,0,1,2.144-1.463c.783.147,5,.079,7.635,0a2.07,2.07,0,0,1,1.77,1.475,8.084,8.084,0,0,1,.011,2.507l-.079.476Zm-10.38-1.134h9.393a6.967,6.967,0,0,0-.057-1.611.9.9,0,0,0-.726-.59c-.579.034-6.625.216-7.782,0-.51-.1-.749.386-.817.59v1.611Z" transform="translate(-49.872 -80.388)" fill="url(#linear-gradient-4)"/>
        <path id="Path_24923" data-name="Path 24923" d="M63.707,97.473a.562.562,0,0,1-.567-.567V90.927a.567.567,0,0,1,1.134,0v5.978A.562.562,0,0,1,63.707,97.473Z" transform="translate(-49.254 -81.092)" fill="url(#linear-gradient-5)"/>
        <path id="Path_24924" data-name="Path 24924" d="M63.326,106.38a1.546,1.546,0,0,1-1.452-.715c-.76-1.327.862-3.948,1.191-4.458l.476-.737.476.749c.295.476,1.758,2.9,1.032,4.288a1.744,1.744,0,0,1-1.6.885h-.136Zm.2-3.721c-.533,1.021-.885,2.076-.669,2.439.079.147.386.147.545.147.51-.023.613-.2.635-.272.227-.442-.1-1.452-.522-2.314Z" transform="translate(-49.452 -79.733)" fill="url(#linear-gradient-6)"/>
        <path id="Path_24925" data-name="Path 24925" d="M56.966,106.046a2,2,0,0,1-1.214-.465,1.6,1.6,0,0,1-.76-1.565c.272-1.5,3.2-2.473,3.778-2.655l.839-.261-.113.873c-.079.556-.51,3.347-1.963,3.948a1.458,1.458,0,0,1-.579.113Zm1.237-3.267c-1.066.442-2.008,1.021-2.076,1.441-.034.159.193.363.329.465.408.318.6.227.658.2C57.579,104.7,57.965,103.72,58.2,102.779Z" transform="translate(-50.352 -79.648)" fill="url(#linear-gradient-7)"/>
        <path id="Path_24926" data-name="Path 24926" d="M70.946,105.923a.691.691,0,0,1-.272-.034c-1.4-.306-2.2-2.9-2.416-3.7l-.227-.851.874.147c.522.091,3.176.6,3.71,2.019a1.662,1.662,0,0,1-.4,1.713A1.626,1.626,0,0,1,70.946,105.923Zm-1.293-3.086c.374.987.885,1.872,1.259,1.951.136.034.34-.193.42-.284.295-.363.238-.533.216-.59-.159-.431-1.032-.817-1.895-1.078Z" transform="translate(-48.597 -79.616)" fill="url(#linear-gradient-8)"/>
      </g>
      <path id="Path_25014" data-name="Path 25014" d="M185.166,76.282a9.7,9.7,0,0,1-2.9-.442h0l-.147-.057a1.8,1.8,0,0,1-.227-.1l-.057-.023a1.963,1.963,0,0,1-.352-.159l-.045-.023h0c-1.963-1.032-3.006-3.891-3.052-4.152h0a7.17,7.17,0,0,1,2.337-5.944c1.4-1.554,2.711-3.018,2.133-7.147l-.227-1.634,1.282,1.237c1.656,1.6,5.3,5.116,3.823,10.04a6.863,6.863,0,0,0,1.044-3.8l-.147-2.1,1.191,1.781c3.176,4.844,2.779,9.166-1.1,11.855l-.125.068a9.9,9.9,0,0,1-3.392.6ZM182.7,74.8a8.665,8.665,0,0,0,5.389-.147c3.573-2.518,3.052-5.956,1.6-8.792-.408,2.235-1.452,3.63-3.074,4.073l-1.259.352.6-1.157c2.235-4.265-.023-7.5-1.872-9.461a8.078,8.078,0,0,1-2.552,6.489,6.059,6.059,0,0,0-2.053,5.048c.238.681,1.259,2.915,2.745,3.415l.476.159V74.8Zm-1.123.034.374.261Z" transform="translate(-149.557 1231.841)" fill="url(#linear-gradient-9)"/>
    </g>
    <g id="Group_5287" data-name="Group 5287" transform="translate(38.001 -51.432)" opacity="0.64">
      <g id="Group_4169-2" data-name="Group 4169" transform="translate(22 1258.432)">
        <path id="Path_24919-2" data-name="Path 24919" d="M54.031,87.749a3.233,3.233,0,0,1-3.108-2.337l-.023-.159V82.19H79.136l.045.51a14.193,14.193,0,0,1,0,2.6,3.514,3.514,0,0,1-2.031,2.371l-.113.057H76.9c-.2,0-20.635-.227-22.666,0H54.02Zm-2-2.564a2.069,2.069,0,0,0,2.11,1.429c2.008-.227,20.681-.023,22.643,0,.408-.227,1.191-.771,1.271-1.418a12.705,12.705,0,0,0,.034-1.86H52.034Z" transform="translate(-50.9 -82.19)" fill="url(#linear-gradient)"/>
        <path id="Path_24920-2" data-name="Path 24920" d="M59.291,96.582a.527.527,0,0,1-.261-.068l-4.56-2.36V86.667a.567.567,0,0,1,1.134,0v6.807l3.948,2.042a.555.555,0,0,1,.238.76A.566.566,0,0,1,59.291,96.582Z" transform="translate(-50.42 -81.664)" fill="url(#linear-gradient-2)"/>
        <path id="Path_24921-2" data-name="Path 24921" d="M68.2,96.582a.553.553,0,0,1-.5-.306.559.559,0,0,1,.238-.76l3.948-2.042V86.667a.567.567,0,0,1,1.134,0v7.487l-4.56,2.36A.527.527,0,0,1,68.2,96.582Z" transform="translate(-48.65 -81.664)" fill="url(#linear-gradient-3)"/>
        <path id="Path_24922-2" data-name="Path 24922" d="M70.065,100.093H58.55l.023-2.995a1.9,1.9,0,0,1,2.144-1.463c.783.147,5,.079,7.635,0a2.07,2.07,0,0,1,1.77,1.475,8.084,8.084,0,0,1,.011,2.507l-.079.476Zm-10.38-1.134h9.393a6.967,6.967,0,0,0-.057-1.611.9.9,0,0,0-.726-.59c-.579.034-6.625.216-7.782,0-.51-.1-.749.386-.817.59v1.611Z" transform="translate(-49.872 -80.388)" fill="url(#linear-gradient-4)"/>
        <path id="Path_24923-2" data-name="Path 24923" d="M63.707,97.473a.562.562,0,0,1-.567-.567V90.927a.567.567,0,0,1,1.134,0v5.978A.562.562,0,0,1,63.707,97.473Z" transform="translate(-49.254 -81.092)" fill="url(#linear-gradient-5)"/>
        <path id="Path_24924-2" data-name="Path 24924" d="M63.326,106.38a1.546,1.546,0,0,1-1.452-.715c-.76-1.327.862-3.948,1.191-4.458l.476-.737.476.749c.295.476,1.758,2.9,1.032,4.288a1.744,1.744,0,0,1-1.6.885h-.136Zm.2-3.721c-.533,1.021-.885,2.076-.669,2.439.079.147.386.147.545.147.51-.023.613-.2.635-.272.227-.442-.1-1.452-.522-2.314Z" transform="translate(-49.452 -79.733)" fill="url(#linear-gradient-6)"/>
        <path id="Path_24925-2" data-name="Path 24925" d="M56.966,106.046a2,2,0,0,1-1.214-.465,1.6,1.6,0,0,1-.76-1.565c.272-1.5,3.2-2.473,3.778-2.655l.839-.261-.113.873c-.079.556-.51,3.347-1.963,3.948a1.458,1.458,0,0,1-.579.113Zm1.237-3.267c-1.066.442-2.008,1.021-2.076,1.441-.034.159.193.363.329.465.408.318.6.227.658.2C57.579,104.7,57.965,103.72,58.2,102.779Z" transform="translate(-50.352 -79.648)" fill="url(#linear-gradient-7)"/>
        <path id="Path_24926-2" data-name="Path 24926" d="M70.946,105.923a.691.691,0,0,1-.272-.034c-1.4-.306-2.2-2.9-2.416-3.7l-.227-.851.874.147c.522.091,3.176.6,3.71,2.019a1.662,1.662,0,0,1-.4,1.713A1.626,1.626,0,0,1,70.946,105.923Zm-1.293-3.086c.374.987.885,1.872,1.259,1.951.136.034.34-.193.42-.284.295-.363.238-.533.216-.59-.159-.431-1.032-.817-1.895-1.078Z" transform="translate(-48.597 -79.616)" fill="url(#linear-gradient-8)"/>
      </g>
      <path id="Path_25014-2" data-name="Path 25014" d="M185.166,76.282a9.7,9.7,0,0,1-2.9-.442h0l-.147-.057a1.8,1.8,0,0,1-.227-.1l-.057-.023a1.963,1.963,0,0,1-.352-.159l-.045-.023h0c-1.963-1.032-3.006-3.891-3.052-4.152h0a7.17,7.17,0,0,1,2.337-5.944c1.4-1.554,2.711-3.018,2.133-7.147l-.227-1.634,1.282,1.237c1.656,1.6,5.3,5.116,3.823,10.04a6.863,6.863,0,0,0,1.044-3.8l-.147-2.1,1.191,1.781c3.176,4.844,2.779,9.166-1.1,11.855l-.125.068a9.9,9.9,0,0,1-3.392.6ZM182.7,74.8a8.665,8.665,0,0,0,5.389-.147c3.573-2.518,3.052-5.956,1.6-8.792-.408,2.235-1.452,3.63-3.074,4.073l-1.259.352.6-1.157c2.235-4.265-.023-7.5-1.872-9.461a8.078,8.078,0,0,1-2.552,6.489,6.059,6.059,0,0,0-2.053,5.048c.238.681,1.259,2.915,2.745,3.415l.476.159V74.8Zm-1.123.034.374.261Z" transform="translate(-149.557 1231.841)" fill="url(#linear-gradient-9)"/>
    </g>
    <g id="Group_5288" data-name="Group 5288" transform="translate(38.001 -51.432)" opacity="0.64">
      <g id="Group_4169-3" data-name="Group 4169" transform="translate(22 1258.432)">
        <path id="Path_24919-3" data-name="Path 24919" d="M54.031,87.749a3.233,3.233,0,0,1-3.108-2.337l-.023-.159V82.19H79.136l.045.51a14.193,14.193,0,0,1,0,2.6,3.514,3.514,0,0,1-2.031,2.371l-.113.057H76.9c-.2,0-20.635-.227-22.666,0H54.02Zm-2-2.564a2.069,2.069,0,0,0,2.11,1.429c2.008-.227,20.681-.023,22.643,0,.408-.227,1.191-.771,1.271-1.418a12.705,12.705,0,0,0,.034-1.86H52.034Z" transform="translate(-50.9 -82.19)" fill="url(#linear-gradient)"/>
        <path id="Path_24920-3" data-name="Path 24920" d="M59.291,96.582a.527.527,0,0,1-.261-.068l-4.56-2.36V86.667a.567.567,0,0,1,1.134,0v6.807l3.948,2.042a.555.555,0,0,1,.238.76A.566.566,0,0,1,59.291,96.582Z" transform="translate(-50.42 -81.664)" fill="url(#linear-gradient-2)"/>
        <path id="Path_24921-3" data-name="Path 24921" d="M68.2,96.582a.553.553,0,0,1-.5-.306.559.559,0,0,1,.238-.76l3.948-2.042V86.667a.567.567,0,0,1,1.134,0v7.487l-4.56,2.36A.527.527,0,0,1,68.2,96.582Z" transform="translate(-48.65 -81.664)" fill="url(#linear-gradient-3)"/>
        <path id="Path_24922-3" data-name="Path 24922" d="M70.065,100.093H58.55l.023-2.995a1.9,1.9,0,0,1,2.144-1.463c.783.147,5,.079,7.635,0a2.07,2.07,0,0,1,1.77,1.475,8.084,8.084,0,0,1,.011,2.507l-.079.476Zm-10.38-1.134h9.393a6.967,6.967,0,0,0-.057-1.611.9.9,0,0,0-.726-.59c-.579.034-6.625.216-7.782,0-.51-.1-.749.386-.817.59v1.611Z" transform="translate(-49.872 -80.388)" fill="url(#linear-gradient-4)"/>
        <path id="Path_24923-3" data-name="Path 24923" d="M63.707,97.473a.562.562,0,0,1-.567-.567V90.927a.567.567,0,0,1,1.134,0v5.978A.562.562,0,0,1,63.707,97.473Z" transform="translate(-49.254 -81.092)" fill="url(#linear-gradient-5)"/>
        <path id="Path_24924-3" data-name="Path 24924" d="M63.326,106.38a1.546,1.546,0,0,1-1.452-.715c-.76-1.327.862-3.948,1.191-4.458l.476-.737.476.749c.295.476,1.758,2.9,1.032,4.288a1.744,1.744,0,0,1-1.6.885h-.136Zm.2-3.721c-.533,1.021-.885,2.076-.669,2.439.079.147.386.147.545.147.51-.023.613-.2.635-.272.227-.442-.1-1.452-.522-2.314Z" transform="translate(-49.452 -79.733)" fill="url(#linear-gradient-6)"/>
        <path id="Path_24925-3" data-name="Path 24925" d="M56.966,106.046a2,2,0,0,1-1.214-.465,1.6,1.6,0,0,1-.76-1.565c.272-1.5,3.2-2.473,3.778-2.655l.839-.261-.113.873c-.079.556-.51,3.347-1.963,3.948a1.458,1.458,0,0,1-.579.113Zm1.237-3.267c-1.066.442-2.008,1.021-2.076,1.441-.034.159.193.363.329.465.408.318.6.227.658.2C57.579,104.7,57.965,103.72,58.2,102.779Z" transform="translate(-50.352 -79.648)" fill="url(#linear-gradient-7)"/>
        <path id="Path_24926-3" data-name="Path 24926" d="M70.946,105.923a.691.691,0,0,1-.272-.034c-1.4-.306-2.2-2.9-2.416-3.7l-.227-.851.874.147c.522.091,3.176.6,3.71,2.019a1.662,1.662,0,0,1-.4,1.713A1.626,1.626,0,0,1,70.946,105.923Zm-1.293-3.086c.374.987.885,1.872,1.259,1.951.136.034.34-.193.42-.284.295-.363.238-.533.216-.59-.159-.431-1.032-.817-1.895-1.078Z" transform="translate(-48.597 -79.616)" fill="url(#linear-gradient-8)"/>
      </g>
      <path id="Path_25014-3" data-name="Path 25014" d="M185.166,76.282a9.7,9.7,0,0,1-2.9-.442h0l-.147-.057a1.8,1.8,0,0,1-.227-.1l-.057-.023a1.963,1.963,0,0,1-.352-.159l-.045-.023h0c-1.963-1.032-3.006-3.891-3.052-4.152h0a7.17,7.17,0,0,1,2.337-5.944c1.4-1.554,2.711-3.018,2.133-7.147l-.227-1.634,1.282,1.237c1.656,1.6,5.3,5.116,3.823,10.04a6.863,6.863,0,0,0,1.044-3.8l-.147-2.1,1.191,1.781c3.176,4.844,2.779,9.166-1.1,11.855l-.125.068a9.9,9.9,0,0,1-3.392.6ZM182.7,74.8a8.665,8.665,0,0,0,5.389-.147c3.573-2.518,3.052-5.956,1.6-8.792-.408,2.235-1.452,3.63-3.074,4.073l-1.259.352.6-1.157c2.235-4.265-.023-7.5-1.872-9.461a8.078,8.078,0,0,1-2.552,6.489,6.059,6.059,0,0,0-2.053,5.048c.238.681,1.259,2.915,2.745,3.415l.476.159V74.8Zm-1.123.034.374.261Z" transform="translate(-149.557 1231.841)" fill="url(#linear-gradient-9)"/>
    </g>
  </g>
</svg>
