<svg xmlns="http://www.w3.org/2000/svg" xmlns:xlink="http://www.w3.org/1999/xlink" width="31.06" height="31.43" viewBox="0 0 31.06 31.43">
  <defs>
    <linearGradient id="linear-gradient" y1="0.5" x2="1" y2="0.5" gradientUnits="objectBoundingBox">
      <stop offset="0" stop-color="#54be9a"/>
      <stop offset="0.33" stop-color="#2cabb0"/>
      <stop offset="0.74" stop-color="#2785c0"/>
      <stop offset="1" stop-color="#3a67b0"/>
    </linearGradient>
    <linearGradient id="linear-gradient-2" x1="0" y1="0.5" x2="1" y2="0.5" xlink:href="#linear-gradient"/>
    <linearGradient id="linear-gradient-3" x1="0.002" y1="0.491" x2="1.007" y2="0.491" xlink:href="#linear-gradient"/>
    <linearGradient id="linear-gradient-4" x1="0" y1="0.503" x2="1" y2="0.503" xlink:href="#linear-gradient"/>
    <linearGradient id="linear-gradient-5" x1="0" y1="0.501" x2="0.997" y2="0.501" xlink:href="#linear-gradient"/>
    <linearGradient id="linear-gradient-6" x1="0" y1="0.497" x2="0.999" y2="0.497" xlink:href="#linear-gradient"/>
    <linearGradient id="linear-gradient-7" x1="0.002" y1="0.499" x2="1" y2="0.499" xlink:href="#linear-gradient"/>
    <linearGradient id="linear-gradient-8" x1="0" y1="0.5" x2="1" y2="0.5" xlink:href="#linear-gradient"/>
    <linearGradient id="linear-gradient-9" x1="-0.002" y1="0.5" x2="0.997" y2="0.5" xlink:href="#linear-gradient"/>
  </defs>
  <g id="Group_5286" data-name="Group 5286" transform="translate(-57.999 -1126)">
    <g id="Group_5283" data-name="Group 5283">
      <g id="Group_4171" data-name="Group 4171" transform="translate(-11915.086 18442.869)" opacity="0.64">
        <path id="Path_24909" data-name="Path 24909" d="M193.76,49.7a4.264,4.264,0,0,1-.5-.02c-2.39-.21-18.98,0-19.15,0h-.07l-.06-.02a3.328,3.328,0,0,1-2.62-3.01V42.52h26.03v.49c.03.63.1,3.8,0,4.38-.14.85-1.34,2.31-3.63,2.31Zm-6.56-1.12c2.87,0,5.31.02,6.15.1,2.25.2,3.03-1.23,3.06-1.46.06-.33.03-2.28,0-3.7H172.36v3.13c0,1.39,1.49,1.92,1.81,2.02.88-.01,7.71-.1,13.03-.1Z" transform="translate(11804.245 -17359.389)" fill="url(#linear-gradient)"/>
        <path id="Path_24910" data-name="Path 24910" d="M191.18,54.21a2.172,2.172,0,0,1-.44-.03c-1.7-.15-13.74,0-13.86,0h-.07l-.06-.02a2.559,2.559,0,0,1-2-2.32V48.69h19.33v.49a23.651,23.651,0,0,1-.15,3.15l-.04.16a2.982,2.982,0,0,1-2.7,1.71Zm-4.81-1.1c2.09,0,3.87.02,4.48.07a2.008,2.008,0,0,0,2.09-1.05,22.217,22.217,0,0,0,.14-2.45H175.74v2.15c0,.9.95,1.26,1.2,1.34.73,0,5.6-.07,9.43-.07Z" transform="translate(11804.245 -17359.389)" fill="url(#linear-gradient-2)"/>
        <path id="Path_24911" data-name="Path 24911" d="M174.12,56.52a1.334,1.334,0,0,1-.95-.36,1.717,1.717,0,0,1-.45-1.24l1,.04a.8.8,0,0,0,.15.49c.02.02.09.09.31.08l.07,1h-.13Z" transform="translate(11804.245 -17359.389)" fill="url(#linear-gradient-3)"/>
        <path id="Path_24912" data-name="Path 24912" d="M194.53,56.57h-.09l.07-1c.09,0,.43-.03.56-.61l.98.21a1.592,1.592,0,0,1-1.52,1.39Z" transform="translate(11804.245 -17359.389)" fill="url(#linear-gradient-4)"/>
        <path id="Path_24913" data-name="Path 24913" d="M174.03,58.35a2.813,2.813,0,0,1-2.41-1.32c-.46-.68-.9-1.99-.7-2.35l.44.24.5-.03a3.526,3.526,0,0,0,1.05,2.07,1.862,1.862,0,0,0,1.48.36l.14.99a4.154,4.154,0,0,1-.49.03Z" transform="translate(11804.245 -17359.389)" fill="url(#linear-gradient-5)"/>
        <path id="Path_24914" data-name="Path 24914" d="M194.5,58.42a.6.6,0,0,1-.25-.04l.23-.44-.03-.5a3.526,3.526,0,0,0,2.07-1.05,1.885,1.885,0,0,0,.36-1.49l.99-.13a2.869,2.869,0,0,1-1.24,2.87,4.71,4.71,0,0,1-2.13.79Z" transform="translate(11804.245 -17359.389)" fill="url(#linear-gradient-6)"/>
        <path id="Path_24915" data-name="Path 24915" d="M174.23,60.35h-.05a5.378,5.378,0,0,1-5.34-5.42h1a4.388,4.388,0,0,0,4.35,4.43h.23l.05,1h-.23Z" transform="translate(11804.245 -17359.389)" fill="url(#linear-gradient-7)"/>
        <path id="Path_24916" data-name="Path 24916" d="M194.52,60.44h-.04v-1h.04a4.385,4.385,0,0,0,4.38-4.35v-.23l1-.04v.28a5.377,5.377,0,0,1-5.37,5.34Z" transform="translate(11804.245 -17359.389)" fill="url(#linear-gradient-8)"/>
        <path id="Path_24917" data-name="Path 24917" d="M184.36,73.95a8.546,8.546,0,0,1-2.56-.39h0l-.13-.05a1.588,1.588,0,0,1-.2-.09l-.05-.02a1.73,1.73,0,0,1-.31-.14l-.04-.02h0a6.906,6.906,0,0,1-2.69-3.66h0a6.321,6.321,0,0,1,2.06-5.24c1.23-1.37,2.39-2.66,1.88-6.3l-.2-1.44,1.13,1.09c1.46,1.41,4.67,4.51,3.37,8.85a6.05,6.05,0,0,0,.92-3.35l-.13-1.85,1.05,1.57c2.8,4.27,2.45,8.08-.97,10.45l-.11.06a8.722,8.722,0,0,1-2.99.53Zm-2.17-1.31a7.638,7.638,0,0,0,4.75-.13c3.15-2.22,2.69-5.25,1.41-7.75-.36,1.97-1.28,3.2-2.71,3.59l-1.11.31.53-1.02c1.97-3.76-.02-6.61-1.65-8.34a7.121,7.121,0,0,1-2.25,5.72,5.341,5.341,0,0,0-1.81,4.45c.21.6,1.11,2.57,2.42,3.01l.42.14v.02Zm-.99.03.33.23Z" transform="translate(11804.245 -17359.389)" fill="url(#linear-gradient-9)"/>
      </g>
    </g>
    <g id="Group_5284" data-name="Group 5284">
      <g id="Group_4171-2" data-name="Group 4171" transform="translate(-11915.086 18442.869)" opacity="0.64">
        <path id="Path_24909-2" data-name="Path 24909" d="M193.76,49.7a4.264,4.264,0,0,1-.5-.02c-2.39-.21-18.98,0-19.15,0h-.07l-.06-.02a3.328,3.328,0,0,1-2.62-3.01V42.52h26.03v.49c.03.63.1,3.8,0,4.38-.14.85-1.34,2.31-3.63,2.31Zm-6.56-1.12c2.87,0,5.31.02,6.15.1,2.25.2,3.03-1.23,3.06-1.46.06-.33.03-2.28,0-3.7H172.36v3.13c0,1.39,1.49,1.92,1.81,2.02.88-.01,7.71-.1,13.03-.1Z" transform="translate(11804.245 -17359.389)" fill="url(#linear-gradient)"/>
        <path id="Path_24910-2" data-name="Path 24910" d="M191.18,54.21a2.172,2.172,0,0,1-.44-.03c-1.7-.15-13.74,0-13.86,0h-.07l-.06-.02a2.559,2.559,0,0,1-2-2.32V48.69h19.33v.49a23.651,23.651,0,0,1-.15,3.15l-.04.16a2.982,2.982,0,0,1-2.7,1.71Zm-4.81-1.1c2.09,0,3.87.02,4.48.07a2.008,2.008,0,0,0,2.09-1.05,22.217,22.217,0,0,0,.14-2.45H175.74v2.15c0,.9.95,1.26,1.2,1.34.73,0,5.6-.07,9.43-.07Z" transform="translate(11804.245 -17359.389)" fill="url(#linear-gradient-2)"/>
        <path id="Path_24911-2" data-name="Path 24911" d="M174.12,56.52a1.334,1.334,0,0,1-.95-.36,1.717,1.717,0,0,1-.45-1.24l1,.04a.8.8,0,0,0,.15.49c.02.02.09.09.31.08l.07,1h-.13Z" transform="translate(11804.245 -17359.389)" fill="url(#linear-gradient-3)"/>
        <path id="Path_24912-2" data-name="Path 24912" d="M194.53,56.57h-.09l.07-1c.09,0,.43-.03.56-.61l.98.21a1.592,1.592,0,0,1-1.52,1.39Z" transform="translate(11804.245 -17359.389)" fill="url(#linear-gradient-4)"/>
        <path id="Path_24913-2" data-name="Path 24913" d="M174.03,58.35a2.813,2.813,0,0,1-2.41-1.32c-.46-.68-.9-1.99-.7-2.35l.44.24.5-.03a3.526,3.526,0,0,0,1.05,2.07,1.862,1.862,0,0,0,1.48.36l.14.99a4.154,4.154,0,0,1-.49.03Z" transform="translate(11804.245 -17359.389)" fill="url(#linear-gradient-5)"/>
        <path id="Path_24914-2" data-name="Path 24914" d="M194.5,58.42a.6.6,0,0,1-.25-.04l.23-.44-.03-.5a3.526,3.526,0,0,0,2.07-1.05,1.885,1.885,0,0,0,.36-1.49l.99-.13a2.869,2.869,0,0,1-1.24,2.87,4.71,4.71,0,0,1-2.13.79Z" transform="translate(11804.245 -17359.389)" fill="url(#linear-gradient-6)"/>
        <path id="Path_24915-2" data-name="Path 24915" d="M174.23,60.35h-.05a5.378,5.378,0,0,1-5.34-5.42h1a4.388,4.388,0,0,0,4.35,4.43h.23l.05,1h-.23Z" transform="translate(11804.245 -17359.389)" fill="url(#linear-gradient-7)"/>
        <path id="Path_24916-2" data-name="Path 24916" d="M194.52,60.44h-.04v-1h.04a4.385,4.385,0,0,0,4.38-4.35v-.23l1-.04v.28a5.377,5.377,0,0,1-5.37,5.34Z" transform="translate(11804.245 -17359.389)" fill="url(#linear-gradient-8)"/>
        <path id="Path_24917-2" data-name="Path 24917" d="M184.36,73.95a8.546,8.546,0,0,1-2.56-.39h0l-.13-.05a1.588,1.588,0,0,1-.2-.09l-.05-.02a1.73,1.73,0,0,1-.31-.14l-.04-.02h0a6.906,6.906,0,0,1-2.69-3.66h0a6.321,6.321,0,0,1,2.06-5.24c1.23-1.37,2.39-2.66,1.88-6.3l-.2-1.44,1.13,1.09c1.46,1.41,4.67,4.51,3.37,8.85a6.05,6.05,0,0,0,.92-3.35l-.13-1.85,1.05,1.57c2.8,4.27,2.45,8.08-.97,10.45l-.11.06a8.722,8.722,0,0,1-2.99.53Zm-2.17-1.31a7.638,7.638,0,0,0,4.75-.13c3.15-2.22,2.69-5.25,1.41-7.75-.36,1.97-1.28,3.2-2.71,3.59l-1.11.31.53-1.02c1.97-3.76-.02-6.61-1.65-8.34a7.121,7.121,0,0,1-2.25,5.72,5.341,5.341,0,0,0-1.81,4.45c.21.6,1.11,2.57,2.42,3.01l.42.14v.02Zm-.99.03.33.23Z" transform="translate(11804.245 -17359.389)" fill="url(#linear-gradient-9)"/>
      </g>
    </g>
    <g id="Group_5285" data-name="Group 5285">
      <g id="Group_4171-3" data-name="Group 4171" transform="translate(-11915.086 18442.869)" opacity="0.64">
        <path id="Path_24909-3" data-name="Path 24909" d="M193.76,49.7a4.264,4.264,0,0,1-.5-.02c-2.39-.21-18.98,0-19.15,0h-.07l-.06-.02a3.328,3.328,0,0,1-2.62-3.01V42.52h26.03v.49c.03.63.1,3.8,0,4.38-.14.85-1.34,2.31-3.63,2.31Zm-6.56-1.12c2.87,0,5.31.02,6.15.1,2.25.2,3.03-1.23,3.06-1.46.06-.33.03-2.28,0-3.7H172.36v3.13c0,1.39,1.49,1.92,1.81,2.02.88-.01,7.71-.1,13.03-.1Z" transform="translate(11804.245 -17359.389)" fill="url(#linear-gradient)"/>
        <path id="Path_24910-3" data-name="Path 24910" d="M191.18,54.21a2.172,2.172,0,0,1-.44-.03c-1.7-.15-13.74,0-13.86,0h-.07l-.06-.02a2.559,2.559,0,0,1-2-2.32V48.69h19.33v.49a23.651,23.651,0,0,1-.15,3.15l-.04.16a2.982,2.982,0,0,1-2.7,1.71Zm-4.81-1.1c2.09,0,3.87.02,4.48.07a2.008,2.008,0,0,0,2.09-1.05,22.217,22.217,0,0,0,.14-2.45H175.74v2.15c0,.9.95,1.26,1.2,1.34.73,0,5.6-.07,9.43-.07Z" transform="translate(11804.245 -17359.389)" fill="url(#linear-gradient-2)"/>
        <path id="Path_24911-3" data-name="Path 24911" d="M174.12,56.52a1.334,1.334,0,0,1-.95-.36,1.717,1.717,0,0,1-.45-1.24l1,.04a.8.8,0,0,0,.15.49c.02.02.09.09.31.08l.07,1h-.13Z" transform="translate(11804.245 -17359.389)" fill="url(#linear-gradient-3)"/>
        <path id="Path_24912-3" data-name="Path 24912" d="M194.53,56.57h-.09l.07-1c.09,0,.43-.03.56-.61l.98.21a1.592,1.592,0,0,1-1.52,1.39Z" transform="translate(11804.245 -17359.389)" fill="url(#linear-gradient-4)"/>
        <path id="Path_24913-3" data-name="Path 24913" d="M174.03,58.35a2.813,2.813,0,0,1-2.41-1.32c-.46-.68-.9-1.99-.7-2.35l.44.24.5-.03a3.526,3.526,0,0,0,1.05,2.07,1.862,1.862,0,0,0,1.48.36l.14.99a4.154,4.154,0,0,1-.49.03Z" transform="translate(11804.245 -17359.389)" fill="url(#linear-gradient-5)"/>
        <path id="Path_24914-3" data-name="Path 24914" d="M194.5,58.42a.6.6,0,0,1-.25-.04l.23-.44-.03-.5a3.526,3.526,0,0,0,2.07-1.05,1.885,1.885,0,0,0,.36-1.49l.99-.13a2.869,2.869,0,0,1-1.24,2.87,4.71,4.71,0,0,1-2.13.79Z" transform="translate(11804.245 -17359.389)" fill="url(#linear-gradient-6)"/>
        <path id="Path_24915-3" data-name="Path 24915" d="M174.23,60.35h-.05a5.378,5.378,0,0,1-5.34-5.42h1a4.388,4.388,0,0,0,4.35,4.43h.23l.05,1h-.23Z" transform="translate(11804.245 -17359.389)" fill="url(#linear-gradient-7)"/>
        <path id="Path_24916-3" data-name="Path 24916" d="M194.52,60.44h-.04v-1h.04a4.385,4.385,0,0,0,4.38-4.35v-.23l1-.04v.28a5.377,5.377,0,0,1-5.37,5.34Z" transform="translate(11804.245 -17359.389)" fill="url(#linear-gradient-8)"/>
        <path id="Path_24917-3" data-name="Path 24917" d="M184.36,73.95a8.546,8.546,0,0,1-2.56-.39h0l-.13-.05a1.588,1.588,0,0,1-.2-.09l-.05-.02a1.73,1.73,0,0,1-.31-.14l-.04-.02h0a6.906,6.906,0,0,1-2.69-3.66h0a6.321,6.321,0,0,1,2.06-5.24c1.23-1.37,2.39-2.66,1.88-6.3l-.2-1.44,1.13,1.09c1.46,1.41,4.67,4.51,3.37,8.85a6.05,6.05,0,0,0,.92-3.35l-.13-1.85,1.05,1.57c2.8,4.27,2.45,8.08-.97,10.45l-.11.06a8.722,8.722,0,0,1-2.99.53Zm-2.17-1.31a7.638,7.638,0,0,0,4.75-.13c3.15-2.22,2.69-5.25,1.41-7.75-.36,1.97-1.28,3.2-2.71,3.59l-1.11.31.53-1.02c1.97-3.76-.02-6.61-1.65-8.34a7.121,7.121,0,0,1-2.25,5.72,5.341,5.341,0,0,0-1.81,4.45c.21.6,1.11,2.57,2.42,3.01l.42.14v.02Zm-.99.03.33.23Z" transform="translate(11804.245 -17359.389)" fill="url(#linear-gradient-9)"/>
      </g>
    </g>
  </g>
</svg>
