<svg xmlns="http://www.w3.org/2000/svg" xmlns:xlink="http://www.w3.org/1999/xlink" width="529.309" height="121.5" viewBox="0 0 529.309 121.5">
  <defs>
    <linearGradient id="linear-gradient" x1="0.5" x2="0.5" y2="1" gradientUnits="objectBoundingBox">
      <stop offset="0" stop-color="#33d4a3"/>
      <stop offset="0.304" stop-color="#2dacb1"/>
      <stop offset="1" stop-color="#2986c0"/>
      <stop offset="1" stop-color="#2466cf"/>
    </linearGradient>
  </defs>
  <g id="Group_2937" data-name="Group 2937" transform="translate(-14.422 -354)">
    <path id="chevron_right_24dp_5F6368_FILL0_wght400_GRAD0_opsz24_1_" data-name="chevron_right_24dp_5F6368_FILL0_wght400_GRAD0_opsz24 (1)" d="M329.815-707.2,320-717.013,322.987-720l12.8,12.8-12.8,12.8L320-697.384Z" transform="translate(-196 62) rotate(90)" fill="#fff"/>
    <line id="Line_1577" data-name="Line 1577" x2="529.309" transform="translate(14.422 474.5)" fill="none" stroke="#fff" stroke-width="2"/>
    <g id="Group_2589" data-name="Group 2589" transform="translate(34.675 359)">
      <path id="diversity_1_24dp_5F6368_FILL0_wght200_GRAD0_opsz24" d="M44.119-765.983a29.7,29.7,0,0,1-3.078-6.892A24.3,24.3,0,0,1,40-779.808a19.479,19.479,0,0,1,5.88-14.312A19.478,19.478,0,0,1,60.192-800,21.092,21.092,0,0,1,70.7-797.161a28.7,28.7,0,0,1,8.965,8.186,28.7,28.7,0,0,1,8.966-8.186A21.092,21.092,0,0,1,99.133-800a19.479,19.479,0,0,1,14.312,5.88,19.479,19.479,0,0,1,5.88,14.312,23.171,23.171,0,0,1-1.04,6.726,34.611,34.611,0,0,1-3.078,7.031,6.976,6.976,0,0,0-1.332-1.333,8.989,8.989,0,0,0-1.6-.983,29.709,29.709,0,0,0,2.579-5.894,19.01,19.01,0,0,0,.867-5.547,16.016,16.016,0,0,0-4.812-11.774,16.017,16.017,0,0,0-11.774-4.812,16.634,16.634,0,0,0-10.113,3.352,48.683,48.683,0,0,0-9.358,9.628,48.2,48.2,0,0,0-9.358-9.638,16.67,16.67,0,0,0-10.113-3.342,16.017,16.017,0,0,0-11.774,4.812,16.016,16.016,0,0,0-4.812,11.774,19.789,19.789,0,0,0,.867,5.72,28.32,28.32,0,0,0,2.51,5.79,13.241,13.241,0,0,0-1.56,1.02A7.079,7.079,0,0,0,44.119-765.983ZM40-738.565v-3.114q0-3.343,3.53-5.523a17.219,17.219,0,0,1,9.161-2.181q1.031,0,1.974.079a14.789,14.789,0,0,1,1.8.26,13.081,13.081,0,0,0-1.2,2.912,12.132,12.132,0,0,0-.423,3.252v4.313Zm21.634,0v-4.057q0-4.473,5-7.108t13.046-2.635q8.122,0,13.065,2.635t4.944,7.108v4.057Zm42.852,0v-4.313a13.5,13.5,0,0,0-.378-3.252,12.182,12.182,0,0,0-1.133-2.912,14.751,14.751,0,0,1,1.8-.26q.946-.079,1.932-.079a17,17,0,0,1,9.149,2.181q3.47,2.181,3.47,5.523v3.114ZM79.654-748.758a27.133,27.133,0,0,0-10.122,1.63q-4.022,1.63-4.189,4.195v.763H94v-.763q-.188-2.565-4.165-4.195A27.112,27.112,0,0,0,79.654-748.758Zm-26.965-4.021a4.939,4.939,0,0,1-3.624-1.508,4.94,4.94,0,0,1-1.507-3.624,4.838,4.838,0,0,1,1.507-3.578,4.98,4.98,0,0,1,3.624-1.484,4.993,4.993,0,0,1,3.613,1.484,4.821,4.821,0,0,1,1.518,3.578,4.922,4.922,0,0,1-1.518,3.624A4.951,4.951,0,0,1,52.689-752.779Zm54.016,0a4.961,4.961,0,0,1-3.6-1.508,4.905,4.905,0,0,1-1.529-3.624,4.8,4.8,0,0,1,1.529-3.578,5.018,5.018,0,0,1,3.616-1.484,4.942,4.942,0,0,1,3.634,1.484,4.875,4.875,0,0,1,1.484,3.578,5,5,0,0,1-1.475,3.624A4.91,4.91,0,0,1,106.7-752.779Zm-27.018-2.289a7.667,7.667,0,0,1-5.606-2.306,7.592,7.592,0,0,1-2.323-5.6,7.593,7.593,0,0,1,2.3-5.632,7.68,7.68,0,0,1,5.6-2.273,7.662,7.662,0,0,1,5.632,2.265A7.612,7.612,0,0,1,87.567-763a7.738,7.738,0,0,1-2.265,5.606A7.528,7.528,0,0,1,79.687-755.068Zm-.024-12.2a4.2,4.2,0,0,0-3.02,1.236,4.088,4.088,0,0,0-1.279,3.063,4.129,4.129,0,0,0,1.279,3.02,4.169,4.169,0,0,0,3.054,1.279,4.056,4.056,0,0,0,3.02-1.279,4.227,4.227,0,0,0,1.245-3.055,4.127,4.127,0,0,0-1.236-3.02A4.145,4.145,0,0,0,79.662-767.272ZM79.662-762.973ZM79.683-742.171Z" transform="translate(-40 800)" fill="url(#linear-gradient)"/>
    </g>
    <text id="Integrated_Work_Place_Management" data-name="Integrated Work Place 
Management" transform="translate(142 383)" fill="#fff" font-size="31" font-family="Helvetica"><tspan x="0" y="0">Integrated Work Place </tspan><tspan x="0" y="36">Management</tspan></text>
  </g>
</svg>
