<svg xmlns="http://www.w3.org/2000/svg" width="249.099" height="66.44" viewBox="0 0 249.099 66.44">
  <g id="Group_922" data-name="Group 922" transform="translate(-16.206 -170.095)">
    <path id="Path_566" data-name="Path 566" d="M0,0V63.921H95.559l11.338-11.3h68.63V0Z" transform="translate(17.206 171.095)" fill="rgba(180,255,172,0.06)" stroke="#b4ffac" stroke-width="2"/>
    <path id="Path_567" data-name="Path 567" d="M79.1,40.458l-8.338,8.294h61.849l8.337-8.294Z" transform="translate(47.831 187.783)" fill="#b4ffac"/>
    <text id="Integrated_Work_Place_Management" data-name="Integrated Work Place 
Management" transform="translate(102.238 198.653)" fill="#b4ffac" font-size="16" font-family="Helvetica"><tspan x="-81" y="0">Integrated Work Place </tspan><tspan x="-46" y="19">Management</tspan></text>
    <g id="Rectangle_140" data-name="Rectangle 140" transform="translate(200.86 171.016)" fill="rgba(180,255,172,0.06)" stroke="#b4ffac" stroke-width="2">
      <rect width="64.445" height="53.358" stroke="none"/>
      <rect x="1" y="1" width="62.445" height="51.358" fill="none"/>
    </g>
    <path id="diversity_1_24dp_5F6368_FILL0_wght200_GRAD0_opsz24" d="M41.655-786.33a11.936,11.936,0,0,1-1.237-2.77A9.765,9.765,0,0,1,40-791.886a7.827,7.827,0,0,1,2.363-5.751A7.827,7.827,0,0,1,48.114-800a8.476,8.476,0,0,1,4.221,1.141,11.532,11.532,0,0,1,3.6,3.289,11.532,11.532,0,0,1,3.6-3.289A8.476,8.476,0,0,1,63.762-800a7.827,7.827,0,0,1,5.751,2.363,7.827,7.827,0,0,1,2.363,5.751,9.311,9.311,0,0,1-.418,2.7,13.909,13.909,0,0,1-1.237,2.825,2.8,2.8,0,0,0-.535-.536,3.616,3.616,0,0,0-.643-.4,11.938,11.938,0,0,0,1.036-2.368,7.64,7.64,0,0,0,.348-2.229,6.436,6.436,0,0,0-1.934-4.731,6.436,6.436,0,0,0-4.731-1.934A6.685,6.685,0,0,0,59.7-797.2a19.565,19.565,0,0,0-3.76,3.869,19.368,19.368,0,0,0-3.76-3.873,6.7,6.7,0,0,0-4.064-1.343,6.436,6.436,0,0,0-4.731,1.934,6.436,6.436,0,0,0-1.934,4.731,7.953,7.953,0,0,0,.348,2.3,11.381,11.381,0,0,0,1.008,2.327,5.324,5.324,0,0,0-.627.41,2.844,2.844,0,0,0-.524.521ZM40-775.313v-1.251a2.568,2.568,0,0,1,1.418-2.219,6.919,6.919,0,0,1,3.681-.876q.414,0,.793.032a5.938,5.938,0,0,1,.722.1,5.256,5.256,0,0,0-.482,1.17,4.875,4.875,0,0,0-.17,1.307v1.733Zm8.693,0v-1.63A3.191,3.191,0,0,1,50.7-779.8a11.24,11.24,0,0,1,5.243-1.059A11.175,11.175,0,0,1,61.2-779.8a3.191,3.191,0,0,1,1.987,2.856v1.63Zm17.22,0v-1.733a5.423,5.423,0,0,0-.152-1.307,4.9,4.9,0,0,0-.455-1.17,5.922,5.922,0,0,1,.723-.1q.38-.032.776-.032a6.833,6.833,0,0,1,3.677.876,2.573,2.573,0,0,1,1.395,2.219v1.251Zm-9.978-4.1a10.9,10.9,0,0,0-4.067.655q-1.616.655-1.683,1.686v.307H61.7v-.307q-.075-1.031-1.674-1.686A10.9,10.9,0,0,0,55.935-779.409ZM45.1-781.025a1.985,1.985,0,0,1-1.456-.606,1.985,1.985,0,0,1-.606-1.456,1.944,1.944,0,0,1,.606-1.438,2,2,0,0,1,1.456-.6,2.006,2.006,0,0,1,1.452.6,1.937,1.937,0,0,1,.61,1.438,1.978,1.978,0,0,1-.61,1.456A1.99,1.99,0,0,1,45.1-781.025Zm21.706,0a1.993,1.993,0,0,1-1.447-.606,1.971,1.971,0,0,1-.614-1.456,1.931,1.931,0,0,1,.614-1.438,2.016,2.016,0,0,1,1.453-.6,1.986,1.986,0,0,1,1.46.6,1.959,1.959,0,0,1,.6,1.438,2.007,2.007,0,0,1-.593,1.456A1.973,1.973,0,0,1,66.8-781.025Zm-10.857-.92a3.081,3.081,0,0,1-2.253-.927,3.051,3.051,0,0,1-.933-2.25,3.051,3.051,0,0,1,.926-2.263,3.087,3.087,0,0,1,2.25-.913,3.079,3.079,0,0,1,2.263.91,3.059,3.059,0,0,1,.913,2.256,3.11,3.11,0,0,1-.91,2.253A3.025,3.025,0,0,1,55.948-781.944Zm-.01-4.9a1.689,1.689,0,0,0-1.213.5,1.643,1.643,0,0,0-.514,1.231,1.659,1.659,0,0,0,.514,1.213,1.675,1.675,0,0,0,1.227.514,1.629,1.629,0,0,0,1.213-.514,1.7,1.7,0,0,0,.5-1.228,1.659,1.659,0,0,0-.5-1.214A1.666,1.666,0,0,0,55.938-786.848ZM55.938-785.121ZM55.946-776.762Z" transform="translate(177.145 985.352)" fill="#b4ffac"/>
  </g>
</svg>
