<svg xmlns="http://www.w3.org/2000/svg" xmlns:xlink="http://www.w3.org/1999/xlink" width="26.667" height="33.187" viewBox="0 0 26.667 33.187">
  <defs>
    <linearGradient id="linear-gradient" y1="0.5" x2="1" y2="0.5" gradientUnits="objectBoundingBox">
      <stop offset="0" stop-color="#55bf9b"/>
      <stop offset="0.33" stop-color="#2dacb1"/>
      <stop offset="0.74" stop-color="#2986c1"/>
      <stop offset="1" stop-color="#3b67b1"/>
    </linearGradient>
    <linearGradient id="linear-gradient-2" x1="-0.002" y1="0.496" x2="0.998" y2="0.496" xlink:href="#linear-gradient"/>
    <linearGradient id="linear-gradient-3" x1="-0.002" y1="0.499" x2="0.998" y2="0.499" xlink:href="#linear-gradient"/>
    <linearGradient id="linear-gradient-4" x1="0.001" y1="0.5" x2="0.999" y2="0.5" xlink:href="#linear-gradient"/>
  </defs>
  <g id="Group_5365" data-name="Group 5365" transform="translate(-58 -1998)">
    <g id="Group_4557" data-name="Group 4557" transform="translate(-3.615 4)" opacity="0.92">
      <path id="Path_25806" data-name="Path 25806" d="M122,75.169H114.95V62.54H122Zm-6.233-.813h5.42v-11h-5.42Z" transform="translate(-51.959 1951.503)" fill="url(#linear-gradient)"/>
      <path id="Path_25807" data-name="Path 25807" d="M129.728,80.094a1.686,1.686,0,0,1-.976-.542,79.088,79.088,0,0,0-8.97.108h-.3l-.108-.271c-.136-.379-.461-1-.732-1.057-.163-.027-.325.136-.461.271l-.6-.542a1.262,1.262,0,0,1,1.22-.515c.65.136,1.057.867,1.22,1.3,8.7-.434,9.133,0,9.3.136a3.989,3.989,0,0,0,.325.271,7.278,7.278,0,0,0-.3-2.683l-.081-.352.352-.108c.488-.163,1.111-.461,1.165-.867.081-.569-.786-1.3-1.084-1.518l-.569-.407.65-.3c.732-.325,1.138-.7,1.138-1.03,0-.515-.786-1.03-1.057-1.192l-.515-.271.461-.379a1.63,1.63,0,0,0,.732-1.274,1.385,1.385,0,0,0-.6-.949h-4.5c-.352.163-1.111.488-1.6.054-.542-.461-.271-1.382-.217-1.572l1.762-3.9a2.123,2.123,0,0,0-.461-1.626.99.99,0,0,0-.379-.19c-2.466,6.315-6.748,7.67-6.938,7.751l-.244-.786s4.228-1.382,6.531-7.507l.081-.217h.217a1.568,1.568,0,0,1,1.247.352,2.942,2.942,0,0,1,.732,2.358V62.8l-1.816,3.93c-.081.244-.081.623,0,.678,0,0,.163.108.786-.217l.19-.054h4.851l.108.054a2.434,2.434,0,0,1,1.057,1.653,2.134,2.134,0,0,1-.623,1.572,2.078,2.078,0,0,1,1.03,1.626,1.8,1.8,0,0,1-1.057,1.463,2.389,2.389,0,0,1,.921,1.9c-.081.6-.542,1.057-1.355,1.409.3,1.355.461,2.927-.19,3.279a.722.722,0,0,1-.325.081Z" transform="translate(-47.821 1947.011)" fill="url(#linear-gradient-2)"/>
      <path id="Path_25809" data-name="Path 25809" d="M131.264,72.452l-2.846-2.71c-1.274.271-7.48,1.3-10.082-4.5a8.322,8.322,0,0,1,.786-5.854,7.042,7.042,0,0,1,4.634-3.144c7.046-1.762,10.84,4.959,10.895,5.014l.054.108s1.057,4.987-3.252,7.046l-.136,4.038Zm-2.629-3.6,1.87,1.762.108-2.737.244-.108c3.74-1.626,3.117-5.664,3.035-6.179-.379-.65-3.767-6.1-9.946-4.58-6.342,1.572-4.905,7.7-4.824,7.941,2.575,5.745,9.052,4.011,9.323,3.93l.217-.054Z" transform="translate(-46.538 1940.236)" fill="url(#linear-gradient-3)"/>
      <path id="Path_25860" data-name="Path 25860" d="M128.629,68.541l2.276,2.927V67.7s6.531-3.306.786-9.485a8.518,8.518,0,0,0-10.244-.678s-6.423,4.363-1.409,9.485c0,0,4.959,3.767,8.591,1.518Z" transform="translate(-46.531 1940.543)" fill="#0c0018"/>
      <path id="Path_25808" data-name="Path 25808" d="M119.693,73.155v-4.5c-.949-.352-3.875-1.6-4.905-4.174-.65-1.653-.379-3.469.786-5.474a8.6,8.6,0,0,1,10.271-3.252c.027,0,5.962,1.762,5.393,6.938,0,.108-1.463,6.5-8.184,6.586l-3.36,3.875Zm2.927-17.182a7.965,7.965,0,0,0-6.342,3.469,5.37,5.37,0,0,0-.732,4.743c1.03,2.656,4.634,3.794,4.661,3.794l.3.081v2.9l2.168-2.52h.271a7.577,7.577,0,0,0,7.48-5.881c.488-4.445-4.634-5.989-4.851-6.043a8.474,8.474,0,0,0-2.981-.569Z" transform="translate(-52.827 1938.855)" fill="url(#linear-gradient-4)"/>
      <path id="Path_25859" data-name="Path 25859" d="M119.7,72.4l.163-4.743S109.912,65.051,117.5,57c0,0,6.613-5.176,11.9,1.951h0s3.577,8.374-6.8,9.16Z" transform="translate(-52.477 1939.181)" fill="#0c0019"/>
    </g>
    <g id="Group_5361" data-name="Group 5361" transform="translate(-3.615 4)" opacity="0.92">
      <path id="Path_25806-2" data-name="Path 25806" d="M122,75.169H114.95V62.54H122Zm-6.233-.813h5.42v-11h-5.42Z" transform="translate(-51.959 1951.503)" fill="url(#linear-gradient)"/>
      <path id="Path_25807-2" data-name="Path 25807" d="M129.728,80.094a1.686,1.686,0,0,1-.976-.542,79.088,79.088,0,0,0-8.97.108h-.3l-.108-.271c-.136-.379-.461-1-.732-1.057-.163-.027-.325.136-.461.271l-.6-.542a1.262,1.262,0,0,1,1.22-.515c.65.136,1.057.867,1.22,1.3,8.7-.434,9.133,0,9.3.136a3.989,3.989,0,0,0,.325.271,7.278,7.278,0,0,0-.3-2.683l-.081-.352.352-.108c.488-.163,1.111-.461,1.165-.867.081-.569-.786-1.3-1.084-1.518l-.569-.407.65-.3c.732-.325,1.138-.7,1.138-1.03,0-.515-.786-1.03-1.057-1.192l-.515-.271.461-.379a1.63,1.63,0,0,0,.732-1.274,1.385,1.385,0,0,0-.6-.949h-4.5c-.352.163-1.111.488-1.6.054-.542-.461-.271-1.382-.217-1.572l1.762-3.9a2.123,2.123,0,0,0-.461-1.626.99.99,0,0,0-.379-.19c-2.466,6.315-6.748,7.67-6.938,7.751l-.244-.786s4.228-1.382,6.531-7.507l.081-.217h.217a1.568,1.568,0,0,1,1.247.352,2.942,2.942,0,0,1,.732,2.358V62.8l-1.816,3.93c-.081.244-.081.623,0,.678,0,0,.163.108.786-.217l.19-.054h4.851l.108.054a2.434,2.434,0,0,1,1.057,1.653,2.134,2.134,0,0,1-.623,1.572,2.078,2.078,0,0,1,1.03,1.626,1.8,1.8,0,0,1-1.057,1.463,2.389,2.389,0,0,1,.921,1.9c-.081.6-.542,1.057-1.355,1.409.3,1.355.461,2.927-.19,3.279a.722.722,0,0,1-.325.081Z" transform="translate(-47.821 1947.011)" fill="url(#linear-gradient-2)"/>
      <path id="Path_25809-2" data-name="Path 25809" d="M131.264,72.452l-2.846-2.71c-1.274.271-7.48,1.3-10.082-4.5a8.322,8.322,0,0,1,.786-5.854,7.042,7.042,0,0,1,4.634-3.144c7.046-1.762,10.84,4.959,10.895,5.014l.054.108s1.057,4.987-3.252,7.046l-.136,4.038Zm-2.629-3.6,1.87,1.762.108-2.737.244-.108c3.74-1.626,3.117-5.664,3.035-6.179-.379-.65-3.767-6.1-9.946-4.58-6.342,1.572-4.905,7.7-4.824,7.941,2.575,5.745,9.052,4.011,9.323,3.93l.217-.054Z" transform="translate(-46.538 1940.236)" fill="url(#linear-gradient-3)"/>
      <path id="Path_25860-2" data-name="Path 25860" d="M128.629,68.541l2.276,2.927V67.7s6.531-3.306.786-9.485a8.518,8.518,0,0,0-10.244-.678s-6.423,4.363-1.409,9.485c0,0,4.959,3.767,8.591,1.518Z" transform="translate(-46.531 1940.543)" fill="#0c0018"/>
      <path id="Path_25808-2" data-name="Path 25808" d="M119.693,73.155v-4.5c-.949-.352-3.875-1.6-4.905-4.174-.65-1.653-.379-3.469.786-5.474a8.6,8.6,0,0,1,10.271-3.252c.027,0,5.962,1.762,5.393,6.938,0,.108-1.463,6.5-8.184,6.586l-3.36,3.875Zm2.927-17.182a7.965,7.965,0,0,0-6.342,3.469,5.37,5.37,0,0,0-.732,4.743c1.03,2.656,4.634,3.794,4.661,3.794l.3.081v2.9l2.168-2.52h.271a7.577,7.577,0,0,0,7.48-5.881c.488-4.445-4.634-5.989-4.851-6.043a8.474,8.474,0,0,0-2.981-.569Z" transform="translate(-52.827 1938.855)" fill="url(#linear-gradient-4)"/>
      <path id="Path_25859-2" data-name="Path 25859" d="M119.7,72.4l.163-4.743S109.912,65.051,117.5,57c0,0,6.613-5.176,11.9,1.951h0s3.577,8.374-6.8,9.16Z" transform="translate(-52.477 1939.181)" fill="#0c0019"/>
    </g>
    <g id="Group_5362" data-name="Group 5362" transform="translate(-3.615 4)" opacity="0.92">
      <path id="Path_25806-3" data-name="Path 25806" d="M122,75.169H114.95V62.54H122Zm-6.233-.813h5.42v-11h-5.42Z" transform="translate(-51.959 1951.503)" fill="url(#linear-gradient)"/>
      <path id="Path_25807-3" data-name="Path 25807" d="M129.728,80.094a1.686,1.686,0,0,1-.976-.542,79.088,79.088,0,0,0-8.97.108h-.3l-.108-.271c-.136-.379-.461-1-.732-1.057-.163-.027-.325.136-.461.271l-.6-.542a1.262,1.262,0,0,1,1.22-.515c.65.136,1.057.867,1.22,1.3,8.7-.434,9.133,0,9.3.136a3.989,3.989,0,0,0,.325.271,7.278,7.278,0,0,0-.3-2.683l-.081-.352.352-.108c.488-.163,1.111-.461,1.165-.867.081-.569-.786-1.3-1.084-1.518l-.569-.407.65-.3c.732-.325,1.138-.7,1.138-1.03,0-.515-.786-1.03-1.057-1.192l-.515-.271.461-.379a1.63,1.63,0,0,0,.732-1.274,1.385,1.385,0,0,0-.6-.949h-4.5c-.352.163-1.111.488-1.6.054-.542-.461-.271-1.382-.217-1.572l1.762-3.9a2.123,2.123,0,0,0-.461-1.626.99.99,0,0,0-.379-.19c-2.466,6.315-6.748,7.67-6.938,7.751l-.244-.786s4.228-1.382,6.531-7.507l.081-.217h.217a1.568,1.568,0,0,1,1.247.352,2.942,2.942,0,0,1,.732,2.358V62.8l-1.816,3.93c-.081.244-.081.623,0,.678,0,0,.163.108.786-.217l.19-.054h4.851l.108.054a2.434,2.434,0,0,1,1.057,1.653,2.134,2.134,0,0,1-.623,1.572,2.078,2.078,0,0,1,1.03,1.626,1.8,1.8,0,0,1-1.057,1.463,2.389,2.389,0,0,1,.921,1.9c-.081.6-.542,1.057-1.355,1.409.3,1.355.461,2.927-.19,3.279a.722.722,0,0,1-.325.081Z" transform="translate(-47.821 1947.011)" fill="url(#linear-gradient-2)"/>
      <path id="Path_25809-3" data-name="Path 25809" d="M131.264,72.452l-2.846-2.71c-1.274.271-7.48,1.3-10.082-4.5a8.322,8.322,0,0,1,.786-5.854,7.042,7.042,0,0,1,4.634-3.144c7.046-1.762,10.84,4.959,10.895,5.014l.054.108s1.057,4.987-3.252,7.046l-.136,4.038Zm-2.629-3.6,1.87,1.762.108-2.737.244-.108c3.74-1.626,3.117-5.664,3.035-6.179-.379-.65-3.767-6.1-9.946-4.58-6.342,1.572-4.905,7.7-4.824,7.941,2.575,5.745,9.052,4.011,9.323,3.93l.217-.054Z" transform="translate(-46.538 1940.236)" fill="url(#linear-gradient-3)"/>
      <path id="Path_25860-3" data-name="Path 25860" d="M128.629,68.541l2.276,2.927V67.7s6.531-3.306.786-9.485a8.518,8.518,0,0,0-10.244-.678s-6.423,4.363-1.409,9.485c0,0,4.959,3.767,8.591,1.518Z" transform="translate(-46.531 1940.543)" fill="#0c0018"/>
      <path id="Path_25808-3" data-name="Path 25808" d="M119.693,73.155v-4.5c-.949-.352-3.875-1.6-4.905-4.174-.65-1.653-.379-3.469.786-5.474a8.6,8.6,0,0,1,10.271-3.252c.027,0,5.962,1.762,5.393,6.938,0,.108-1.463,6.5-8.184,6.586l-3.36,3.875Zm2.927-17.182a7.965,7.965,0,0,0-6.342,3.469,5.37,5.37,0,0,0-.732,4.743c1.03,2.656,4.634,3.794,4.661,3.794l.3.081v2.9l2.168-2.52h.271a7.577,7.577,0,0,0,7.48-5.881c.488-4.445-4.634-5.989-4.851-6.043a8.474,8.474,0,0,0-2.981-.569Z" transform="translate(-52.827 1938.855)" fill="url(#linear-gradient-4)"/>
      <path id="Path_25859-3" data-name="Path 25859" d="M119.7,72.4l.163-4.743S109.912,65.051,117.5,57c0,0,6.613-5.176,11.9,1.951h0s3.577,8.374-6.8,9.16Z" transform="translate(-52.477 1939.181)" fill="#0c0019"/>
    </g>
    <g id="Group_5363" data-name="Group 5363" transform="translate(-3.615 4)" opacity="0.92">
      <path id="Path_25806-4" data-name="Path 25806" d="M122,75.169H114.95V62.54H122Zm-6.233-.813h5.42v-11h-5.42Z" transform="translate(-51.959 1951.503)" fill="url(#linear-gradient)"/>
      <path id="Path_25807-4" data-name="Path 25807" d="M129.728,80.094a1.686,1.686,0,0,1-.976-.542,79.088,79.088,0,0,0-8.97.108h-.3l-.108-.271c-.136-.379-.461-1-.732-1.057-.163-.027-.325.136-.461.271l-.6-.542a1.262,1.262,0,0,1,1.22-.515c.65.136,1.057.867,1.22,1.3,8.7-.434,9.133,0,9.3.136a3.989,3.989,0,0,0,.325.271,7.278,7.278,0,0,0-.3-2.683l-.081-.352.352-.108c.488-.163,1.111-.461,1.165-.867.081-.569-.786-1.3-1.084-1.518l-.569-.407.65-.3c.732-.325,1.138-.7,1.138-1.03,0-.515-.786-1.03-1.057-1.192l-.515-.271.461-.379a1.63,1.63,0,0,0,.732-1.274,1.385,1.385,0,0,0-.6-.949h-4.5c-.352.163-1.111.488-1.6.054-.542-.461-.271-1.382-.217-1.572l1.762-3.9a2.123,2.123,0,0,0-.461-1.626.99.99,0,0,0-.379-.19c-2.466,6.315-6.748,7.67-6.938,7.751l-.244-.786s4.228-1.382,6.531-7.507l.081-.217h.217a1.568,1.568,0,0,1,1.247.352,2.942,2.942,0,0,1,.732,2.358V62.8l-1.816,3.93c-.081.244-.081.623,0,.678,0,0,.163.108.786-.217l.19-.054h4.851l.108.054a2.434,2.434,0,0,1,1.057,1.653,2.134,2.134,0,0,1-.623,1.572,2.078,2.078,0,0,1,1.03,1.626,1.8,1.8,0,0,1-1.057,1.463,2.389,2.389,0,0,1,.921,1.9c-.081.6-.542,1.057-1.355,1.409.3,1.355.461,2.927-.19,3.279a.722.722,0,0,1-.325.081Z" transform="translate(-47.821 1947.011)" fill="url(#linear-gradient-2)"/>
      <path id="Path_25809-4" data-name="Path 25809" d="M131.264,72.452l-2.846-2.71c-1.274.271-7.48,1.3-10.082-4.5a8.322,8.322,0,0,1,.786-5.854,7.042,7.042,0,0,1,4.634-3.144c7.046-1.762,10.84,4.959,10.895,5.014l.054.108s1.057,4.987-3.252,7.046l-.136,4.038Zm-2.629-3.6,1.87,1.762.108-2.737.244-.108c3.74-1.626,3.117-5.664,3.035-6.179-.379-.65-3.767-6.1-9.946-4.58-6.342,1.572-4.905,7.7-4.824,7.941,2.575,5.745,9.052,4.011,9.323,3.93l.217-.054Z" transform="translate(-46.538 1940.236)" fill="url(#linear-gradient-3)"/>
      <path id="Path_25860-4" data-name="Path 25860" d="M128.629,68.541l2.276,2.927V67.7s6.531-3.306.786-9.485a8.518,8.518,0,0,0-10.244-.678s-6.423,4.363-1.409,9.485c0,0,4.959,3.767,8.591,1.518Z" transform="translate(-46.531 1940.543)" fill="#0c0018"/>
      <path id="Path_25808-4" data-name="Path 25808" d="M119.693,73.155v-4.5c-.949-.352-3.875-1.6-4.905-4.174-.65-1.653-.379-3.469.786-5.474a8.6,8.6,0,0,1,10.271-3.252c.027,0,5.962,1.762,5.393,6.938,0,.108-1.463,6.5-8.184,6.586l-3.36,3.875Zm2.927-17.182a7.965,7.965,0,0,0-6.342,3.469,5.37,5.37,0,0,0-.732,4.743c1.03,2.656,4.634,3.794,4.661,3.794l.3.081v2.9l2.168-2.52h.271a7.577,7.577,0,0,0,7.48-5.881c.488-4.445-4.634-5.989-4.851-6.043a8.474,8.474,0,0,0-2.981-.569Z" transform="translate(-52.827 1938.855)" fill="url(#linear-gradient-4)"/>
      <path id="Path_25859-4" data-name="Path 25859" d="M119.7,72.4l.163-4.743S109.912,65.051,117.5,57c0,0,6.613-5.176,11.9,1.951h0s3.577,8.374-6.8,9.16Z" transform="translate(-52.477 1939.181)" fill="#0c0019"/>
    </g>
    <g id="Group_5364" data-name="Group 5364" transform="translate(-3.615 4)" opacity="0.92">
      <path id="Path_25806-5" data-name="Path 25806" d="M122,75.169H114.95V62.54H122Zm-6.233-.813h5.42v-11h-5.42Z" transform="translate(-51.959 1951.503)" fill="url(#linear-gradient)"/>
      <path id="Path_25807-5" data-name="Path 25807" d="M129.728,80.094a1.686,1.686,0,0,1-.976-.542,79.088,79.088,0,0,0-8.97.108h-.3l-.108-.271c-.136-.379-.461-1-.732-1.057-.163-.027-.325.136-.461.271l-.6-.542a1.262,1.262,0,0,1,1.22-.515c.65.136,1.057.867,1.22,1.3,8.7-.434,9.133,0,9.3.136a3.989,3.989,0,0,0,.325.271,7.278,7.278,0,0,0-.3-2.683l-.081-.352.352-.108c.488-.163,1.111-.461,1.165-.867.081-.569-.786-1.3-1.084-1.518l-.569-.407.65-.3c.732-.325,1.138-.7,1.138-1.03,0-.515-.786-1.03-1.057-1.192l-.515-.271.461-.379a1.63,1.63,0,0,0,.732-1.274,1.385,1.385,0,0,0-.6-.949h-4.5c-.352.163-1.111.488-1.6.054-.542-.461-.271-1.382-.217-1.572l1.762-3.9a2.123,2.123,0,0,0-.461-1.626.99.99,0,0,0-.379-.19c-2.466,6.315-6.748,7.67-6.938,7.751l-.244-.786s4.228-1.382,6.531-7.507l.081-.217h.217a1.568,1.568,0,0,1,1.247.352,2.942,2.942,0,0,1,.732,2.358V62.8l-1.816,3.93c-.081.244-.081.623,0,.678,0,0,.163.108.786-.217l.19-.054h4.851l.108.054a2.434,2.434,0,0,1,1.057,1.653,2.134,2.134,0,0,1-.623,1.572,2.078,2.078,0,0,1,1.03,1.626,1.8,1.8,0,0,1-1.057,1.463,2.389,2.389,0,0,1,.921,1.9c-.081.6-.542,1.057-1.355,1.409.3,1.355.461,2.927-.19,3.279a.722.722,0,0,1-.325.081Z" transform="translate(-47.821 1947.011)" fill="url(#linear-gradient-2)"/>
      <path id="Path_25809-5" data-name="Path 25809" d="M131.264,72.452l-2.846-2.71c-1.274.271-7.48,1.3-10.082-4.5a8.322,8.322,0,0,1,.786-5.854,7.042,7.042,0,0,1,4.634-3.144c7.046-1.762,10.84,4.959,10.895,5.014l.054.108s1.057,4.987-3.252,7.046l-.136,4.038Zm-2.629-3.6,1.87,1.762.108-2.737.244-.108c3.74-1.626,3.117-5.664,3.035-6.179-.379-.65-3.767-6.1-9.946-4.58-6.342,1.572-4.905,7.7-4.824,7.941,2.575,5.745,9.052,4.011,9.323,3.93l.217-.054Z" transform="translate(-46.538 1940.236)" fill="url(#linear-gradient-3)"/>
      <path id="Path_25860-5" data-name="Path 25860" d="M128.629,68.541l2.276,2.927V67.7s6.531-3.306.786-9.485a8.518,8.518,0,0,0-10.244-.678s-6.423,4.363-1.409,9.485c0,0,4.959,3.767,8.591,1.518Z" transform="translate(-46.531 1940.543)" fill="#0c0018"/>
      <path id="Path_25808-5" data-name="Path 25808" d="M119.693,73.155v-4.5c-.949-.352-3.875-1.6-4.905-4.174-.65-1.653-.379-3.469.786-5.474a8.6,8.6,0,0,1,10.271-3.252c.027,0,5.962,1.762,5.393,6.938,0,.108-1.463,6.5-8.184,6.586l-3.36,3.875Zm2.927-17.182a7.965,7.965,0,0,0-6.342,3.469,5.37,5.37,0,0,0-.732,4.743c1.03,2.656,4.634,3.794,4.661,3.794l.3.081v2.9l2.168-2.52h.271a7.577,7.577,0,0,0,7.48-5.881c.488-4.445-4.634-5.989-4.851-6.043a8.474,8.474,0,0,0-2.981-.569Z" transform="translate(-52.827 1938.855)" fill="url(#linear-gradient-4)"/>
      <path id="Path_25859-5" data-name="Path 25859" d="M119.7,72.4l.163-4.743S109.912,65.051,117.5,57c0,0,6.613-5.176,11.9,1.951h0s3.577,8.374-6.8,9.16Z" transform="translate(-52.477 1939.181)" fill="#0c0019"/>
    </g>
  </g>
</svg>
