<svg xmlns="http://www.w3.org/2000/svg" xmlns:xlink="http://www.w3.org/1999/xlink" width="40.729" height="31.359" viewBox="0 0 40.729 31.359">
  <defs>
    <linearGradient id="linear-gradient" y1="0.5" x2="1" y2="0.5" gradientUnits="objectBoundingBox">
      <stop offset="0" stop-color="#55bf9b"/>
      <stop offset="0.33" stop-color="#2dacb1"/>
      <stop offset="0.74" stop-color="#2986c1"/>
      <stop offset="1" stop-color="#3b67b1"/>
    </linearGradient>
    <linearGradient id="linear-gradient-2" x1="0" y1="0.501" x2="1" y2="0.501" xlink:href="#linear-gradient"/>
    <linearGradient id="linear-gradient-3" x1="0" y1="0.5" x2="1" y2="0.5" xlink:href="#linear-gradient"/>
    <linearGradient id="linear-gradient-4" x1="-0.005" y1="0.499" x2="1" y2="0.499" xlink:href="#linear-gradient"/>
    <linearGradient id="linear-gradient-8" x1="0" y1="0.499" x2="1" y2="0.499" xlink:href="#linear-gradient"/>
  </defs>
  <g id="Group_5373" data-name="Group 5373" transform="translate(-179.771 -2117)">
    <g id="Group_5239" data-name="Group 5239" transform="translate(179.771 2117)">
      <path id="Path_25838" data-name="Path 25838" d="M216.259,96.916h-32V74.02h7.461v2.132h-5.33V94.784h27.735V76.152h-5.244V74.02h7.376Z" transform="translate(-179.778 -70.097)" fill="url(#linear-gradient)"/>
      <path id="Path_25839" data-name="Path 25839" d="M195.852,84.992l-2.409-2.75-5.223.192V72.606h.853V81.56l4.754-.171,1.876,2.153,1.279-2.153h5.692V73.033H189.222V72.18h14.3V82.242h-6.054Z" transform="translate(-175.296 -72.18)" fill="url(#linear-gradient-2)"/>
      <path id="Path_25840" data-name="Path 25840" d="M209.472,88.837c-10.254,0-24.132-.256-25.006-.277a2.593,2.593,0,0,1-2.238-3.048l.064-.341h40.441l.085.3a2.235,2.235,0,0,1-.213,1.641,3.352,3.352,0,0,1-2.388,1.428,107.31,107.31,0,0,1-10.744.277Zm-24.9-1.109c.49,0,32.681.6,35.474,0a2.571,2.571,0,0,0,1.812-1.023,1.218,1.218,0,0,0,.171-.661H182.994c-.043,1.322,1.492,1.684,1.556,1.705h0Z" transform="translate(-182.158 -57.478)" fill="url(#linear-gradient-3)"/>
      <path id="Path_25841" data-name="Path 25841" d="M190.383,88.876H186.29V77.94h4.093Zm-3.24-.853h2.388V78.793h-2.388Z" transform="translate(-177.48 -65.661)" fill="url(#linear-gradient-4)"/>
      <path id="Path_25842" data-name="Path 25842" d="M192.583,87.665H188.49V79.01h4.093Zm-3.24-.853h2.388v-6.95h-2.388Z" transform="translate(-174.99 -64.45)" fill="url(#linear-gradient)"/>
      <path id="Path_25843" data-name="Path 25843" d="M194.943,86.873H190.85V79.71h4.093Zm-3.24-.853h2.388V80.563H191.7Z" transform="translate(-172.319 -63.657)" fill="url(#linear-gradient)"/>
      <path id="Path_25844" data-name="Path 25844" d="M197.2,87.665H193.11V79.01H197.2Zm-3.24-.853h2.388v-6.95h-2.388Z" transform="translate(-169.761 -64.45)" fill="url(#linear-gradient)"/>
      <path id="Path_25845" data-name="Path 25845" d="M199.623,88.876H195.53V77.94h4.093Zm-3.24-.853h2.388V78.793h-2.388Z" transform="translate(-167.022 -65.661)" fill="url(#linear-gradient-8)"/>
      <text id="KPI" transform="translate(16.165 7.257)" fill="#fff" font-size="6" font-family="SegoeUI, Segoe UI"><tspan x="0" y="0">KPI</tspan></text>
    </g>
  </g>
</svg>
