<svg xmlns="http://www.w3.org/2000/svg" width="47.359" height="42.217" viewBox="0 0 47.359 42.217">
  <g id="Group_6440" data-name="Group 6440" transform="translate(-229.175 -327.167)">
    <path id="Path_16877" data-name="Path 16877" d="M512.488-9864.857" transform="translate(-280.999 10231.704)" fill="none" stroke="#fff" stroke-width="1"/>
    <path id="Path_16874" data-name="Path 16874" d="M71.2,128.7a6.071,6.071,0,0,1-6.109-6.011c0-3.1,5.027-9.452,5.6-10.162a.657.657,0,0,1,.514-.247.64.64,0,0,1,.514.247c.568.71,5.6,7.065,5.6,10.162A6.071,6.071,0,0,1,71.2,128.7h0Zm0-14.732" transform="translate(175.184 228.302)" fill="none" stroke="#1d8bb9" stroke-width="2"/>
    <path id="Path_16875" data-name="Path 16875" d="M.677,5.438A.78.78,0,0,1,0,4.6a.794.794,0,0,1,.677-.856c1.253,0,2.28-1.3,2.28-2.883A.785.785,0,0,1,3.623,0,.793.793,0,0,1,4.3.856C4.3,3.383,2.675,5.438.677,5.438h0Zm0,0" transform="translate(247.672 350.559) rotate(99)" fill="none" stroke="#1d8bb9" stroke-width="0.5"/>
    <path id="Path_16877-2" data-name="Path 16877" d="M512.488-9864.857" transform="translate(-278.493 10225.716)" fill="none" stroke="#1d8bb9" stroke-width="1"/>
    <g id="Path_16878" data-name="Path 16878" transform="translate(233.836 368.524)" fill="none">
      <path d="M0-27.592l12.538-13.34,12.557,13.34V-6.734H0Z" stroke="none"/>
      <path d="M 12.53919887542725 -38.01346588134766 L 2.000003814697266 -26.80001449584961 L 2.000003814697266 -8.734279632568359 L 23.09488296508789 -8.734279632568359 L 23.09488296508789 -26.79916000366211 L 12.53919887542725 -38.01346588134766 M 12.53811359405518 -40.9326171875 L 25.09488296508789 -27.59236907958984 L 25.09488296508789 -6.734279632568359 L 3.814697265625e-06 -6.734279632568359 L 3.814697265625e-06 -27.59236907958984 L 12.53811359405518 -40.9326171875 Z" stroke="none" fill="#3739ca"/>
    </g>
    <path id="Path_16879" data-name="Path 16879" d="M502.673-9949.3l15.674-15.675,15.466,15.675" transform="translate(-271.933 10293.203)" fill="none" stroke="#1d8bb9" stroke-width="1.5"/>
    <line id="Line_1611" data-name="Line 1611" y2="7.822" transform="translate(263.33 351.197)" fill="none" stroke="#07684e" stroke-linecap="round" stroke-width="2"/>
    <line id="Line_1612" data-name="Line 1612" x1="7.235" transform="translate(268.299 364.234)" fill="none" stroke="#1d8bb9" stroke-linecap="round" stroke-width="2"/>
    <path id="Path_16880" data-name="Path 16880" d="M589-9887.838h10.13s4.79.9,5.175,4.2a47.073,47.073,0,0,1,.275,6.342h-5.1v-5.865a2.492,2.492,0,0,0-2.164-1.06c-1.635-.068-8.313,0-8.313,0" transform="translate(-330.07 10241.207)" fill="none" stroke="#1d8cb8" stroke-width="1"/>
    <path id="Path_16881" data-name="Path 16881" d="M500-9863.5h32.648v7.333" transform="translate(-270.075 10224.802)" fill="none" stroke="#07684e" stroke-linecap="round" stroke-width="1.5"/>
  </g>
</svg>
