<svg xmlns="http://www.w3.org/2000/svg" width="113.44" height="101.52" viewBox="0 0 113.44 101.52">
  <g id="Group_5433" data-name="Group 5433" transform="translate(-720 -331.413)">
    <g id="Group_5257" data-name="Group 5257">
      <path id="Path_16874" data-name="Path 16874" d="M79.816,151.862a14.634,14.634,0,0,1-14.726-14.49c0-7.465,12.118-22.785,13.488-24.5a1.583,1.583,0,0,1,1.238-.6,1.543,1.543,0,0,1,1.238.6c1.37,1.711,13.488,17.03,13.488,24.5a14.634,14.634,0,0,1-14.726,14.49h0Zm0-35.512" transform="translate(681.856 251.035)" fill="none" stroke="#1d8bb9" stroke-width="3"/>
      <path id="Path_16875" data-name="Path 16875" d="M1.632,13.108A1.88,1.88,0,0,1,0,11.078,1.915,1.915,0,0,1,1.632,9.014c3.02,0,5.5-3.131,5.5-6.95A1.893,1.893,0,0,1,8.733,0a1.912,1.912,0,0,1,1.632,2.064c0,6.09-3.917,11.044-8.733,11.044h0Zm0,0" transform="translate(764.779 387.363) rotate(99)" fill="none" stroke="#1d8bb9" stroke-width="1"/>
      <path id="Path_16877" data-name="Path 16877" d="M512.488-9864.857" transform="translate(219.322 10277.048)" fill="none" stroke="#1d8bb9" stroke-width="1"/>
      <g id="Path_16878" data-name="Path 16878" transform="translate(731.428 372.934)" fill="none">
        <path d="M0-8.776,30.223-40.933,60.491-8.776V41.5H0Z" stroke="none"/>
        <path d="M 30.22472190856934 -36.55390167236328 L 3 -7.587444305419922 L 3 38.50240325927734 L 57.49117660522461 38.50240325927734 L 57.49117660522461 -7.586159706115723 L 30.22472190856934 -36.55390167236328 M 30.22309494018555 -40.93262481689453 L 60.49117660522461 -8.775969505310059 L 60.49117660522461 41.50240325927734 L 0 41.50240325927734 L 0 -8.775969505310059 L 30.22309494018555 -40.93262481689453 Z" stroke="none" fill="#3739ca"/>
      </g>
      <path id="Path_16879" data-name="Path 16879" d="M502.673-9927.188l37.782-37.783,37.281,37.783" transform="translate(221.291 10298.514)" fill="none" stroke="#1d8bb9" stroke-width="3"/>
      <line id="Line_1611" data-name="Line 1611" y2="18.854" transform="translate(802.523 388.902)" fill="none" stroke="#62088a" stroke-linecap="round" stroke-width="3"/>
      <line id="Line_1612" data-name="Line 1612" x1="17.44" transform="translate(814.5 420.326)" fill="none" stroke="#1d8bb9" stroke-linecap="round" stroke-width="3"/>
      <path id="Path_16880" data-name="Path 16880" d="M589-9887.838h24.419s11.546,2.16,12.475,10.115a113.465,113.465,0,0,1,.664,15.287h-12.3v-14.139s-1.274-2.387-5.216-2.555-20.04,0-20.04,0" transform="translate(202.918 10281.975)" fill="none" stroke="#1d8cb8" stroke-width="2"/>
      <path id="Path_16881" data-name="Path 16881" d="M500-9863.5h78.7v17.676" transform="translate(222 10276.758)" fill="none" stroke="#62088a" stroke-linecap="round" stroke-width="4"/>
    </g>
    <g id="Group_5432" data-name="Group 5432">
      <g id="Group_5431" data-name="Group 5431">
        <path id="Path_16874-2" data-name="Path 16874" d="M79.816,151.862a14.634,14.634,0,0,1-14.726-14.49c0-7.465,12.118-22.785,13.488-24.5a1.583,1.583,0,0,1,1.238-.6,1.543,1.543,0,0,1,1.238.6c1.37,1.711,13.488,17.03,13.488,24.5a14.634,14.634,0,0,1-14.726,14.49h0Zm0-35.512" transform="translate(681.856 251.035)" fill="none" stroke="#1d8bb9" stroke-width="3"/>
        <path id="Path_16875-2" data-name="Path 16875" d="M1.632,13.108A1.88,1.88,0,0,1,0,11.078,1.915,1.915,0,0,1,1.632,9.014c3.02,0,5.5-3.131,5.5-6.95A1.893,1.893,0,0,1,8.733,0a1.912,1.912,0,0,1,1.632,2.064c0,6.09-3.917,11.044-8.733,11.044h0Zm0,0" transform="translate(764.779 387.363) rotate(99)" fill="none" stroke="#1d8bb9" stroke-width="1"/>
        <path id="Path_16877-2" data-name="Path 16877" d="M512.488-9864.857" transform="translate(219.322 10277.048)" fill="none" stroke="#1d8bb9" stroke-width="1"/>
        <g id="Path_16878-2" data-name="Path 16878" transform="translate(731.428 372.934)" fill="none">
          <path d="M0-8.776,30.223-40.933,60.491-8.776V41.5H0Z" stroke="none"/>
          <path d="M 30.22472190856934 -36.55390167236328 L 3 -7.587444305419922 L 3 38.50240325927734 L 57.49117660522461 38.50240325927734 L 57.49117660522461 -7.586159706115723 L 30.22472190856934 -36.55390167236328 M 30.22309494018555 -40.93262481689453 L 60.49117660522461 -8.775969505310059 L 60.49117660522461 41.50240325927734 L 0 41.50240325927734 L 0 -8.775969505310059 L 30.22309494018555 -40.93262481689453 Z" stroke="none" fill="#3739ca"/>
        </g>
        <path id="Path_16879-2" data-name="Path 16879" d="M502.673-9927.188l37.782-37.783,37.281,37.783" transform="translate(221.291 10298.514)" fill="none" stroke="#1d8bb9" stroke-width="3"/>
        <line id="Line_1611-2" data-name="Line 1611" y2="18.854" transform="translate(802.523 388.902)" fill="none" stroke="#07685b" stroke-linecap="round" stroke-width="3"/>
        <line id="Line_1612-2" data-name="Line 1612" x1="17.44" transform="translate(814.5 420.326)" fill="none" stroke="#1d8bb9" stroke-linecap="round" stroke-width="3"/>
        <path id="Path_16880-2" data-name="Path 16880" d="M589-9887.838h24.419s11.546,2.16,12.475,10.115a113.465,113.465,0,0,1,.664,15.287h-12.3v-14.139s-1.274-2.387-5.216-2.555-20.04,0-20.04,0" transform="translate(202.918 10281.975)" fill="none" stroke="#1d8cb8" stroke-width="2"/>
        <path id="Path_16881-2" data-name="Path 16881" d="M500-9863.5h78.7v17.676" transform="translate(222 10276.758)" fill="none" stroke="#07685b" stroke-linecap="round" stroke-width="4"/>
      </g>
    </g>
  </g>
</svg>
