<svg xmlns="http://www.w3.org/2000/svg" xmlns:xlink="http://www.w3.org/1999/xlink" width="40.067" height="24.218" viewBox="0 0 40.067 24.218">
  <defs>
    <linearGradient id="linear-gradient" y1="0.499" x2="0.999" y2="0.499" gradientUnits="objectBoundingBox">
      <stop offset="0" stop-color="#54be9a"/>
      <stop offset="0.33" stop-color="#2cabb0"/>
      <stop offset="0.74" stop-color="#2785c0"/>
      <stop offset="1" stop-color="#3a67b0"/>
    </linearGradient>
    <linearGradient id="linear-gradient-2" x1="0.001" y1="0.5" x2="1" y2="0.5" xlink:href="#linear-gradient"/>
    <linearGradient id="linear-gradient-3" x1="-0.001" y1="0.5" x2="1" y2="0.5" xlink:href="#linear-gradient"/>
    <linearGradient id="linear-gradient-6" x1="0" y1="0.5" x2="1" y2="0.5" xlink:href="#linear-gradient"/>
    <linearGradient id="linear-gradient-7" x1="0" y1="0.5" x2="1.001" y2="0.5" xlink:href="#linear-gradient"/>
  </defs>
  <g id="Group_3752" data-name="Group 3752" transform="translate(0 0.001)" opacity="0.63">
    <g id="Group_3563" data-name="Group 3563" transform="translate(8.816 -0.001)">
      <path id="Path_24479" data-name="Path 24479" d="M29.316,24.2H6.88l.051-3.882c.1-.256,2.729-6.214,11.173-6.214s11.058,5.958,11.173,6.214l.051.256v3.639ZM8.161,22.923H28.035V20.707c-.384-.794-2.9-5.318-9.943-5.318s-9.546,4.523-9.943,5.318v2.217Zm9.815-11.058a5.817,5.817,0,0,1-5.8-5.728V5.946A5.841,5.841,0,0,1,17.9,0h.218a5.828,5.828,0,0,1,4.139,1.627,5.755,5.755,0,0,1,1.781,4.1v.218a5.828,5.828,0,0,1-1.627,4.139,5.749,5.749,0,0,1-4.087,1.781h-.333ZM17.925,1.282a4.475,4.475,0,0,0-3.191,1.4A4.559,4.559,0,0,0,13.466,5.92v.192a4.475,4.475,0,0,0,1.4,3.191A4.581,4.581,0,0,0,18.1,10.571H18.3a4.551,4.551,0,0,0,4.459-4.638V5.741a4.551,4.551,0,0,0-4.638-4.459Z" transform="translate(-6.88 0.001)" fill="url(#linear-gradient)"/>
    </g>
    <g id="Group_3566" data-name="Group 3566" transform="translate(25.242 0)">
      <g id="Group_3564" data-name="Group 3564" transform="translate(1.422)">
        <path id="Path_24480" data-name="Path 24480" d="M25.743,9.853a4.927,4.927,0,1,1,0,.013Zm0-8.572a3.652,3.652,0,1,0,3.652,3.652A3.658,3.658,0,0,0,25.743,1.281Z" transform="translate(-20.81)" fill="url(#linear-gradient-2)"/>
      </g>
      <g id="Group_3565" data-name="Group 3565" transform="translate(0 12.33)">
        <path id="Path_24481" data-name="Path 24481" d="M34.525,18.14H26.017v-.679a10.227,10.227,0,0,0-5.253-5.189L19.7,11.81l.961-.653a8.96,8.96,0,0,1,5.292-1.525,8.893,8.893,0,0,1,8.521,5.33l.051.256v2.934Zm-7.381-1.281h6.1V15.347a7.583,7.583,0,0,0-7.252-4.433H25.94a7.606,7.606,0,0,0-3.562.73,11.433,11.433,0,0,1,4.779,5.215Z" transform="translate(-19.7 -9.623)" fill="url(#linear-gradient-3)"/>
      </g>
    </g>
    <g id="Group_3569" data-name="Group 3569" transform="translate(25.242 0)">
      <g id="Group_3567" data-name="Group 3567" transform="translate(1.422)">
        <path id="Path_24482" data-name="Path 24482" d="M25.743,9.853a4.927,4.927,0,1,1,0,.013Zm0-8.572a3.652,3.652,0,1,0,3.652,3.652A3.658,3.658,0,0,0,25.743,1.281Z" transform="translate(-20.81)" fill="url(#linear-gradient-2)"/>
      </g>
      <g id="Group_3568" data-name="Group 3568" transform="translate(0 12.33)">
        <path id="Path_24483" data-name="Path 24483" d="M34.525,18.14H26.017v-.679a10.227,10.227,0,0,0-5.253-5.189L19.7,11.81l.961-.653a8.96,8.96,0,0,1,5.292-1.525,8.893,8.893,0,0,1,8.521,5.33l.051.256v2.934Zm-7.381-1.281h6.1V15.347a7.583,7.583,0,0,0-7.252-4.433H25.94a7.606,7.606,0,0,0-3.562.73,11.433,11.433,0,0,1,4.779,5.215Z" transform="translate(-19.7 -9.623)" fill="url(#linear-gradient-3)"/>
      </g>
    </g>
    <g id="Group_3572" data-name="Group 3572" transform="translate(0 0)">
      <g id="Group_3570" data-name="Group 3570" transform="translate(3.806)">
        <path id="Path_24484" data-name="Path 24484" d="M7.9,9.853a4.927,4.927,0,1,1,0,.013Zm0-8.572a3.652,3.652,0,1,0,3.652,3.652A3.658,3.658,0,0,0,7.9,1.281Z" transform="translate(-2.97)" fill="url(#linear-gradient-6)"/>
      </g>
      <g id="Group_3571" data-name="Group 3571" transform="translate(0 12.331)">
        <path id="Path_24485" data-name="Path 24485" d="M8.521,18.14H0l.051-3.178a8.912,8.912,0,0,1,8.521-5.33,8.934,8.934,0,0,1,5.292,1.525l.961.653-1.064.461a10.227,10.227,0,0,0-5.253,5.189v.679Zm-7.24-1.281h6.1a11.433,11.433,0,0,1,4.779-5.215,7.767,7.767,0,0,0-3.562-.73H8.547a7.638,7.638,0,0,0-7.265,4.433v1.512Z" transform="translate(0 -9.624)" fill="url(#linear-gradient-7)"/>
      </g>
    </g>
  </g>
</svg>
