<svg xmlns="http://www.w3.org/2000/svg" xmlns:xlink="http://www.w3.org/1999/xlink" width="79" height="65.08" viewBox="0 0 79 65.08">
  <defs>
    <linearGradient id="linear-gradient" x1="0.5" x2="0.5" y2="1" gradientUnits="objectBoundingBox">
      <stop offset="0" stop-color="#33d4a3"/>
      <stop offset="0.304" stop-color="#2dacb1"/>
      <stop offset="1" stop-color="#2986c0"/>
      <stop offset="1" stop-color="#2466cf"/>
    </linearGradient>
  </defs>
  <g id="Group_2590" data-name="Group 2590" transform="translate(0)" opacity="0.54">
    <path id="engineering_24dp_5F6368_FILL0_wght200_GRAD0_opsz24" d="M76.62-751.84v-6.447a7.948,7.948,0,0,1,1.363-4.565,9.832,9.832,0,0,1,3.849-3.254,51.4,51.4,0,0,1,10.583-3.856,47.507,47.507,0,0,1,11.623-1.462,47.5,47.5,0,0,1,11.622,1.462,51.4,51.4,0,0,1,10.583,3.856,9.832,9.832,0,0,1,3.849,3.254,7.944,7.944,0,0,1,1.364,4.565v6.447Zm3.917-3.917h47v-2.531a3.825,3.825,0,0,0-.916-2.637,8.061,8.061,0,0,0-2.248-1.747,45.059,45.059,0,0,0-9.209-3.374,43.387,43.387,0,0,0-11.129-1.462,43.39,43.39,0,0,0-11.13,1.462,45.06,45.06,0,0,0-9.209,3.374,8.061,8.061,0,0,0-2.248,1.747,3.828,3.828,0,0,0-.915,2.637Zm23.5-24.406a11.387,11.387,0,0,1-8.392-3.36,11.955,11.955,0,0,1-3.359-8.842h-.829a1.461,1.461,0,0,1-1.08-.426,1.464,1.464,0,0,1-.426-1.081,1.465,1.465,0,0,1,.426-1.081,1.463,1.463,0,0,1,1.08-.425h.829a14.819,14.819,0,0,1,1.249-5.408,14.12,14.12,0,0,1,3.571-4.641v3.721a1.466,1.466,0,0,0,.425,1.081,1.465,1.465,0,0,0,1.081.426,1.465,1.465,0,0,0,1.081-.426,1.465,1.465,0,0,0,.426-1.081v-5.137a14.231,14.231,0,0,1,1.822-.516,9.781,9.781,0,0,1,2.095-.222,9.767,9.767,0,0,1,2.094.222,14.276,14.276,0,0,1,1.823.516v5.137a1.466,1.466,0,0,0,.425,1.081,1.465,1.465,0,0,0,1.081.426,1.465,1.465,0,0,0,1.081-.426,1.467,1.467,0,0,0,.425-1.081v-3.721a13.3,13.3,0,0,1,3.608,4.641,15.343,15.343,0,0,1,1.213,5.408h.828a1.467,1.467,0,0,1,1.081.425,1.467,1.467,0,0,1,.425,1.081,1.466,1.466,0,0,1-.425,1.081,1.464,1.464,0,0,1-1.081.426h-.828a11.952,11.952,0,0,1-3.36,8.842A11.385,11.385,0,0,1,104.038-780.162Zm0-3.917a7.6,7.6,0,0,0,5.607-2.226,7.6,7.6,0,0,0,2.227-5.608H96.2A7.6,7.6,0,0,0,98.43-786.3,7.6,7.6,0,0,0,104.038-784.079Zm29.527,11.3-.286-2.788a7.1,7.1,0,0,1-1.54-.629,5.832,5.832,0,0,1-1.367-1l-2.591,1.13-1.507-2.621,2.305-1.657a2.555,2.555,0,0,1-.151-.814v-1.589a3.2,3.2,0,0,1,.151-.852l-2.305-1.657,1.507-2.621,2.591,1.13a5.915,5.915,0,0,1,1.355-.987,7.038,7.038,0,0,1,1.552-.639l.286-2.788h3.013l.287,2.788a7.044,7.044,0,0,1,1.551.639,5.907,5.907,0,0,1,1.356.987l2.591-1.13,1.506,2.621-2.3,1.657a3.222,3.222,0,0,1,.15.852v1.589a2.569,2.569,0,0,1-.15.814l2.3,1.657-1.506,2.621-2.591-1.13a5.832,5.832,0,0,1-1.367,1,7.123,7.123,0,0,1-1.54.629l-.287,2.788Zm1.507-5.65a3.412,3.412,0,0,0,2.508-1.031,3.415,3.415,0,0,0,1.032-2.509,3.415,3.415,0,0,0-1.032-2.509,3.414,3.414,0,0,0-2.508-1.031,3.418,3.418,0,0,0-2.509,1.031,3.415,3.415,0,0,0-1.032,2.509,3.415,3.415,0,0,0,1.032,2.509A3.416,3.416,0,0,0,135.072-778.429Zm7.954-15.592-.332-3.058a8.256,8.256,0,0,1-2.331-.885,6.091,6.091,0,0,1-1.962-1.63l-2.907,1.22-1.687-2.892,2.575-1.883a5.74,5.74,0,0,1-.271-1.16,9.229,9.229,0,0,1-.075-1.16,9.232,9.232,0,0,1,.075-1.16,5.728,5.728,0,0,1,.271-1.159l-2.575-1.883,1.687-2.893,2.907,1.22a6.081,6.081,0,0,1,1.962-1.63,8.253,8.253,0,0,1,2.331-.885l.332-3.058H146.4l.332,3.058a8.253,8.253,0,0,1,2.331.885,6.081,6.081,0,0,1,1.962,1.63l2.907-1.22,1.687,2.893-2.575,1.883a5.728,5.728,0,0,1,.271,1.159,9.235,9.235,0,0,1,.075,1.16,9.232,9.232,0,0,1-.075,1.16,5.735,5.735,0,0,1-.271,1.159l2.575,1.883-1.687,2.892-2.907-1.22a6.091,6.091,0,0,1-1.962,1.63,8.256,8.256,0,0,1-2.331.885l-.332,3.058Zm1.687-6.1a5.176,5.176,0,0,0,3.815-1.533,5.177,5.177,0,0,0,1.533-3.815,5.176,5.176,0,0,0-1.533-3.815,5.176,5.176,0,0,0-3.815-1.533,5.177,5.177,0,0,0-3.815,1.533,5.176,5.176,0,0,0-1.533,3.815,5.177,5.177,0,0,0,1.533,3.815A5.176,5.176,0,0,0,144.713-800.122ZM104.038-755.756Z" transform="translate(-76.62 816.92)" fill="url(#linear-gradient)"/>
  </g>
</svg>
