<svg xmlns="http://www.w3.org/2000/svg" width="107.117" height="112.264" viewBox="0 0 107.117 112.264">
  <g id="Group_4980" data-name="Group 4980" transform="translate(13664.758 12115.634)">
    <path id="Path_24669" data-name="Path 24669" d="M214.141,88.541h-2.312V83.57a10.727,10.727,0,0,0-2.081-1.5H197.609a1.054,1.054,0,0,0-1.156,1.04v5.434H194.14V82.992a3.551,3.551,0,0,1,3.584-3.237h12.718c.578.231,3.353,1.387,3.815,3.584v5.087Z" transform="translate(-13815.031 -12195.384)" fill="#fff"/>
    <path id="Path_24670" data-name="Path 24670" d="M258.257,94.55H198.37a6.662,6.662,0,0,1-6.59-6.59,6.587,6.587,0,0,1,6.59-6.59h59.888a6.59,6.59,0,1,1,0,13.18ZM198.37,83.8a4.278,4.278,0,0,0,0,8.555h59.888a4.278,4.278,0,0,0,0-8.555Z" transform="translate(-13839.957 -12178.271)" fill="#fff"/>
    <path id="Path_24671" data-name="Path 24671" d="M194.587,92.163l-2.2-.694,2.775-8.555a3.809,3.809,0,0,1,4.393-2.428h47.286c1.5.116,3.931,1.04,4.278,3.353l1.965,7.631-2.2.578L248.925,84.3c-.231-1.272-2.2-1.619-2.2-1.619H199.442a1.763,1.763,0,0,0-2.081.925l-2.775,8.44Z" transform="translate(-13833.515 -12188.369)" fill="#fff"/>
    <path id="Path_24672" data-name="Path 24672" d="M203.994,111.408a12.024,12.024,0,1,1,12.024-12.024A12.089,12.089,0,0,1,203.994,111.408Zm0-21.62a9.711,9.711,0,1,0,9.711,9.711A9.77,9.77,0,0,0,203.994,89.788Z" transform="translate(-13837.95 -12115.008)" fill="#fff"/>
    <path id="Path_24673" data-name="Path 24673" d="M199.03,101.01a6.59,6.59,0,1,1,6.59-6.59A6.662,6.662,0,0,1,199.03,101.01Zm0-10.752a4.278,4.278,0,1,0,4.278,4.278A4.344,4.344,0,0,0,199.03,90.258Z" transform="translate(-13832.986 -12110.043)" fill="#fff"/>
    <path id="Path_24674" data-name="Path 24674" d="M197.5,139.547,192.18,82.781l2.312-.231,5.318,56.766Z" transform="translate(-13835.732 -12165.809)" fill="#fff"/>
    <path id="Path_24675" data-name="Path 24675" d="M199.642,121.86l-2.312-.231,3.7-39.308,2.312.116Z" transform="translate(-13781.342 -12168.237)" fill="#fff"/>
    <rect id="Rectangle_1967" data-name="Rectangle 1967" width="19.885" height="2.312" transform="translate(-13623.204 -12011.347)" fill="#fff"/>
    <path id="Path_24676" data-name="Path 24676" d="M193.46,101.247l8.671-16.417,2.081,1.04-6.821,12.949h7.052l-.347,1.04-.231,1.156H193.576Z" transform="translate(-13822.213 -12141.728)" fill="#fff"/>
    <path id="Path_24677" data-name="Path 24677" d="M213.283,93.537H194.9V91.225h14.221l-2.659-4.393,1.966-1.272Z" transform="translate(-13807.007 -12134.019)" fill="#fff"/>
    <path id="Path_24678" data-name="Path 24678" d="M206.971,101.113l-7.4-12.833-3.006,5.665L194.6,92.789l4.971-9.249,9.365,16.417Z" transform="translate(-13810.174 -12155.354)" fill="#fff"/>
    <path id="Path_24679" data-name="Path 24679" d="M200.9,92.512l-1.5-4.856-4.856,1.619-.693-2.2L200.9,84.65l2.2,7.168Z" transform="translate(-13818.095 -12143.629)" fill="#fff"/>
    <path id="Path_24680" data-name="Path 24680" d="M199.219,96.1l-4.509-5.9,6.127-4.509,1.387,1.965-4.162,3.006,3.006,3.931Z" transform="translate(-13809.014 -12132.646)" fill="#fff"/>
    <path id="Path_24681" data-name="Path 24681" d="M202.408,92.442l-7.168-2.2.694-2.2,4.856,1.5,1.387-4.971,2.2.694Z" transform="translate(-13803.415 -12144.368)" fill="#fff"/>
    <path id="Path_24682" data-name="Path 24682" d="M216.06,120.963a25.31,25.31,0,0,1-17.111-7.052c-6.127-6.012-9.018-15.377-8.556-27.632v-.694l.694-.231a25.99,25.99,0,0,1,24.048,3.121l-1.387,1.85c-9.018-6.359-18.5-3.931-21.157-3.121-.231,11.214,2.312,19.654,7.862,25.088,6.821,6.706,15.723,6.359,15.839,6.474v2.312h-.347Z" transform="translate(-13855.104 -12153.467)" fill="#fff"/>
    <path id="Path_24683" data-name="Path 24683" d="M202.317,127.121a39.178,39.178,0,0,1-5.2-.231h-1.041v-1.04c0-.809-1.272-20.81,10.983-32.256,6.821-6.359,16.417-8.9,28.672-7.168h.809l.116.925c.116.694,3.7,17.8-6.474,29.481-5.9,6.821-15.377,10.29-27.863,10.29Zm-3.931-2.428c13.989.809,24.048-2.428,30.175-9.365,8.209-9.48,6.59-23.238,6.012-26.707-11.1-1.272-19.886.925-26.013,6.706-9.943,9.365-10.29,25.2-10.29,29.366Z" transform="translate(-13795 -12130.491)" fill="#fff"/>
    <rect id="Rectangle_1968" data-name="Rectangle 1968" width="9.133" height="2.312" transform="translate(-13652.454 -12049.036)" fill="#fff"/>
    <rect id="Rectangle_1969" data-name="Rectangle 1969" width="2.312" height="10.636" transform="translate(-13582.162 -12031.694)" fill="#fff"/>
    <rect id="Rectangle_1970" data-name="Rectangle 1970" width="2.312" height="8.093" transform="matrix(0.113, -0.994, 0.994, 0.113, -13586.73, -12014.033)" fill="#fff"/>
    <rect id="Rectangle_1971" data-name="Rectangle 1971" width="33.528" height="2.312" transform="translate(-13596.638 -12005.95) rotate(-45.59)" fill="#fff"/>
    <rect id="Rectangle_1972" data-name="Rectangle 1972" width="2.312" height="18.614" transform="matrix(0.684, -0.729, 0.729, 0.684, -13654.593, -12056.738)" fill="#fff"/>
  </g>
</svg>
