<svg xmlns="http://www.w3.org/2000/svg" xmlns:xlink="http://www.w3.org/1999/xlink" width="45.423" height="47.606" viewBox="0 0 45.423 47.606">
  <defs>
    <linearGradient id="linear-gradient" x1="-0.006" y1="0.5" x2="0.994" y2="0.5" gradientUnits="objectBoundingBox">
      <stop offset="0" stop-color="#55bf9b"/>
      <stop offset="0.15" stop-color="#2dacb1"/>
      <stop offset="0.4" stop-color="#2986c1"/>
      <stop offset="1" stop-color="#3b67b1"/>
    </linearGradient>
    <linearGradient id="linear-gradient-2" x1="0" y1="0.509" x2="1" y2="0.509" xlink:href="#linear-gradient"/>
    <linearGradient id="linear-gradient-3" x1="0" y1="0.498" x2="1" y2="0.498" xlink:href="#linear-gradient"/>
    <linearGradient id="linear-gradient-4" x1="0" y1="0.505" x2="0.995" y2="0.505" xlink:href="#linear-gradient"/>
    <linearGradient id="linear-gradient-5" x1="0" y1="0.509" x2="0.991" y2="0.509" xlink:href="#linear-gradient"/>
    <linearGradient id="linear-gradient-6" x1="0" y1="0.499" x2="1" y2="0.499" xlink:href="#linear-gradient"/>
    <linearGradient id="linear-gradient-7" x1="0" y1="0.5" x2="1" y2="0.5" xlink:href="#linear-gradient"/>
    <linearGradient id="linear-gradient-9" x1="0" y1="0.507" x2="0.989" y2="0.507" xlink:href="#linear-gradient"/>
    <linearGradient id="linear-gradient-10" x1="0" y1="0.507" x2="1" y2="0.507" xlink:href="#linear-gradient"/>
    <linearGradient id="linear-gradient-13" x1="-38.139" y1="100.134" x2="-36.908" y2="100.134" xlink:href="#linear-gradient"/>
    <linearGradient id="linear-gradient-14" x1="-126.406" y1="32.735" x2="-125.381" y2="32.735" xlink:href="#linear-gradient"/>
    <linearGradient id="linear-gradient-15" x1="0.002" y1="0.499" x2="1.009" y2="0.499" xlink:href="#linear-gradient"/>
    <linearGradient id="linear-gradient-16" x1="0.001" y1="0.501" x2="1.003" y2="0.501" xlink:href="#linear-gradient"/>
    <linearGradient id="linear-gradient-17" x1="0" y1="0.55" x2="1" y2="0.55" xlink:href="#linear-gradient"/>
    <linearGradient id="linear-gradient-18" x1="0" y1="0.511" x2="1" y2="0.511" xlink:href="#linear-gradient"/>
    <linearGradient id="linear-gradient-19" x1="-1.3" y1="0.5" x2="2.3" y2="0.5" xlink:href="#linear-gradient"/>
    <linearGradient id="linear-gradient-20" x1="0.128" y1="0.5" x2="0.876" y2="0.5" xlink:href="#linear-gradient"/>
    <linearGradient id="linear-gradient-21" x1="-2.75" y1="0.503" x2="3.8" y2="0.503" xlink:href="#linear-gradient"/>
  </defs>
  <g id="Group_5435" data-name="Group 5435" transform="translate(-2342.147 -325)">
    <g id="Group_4980" data-name="Group 4980" transform="translate(2342.147 325)">
      <path id="Path_24669" data-name="Path 24669" d="M202.621,83.478h-.98V81.37a4.548,4.548,0,0,0-.882-.637h-5.148a.447.447,0,0,0-.49.441v2.3h-.98V81.124a1.506,1.506,0,0,1,1.52-1.373h5.393c.245.1,1.422.588,1.618,1.52v2.157Z" transform="translate(-175.538 -79.75)" fill="url(#linear-gradient)"/>
      <path id="Path_24670" data-name="Path 24670" d="M219.97,86.959h-25.4a2.825,2.825,0,0,1-2.794-2.794,2.793,2.793,0,0,1,2.794-2.794h25.4a2.794,2.794,0,1,1,0,5.589Zm-25.4-4.559a1.814,1.814,0,0,0,0,3.628h25.4a1.814,1.814,0,0,0,0-3.628Z" transform="translate(-184.749 -73.426)" fill="url(#linear-gradient-2)"/>
      <path id="Path_24671" data-name="Path 24671" d="M193.322,85.4l-.931-.294,1.177-3.628a1.615,1.615,0,0,1,1.863-1.03h20.052a1.9,1.9,0,0,1,1.814,1.422l.833,3.236-.932.245-.833-3.285c-.1-.539-.931-.686-.931-.686H195.381a.748.748,0,0,0-.882.392l-1.177,3.579Z" transform="translate(-182.368 -77.158)" fill="url(#linear-gradient-3)"/>
      <path id="Path_24672" data-name="Path 24672" d="M197.069,97.557a5.1,5.1,0,1,1,5.1-5.1A5.126,5.126,0,0,1,197.069,97.557Zm0-9.168a4.118,4.118,0,1,0,4.118,4.118A4.143,4.143,0,0,0,197.069,88.389Z" transform="translate(-184.007 -50.049)" fill="url(#linear-gradient-4)"/>
      <path id="Path_24673" data-name="Path 24673" d="M195.235,93.419a2.794,2.794,0,1,1,2.794-2.794A2.825,2.825,0,0,1,195.235,93.419Zm0-4.559a1.814,1.814,0,1,0,1.814,1.814A1.842,1.842,0,0,0,195.235,88.86Z" transform="translate(-182.173 -48.215)" fill="url(#linear-gradient-5)"/>
      <path id="Path_24674" data-name="Path 24674" d="M194.435,106.72,192.18,82.648l.981-.1,2.255,24.072Z" transform="translate(-183.188 -68.821)" fill="url(#linear-gradient-6)"/>
      <path id="Path_24675" data-name="Path 24675" d="M198.31,99.087l-.98-.1L198.9,82.32l.981.049Z" transform="translate(-163.09 -69.719)" fill="url(#linear-gradient-7)"/>
      <rect id="Rectangle_1967" data-name="Rectangle 1967" width="8.432" height="0.981" transform="translate(17.621 44.223)" fill="url(#linear-gradient-7)"/>
      <path id="Path_24676" data-name="Path 24676" d="M193.46,91.792l3.677-6.962.882.441-2.892,5.491h2.991l-.147.441-.1.49h-4.363Z" transform="translate(-178.192 -59.923)" fill="url(#linear-gradient-9)"/>
      <path id="Path_24677" data-name="Path 24677" d="M202.7,88.943h-7.8v-.981h6.03L199.8,86.1l.834-.539Z" transform="translate(-172.573 -57.074)" fill="url(#linear-gradient-10)"/>
      <path id="Path_24678" data-name="Path 24678" d="M199.846,90.992l-3.138-5.442-1.275,2.4-.833-.49,2.108-3.922,3.971,6.962Z" transform="translate(-173.744 -64.958)" fill="url(#linear-gradient-7)"/>
      <path id="Path_24679" data-name="Path 24679" d="M196.841,87.984l-.637-2.059-2.059.686-.294-.932,2.991-1.03.931,3.04Z" transform="translate(-176.67 -60.625)" fill="url(#linear-gradient-7)"/>
      <path id="Path_24680" data-name="Path 24680" d="M196.622,90.1l-1.912-2.5,2.6-1.912.588.833L196.132,87.8l1.275,1.667Z" transform="translate(-173.315 -56.567)" fill="url(#linear-gradient-13)"/>
      <path id="Path_24681" data-name="Path 24681" d="M198.28,87.914l-3.04-.931.294-.932,2.059.637.588-2.108.932.294Z" transform="translate(-171.246 -60.898)" fill="url(#linear-gradient-14)"/>
      <path id="Path_24682" data-name="Path 24682" d="M201.25,99.512a10.733,10.733,0,0,1-7.256-2.991c-2.6-2.549-3.824-6.52-3.628-11.717V84.51l.294-.1a11.021,11.021,0,0,1,10.2,1.324l-.588.784A10.351,10.351,0,0,0,191.3,85.2c-.1,4.756.981,8.334,3.334,10.639a10.3,10.3,0,0,0,6.717,2.745v.98H201.2Z" transform="translate(-190.346 -64.261)" fill="url(#linear-gradient-15)"/>
      <path id="Path_24683" data-name="Path 24683" d="M198.7,103.376a16.614,16.614,0,0,1-2.206-.1h-.441v-.441c0-.343-.539-8.825,4.657-13.678,2.893-2.7,6.962-3.775,12.158-3.04h.343l.049.392c.049.294,1.569,7.55-2.745,12.5-2.5,2.893-6.52,4.363-11.815,4.363Zm-1.667-1.03c5.932.343,10.2-1.03,12.8-3.971,3.481-4.02,2.795-9.854,2.549-11.325-4.707-.539-8.432.392-11.031,2.844-4.216,3.971-4.363,10.688-4.363,12.453Z" transform="translate(-168.137 -55.771)" fill="url(#linear-gradient-16)"/>
      <rect id="Rectangle_1968" data-name="Rectangle 1968" width="3.873" height="0.981" transform="translate(5.217 28.241)" fill="url(#linear-gradient-17)"/>
      <rect id="Rectangle_1969" data-name="Rectangle 1969" width="0.981" height="4.51" transform="translate(35.025 35.595)" fill="url(#linear-gradient-18)"/>
      <rect id="Rectangle_1970" data-name="Rectangle 1970" width="0.981" height="3.432" transform="matrix(0.113, -0.994, 0.994, 0.113, 33.088, 43.084)" fill="url(#linear-gradient-19)"/>
      <rect id="Rectangle_1971" data-name="Rectangle 1971" width="14.218" height="0.981" transform="translate(28.886 46.512) rotate(-45.59)" fill="url(#linear-gradient-20)"/>
      <rect id="Rectangle_1972" data-name="Rectangle 1972" width="0.981" height="7.893" transform="matrix(0.684, -0.729, 0.729, 0.684, 4.31, 24.975)" fill="url(#linear-gradient-21)"/>
    </g>
  </g>
</svg>
