<svg xmlns="http://www.w3.org/2000/svg" xmlns:xlink="http://www.w3.org/1999/xlink" width="40.068" height="31.404" viewBox="0 0 40.068 31.404">
  <defs>
    <linearGradient id="linear-gradient" y1="0.5" x2="1" y2="0.5" gradientUnits="objectBoundingBox">
      <stop offset="0" stop-color="#54be9a"/>
      <stop offset="0.33" stop-color="#2cabb0"/>
      <stop offset="0.74" stop-color="#2785c0"/>
      <stop offset="1" stop-color="#3a67b0"/>
    </linearGradient>
    <linearGradient id="linear-gradient-5" y1="0.496" y2="0.496" xlink:href="#linear-gradient"/>
    <linearGradient id="linear-gradient-6" x2="1.003" xlink:href="#linear-gradient"/>
    <linearGradient id="linear-gradient-8" x1="0.012" y1="0.512" y2="0.512" xlink:href="#linear-gradient"/>
    <linearGradient id="linear-gradient-9" y1="0.512" x2="0.988" y2="0.512" xlink:href="#linear-gradient"/>
    <linearGradient id="linear-gradient-13" y1="0.499" x2="1.001" y2="0.499" xlink:href="#linear-gradient"/>
    <linearGradient id="linear-gradient-16" y1="0.505" y2="0.505" xlink:href="#linear-gradient"/>
  </defs>
  <g id="Group_3751" data-name="Group 3751" opacity="0.63">
    <g id="Group_3743" data-name="Group 3743">
      <path id="Path_24442" data-name="Path 24442" d="M8.039,17.415h-6.5A.536.536,0,0,1,1,16.873V12.541A.536.536,0,0,1,1.541,12h6.5a.536.536,0,0,1,.541.541v4.332A.536.536,0,0,1,8.039,17.415ZM2.083,16.332H7.5V13.083H2.083Z" transform="translate(1.166 13.99)" fill="url(#linear-gradient)"/>
      <path id="Path_24443" data-name="Path 24443" d="M39.526,15.083H.541A.541.541,0,0,1,.541,14H39.526a.541.541,0,1,1,0,1.083Z" transform="translate(0 16.321)" fill="url(#linear-gradient)"/>
      <path id="Path_24444" data-name="Path 24444" d="M4.707,21.244H2.541A.536.536,0,0,1,2,20.7V5.541A.536.536,0,0,1,2.541,5H4.707a.536.536,0,0,1,.541.541V20.7A.536.536,0,0,1,4.707,21.244ZM3.083,20.161H4.166V6.083H3.083Z" transform="translate(2.332 5.829)" fill="url(#linear-gradient)"/>
      <path id="Path_24445" data-name="Path 24445" d="M5.956,11.912a5.956,5.956,0,1,1,5.956-5.956A5.953,5.953,0,0,1,5.956,11.912Zm0-10.829a4.873,4.873,0,1,0,4.873,4.873A4.88,4.88,0,0,0,5.956,1.083Z" fill="url(#linear-gradient)"/>
      <path id="Path_24446" data-name="Path 24446" d="M2.621,7.369a.536.536,0,0,1-.541-.541V2.041A.536.536,0,0,1,2.621,1.5H3.986a1.906,1.906,0,0,1,0,3.812H3.141V6.85a.536.536,0,0,1-.541.541Zm.541-4.786V4.251h.845a.814.814,0,0,0,.823-.823A.823.823,0,0,0,4.008,2.6H3.185Z" transform="translate(2.425 1.749)" fill="url(#linear-gradient-5)"/>
      <path id="Path_24447" data-name="Path 24447" d="M10.747,18.214A3.617,3.617,0,1,1,14.364,14.6,3.623,3.623,0,0,1,10.747,18.214Zm.022-6.173A2.534,2.534,0,1,0,13.3,14.575,2.537,2.537,0,0,0,10.769,12.041Z" transform="translate(8.312 12.801)" fill="url(#linear-gradient-6)"/>
      <path id="Path_24448" data-name="Path 24448" d="M17.067,18.214A3.617,3.617,0,1,1,20.684,14.6a3.623,3.623,0,0,1-3.617,3.617Zm0-6.173A2.534,2.534,0,1,0,19.6,14.575a2.537,2.537,0,0,0-2.534-2.534Z" transform="translate(15.68 12.801)" fill="url(#linear-gradient-6)"/>
      <path id="Path_24449" data-name="Path 24449" d="M15.6,14.006a.888.888,0,1,1,.888-.888A.878.878,0,0,1,15.6,14.006Zm0-1.083a.194.194,0,0,0-.195.195c0,.217.39.217.39,0A.194.194,0,0,0,15.6,12.923Z" transform="translate(17.149 14.258)" fill="url(#linear-gradient-8)"/>
      <path id="Path_24450" data-name="Path 24450" d="M9.288,14.006a.888.888,0,1,1,.888-.888A.878.878,0,0,1,9.288,14.006Zm0-1.083a.194.194,0,0,0-.195.195c0,.217.39.217.39,0A.194.194,0,0,0,9.288,12.923Z" transform="translate(9.793 14.258)" fill="url(#linear-gradient-9)"/>
      <path id="Path_24451" data-name="Path 24451" d="M8.707,13.083H6.541a.541.541,0,1,1,0-1.083H8.707a.541.541,0,0,1,0,1.083Z" transform="translate(6.995 13.99)" fill="url(#linear-gradient)"/>
      <path id="Path_24452" data-name="Path 24452" d="M17.039,13.083h-6.5a.541.541,0,0,1,0-1.083h6.5a.541.541,0,0,1,0,1.083Z" transform="translate(11.658 13.99)" fill="url(#linear-gradient)"/>
      <path id="Path_24453" data-name="Path 24453" d="M20.873,13.083H16.541a.541.541,0,0,1,0-1.083h4.332a.541.541,0,0,1,0,1.083Z" transform="translate(18.653 13.99)" fill="url(#linear-gradient)"/>
      <path id="Path_24454" data-name="Path 24454" d="M30.685,20a.536.536,0,0,1-.541-.541V16.727a3.577,3.577,0,0,0-3.574-3.574.565.565,0,0,1-.455-.238L23.625,9.19A4.922,4.922,0,0,0,19.531,7H13.445A3.452,3.452,0,0,0,10,10.447v2.166a.536.536,0,0,1-.541.541,2.2,2.2,0,0,0-2.187,2.187v4.115a.541.541,0,1,1-1.083,0V15.341a3.282,3.282,0,0,1,2.729-3.227V10.447A4.538,4.538,0,0,1,13.445,5.92h6.086a5.989,5.989,0,0,1,5,2.686l2.317,3.487a4.667,4.667,0,0,1,4.353,4.656v2.729a.536.536,0,0,1-.541.541Z" transform="translate(7.216 6.902)" fill="url(#linear-gradient-13)"/>
      <path id="Path_24455" data-name="Path 24455" d="M15.833,11.685H12.411a.536.536,0,0,1-.541-.541V7.721a.536.536,0,0,1,.541-.541,3.965,3.965,0,0,1,3.963,3.963A.536.536,0,0,1,15.833,11.685ZM12.953,10.6h2.3a2.915,2.915,0,0,0-2.3-2.3v2.3Z" transform="translate(13.838 8.371)" fill="url(#linear-gradient)"/>
      <path id="Path_24456" data-name="Path 24456" d="M13.366,11.685H9.251a.536.536,0,0,1-.541-.541V9.8a2.639,2.639,0,0,1,2.6-2.621h2.058a.536.536,0,0,1,.541.541v3.422A.536.536,0,0,1,13.366,11.685ZM9.793,10.6h3.032V8.263H11.309a1.456,1.456,0,0,0-1.083.455A1.542,1.542,0,0,0,9.771,9.8v.823Z" transform="translate(10.154 8.371)" fill="url(#linear-gradient)"/>
      <path id="Path_24457" data-name="Path 24457" d="M12.541,11.089a.582.582,0,0,1-.39-.173.623.623,0,0,1-.152-.39.565.565,0,0,1,.152-.368l.195-.13a.668.668,0,0,1,.412,0,1.2,1.2,0,0,1,.173.13.472.472,0,0,1,.108.173.322.322,0,0,1,.043.195.356.356,0,0,1-.043.217.472.472,0,0,1-.108.173.542.542,0,0,1-.39.173Z" transform="translate(13.99 11.652)" fill="url(#linear-gradient-16)"/>
    </g>
  </g>
</svg>
