<svg xmlns="http://www.w3.org/2000/svg" xmlns:xlink="http://www.w3.org/1999/xlink" width="235.877" height="166.766" viewBox="0 0 235.877 166.766">
  <defs>
    <filter id="Path_13820" x="45.993" y="9.527" width="143.891" height="157.238" filterUnits="userSpaceOnUse">
      <feOffset dy="6" input="SourceAlpha"/>
      <feGaussianBlur stdDeviation="11.5" result="blur"/>
      <feFlood flood-color="#009530"/>
      <feComposite operator="in" in2="blur"/>
    </filter>
    <filter id="Path_13820-2" x="45.993" y="9.527" width="143.891" height="157.238" filterUnits="userSpaceOnUse">
      <feOffset dx="-8" dy="7" input="SourceAlpha"/>
      <feGaussianBlur stdDeviation="5" result="blur-2"/>
      <feFlood flood-color="#009530" flood-opacity="0.161" result="color"/>
      <feComposite operator="out" in="SourceGraphic" in2="blur-2"/>
      <feComposite operator="in" in="color"/>
      <feComposite operator="in" in2="SourceGraphic"/>
    </filter>
    <filter id="Path_13821" x="103.037" y="0" width="132.84" height="157.239" filterUnits="userSpaceOnUse">
      <feOffset dy="6" input="SourceAlpha"/>
      <feGaussianBlur stdDeviation="11.5" result="blur-3"/>
      <feFlood flood-color="#009530"/>
      <feComposite operator="in" in2="blur-3"/>
    </filter>
    <filter id="Path_13821-2" x="103.037" y="0" width="132.84" height="157.239" filterUnits="userSpaceOnUse">
      <feOffset dx="-8" dy="7" input="SourceAlpha"/>
      <feGaussianBlur stdDeviation="5" result="blur-4"/>
      <feFlood flood-color="#009530" flood-opacity="0.161" result="color-2"/>
      <feComposite operator="out" in="SourceGraphic" in2="blur-4"/>
      <feComposite operator="in" in="color-2"/>
      <feComposite operator="in" in2="SourceGraphic"/>
    </filter>
    <filter id="Path_13822" x="0" y="0" width="132.848" height="157.239" filterUnits="userSpaceOnUse">
      <feOffset dy="6" input="SourceAlpha"/>
      <feGaussianBlur stdDeviation="11.5" result="blur-5"/>
      <feFlood flood-color="#009530"/>
      <feComposite operator="in" in2="blur-5"/>
    </filter>
    <filter id="Path_13822-2" x="0" y="0" width="132.848" height="157.239" filterUnits="userSpaceOnUse">
      <feOffset dx="-8" dy="7" input="SourceAlpha"/>
      <feGaussianBlur stdDeviation="5" result="blur-6"/>
      <feFlood flood-color="#009530" flood-opacity="0.161" result="color-3"/>
      <feComposite operator="out" in="SourceGraphic" in2="blur-6"/>
      <feComposite operator="in" in="color-3"/>
      <feComposite operator="in" in2="SourceGraphic"/>
    </filter>
  </defs>
  <g id="Group_5419" data-name="Group 5419" transform="translate(-3100.652 -307.736)">
    <g data-type="innerShadowGroup">
      <g transform="matrix(1, 0, 0, 1, 3100.65, 307.74)" filter="url(#Path_13820)">
        <path id="Path_13820-3" data-name="Path 13820" d="M69.248,68.866a3.179,3.179,0,0,1-1.923-2.921,3.241,3.241,0,0,1,1.007-2.378c.2-.187.384-.372.525-.52A19.771,19.771,0,0,0,50.792,30.02,19.323,19.323,0,0,0,35.2,45.171a19.772,19.772,0,0,0,5.453,18.355,3.355,3.355,0,0,1,1.046,2.382v.017a3.183,3.183,0,0,1-1.923,2.952,32.544,32.544,0,0,0-17.5,17.338,41.4,41.4,0,0,0-3.451,17.051v4.225a6.9,6.9,0,0,0,6.9,6.9H83.311a6.9,6.9,0,0,0,6.9-6.9v-4.268a41.311,41.311,0,0,0-3.456-17.042,32.536,32.536,0,0,0-17.5-17.315Z" transform="translate(63.42 10.13)" fill="none" stroke="#009530" stroke-width="3.5"/>
      </g>
      <g transform="matrix(1, 0, 0, 1, 3100.65, 307.74)" filter="url(#Path_13820-2)">
        <path id="Path_13820-4" data-name="Path 13820" d="M69.248,68.866a3.179,3.179,0,0,1-1.923-2.921,3.241,3.241,0,0,1,1.007-2.378c.2-.187.384-.372.525-.52A19.771,19.771,0,0,0,50.792,30.02,19.323,19.323,0,0,0,35.2,45.171a19.772,19.772,0,0,0,5.453,18.355,3.355,3.355,0,0,1,1.046,2.382v.017a3.183,3.183,0,0,1-1.923,2.952,32.544,32.544,0,0,0-17.5,17.338,41.4,41.4,0,0,0-3.451,17.051v4.225a6.9,6.9,0,0,0,6.9,6.9H83.311a6.9,6.9,0,0,0,6.9-6.9v-4.268a41.311,41.311,0,0,0-3.456-17.042,32.536,32.536,0,0,0-17.5-17.315Z" transform="translate(63.42 10.13)" fill="#fff"/>
      </g>
      <path id="Path_13820-5" data-name="Path 13820" d="M69.248,68.866a3.179,3.179,0,0,1-1.923-2.921,3.241,3.241,0,0,1,1.007-2.378c.2-.187.384-.372.525-.52A19.771,19.771,0,0,0,50.792,30.02,19.323,19.323,0,0,0,35.2,45.171a19.772,19.772,0,0,0,5.453,18.355,3.355,3.355,0,0,1,1.046,2.382v.017a3.183,3.183,0,0,1-1.923,2.952,32.544,32.544,0,0,0-17.5,17.338,41.4,41.4,0,0,0-3.451,17.051v4.225a6.9,6.9,0,0,0,6.9,6.9H83.311a6.9,6.9,0,0,0,6.9-6.9v-4.268a41.311,41.311,0,0,0-3.456-17.042,32.536,32.536,0,0,0-17.5-17.315Z" transform="translate(3164.074 317.861)" fill="none" stroke="#009530" stroke-width="3.5"/>
    </g>
    <g data-type="innerShadowGroup">
      <g transform="matrix(1, 0, 0, 1, 3100.65, 307.74)" filter="url(#Path_13821)">
        <path id="Path_13821-3" data-name="Path 13821" d="M95.975,82.663a32.535,32.535,0,0,0-17.5-17.315,3.181,3.181,0,0,1-1.923-2.921,3.243,3.243,0,0,1,1.007-2.378c.2-.187.385-.372.525-.52A19.77,19.77,0,0,0,60.018,26.5a19.321,19.321,0,0,0-15.6,15.151,19.772,19.772,0,0,0,5.452,18.355A3.351,3.351,0,0,1,50.92,62.39v.017A3.181,3.181,0,0,1,49,65.359a32.04,32.04,0,0,0-8.655,5.278,39.917,39.917,0,0,1,16.3,18.542,48.322,48.322,0,0,1,4.106,20.057v1.637H92.534a6.9,6.9,0,0,0,6.9-6.9v-4.27A41.306,41.306,0,0,0,95.975,82.663Z" transform="translate(100.19 4.12)" fill="none" stroke="#009530" stroke-width="3.5"/>
      </g>
      <g transform="matrix(1, 0, 0, 1, 3100.65, 307.74)" filter="url(#Path_13821-2)">
        <path id="Path_13821-4" data-name="Path 13821" d="M95.975,82.663a32.535,32.535,0,0,0-17.5-17.315,3.181,3.181,0,0,1-1.923-2.921,3.243,3.243,0,0,1,1.007-2.378c.2-.187.385-.372.525-.52A19.77,19.77,0,0,0,60.018,26.5a19.321,19.321,0,0,0-15.6,15.151,19.772,19.772,0,0,0,5.452,18.355A3.351,3.351,0,0,1,50.92,62.39v.017A3.181,3.181,0,0,1,49,65.359a32.04,32.04,0,0,0-8.655,5.278,39.917,39.917,0,0,1,16.3,18.542,48.322,48.322,0,0,1,4.106,20.057v1.637H92.534a6.9,6.9,0,0,0,6.9-6.9v-4.27A41.306,41.306,0,0,0,95.975,82.663Z" transform="translate(100.19 4.12)" fill="#fff"/>
      </g>
      <path id="Path_13821-5" data-name="Path 13821" d="M95.975,82.663a32.535,32.535,0,0,0-17.5-17.315,3.181,3.181,0,0,1-1.923-2.921,3.243,3.243,0,0,1,1.007-2.378c.2-.187.385-.372.525-.52A19.77,19.77,0,0,0,60.018,26.5a19.321,19.321,0,0,0-15.6,15.151,19.772,19.772,0,0,0,5.452,18.355A3.351,3.351,0,0,1,50.92,62.39v.017A3.181,3.181,0,0,1,49,65.359a32.04,32.04,0,0,0-8.655,5.278,39.917,39.917,0,0,1,16.3,18.542,48.322,48.322,0,0,1,4.106,20.057v1.637H92.534a6.9,6.9,0,0,0,6.9-6.9v-4.27A41.306,41.306,0,0,0,95.975,82.663Z" transform="translate(3200.844 311.852)" fill="none" stroke="#009530" stroke-width="3.5"/>
    </g>
    <g data-type="innerShadowGroup">
      <g transform="matrix(1, 0, 0, 1, 3100.65, 307.74)" filter="url(#Path_13822)">
        <path id="Path_13822-3" data-name="Path 13822" d="M60.941,70.635a32.016,32.016,0,0,0-8.674-5.287,3.181,3.181,0,0,1-1.923-2.921,3.242,3.242,0,0,1,1.008-2.378c.2-.187.384-.372.525-.52A19.77,19.77,0,0,0,33.812,26.5a19.322,19.322,0,0,0-15.6,15.151,19.774,19.774,0,0,0,5.452,18.355,3.35,3.35,0,0,1,1.046,2.381v.017a3.182,3.182,0,0,1-1.923,2.952A32.545,32.545,0,0,0,5.294,82.7,41.407,41.407,0,0,0,1.843,99.748v4.227a6.9,6.9,0,0,0,6.9,6.9H40.526v-1.6a48.439,48.439,0,0,1,4.1-20.059A39.924,39.924,0,0,1,60.941,70.635Z" transform="translate(34.41 4.12)" fill="none" stroke="#009530" stroke-width="3.5"/>
      </g>
      <g transform="matrix(1, 0, 0, 1, 3100.65, 307.74)" filter="url(#Path_13822-2)">
        <path id="Path_13822-4" data-name="Path 13822" d="M60.941,70.635a32.016,32.016,0,0,0-8.674-5.287,3.181,3.181,0,0,1-1.923-2.921,3.242,3.242,0,0,1,1.008-2.378c.2-.187.384-.372.525-.52A19.77,19.77,0,0,0,33.812,26.5a19.322,19.322,0,0,0-15.6,15.151,19.774,19.774,0,0,0,5.452,18.355,3.35,3.35,0,0,1,1.046,2.381v.017a3.182,3.182,0,0,1-1.923,2.952A32.545,32.545,0,0,0,5.294,82.7,41.407,41.407,0,0,0,1.843,99.748v4.227a6.9,6.9,0,0,0,6.9,6.9H40.526v-1.6a48.439,48.439,0,0,1,4.1-20.059A39.924,39.924,0,0,1,60.941,70.635Z" transform="translate(34.41 4.12)" fill="#fff"/>
      </g>
      <path id="Path_13822-5" data-name="Path 13822" d="M60.941,70.635a32.016,32.016,0,0,0-8.674-5.287,3.181,3.181,0,0,1-1.923-2.921,3.242,3.242,0,0,1,1.008-2.378c.2-.187.384-.372.525-.52A19.77,19.77,0,0,0,33.812,26.5a19.322,19.322,0,0,0-15.6,15.151,19.774,19.774,0,0,0,5.452,18.355,3.35,3.35,0,0,1,1.046,2.381v.017a3.182,3.182,0,0,1-1.923,2.952A32.545,32.545,0,0,0,5.294,82.7,41.407,41.407,0,0,0,1.843,99.748v4.227a6.9,6.9,0,0,0,6.9,6.9H40.526v-1.6a48.439,48.439,0,0,1,4.1-20.059A39.924,39.924,0,0,1,60.941,70.635Z" transform="translate(3135.063 311.852)" fill="none" stroke="#009530" stroke-width="3.5"/>
    </g>
  </g>
</svg>
