<svg xmlns="http://www.w3.org/2000/svg" xmlns:xlink="http://www.w3.org/1999/xlink" width="29.925" height="29.58" viewBox="0 0 29.925 29.58">
  <defs>
    <linearGradient id="linear-gradient" x1="0.5" x2="0.5" y2="1" gradientUnits="objectBoundingBox">
      <stop offset="0" stop-color="#33d4a3"/>
      <stop offset="0.246" stop-color="#2dacb1"/>
      <stop offset="0.549" stop-color="#2986c0"/>
      <stop offset="1" stop-color="#2466cf"/>
    </linearGradient>
  </defs>
  <g id="Group_3591" data-name="Group 3591" transform="translate(1925.267 -9822)">
    <g id="Ellipse_1019" data-name="Ellipse 1019" transform="translate(-1921.451 9823.754)" fill="none" stroke="#207365" stroke-width="1">
      <circle cx="13.055" cy="13.055" r="13.055" stroke="none"/>
      <circle cx="13.055" cy="13.055" r="12.555" fill="none"/>
    </g>
    <g id="frame" transform="translate(-1906.566 9822)">
      <rect id="Rectangle_2052" data-name="Rectangle 2052" width="11.225" height="11.225" fill="none"/>
    </g>
    <g id="Subtraction_1" data-name="Subtraction 1" transform="translate(-1916.616 9834.713)" fill="url(#linear-gradient)">
      <path d="M 11.12802600860596 5.439682483673096 L 0.2509548664093018 5.439682483673096 C 0.2770879566669464 4.065447330474854 0.8393164873123169 2.776945352554321 1.840800285339355 1.801742434501648 C 2.868430376052856 0.8010924458503723 4.235210418701172 0.2500024437904358 5.689350128173828 0.2500024437904358 C 7.143620491027832 0.2500024437904358 8.510479927062988 0.8010924458503723 9.538140296936035 1.801742434501648 C 10.53965377807617 2.776945352554321 11.10189247131348 4.065438270568848 11.12802600860596 5.439682483673096 Z" stroke="none"/>
      <path d="M 10.86670970916748 5.189682483673096 C 10.78155422210693 3.977712631225586 10.25544738769531 2.849153518676758 9.363730430603027 1.980862379074097 C 8.383020401000977 1.025912404060364 7.078090190887451 0.5000024437904358 5.689350128173828 0.5000024437904358 C 4.300730228424072 0.5000024437904358 2.995900392532349 1.025912404060364 2.015210390090942 1.980852484703064 C 1.1235111951828 2.849152565002441 0.5974225997924805 3.977712392807007 0.5122708678245544 5.189682483673096 L 10.86670970916748 5.189682483673096 M 11.37693023681641 5.689682483673096 L 0.002050318289548159 5.689682483673096 C 0.0005703183123841882 5.634202480316162 3.182983334681921e-07 5.585372447967529 3.182983334681921e-07 5.540102481842041 C 3.182983334681921e-07 4.060272216796875 0.591800332069397 2.66902232170105 1.666390299797058 1.622632384300232 C 2.740970373153687 0.5762624144554138 4.169690132141113 2.433929466860718e-06 5.689350128173828 2.433929466860718e-06 C 7.209140300750732 2.433929466860718e-06 8.637940406799316 0.5762624144554138 9.712550163269043 1.622632384300232 C 10.78715991973877 2.669012546539307 11.37898063659668 4.060262203216553 11.37898063659668 5.540102481842041 C 11.37898063659668 5.589292526245117 11.3782901763916 5.639512538909912 11.37694072723389 5.689392566680908 L 11.37693023681641 5.689682483673096 Z" stroke="none" fill="#000"/>
    </g>
    <path id="Subtraction_2" data-name="Subtraction 2" d="M9.24,4.2H0c0-.041,0-.077,0-.11A3.843,3.843,0,0,1,1.353,1.2,4.909,4.909,0,0,1,4.621,0,4.909,4.909,0,0,1,7.888,1.2,3.843,3.843,0,0,1,9.242,4.091c0,.036,0,.073,0,.11Z" transform="translate(-1915.808 9827.936)" fill="url(#linear-gradient)"/>
    <g id="Rectangle_2055" data-name="Rectangle 2055" transform="translate(-1912.201 9827.042)" stroke="#000" stroke-width="0.5" fill="url(#linear-gradient)">
      <path d="M1.014,0h0A1.014,1.014,0,0,1,2.028,1.014V2.488a.507.507,0,0,1-.507.507H.507A.507.507,0,0,1,0,2.488V1.014A1.014,1.014,0,0,1,1.014,0Z" stroke="none"/>
      <path d="M1.014.25h0a.764.764,0,0,1,.764.764v1.4a.327.327,0,0,1-.327.327H.577A.327.327,0,0,1,.25,2.417v-1.4A.764.764,0,0,1,1.014.25Z" fill="none"/>
    </g>
    <path id="_928428_configuration_fix_repair_setting_setup_icon" data-name="928428_configuration_fix_repair_setting_setup_icon" d="M3.923,8.523A2.979,2.979,0,0,0,.162,12.316L2.18,10.3l1.9,1.9L2.093,14.194A2.981,2.981,0,0,0,5.73,10.2l4.4-4.4a2.979,2.979,0,0,0,3.761-3.793L11.875,4.031l-1.9-1.9L11.961.134A2.98,2.98,0,0,0,8.324,4.123Z" transform="matrix(0.07, -0.998, 0.998, 0.07, -1925, 9850.313)" stroke="#9fe4e7" stroke-width="0.5" fill="url(#linear-gradient)"/>
    <g id="Group_3583" data-name="Group 3583" transform="translate(-1907.329 9832.92)">
      <g id="Rectangle_2059" data-name="Rectangle 2059" transform="translate(0 1.526)" stroke="#9cdfe7" stroke-width="0.5" fill="url(#linear-gradient)">
        <rect width="7.152" height="8.741" stroke="none"/>
        <rect x="0.25" y="0.25" width="6.652" height="8.241" fill="none"/>
      </g>
      <path id="Path_16654" data-name="Path 16654" d="M-3710.815,10639.743v1.321h3.338v-1.321h-1.1s-.585-1.3-1.3,0c0,0-.972-.018-.941,0Z" transform="translate(3712.723 -10639.164)" fill="none" stroke="#9cdfe7" stroke-width="0.3"/>
      <line id="Line_1618" data-name="Line 1618" x2="4.497" transform="translate(1.155 3.145)" fill="none" stroke="#9cdfe7" stroke-width="0.5"/>
      <line id="Line_1619" data-name="Line 1619" x2="4.497" transform="translate(1.155 4.581)" fill="none" stroke="#9cdfe7" stroke-width="0.5"/>
      <line id="Line_1620" data-name="Line 1620" x2="4.497" transform="translate(1.155 6.016)" fill="none" stroke="#9cdfe7" stroke-width="0.5"/>
      <line id="Line_1621" data-name="Line 1621" x2="4.497" transform="translate(1.155 7.333)" fill="none" stroke="#9cdfe7" stroke-width="0.5"/>
      <line id="Line_1622" data-name="Line 1622" x2="4.497" transform="translate(1.155 8.649)" fill="none" stroke="#9cdfe7" stroke-width="0.5"/>
    </g>
    <g id="Group_3584" data-name="Group 3584" transform="translate(-1919.044 9833.887)">
      <path id="Path_16653" data-name="Path 16653" d="M.591,3.226,0,.851,1.153,0,2.828,1.7v.887L6.242,8.83,4.96,9.614,1.547,3.668Z" transform="translate(0 0.976) rotate(-9)" stroke="#000" stroke-width="0.5" fill="url(#linear-gradient)"/>
      <g id="Rectangle_2054" data-name="Rectangle 2054" transform="matrix(0.777, -0.629, 0.629, 0.777, 5.751, 9.913)" stroke="#000" stroke-width="0.5" fill="url(#linear-gradient)">
        <rect width="2.807" height="6.502" rx="1" stroke="none"/>
        <rect x="0.25" y="0.25" width="2.307" height="6.002" rx="0.75" fill="none"/>
      </g>
    </g>
    <path id="Path_16655" data-name="Path 16655" d="M-3839.757,10656.492l-.887,1.661,1.112,1.967.965-2.074Z" transform="translate(1928.721 -820.2)" fill="none" stroke="#000" stroke-width="0.5"/>
    <g id="Subtraction_3" data-name="Subtraction 3" transform="translate(-1915.877 9832.104)" fill="url(#linear-gradient)">
      <path d="M 4.655189514160156 3.982559442520142 C 2.279087066650391 3.982559442520142 0.3363270163536072 2.320567846298218 0.252791702747345 0.2500090897083282 L 9.057587623596191 0.2499996274709702 C 8.974052429199219 2.320558547973633 7.031291961669922 3.982559442520142 4.655189514160156 3.982559442520142 Z" stroke="none"/>
      <path d="M 4.655189514160156 3.732559442520142 C 6.795759201049805 3.732559442520142 8.563450813293457 2.314767122268677 8.786602973937988 0.4999999105930328 L 0.5237776041030884 0.5000088214874268 C 0.7471160888671875 2.314605712890625 2.51475977897644 3.732559442520142 4.655189514160156 3.732559442520142 M 4.655189514160156 4.232559204101562 C 2.088309526443481 4.232559204101562 -4.858398483520432e-07 2.383739471435547 -4.858398483520432e-07 0.1112293601036072 C -4.858398483520432e-07 0.07400936633348465 0.0005695141735486686 0.03697936236858368 0.001679514185525477 9.363631761516444e-06 L 9.308699607849121 -6.363678153320507e-07 L 9.309889793395996 0.03822936490178108 C 9.310129165649414 0.06234936416149139 9.310379981994629 0.0867493599653244 9.310379981994629 0.1112293601036072 C 9.310379981994629 2.383739471435547 7.22206974029541 4.232559204101562 4.655189514160156 4.232559204101562 Z" stroke="none" fill="#2fb9ac"/>
    </g>
    <line id="Line_1617" data-name="Line 1617" x2="11.604" transform="translate(-1916.78 9832.104)" fill="none" stroke="#9fe4e7" stroke-linecap="round" stroke-width="0.5"/>
    <circle id="Ellipse_1024" data-name="Ellipse 1024" cx="4" cy="4" r="4" transform="translate(-1905 9824)"/>
    <g id="Layer_2" data-name="Layer 2" transform="translate(-1905.257 9823.019)">
      <path id="Path_16651" data-name="Path 16651" d="M8.1,11.832H6.737a.34.34,0,0,1-.34-.34V11a.469.469,0,0,0-.8-.34l-.34.34a.34.34,0,0,1-.482,0l-.965-.944a.34.34,0,0,1,0-.482l.34-.34a.469.469,0,0,0-.34-.8H3.34A.34.34,0,0,1,3,8.1V6.737a.34.34,0,0,1,.34-.34h.489a.469.469,0,0,0,.34-.8l-.34-.34a.34.34,0,0,1,0-.482l.944-.965a.34.34,0,0,1,.482,0l.34.34a.469.469,0,0,0,.8-.34V3.34A.34.34,0,0,1,6.733,3H8.092a.34.34,0,0,1,.34.34v.489a.469.469,0,0,0,.8.34l.34-.34a.34.34,0,0,1,.482,0l.961.961a.34.34,0,0,1,0,.482l-.34.34a.469.469,0,0,0,.34.8h.479a.34.34,0,0,1,.34.34V8.109a.34.34,0,0,1-.34.34H11a.469.469,0,0,0-.34.8l.34.34a.34.34,0,0,1,0,.482l-.961.961a.34.34,0,0,1-.482,0l-.34-.34a.469.469,0,0,0-.8.34v.462A.34.34,0,0,1,8.1,11.832Zm-1.019-.679h.679V11A1.145,1.145,0,0,1,9.713,10.2l.105.105.482-.482L10.2,9.713A1.145,1.145,0,0,1,11,7.756h.149V7.077H11A1.145,1.145,0,0,1,10.2,5.12l.105-.105-.482-.482-.105.105a1.145,1.145,0,0,1-1.957-.809V3.679H7.077v.149a1.145,1.145,0,0,1-1.957.809l-.105-.105-.482.482.105.105a1.145,1.145,0,0,1-.809,1.957H3.679v.679h.149a1.145,1.145,0,0,1,.809,1.957l-.105.105.482.482L5.12,10.2A1.145,1.145,0,0,1,7.077,11Z" transform="translate(-3 -3)" fill="url(#linear-gradient)"/>
      <path id="Path_16652" data-name="Path 16652" d="M12.7,14.4a1.7,1.7,0,1,1,1.7-1.7A1.7,1.7,0,0,1,12.7,14.4Zm0-2.718A1.019,1.019,0,1,0,13.718,12.7,1.019,1.019,0,0,0,12.7,11.679Z" transform="translate(-8.282 -8.282)" fill="url(#linear-gradient)"/>
    </g>
  </g>
</svg>
