<svg xmlns="http://www.w3.org/2000/svg" xmlns:xlink="http://www.w3.org/1999/xlink" width="37.251" height="36.021" viewBox="0 0 37.251 36.021">
  <defs>
    <linearGradient id="linear-gradient" x1="0.523" y1="0.994" x2="0.477" y2="-0.023" gradientUnits="objectBoundingBox">
      <stop offset="0" stop-color="#54be9a"/>
      <stop offset="0.33" stop-color="#2cabb0"/>
      <stop offset="0.74" stop-color="#2785c0"/>
      <stop offset="1" stop-color="#3a67b0"/>
    </linearGradient>
    <linearGradient id="linear-gradient-2" x1="0.542" y1="1.011" x2="0.458" y2="-0.008" xlink:href="#linear-gradient"/>
    <linearGradient id="linear-gradient-3" x1="0.542" y1="1.011" x2="0.458" y2="-0.011" xlink:href="#linear-gradient"/>
    <linearGradient id="linear-gradient-4" x1="0.507" y1="1.086" x2="0.488" y2="-0.086" xlink:href="#linear-gradient"/>
    <linearGradient id="linear-gradient-5" x1="0.512" y1="1.086" x2="0.488" y2="-0.086" xlink:href="#linear-gradient"/>
    <linearGradient id="linear-gradient-6" x1="0.507" y1="1.071" x2="0.488" y2="-0.086" xlink:href="#linear-gradient"/>
    <linearGradient id="linear-gradient-7" x1="0.512" y1="1.071" x2="0.488" y2="-0.086" xlink:href="#linear-gradient"/>
    <linearGradient id="linear-gradient-8" x1="0.521" y1="0.978" x2="0.471" y2="0.007" xlink:href="#linear-gradient"/>
  </defs>
  <g id="Group_4122" data-name="Group 4122" transform="translate(-172.042 -987.349)">
    <path id="Path_24810" data-name="Path 24810" d="M91.61,154.874H80.371a2.515,2.515,0,0,1-1.761-.826,3.046,3.046,0,0,1-.674-2.348V130.46l.022-.109c.283-.848,1.152-2.239,2.631-2.087,22.022-.13,25.7-.109,26.479.087h0a2.9,2.9,0,0,1,2.478,2.544v5.826l-30.088-.239v15.283a1.585,1.585,0,0,0,.283,1.261,1.047,1.047,0,0,0,.674.326h11.2v1.522ZM79.458,134.96l28.588.217V131a1.333,1.333,0,0,0-1.217-1.174,1.227,1.227,0,0,1-.261-.087c-1.522-.087-16.261-.022-26.044.022-.544-.065-.935.674-1.065.957v4.239Z" transform="translate(94.117 862.497)" fill="url(#linear-gradient)"/>
    <path id="Path_24811" data-name="Path 24811" d="M91.622,134.824h-2.87a1.16,1.16,0,0,1-1.152-1.152V127.8a1.16,1.16,0,0,1,1.152-1.152h2.87a1.16,1.16,0,0,1,1.152,1.152v5.87A1.16,1.16,0,0,1,91.622,134.824ZM88.9,133.541h2.587v-5.587H88.9Z" transform="translate(105.475 860.699)" fill="url(#linear-gradient-2)"/>
    <path id="Path_24812" data-name="Path 24812" d="M84.846,134.824H81.368a.849.849,0,0,1-.848-.848V127.5a.849.849,0,0,1,.848-.848h3.478a.849.849,0,0,1,.848.848v6.478A.849.849,0,0,1,84.846,134.824Zm-3.022-1.283h2.587v-5.587H81.824Z" transform="translate(97.163 860.699)" fill="url(#linear-gradient-3)"/>
    <rect id="Rectangle_1964" data-name="Rectangle 1964" width="4.674" height="1.522" transform="translate(177.553 1003.459)" fill="url(#linear-gradient-4)"/>
    <rect id="Rectangle_1965" data-name="Rectangle 1965" width="4.674" height="1.522" transform="translate(185.531 1003.459)" fill="url(#linear-gradient-5)"/>
    <rect id="Rectangle_1966" data-name="Rectangle 1966" width="4.674" height="1.522" transform="translate(177.553 1009.522)" fill="url(#linear-gradient-6)"/>
    <rect id="Rectangle_1967" data-name="Rectangle 1967" width="4.674" height="1.522" transform="translate(185.531 1009.522)" fill="url(#linear-gradient-7)"/>
    <path id="Path_24813" data-name="Path 24813" d="M87.063,156.276a3.2,3.2,0,0,1-2.348-1.065h0a3.555,3.555,0,0,1-1.174-2.435,4.2,4.2,0,0,1,1.652-3.239c.261-.239,5.978-5.891,8.261-8.174a2.85,2.85,0,0,0,.087-2.044l-.043-.2c-.065-2.152,1.022-6.391,5.522-7.044h5.631l-4.348,4.761,3.131,2.826,4.044-3.348.457.717a5.611,5.611,0,0,1,.435,4.261,6.275,6.275,0,0,1-6.37,4.935h-.109a12.642,12.642,0,0,0-2.761.152h-.022l-8.435,8.065a5.747,5.747,0,0,1-3.609,1.848H87.02Zm-.848-5.631a2.855,2.855,0,0,0-1.152,2.087,2.1,2.1,0,0,0,.674,1.37,2.009,2.009,0,0,0,1.348.652,4.345,4.345,0,0,0,2.544-1.391L98,145.385c.217-.348.826-.8,3.957-.7a4.829,4.829,0,0,0,4.978-3.783,4.567,4.567,0,0,0,.065-2.217l-3.587,2.978-5.239-4.739,3.065-3.37H99.15c-3.891.565-4.109,4.7-4.109,5.391a4.289,4.289,0,0,1-.3,3.239l-.109.152c-.826.826-8.174,8.087-8.392,8.3h0Z" transform="translate(100.708 867.073)" fill="url(#linear-gradient-8)"/>
  </g>
</svg>
