<svg xmlns="http://www.w3.org/2000/svg" xmlns:xlink="http://www.w3.org/1999/xlink" width="27" height="29.056" viewBox="0 0 27 29.056">
  <defs>
    <linearGradient id="linear-gradient" x1="0.5" x2="0.5" y2="1" gradientUnits="objectBoundingBox">
      <stop offset="0" stop-color="#33d4a3"/>
      <stop offset="0.246" stop-color="#2dacb1"/>
      <stop offset="0.549" stop-color="#2986c0"/>
      <stop offset="1" stop-color="#2466cf"/>
    </linearGradient>
  </defs>
  <g id="Group_3579" data-name="Group 3579" transform="translate(1747 -9817.235)">
    <path id="Path_16639" data-name="Path 16639" d="M44.53,24.994c-2.225,0-4.485-5.035-4.485-7.847V12.269a8.534,8.534,0,0,0-4.2-7.359A4.28,4.28,0,1,0,27.374,4.9a8.4,8.4,0,0,0-4.2,7.3v4.953c0,2.813-2.261,7.847-4.485,7.847a.579.579,0,0,0,0,1.158h9.488a3.482,3.482,0,0,0,6.867,0H44.53a.579.579,0,0,0,0-1.158ZM28.487,4.279a3.122,3.122,0,1,1,6.244,0q0,.041,0,.081l0,0a8.3,8.3,0,0,0-.965-.322h0a2.173,2.173,0,0,0-4.319,0h0a8.365,8.365,0,0,0-.965.318l0,0Q28.487,4.317,28.487,4.279Zm4.019-.473a8.41,8.41,0,0,0-.893-.048,8.558,8.558,0,0,0-.9.048,1.014,1.014,0,0,1,1.795,0Zm-.9,24.092a2.329,2.329,0,0,1-2.252-1.746h4.5A2.329,2.329,0,0,1,31.609,27.9Zm2.9-2.9H21.134a9.119,9.119,0,0,0,1.648-2.318,13.409,13.409,0,0,0,1.549-5.53V12.193a7.278,7.278,0,0,1,5.815-7.131,7.332,7.332,0,0,1,1.463-.147h0a7.237,7.237,0,0,1,1.458.149,7.163,7.163,0,0,1,1.854.659,7.346,7.346,0,0,1,3.962,6.545v4.878a13.409,13.409,0,0,0,1.549,5.53,9.12,9.12,0,0,0,1.648,2.318H34.513Z" transform="translate(-1765.109 9817.235)" fill="url(#linear-gradient)"/>
    <g id="Group_3576" data-name="Group 3576" transform="translate(-1739.706 9823.932)">
      <g id="Group_3575" data-name="Group 3575" transform="translate(0 0)">
        <path id="Path_16640" data-name="Path 16640" d="M150.79,118.309a.579.579,0,0,0-.779-.25,6.186,6.186,0,0,0-3.374,5.523v3.548a.579.579,0,1,0,1.158,0v-3.548a5.033,5.033,0,0,1,2.745-4.494A.579.579,0,0,0,150.79,118.309Z" transform="translate(-146.637 -117.994)" fill="url(#linear-gradient)"/>
      </g>
    </g>
    <g id="Ellipse_1003" data-name="Ellipse 1003" transform="translate(-1747 9819.077)" stroke="#30bdab" stroke-width="1" fill="url(#linear-gradient)">
      <ellipse cx="6.363" cy="6.363" rx="6.363" ry="6.363" stroke="none"/>
      <ellipse cx="6.363" cy="6.363" rx="5.863" ry="5.863" fill="none"/>
    </g>
    <path id="clock-ten-thirty-svgrepo-com" d="M8.2,11.084V8.2L9.64,7.331M3,8.2A5.2,5.2,0,1,0,8.2,3,5.2,5.2,0,0,0,3,8.2Z" transform="translate(-1748.912 9817.166)" fill="none" stroke="#a8ded9" stroke-linecap="round" stroke-linejoin="round" stroke-width="0.5"/>
  </g>
</svg>
