<svg xmlns="http://www.w3.org/2000/svg" xmlns:xlink="http://www.w3.org/1999/xlink" width="26.876" height="28.938" viewBox="0 0 26.876 28.938">
  <defs>
    <linearGradient id="linear-gradient" y1="0.5" x2="1" y2="0.5" gradientUnits="objectBoundingBox">
      <stop offset="0" stop-color="#55bf9b"/>
      <stop offset="0.33" stop-color="#2dabb0"/>
      <stop offset="0.74" stop-color="#2786c1"/>
      <stop offset="1" stop-color="#3b68b0"/>
    </linearGradient>
    <linearGradient id="linear-gradient-2" x1="0" y1="0.5" x2="1" y2="0.5" xlink:href="#linear-gradient"/>
    <linearGradient id="linear-gradient-3" x1="-44.765" y1="291.208" x2="-44.765" y2="291.259" gradientUnits="objectBoundingBox">
      <stop offset="0" stop-color="#57bf9b"/>
      <stop offset="0.25" stop-color="#2dabb0"/>
      <stop offset="0.55" stop-color="#2a86c0"/>
      <stop offset="1" stop-color="#3b68b0"/>
    </linearGradient>
    <linearGradient id="linear-gradient-4" x1="-42.07" y1="295.195" x2="-41.777" y2="295.195" xlink:href="#linear-gradient"/>
    <linearGradient id="linear-gradient-5" x1="0" y1="0.5" x2="1" y2="0.5" xlink:href="#linear-gradient"/>
  </defs>
  <g id="Group_5273" data-name="Group 5273" transform="translate(-61.001 -656)">
    <g id="Group_5270" data-name="Group 5270">
      <g id="Group_5114" data-name="Group 5114" transform="translate(28.863 1)">
        <path id="Path_27578" data-name="Path 27578" d="M80.518,137.283h0a3.716,3.716,0,0,1-3.429-2.835h-9a.832.832,0,0,1-.6-.253.848.848,0,0,1-.253-.6.832.832,0,0,1,.253-.6.848.848,0,0,1,.6-.253c1.919,0,4.072-4.8,4.072-7.355v-4.822a8.564,8.564,0,0,1,4.072-7.267,4.511,4.511,0,0,1,1.734-4.033,4.474,4.474,0,0,1,6.254.848,4.458,4.458,0,0,1,.887,3.205,8.733,8.733,0,0,1,4.072,7.326v4.754c0,2.552,2.153,7.355,4.072,7.355h.292v.058a.853.853,0,0,1-.292,1.656h-9a3.669,3.669,0,0,1-2.962,2.776,4.458,4.458,0,0,1-.614.049h-.146Zm.292-.3h0a3.187,3.187,0,0,0,.429-.039A3.383,3.383,0,0,0,84,134.282l.019-.117H93.25a.577.577,0,0,0,.536-.39.559.559,0,0,1-.536.38H84.015a3.393,3.393,0,0,1-6.566.5,3.4,3.4,0,0,0,3.215,2.338h.146Zm-3.994-23.692s.01.078.019.117v.195l-.127.088a7.977,7.977,0,0,0-3.965,6.868v4.822c0,2.913-2.3,7.94-4.657,7.94a.273.273,0,0,0,0,.546h9.488l.039.244a3.1,3.1,0,0,0,6.108,0l.039-.244H93.25a.273.273,0,0,0,0-.546H93.1c-2.328-.224-4.51-5.114-4.51-7.94v-4.754a8.08,8.08,0,0,0-3.955-6.917l-.156-.088v-.185a3.847,3.847,0,0,0-3.186-4.423,4.369,4.369,0,0,0-.623-.049h0a3.854,3.854,0,0,0-3.828,3.312,3.281,3.281,0,0,0-.019.925l.507-.185.019-.146v-.039a3.332,3.332,0,0,1,6.663,0v.516l-.4-.156c-.322-.127-.623-.224-.916-.312l-.2-.058v-.2a1.855,1.855,0,0,0-2.026-1.6,1.824,1.824,0,0,0-1.617,1.617v.195l-.214.058a8.937,8.937,0,0,0-.906.292l-.127.049v.049h-.77Zm-8.729,20.867h.01a.565.565,0,0,1-.565-.565.557.557,0,0,1,.477-.555.632.632,0,0,0-.312.156.564.564,0,0,0,0,.8.552.552,0,0,0,.4.166h0Zm8.456-20.711-.078.049a8.235,8.235,0,0,0-4,6.848,8.233,8.233,0,0,1,4.092-6.887h0Zm8.232.01h.01v-.078a4.084,4.084,0,0,0-.8-3.088,4.173,4.173,0,0,0-7.452,1.968c0,.068-.019.146-.019.214a1.617,1.617,0,0,1,.029-.214,4.154,4.154,0,0,1,4.111-3.565h0a5.226,5.226,0,0,1,.682.049,4.121,4.121,0,0,1,3.439,4.705Zm-8.242-.088v.01Zm6.225-.75a9.543,9.543,0,0,1,.935.312h0v-.019l-.283-.1q-.278-.1-.555-.175l-.1-.029h0Zm-5.134.282h0v.01h0Zm3.039-3.1a3.043,3.043,0,0,0-3.039,3.039v-.146a3.05,3.05,0,0,1,3.049-2.893h-.01Zm-2.124,2.815-.058.019a.172.172,0,0,0,.058-.01h0Zm4.5-.234c.117.039.244.078.36.117a2.768,2.768,0,0,0-2.728-2.406h0a2.755,2.755,0,0,0-2.728,2.4c.107-.039.224-.068.331-.107h.029a2.418,2.418,0,0,1,4.744-.01Zm-2.406-1.656a2.148,2.148,0,0,1,2.1,1.724l.019-.019a2.12,2.12,0,0,0-2.309-1.7h.185Zm.039,25.416h-.049a2.55,2.55,0,0,1-2.426-1.919l-.1-.37h5.144l-.1.37a2.551,2.551,0,0,1-2.465,1.919Zm-.049-.292h.029a2.307,2.307,0,0,1-2.114-1.51l-.039-.1a2.266,2.266,0,0,0,2.124,1.607Zm-1.734-1.413a2.018,2.018,0,0,0,1.773,1.12h.049a2,2,0,0,0,1.734-1.12Zm4.608-1.12H69.773l.5-.5a8.385,8.385,0,0,0,1.549-2.182,12.642,12.642,0,0,0,1.471-5.27v-4.812a7.384,7.384,0,0,1,7.365-7.394h0a7.482,7.482,0,0,1,1.481.146,7.576,7.576,0,0,1,1.88.662,7.374,7.374,0,0,1,4.014,6.634v4.754A12.743,12.743,0,0,0,89.5,130.61a9.111,9.111,0,0,0,1.549,2.192l.487.487H83.479Zm-13.025-.292h.331v-.166l-.088-.078a9.218,9.218,0,0,0,1.374-2.017,12.957,12.957,0,0,0,1.51-5.4v-4.822a7.087,7.087,0,0,1,7.082-7.043h.039a7.083,7.083,0,0,1,5.9,3.234,7.2,7.2,0,0,0-2.737-2.494,7.362,7.362,0,0,0-1.8-.643,6.977,6.977,0,0,0-1.422-.146h0a7.085,7.085,0,0,0-7.073,7.092v4.822a13.062,13.062,0,0,1-1.51,5.4,8.676,8.676,0,0,1-1.6,2.25Zm20.37-.01h0l-.02-.019Zm-19.7-.283H90.211A9.928,9.928,0,0,1,89,130.9a13.428,13.428,0,0,1-1.539-5.5v-4.773a6.8,6.8,0,0,0-6.751-6.829h-.039a6.794,6.794,0,0,0-6.79,6.751v4.832a13.192,13.192,0,0,1-1.549,5.524,9.409,9.409,0,0,1-1.2,1.831Zm8.134-20,.253-.487a1.276,1.276,0,0,1,1.724-.536,1.238,1.238,0,0,1,.536.536l.234.429h-.507a8.308,8.308,0,0,0-1.7,0l-.546.058Zm.526-.36v.01h0a8.694,8.694,0,0,1,1.744,0h0v-.01l-.321-.02a10.19,10.19,0,0,0-1.091,0l-.321.02Zm.857-.516h0a.942.942,0,0,1,.458.117,1.361,1.361,0,0,1,.156.1.841.841,0,0,0-.156-.1.981.981,0,0,0-1.052.088,1,1,0,0,1,.585-.195h0Z" transform="translate(-35.093 546.654)" fill="url(#linear-gradient)"/>
        <path id="Path_27579" data-name="Path 27579" d="M80.658,137.121a3.527,3.527,0,0,1-3.449-2.825H68.081a.711.711,0,1,1,0-1.422c2.055,0,4.228-4.881,4.228-7.5v-4.822a8.364,8.364,0,0,1,4.082-7.189,4.464,4.464,0,0,1,.01-1.14v-.068a4.358,4.358,0,0,1,1.724-2.825,4.321,4.321,0,0,1,6.03.935,4.232,4.232,0,0,1,.789,3.108,8.55,8.55,0,0,1,4.082,7.248v4.754c0,2.552,2.065,7.248,4.062,7.491h.156a.74.74,0,0,1,.507.2.7.7,0,0,1,.2.507.715.715,0,0,1-.711.711H84.116a3.541,3.541,0,0,1-2.874,2.776,4.188,4.188,0,0,1-.594.049Zm.01-28.329A4.026,4.026,0,0,0,76.7,112.2v.058a3.31,3.31,0,0,0,0,1.159v.1l-.068.049a8.079,8.079,0,0,0-4.023,6.985v4.822c0,2.864-2.231,7.793-4.52,7.793a.419.419,0,1,0,0,.838h9.372l.019.117a3.248,3.248,0,0,0,1.315,2.1,3.2,3.2,0,0,0,2.416.555,3.262,3.262,0,0,0,2.66-2.66l.019-.117h9.372a.416.416,0,0,0,.419-.419.371.371,0,0,0-.127-.292.464.464,0,0,0-.214-.117h-.068c-2.289,0-4.52-4.929-4.52-7.793v-4.754a8.2,8.2,0,0,0-4.023-7.043l-.088-.049.019-.1a4.022,4.022,0,0,0-3.361-4.588,4.482,4.482,0,0,0-.623-.049ZM80.677,136h0a2.418,2.418,0,0,1-2.338-1.812L78.29,134h4.764l-.049.185A2.416,2.416,0,0,1,80.677,136Zm-2-1.7a2.118,2.118,0,0,0,3.994,0Zm4.822-1.12H70.117l.244-.244a8.69,8.69,0,0,0,1.578-2.221,12.778,12.778,0,0,0,1.49-5.329V120.56a7.233,7.233,0,1,1,14.467.058v4.754a12.882,12.882,0,0,0,1.491,5.319,8.81,8.81,0,0,0,1.578,2.231l.244.244H83.483Zm-12.7-.292H90.526a9.477,9.477,0,0,1-1.4-2.055,13.3,13.3,0,0,1-1.529-5.446v-4.764a7,7,0,0,0-3.78-6.244,6.8,6.8,0,0,0-4.549-.633,6.954,6.954,0,0,0-5.553,6.8v4.832a13.2,13.2,0,0,1-1.529,5.455,9.149,9.149,0,0,1-1.393,2.046Zm13.064-19.737-.2-.078a7.891,7.891,0,0,0-.925-.3l-.1-.029v-.1a1.986,1.986,0,0,0-2.182-1.744,1.951,1.951,0,0,0-1.744,1.744v.1l-.107.029a7.9,7.9,0,0,0-.925.3l-.2.078v-.438h.019a3.187,3.187,0,0,1,6.371.146Zm-.964-.653c.224.058.448.136.662.214a2.9,2.9,0,0,0-5.787-.01q.321-.117.643-.2a2.263,2.263,0,0,1,4.471,0Zm-3.341.068.127-.244a1.075,1.075,0,0,1,.662-.555,1.121,1.121,0,0,1,.867.078,1.174,1.174,0,0,1,.487.487l.117.214h-.273a8.272,8.272,0,0,0-.857-.049c-.253,0-.536.019-.857.049l-.273.029Zm1.12-.555a.726.726,0,0,0-.253.039.849.849,0,0,0-.3.175,7.155,7.155,0,0,1,1.12,0,.64.64,0,0,0-.166-.117.8.8,0,0,0-.39-.1Z" transform="translate(-35.097 546.65)" fill="url(#linear-gradient-2)"/>
        <path id="Path_16640" data-name="Path 16640" d="M76.926,122.48a.211.211,0,0,0-.146.253,2.243,2.243,0,0,0,1.7,1.607l1.257.263a.208.208,0,0,0,.078-.409h0l-1.257-.263a1.848,1.848,0,0,1-1.383-1.305.211.211,0,0,0-.253-.146h0Z" transform="translate(-35.34 546.289)" fill="url(#linear-gradient-3)"/>
        <path id="Path_24487" data-name="Path 24487" d="M80.032,124.456a.264.264,0,0,1-.312.2l-1.257-.263a2.278,2.278,0,0,1-1.744-1.646.266.266,0,0,1,.185-.321h0a.266.266,0,0,1,.321.185,1.752,1.752,0,0,0,1.335,1.266l1.257.263a.264.264,0,0,1,.2.312h0Zm-3.2-1.8v.068a2.174,2.174,0,0,0,1.656,1.568l1.257.263a.157.157,0,0,0,.185-.117.162.162,0,0,0-.117-.185l-1.257-.273a1.882,1.882,0,0,1-1.422-1.354.161.161,0,0,0-.195-.107h0a.146.146,0,0,0-.107.117h0Z" transform="translate(-35.338 546.291)" fill="url(#linear-gradient-4)"/>
        <g id="Group_5113" data-name="Group 5113" transform="translate(19.586 5.092)">
          <ellipse id="Ellipse_1085" data-name="Ellipse 1085" cx="5.81" cy="5.395" rx="5.81" ry="5.395" transform="translate(21 652.511)" fill="#0d071c"/>
          <g id="Group_5112" data-name="Group 5112" transform="translate(21 652.001)">
            <path id="Path_27580" data-name="Path 27580" d="M80.839,121.649a5.809,5.809,0,1,1,5.809-5.809A5.819,5.819,0,0,1,80.839,121.649Zm0-10.772a4.962,4.962,0,1,0,4.962,4.962A4.969,4.969,0,0,0,80.839,110.877Z" transform="translate(-75.03 -110.03)" fill="#3b67b1"/>
            <path id="Path_24490" data-name="Path 24490" d="M81.081,120.6a4.531,4.531,0,1,1,0-9.061h0a4.487,4.487,0,0,1,1.728.339,4.622,4.622,0,0,1,2.8,4.183,4.368,4.368,0,0,1-.61,2.27,4.662,4.662,0,0,1-3.921,2.261h0Zm.059-8.807h-.068a4.277,4.277,0,1,0,0,8.553,4.4,4.4,0,0,0,3.7-2.142,4.021,4.021,0,0,0,.576-2.134,4.36,4.36,0,0,0-2.651-3.955,3.949,3.949,0,0,0-1.558-.322Zm-.068,6.842a.13.13,0,0,1-.127-.127v-2.439a.145.145,0,0,1,.059-.11l1.219-.737a.136.136,0,0,1,.178.051.125.125,0,0,1-.042.169l-1.16.7v2.371a.13.13,0,0,1-.127.127h0Z" transform="translate(-75.263 -110.261)" fill="url(#linear-gradient-5)"/>
          </g>
        </g>
      </g>
    </g>
    <g id="Group_5271" data-name="Group 5271">
      <g id="Group_5114-2" data-name="Group 5114" transform="translate(28.863 1)">
        <path id="Path_27578-2" data-name="Path 27578" d="M80.518,137.283h0a3.716,3.716,0,0,1-3.429-2.835h-9a.832.832,0,0,1-.6-.253.848.848,0,0,1-.253-.6.832.832,0,0,1,.253-.6.848.848,0,0,1,.6-.253c1.919,0,4.072-4.8,4.072-7.355v-4.822a8.564,8.564,0,0,1,4.072-7.267,4.511,4.511,0,0,1,1.734-4.033,4.474,4.474,0,0,1,6.254.848,4.458,4.458,0,0,1,.887,3.205,8.733,8.733,0,0,1,4.072,7.326v4.754c0,2.552,2.153,7.355,4.072,7.355h.292v.058a.853.853,0,0,1-.292,1.656h-9a3.669,3.669,0,0,1-2.962,2.776,4.458,4.458,0,0,1-.614.049h-.146Zm.292-.3h0a3.187,3.187,0,0,0,.429-.039A3.383,3.383,0,0,0,84,134.282l.019-.117H93.25a.577.577,0,0,0,.536-.39.559.559,0,0,1-.536.38H84.015a3.393,3.393,0,0,1-6.566.5,3.4,3.4,0,0,0,3.215,2.338h.146Zm-3.994-23.692s.01.078.019.117v.195l-.127.088a7.977,7.977,0,0,0-3.965,6.868v4.822c0,2.913-2.3,7.94-4.657,7.94a.273.273,0,0,0,0,.546h9.488l.039.244a3.1,3.1,0,0,0,6.108,0l.039-.244H93.25a.273.273,0,0,0,0-.546H93.1c-2.328-.224-4.51-5.114-4.51-7.94v-4.754a8.08,8.08,0,0,0-3.955-6.917l-.156-.088v-.185a3.847,3.847,0,0,0-3.186-4.423,4.369,4.369,0,0,0-.623-.049h0a3.854,3.854,0,0,0-3.828,3.312,3.281,3.281,0,0,0-.019.925l.507-.185.019-.146v-.039a3.332,3.332,0,0,1,6.663,0v.516l-.4-.156c-.322-.127-.623-.224-.916-.312l-.2-.058v-.2a1.855,1.855,0,0,0-2.026-1.6,1.824,1.824,0,0,0-1.617,1.617v.195l-.214.058a8.937,8.937,0,0,0-.906.292l-.127.049v.049h-.77Zm-8.729,20.867h.01a.565.565,0,0,1-.565-.565.557.557,0,0,1,.477-.555.632.632,0,0,0-.312.156.564.564,0,0,0,0,.8.552.552,0,0,0,.4.166h0Zm8.456-20.711-.078.049a8.235,8.235,0,0,0-4,6.848,8.233,8.233,0,0,1,4.092-6.887h0Zm8.232.01h.01v-.078a4.084,4.084,0,0,0-.8-3.088,4.173,4.173,0,0,0-7.452,1.968c0,.068-.019.146-.019.214a1.617,1.617,0,0,1,.029-.214,4.154,4.154,0,0,1,4.111-3.565h0a5.226,5.226,0,0,1,.682.049,4.121,4.121,0,0,1,3.439,4.705Zm-8.242-.088v.01Zm6.225-.75a9.543,9.543,0,0,1,.935.312h0v-.019l-.283-.1q-.278-.1-.555-.175l-.1-.029h0Zm-5.134.282h0v.01h0Zm3.039-3.1a3.043,3.043,0,0,0-3.039,3.039v-.146a3.05,3.05,0,0,1,3.049-2.893h-.01Zm-2.124,2.815-.058.019a.172.172,0,0,0,.058-.01h0Zm4.5-.234c.117.039.244.078.36.117a2.768,2.768,0,0,0-2.728-2.406h0a2.755,2.755,0,0,0-2.728,2.4c.107-.039.224-.068.331-.107h.029a2.418,2.418,0,0,1,4.744-.01Zm-2.406-1.656a2.148,2.148,0,0,1,2.1,1.724l.019-.019a2.12,2.12,0,0,0-2.309-1.7h.185Zm.039,25.416h-.049a2.55,2.55,0,0,1-2.426-1.919l-.1-.37h5.144l-.1.37a2.551,2.551,0,0,1-2.465,1.919Zm-.049-.292h.029a2.307,2.307,0,0,1-2.114-1.51l-.039-.1a2.266,2.266,0,0,0,2.124,1.607Zm-1.734-1.413a2.018,2.018,0,0,0,1.773,1.12h.049a2,2,0,0,0,1.734-1.12Zm4.608-1.12H69.773l.5-.5a8.385,8.385,0,0,0,1.549-2.182,12.642,12.642,0,0,0,1.471-5.27v-4.812a7.384,7.384,0,0,1,7.365-7.394h0a7.482,7.482,0,0,1,1.481.146,7.576,7.576,0,0,1,1.88.662,7.374,7.374,0,0,1,4.014,6.634v4.754A12.743,12.743,0,0,0,89.5,130.61a9.111,9.111,0,0,0,1.549,2.192l.487.487H83.479Zm-13.025-.292h.331v-.166l-.088-.078a9.218,9.218,0,0,0,1.374-2.017,12.957,12.957,0,0,0,1.51-5.4v-4.822a7.087,7.087,0,0,1,7.082-7.043h.039a7.083,7.083,0,0,1,5.9,3.234,7.2,7.2,0,0,0-2.737-2.494,7.362,7.362,0,0,0-1.8-.643,6.977,6.977,0,0,0-1.422-.146h0a7.085,7.085,0,0,0-7.073,7.092v4.822a13.062,13.062,0,0,1-1.51,5.4,8.676,8.676,0,0,1-1.6,2.25Zm20.37-.01h0l-.02-.019Zm-19.7-.283H90.211A9.928,9.928,0,0,1,89,130.9a13.428,13.428,0,0,1-1.539-5.5v-4.773a6.8,6.8,0,0,0-6.751-6.829h-.039a6.794,6.794,0,0,0-6.79,6.751v4.832a13.192,13.192,0,0,1-1.549,5.524,9.409,9.409,0,0,1-1.2,1.831Zm8.134-20,.253-.487a1.276,1.276,0,0,1,1.724-.536,1.238,1.238,0,0,1,.536.536l.234.429h-.507a8.308,8.308,0,0,0-1.7,0l-.546.058Zm.526-.36v.01h0a8.694,8.694,0,0,1,1.744,0h0v-.01l-.321-.02a10.19,10.19,0,0,0-1.091,0l-.321.02Zm.857-.516h0a.942.942,0,0,1,.458.117,1.361,1.361,0,0,1,.156.1.841.841,0,0,0-.156-.1.981.981,0,0,0-1.052.088,1,1,0,0,1,.585-.195h0Z" transform="translate(-35.093 546.654)" fill="url(#linear-gradient)"/>
        <path id="Path_27579-2" data-name="Path 27579" d="M80.658,137.121a3.527,3.527,0,0,1-3.449-2.825H68.081a.711.711,0,1,1,0-1.422c2.055,0,4.228-4.881,4.228-7.5v-4.822a8.364,8.364,0,0,1,4.082-7.189,4.464,4.464,0,0,1,.01-1.14v-.068a4.358,4.358,0,0,1,1.724-2.825,4.321,4.321,0,0,1,6.03.935,4.232,4.232,0,0,1,.789,3.108,8.55,8.55,0,0,1,4.082,7.248v4.754c0,2.552,2.065,7.248,4.062,7.491h.156a.74.74,0,0,1,.507.2.7.7,0,0,1,.2.507.715.715,0,0,1-.711.711H84.116a3.541,3.541,0,0,1-2.874,2.776,4.188,4.188,0,0,1-.594.049Zm.01-28.329A4.026,4.026,0,0,0,76.7,112.2v.058a3.31,3.31,0,0,0,0,1.159v.1l-.068.049a8.079,8.079,0,0,0-4.023,6.985v4.822c0,2.864-2.231,7.793-4.52,7.793a.419.419,0,1,0,0,.838h9.372l.019.117a3.248,3.248,0,0,0,1.315,2.1,3.2,3.2,0,0,0,2.416.555,3.262,3.262,0,0,0,2.66-2.66l.019-.117h9.372a.416.416,0,0,0,.419-.419.371.371,0,0,0-.127-.292.464.464,0,0,0-.214-.117h-.068c-2.289,0-4.52-4.929-4.52-7.793v-4.754a8.2,8.2,0,0,0-4.023-7.043l-.088-.049.019-.1a4.022,4.022,0,0,0-3.361-4.588,4.482,4.482,0,0,0-.623-.049ZM80.677,136h0a2.418,2.418,0,0,1-2.338-1.812L78.29,134h4.764l-.049.185A2.416,2.416,0,0,1,80.677,136Zm-2-1.7a2.118,2.118,0,0,0,3.994,0Zm4.822-1.12H70.117l.244-.244a8.69,8.69,0,0,0,1.578-2.221,12.778,12.778,0,0,0,1.49-5.329V120.56a7.233,7.233,0,1,1,14.467.058v4.754a12.882,12.882,0,0,0,1.491,5.319,8.81,8.81,0,0,0,1.578,2.231l.244.244H83.483Zm-12.7-.292H90.526a9.477,9.477,0,0,1-1.4-2.055,13.3,13.3,0,0,1-1.529-5.446v-4.764a7,7,0,0,0-3.78-6.244,6.8,6.8,0,0,0-4.549-.633,6.954,6.954,0,0,0-5.553,6.8v4.832a13.2,13.2,0,0,1-1.529,5.455,9.149,9.149,0,0,1-1.393,2.046Zm13.064-19.737-.2-.078a7.891,7.891,0,0,0-.925-.3l-.1-.029v-.1a1.986,1.986,0,0,0-2.182-1.744,1.951,1.951,0,0,0-1.744,1.744v.1l-.107.029a7.9,7.9,0,0,0-.925.3l-.2.078v-.438h.019a3.187,3.187,0,0,1,6.371.146Zm-.964-.653c.224.058.448.136.662.214a2.9,2.9,0,0,0-5.787-.01q.321-.117.643-.2a2.263,2.263,0,0,1,4.471,0Zm-3.341.068.127-.244a1.075,1.075,0,0,1,.662-.555,1.121,1.121,0,0,1,.867.078,1.174,1.174,0,0,1,.487.487l.117.214h-.273a8.272,8.272,0,0,0-.857-.049c-.253,0-.536.019-.857.049l-.273.029Zm1.12-.555a.726.726,0,0,0-.253.039.849.849,0,0,0-.3.175,7.155,7.155,0,0,1,1.12,0,.64.64,0,0,0-.166-.117.8.8,0,0,0-.39-.1Z" transform="translate(-35.097 546.65)" fill="url(#linear-gradient-2)"/>
        <path id="Path_16640-2" data-name="Path 16640" d="M76.926,122.48a.211.211,0,0,0-.146.253,2.243,2.243,0,0,0,1.7,1.607l1.257.263a.208.208,0,0,0,.078-.409h0l-1.257-.263a1.848,1.848,0,0,1-1.383-1.305.211.211,0,0,0-.253-.146h0Z" transform="translate(-35.34 546.289)" fill="url(#linear-gradient-3)"/>
        <path id="Path_24487-2" data-name="Path 24487" d="M80.032,124.456a.264.264,0,0,1-.312.2l-1.257-.263a2.278,2.278,0,0,1-1.744-1.646.266.266,0,0,1,.185-.321h0a.266.266,0,0,1,.321.185,1.752,1.752,0,0,0,1.335,1.266l1.257.263a.264.264,0,0,1,.2.312h0Zm-3.2-1.8v.068a2.174,2.174,0,0,0,1.656,1.568l1.257.263a.157.157,0,0,0,.185-.117.162.162,0,0,0-.117-.185l-1.257-.273a1.882,1.882,0,0,1-1.422-1.354.161.161,0,0,0-.195-.107h0a.146.146,0,0,0-.107.117h0Z" transform="translate(-35.338 546.291)" fill="url(#linear-gradient-4)"/>
        <g id="Group_5113-2" data-name="Group 5113" transform="translate(19.586 5.092)">
          <ellipse id="Ellipse_1085-2" data-name="Ellipse 1085" cx="5.81" cy="5.395" rx="5.81" ry="5.395" transform="translate(21 652.511)" fill="#0d071c"/>
          <g id="Group_5112-2" data-name="Group 5112" transform="translate(21 652.001)">
            <path id="Path_27580-2" data-name="Path 27580" d="M80.839,121.649a5.809,5.809,0,1,1,5.809-5.809A5.819,5.819,0,0,1,80.839,121.649Zm0-10.772a4.962,4.962,0,1,0,4.962,4.962A4.969,4.969,0,0,0,80.839,110.877Z" transform="translate(-75.03 -110.03)" fill="#3b67b1"/>
            <path id="Path_24490-2" data-name="Path 24490" d="M81.081,120.6a4.531,4.531,0,1,1,0-9.061h0a4.487,4.487,0,0,1,1.728.339,4.622,4.622,0,0,1,2.8,4.183,4.368,4.368,0,0,1-.61,2.27,4.662,4.662,0,0,1-3.921,2.261h0Zm.059-8.807h-.068a4.277,4.277,0,1,0,0,8.553,4.4,4.4,0,0,0,3.7-2.142,4.021,4.021,0,0,0,.576-2.134,4.36,4.36,0,0,0-2.651-3.955,3.949,3.949,0,0,0-1.558-.322Zm-.068,6.842a.13.13,0,0,1-.127-.127v-2.439a.145.145,0,0,1,.059-.11l1.219-.737a.136.136,0,0,1,.178.051.125.125,0,0,1-.042.169l-1.16.7v2.371a.13.13,0,0,1-.127.127h0Z" transform="translate(-75.263 -110.261)" fill="url(#linear-gradient-5)"/>
          </g>
        </g>
      </g>
    </g>
  </g>
</svg>
