<svg xmlns="http://www.w3.org/2000/svg" xmlns:xlink="http://www.w3.org/1999/xlink" width="100%" height="100%" viewBox="0 0 55 62" preserveAspectRatio="xMidYMid meet">
  <defs>
    <linearGradient id="linear-gradient" x1="0.5" x2="0.5" y2="1" gradientUnits="objectBoundingBox">
      <stop offset="0" stop-color="#1bc384"/>
      <stop offset="0.22" stop-color="#1c9ba9"/>
      <stop offset="0.749" stop-color="#1f54ed"/>
      <stop offset="1" stop-color="#008026"/>
    </linearGradient>
  </defs>
  <g id="Layer_2" data-name="Layer 2" transform="translate(0)">
    <path id="Path_13836" data-name="Path 13836" d="M34.61,35.776l15.3,8.9,2.965-5.16L37.19,30.29a9.458,9.458,0,0,0,0-1.6,8.9,8.9,0,0,0-5.931-8.363V2H25.328V20.326A8.9,8.9,0,0,0,19.4,28.689a9.459,9.459,0,0,0,0,1.6L3.71,39.453l2.965,5.16,15.3-8.9L17.084,55.378H4.57v5.931H52.017V55.378H39.5ZM28.293,25.724a2.965,2.965,0,1,1-2.965,2.965A2.965,2.965,0,0,1,28.293,25.724Z" transform="translate(-3.71 -2)" fill="url(#linear-gradient)"/>
  </g>
</svg>
