<svg xmlns="http://www.w3.org/2000/svg" xmlns:xlink="http://www.w3.org/1999/xlink" width="26.844" height="31.127" viewBox="0 0 26.844 31.127">
  <defs>
    <linearGradient id="linear-gradient" x1="0.002" y1="0.501" x2="0.998" y2="0.501" gradientUnits="objectBoundingBox">
      <stop offset="0" stop-color="#55bf9b"/>
      <stop offset="0.15" stop-color="#2dacb1"/>
      <stop offset="0.4" stop-color="#2986c1"/>
      <stop offset="1" stop-color="#3b67b1"/>
    </linearGradient>
  </defs>
  <g id="Layer_2" data-name="Layer 2" transform="translate(-195.92 -154.75)">
    <path id="Path_26720" data-name="Path 26720" d="M221.934,185.877H196.687v-4.858h6.392l1.662-6.711-6.392,3.707L195.92,173.8l8.053-4.73v-.32a5.308,5.308,0,0,1,2.94-4.666V154.75h4.858v9.332a5.331,5.331,0,0,1,2.94,4.73v.256l8.053,4.73-2.429,4.218-6.392-3.707,1.662,6.711H222v4.858Zm-23.265-1.917H220.08v-1.023h-5.944L211.068,170.6a2.613,2.613,0,0,1-3.387,0l-3.068,12.336h-5.944v1.023Zm12.463-13.422,8.5,4.922.511-.895-7.414-4.346v-.575a2.036,2.036,0,0,0,0-.639,3.321,3.321,0,0,0-2.3-3.26l-.639-.256V156.8h-1.023v8.756l-.639.256a3.535,3.535,0,0,0-2.3,3.2v1.278l-7.35,4.346.511.895,8.437-4.922a2.337,2.337,0,0,1-.575-1.6,2.429,2.429,0,0,1,4.858,0,2.269,2.269,0,0,1-.639,1.6Zm-1.79-2.173s-.511.256-.511.511c0,.575,1.023.575,1.023,0A.55.55,0,0,0,209.342,168.364Z" transform="translate(0 0)" fill="url(#linear-gradient)"/>
  </g>
</svg>
