<svg xmlns="http://www.w3.org/2000/svg" xmlns:xlink="http://www.w3.org/1999/xlink" width="79" height="79" viewBox="0 0 79 79">
  <defs>
    <linearGradient id="linear-gradient" x1="0.5" x2="0.5" y2="1" gradientUnits="objectBoundingBox">
      <stop offset="0" stop-color="#33d4a3"/>
      <stop offset="0.304" stop-color="#2dacb1"/>
      <stop offset="1" stop-color="#2986c0"/>
      <stop offset="1" stop-color="#2466cf"/>
    </linearGradient>
  </defs>
  <path id="list_alt_24dp_5F6368_FILL0_wght200_GRAD0_opsz24" d="M180.327-738.091a3.66,3.66,0,0,0,2.7-1.093,3.694,3.694,0,0,0,1.086-2.711,3.661,3.661,0,0,0-1.094-2.7,3.692,3.692,0,0,0-2.711-1.087,3.66,3.66,0,0,0-2.7,1.094,3.693,3.693,0,0,0-1.086,2.711,3.661,3.661,0,0,0,1.094,2.7A3.692,3.692,0,0,0,180.327-738.091Zm0-18.61a3.661,3.661,0,0,0,2.7-1.094,3.694,3.694,0,0,0,1.086-2.711,3.661,3.661,0,0,0-1.094-2.7,3.692,3.692,0,0,0-2.711-1.088,3.661,3.661,0,0,0-2.7,1.094,3.7,3.7,0,0,0-1.086,2.711,3.66,3.66,0,0,0,1.094,2.7A3.692,3.692,0,0,0,180.327-756.7Zm0-18.611a3.661,3.661,0,0,0,2.7-1.094,3.7,3.7,0,0,0,1.086-2.711,3.661,3.661,0,0,0-1.094-2.7,3.692,3.692,0,0,0-2.711-1.087,3.66,3.66,0,0,0-2.7,1.094,3.694,3.694,0,0,0-1.086,2.711,3.661,3.661,0,0,0,1.094,2.7A3.692,3.692,0,0,0,180.327-775.313Zm15.185,35.892H222.1v-4.937H195.512Zm0-18.61H222.1v-4.937H195.512Zm0-18.611H222.1v-4.937H195.512ZM167.977-721a7.726,7.726,0,0,1-5.693-2.284A7.726,7.726,0,0,1,160-728.977v-63.047a7.726,7.726,0,0,1,2.284-5.693A7.726,7.726,0,0,1,167.977-800h63.047a7.726,7.726,0,0,1,5.693,2.284A7.726,7.726,0,0,1,239-792.024v63.047a7.726,7.726,0,0,1-2.284,5.693A7.726,7.726,0,0,1,231.023-721Zm0-4.938h63.047a2.9,2.9,0,0,0,2.09-.949,2.9,2.9,0,0,0,.949-2.09v-63.047a2.9,2.9,0,0,0-.949-2.09,2.9,2.9,0,0,0-2.09-.949H167.977a2.9,2.9,0,0,0-2.09.949,2.9,2.9,0,0,0-.949,2.09v63.047a2.9,2.9,0,0,0,.949,2.09A2.9,2.9,0,0,0,167.977-725.938Zm-3.039-69.125v0Z" transform="translate(-160 800)" fill="url(#linear-gradient)"/>
</svg>
