<svg xmlns="http://www.w3.org/2000/svg" xmlns:xlink="http://www.w3.org/1999/xlink" width="79" height="55.69" viewBox="0 0 79 55.69">
  <defs>
    <linearGradient id="linear-gradient" x1="0.5" x2="0.5" y2="1" gradientUnits="objectBoundingBox">
      <stop offset="0" stop-color="#33d4a3"/>
      <stop offset="0.304" stop-color="#2dacb1"/>
      <stop offset="1" stop-color="#2986c0"/>
      <stop offset="1" stop-color="#2466cf"/>
    </linearGradient>
  </defs>
  <path id="supervisor_account_24dp_5F6368_FILL0_wght200_GRAD0_opsz24" d="M164.679-709.975a8.1,8.1,0,0,1-5.933-2.485,8.1,8.1,0,0,1-2.485-5.933,8.1,8.1,0,0,1,2.485-5.934,8.1,8.1,0,0,1,5.933-2.484,8.1,8.1,0,0,1,5.934,2.484,8.1,8.1,0,0,1,2.484,5.934,8.1,8.1,0,0,1-2.484,5.933A8.1,8.1,0,0,1,164.679-709.975ZM145.738-688.93v-3.788a6.652,6.652,0,0,1,.979-3.552,5.493,5.493,0,0,1,2.778-2.292,37.667,37.667,0,0,1,7.359-2.247,40.443,40.443,0,0,1,7.826-.748,39.694,39.694,0,0,1,7.669.748,41.331,41.331,0,0,1,7.516,2.247,5.5,5.5,0,0,1,2.778,2.292,6.657,6.657,0,0,1,.978,3.552v3.788Zm-11.655-30.436a12.159,12.159,0,0,1-8.918-3.709,12.16,12.16,0,0,1-3.709-8.918,12.16,12.16,0,0,1,3.709-8.918,12.159,12.159,0,0,1,8.918-3.709A12.159,12.159,0,0,1,143-740.911a12.16,12.16,0,0,1,3.709,8.918A12.16,12.16,0,0,1,143-723.075,12.159,12.159,0,0,1,134.083-719.366ZM134.083-731.993ZM104.62-688.93v-6.929a8.955,8.955,0,0,1,1.5-5.02,8.95,8.95,0,0,1,4.1-3.382,52.689,52.689,0,0,1,11.6-4.273,52.463,52.463,0,0,1,12.263-1.441,49.051,49.051,0,0,1,5.1.266q2.55.267,5.1.705l-1.8,1.877-1.8,1.878a24.606,24.606,0,0,0-3.3-.421q-1.651-.1-3.3-.1a51.922,51.922,0,0,0-11.256,1.23,40.476,40.476,0,0,0-10.6,3.966,9.024,9.024,0,0,0-2.388,1.918,4.08,4.08,0,0,0-1.011,2.793v2.72h25.254v4.209ZM134.083-693.139Zm0-30.436a8.107,8.107,0,0,0,5.945-2.473,8.106,8.106,0,0,0,2.473-5.945,8.106,8.106,0,0,0-2.473-5.945,8.106,8.106,0,0,0-5.945-2.473,8.106,8.106,0,0,0-5.945,2.473,8.106,8.106,0,0,0-2.473,5.945,8.106,8.106,0,0,0,2.473,5.945A8.107,8.107,0,0,0,134.083-723.575Z" transform="translate(-104.62 744.62)" fill="url(#linear-gradient)"/>
</svg>
