<svg xmlns="http://www.w3.org/2000/svg" xmlns:xlink="http://www.w3.org/1999/xlink" width="97.325" height="100.425" viewBox="0 0 97.325 100.425">
  <defs>
    <linearGradient id="linear-gradient" x1="0.5" y1="0.5" x2="0.865" y2="1.296" gradientUnits="objectBoundingBox">
      <stop offset="0" stop-color="#33d4a4"/>
      <stop offset="0.216" stop-color="#2dacb1"/>
      <stop offset="0.547" stop-color="#2986c0"/>
      <stop offset="1" stop-color="#2466cf"/>
    </linearGradient>
    <filter id="settings_account_box_24dp_5F6368_FILL0_wght200_GRAD0_opsz24" x="0" y="0" width="97.325" height="100.425" filterUnits="userSpaceOnUse">
      <feOffset dy="11" input="SourceAlpha"/>
      <feGaussianBlur stdDeviation="3" result="blur"/>
      <feFlood flood-opacity="0.161"/>
      <feComposite operator="in" in2="blur"/>
      <feComposite in="SourceGraphic"/>
    </filter>
    <filter id="settings_account_box_24dp_5F6368_FILL0_wght200_GRAD0_opsz24-2" x="0" y="0" width="97.325" height="100.425" filterUnits="userSpaceOnUse">
      <feOffset dy="3" input="SourceAlpha"/>
      <feGaussianBlur stdDeviation="3" result="blur-2"/>
      <feFlood flood-color="#2881c2" result="color"/>
      <feComposite operator="out" in="SourceGraphic" in2="blur-2"/>
      <feComposite operator="in" in="color"/>
      <feComposite operator="in" in2="SourceGraphic"/>
    </filter>
  </defs>
  <g data-type="innerShadowGroup">
    <g transform="matrix(1, 0, 0, 1, 0, 0)" filter="url(#settings_account_box_24dp_5F6368_FILL0_wght200_GRAD0_opsz24)">
      <path id="settings_account_box_24dp_5F6368_FILL0_wght200_GRAD0_opsz24-3" data-name="settings_account_box_24dp_5F6368_FILL0_wght200_GRAD0_opsz24" d="M179.434-765.485h24.291v-2.946a15.176,15.176,0,0,0-5.441-4.145,16.044,16.044,0,0,0-6.7-1.445,16.051,16.051,0,0,0-6.705,1.445,15.175,15.175,0,0,0-5.441,4.145ZM191.58-777.63a5.222,5.222,0,0,0,3.836-1.58A5.224,5.224,0,0,0,197-783.046a5.227,5.227,0,0,0-1.579-3.837,5.225,5.225,0,0,0-3.836-1.579,5.226,5.226,0,0,0-3.838,1.579,5.227,5.227,0,0,0-1.579,3.837,5.223,5.223,0,0,0,1.579,3.836A5.223,5.223,0,0,0,191.58-777.63ZM167.617-801.594Zm-.115-10.669a10.3,10.3,0,0,0-7.566,3.1,10.293,10.293,0,0,0-3.1,7.566,10.24,10.24,0,0,0,1.855,6.09,11.051,11.051,0,0,0,4.825,3.857q.082-1.141.258-2.232a7.192,7.192,0,0,1,.62-2,5.146,5.146,0,0,1-2.474-2.347,7.206,7.206,0,0,1-.817-3.365,6.174,6.174,0,0,1,1.867-4.534,6.174,6.174,0,0,1,4.534-1.867,6.228,6.228,0,0,1,3.246.883,6.7,6.7,0,0,1,2.359,2.351,6.131,6.131,0,0,1,1.592-.664,6.791,6.791,0,0,1,1.7-.213h.887a10.168,10.168,0,0,0-3.8-4.785A10.278,10.278,0,0,0,167.5-812.262Zm-7.846,49.075-1.543-12.343a22.655,22.655,0,0,1-4.419-1.937,21.661,21.661,0,0,1-4.041-2.83l-11.383,4.841-7.96-13.869,9.84-7.419q-.189-1.156-.312-2.383a23.754,23.754,0,0,1-.124-2.384,21.8,21.8,0,0,1,.124-2.261q.123-1.186.312-2.671l-9.84-7.419,7.96-13.7,11.3,4.759a29.23,29.23,0,0,1,4.136-2.872,23.653,23.653,0,0,1,4.324-1.978L159.656-840h15.922l1.543,12.425a24.26,24.26,0,0,1,4.337,1.978,29.433,29.433,0,0,1,3.878,2.79l11.629-4.759,7.96,13.7-9.724,7.346a.72.72,0,0,1,.082.327.729.729,0,0,0,.082.329h-5.031q-.107-.534-.172-1a4.361,4.361,0,0,0-.279-1l9.5-7.181-4.243-7.255-10.89,4.563a21.808,21.808,0,0,0-5.092-3.985,20.374,20.374,0,0,0-5.97-2.466l-1.3-11.555h-8.51l-1.329,11.473a20.759,20.759,0,0,0-5.93,2.22,25.393,25.393,0,0,0-5.379,4.206l-10.644-4.457-4.243,7.255,9.257,6.91a13.987,13.987,0,0,0-.747,3.119,27.784,27.784,0,0,0-.213,3.5,24.377,24.377,0,0,0,.213,3.225,20.39,20.39,0,0,0,.665,3.118l-9.175,7.017,4.243,7.254,10.562-4.481a23.26,23.26,0,0,0,5.8,4.276,27.066,27.066,0,0,0,6.894,2.469v15.445Zm19.285,3.611a5.223,5.223,0,0,1-3.836-1.58,5.222,5.222,0,0,1-1.58-3.836v-25.277a5.222,5.222,0,0,1,1.58-3.836,5.224,5.224,0,0,1,3.836-1.58h25.277a5.224,5.224,0,0,1,3.836,1.58,5.222,5.222,0,0,1,1.58,3.836v25.277a5.222,5.222,0,0,1-1.58,3.836,5.223,5.223,0,0,1-3.836,1.58Z" transform="translate(-121.31 840)" opacity="0.54" fill="url(#linear-gradient)"/>
    </g>
    <g transform="matrix(1, 0, 0, 1, 0, 0)" filter="url(#settings_account_box_24dp_5F6368_FILL0_wght200_GRAD0_opsz24-2)">
      <path id="settings_account_box_24dp_5F6368_FILL0_wght200_GRAD0_opsz24-4" data-name="settings_account_box_24dp_5F6368_FILL0_wght200_GRAD0_opsz24" d="M179.434-765.485h24.291v-2.946a15.176,15.176,0,0,0-5.441-4.145,16.044,16.044,0,0,0-6.7-1.445,16.051,16.051,0,0,0-6.705,1.445,15.175,15.175,0,0,0-5.441,4.145ZM191.58-777.63a5.222,5.222,0,0,0,3.836-1.58A5.224,5.224,0,0,0,197-783.046a5.227,5.227,0,0,0-1.579-3.837,5.225,5.225,0,0,0-3.836-1.579,5.226,5.226,0,0,0-3.838,1.579,5.227,5.227,0,0,0-1.579,3.837,5.223,5.223,0,0,0,1.579,3.836A5.223,5.223,0,0,0,191.58-777.63ZM167.617-801.594Zm-.115-10.669a10.3,10.3,0,0,0-7.566,3.1,10.293,10.293,0,0,0-3.1,7.566,10.24,10.24,0,0,0,1.855,6.09,11.051,11.051,0,0,0,4.825,3.857q.082-1.141.258-2.232a7.192,7.192,0,0,1,.62-2,5.146,5.146,0,0,1-2.474-2.347,7.206,7.206,0,0,1-.817-3.365,6.174,6.174,0,0,1,1.867-4.534,6.174,6.174,0,0,1,4.534-1.867,6.228,6.228,0,0,1,3.246.883,6.7,6.7,0,0,1,2.359,2.351,6.131,6.131,0,0,1,1.592-.664,6.791,6.791,0,0,1,1.7-.213h.887a10.168,10.168,0,0,0-3.8-4.785A10.278,10.278,0,0,0,167.5-812.262Zm-7.846,49.075-1.543-12.343a22.655,22.655,0,0,1-4.419-1.937,21.661,21.661,0,0,1-4.041-2.83l-11.383,4.841-7.96-13.869,9.84-7.419q-.189-1.156-.312-2.383a23.754,23.754,0,0,1-.124-2.384,21.8,21.8,0,0,1,.124-2.261q.123-1.186.312-2.671l-9.84-7.419,7.96-13.7,11.3,4.759a29.23,29.23,0,0,1,4.136-2.872,23.653,23.653,0,0,1,4.324-1.978L159.656-840h15.922l1.543,12.425a24.26,24.26,0,0,1,4.337,1.978,29.433,29.433,0,0,1,3.878,2.79l11.629-4.759,7.96,13.7-9.724,7.346a.72.72,0,0,1,.082.327.729.729,0,0,0,.082.329h-5.031q-.107-.534-.172-1a4.361,4.361,0,0,0-.279-1l9.5-7.181-4.243-7.255-10.89,4.563a21.808,21.808,0,0,0-5.092-3.985,20.374,20.374,0,0,0-5.97-2.466l-1.3-11.555h-8.51l-1.329,11.473a20.759,20.759,0,0,0-5.93,2.22,25.393,25.393,0,0,0-5.379,4.206l-10.644-4.457-4.243,7.255,9.257,6.91a13.987,13.987,0,0,0-.747,3.119,27.784,27.784,0,0,0-.213,3.5,24.377,24.377,0,0,0,.213,3.225,20.39,20.39,0,0,0,.665,3.118l-9.175,7.017,4.243,7.254,10.562-4.481a23.26,23.26,0,0,0,5.8,4.276,27.066,27.066,0,0,0,6.894,2.469v15.445Zm19.285,3.611a5.223,5.223,0,0,1-3.836-1.58,5.222,5.222,0,0,1-1.58-3.836v-25.277a5.222,5.222,0,0,1,1.58-3.836,5.224,5.224,0,0,1,3.836-1.58h25.277a5.224,5.224,0,0,1,3.836,1.58,5.222,5.222,0,0,1,1.58,3.836v25.277a5.222,5.222,0,0,1-1.58,3.836,5.223,5.223,0,0,1-3.836,1.58Z" transform="translate(-121.31 840)" fill="#fff" opacity="0.54"/>
    </g>
  </g>
</svg>
