<svg xmlns="http://www.w3.org/2000/svg" width="249.099" height="66.942" viewBox="0 0 249.099 66.942">
  <g id="Group_930" data-name="Group 930" transform="translate(-16.206 -843.902)">
    <path id="Path_582" data-name="Path 582" d="M0,0V64.412H96.293l11.425-11.386h69.157V0Z" transform="translate(17.206 844.902)" fill="rgba(180,255,172,0.06)" stroke="#b4ffac" stroke-width="2"/>
    <path id="Path_583" data-name="Path 583" d="M79.164,40.458l-8.4,8.358h62.324l8.4-8.358Z" transform="translate(48.61 862.029)" fill="#b4ffac"/>
    <text id="Resource_Forecasting" data-name="Resource Forecasting" transform="translate(102.761 882.494)" fill="#b4ffac" font-size="16" font-family="Helvetica"><tspan x="-78" y="0">Resource Forecasting</tspan></text>
    <g id="Rectangle_148" data-name="Rectangle 148" transform="translate(200.365 844.637)" fill="rgba(180,255,172,0.06)" stroke="#b4ffac" stroke-width="2">
      <rect width="64.94" height="53.768" stroke="none"/>
      <rect x="1" y="1" width="62.94" height="51.768" fill="none"/>
    </g>
    <path id="supervisor_account_24dp_5F6368_FILL0_wght200_GRAD0_opsz24" d="M131.689-729.005a3.65,3.65,0,0,1-2.674-1.12,3.65,3.65,0,0,1-1.12-2.674,3.65,3.65,0,0,1,1.12-2.674,3.651,3.651,0,0,1,2.674-1.12,3.651,3.651,0,0,1,2.674,1.12,3.651,3.651,0,0,1,1.12,2.674,3.651,3.651,0,0,1-1.12,2.674A3.651,3.651,0,0,1,131.689-729.005Zm-8.537,9.485v-1.707a3,3,0,0,1,.441-1.6,2.476,2.476,0,0,1,1.252-1.033,16.979,16.979,0,0,1,3.317-1.013,18.231,18.231,0,0,1,3.527-.337,17.893,17.893,0,0,1,3.456.337,18.631,18.631,0,0,1,3.388,1.013,2.479,2.479,0,0,1,1.252,1.033,3,3,0,0,1,.441,1.6v1.707ZM117.9-733.238a5.48,5.48,0,0,1-4.019-1.672,5.48,5.48,0,0,1-1.672-4.019,5.48,5.48,0,0,1,1.672-4.019,5.48,5.48,0,0,1,4.019-1.672,5.48,5.48,0,0,1,4.019,1.672,5.48,5.48,0,0,1,1.672,4.019,5.48,5.48,0,0,1-1.672,4.019A5.48,5.48,0,0,1,117.9-733.238ZM117.9-738.929ZM104.62-719.52v-3.123a4.036,4.036,0,0,1,.678-2.263,4.034,4.034,0,0,1,1.846-1.524,23.747,23.747,0,0,1,5.228-1.926,23.646,23.646,0,0,1,5.527-.649,22.109,22.109,0,0,1,2.3.12q1.149.12,2.3.318l-.81.846-.81.847a11.087,11.087,0,0,0-1.488-.19q-.744-.044-1.488-.044a23.4,23.4,0,0,0-5.073.554,18.241,18.241,0,0,0-4.777,1.787,4.069,4.069,0,0,0-1.076.865,1.839,1.839,0,0,0-.456,1.259v1.226H117.9v1.9ZM117.9-721.417Zm0-13.718a3.654,3.654,0,0,0,2.68-1.115,3.653,3.653,0,0,0,1.115-2.68,3.653,3.653,0,0,0-1.115-2.68,3.653,3.653,0,0,0-2.68-1.115,3.653,3.653,0,0,0-2.68,1.115,3.653,3.653,0,0,0-1.115,2.68,3.653,3.653,0,0,0,1.115,2.68A3.654,3.654,0,0,0,117.9-735.135Z" transform="translate(110.413 1603.591)" fill="#b4ffac"/>
  </g>
</svg>
