<svg xmlns="http://www.w3.org/2000/svg" width="249.099" height="66.44" viewBox="0 0 249.099 66.44">
  <g id="Group_926" data-name="Group 926" transform="translate(-16.206 -505.857)">
    <path id="Path_572" data-name="Path 572" d="M0,0V63.921H95.559l11.338-11.3h68.63V0Z" transform="translate(17.206 506.857)" fill="rgba(180,255,172,0.06)" stroke="#b4ffac" stroke-width="2"/>
    <path id="Path_573" data-name="Path 573" d="M79.1,40.458l-8.338,8.294h61.849l8.337-8.294Z" transform="translate(47.831 523.544)" fill="#b4ffac"/>
    <text id="Safety_Security" data-name="Safety &amp; Security" transform="translate(103.026 544.276)" fill="#b4ffac" font-size="16" font-family="Helvetica"><tspan x="-61" y="0">Safety &amp; Security</tspan></text>
    <g id="Rectangle_144" data-name="Rectangle 144" transform="translate(200.86 507.102)" fill="rgba(180,255,172,0.06)" stroke="#b4ffac" stroke-width="2">
      <rect width="64.445" height="53.358" stroke="none"/>
      <rect x="1" y="1" width="62.445" height="51.358" fill="none"/>
    </g>
    <path id="encrypted_24dp_5F6368_FILL0_wght200_GRAD0_opsz24" d="M210.66-816.56h3.633l-.991-5.508a2.686,2.686,0,0,0,1.3-.966,2.536,2.536,0,0,0,.512-1.546,2.542,2.542,0,0,0-.773-1.866,2.542,2.542,0,0,0-1.866-.773,2.542,2.542,0,0,0-1.866.773,2.542,2.542,0,0,0-.773,1.866,2.536,2.536,0,0,0,.512,1.546,2.686,2.686,0,0,0,1.3.966Zm1.817,11.517a16.71,16.71,0,0,1-8.924-6.507A18.431,18.431,0,0,1,200-822.62v-9.638l12.476-4.661,12.476,4.661v9.638a18.431,18.431,0,0,1-3.553,11.069A16.71,16.71,0,0,1,212.476-805.044Zm0-1.892a14.5,14.5,0,0,0,7.664-5.882,16.928,16.928,0,0,0,3.03-9.8v-8.422l-10.694-3.976-10.694,3.976v8.422a16.929,16.929,0,0,0,3.03,9.8A14.5,14.5,0,0,0,212.476-806.936ZM212.476-820.982Z" transform="translate(20.607 1354.762)" fill="#b4ffac"/>
  </g>
</svg>
