<svg xmlns="http://www.w3.org/2000/svg" xmlns:xlink="http://www.w3.org/1999/xlink" width="32.772" height="27.279" viewBox="0 0 32.772 27.279">
  <defs>
    <linearGradient id="linear-gradient" y1="0.501" x2="1" y2="0.501" gradientUnits="objectBoundingBox">
      <stop offset="0" stop-color="#55bf9b"/>
      <stop offset="0.33" stop-color="#2dacb1"/>
      <stop offset="0.74" stop-color="#2986c1"/>
      <stop offset="1" stop-color="#3b67b1"/>
    </linearGradient>
    <linearGradient id="linear-gradient-2" y1="0.501" x2="1" y2="0.501" gradientUnits="objectBoundingBox">
      <stop offset="0" stop-color="#55bf9b"/>
      <stop offset="0.15" stop-color="#2dacb1"/>
      <stop offset="0.4" stop-color="#2986c1"/>
      <stop offset="1" stop-color="#3b67b1"/>
    </linearGradient>
    <linearGradient id="linear-gradient-3" x1="-0.001" y1="0.498" x2="1" y2="0.498" xlink:href="#linear-gradient"/>
    <linearGradient id="linear-gradient-4" x1="0.001" y1="0.5" x2="1" y2="0.5" xlink:href="#linear-gradient-2"/>
    <linearGradient id="linear-gradient-5" x1="-0.001" y1="0.499" x2="0.998" y2="0.499" xlink:href="#linear-gradient"/>
    <linearGradient id="linear-gradient-6" x1="0" y1="0.498" x2="1" y2="0.498" xlink:href="#linear-gradient-2"/>
    <linearGradient id="linear-gradient-7" x1="0" y1="0.501" x2="1" y2="0.501" xlink:href="#linear-gradient"/>
    <linearGradient id="linear-gradient-8" x1="0" y1="0.501" x2="1" y2="0.501" xlink:href="#linear-gradient-2"/>
    <linearGradient id="linear-gradient-9" x1="0.004" y1="0.497" x2="0.997" y2="0.497" xlink:href="#linear-gradient"/>
    <linearGradient id="linear-gradient-10" x1="0" y1="0.5" x2="0.997" y2="0.5" xlink:href="#linear-gradient"/>
  </defs>
  <g id="Group_5370" data-name="Group 5370" transform="translate(-57 -2091.001)">
    <g id="Group_4336" data-name="Group 4336" transform="translate(57 2091)">
      <g id="Group_4293" data-name="Group 4293" transform="translate(0 16.444)">
        <path id="Path_25366" data-name="Path 25366" d="M60.149,75.754l-.248-.215,1.969-2.167L56.278,66.01,53.465,67.6l-.165-.3,3.06-1.72L62.3,73.388Z" transform="translate(-52.953 -65.266)" fill="url(#linear-gradient)"/>
        <path id="Path_25367" data-name="Path 25367" d="M60.3,76.226l-.612-.546,2-2.2-5.343-7.014L53.5,68.053l-.414-.711,3.474-1.952.132.165,6.071,7.974Z" transform="translate(-53.09 -65.39)" fill="url(#linear-gradient-2)"/>
      </g>
      <g id="Group_4294" data-name="Group 4294" transform="translate(8.139 13.746)">
        <path id="Path_25368" data-name="Path 25368" d="M58.249,73.631l-.1-.314,1.158-.381H72.36l9.678-7.444a1.591,1.591,0,0,0-.695-1.108,2.44,2.44,0,0,0-2.2.2l-5.277,3.077-.165-.281,5.294-3.094a2.717,2.717,0,0,1,2.515-.182,2.058,2.058,0,0,1,.877,1.456v.083l-.066.05-9.843,7.577H59.341l-1.075.364Z" transform="translate(-57.918 -63.687)" fill="url(#linear-gradient-3)"/>
        <path id="Path_25369" data-name="Path 25369" d="M58.225,73.9l-.215-.629,1.357-.447h13l9.562-7.345a1.412,1.412,0,0,0-.6-.893,2.343,2.343,0,0,0-2.051.2l-5.41,3.16-.331-.579,5.443-3.176a2.939,2.939,0,0,1,2.7-.182,2.194,2.194,0,0,1,.959,1.588v.182l-.132.116L72.617,73.5H59.449l-1.208.414Zm1.191-.728H72.5l7.014-5.41L72.5,73.174Zm21.936-8.95s.1.05.149.083a1.791,1.791,0,0,1,.778,1.224v.033a1.789,1.789,0,0,0-.778-1.257c-.05-.033-.1-.05-.149-.083Z" transform="translate(-58.01 -63.759)" fill="url(#linear-gradient-4)"/>
      </g>
      <g id="Group_4295" data-name="Group 4295" transform="translate(3.788 13.758)">
        <path id="Path_25370" data-name="Path 25370" d="M66.548,69.073v-.331l8.271-.116a.854.854,0,0,0,.132-.711c-.2-.877-1.505-1.654-1.737-1.787h-2.8a5.493,5.493,0,0,1-2.812-.314c0,.017-.033.033-.05.066-.116.116-.232.066-.744-.43l-.926-.893L66.7,65c-1.158-1.141-4.5-.778-4.864-.728L55.7,68.031l-.165-.281,6.237-3.788c.165-.017,4.07-.546,5.31.959.165.2.281.347.364.463a5.552,5.552,0,0,0,2.978.414H73.33l.033.017c.066.033,1.687.91,1.936,2.018a1.243,1.243,0,0,1-.232,1.042l-.05.066h-.083l-8.354.116Z" transform="translate(-55.282 -63.707)" fill="url(#linear-gradient-5)"/>
        <path id="Path_25371" data-name="Path 25371" d="M66.48,69.3v-.662l8.338-.116a.693.693,0,0,0,.066-.513c-.165-.778-1.357-1.505-1.621-1.654H70.517a5.6,5.6,0,0,1-2.763-.281c-.265.232-.546-.033-.959-.43l-.959-.926a10.424,10.424,0,0,0-3.855-.2l-6.253,3.821-.347-.562,6.435-3.9c.165-.017,4.152-.562,5.459,1.009.149.182.265.314.347.43a5.348,5.348,0,0,0,2.845.381h2.978l.066.033c.182.1,1.77.993,2.018,2.134a1.424,1.424,0,0,1-.265,1.191l-.1.132H75l-8.52.116Zm.331-.331,6.932-.1-6.931.1Zm8.255-.232a.051.051,0,0,1-.017.033h0s.017,0,.033-.033Zm0,0Zm-19.239-.86.083-.05Zm17.486-1.853H73.4a5.45,5.45,0,0,1,1.588,1.406,5.327,5.327,0,0,0-1.638-1.406H70.484a5.633,5.633,0,0,1-2.878-.364l.033.033h.1a5.031,5.031,0,0,0,2.73.314H73.3Zm-6.3-.629a2.247,2.247,0,0,0,.529.43l.05-.1-.579-.331Zm-.132-.463.017.017h0a.051.051,0,0,1-.033-.017ZM61.9,64.186h0c.083,0,.232-.033.414-.05A3.466,3.466,0,0,0,61.9,64.186Z" transform="translate(-55.38 -63.767)" fill="url(#linear-gradient-6)"/>
      </g>
      <g id="Group_4296" data-name="Group 4296" transform="translate(15.417 0.001)">
        <path id="Path_25372" data-name="Path 25372" d="M69.259,69.067a6.762,6.762,0,0,1-6.683-5.823h0A6.757,6.757,0,1,1,70.2,69,6.026,6.026,0,0,1,69.259,69.067Zm-6.352-5.873a6.422,6.422,0,1,0,5.476-7.246,6.419,6.419,0,0,0-5.476,7.246h0Z" transform="translate(-62.343 -55.386)" fill="url(#linear-gradient-7)"/>
        <path id="Path_25373" data-name="Path 25373" d="M69.325,69.3a6.923,6.923,0,1,1,4.169-12.457A6.923,6.923,0,0,1,70.285,69.23,6.241,6.241,0,0,1,69.325,69.3Zm1.82-.579a5.708,5.708,0,0,1-.893.182c-.066,0-.132.017-.2.017a.806.806,0,0,0,.2-.017A7.105,7.105,0,0,0,71.145,68.717Zm-8.007-5.476a6.263,6.263,0,0,0,12.407-1.72,6.263,6.263,0,1,0-12.407,1.72h0Zm6.187-7.461a6.617,6.617,0,0,1,6.534,5.674,6.439,6.439,0,0,1-.281,3.027,6.459,6.459,0,0,0,.281-3.027A6.549,6.549,0,0,0,73.3,57.1a6.44,6.44,0,0,0-4.864-1.257,5.876,5.876,0,0,0-.778.149,5.876,5.876,0,0,1,.778-.149,8.413,8.413,0,0,1,.91-.066Zm-6.154,4.268a6.6,6.6,0,0,0-.364,3.226,1.49,1.49,0,0,0,.05.265,1.489,1.489,0,0,0-.05-.265h0A6.8,6.8,0,0,1,63.171,60.049Z" transform="translate(-62.409 -55.451)" fill="url(#linear-gradient-8)"/>
      </g>
      <path id="Path_25374" data-name="Path 25374" d="M67.948,64.828a2.393,2.393,0,0,1-1.505-.579,4.184,4.184,0,0,1-.463-6.071c1.737-1.621,3.755-.033,3.788,0l-.2.265s-1.82-1.423-3.342,0a3.812,3.812,0,0,0,.463,5.592,2.053,2.053,0,0,0,1.39.48,2.137,2.137,0,0,0,1.472-.86l.248.215a2.42,2.42,0,0,1-1.7.976h-.132Z" transform="translate(-45.383 -54.142)" fill="url(#linear-gradient-9)"/>
      <rect id="Rectangle_2194" data-name="Rectangle 2194" width="4.996" height="0.331" transform="translate(18.66 7.444)" fill="url(#linear-gradient-10)"/>
      <rect id="Rectangle_2195" data-name="Rectangle 2195" width="4.996" height="0.331" transform="translate(18.66 6.022)" fill="url(#linear-gradient-10)"/>
    </g>
    <g id="Group_5366" data-name="Group 5366" transform="translate(57 2091)">
      <g id="Group_4293-2" data-name="Group 4293" transform="translate(0 16.444)">
        <path id="Path_25366-2" data-name="Path 25366" d="M60.149,75.754l-.248-.215,1.969-2.167L56.278,66.01,53.465,67.6l-.165-.3,3.06-1.72L62.3,73.388Z" transform="translate(-52.953 -65.266)" fill="url(#linear-gradient)"/>
        <path id="Path_25367-2" data-name="Path 25367" d="M60.3,76.226l-.612-.546,2-2.2-5.343-7.014L53.5,68.053l-.414-.711,3.474-1.952.132.165,6.071,7.974Z" transform="translate(-53.09 -65.39)" fill="url(#linear-gradient-2)"/>
      </g>
      <g id="Group_4294-2" data-name="Group 4294" transform="translate(8.139 13.746)">
        <path id="Path_25368-2" data-name="Path 25368" d="M58.249,73.631l-.1-.314,1.158-.381H72.36l9.678-7.444a1.591,1.591,0,0,0-.695-1.108,2.44,2.44,0,0,0-2.2.2l-5.277,3.077-.165-.281,5.294-3.094a2.717,2.717,0,0,1,2.515-.182,2.058,2.058,0,0,1,.877,1.456v.083l-.066.05-9.843,7.577H59.341l-1.075.364Z" transform="translate(-57.918 -63.687)" fill="url(#linear-gradient-3)"/>
        <path id="Path_25369-2" data-name="Path 25369" d="M58.225,73.9l-.215-.629,1.357-.447h13l9.562-7.345a1.412,1.412,0,0,0-.6-.893,2.343,2.343,0,0,0-2.051.2l-5.41,3.16-.331-.579,5.443-3.176a2.939,2.939,0,0,1,2.7-.182,2.194,2.194,0,0,1,.959,1.588v.182l-.132.116L72.617,73.5H59.449l-1.208.414Zm1.191-.728H72.5l7.014-5.41L72.5,73.174Zm21.936-8.95s.1.05.149.083a1.791,1.791,0,0,1,.778,1.224v.033a1.789,1.789,0,0,0-.778-1.257c-.05-.033-.1-.05-.149-.083Z" transform="translate(-58.01 -63.759)" fill="url(#linear-gradient-4)"/>
      </g>
      <g id="Group_4295-2" data-name="Group 4295" transform="translate(3.788 13.758)">
        <path id="Path_25370-2" data-name="Path 25370" d="M66.548,69.073v-.331l8.271-.116a.854.854,0,0,0,.132-.711c-.2-.877-1.505-1.654-1.737-1.787h-2.8a5.493,5.493,0,0,1-2.812-.314c0,.017-.033.033-.05.066-.116.116-.232.066-.744-.43l-.926-.893L66.7,65c-1.158-1.141-4.5-.778-4.864-.728L55.7,68.031l-.165-.281,6.237-3.788c.165-.017,4.07-.546,5.31.959.165.2.281.347.364.463a5.552,5.552,0,0,0,2.978.414H73.33l.033.017c.066.033,1.687.91,1.936,2.018a1.243,1.243,0,0,1-.232,1.042l-.05.066h-.083l-8.354.116Z" transform="translate(-55.282 -63.707)" fill="url(#linear-gradient-5)"/>
        <path id="Path_25371-2" data-name="Path 25371" d="M66.48,69.3v-.662l8.338-.116a.693.693,0,0,0,.066-.513c-.165-.778-1.357-1.505-1.621-1.654H70.517a5.6,5.6,0,0,1-2.763-.281c-.265.232-.546-.033-.959-.43l-.959-.926a10.424,10.424,0,0,0-3.855-.2l-6.253,3.821-.347-.562,6.435-3.9c.165-.017,4.152-.562,5.459,1.009.149.182.265.314.347.43a5.348,5.348,0,0,0,2.845.381h2.978l.066.033c.182.1,1.77.993,2.018,2.134a1.424,1.424,0,0,1-.265,1.191l-.1.132H75l-8.52.116Zm.331-.331,6.932-.1-6.931.1Zm8.255-.232a.051.051,0,0,1-.017.033h0s.017,0,.033-.033Zm0,0Zm-19.239-.86.083-.05Zm17.486-1.853H73.4a5.45,5.45,0,0,1,1.588,1.406,5.327,5.327,0,0,0-1.638-1.406H70.484a5.633,5.633,0,0,1-2.878-.364l.033.033h.1a5.031,5.031,0,0,0,2.73.314H73.3Zm-6.3-.629a2.247,2.247,0,0,0,.529.43l.05-.1-.579-.331Zm-.132-.463.017.017h0a.051.051,0,0,1-.033-.017ZM61.9,64.186h0c.083,0,.232-.033.414-.05A3.466,3.466,0,0,0,61.9,64.186Z" transform="translate(-55.38 -63.767)" fill="url(#linear-gradient-6)"/>
      </g>
      <g id="Group_4296-2" data-name="Group 4296" transform="translate(15.417 0.001)">
        <path id="Path_25372-2" data-name="Path 25372" d="M69.259,69.067a6.762,6.762,0,0,1-6.683-5.823h0A6.757,6.757,0,1,1,70.2,69,6.026,6.026,0,0,1,69.259,69.067Zm-6.352-5.873a6.422,6.422,0,1,0,5.476-7.246,6.419,6.419,0,0,0-5.476,7.246h0Z" transform="translate(-62.343 -55.386)" fill="url(#linear-gradient-7)"/>
        <path id="Path_25373-2" data-name="Path 25373" d="M69.325,69.3a6.923,6.923,0,1,1,4.169-12.457A6.923,6.923,0,0,1,70.285,69.23,6.241,6.241,0,0,1,69.325,69.3Zm1.82-.579a5.708,5.708,0,0,1-.893.182c-.066,0-.132.017-.2.017a.806.806,0,0,0,.2-.017A7.105,7.105,0,0,0,71.145,68.717Zm-8.007-5.476a6.263,6.263,0,0,0,12.407-1.72,6.263,6.263,0,1,0-12.407,1.72h0Zm6.187-7.461a6.617,6.617,0,0,1,6.534,5.674,6.439,6.439,0,0,1-.281,3.027,6.459,6.459,0,0,0,.281-3.027A6.549,6.549,0,0,0,73.3,57.1a6.44,6.44,0,0,0-4.864-1.257,5.876,5.876,0,0,0-.778.149,5.876,5.876,0,0,1,.778-.149,8.413,8.413,0,0,1,.91-.066Zm-6.154,4.268a6.6,6.6,0,0,0-.364,3.226,1.49,1.49,0,0,0,.05.265,1.489,1.489,0,0,0-.05-.265h0A6.8,6.8,0,0,1,63.171,60.049Z" transform="translate(-62.409 -55.451)" fill="url(#linear-gradient-8)"/>
      </g>
      <path id="Path_25374-2" data-name="Path 25374" d="M67.948,64.828a2.393,2.393,0,0,1-1.505-.579,4.184,4.184,0,0,1-.463-6.071c1.737-1.621,3.755-.033,3.788,0l-.2.265s-1.82-1.423-3.342,0a3.812,3.812,0,0,0,.463,5.592,2.053,2.053,0,0,0,1.39.48,2.137,2.137,0,0,0,1.472-.86l.248.215a2.42,2.42,0,0,1-1.7.976h-.132Z" transform="translate(-45.383 -54.142)" fill="url(#linear-gradient-9)"/>
      <rect id="Rectangle_2194-2" data-name="Rectangle 2194" width="4.996" height="0.331" transform="translate(18.66 7.444)" fill="url(#linear-gradient-10)"/>
      <rect id="Rectangle_2195-2" data-name="Rectangle 2195" width="4.996" height="0.331" transform="translate(18.66 6.022)" fill="url(#linear-gradient-10)"/>
    </g>
    <g id="Group_5367" data-name="Group 5367" transform="translate(57 2091)">
      <g id="Group_4293-3" data-name="Group 4293" transform="translate(0 16.444)">
        <path id="Path_25366-3" data-name="Path 25366" d="M60.149,75.754l-.248-.215,1.969-2.167L56.278,66.01,53.465,67.6l-.165-.3,3.06-1.72L62.3,73.388Z" transform="translate(-52.953 -65.266)" fill="url(#linear-gradient)"/>
        <path id="Path_25367-3" data-name="Path 25367" d="M60.3,76.226l-.612-.546,2-2.2-5.343-7.014L53.5,68.053l-.414-.711,3.474-1.952.132.165,6.071,7.974Z" transform="translate(-53.09 -65.39)" fill="url(#linear-gradient-2)"/>
      </g>
      <g id="Group_4294-3" data-name="Group 4294" transform="translate(8.139 13.746)">
        <path id="Path_25368-3" data-name="Path 25368" d="M58.249,73.631l-.1-.314,1.158-.381H72.36l9.678-7.444a1.591,1.591,0,0,0-.695-1.108,2.44,2.44,0,0,0-2.2.2l-5.277,3.077-.165-.281,5.294-3.094a2.717,2.717,0,0,1,2.515-.182,2.058,2.058,0,0,1,.877,1.456v.083l-.066.05-9.843,7.577H59.341l-1.075.364Z" transform="translate(-57.918 -63.687)" fill="url(#linear-gradient-3)"/>
        <path id="Path_25369-3" data-name="Path 25369" d="M58.225,73.9l-.215-.629,1.357-.447h13l9.562-7.345a1.412,1.412,0,0,0-.6-.893,2.343,2.343,0,0,0-2.051.2l-5.41,3.16-.331-.579,5.443-3.176a2.939,2.939,0,0,1,2.7-.182,2.194,2.194,0,0,1,.959,1.588v.182l-.132.116L72.617,73.5H59.449l-1.208.414Zm1.191-.728H72.5l7.014-5.41L72.5,73.174Zm21.936-8.95s.1.05.149.083a1.791,1.791,0,0,1,.778,1.224v.033a1.789,1.789,0,0,0-.778-1.257c-.05-.033-.1-.05-.149-.083Z" transform="translate(-58.01 -63.759)" fill="url(#linear-gradient-4)"/>
      </g>
      <g id="Group_4295-3" data-name="Group 4295" transform="translate(3.788 13.758)">
        <path id="Path_25370-3" data-name="Path 25370" d="M66.548,69.073v-.331l8.271-.116a.854.854,0,0,0,.132-.711c-.2-.877-1.505-1.654-1.737-1.787h-2.8a5.493,5.493,0,0,1-2.812-.314c0,.017-.033.033-.05.066-.116.116-.232.066-.744-.43l-.926-.893L66.7,65c-1.158-1.141-4.5-.778-4.864-.728L55.7,68.031l-.165-.281,6.237-3.788c.165-.017,4.07-.546,5.31.959.165.2.281.347.364.463a5.552,5.552,0,0,0,2.978.414H73.33l.033.017c.066.033,1.687.91,1.936,2.018a1.243,1.243,0,0,1-.232,1.042l-.05.066h-.083l-8.354.116Z" transform="translate(-55.282 -63.707)" fill="url(#linear-gradient-5)"/>
        <path id="Path_25371-3" data-name="Path 25371" d="M66.48,69.3v-.662l8.338-.116a.693.693,0,0,0,.066-.513c-.165-.778-1.357-1.505-1.621-1.654H70.517a5.6,5.6,0,0,1-2.763-.281c-.265.232-.546-.033-.959-.43l-.959-.926a10.424,10.424,0,0,0-3.855-.2l-6.253,3.821-.347-.562,6.435-3.9c.165-.017,4.152-.562,5.459,1.009.149.182.265.314.347.43a5.348,5.348,0,0,0,2.845.381h2.978l.066.033c.182.1,1.77.993,2.018,2.134a1.424,1.424,0,0,1-.265,1.191l-.1.132H75l-8.52.116Zm.331-.331,6.932-.1-6.931.1Zm8.255-.232a.051.051,0,0,1-.017.033h0s.017,0,.033-.033Zm0,0Zm-19.239-.86.083-.05Zm17.486-1.853H73.4a5.45,5.45,0,0,1,1.588,1.406,5.327,5.327,0,0,0-1.638-1.406H70.484a5.633,5.633,0,0,1-2.878-.364l.033.033h.1a5.031,5.031,0,0,0,2.73.314H73.3Zm-6.3-.629a2.247,2.247,0,0,0,.529.43l.05-.1-.579-.331Zm-.132-.463.017.017h0a.051.051,0,0,1-.033-.017ZM61.9,64.186h0c.083,0,.232-.033.414-.05A3.466,3.466,0,0,0,61.9,64.186Z" transform="translate(-55.38 -63.767)" fill="url(#linear-gradient-6)"/>
      </g>
      <g id="Group_4296-3" data-name="Group 4296" transform="translate(15.417 0.001)">
        <path id="Path_25372-3" data-name="Path 25372" d="M69.259,69.067a6.762,6.762,0,0,1-6.683-5.823h0A6.757,6.757,0,1,1,70.2,69,6.026,6.026,0,0,1,69.259,69.067Zm-6.352-5.873a6.422,6.422,0,1,0,5.476-7.246,6.419,6.419,0,0,0-5.476,7.246h0Z" transform="translate(-62.343 -55.386)" fill="url(#linear-gradient-7)"/>
        <path id="Path_25373-3" data-name="Path 25373" d="M69.325,69.3a6.923,6.923,0,1,1,4.169-12.457A6.923,6.923,0,0,1,70.285,69.23,6.241,6.241,0,0,1,69.325,69.3Zm1.82-.579a5.708,5.708,0,0,1-.893.182c-.066,0-.132.017-.2.017a.806.806,0,0,0,.2-.017A7.105,7.105,0,0,0,71.145,68.717Zm-8.007-5.476a6.263,6.263,0,0,0,12.407-1.72,6.263,6.263,0,1,0-12.407,1.72h0Zm6.187-7.461a6.617,6.617,0,0,1,6.534,5.674,6.439,6.439,0,0,1-.281,3.027,6.459,6.459,0,0,0,.281-3.027A6.549,6.549,0,0,0,73.3,57.1a6.44,6.44,0,0,0-4.864-1.257,5.876,5.876,0,0,0-.778.149,5.876,5.876,0,0,1,.778-.149,8.413,8.413,0,0,1,.91-.066Zm-6.154,4.268a6.6,6.6,0,0,0-.364,3.226,1.49,1.49,0,0,0,.05.265,1.489,1.489,0,0,0-.05-.265h0A6.8,6.8,0,0,1,63.171,60.049Z" transform="translate(-62.409 -55.451)" fill="url(#linear-gradient-8)"/>
      </g>
      <path id="Path_25374-3" data-name="Path 25374" d="M67.948,64.828a2.393,2.393,0,0,1-1.505-.579,4.184,4.184,0,0,1-.463-6.071c1.737-1.621,3.755-.033,3.788,0l-.2.265s-1.82-1.423-3.342,0a3.812,3.812,0,0,0,.463,5.592,2.053,2.053,0,0,0,1.39.48,2.137,2.137,0,0,0,1.472-.86l.248.215a2.42,2.42,0,0,1-1.7.976h-.132Z" transform="translate(-45.383 -54.142)" fill="url(#linear-gradient-9)"/>
      <rect id="Rectangle_2194-3" data-name="Rectangle 2194" width="4.996" height="0.331" transform="translate(18.66 7.444)" fill="url(#linear-gradient-10)"/>
      <rect id="Rectangle_2195-3" data-name="Rectangle 2195" width="4.996" height="0.331" transform="translate(18.66 6.022)" fill="url(#linear-gradient-10)"/>
    </g>
    <g id="Group_5368" data-name="Group 5368" transform="translate(57 2091)">
      <g id="Group_4293-4" data-name="Group 4293" transform="translate(0 16.444)">
        <path id="Path_25366-4" data-name="Path 25366" d="M60.149,75.754l-.248-.215,1.969-2.167L56.278,66.01,53.465,67.6l-.165-.3,3.06-1.72L62.3,73.388Z" transform="translate(-52.953 -65.266)" fill="url(#linear-gradient)"/>
        <path id="Path_25367-4" data-name="Path 25367" d="M60.3,76.226l-.612-.546,2-2.2-5.343-7.014L53.5,68.053l-.414-.711,3.474-1.952.132.165,6.071,7.974Z" transform="translate(-53.09 -65.39)" fill="url(#linear-gradient-2)"/>
      </g>
      <g id="Group_4294-4" data-name="Group 4294" transform="translate(8.139 13.746)">
        <path id="Path_25368-4" data-name="Path 25368" d="M58.249,73.631l-.1-.314,1.158-.381H72.36l9.678-7.444a1.591,1.591,0,0,0-.695-1.108,2.44,2.44,0,0,0-2.2.2l-5.277,3.077-.165-.281,5.294-3.094a2.717,2.717,0,0,1,2.515-.182,2.058,2.058,0,0,1,.877,1.456v.083l-.066.05-9.843,7.577H59.341l-1.075.364Z" transform="translate(-57.918 -63.687)" fill="url(#linear-gradient-3)"/>
        <path id="Path_25369-4" data-name="Path 25369" d="M58.225,73.9l-.215-.629,1.357-.447h13l9.562-7.345a1.412,1.412,0,0,0-.6-.893,2.343,2.343,0,0,0-2.051.2l-5.41,3.16-.331-.579,5.443-3.176a2.939,2.939,0,0,1,2.7-.182,2.194,2.194,0,0,1,.959,1.588v.182l-.132.116L72.617,73.5H59.449l-1.208.414Zm1.191-.728H72.5l7.014-5.41L72.5,73.174Zm21.936-8.95s.1.05.149.083a1.791,1.791,0,0,1,.778,1.224v.033a1.789,1.789,0,0,0-.778-1.257c-.05-.033-.1-.05-.149-.083Z" transform="translate(-58.01 -63.759)" fill="url(#linear-gradient-4)"/>
      </g>
      <g id="Group_4295-4" data-name="Group 4295" transform="translate(3.788 13.758)">
        <path id="Path_25370-4" data-name="Path 25370" d="M66.548,69.073v-.331l8.271-.116a.854.854,0,0,0,.132-.711c-.2-.877-1.505-1.654-1.737-1.787h-2.8a5.493,5.493,0,0,1-2.812-.314c0,.017-.033.033-.05.066-.116.116-.232.066-.744-.43l-.926-.893L66.7,65c-1.158-1.141-4.5-.778-4.864-.728L55.7,68.031l-.165-.281,6.237-3.788c.165-.017,4.07-.546,5.31.959.165.2.281.347.364.463a5.552,5.552,0,0,0,2.978.414H73.33l.033.017c.066.033,1.687.91,1.936,2.018a1.243,1.243,0,0,1-.232,1.042l-.05.066h-.083l-8.354.116Z" transform="translate(-55.282 -63.707)" fill="url(#linear-gradient-5)"/>
        <path id="Path_25371-4" data-name="Path 25371" d="M66.48,69.3v-.662l8.338-.116a.693.693,0,0,0,.066-.513c-.165-.778-1.357-1.505-1.621-1.654H70.517a5.6,5.6,0,0,1-2.763-.281c-.265.232-.546-.033-.959-.43l-.959-.926a10.424,10.424,0,0,0-3.855-.2l-6.253,3.821-.347-.562,6.435-3.9c.165-.017,4.152-.562,5.459,1.009.149.182.265.314.347.43a5.348,5.348,0,0,0,2.845.381h2.978l.066.033c.182.1,1.77.993,2.018,2.134a1.424,1.424,0,0,1-.265,1.191l-.1.132H75l-8.52.116Zm.331-.331,6.932-.1-6.931.1Zm8.255-.232a.051.051,0,0,1-.017.033h0s.017,0,.033-.033Zm0,0Zm-19.239-.86.083-.05Zm17.486-1.853H73.4a5.45,5.45,0,0,1,1.588,1.406,5.327,5.327,0,0,0-1.638-1.406H70.484a5.633,5.633,0,0,1-2.878-.364l.033.033h.1a5.031,5.031,0,0,0,2.73.314H73.3Zm-6.3-.629a2.247,2.247,0,0,0,.529.43l.05-.1-.579-.331Zm-.132-.463.017.017h0a.051.051,0,0,1-.033-.017ZM61.9,64.186h0c.083,0,.232-.033.414-.05A3.466,3.466,0,0,0,61.9,64.186Z" transform="translate(-55.38 -63.767)" fill="url(#linear-gradient-6)"/>
      </g>
      <g id="Group_4296-4" data-name="Group 4296" transform="translate(15.417 0.001)">
        <path id="Path_25372-4" data-name="Path 25372" d="M69.259,69.067a6.762,6.762,0,0,1-6.683-5.823h0A6.757,6.757,0,1,1,70.2,69,6.026,6.026,0,0,1,69.259,69.067Zm-6.352-5.873a6.422,6.422,0,1,0,5.476-7.246,6.419,6.419,0,0,0-5.476,7.246h0Z" transform="translate(-62.343 -55.386)" fill="url(#linear-gradient-7)"/>
        <path id="Path_25373-4" data-name="Path 25373" d="M69.325,69.3a6.923,6.923,0,1,1,4.169-12.457A6.923,6.923,0,0,1,70.285,69.23,6.241,6.241,0,0,1,69.325,69.3Zm1.82-.579a5.708,5.708,0,0,1-.893.182c-.066,0-.132.017-.2.017a.806.806,0,0,0,.2-.017A7.105,7.105,0,0,0,71.145,68.717Zm-8.007-5.476a6.263,6.263,0,0,0,12.407-1.72,6.263,6.263,0,1,0-12.407,1.72h0Zm6.187-7.461a6.617,6.617,0,0,1,6.534,5.674,6.439,6.439,0,0,1-.281,3.027,6.459,6.459,0,0,0,.281-3.027A6.549,6.549,0,0,0,73.3,57.1a6.44,6.44,0,0,0-4.864-1.257,5.876,5.876,0,0,0-.778.149,5.876,5.876,0,0,1,.778-.149,8.413,8.413,0,0,1,.91-.066Zm-6.154,4.268a6.6,6.6,0,0,0-.364,3.226,1.49,1.49,0,0,0,.05.265,1.489,1.489,0,0,0-.05-.265h0A6.8,6.8,0,0,1,63.171,60.049Z" transform="translate(-62.409 -55.451)" fill="url(#linear-gradient-8)"/>
      </g>
      <path id="Path_25374-4" data-name="Path 25374" d="M67.948,64.828a2.393,2.393,0,0,1-1.505-.579,4.184,4.184,0,0,1-.463-6.071c1.737-1.621,3.755-.033,3.788,0l-.2.265s-1.82-1.423-3.342,0a3.812,3.812,0,0,0,.463,5.592,2.053,2.053,0,0,0,1.39.48,2.137,2.137,0,0,0,1.472-.86l.248.215a2.42,2.42,0,0,1-1.7.976h-.132Z" transform="translate(-45.383 -54.142)" fill="url(#linear-gradient-9)"/>
      <rect id="Rectangle_2194-4" data-name="Rectangle 2194" width="4.996" height="0.331" transform="translate(18.66 7.444)" fill="url(#linear-gradient-10)"/>
      <rect id="Rectangle_2195-4" data-name="Rectangle 2195" width="4.996" height="0.331" transform="translate(18.66 6.022)" fill="url(#linear-gradient-10)"/>
    </g>
    <g id="Group_5369" data-name="Group 5369" transform="translate(57 2091)">
      <g id="Group_4293-5" data-name="Group 4293" transform="translate(0 16.444)">
        <path id="Path_25366-5" data-name="Path 25366" d="M60.149,75.754l-.248-.215,1.969-2.167L56.278,66.01,53.465,67.6l-.165-.3,3.06-1.72L62.3,73.388Z" transform="translate(-52.953 -65.266)" fill="url(#linear-gradient)"/>
        <path id="Path_25367-5" data-name="Path 25367" d="M60.3,76.226l-.612-.546,2-2.2-5.343-7.014L53.5,68.053l-.414-.711,3.474-1.952.132.165,6.071,7.974Z" transform="translate(-53.09 -65.39)" fill="url(#linear-gradient-2)"/>
      </g>
      <g id="Group_4294-5" data-name="Group 4294" transform="translate(8.139 13.746)">
        <path id="Path_25368-5" data-name="Path 25368" d="M58.249,73.631l-.1-.314,1.158-.381H72.36l9.678-7.444a1.591,1.591,0,0,0-.695-1.108,2.44,2.44,0,0,0-2.2.2l-5.277,3.077-.165-.281,5.294-3.094a2.717,2.717,0,0,1,2.515-.182,2.058,2.058,0,0,1,.877,1.456v.083l-.066.05-9.843,7.577H59.341l-1.075.364Z" transform="translate(-57.918 -63.687)" fill="url(#linear-gradient-3)"/>
        <path id="Path_25369-5" data-name="Path 25369" d="M58.225,73.9l-.215-.629,1.357-.447h13l9.562-7.345a1.412,1.412,0,0,0-.6-.893,2.343,2.343,0,0,0-2.051.2l-5.41,3.16-.331-.579,5.443-3.176a2.939,2.939,0,0,1,2.7-.182,2.194,2.194,0,0,1,.959,1.588v.182l-.132.116L72.617,73.5H59.449l-1.208.414Zm1.191-.728H72.5l7.014-5.41L72.5,73.174Zm21.936-8.95s.1.05.149.083a1.791,1.791,0,0,1,.778,1.224v.033a1.789,1.789,0,0,0-.778-1.257c-.05-.033-.1-.05-.149-.083Z" transform="translate(-58.01 -63.759)" fill="url(#linear-gradient-4)"/>
      </g>
      <g id="Group_4295-5" data-name="Group 4295" transform="translate(3.788 13.758)">
        <path id="Path_25370-5" data-name="Path 25370" d="M66.548,69.073v-.331l8.271-.116a.854.854,0,0,0,.132-.711c-.2-.877-1.505-1.654-1.737-1.787h-2.8a5.493,5.493,0,0,1-2.812-.314c0,.017-.033.033-.05.066-.116.116-.232.066-.744-.43l-.926-.893L66.7,65c-1.158-1.141-4.5-.778-4.864-.728L55.7,68.031l-.165-.281,6.237-3.788c.165-.017,4.07-.546,5.31.959.165.2.281.347.364.463a5.552,5.552,0,0,0,2.978.414H73.33l.033.017c.066.033,1.687.91,1.936,2.018a1.243,1.243,0,0,1-.232,1.042l-.05.066h-.083l-8.354.116Z" transform="translate(-55.282 -63.707)" fill="url(#linear-gradient-5)"/>
        <path id="Path_25371-5" data-name="Path 25371" d="M66.48,69.3v-.662l8.338-.116a.693.693,0,0,0,.066-.513c-.165-.778-1.357-1.505-1.621-1.654H70.517a5.6,5.6,0,0,1-2.763-.281c-.265.232-.546-.033-.959-.43l-.959-.926a10.424,10.424,0,0,0-3.855-.2l-6.253,3.821-.347-.562,6.435-3.9c.165-.017,4.152-.562,5.459,1.009.149.182.265.314.347.43a5.348,5.348,0,0,0,2.845.381h2.978l.066.033c.182.1,1.77.993,2.018,2.134a1.424,1.424,0,0,1-.265,1.191l-.1.132H75l-8.52.116Zm.331-.331,6.932-.1-6.931.1Zm8.255-.232a.051.051,0,0,1-.017.033h0s.017,0,.033-.033Zm0,0Zm-19.239-.86.083-.05Zm17.486-1.853H73.4a5.45,5.45,0,0,1,1.588,1.406,5.327,5.327,0,0,0-1.638-1.406H70.484a5.633,5.633,0,0,1-2.878-.364l.033.033h.1a5.031,5.031,0,0,0,2.73.314H73.3Zm-6.3-.629a2.247,2.247,0,0,0,.529.43l.05-.1-.579-.331Zm-.132-.463.017.017h0a.051.051,0,0,1-.033-.017ZM61.9,64.186h0c.083,0,.232-.033.414-.05A3.466,3.466,0,0,0,61.9,64.186Z" transform="translate(-55.38 -63.767)" fill="url(#linear-gradient-6)"/>
      </g>
      <g id="Group_4296-5" data-name="Group 4296" transform="translate(15.417 0.001)">
        <path id="Path_25372-5" data-name="Path 25372" d="M69.259,69.067a6.762,6.762,0,0,1-6.683-5.823h0A6.757,6.757,0,1,1,70.2,69,6.026,6.026,0,0,1,69.259,69.067Zm-6.352-5.873a6.422,6.422,0,1,0,5.476-7.246,6.419,6.419,0,0,0-5.476,7.246h0Z" transform="translate(-62.343 -55.386)" fill="url(#linear-gradient-7)"/>
        <path id="Path_25373-5" data-name="Path 25373" d="M69.325,69.3a6.923,6.923,0,1,1,4.169-12.457A6.923,6.923,0,0,1,70.285,69.23,6.241,6.241,0,0,1,69.325,69.3Zm1.82-.579a5.708,5.708,0,0,1-.893.182c-.066,0-.132.017-.2.017a.806.806,0,0,0,.2-.017A7.105,7.105,0,0,0,71.145,68.717Zm-8.007-5.476a6.263,6.263,0,0,0,12.407-1.72,6.263,6.263,0,1,0-12.407,1.72h0Zm6.187-7.461a6.617,6.617,0,0,1,6.534,5.674,6.439,6.439,0,0,1-.281,3.027,6.459,6.459,0,0,0,.281-3.027A6.549,6.549,0,0,0,73.3,57.1a6.44,6.44,0,0,0-4.864-1.257,5.876,5.876,0,0,0-.778.149,5.876,5.876,0,0,1,.778-.149,8.413,8.413,0,0,1,.91-.066Zm-6.154,4.268a6.6,6.6,0,0,0-.364,3.226,1.49,1.49,0,0,0,.05.265,1.489,1.489,0,0,0-.05-.265h0A6.8,6.8,0,0,1,63.171,60.049Z" transform="translate(-62.409 -55.451)" fill="url(#linear-gradient-8)"/>
      </g>
      <path id="Path_25374-5" data-name="Path 25374" d="M67.948,64.828a2.393,2.393,0,0,1-1.505-.579,4.184,4.184,0,0,1-.463-6.071c1.737-1.621,3.755-.033,3.788,0l-.2.265s-1.82-1.423-3.342,0a3.812,3.812,0,0,0,.463,5.592,2.053,2.053,0,0,0,1.39.48,2.137,2.137,0,0,0,1.472-.86l.248.215a2.42,2.42,0,0,1-1.7.976h-.132Z" transform="translate(-45.383 -54.142)" fill="url(#linear-gradient-9)"/>
      <rect id="Rectangle_2194-5" data-name="Rectangle 2194" width="4.996" height="0.331" transform="translate(18.66 7.444)" fill="url(#linear-gradient-10)"/>
      <rect id="Rectangle_2195-5" data-name="Rectangle 2195" width="4.996" height="0.331" transform="translate(18.66 6.022)" fill="url(#linear-gradient-10)"/>
    </g>
  </g>
</svg>
