<svg xmlns="http://www.w3.org/2000/svg" xmlns:xlink="http://www.w3.org/1999/xlink" width="31.625" height="38.967" viewBox="0 0 31.625 38.967">
  <defs>
    <linearGradient id="linear-gradient" y1="0.5" x2="1" y2="0.5" gradientUnits="objectBoundingBox">
      <stop offset="0" stop-color="#55bf9b"/>
      <stop offset="0.15" stop-color="#2dacb1"/>
      <stop offset="0.4" stop-color="#2986c1"/>
      <stop offset="1" stop-color="#3b67b1"/>
    </linearGradient>
    <linearGradient id="linear-gradient-2" x1="0.001" y1="0.5" x2="1" y2="0.5" xlink:href="#linear-gradient"/>
    <linearGradient id="linear-gradient-3" x1="0.001" y1="0.5" x2="1" y2="0.5" xlink:href="#linear-gradient"/>
    <linearGradient id="linear-gradient-4" x1="0" y1="0.501" x2="1" y2="0.501" xlink:href="#linear-gradient"/>
    <linearGradient id="linear-gradient-5" x1="0" y1="0.499" x2="1" y2="0.499" xlink:href="#linear-gradient"/>
  </defs>
  <g id="Group_5318" data-name="Group 5318" transform="translate(-57.998 -1526)">
    <g id="Group_4317" data-name="Group 4317" transform="translate(-177.832 1430.66)" opacity="0.64">
      <path id="Path_25441" data-name="Path 25441" d="M244.468,106.993l-.256-.14-1.492-1.072,1.189-2.657.676-.956v-.186a3.682,3.682,0,0,1,.7-2.447,3.38,3.38,0,0,1,3.542-1.4h.07a.409.409,0,0,0,.233-.093,2.808,2.808,0,0,1,2.424-.676.3.3,0,0,0,.3-.117l.489.093-.4-.233.093-.14a3.392,3.392,0,1,1,5.453,3.962,4.03,4.03,0,0,1-2.61,1.608.208.208,0,0,0-.186.093,2.837,2.837,0,0,1-.722.676,3.268,3.268,0,0,1-.559,1.305,2.783,2.783,0,0,1-3.752.886l-.093-.07h-.186a1.7,1.7,0,0,1-1.515-.816,3.264,3.264,0,0,1-.956-.023l-.373.513c-1.119,1.585-1.538,1.841-1.841,1.888h-.186Zm-.583-1.515.7.513a9.2,9.2,0,0,0,1.142-1.375l.419-.583a.813.813,0,0,1,.769-.373,2.236,2.236,0,0,0,.862.047.813.813,0,0,1,.862.42.736.736,0,0,0,.769.373h.256a.8.8,0,0,1,.443.163,1.879,1.879,0,0,0,2.564-.559,2.027,2.027,0,0,0,.419-.979l.047-.163a.982.982,0,0,1,.373-.443,1.513,1.513,0,0,0,.443-.419,1.134,1.134,0,0,1,.816-.466,3.068,3.068,0,0,0,1.981-1.235,2.7,2.7,0,0,0-.326-3.752,2.655,2.655,0,0,0-3.612.862,1.849,1.849,0,0,0-.14.233,1.241,1.241,0,0,1-1.282.559,1.9,1.9,0,0,0-1.655.489,1.2,1.2,0,0,1-1.119.28,2.462,2.462,0,0,0-2.564,1.025,2.764,2.764,0,0,0-.536,1.841,1.816,1.816,0,0,1-.14.722l-.676.932-.816,1.888Zm2.867-.932Zm1.049,0Z" transform="translate(9.167 0)" fill="url(#linear-gradient)"/>
      <path id="Path_25442" data-name="Path 25442" d="M261.443,106.239H236.18V100.18h25.263Zm-22.909-2.331h20.6v-1.4h-20.6Z" transform="translate(0.466 6.44)" fill="url(#linear-gradient-2)"/>
      <path id="Path_25443" data-name="Path 25443" d="M259.613,104.409H236.68V100.68h22.933Zm-22.21-.7h21.534v-2.331H237.4Z" transform="translate(1.131 7.105)" fill="url(#linear-gradient-3)"/>
      <path id="Path_25444" data-name="Path 25444" d="M263.936,125.113H235.83v-2.68c0-.186.093-.3.3-.536,3.333-3.8,5.174-10.581,5.36-19.6h.932c-.117,6.456-1.189,15.2-5.593,20.206-.023.047-.07.07-.093.093v1.585H263v-1.212c-1.212-1-7.411-6.875-5.617-20.719l.932.117c-1.888,14.426,5.36,19.949,5.43,20l.186.14v2.61Z" transform="translate(0 9.194)" fill="url(#linear-gradient-4)"/>
      <path id="Path_25445" data-name="Path 25445" d="M240.013,119.238l1.631-6.665H239.92l5.64-8.553-.746,5.523h1.841Z" transform="translate(5.442 11.549)" fill="url(#linear-gradient-5)"/>
    </g>
    <g id="Group_5315" data-name="Group 5315" transform="translate(-177.832 1430.66)" opacity="0.64">
      <path id="Path_25441-2" data-name="Path 25441" d="M244.468,106.993l-.256-.14-1.492-1.072,1.189-2.657.676-.956v-.186a3.682,3.682,0,0,1,.7-2.447,3.38,3.38,0,0,1,3.542-1.4h.07a.409.409,0,0,0,.233-.093,2.808,2.808,0,0,1,2.424-.676.3.3,0,0,0,.3-.117l.489.093-.4-.233.093-.14a3.392,3.392,0,1,1,5.453,3.962,4.03,4.03,0,0,1-2.61,1.608.208.208,0,0,0-.186.093,2.837,2.837,0,0,1-.722.676,3.268,3.268,0,0,1-.559,1.305,2.783,2.783,0,0,1-3.752.886l-.093-.07h-.186a1.7,1.7,0,0,1-1.515-.816,3.264,3.264,0,0,1-.956-.023l-.373.513c-1.119,1.585-1.538,1.841-1.841,1.888h-.186Zm-.583-1.515.7.513a9.2,9.2,0,0,0,1.142-1.375l.419-.583a.813.813,0,0,1,.769-.373,2.236,2.236,0,0,0,.862.047.813.813,0,0,1,.862.42.736.736,0,0,0,.769.373h.256a.8.8,0,0,1,.443.163,1.879,1.879,0,0,0,2.564-.559,2.027,2.027,0,0,0,.419-.979l.047-.163a.982.982,0,0,1,.373-.443,1.513,1.513,0,0,0,.443-.419,1.134,1.134,0,0,1,.816-.466,3.068,3.068,0,0,0,1.981-1.235,2.7,2.7,0,0,0-.326-3.752,2.655,2.655,0,0,0-3.612.862,1.849,1.849,0,0,0-.14.233,1.241,1.241,0,0,1-1.282.559,1.9,1.9,0,0,0-1.655.489,1.2,1.2,0,0,1-1.119.28,2.462,2.462,0,0,0-2.564,1.025,2.764,2.764,0,0,0-.536,1.841,1.816,1.816,0,0,1-.14.722l-.676.932-.816,1.888Zm2.867-.932Zm1.049,0Z" transform="translate(9.167 0)" fill="url(#linear-gradient)"/>
      <path id="Path_25442-2" data-name="Path 25442" d="M261.443,106.239H236.18V100.18h25.263Zm-22.909-2.331h20.6v-1.4h-20.6Z" transform="translate(0.466 6.44)" fill="url(#linear-gradient-2)"/>
      <path id="Path_25443-2" data-name="Path 25443" d="M259.613,104.409H236.68V100.68h22.933Zm-22.21-.7h21.534v-2.331H237.4Z" transform="translate(1.131 7.105)" fill="url(#linear-gradient-3)"/>
      <path id="Path_25444-2" data-name="Path 25444" d="M263.936,125.113H235.83v-2.68c0-.186.093-.3.3-.536,3.333-3.8,5.174-10.581,5.36-19.6h.932c-.117,6.456-1.189,15.2-5.593,20.206-.023.047-.07.07-.093.093v1.585H263v-1.212c-1.212-1-7.411-6.875-5.617-20.719l.932.117c-1.888,14.426,5.36,19.949,5.43,20l.186.14v2.61Z" transform="translate(0 9.194)" fill="url(#linear-gradient-4)"/>
      <path id="Path_25445-2" data-name="Path 25445" d="M240.013,119.238l1.631-6.665H239.92l5.64-8.553-.746,5.523h1.841Z" transform="translate(5.442 11.549)" fill="url(#linear-gradient-5)"/>
    </g>
    <g id="Group_5313" data-name="Group 5313" transform="translate(-177.832 1430.66)" opacity="0.64">
      <path id="Path_25441-3" data-name="Path 25441" d="M244.468,106.993l-.256-.14-1.492-1.072,1.189-2.657.676-.956v-.186a3.682,3.682,0,0,1,.7-2.447,3.38,3.38,0,0,1,3.542-1.4h.07a.409.409,0,0,0,.233-.093,2.808,2.808,0,0,1,2.424-.676.3.3,0,0,0,.3-.117l.489.093-.4-.233.093-.14a3.392,3.392,0,1,1,5.453,3.962,4.03,4.03,0,0,1-2.61,1.608.208.208,0,0,0-.186.093,2.837,2.837,0,0,1-.722.676,3.268,3.268,0,0,1-.559,1.305,2.783,2.783,0,0,1-3.752.886l-.093-.07h-.186a1.7,1.7,0,0,1-1.515-.816,3.264,3.264,0,0,1-.956-.023l-.373.513c-1.119,1.585-1.538,1.841-1.841,1.888h-.186Zm-.583-1.515.7.513a9.2,9.2,0,0,0,1.142-1.375l.419-.583a.813.813,0,0,1,.769-.373,2.236,2.236,0,0,0,.862.047.813.813,0,0,1,.862.42.736.736,0,0,0,.769.373h.256a.8.8,0,0,1,.443.163,1.879,1.879,0,0,0,2.564-.559,2.027,2.027,0,0,0,.419-.979l.047-.163a.982.982,0,0,1,.373-.443,1.513,1.513,0,0,0,.443-.419,1.134,1.134,0,0,1,.816-.466,3.068,3.068,0,0,0,1.981-1.235,2.7,2.7,0,0,0-.326-3.752,2.655,2.655,0,0,0-3.612.862,1.849,1.849,0,0,0-.14.233,1.241,1.241,0,0,1-1.282.559,1.9,1.9,0,0,0-1.655.489,1.2,1.2,0,0,1-1.119.28,2.462,2.462,0,0,0-2.564,1.025,2.764,2.764,0,0,0-.536,1.841,1.816,1.816,0,0,1-.14.722l-.676.932-.816,1.888Zm2.867-.932Zm1.049,0Z" transform="translate(9.167 0)" fill="url(#linear-gradient)"/>
      <path id="Path_25442-3" data-name="Path 25442" d="M261.443,106.239H236.18V100.18h25.263Zm-22.909-2.331h20.6v-1.4h-20.6Z" transform="translate(0.466 6.44)" fill="url(#linear-gradient-2)"/>
      <path id="Path_25443-3" data-name="Path 25443" d="M259.613,104.409H236.68V100.68h22.933Zm-22.21-.7h21.534v-2.331H237.4Z" transform="translate(1.131 7.105)" fill="url(#linear-gradient-3)"/>
      <path id="Path_25444-3" data-name="Path 25444" d="M263.936,125.113H235.83v-2.68c0-.186.093-.3.3-.536,3.333-3.8,5.174-10.581,5.36-19.6h.932c-.117,6.456-1.189,15.2-5.593,20.206-.023.047-.07.07-.093.093v1.585H263v-1.212c-1.212-1-7.411-6.875-5.617-20.719l.932.117c-1.888,14.426,5.36,19.949,5.43,20l.186.14v2.61Z" transform="translate(0 9.194)" fill="url(#linear-gradient-4)"/>
      <path id="Path_25445-3" data-name="Path 25445" d="M240.013,119.238l1.631-6.665H239.92l5.64-8.553-.746,5.523h1.841Z" transform="translate(5.442 11.549)" fill="url(#linear-gradient-5)"/>
    </g>
    <g id="Group_5316" data-name="Group 5316" transform="translate(-177.832 1430.66)" opacity="0.64">
      <path id="Path_25441-4" data-name="Path 25441" d="M244.468,106.993l-.256-.14-1.492-1.072,1.189-2.657.676-.956v-.186a3.682,3.682,0,0,1,.7-2.447,3.38,3.38,0,0,1,3.542-1.4h.07a.409.409,0,0,0,.233-.093,2.808,2.808,0,0,1,2.424-.676.3.3,0,0,0,.3-.117l.489.093-.4-.233.093-.14a3.392,3.392,0,1,1,5.453,3.962,4.03,4.03,0,0,1-2.61,1.608.208.208,0,0,0-.186.093,2.837,2.837,0,0,1-.722.676,3.268,3.268,0,0,1-.559,1.305,2.783,2.783,0,0,1-3.752.886l-.093-.07h-.186a1.7,1.7,0,0,1-1.515-.816,3.264,3.264,0,0,1-.956-.023l-.373.513c-1.119,1.585-1.538,1.841-1.841,1.888h-.186Zm-.583-1.515.7.513a9.2,9.2,0,0,0,1.142-1.375l.419-.583a.813.813,0,0,1,.769-.373,2.236,2.236,0,0,0,.862.047.813.813,0,0,1,.862.42.736.736,0,0,0,.769.373h.256a.8.8,0,0,1,.443.163,1.879,1.879,0,0,0,2.564-.559,2.027,2.027,0,0,0,.419-.979l.047-.163a.982.982,0,0,1,.373-.443,1.513,1.513,0,0,0,.443-.419,1.134,1.134,0,0,1,.816-.466,3.068,3.068,0,0,0,1.981-1.235,2.7,2.7,0,0,0-.326-3.752,2.655,2.655,0,0,0-3.612.862,1.849,1.849,0,0,0-.14.233,1.241,1.241,0,0,1-1.282.559,1.9,1.9,0,0,0-1.655.489,1.2,1.2,0,0,1-1.119.28,2.462,2.462,0,0,0-2.564,1.025,2.764,2.764,0,0,0-.536,1.841,1.816,1.816,0,0,1-.14.722l-.676.932-.816,1.888Zm2.867-.932Zm1.049,0Z" transform="translate(9.167 0)" fill="url(#linear-gradient)"/>
      <path id="Path_25442-4" data-name="Path 25442" d="M261.443,106.239H236.18V100.18h25.263Zm-22.909-2.331h20.6v-1.4h-20.6Z" transform="translate(0.466 6.44)" fill="url(#linear-gradient-2)"/>
      <path id="Path_25443-4" data-name="Path 25443" d="M259.613,104.409H236.68V100.68h22.933Zm-22.21-.7h21.534v-2.331H237.4Z" transform="translate(1.131 7.105)" fill="url(#linear-gradient-3)"/>
      <path id="Path_25444-4" data-name="Path 25444" d="M263.936,125.113H235.83v-2.68c0-.186.093-.3.3-.536,3.333-3.8,5.174-10.581,5.36-19.6h.932c-.117,6.456-1.189,15.2-5.593,20.206-.023.047-.07.07-.093.093v1.585H263v-1.212c-1.212-1-7.411-6.875-5.617-20.719l.932.117c-1.888,14.426,5.36,19.949,5.43,20l.186.14v2.61Z" transform="translate(0 9.194)" fill="url(#linear-gradient-4)"/>
      <path id="Path_25445-4" data-name="Path 25445" d="M240.013,119.238l1.631-6.665H239.92l5.64-8.553-.746,5.523h1.841Z" transform="translate(5.442 11.549)" fill="url(#linear-gradient-5)"/>
    </g>
    <g id="Group_5314" data-name="Group 5314" transform="translate(-177.832 1430.66)" opacity="0.64">
      <path id="Path_25441-5" data-name="Path 25441" d="M244.468,106.993l-.256-.14-1.492-1.072,1.189-2.657.676-.956v-.186a3.682,3.682,0,0,1,.7-2.447,3.38,3.38,0,0,1,3.542-1.4h.07a.409.409,0,0,0,.233-.093,2.808,2.808,0,0,1,2.424-.676.3.3,0,0,0,.3-.117l.489.093-.4-.233.093-.14a3.392,3.392,0,1,1,5.453,3.962,4.03,4.03,0,0,1-2.61,1.608.208.208,0,0,0-.186.093,2.837,2.837,0,0,1-.722.676,3.268,3.268,0,0,1-.559,1.305,2.783,2.783,0,0,1-3.752.886l-.093-.07h-.186a1.7,1.7,0,0,1-1.515-.816,3.264,3.264,0,0,1-.956-.023l-.373.513c-1.119,1.585-1.538,1.841-1.841,1.888h-.186Zm-.583-1.515.7.513a9.2,9.2,0,0,0,1.142-1.375l.419-.583a.813.813,0,0,1,.769-.373,2.236,2.236,0,0,0,.862.047.813.813,0,0,1,.862.42.736.736,0,0,0,.769.373h.256a.8.8,0,0,1,.443.163,1.879,1.879,0,0,0,2.564-.559,2.027,2.027,0,0,0,.419-.979l.047-.163a.982.982,0,0,1,.373-.443,1.513,1.513,0,0,0,.443-.419,1.134,1.134,0,0,1,.816-.466,3.068,3.068,0,0,0,1.981-1.235,2.7,2.7,0,0,0-.326-3.752,2.655,2.655,0,0,0-3.612.862,1.849,1.849,0,0,0-.14.233,1.241,1.241,0,0,1-1.282.559,1.9,1.9,0,0,0-1.655.489,1.2,1.2,0,0,1-1.119.28,2.462,2.462,0,0,0-2.564,1.025,2.764,2.764,0,0,0-.536,1.841,1.816,1.816,0,0,1-.14.722l-.676.932-.816,1.888Zm2.867-.932Zm1.049,0Z" transform="translate(9.167 0)" fill="url(#linear-gradient)"/>
      <path id="Path_25442-5" data-name="Path 25442" d="M261.443,106.239H236.18V100.18h25.263Zm-22.909-2.331h20.6v-1.4h-20.6Z" transform="translate(0.466 6.44)" fill="url(#linear-gradient-2)"/>
      <path id="Path_25443-5" data-name="Path 25443" d="M259.613,104.409H236.68V100.68h22.933Zm-22.21-.7h21.534v-2.331H237.4Z" transform="translate(1.131 7.105)" fill="url(#linear-gradient-3)"/>
      <path id="Path_25444-5" data-name="Path 25444" d="M263.936,125.113H235.83v-2.68c0-.186.093-.3.3-.536,3.333-3.8,5.174-10.581,5.36-19.6h.932c-.117,6.456-1.189,15.2-5.593,20.206-.023.047-.07.07-.093.093v1.585H263v-1.212c-1.212-1-7.411-6.875-5.617-20.719l.932.117c-1.888,14.426,5.36,19.949,5.43,20l.186.14v2.61Z" transform="translate(0 9.194)" fill="url(#linear-gradient-4)"/>
      <path id="Path_25445-5" data-name="Path 25445" d="M240.013,119.238l1.631-6.665H239.92l5.64-8.553-.746,5.523h1.841Z" transform="translate(5.442 11.549)" fill="url(#linear-gradient-5)"/>
    </g>
    <g id="Group_5317" data-name="Group 5317" transform="translate(-177.832 1430.66)" opacity="0.64">
      <path id="Path_25441-6" data-name="Path 25441" d="M244.468,106.993l-.256-.14-1.492-1.072,1.189-2.657.676-.956v-.186a3.682,3.682,0,0,1,.7-2.447,3.38,3.38,0,0,1,3.542-1.4h.07a.409.409,0,0,0,.233-.093,2.808,2.808,0,0,1,2.424-.676.3.3,0,0,0,.3-.117l.489.093-.4-.233.093-.14a3.392,3.392,0,1,1,5.453,3.962,4.03,4.03,0,0,1-2.61,1.608.208.208,0,0,0-.186.093,2.837,2.837,0,0,1-.722.676,3.268,3.268,0,0,1-.559,1.305,2.783,2.783,0,0,1-3.752.886l-.093-.07h-.186a1.7,1.7,0,0,1-1.515-.816,3.264,3.264,0,0,1-.956-.023l-.373.513c-1.119,1.585-1.538,1.841-1.841,1.888h-.186Zm-.583-1.515.7.513a9.2,9.2,0,0,0,1.142-1.375l.419-.583a.813.813,0,0,1,.769-.373,2.236,2.236,0,0,0,.862.047.813.813,0,0,1,.862.42.736.736,0,0,0,.769.373h.256a.8.8,0,0,1,.443.163,1.879,1.879,0,0,0,2.564-.559,2.027,2.027,0,0,0,.419-.979l.047-.163a.982.982,0,0,1,.373-.443,1.513,1.513,0,0,0,.443-.419,1.134,1.134,0,0,1,.816-.466,3.068,3.068,0,0,0,1.981-1.235,2.7,2.7,0,0,0-.326-3.752,2.655,2.655,0,0,0-3.612.862,1.849,1.849,0,0,0-.14.233,1.241,1.241,0,0,1-1.282.559,1.9,1.9,0,0,0-1.655.489,1.2,1.2,0,0,1-1.119.28,2.462,2.462,0,0,0-2.564,1.025,2.764,2.764,0,0,0-.536,1.841,1.816,1.816,0,0,1-.14.722l-.676.932-.816,1.888Zm2.867-.932Zm1.049,0Z" transform="translate(9.167 0)" fill="url(#linear-gradient)"/>
      <path id="Path_25442-6" data-name="Path 25442" d="M261.443,106.239H236.18V100.18h25.263Zm-22.909-2.331h20.6v-1.4h-20.6Z" transform="translate(0.466 6.44)" fill="url(#linear-gradient-2)"/>
      <path id="Path_25443-6" data-name="Path 25443" d="M259.613,104.409H236.68V100.68h22.933Zm-22.21-.7h21.534v-2.331H237.4Z" transform="translate(1.131 7.105)" fill="url(#linear-gradient-3)"/>
      <path id="Path_25444-6" data-name="Path 25444" d="M263.936,125.113H235.83v-2.68c0-.186.093-.3.3-.536,3.333-3.8,5.174-10.581,5.36-19.6h.932c-.117,6.456-1.189,15.2-5.593,20.206-.023.047-.07.07-.093.093v1.585H263v-1.212c-1.212-1-7.411-6.875-5.617-20.719l.932.117c-1.888,14.426,5.36,19.949,5.43,20l.186.14v2.61Z" transform="translate(0 9.194)" fill="url(#linear-gradient-4)"/>
      <path id="Path_25445-6" data-name="Path 25445" d="M240.013,119.238l1.631-6.665H239.92l5.64-8.553-.746,5.523h1.841Z" transform="translate(5.442 11.549)" fill="url(#linear-gradient-5)"/>
    </g>
  </g>
</svg>
