<svg xmlns="http://www.w3.org/2000/svg" xmlns:xlink="http://www.w3.org/1999/xlink" width="36.535" height="31" viewBox="0 0 36.535 31">
  <defs>
    <linearGradient id="linear-gradient" x1="-53.61" y1="375.286" x2="-53.61" y2="374.711" gradientUnits="objectBoundingBox">
      <stop offset="0" stop-color="#55bf9b"/>
      <stop offset="0.19" stop-color="#2dacb1"/>
      <stop offset="0.49" stop-color="#2986c1"/>
      <stop offset="1" stop-color="#3b67b1"/>
    </linearGradient>
    <linearGradient id="linear-gradient-2" x1="-47.908" y1="375.286" x2="-47.908" y2="374.711" xlink:href="#linear-gradient"/>
    <linearGradient id="linear-gradient-3" x1="-10.149" y1="78.783" x2="-10.149" y2="78.672" xlink:href="#linear-gradient"/>
    <linearGradient id="linear-gradient-4" x1="-31.577" y1="269.011" x2="-31.577" y2="268.614" xlink:href="#linear-gradient"/>
    <linearGradient id="linear-gradient-5" x1="-33.554" y1="267.968" x2="-33.554" y2="267.573" xlink:href="#linear-gradient"/>
    <linearGradient id="linear-gradient-6" x1="0" y1="0.5" x2="0.999" y2="0.5" xlink:href="#linear-gradient"/>
  </defs>
  <g id="Group_4318" data-name="Group 4318" transform="translate(-20898.459 17084.406)" opacity="0.64">
    <g id="Group_3762" data-name="Group 3762" transform="translate(20898.459 -17084.406)">
      <g id="Layer_25" data-name="Layer 25" transform="translate(3.523 13.828)">
        <g id="Group_3749" data-name="Group 3749">
          <path id="Path_24638" data-name="Path 24638" d="M197.285,113.07a1.627,1.627,0,1,1-.057,0h.038Zm0,2.169a.514.514,0,1,0-.514-.514h0A.512.512,0,0,0,197.285,115.239Z" transform="translate(-170.286 -101.254)" fill="url(#linear-gradient)"/>
          <path id="Path_24639" data-name="Path 24639" d="M187.365,113.07a1.627,1.627,0,1,1-.057,0h.038Zm0,2.169a.514.514,0,1,0-.514-.514h0A.512.512,0,0,0,187.365,115.239Z" transform="translate(-179.241 -101.254)" fill="url(#linear-gradient-2)"/>
          <path id="Path_24640" data-name="Path 24640" d="M183.718,111.807h.3a6.421,6.421,0,0,1,6.184-4.947h11.7c3.1,0,5.784,4.7,6.45,5.994h2.987a3.975,3.975,0,0,1,3.977,3.977v2.892a1.145,1.145,0,0,1-1.142,1.142H213a3.757,3.757,0,0,1-7.421,0H194.126a3.757,3.757,0,0,1-7.421,0h-1.6a1.145,1.145,0,0,1-1.142-1.142h0V117.04H183.7a1.385,1.385,0,0,1-1.389-1.389h0v-2.416a1.381,1.381,0,0,1,1.37-1.389h0ZM209.31,122.9a2.635,2.635,0,1,0-2.626-2.645h0a2.6,2.6,0,0,0,2.588,2.626h.038Zm-18.875,0a2.626,2.626,0,1,0-2.626-2.626h0a2.627,2.627,0,0,0,2.588,2.645h.057Zm-5.309-3.14h1.6a3.757,3.757,0,0,1,7.421,0H205.6a3.757,3.757,0,0,1,7.421,0h1.18v-2.892a2.842,2.842,0,0,0-2.835-2.835h-3.273a.577.577,0,0,1-.514-.3c-.78-1.6-3.292-5.67-5.613-5.67H190.3a5.158,5.158,0,0,0-5.1,4.376v7.326h-.057Zm-1.655-4.129a.267.267,0,0,0,.228.266h.285v-2.949h-.266a.267.267,0,0,0-.266.228v2.454Z" transform="translate(-182.31 -106.86)" fill="url(#linear-gradient-3)"/>
          <path id="Path_24641" data-name="Path 24641" d="M190.2,108.11h3.825a4.4,4.4,0,0,1,3.71,1.96l1.294,1.96a.607.607,0,0,1,0,.571.577.577,0,0,1-.514.3h-8.3a.561.561,0,0,1-.571-.571v-3.653a.561.561,0,0,1,.571-.571h0Zm.571,3.653h6.7l-.723-1.085a3.275,3.275,0,0,0-2.74-1.446h-3.254v2.531Z" transform="translate(-175.684 -105.732)" fill="url(#linear-gradient-4)"/>
          <path id="Path_24642" data-name="Path 24642" d="M189.12,108.119h3.254a.561.561,0,0,1,.571.571v3.653a.561.561,0,0,1-.571.571H185.2a.561.561,0,0,1-.571-.571,4.312,4.312,0,0,1,4.376-4.243h.1Zm2.626,3.653v-2.512h-2.683a3.255,3.255,0,0,0-3.292,2.531h5.975Z" transform="translate(-180.216 -105.741)" fill="url(#linear-gradient-5)"/>
        </g>
      </g>
      <path id="Path_25440" data-name="Path 25440" d="M184.343,118.634h-2.036l-.7-3.235v-1.332a1.443,1.443,0,0,0-.152-.285,4.2,4.2,0,0,1-.989-2.721,3.834,3.834,0,0,1,2.321-3.653h.076a.854.854,0,0,0,.247-.419,3.136,3.136,0,0,1,1.751-2.226.5.5,0,0,0,.285-.495v-.381a3.823,3.823,0,0,1,3.311-4.262,3.832,3.832,0,0,1,4.3,3.311,5.8,5.8,0,0,1-1.313,4.205.469.469,0,0,0-.171.362,3.051,3.051,0,0,1-.209,1.085v.057l.019.1a3.555,3.555,0,0,1,.342,1.522,3.124,3.124,0,0,1-2.816,3.273h-.114a.938.938,0,0,0-.171.076l-.038.038a1.864,1.864,0,0,1-2.017.3l-.114.057a2.913,2.913,0,0,1-1.027.666l.038.8v.209c0,1.693-.114,2.474-.4,2.778a.479.479,0,0,1-.381.171Zm-1.427-.761h1.294a6.882,6.882,0,0,0,.152-2.169v-.932a.8.8,0,0,1,.381-.742,2.447,2.447,0,0,0,.875-.59l.076-.057a.739.739,0,0,1,.837-.1,1.08,1.08,0,0,0,1.2-.209l.133-.1a1.049,1.049,0,0,1,.552-.19h.1A2.356,2.356,0,0,0,190.6,110.3a2.757,2.757,0,0,0-.3-1.294l-.057-.1v-.057a.838.838,0,0,1,.038-.571,2.188,2.188,0,0,0,.152-.78,1.216,1.216,0,0,1,.419-.913,3.752,3.752,0,0,0,1.085-2.683,3.217,3.217,0,0,0,0-.856,3.081,3.081,0,0,0-6.108.818v.152a1.478,1.478,0,0,1,.019.171,1.294,1.294,0,0,1-.723,1.275,2.4,2.4,0,0,0-1.332,1.712c-.228.7-.609.894-.78.932a3.065,3.065,0,0,0-1.827,2.93,3.52,3.52,0,0,0,.8,2.245,1.47,1.47,0,0,1,.323.723v1.313l.571,2.55Z" transform="translate(-180.459 -99.592)" fill="url(#linear-gradient-6)"/>
    </g>
  </g>
</svg>
