<svg xmlns="http://www.w3.org/2000/svg" xmlns:xlink="http://www.w3.org/1999/xlink" width="36.535" height="32.207" viewBox="0 0 36.535 32.207">
  <defs>
    <linearGradient id="linear-gradient" x1="0.504" y1="1.014" x2="0.47" y2="-0.033" gradientUnits="objectBoundingBox">
      <stop offset="0" stop-color="#55bf9b"/>
      <stop offset="0.33" stop-color="#2dacb1"/>
      <stop offset="0.74" stop-color="#2986c1"/>
      <stop offset="1" stop-color="#3b67b1"/>
    </linearGradient>
    <linearGradient id="linear-gradient-2" y1="0.5" x2="1" y2="0.5" gradientUnits="objectBoundingBox">
      <stop offset="0" stop-color="#55bf9b"/>
      <stop offset="0.15" stop-color="#2dacb1"/>
      <stop offset="0.4" stop-color="#2986c1"/>
      <stop offset="1" stop-color="#3b67b1"/>
    </linearGradient>
    <linearGradient id="linear-gradient-3" x1="0.519" y1="1.039" x2="0.486" y2="-0.039" xlink:href="#linear-gradient"/>
    <linearGradient id="linear-gradient-4" x1="0" y1="0.5" x2="1" y2="0.5" xlink:href="#linear-gradient-2"/>
    <linearGradient id="linear-gradient-5" x1="0.514" y1="1.039" x2="0.481" y2="-0.039" xlink:href="#linear-gradient"/>
    <linearGradient id="linear-gradient-6" x1="-0.004" y1="0.5" x2="1" y2="0.5" xlink:href="#linear-gradient-2"/>
    <linearGradient id="linear-gradient-7" x1="0.519" y1="1.039" x2="0.486" y2="-0.047" xlink:href="#linear-gradient"/>
    <linearGradient id="linear-gradient-9" x1="0.514" y1="1.039" x2="0.481" y2="-0.047" xlink:href="#linear-gradient"/>
    <linearGradient id="linear-gradient-19" x1="0.509" y1="1.075" x2="0.491" y2="-0.075" xlink:href="#linear-gradient"/>
    <linearGradient id="linear-gradient-20" x1="-0.003" y1="0.504" x2="1" y2="0.504" xlink:href="#linear-gradient-2"/>
    <linearGradient id="linear-gradient-21" x1="0.509" y1="1.075" x2="0.491" y2="-0.075" xlink:href="#linear-gradient"/>
    <linearGradient id="linear-gradient-22" x1="0" y1="0.504" x2="1" y2="0.504" xlink:href="#linear-gradient-2"/>
    <linearGradient id="linear-gradient-25" x1="0.509" y1="1.075" x2="0.491" y2="-0.065" xlink:href="#linear-gradient"/>
    <linearGradient id="linear-gradient-27" x1="0.512" y1="1.075" x2="0.491" y2="-0.065" xlink:href="#linear-gradient"/>
    <linearGradient id="linear-gradient-28" x1="0.003" y1="0.504" x2="1" y2="0.504" xlink:href="#linear-gradient-2"/>
    <linearGradient id="linear-gradient-29" x1="0.509" y1="1.075" x2="0.491" y2="-0.065" xlink:href="#linear-gradient"/>
    <linearGradient id="linear-gradient-31" x1="0.505" y1="1.047" x2="0.478" y2="-0.05" xlink:href="#linear-gradient"/>
    <linearGradient id="linear-gradient-32" x1="0.001" y1="0.501" x2="1" y2="0.501" xlink:href="#linear-gradient-2"/>
    <linearGradient id="linear-gradient-33" x1="0.512" y1="1.028" x2="0.465" y2="-0.028" xlink:href="#linear-gradient"/>
    <linearGradient id="linear-gradient-34" x1="0" y1="0.497" x2="1" y2="0.497" xlink:href="#linear-gradient-2"/>
    <linearGradient id="linear-gradient-36" x1="0.525" y1="1" x2="0.475" y2="0.005" xlink:href="#linear-gradient"/>
    <linearGradient id="linear-gradient-37" x1="0" y1="0.5" x2="0.996" y2="0.5" xlink:href="#linear-gradient-2"/>
    <linearGradient id="linear-gradient-38" x1="0" y1="0.5" x2="0.995" y2="0.5" xlink:href="#linear-gradient-2"/>
    <linearGradient id="linear-gradient-39" x1="0.52" y1="1" x2="0.475" y2="0.005" xlink:href="#linear-gradient"/>
    <linearGradient id="linear-gradient-41" x1="0.519" y1="0.975" x2="0.479" y2="0.025" xlink:href="#linear-gradient"/>
    <linearGradient id="linear-gradient-42" x1="0" y1="0.5" x2="0.998" y2="0.5" xlink:href="#linear-gradient-2"/>
    <linearGradient id="linear-gradient-43" x1="0.516" y1="0.97" x2="0.486" y2="0.03" xlink:href="#linear-gradient"/>
  </defs>
  <g id="Group_4267" data-name="Group 4267" transform="translate(-16.59 -48.92)" opacity="0.81">
    <g id="Group_4244" data-name="Group 4244" transform="translate(16.59 55.6)">
      <path id="Path_25287" data-name="Path 25287" d="M37.574,74.333h-.063L16.74,74.308V69.59h.679l-.025-15.21h2.353v2.227h.063l2.629.113v1.862l2.239.1v.063l-.025,1.774,5.221.075-.075-1.56h.075l5.36.679V59.1h.075l5.473,1.258.038-1.233H40.9l5.372,1.308v.05l.075,9.222h.679v1.434H46.96L37.587,70.9v3.409Zm-20.721-.151,20.582.025V70.8H37.5l9.373.239V69.855h-.679v-.063l-.075-9.234-5.2-1.258-.176,5.246h-.126l.025-4.064-5.3-1.208v5.3h-.126L35.2,59.853l-5.271-.667L30,60.721h-.063l-5.41-.075v-.063l.025-1.774-2.114-.1-.05,11h-.126l.05-12.87-2.441-.1-.1,13h-.126l-.025-15.223h-2.1l.025,15.21h-.679v4.466Z" transform="translate(-16.551 -54.191)" fill="url(#linear-gradient)"/>
      <path id="Path_25288" data-name="Path 25288" d="M37.8,74.561H37.55l-20.96-.025v-5.1h.679l-.025-15.21h2.73v2.227l2.7.113v1.862l2.227.1-.025,1.824,4.831.075-.075-1.573,5.435.692V58.91l5.548,1.258.038-1.233,5.812,1.4v.2l.075,9.033h.679V71.39H46.96l-9.184-.239v3.409Zm-20.721-.528,20.205.025V70.648h.264l9.184.239v-.805h-.679V69.83l-.075-9.083-4.831-1.17-.176,5.2h-.5l.025-4.114-4.919-1.12v5.246h-.5l-.025-4.743-4.881-.616.075,1.51-5.875-.088.025-1.837-1.736-.088L22.6,69.906h-.5l.05-12.87-2.063-.088-.1,12.984h-.5v-.189l-.025-15.034H17.735l.025,15.21h-.679v4.089Z" transform="translate(-16.59 -54.23)" fill="url(#linear-gradient-2)"/>
    </g>
    <g id="Group_4245" data-name="Group 4245" transform="translate(23.774 62.696)">
      <path id="Path_25289" data-name="Path 25289" d="M25.042,61.53H22.35V59.92h2.692Zm-2.554-.176H24.9V60.084H22.488Z" transform="translate(-22.287 -59.857)" fill="url(#linear-gradient-3)"/>
      <path id="Path_25290" data-name="Path 25290" d="M25.118,61.606H22.3V59.87h2.818Zm-2.692-.126h2.567V60H22.426V61.48Zm2.554-.05H22.438v-1.4H24.98ZM22.564,61.3h2.29V60.159h-2.29Z" transform="translate(-22.3 -59.87)" fill="url(#linear-gradient-4)"/>
    </g>
    <g id="Group_4246" data-name="Group 4246" transform="translate(26.843 62.696)">
      <path id="Path_25291" data-name="Path 25291" d="M27.482,61.53H24.79V59.92h2.692Zm-2.554-.176h2.416V60.084H24.928Z" transform="translate(-24.727 -59.857)" fill="url(#linear-gradient-5)"/>
      <path id="Path_25292" data-name="Path 25292" d="M27.558,61.606H24.74V59.87h2.818Zm-2.7-.126H27.42V60H24.853Zm2.554-.05H24.866v-1.4h2.541ZM25,61.3h2.29V60.159H25Z" transform="translate(-24.74 -59.87)" fill="url(#linear-gradient-6)"/>
    </g>
    <g id="Group_4247" data-name="Group 4247" transform="translate(23.774 64.797)">
      <path id="Path_25293" data-name="Path 25293" d="M25.042,63.2H22.35V61.59h2.692Zm-2.554-.176H24.9V61.754H22.488Z" transform="translate(-22.287 -61.527)" fill="url(#linear-gradient-7)"/>
      <path id="Path_25294" data-name="Path 25294" d="M25.118,63.276H22.3V61.54h2.818Zm-2.692-.126h2.567V61.666H22.426V63.15Zm2.554-.05H22.438V61.7H24.98Zm-2.416-.126h2.29V61.829h-2.29Z" transform="translate(-22.3 -61.54)" fill="url(#linear-gradient-4)"/>
    </g>
    <g id="Group_4248" data-name="Group 4248" transform="translate(26.843 64.797)">
      <path id="Path_25295" data-name="Path 25295" d="M27.482,63.2H24.79V61.59h2.692Zm-2.554-.176h2.416V61.754H24.928Z" transform="translate(-24.727 -61.527)" fill="url(#linear-gradient-9)"/>
      <path id="Path_25296" data-name="Path 25296" d="M27.558,63.276H24.74V61.54h2.818Zm-2.7-.126H27.42V61.666H24.853Zm2.554-.05H24.866V61.7h2.541ZM25,62.974h2.29V61.829H25Z" transform="translate(-24.74 -61.54)" fill="url(#linear-gradient-6)"/>
    </g>
    <g id="Group_4249" data-name="Group 4249" transform="translate(23.774 66.936)">
      <path id="Path_25297" data-name="Path 25297" d="M25.042,64.9H22.35V63.29h2.692Zm-2.554-.176H24.9V63.454H22.488Z" transform="translate(-22.287 -63.227)" fill="url(#linear-gradient-3)"/>
      <path id="Path_25298" data-name="Path 25298" d="M25.118,64.976H22.3V63.24h2.818Zm-2.692-.126h2.567V63.366H22.426V64.85Zm2.554-.05H22.438V63.4H24.98Zm-2.416-.126h2.29V63.529h-2.29Z" transform="translate(-22.3 -63.24)" fill="url(#linear-gradient-4)"/>
    </g>
    <g id="Group_4250" data-name="Group 4250" transform="translate(26.843 66.936)">
      <path id="Path_25299" data-name="Path 25299" d="M27.482,64.9H24.79V63.29h2.692Zm-2.554-.176h2.416V63.454H24.928Z" transform="translate(-24.727 -63.227)" fill="url(#linear-gradient-5)"/>
      <path id="Path_25300" data-name="Path 25300" d="M27.558,64.976H24.74V63.24h2.818Zm-2.7-.126H27.42V63.366H24.853Zm2.554-.05H24.866V63.4h2.541ZM25,64.674h2.29V63.529H25Z" transform="translate(-24.74 -63.24)" fill="url(#linear-gradient-6)"/>
    </g>
    <g id="Group_4251" data-name="Group 4251" transform="translate(23.774 69.138)">
      <path id="Path_25301" data-name="Path 25301" d="M25.042,66.65H22.35V65.04h2.692Zm-2.554-.176H24.9V65.2H22.488Z" transform="translate(-22.287 -64.977)" fill="url(#linear-gradient-7)"/>
      <path id="Path_25302" data-name="Path 25302" d="M25.118,66.726H22.3V64.99h2.818ZM22.426,66.6h2.567V65.116H22.426V66.6Zm2.554-.05H22.438v-1.4H24.98Zm-2.416-.126h2.29V65.279h-2.29Z" transform="translate(-22.3 -64.99)" fill="url(#linear-gradient-4)"/>
    </g>
    <g id="Group_4252" data-name="Group 4252" transform="translate(26.843 69.138)">
      <path id="Path_25303" data-name="Path 25303" d="M27.482,66.65H24.79V65.04h2.692Zm-2.554-.176h2.416V65.2H24.928Z" transform="translate(-24.727 -64.977)" fill="url(#linear-gradient-9)"/>
      <path id="Path_25304" data-name="Path 25304" d="M27.558,66.726H24.74V64.99h2.818Zm-2.7-.126H27.42V65.116H24.853Zm2.554-.05H24.866v-1.4h2.541ZM25,66.424h2.29V65.279H25Z" transform="translate(-24.74 -64.99)" fill="url(#linear-gradient-6)"/>
    </g>
    <g id="Group_4253" data-name="Group 4253" transform="translate(31.385 67.729)">
      <path id="Path_25305" data-name="Path 25305" d="M32.086,65.19H28.5V64.02h3.586Zm-3.472-.126H31.96v-.918H28.613Z" transform="translate(-28.311 -63.831)" fill="url(#linear-gradient-19)"/>
      <path id="Path_25306" data-name="Path 25306" d="M32.313,65.417H28.35V63.87h3.963Zm-3.472-.5H31.81v-.541H28.841Z" transform="translate(-28.35 -63.87)" fill="url(#linear-gradient-20)"/>
    </g>
    <g id="Group_4254" data-name="Group 4254" transform="translate(35.6 67.729)">
      <path id="Path_25307" data-name="Path 25307" d="M35.511,65.19H31.85V64.02h3.661Zm-3.535-.126h3.409v-.918H31.976Z" transform="translate(-31.661 -63.831)" fill="url(#linear-gradient-21)"/>
      <path id="Path_25308" data-name="Path 25308" d="M35.738,65.417H31.7V63.87h4.038Zm-3.535-.5h3.032v-.541H32.2Z" transform="translate(-31.7 -63.87)" fill="url(#linear-gradient-22)"/>
    </g>
    <g id="Group_4255" data-name="Group 4255" transform="translate(39.814 67.729)">
      <path id="Path_25309" data-name="Path 25309" d="M38.861,65.19H35.2V64.02h3.661Zm-3.535-.126h3.409v-.918H35.326Z" transform="translate(-35.011 -63.831)" fill="url(#linear-gradient-21)"/>
      <path id="Path_25310" data-name="Path 25310" d="M39.088,65.417H35.05V63.87h4.038Zm-3.535-.5h3.032v-.541H35.553Z" transform="translate(-35.05 -63.87)" fill="url(#linear-gradient-22)"/>
    </g>
    <g id="Group_4256" data-name="Group 4256" transform="translate(31.385 70.031)">
      <path id="Path_25311" data-name="Path 25311" d="M32.086,67.02H28.5V65.85h3.586Zm-3.46-.126h3.347v-.918H28.626Z" transform="translate(-28.311 -65.661)" fill="url(#linear-gradient-25)"/>
      <path id="Path_25312" data-name="Path 25312" d="M32.313,67.247H28.35V65.7h3.963Zm-3.46-.5h2.969V66.2H28.853Z" transform="translate(-28.35 -65.7)" fill="url(#linear-gradient-22)"/>
    </g>
    <g id="Group_4257" data-name="Group 4257" transform="translate(35.6 70.031)">
      <path id="Path_25313" data-name="Path 25313" d="M35.511,67.02H31.85V65.85h3.661Zm-3.535-.126h3.409v-.918H31.976Z" transform="translate(-31.661 -65.661)" fill="url(#linear-gradient-27)"/>
      <path id="Path_25314" data-name="Path 25314" d="M35.738,67.247H31.7V65.7h4.038Zm-3.535-.5h3.032V66.2H32.2Z" transform="translate(-31.7 -65.7)" fill="url(#linear-gradient-28)"/>
    </g>
    <g id="Group_4258" data-name="Group 4258" transform="translate(39.89 70.031)">
      <path id="Path_25315" data-name="Path 25315" d="M38.921,67.02H35.26V65.85h3.661Zm-3.535-.126H38.8v-.918H35.386Z" transform="translate(-35.071 -65.661)" fill="url(#linear-gradient-29)"/>
      <path id="Path_25316" data-name="Path 25316" d="M39.148,67.247H35.11V65.7h4.038Zm-3.535-.5h3.032V66.2H35.613Z" transform="translate(-35.11 -65.7)" fill="url(#linear-gradient-22)"/>
    </g>
    <g id="Group_4259" data-name="Group 4259" transform="translate(37.99 72.887)">
      <path id="Path_25317" data-name="Path 25317" d="M34.288,75.153v-.075s.063-.377-.491-.679H33.76V68.12h9.952l.075,1.283,2.856-.088,1.673,1.623V73.63h.2v.742l-.289-.063-.289.843H34.288Zm1.057-.138H47.838l.289-.856.252.05v-.465h-.2V70.976l-1.6-1.547-2.919.088-.075-1.283h-9.7V74.3c.465.264.541.579.541.717h.918Z" transform="translate(-33.559 -67.931)" fill="url(#linear-gradient-31)"/>
      <path id="Path_25318" data-name="Path 25318" d="M34.1,75.38l.05-.3s.025-.252-.415-.478l-.1-.05-.038-.126V67.97H43.916l.075,1.271,2.743-.088,1.8,1.736v2.6h.2v1.145l-.352-.075-.277.805h-14Zm1.283-.516H47.754l.3-.893.189.038v-.063h-.2V71.077l-1.485-1.434-3.019.088-.075-1.283H34.128v5.775a1.157,1.157,0,0,1,.516.629H35.4Z" transform="translate(-33.6 -67.97)" fill="url(#linear-gradient-32)"/>
    </g>
    <g id="Group_4260" data-name="Group 4260" transform="translate(49.804 74.51)">
      <path id="Path_25319" data-name="Path 25319" d="M45.3,71.234H43.14V69.41h1.044l.025.025,1.095,1.17Zm-2.038-.126h1.912v-.453l-1.044-1.12h-.868Z" transform="translate(-42.951 -69.221)" fill="url(#linear-gradient-33)"/>
      <path id="Path_25320" data-name="Path 25320" d="M45.531,71.462H42.99v-2.2H44.3l.05.063,1.17,1.246v.893Zm-2.038-.5h1.535V70.77l-.944-1.006h-.591v1.2Z" transform="translate(-42.99 -69.26)" fill="url(#linear-gradient-34)"/>
    </g>
    <g id="Group_4261" data-name="Group 4261" transform="translate(40.179 78.322)">
      <circle id="Ellipse_1074" data-name="Ellipse 1074" cx="1.183" cy="1.183" r="1.183" transform="translate(0.189 0.189)" fill="#231f20"/>
      <path id="Path_25321" data-name="Path 25321" d="M36.711,75.033a1.371,1.371,0,1,1,1.371-1.371A1.375,1.375,0,0,1,36.711,75.033Zm0-2.365a.994.994,0,1,0,.994.994A1,1,0,0,0,36.711,72.667Z" transform="translate(-35.34 -72.29)" fill="url(#linear-gradient-4)"/>
    </g>
    <g id="Group_4262" data-name="Group 4262" transform="translate(40.116 78.259)">
      <path id="Path_25322" data-name="Path 25322" d="M36.686,74.881a1.246,1.246,0,1,1,1.246-1.246A1.248,1.248,0,0,1,36.686,74.881Zm0-2.365a1.12,1.12,0,1,0,1.12,1.12A1.122,1.122,0,0,0,36.686,72.516Z" transform="translate(-35.251 -72.201)" fill="url(#linear-gradient-36)"/>
      <path id="Path_25323" data-name="Path 25323" d="M36.724,75.108a1.434,1.434,0,1,1,1.434-1.434A1.434,1.434,0,0,1,36.724,75.108Zm0-2.365a.931.931,0,1,0,.931.931A.929.929,0,0,0,36.724,72.743Z" transform="translate(-35.29 -72.24)" fill="url(#linear-gradient-37)"/>
    </g>
    <g id="Group_4263" data-name="Group 4263" transform="translate(48.973 78.322)">
      <circle id="Ellipse_1075" data-name="Ellipse 1075" cx="1.183" cy="1.183" r="1.183" transform="translate(0.189 0.189)" fill="#231f20"/>
      <path id="Path_25324" data-name="Path 25324" d="M43.7,75.033a1.371,1.371,0,1,1,1.371-1.371A1.375,1.375,0,0,1,43.7,75.033Zm0-2.365a.994.994,0,1,0,.994.994A.988.988,0,0,0,43.7,72.667Z" transform="translate(-42.33 -72.29)" fill="url(#linear-gradient-38)"/>
    </g>
    <g id="Group_4264" data-name="Group 4264" transform="translate(48.911 78.259)">
      <path id="Path_25325" data-name="Path 25325" d="M43.676,74.881a1.246,1.246,0,1,1,1.246-1.246A1.24,1.24,0,0,1,43.676,74.881Zm0-2.365a1.12,1.12,0,1,0,1.12,1.12A1.122,1.122,0,0,0,43.676,72.516Z" transform="translate(-42.241 -72.201)" fill="url(#linear-gradient-39)"/>
      <path id="Path_25326" data-name="Path 25326" d="M43.714,75.108a1.434,1.434,0,1,1,1.434-1.434A1.434,1.434,0,0,1,43.714,75.108Zm0-2.365a.931.931,0,1,0,.931.931A.929.929,0,0,0,43.714,72.743Z" transform="translate(-42.28 -72.24)" fill="url(#linear-gradient-37)"/>
    </g>
    <g id="Group_4265" data-name="Group 4265" transform="translate(18.817 48.92)">
      <path id="Path_25327" data-name="Path 25327" d="M19.036,54.616l-.616-.088a4.316,4.316,0,0,1,3.372-3.246,2.744,2.744,0,0,0,2.541-2.3l.629.075A3.377,3.377,0,0,1,21.9,51.9,3.706,3.706,0,0,0,19.036,54.616Z" transform="translate(-18.345 -48.905)" fill="url(#linear-gradient-41)"/>
      <path id="Path_25328" data-name="Path 25328" d="M19.1,54.707l-.742-.113v-.063a4.425,4.425,0,0,1,3.435-3.3h.025A2.635,2.635,0,0,0,24.3,48.983V48.92l.755.088v.063a3.443,3.443,0,0,1-3.12,2.894,3.648,3.648,0,0,0-2.806,2.667v.063Zm-.6-.214.5.075a3.812,3.812,0,0,1,2.894-2.7,3.306,3.306,0,0,0,3.007-2.73l-.5-.063a2.76,2.76,0,0,1-2.579,2.29A4.3,4.3,0,0,0,18.5,54.493Z" transform="translate(-18.36 -48.92)" fill="url(#linear-gradient-42)"/>
    </g>
    <g id="Group_4266" data-name="Group 4266" transform="translate(19.874 50.757)">
      <path id="Path_25329" data-name="Path 25329" d="M19.876,54.642l-.616-.113c.013-.075.365-1.824,3.183-2.453.075,0,2.126-.164,2.34-1.636l.616.088c-.289,1.975-2.78,2.151-2.881,2.164-2.34.528-2.642,1.887-2.655,1.95Z" transform="translate(-19.185 -50.365)" fill="url(#linear-gradient-43)"/>
      <path id="Path_25330" data-name="Path 25330" d="M19.942,54.733l-.742-.138v-.063c.025-.075.377-1.862,3.246-2.5h.025c.352-.038,2.088-.277,2.277-1.585V50.38l.755.113v.063c-.315,2.026-2.843,2.214-2.944,2.214-2.29.528-2.579,1.849-2.592,1.9v.063Zm-.591-.239.491.088c.088-.277.554-1.459,2.68-1.937.113,0,2.491-.189,2.818-2.051l-.5-.075c-.252,1.346-2.026,1.585-2.378,1.623-2.529.566-3.045,2.026-3.133,2.34Z" transform="translate(-19.2 -50.38)" fill="url(#linear-gradient-4)"/>
    </g>
  </g>
</svg>
