<svg xmlns="http://www.w3.org/2000/svg" width="249.099" height="66.942" viewBox="0 0 249.099 66.942">
  <g id="Group_928" data-name="Group 928" transform="translate(-16.206 -674.732)">
    <path id="Path_577" data-name="Path 577" d="M0,0V64.412H96.293l11.425-11.386h69.157V0Z" transform="translate(17.206 675.732)" fill="rgba(180,255,172,0.06)" stroke="#b4ffac" stroke-width="2"/>
    <path id="Path_579" data-name="Path 579" d="M79.164,40.458l-8.4,8.358h62.324l8.4-8.358Z" transform="translate(48.61 692.859)" fill="#b4ffac"/>
    <text id="Sustainability_KPI_s" data-name="Sustainability KPI’s" transform="translate(103.235 713.438)" fill="#b4ffac" font-size="16" font-family="Helvetica"><tspan x="-67" y="0">Sustainability KPI’s</tspan></text>
    <g id="Rectangle_146" data-name="Rectangle 146" transform="translate(200.365 675.653)" fill="rgba(180,255,172,0.06)" stroke="#b4ffac" stroke-width="2">
      <rect width="64.94" height="53.768" stroke="none"/>
      <rect x="1" y="1" width="62.94" height="51.768" fill="none"/>
    </g>
    <path id="recycling_24dp_5F6368_FILL0_wght200_GRAD0_opsz24" d="M118.669-805.752l3.007-4.907-2-3.3a1.247,1.247,0,0,0-1.153-.67,1.279,1.279,0,0,0-1.168.672l-3.257,5.478Zm12.976,9.126-2.972-4.947,4.652-2.681,2.138,3.567a2.951,2.951,0,0,1,.4,1.292,2.23,2.23,0,0,1-.28,1.3,2.434,2.434,0,0,1-1,1.085,2.823,2.823,0,0,1-1.434.384Zm-3.849,9.383-5.361-5.362,5.361-5.361v2.681h6.367l-1.943,3.887a2.9,2.9,0,0,1-1.005,1.072,2.583,2.583,0,0,1-1.407.4H127.8Zm-12.978-2.681a2.265,2.265,0,0,1-1.219-.339,2.025,2.025,0,0,1-.8-.919,2.581,2.581,0,0,1-.251-1.131,2.118,2.118,0,0,1,.306-1.091l1.139-1.881h5.764v5.361Zm-3.313-3.814-2.178-4.356a2.5,2.5,0,0,1-.291-1.311,2.683,2.683,0,0,1,.4-1.281l.525-.886-2.266-1.38,7.333-1.843,1.843,7.372-2.306-1.42ZM129.6-805.209l-7.338-1.842,2.312-1.373-4.189-6.966h4.725a2.646,2.646,0,0,1,1.323.35,2.693,2.693,0,0,1,.988.95l1.755,2.927,2.266-1.419Z" transform="translate(111.056 1503.853)" fill="#b4ffac"/>
  </g>
</svg>
