<svg xmlns="http://www.w3.org/2000/svg" xmlns:xlink="http://www.w3.org/1999/xlink" width="79" height="78.911" viewBox="0 0 79 78.911">
  <defs>
    <linearGradient id="linear-gradient" x1="0.5" x2="0.5" y2="1" gradientUnits="objectBoundingBox">
      <stop offset="0" stop-color="#33d4a3"/>
      <stop offset="0.304" stop-color="#2dacb1"/>
      <stop offset="1" stop-color="#2986c0"/>
      <stop offset="1" stop-color="#2466cf"/>
    </linearGradient>
  </defs>
  <path id="recycling_24dp_5F6368_FILL0_wght200_GRAD0_opsz24" d="M138.468-788.369l8.43-13.757-5.611-9.258a3.5,3.5,0,0,0-3.233-1.879,3.586,3.586,0,0,0-3.274,1.884l-9.13,15.359Zm36.377,25.586-8.331-13.869,13.04-7.515,6,10a8.274,8.274,0,0,1,1.119,3.621,6.253,6.253,0,0,1-.786,3.646,6.825,6.825,0,0,1-2.806,3.041,7.913,7.913,0,0,1-4.019,1.076Zm-10.791,26.3-15.03-15.031,15.03-15.03v7.515H181.9l-5.448,10.9a8.133,8.133,0,0,1-2.819,3.006,7.241,7.241,0,0,1-3.946,1.127h-5.636Zm-36.385-7.516a6.349,6.349,0,0,1-3.416-.951A5.676,5.676,0,0,1,122-747.522a7.237,7.237,0,0,1-.7-3.172,5.938,5.938,0,0,1,.858-3.058l3.194-5.273h16.158v15.03Zm-9.287-10.692L112.276-766.9a7.018,7.018,0,0,1-.816-3.676,7.524,7.524,0,0,1,1.111-3.592l1.472-2.485-6.354-3.869,20.556-5.167,5.166,20.668L126.948-769Zm50.727-32.161-20.572-5.163,6.481-3.849L143.276-815.39h13.246a7.418,7.418,0,0,1,3.71.983A7.549,7.549,0,0,1,163-811.743l4.919,8.207,6.354-3.979Z" transform="translate(-107.69 815.39)" fill="url(#linear-gradient)"/>
</svg>
