<svg xmlns="http://www.w3.org/2000/svg" xmlns:xlink="http://www.w3.org/1999/xlink" width="51.942" height="31.612" viewBox="0 0 51.942 31.612">
  <defs>
    <clipPath id="clip-path">
      <path id="Path_28030" data-name="Path 28030" d="M0,0H51.942V31.612H0ZM0,0" fill="#fff"/>
    </clipPath>
  </defs>
  <g id="Group_6446" data-name="Group 6446" clip-path="url(#clip-path)">
    <path id="Path_28029" data-name="Path 28029" d="M38.012,14.948c1.632,0,2.92-1.028,2.92-2.33,0-.94-1.919-3.473-2.871-4.744-.952,1.271-2.871,3.8-2.871,4.744A2.636,2.636,0,0,0,38.012,14.948Zm1.57-12.21V1.384h3.236V2.738ZM10.633,24.351a1.632,1.632,0,0,1,0,3.263A1.632,1.632,0,0,1,10.633,24.351Zm0,4.647a3.015,3.015,0,1,1,3.016-3.015A3.019,3.019,0,0,1,10.633,29Zm0-7.261a4.246,4.246,0,1,1-4.246,4.246A4.25,4.25,0,0,1,10.633,21.737Zm0,9.876a5.63,5.63,0,1,1,5.629-5.63A5.636,5.636,0,0,1,10.633,31.612ZM44.6,24.351a1.632,1.632,0,0,1,0,3.263A1.632,1.632,0,0,1,44.6,24.351ZM44.6,29a3.015,3.015,0,1,1,3.015-3.015A3.019,3.019,0,0,1,44.6,29ZM32.3,24.351a1.632,1.632,0,0,1,0,3.263A1.632,1.632,0,0,1,32.3,24.351ZM32.3,29a3.015,3.015,0,1,1,3.016-3.015A3.019,3.019,0,0,1,32.3,29ZM6.417,15.624V13.544l4.108-3.057h3.624v5.136h-.885c0-.443.107-1.3-.692-1.3s-.692.858-.692,1.3Zm8.425,1.384H5.725a.692.692,0,0,1-.692-.692V13.2a.693.693,0,0,1,.279-.555l4.571-3.4A.693.693,0,0,1,10.3,9.1h4.546a.692.692,0,0,1,.692.692v6.52A.693.693,0,0,1,14.841,17.007ZM44.6,21.737a4.246,4.246,0,1,1-4.246,4.246A4.251,4.251,0,0,1,44.6,21.737ZM36.11,24.1a4.276,4.276,0,1,1-.048-.094A.728.728,0,0,0,36.11,24.1Zm-3.536-5.886H43.548a7.048,7.048,0,0,0-.038-14.1h-10.9a7.048,7.048,0,0,0-.038,14.1ZM16.845,7.892V18.218H5.547a.692.692,0,0,0-.634.415L3.276,22.381H1.384V13.908L4.947,7.892Zm1.384,15.16V7.892h2.862v15.16Zm4.246-3.45H50.558v3.45h-1.15a5.631,5.631,0,0,0-9.61,0H37.108a5.631,5.631,0,0,0-9.61,0H22.475Zm-.692,4.834h5.106a5.63,5.63,0,1,0,10.827,0H39.19a5.63,5.63,0,1,0,10.827,0c.82,0,1.925.2,1.925-.692V18.91a.692.692,0,0,0-.692-.692H48.133A8.43,8.43,0,0,0,44.2,2.767V1.384h1.091a.692.692,0,0,0,0-1.384H37.107a.692.692,0,0,0-.692.692c0,.872,1.055.692,1.783.692V2.738H32.613a8.43,8.43,0,0,0-4.623,15.48H22.475V7.2a.692.692,0,0,0-.692-.692H4.552a.692.692,0,0,0-.6.339L.1,13.367a.694.694,0,0,0-.1.352v9.075a.973.973,0,0,0,.972.971H3.729a.693.693,0,0,0,.634-.415L6,19.6H16.845v4.142a.692.692,0,0,0,.692.692Zm21.418-8.1H32.921a.692.692,0,0,1,0-1.384h1.83C32.3,12.294,35.257,9.5,37.495,6.3a.718.718,0,0,1,1.134,0c2.244,3.205,5.2,5.994,2.742,8.644H43.2a.692.692,0,0,1,0,1.384" fill="#fff" fill-rule="evenodd"/>
  </g>
</svg>
