<svg xmlns="http://www.w3.org/2000/svg" xmlns:xlink="http://www.w3.org/1999/xlink" width="120.61" height="73.404" viewBox="0 0 120.61 73.404">
  <defs>
    <linearGradient id="linear-gradient" x1="0.5" x2="0.5" y2="1" gradientUnits="objectBoundingBox">
      <stop offset="0" stop-color="#1bc384"/>
      <stop offset="0.195" stop-color="#1c9ba9"/>
      <stop offset="0.527" stop-color="#1f54ed"/>
      <stop offset="1" stop-color="#00803c"/>
    </linearGradient>
    <clipPath id="clip-path">
      <path id="Path_17064" data-name="Path 17064" d="M0,0H120.61V73.4H0ZM0,0" fill="url(#linear-gradient)"/>
    </clipPath>
  </defs>
  <g id="Group_3958" data-name="Group 3958" clip-path="url(#clip-path)">
    <path id="Path_17063" data-name="Path 17063" d="M88.264,34.709c3.789,0,6.781-2.388,6.781-5.411,0-2.184-4.456-8.065-6.666-11.016-2.21,2.952-6.666,8.832-6.666,11.016C81.713,32.251,84.642,34.659,88.264,34.709ZM91.91,6.358V3.214h7.514V6.358ZM24.69,56.543c4.986,0,4.986,7.578,0,7.578S19.7,56.543,24.69,56.543Zm0,10.79a7,7,0,1,1,7-7A7.009,7.009,0,0,1,24.69,67.333Zm0-16.861a9.86,9.86,0,1,1-9.859,9.859A9.869,9.869,0,0,1,24.69,50.472Zm0,22.932A13.073,13.073,0,1,1,37.762,60.332,13.087,13.087,0,0,1,24.69,73.4Zm78.879-16.862c4.986,0,4.988,7.578,0,7.578S98.583,56.543,103.569,56.543Zm0,10.79a7,7,0,1,1,7-7A7.009,7.009,0,0,1,103.569,67.333ZM75.007,56.543c4.987,0,4.988,7.578,0,7.578S70.021,56.543,75.007,56.543Zm0,10.79a7,7,0,1,1,7-7A7.009,7.009,0,0,1,75.007,67.333ZM14.9,36.278V31.45l9.539-7.1h8.415V36.278H30.8c0-1.029.248-3.023-1.606-3.023s-1.607,1.993-1.607,3.023Zm19.562,3.213H13.293a1.607,1.607,0,0,1-1.607-1.607V30.643a1.608,1.608,0,0,1,.648-1.289l10.614-7.9a1.608,1.608,0,0,1,.96-.319H34.462a1.607,1.607,0,0,1,1.607,1.607v15.14A1.608,1.608,0,0,1,34.461,39.491Zm69.108,10.981a9.86,9.86,0,1,1-9.86,9.859A9.871,9.871,0,0,1,103.569,50.472Zm-19.721,5.5a9.928,9.928,0,1,1-.113-.219A1.689,1.689,0,0,0,83.849,55.97ZM75.638,42.3H101.12a16.365,16.365,0,0,0-.088-32.73h-25.3a16.365,16.365,0,0,0-.089,32.73ZM39.115,18.325V42.3H12.88a1.607,1.607,0,0,0-1.473.964l-3.8,8.7H3.213V32.3l8.273-13.97Zm3.215,35.2v-35.2h6.646v35.2Zm9.859-8.011H117.4v8.011h-2.67a13.076,13.076,0,0,0-22.314,0H86.165a13.076,13.076,0,0,0-22.314,0H52.188ZM50.58,56.739H62.437a13.073,13.073,0,1,0,25.141,0H91a13.073,13.073,0,1,0,25.14,0c1.9,0,4.471.456,4.471-1.607V43.91A1.606,1.606,0,0,0,119,42.3h-7.238a19.573,19.573,0,0,0-9.127-35.879V3.213h2.533a1.607,1.607,0,0,0,0-3.213H86.164a1.607,1.607,0,0,0-1.606,1.607c0,2.024,2.449,1.607,4.14,1.607V6.358H75.727A19.574,19.574,0,0,0,64.991,42.3h-12.8V16.718a1.606,1.606,0,0,0-1.607-1.606H10.57a1.607,1.607,0,0,0-1.383.788L.224,31.037A1.611,1.611,0,0,0,0,31.856V52.928a2.26,2.26,0,0,0,2.257,2.256h6.4a1.608,1.608,0,0,0,1.471-.964l3.8-8.7H39.115v9.618a1.606,1.606,0,0,0,1.607,1.606Zm49.733-18.817H76.443a1.607,1.607,0,0,1,0-3.213h4.249c-5.7-6.162,1.173-12.641,6.37-20.072a1.668,1.668,0,0,1,2.634,0c5.212,7.442,12.063,13.917,6.368,20.072h4.248a1.607,1.607,0,0,1,0,3.213" fill-rule="evenodd" fill="url(#linear-gradient)"/>
  </g>
</svg>
