<svg xmlns="http://www.w3.org/2000/svg" xmlns:xlink="http://www.w3.org/1999/xlink" width="42.949" height="40.745" viewBox="0 0 42.949 40.745">
  <defs>
    <linearGradient id="linear-gradient" x1="-0.001" y1="0.499" x2="0.999" y2="0.499" gradientUnits="objectBoundingBox">
      <stop offset="0" stop-color="#55bf9b"/>
      <stop offset="0.15" stop-color="#2dacb1"/>
      <stop offset="0.4" stop-color="#2986c1"/>
      <stop offset="1" stop-color="#3b67b1"/>
    </linearGradient>
  </defs>
  <g id="Group_6424" data-name="Group 6424" transform="translate(-2019.997 -338.001)">
    <path id="Path_24988" data-name="Path 24988" d="M233.171,137.1a2.153,2.153,0,0,1-1.959-2.3,6.175,6.175,0,0,1,1.616-3.477l.343-.392.343.392a6.119,6.119,0,0,1,1.616,3.477,2.153,2.153,0,0,1-1.959,2.3Zm0-4.652a4.463,4.463,0,0,0-.979,2.351c0,.735.441,1.322.979,1.322s.979-.588.979-1.322A4.407,4.407,0,0,0,233.171,132.452ZM198.6,136.664h-2.938v-2.693A4.445,4.445,0,0,1,193.7,130.3v-6.905a4.415,4.415,0,0,1,3.428-4.31c-.294-.343-.588-.735-.881-1.126a11.439,11.439,0,0,1-2.547-6.366V100.278h.979V99.3H192.72V96.36h30.51V99.3h-1.959v.979h.979V111.59a11.439,11.439,0,0,1-2.547,6.366c-.294.392-.588.735-.881,1.126a4.539,4.539,0,0,1,2.693,1.861h.245l6.024-.147v-1.959h5.926v2.938h-1.028a6.356,6.356,0,0,1,2.987,5.436v2.449h-5.926v-2.449a.463.463,0,0,0-.49-.49l-7,.147v3.477a4.38,4.38,0,0,1-1.959,3.673v2.693h-2.938v-1.959H198.646v1.959Zm-2.008-.979h.979v-1.959h20.666v1.959h.979v-2.3l.245-.147a3.453,3.453,0,0,0,1.714-2.987v-4.408l7.982-.2a1.473,1.473,0,0,1,1.469,1.469v1.469h3.967v-1.469a5.455,5.455,0,0,0-5.436-5.436V120.7h3.428v-.979h-3.967v1.959l-7.836.2-.147-.245a3.453,3.453,0,0,0-2.987-1.714H216.52l.784-.833a16.006,16.006,0,0,0,1.469-1.714,10.71,10.71,0,0,0,2.351-5.828V101.208h-.979V98.27H222.1v-.979H193.553v.979h1.959v2.938h-.979v10.333a10.71,10.71,0,0,0,2.351,5.828,16,16,0,0,0,1.469,1.714l.784.833h-1.126a3.438,3.438,0,0,0-3.428,3.428v6.905a3.452,3.452,0,0,0,1.714,2.987l.245.147v2.3Zm20.519-8.864a7.344,7.344,0,0,1-4.6-1.812,8.858,8.858,0,0,1-1.42.931l-.734.392v-4.456h-.979v4.75l-.392.1a5.322,5.322,0,0,1-2.155,0l-.392-.1v-4.75h-.979v4.456l-.734-.392a14.176,14.176,0,0,1-1.42-.931c-2.449,1.959-4.946,2.351-7.444,1.126l-.294-.147v-2.6a2.456,2.456,0,0,1,2.449-2.449h3.575l-2.693-2.742h0l-.637-.735h0a12.125,12.125,0,0,1-.93-1.273,9.048,9.048,0,0,1-1.714-4.6l-.147-8.521,24.878-.441-.147,8.962a9.049,9.049,0,0,1-1.714,4.6,13.971,13.971,0,0,1-1.224,1.616l-.1.147-2.938,2.987h3.575a2.456,2.456,0,0,1,2.449,2.449v2.6l-.294.147a6.719,6.719,0,0,1-2.84.686Zm-4.6-3.085.343.294c2.155,1.861,4.261,2.3,6.415,1.371v-2.008a1.473,1.473,0,0,0-1.469-1.469h-6.415v2.742a5.348,5.348,0,0,0,.833-.637l.294-.294Zm-15.916,1.616c2.155.931,4.26.49,6.415-1.371l.343-.294.294.294a5.349,5.349,0,0,0,.832.637v-2.742h-6.415a1.473,1.473,0,0,0-1.469,1.469v2.008Zm10.872.441h.979v-3.918h-.979Zm3.918-4.9h.979v-9.55h-.979Zm-.979,0h0V110.366h2.938v10.039l3.183-3.232a11.9,11.9,0,0,0,1.175-1.567,8.433,8.433,0,0,0,1.567-4.065l.147-7.982L196.491,104l.147,7.542a7.972,7.972,0,0,0,1.567,4.065,11.882,11.882,0,0,0,1.175,1.567l3.183,3.232V110.366H205.5V120.9h.979V110.366h2.938V120.9h.979Zm-2.938,0h.979v-9.55h-.979Zm-3.967,0h.979v-9.55h-.979Z" transform="translate(1827.277 241.641)" fill="url(#linear-gradient)"/>
    <path id="Path_27581" data-name="Path 27581" d="M233.171,137.1a2.153,2.153,0,0,1-1.959-2.3,6.175,6.175,0,0,1,1.616-3.477l.343-.392.343.392a6.119,6.119,0,0,1,1.616,3.477,2.153,2.153,0,0,1-1.959,2.3Zm0-4.652a4.463,4.463,0,0,0-.979,2.351c0,.735.441,1.322.979,1.322s.979-.588.979-1.322A4.407,4.407,0,0,0,233.171,132.452ZM198.6,136.664h-2.938v-2.693A4.445,4.445,0,0,1,193.7,130.3v-6.905a4.415,4.415,0,0,1,3.428-4.31c-.294-.343-.588-.735-.881-1.126a11.439,11.439,0,0,1-2.547-6.366V100.278h.979V99.3H192.72V96.36h30.51V99.3h-1.959v.979h.979V111.59a11.439,11.439,0,0,1-2.547,6.366c-.294.392-.588.735-.881,1.126a4.539,4.539,0,0,1,2.693,1.861h.245l6.024-.147v-1.959h5.926v2.938h-1.028a6.356,6.356,0,0,1,2.987,5.436v2.449h-5.926v-2.449a.463.463,0,0,0-.49-.49l-7,.147v3.477a4.38,4.38,0,0,1-1.959,3.673v2.693h-2.938v-1.959H198.646v1.959Zm-2.008-.979h.979v-1.959h20.666v1.959h.979v-2.3l.245-.147a3.453,3.453,0,0,0,1.714-2.987v-4.408l7.982-.2a1.473,1.473,0,0,1,1.469,1.469v1.469h3.967v-1.469a5.455,5.455,0,0,0-5.436-5.436V120.7h3.428v-.979h-3.967v1.959l-7.836.2-.147-.245a3.453,3.453,0,0,0-2.987-1.714H216.52l.784-.833a16.006,16.006,0,0,0,1.469-1.714,10.71,10.71,0,0,0,2.351-5.828V101.208h-.979V98.27H222.1v-.979H193.553v.979h1.959v2.938h-.979v10.333a10.71,10.71,0,0,0,2.351,5.828,16,16,0,0,0,1.469,1.714l.784.833h-1.126a3.438,3.438,0,0,0-3.428,3.428v6.905a3.452,3.452,0,0,0,1.714,2.987l.245.147v2.3Zm20.519-8.864a7.344,7.344,0,0,1-4.6-1.812,8.858,8.858,0,0,1-1.42.931l-.734.392v-4.456h-.979v4.75l-.392.1a5.322,5.322,0,0,1-2.155,0l-.392-.1v-4.75h-.979v4.456l-.734-.392a14.176,14.176,0,0,1-1.42-.931c-2.449,1.959-4.946,2.351-7.444,1.126l-.294-.147v-2.6a2.456,2.456,0,0,1,2.449-2.449h3.575l-2.693-2.742h0l-.637-.735h0a12.125,12.125,0,0,1-.93-1.273,9.048,9.048,0,0,1-1.714-4.6l-.147-8.521,24.878-.441-.147,8.962a9.049,9.049,0,0,1-1.714,4.6,13.971,13.971,0,0,1-1.224,1.616l-.1.147-2.938,2.987h3.575a2.456,2.456,0,0,1,2.449,2.449v2.6l-.294.147a6.719,6.719,0,0,1-2.84.686Zm-4.6-3.085.343.294c2.155,1.861,4.261,2.3,6.415,1.371v-2.008a1.473,1.473,0,0,0-1.469-1.469h-6.415v2.742a5.348,5.348,0,0,0,.833-.637l.294-.294Zm-15.916,1.616c2.155.931,4.26.49,6.415-1.371l.343-.294.294.294a5.349,5.349,0,0,0,.832.637v-2.742h-6.415a1.473,1.473,0,0,0-1.469,1.469v2.008Zm10.872.441h.979v-3.918h-.979Zm3.918-4.9h.979v-9.55h-.979Zm-.979,0h0V110.366h2.938v10.039l3.183-3.232a11.9,11.9,0,0,0,1.175-1.567,8.433,8.433,0,0,0,1.567-4.065l.147-7.982L196.491,104l.147,7.542a7.972,7.972,0,0,0,1.567,4.065,11.882,11.882,0,0,0,1.175,1.567l3.183,3.232V110.366H205.5V120.9h.979V110.366h2.938V120.9h.979Zm-2.938,0h.979v-9.55h-.979Zm-3.967,0h.979v-9.55h-.979Z" transform="translate(1827.277 241.641)" fill="url(#linear-gradient)"/>
  </g>
</svg>
