<svg xmlns="http://www.w3.org/2000/svg" xmlns:xlink="http://www.w3.org/1999/xlink" width="28.764" height="35.956" viewBox="0 0 28.764 35.956">
  <defs>
    <linearGradient id="linear-gradient" x1="0.5" x2="0.5" y2="1" gradientUnits="objectBoundingBox">
      <stop offset="0" stop-color="#1bc384"/>
      <stop offset="0.215" stop-color="#1c9ba9"/>
      <stop offset="0.691" stop-color="#1f54ed"/>
      <stop offset="1" stop-color="#680080"/>
    </linearGradient>
  </defs>
  <path id="cleaning_services_24dp_5F6368_FILL0_wght200_GRAD0_opsz24" d="M160-844.044v-10.545a7.664,7.664,0,0,1,2.326-5.626,7.664,7.664,0,0,1,5.626-2.326h2.316v-14.521a2.884,2.884,0,0,1,.831-2.075,2.72,2.72,0,0,1,2.038-.863h2.489a2.72,2.72,0,0,1,2.038.863,2.884,2.884,0,0,1,.832,2.075v14.521h2.282a7.715,7.715,0,0,1,5.65,2.326,7.647,7.647,0,0,1,2.336,5.626v10.545Zm1.8-1.8h4.944v-6.327a.869.869,0,0,1,.259-.64.872.872,0,0,1,.641-.258.867.867,0,0,1,.64.258.871.871,0,0,1,.258.64v6.327h4.944v-6.327a.869.869,0,0,1,.259-.64.872.872,0,0,1,.641-.258.868.868,0,0,1,.64.258.871.871,0,0,1,.257.64v6.327h4.944v-6.327a.869.869,0,0,1,.259-.64.872.872,0,0,1,.641-.258.868.868,0,0,1,.64.258.871.871,0,0,1,.257.64v6.327h4.944v-8.747a5.9,5.9,0,0,0-1.8-4.373,6.01,6.01,0,0,0-4.383-1.781H167.952a5.933,5.933,0,0,0-4.359,1.8,5.933,5.933,0,0,0-1.8,4.359Zm14.9-16.7v-14.521a1.136,1.136,0,0,0-.311-.812,1.008,1.008,0,0,0-.761-.328h-2.489a1.008,1.008,0,0,0-.761.328,1.136,1.136,0,0,0-.311.812v14.521Zm0,0h0Z" transform="translate(-160 880)" opacity="0.63" fill="url(#linear-gradient)"/>
</svg>
