<svg xmlns="http://www.w3.org/2000/svg" xmlns:xlink="http://www.w3.org/1999/xlink" width="83.764" height="94.5" viewBox="0 0 83.764 94.5">
  <defs>
    <linearGradient id="linear-gradient" x1="-0.004" y1="0.495" x2="1" y2="0.495" gradientUnits="objectBoundingBox">
      <stop offset="0" stop-color="#55bf9b"/>
      <stop offset="0.15" stop-color="#2dacb1"/>
      <stop offset="0.4" stop-color="#2986c1"/>
      <stop offset="1" stop-color="#3b67b1"/>
    </linearGradient>
    <linearGradient id="linear-gradient-2" x1="-0.002" y1="0.499" x2="1" y2="0.499" xlink:href="#linear-gradient"/>
    <linearGradient id="linear-gradient-3" x1="0" y1="0.501" x2="1" y2="0.501" xlink:href="#linear-gradient"/>
    <linearGradient id="linear-gradient-4" x1="0" y1="0.501" x2="0.971" y2="0.501" xlink:href="#linear-gradient"/>
    <linearGradient id="linear-gradient-6" x1="0" y1="0.506" x2="1" y2="0.506" xlink:href="#linear-gradient"/>
  </defs>
  <g id="Group_5423" data-name="Group 5423" transform="translate(-1989 -361)">
    <g id="Group_4719" data-name="Group 4719" transform="translate(1989 361)">
      <path id="Path_24698" data-name="Path 24698" d="M217.281,91.316l-3.421-.708s1.888-9.32,8.258-10.618h14.393l.472.472c.236.236,4.837,4.365,5.9,9.084l-3.421.826c-.708-2.831-3.3-5.663-4.365-6.843H222.472c-3.657.826-5.191,7.787-5.191,7.9Z" transform="translate(-186.489 -79.99)" fill="url(#linear-gradient)"/>
      <path id="Path_24699" data-name="Path 24699" d="M219.661,151.6a7.662,7.662,0,0,1-3.657-.944,9.294,9.294,0,0,1-3.893-5.309v-.472l.826-62.764h3.539l-.826,62.528a6.606,6.606,0,0,0,1.18,2.124,3.861,3.861,0,0,0,4.365,1.062h52.972c.944-.472,4.483-2.242,4.129-6.017V82.11h3.539v59.579c.472,5.545-4.247,8.73-6.843,9.556H221.784a7.262,7.262,0,0,1-2.241.236Z" transform="translate(-205.386 -57.099)" fill="url(#linear-gradient-2)"/>
      <rect id="Rectangle_1974" data-name="Rectangle 1974" width="4.011" height="48.253" transform="translate(22.534 32.208)" fill="url(#linear-gradient-3)"/>
      <rect id="Rectangle_1975" data-name="Rectangle 1975" width="4.011" height="48.253" transform="translate(39.876 32.208)" fill="url(#linear-gradient-4)"/>
      <rect id="Rectangle_1976" data-name="Rectangle 1976" width="4.011" height="48.253" transform="translate(56.393 32.208)" fill="url(#linear-gradient-4)"/>
      <path id="Path_24700" data-name="Path 24700" d="M214.607,97.261H211.54V86.643l.236-.472a14.514,14.514,0,0,1,6.253-5.191h.708l68.545-.118c4.011-.826,7.2,5.073,7.786,6.253l.236.826v8.612l-80.7.708Zm.472-9.556v6.017l76.685-.59V88.413c-1.062-1.888-3.067-4.247-4.129-4.011H219.208a12.7,12.7,0,0,0-4.129,3.3Z" transform="translate(-211.54 -71.424)" fill="url(#linear-gradient-6)"/>
    </g>
  </g>
</svg>
