<svg xmlns="http://www.w3.org/2000/svg" xmlns:xlink="http://www.w3.org/1999/xlink" width="84.534" height="123.983" viewBox="0 0 84.534 123.983">
  <defs>
    <linearGradient id="linear-gradient" x1="0.5" x2="0.5" y2="1" gradientUnits="objectBoundingBox">
      <stop offset="0" stop-color="#1bc384"/>
      <stop offset="0.271" stop-color="#1c9ba9"/>
      <stop offset="0.597" stop-color="#1f54ed"/>
      <stop offset="1" stop-color="#008049"/>
    </linearGradient>
  </defs>
  <g id="Group_5422" data-name="Group 5422" transform="translate(-1343 -342.635)">
    <g id="Group_4341" data-name="Group 4341">
      <path id="Path_3546" data-name="Path 3546" d="M74.987,152.022a4.868,4.868,0,0,1-4.907-4.748,4.936,4.936,0,0,1,4.907-4.829,16.449,16.449,0,0,0,16.521-16.257,4.865,4.865,0,0,1,4.825-4.829,4.936,4.936,0,0,1,4.907,4.829,26.076,26.076,0,0,1-26.254,25.833h0Zm0,0" transform="matrix(0.174, 0.985, -0.985, 0.174, 1498.36, 325.31)" fill="#412bb8"/>
      <path id="water-resources-svgrepo-com" d="M205.176,24.346c4.114,6.678,8.453,12.793,12.539,18.513,10.313,14.484,18.457,25.924,18.457,38.858,0,14.089-13.835,31-31,31s-31-16.907-31-31c0-12.934,8.143-24.374,18.457-38.858,4.058-5.636,8.453-11.835,12.539-18.513m0-24.346c-14.089,33.814-42.267,53.538-42.267,81.716,0,20.655,19.443,42.267,42.267,42.267s42.267-21.613,42.267-42.267C247.443,53.538,219.265,33.814,205.176,0Z" transform="translate(1180.091 342.635)" fill="url(#linear-gradient)"/>
    </g>
  </g>
</svg>
