<svg xmlns="http://www.w3.org/2000/svg" xmlns:xlink="http://www.w3.org/1999/xlink" width="19.538" height="28.751" viewBox="0 0 19.538 28.751">
  <defs>
    <linearGradient id="linear-gradient" y1="0.5" x2="1" y2="0.5" gradientUnits="objectBoundingBox">
      <stop offset="0" stop-color="#55bf9b"/>
      <stop offset="0.15" stop-color="#2dacb1"/>
      <stop offset="0.4" stop-color="#2986c1"/>
      <stop offset="1" stop-color="#3b67b1"/>
    </linearGradient>
    <linearGradient id="linear-gradient-2" x1="0" y1="0.5" x2="1" y2="0.5" xlink:href="#linear-gradient"/>
  </defs>
  <g id="Group_4438" data-name="Group 4438" transform="translate(0 0.001)" opacity="0.87">
    <g id="Group_4425" data-name="Group 4425" transform="translate(3.189 18.363)">
      <path id="Path_3546" data-name="Path 3546" d="M91.15,144.412a1.216,1.216,0,0,1,.83-1.4A1.1,1.1,0,0,1,93.2,144a3.658,3.658,0,0,0,4.119,3.328,1.089,1.089,0,0,1,1.225.968,1.217,1.217,0,0,1-.849,1.4c-3.091.583-6.025-1.778-6.548-5.284h0Z" transform="translate(-91.03 -142.895)" fill="#4a449b"/>
      <path id="Path_25635" data-name="Path 25635" d="M96.758,149.883a5.346,5.346,0,0,1-3.072-1,6.654,6.654,0,0,1-2.637-4.464,1.3,1.3,0,0,1,.909-1.511,1.11,1.11,0,0,1,.82.188,1.33,1.33,0,0,1,.523.879,4.024,4.024,0,0,0,1.59,2.7,3.114,3.114,0,0,0,2.41.543,1.008,1.008,0,0,1,.81.178,1.294,1.294,0,0,1,.523.869,1.316,1.316,0,0,1-.928,1.521,5.243,5.243,0,0,1-.958.089Zm-4.612-6.8a1.046,1.046,0,0,0-.148.01,1.117,1.117,0,0,0-.751,1.284h0a6.486,6.486,0,0,0,2.548,4.336,5.018,5.018,0,0,0,3.872.879,1.135,1.135,0,0,0,.77-1.294,1.115,1.115,0,0,0-.444-.741.885.885,0,0,0-.662-.148,3.346,3.346,0,0,1-2.568-.583,4.237,4.237,0,0,1-1.679-2.825,1.177,1.177,0,0,0-.444-.751.91.91,0,0,0-.514-.168Z" transform="translate(-91.029 -142.894)" fill="url(#linear-gradient)"/>
    </g>
    <path id="Path_25636" data-name="Path 25636" d="M97.578,153.051H97.5c-.2-.02-4.938-.425-7.743-4.04-1.778-2.291-2.341-5.314-1.7-8.978l.02-.138.079-.119c.316-.514,7.783-12.612,9-14.489l.642-.988,9.373,15.328v.207s.01.079.02.178c.938,7.269-2.538,12.02-9.531,13.027h-.079ZM89.5,140.428c-.533,3.18-.049,5.768,1.432,7.674,2.222,2.864,6.025,3.388,6.607,3.457,7.822-1.175,8.77-6.825,8.188-11.358a.425.425,0,0,0-.02-.118L97.765,127.1c-2.074,3.3-7.565,12.188-8.267,13.343Z" transform="translate(-87.801 -124.301)" fill="url(#linear-gradient-2)"/>
  </g>
</svg>
