<svg id="Group_5655" data-name="Group 5655" xmlns="http://www.w3.org/2000/svg" xmlns:xlink="http://www.w3.org/1999/xlink" width="34.101" height="48.958" viewBox="0 0 34.101 48.958">
  <defs>
    <linearGradient id="linear-gradient" x1="0.5" x2="0.5" y2="1" gradientUnits="objectBoundingBox">
      <stop offset="0" stop-color="#ffffff"/>
      <stop offset="0.271" stop-color="#ffffff"/>
      <stop offset="0.597" stop-color="#ffffff"/>
      <stop offset="1" stop-color="#ffffff"/>
    </linearGradient>
  </defs>
  <g id="Group_4341" data-name="Group 4341" transform="translate(0)">
    <path id="Path_3546" data-name="Path 3546" d="M1.932,12.392A1.925,1.925,0,0,1,0,10.485,1.987,1.987,0,0,1,1.946,8.531,6.623,6.623,0,0,0,8.5,1.954a1.923,1.923,0,1,1,3.846-.014A10.5,10.5,0,0,1,1.932,12.392h0Zm0,0" transform="matrix(0.174, 0.985, -0.985, 0.174, 19.399, 28.689)" fill="#ffffff"/>
    <path id="water-resources-svgrepo-com" d="M179.959,9.614c1.66,2.637,3.41,5.052,5.058,7.31,4.16,5.719,7.445,10.237,7.445,15.344,0,5.563-5.581,12.24-12.5,12.24s-12.5-6.676-12.5-12.24c0-5.107,3.285-9.625,7.445-15.344,1.637-2.225,3.41-4.673,5.058-7.31m0-9.614c-5.684,13.352-17.05,21.141-17.05,32.268,0,8.156,7.843,16.69,17.05,16.69s17.05-8.534,17.05-16.69C197.01,21.141,185.643,13.352,179.959,0Z" transform="translate(-162.909)" fill="#ffffff"/>
  </g>
</svg>
