<svg xmlns="http://www.w3.org/2000/svg" xmlns:xlink="http://www.w3.org/1999/xlink" width="33.199" height="33.53" viewBox="0 0 33.199 33.53">
  <defs>
    <linearGradient id="linear-gradient" y1="0.502" x2="1.002" y2="0.502" gradientUnits="objectBoundingBox">
      <stop offset="0" stop-color="#55bf9b"/>
      <stop offset="0.15" stop-color="#2dacb1"/>
      <stop offset="0.4" stop-color="#2986c1"/>
      <stop offset="1" stop-color="#3b67b1"/>
    </linearGradient>
    <linearGradient id="linear-gradient-2" x1="0" y1="0.498" x2="1.001" y2="0.498" xlink:href="#linear-gradient"/>
    <linearGradient id="linear-gradient-3" x1="0.007" y1="0.5" x2="1" y2="0.5" xlink:href="#linear-gradient"/>
    <linearGradient id="linear-gradient-4" x1="0.001" y1="0.499" x2="1.003" y2="0.499" xlink:href="#linear-gradient"/>
    <linearGradient id="linear-gradient-5" x1="-0.003" y1="0.497" x2="0.99" y2="0.497" xlink:href="#linear-gradient"/>
    <linearGradient id="linear-gradient-6" x1="0.005" y1="0.503" x2="1.009" y2="0.503" xlink:href="#linear-gradient"/>
    <linearGradient id="linear-gradient-7" x1="0" y1="0.503" x2="1" y2="0.503" xlink:href="#linear-gradient"/>
  </defs>
  <g id="Group_5300" data-name="Group 5300" transform="translate(-57 -1372)">
    <g id="Group_4836" data-name="Group 4836" transform="translate(57 1372)">
      <path id="Path_26380" data-name="Path 26380" d="M131.23,183.256l-.33-.841c.451-.18,3.035-1.352,3.035-1.352l4.356-3.365c.3-.15,2.253-1.052,3.365-.3a1.885,1.885,0,0,1,.721,1.833l-.9-.06c.03-.541-.06-.871-.33-1.052-.6-.421-1.983.09-2.4.3l-4.387,3.365s-2.7,1.232-3.155,1.412Z" transform="translate(-112.723 -157.688)" fill="url(#linear-gradient)"/>
      <path id="Path_26381" data-name="Path 26381" d="M139.89,190.439a5.185,5.185,0,0,1-1.352-.15l-12.438.12v-.9l12.529-.09a9.032,9.032,0,0,0,5.408-.991l10.576-7.271a1.229,1.229,0,0,0-.571-.871,2.737,2.737,0,0,0-2.133,0l-6.49,3.936-5.228-.24-7.842-.811,7.271-4.417c.3-.511.3-.811.21-.931-.27-.361-1.713-.27-2.884.06l-7.661,4.417-2.824.541-.18-.871,2.734-.541,7.6-4.387c.511-.15,3.095-.811,3.906.24.361.481.3,1.172-.21,2.043l-.15.15-5.078,3.095,5.138.541,4.927.24,6.339-3.846a4.032,4.032,0,0,1,3,.03,2.324,2.324,0,0,1,1.052,1.8v.27l-11.026,7.6a10.162,10.162,0,0,1-4.627,1.262Z" transform="translate(-122.344 -158.501)" fill="url(#linear-gradient-2)"/>
      <path id="Path_26382" data-name="Path 26382" d="M127.794,189.617h-1.352a1.6,1.6,0,0,1-1.592-1.592v-8.533a1.6,1.6,0,0,1,1.592-1.592h1.352a1.6,1.6,0,0,1,1.592,1.592v8.533A1.6,1.6,0,0,1,127.794,189.617ZM126.442,178.8a.68.68,0,0,0-.691.691v8.533a.68.68,0,0,0,.691.691h1.352a.68.68,0,0,0,.691-.691v-8.533a.68.68,0,0,0-.691-.691Z" transform="translate(-124.85 -156.088)" fill="url(#linear-gradient-3)"/>
      <path id="Path_26383" data-name="Path 26383" d="M134.5,187.435h-.09c-.15,0-3.726-.481-4.9-3.185-.871-2.043-.09-4.747,2.313-8.052l2.7-5.558,2.7,5.708c.421.481,3.455,4.206,2.434,7.361-.571,1.8-2.283,3.034-5.108,3.7h-.09Zm.03-14.722-1.923,3.936q-3.38,4.6-2.253,7.211c.871,2.043,3.605,2.554,4.086,2.644,2.434-.6,3.936-1.622,4.387-3.065.9-2.854-2.283-6.52-2.313-6.55l-.06-.09-1.923-4.056Z" transform="translate(-116.201 -170.64)" fill="url(#linear-gradient-4)"/>
      <path id="Path_26384" data-name="Path 26384" d="M131.907,178.267s-.751-1.622-4.116-.721l-.27.06-.18-.21s-1.172-1.442-.721-2.554c.27-.691,1.021-1.112,2.223-1.232h.24a7.528,7.528,0,0,1,3.7,4.3h0l-.841.33Zm-3.125-3.756c-.541.06-1.172.24-1.352.661s.15,1.052.391,1.412a6.111,6.111,0,0,1,3.125-.06A5.952,5.952,0,0,0,128.782,174.511Z" transform="translate(-121.511 -164.687)" fill="url(#linear-gradient-5)"/>
      <path id="Path_26385" data-name="Path 26385" d="M134.111,178.4l-.841-.361.09-.27c.481-1.262,1.833-4.176,4.086-4.086a2.319,2.319,0,0,1,1.863,1.172,2.224,2.224,0,0,1-.481,2.163l-.18.27-.3-.09s-3.155-.931-4.236,1.2Zm3.245-3.786c-.931,0-1.743.9-2.283,1.8a5.52,5.52,0,0,1,3.245-.15,1.219,1.219,0,0,0,.24-1.022c-.18-.421-.9-.6-1.112-.631h-.06Z" transform="translate(-107.972 -164.548)" fill="url(#linear-gradient-6)"/>
      <path id="Path_26386" data-name="Path 26386" d="M133.08,178.123l.24-2.584s.36-3.575,2.7-3.4a1.222,1.222,0,0,1,.871.661,2.086,2.086,0,0,1-.12,1.773l-.12.24h-.27c-.481.06-1.893.3-2.223.961Zm2.764-5.078c-.691,0-1.112.691-1.352,1.352a5.665,5.665,0,0,1,1.532-.421c.15-.421.12-.661.06-.751a.346.346,0,0,0-.21-.18h-.06Z" transform="translate(-108.353 -167.638)" fill="url(#linear-gradient-7)"/>
    </g>
    <g id="Group_5299" data-name="Group 5299" transform="translate(57 1372)">
      <path id="Path_26380-2" data-name="Path 26380" d="M131.23,183.256l-.33-.841c.451-.18,3.035-1.352,3.035-1.352l4.356-3.365c.3-.15,2.253-1.052,3.365-.3a1.885,1.885,0,0,1,.721,1.833l-.9-.06c.03-.541-.06-.871-.33-1.052-.6-.421-1.983.09-2.4.3l-4.387,3.365s-2.7,1.232-3.155,1.412Z" transform="translate(-112.723 -157.688)" fill="url(#linear-gradient)"/>
      <path id="Path_26381-2" data-name="Path 26381" d="M139.89,190.439a5.185,5.185,0,0,1-1.352-.15l-12.438.12v-.9l12.529-.09a9.032,9.032,0,0,0,5.408-.991l10.576-7.271a1.229,1.229,0,0,0-.571-.871,2.737,2.737,0,0,0-2.133,0l-6.49,3.936-5.228-.24-7.842-.811,7.271-4.417c.3-.511.3-.811.21-.931-.27-.361-1.713-.27-2.884.06l-7.661,4.417-2.824.541-.18-.871,2.734-.541,7.6-4.387c.511-.15,3.095-.811,3.906.24.361.481.3,1.172-.21,2.043l-.15.15-5.078,3.095,5.138.541,4.927.24,6.339-3.846a4.032,4.032,0,0,1,3,.03,2.324,2.324,0,0,1,1.052,1.8v.27l-11.026,7.6a10.162,10.162,0,0,1-4.627,1.262Z" transform="translate(-122.344 -158.501)" fill="url(#linear-gradient-2)"/>
      <path id="Path_26382-2" data-name="Path 26382" d="M127.794,189.617h-1.352a1.6,1.6,0,0,1-1.592-1.592v-8.533a1.6,1.6,0,0,1,1.592-1.592h1.352a1.6,1.6,0,0,1,1.592,1.592v8.533A1.6,1.6,0,0,1,127.794,189.617ZM126.442,178.8a.68.68,0,0,0-.691.691v8.533a.68.68,0,0,0,.691.691h1.352a.68.68,0,0,0,.691-.691v-8.533a.68.68,0,0,0-.691-.691Z" transform="translate(-124.85 -156.088)" fill="url(#linear-gradient-3)"/>
      <path id="Path_26383-2" data-name="Path 26383" d="M134.5,187.435h-.09c-.15,0-3.726-.481-4.9-3.185-.871-2.043-.09-4.747,2.313-8.052l2.7-5.558,2.7,5.708c.421.481,3.455,4.206,2.434,7.361-.571,1.8-2.283,3.034-5.108,3.7h-.09Zm.03-14.722-1.923,3.936q-3.38,4.6-2.253,7.211c.871,2.043,3.605,2.554,4.086,2.644,2.434-.6,3.936-1.622,4.387-3.065.9-2.854-2.283-6.52-2.313-6.55l-.06-.09-1.923-4.056Z" transform="translate(-116.201 -170.64)" fill="url(#linear-gradient-4)"/>
      <path id="Path_26384-2" data-name="Path 26384" d="M131.907,178.267s-.751-1.622-4.116-.721l-.27.06-.18-.21s-1.172-1.442-.721-2.554c.27-.691,1.021-1.112,2.223-1.232h.24a7.528,7.528,0,0,1,3.7,4.3h0l-.841.33Zm-3.125-3.756c-.541.06-1.172.24-1.352.661s.15,1.052.391,1.412a6.111,6.111,0,0,1,3.125-.06A5.952,5.952,0,0,0,128.782,174.511Z" transform="translate(-121.511 -164.687)" fill="url(#linear-gradient-5)"/>
      <path id="Path_26385-2" data-name="Path 26385" d="M134.111,178.4l-.841-.361.09-.27c.481-1.262,1.833-4.176,4.086-4.086a2.319,2.319,0,0,1,1.863,1.172,2.224,2.224,0,0,1-.481,2.163l-.18.27-.3-.09s-3.155-.931-4.236,1.2Zm3.245-3.786c-.931,0-1.743.9-2.283,1.8a5.52,5.52,0,0,1,3.245-.15,1.219,1.219,0,0,0,.24-1.022c-.18-.421-.9-.6-1.112-.631h-.06Z" transform="translate(-107.972 -164.548)" fill="url(#linear-gradient-6)"/>
      <path id="Path_26386-2" data-name="Path 26386" d="M133.08,178.123l.24-2.584s.36-3.575,2.7-3.4a1.222,1.222,0,0,1,.871.661,2.086,2.086,0,0,1-.12,1.773l-.12.24h-.27c-.481.06-1.893.3-2.223.961Zm2.764-5.078c-.691,0-1.112.691-1.352,1.352a5.665,5.665,0,0,1,1.532-.421c.15-.421.12-.661.06-.751a.346.346,0,0,0-.21-.18h-.06Z" transform="translate(-108.353 -167.638)" fill="url(#linear-gradient-7)"/>
    </g>
  </g>
</svg>
