<svg xmlns="http://www.w3.org/2000/svg" xmlns:xlink="http://www.w3.org/1999/xlink" width="32.661" height="47.606" viewBox="0 0 32.661 47.606">
  <defs>
    <linearGradient id="linear-gradient" y1="0.505" x2="1" y2="0.505" gradientUnits="objectBoundingBox">
      <stop offset="0" stop-color="#55bf9b"/>
      <stop offset="0.15" stop-color="#2dacb1"/>
      <stop offset="0.4" stop-color="#2986c1"/>
      <stop offset="1" stop-color="#3b67b1"/>
    </linearGradient>
    <linearGradient id="linear-gradient-2" x1="0" y1="0.496" x2="1" y2="0.496" xlink:href="#linear-gradient"/>
    <linearGradient id="linear-gradient-3" x1="0" y1="0.487" x2="1" y2="0.487" xlink:href="#linear-gradient"/>
    <linearGradient id="linear-gradient-4" x1="0" y1="0.493" x2="1.004" y2="0.493" xlink:href="#linear-gradient"/>
    <linearGradient id="linear-gradient-5" x1="-0.006" y1="0.506" x2="0.988" y2="0.506" xlink:href="#linear-gradient"/>
    <linearGradient id="linear-gradient-6" x1="0" y1="0.499" x2="1" y2="0.499" xlink:href="#linear-gradient"/>
    <linearGradient id="linear-gradient-7" x1="0" y1="0.5" x2="1" y2="0.5" xlink:href="#linear-gradient"/>
    <linearGradient id="linear-gradient-8" x1="0" y1="0.5" x2="0.988" y2="0.5" xlink:href="#linear-gradient"/>
    <linearGradient id="linear-gradient-9" x1="0" y1="0.508" x2="1" y2="0.508" xlink:href="#linear-gradient"/>
    <linearGradient id="linear-gradient-10" x1="0" y1="0.504" x2="1" y2="0.504" xlink:href="#linear-gradient"/>
    <linearGradient id="linear-gradient-12" x1="-151.879" y1="-12.595" x2="-150.655" y2="-12.595" xlink:href="#linear-gradient"/>
    <linearGradient id="linear-gradient-13" x1="-46.9" y1="-147.086" x2="-45.886" y2="-147.086" xlink:href="#linear-gradient"/>
    <linearGradient id="linear-gradient-15" x1="0.013" y1="0.5" x2="1" y2="0.5" xlink:href="#linear-gradient"/>
  </defs>
  <g id="Group_5438" data-name="Group 5438" transform="translate(-1526.998 -321.685)">
    <g id="Group_5253" data-name="Group 5253" transform="translate(1526.998 321.685)">
      <g id="Group_4979" data-name="Group 4979">
        <path id="Path_26768" data-name="Path 26768" d="M220.3,159.53H187.64v-4.86H220.3Zm-31.616-1.045h30.571v-2.77H188.685Z" transform="translate(-187.64 -146.362)" fill="url(#linear-gradient)"/>
        <path id="Path_26769" data-name="Path 26769" d="M188.686,160.744l-.836-4.442,11.235-2.822,1.62,6.375-1.1.314-1.359-5.278-9.093,2.3.627,3.344Z" transform="translate(-186.751 -151.39)" fill="url(#linear-gradient-2)"/>
        <path id="Path_26770" data-name="Path 26770" d="M204.766,157.25a.921.921,0,0,1-.314-.052H188.67l3.083-.993c2.822-.941,6.323-1.881,7.473-1.306a3.681,3.681,0,0,1,4.39.157c1.568,1.15,1.934,1.515,1.62,1.986a.522.522,0,0,1-.47.261Zm-4.965-1.1h3.606s-.261-.209-.418-.314a2.586,2.586,0,0,0-3.083-.157A.776.776,0,0,1,199.8,156.152Zm-4.181,0h3.136l-.523-.366v-.1a16.5,16.5,0,0,0-2.613.47Z" transform="translate(-183.288 -148.157)" fill="url(#linear-gradient-3)"/>
        <path id="Path_26771" data-name="Path 26771" d="M198.022,160.731l-5.7-.47-.836-1.15,4.546-5.591h.314s2.665.47,3.763,2.195a3.361,3.361,0,0,1,.418,2.77v.157l-2.561,2.09Zm-5.121-1.515,4.755.418,1.934-1.62a2.26,2.26,0,0,0-.314-1.777,4.716,4.716,0,0,0-2.77-1.62l-3.658,4.494.1.1Z" transform="translate(-171.369 -151.221)" fill="url(#linear-gradient-4)"/>
        <path id="Path_26772" data-name="Path 26772" d="M192.894,156.686s-.366-3.135.47-3.344-.261-.261-.261-.261,1.829,1.045,1.463,2.3c0,0,1.254-1.829,2.561-1.359,0,0,.418,1.568-1.672,2.665,0,0,1.777-.1,1.724.993s0,.261,0,.261-.575.575-3.188,0l-1.1-1.254Z" transform="translate(-165.773 -153.08)" fill="url(#linear-gradient-5)"/>
        <path id="Path_26773" data-name="Path 26773" d="M192.171,187.314l-4.181-31.145,1.045-.1,4.076,30.2,18.97-.209,3.71-30.57.993.1-3.763,31.511Z" transform="translate(-186.161 -142.896)" fill="url(#linear-gradient-6)"/>
        <rect id="Rectangle_2543" data-name="Rectangle 2543" width="20.172" height="1.045" transform="translate(6.22 39.508)" fill="url(#linear-gradient-7)"/>
        <path id="Path_26774" data-name="Path 26774" d="M189.38,164.25l3.4-6.48.941.47-2.561,4.912h2.665l-.157.47-.1.523h-4.128Z" transform="translate(-180.285 -133.262)" fill="url(#linear-gradient-8)"/>
        <path id="Path_26775" data-name="Path 26775" d="M197.956,161.578H190.64v-1.045h5.435l-.941-1.62.888-.523Z" transform="translate(-174.96 -130.642)" fill="url(#linear-gradient-9)"/>
        <path id="Path_26776" data-name="Path 26776" d="M195.178,163.675l-2.77-4.86-1.1,2.038-.941-.47,2.038-3.763,3.71,6.532Z" transform="translate(-176.101 -138.121)" fill="url(#linear-gradient-10)"/>
        <path id="Path_26777" data-name="Path 26777" d="M192.405,160.778l-.575-1.829-1.777.627-.313-.993,2.77-.993.941,2.874Z" transform="translate(-178.766 -134.022)" fill="url(#linear-gradient-9)"/>
        <path id="Path_26778" data-name="Path 26778" d="M192.247,162.628l-1.777-2.4,2.4-1.725.627.836-1.568,1.15,1.15,1.463Z" transform="translate(-175.679 -130.178)" fill="url(#linear-gradient-12)"/>
        <path id="Path_26779" data-name="Path 26779" d="M193.762,160.685l-2.822-.888.261-.993,1.881.575.47-1.829,1.045.261Z" transform="translate(-173.694 -134.19)" fill="url(#linear-gradient-13)"/>
        <path id="Path_26780" data-name="Path 26780" d="M193.507,167.683a3.4,3.4,0,1,1,3.4-3.4A3.39,3.39,0,0,1,193.507,167.683Zm0-5.748a2.352,2.352,0,1,0,2.352,2.352A2.342,2.342,0,0,0,193.507,161.935Z" transform="translate(-177.2 -120.078)" fill="url(#linear-gradient-7)"/>
        <path id="Path_26781" data-name="Path 26781" d="M192.366,165.132a1.986,1.986,0,1,1,1.986-1.986A1.985,1.985,0,0,1,192.366,165.132Zm0-2.874a.894.894,0,0,0-.888.941.881.881,0,0,0,.888.888.915.915,0,1,0,0-1.829Z" transform="translate(-176.062 -118.936)" fill="url(#linear-gradient-15)"/>
      </g>
    </g>
    <circle id="Ellipse_1089" data-name="Ellipse 1089" cx="0.887" cy="0.887" r="0.887" transform="translate(1542.366 365.015)" fill="#0f001e"/>
  </g>
</svg>
