<svg xmlns="http://www.w3.org/2000/svg" xmlns:xlink="http://www.w3.org/1999/xlink" width="11.29" height="16.311" viewBox="0 0 11.29 16.311">
  <defs>
    <linearGradient id="linear-gradient" x1="-0.001" y1="0.5" x2="1" y2="0.5" gradientUnits="objectBoundingBox">
      <stop offset="0" stop-color="#54be9a"/>
      <stop offset="0.33" stop-color="#2cabb0"/>
      <stop offset="0.74" stop-color="#2785c0"/>
      <stop offset="1" stop-color="#3a67b0"/>
    </linearGradient>
    <linearGradient id="linear-gradient-2" x1="0" y1="0.5" x2="1" y2="0.5" xlink:href="#linear-gradient"/>
    <linearGradient id="linear-gradient-4" x1="0" y1="0.497" x2="1" y2="0.497" xlink:href="#linear-gradient"/>
    <linearGradient id="linear-gradient-5" x1="0" y1="0.497" x2="1" y2="0.497" xlink:href="#linear-gradient"/>
    <linearGradient id="linear-gradient-6" x1="0" y1="0.504" x2="1" y2="0.504" xlink:href="#linear-gradient"/>
    <linearGradient id="linear-gradient-7" x1="0" y1="0.5" x2="1" y2="0.5" xlink:href="#linear-gradient"/>
    <linearGradient id="linear-gradient-12" x1="0" y1="0.5" x2="1" y2="0.5" xlink:href="#linear-gradient"/>
  </defs>
  <g id="Group_6175" data-name="Group 6175" transform="translate(-15 -523)">
    <g id="Group_6170" data-name="Group 6170">
      <path id="Subtraction_1" data-name="Subtraction 1" d="M-4583.953-1155.251h-.364a1.276,1.276,0,0,1-.1-.495v-2.97a1.284,1.284,0,0,1,1.283-1.283h1.58a1.285,1.285,0,0,1,1.283,1.283v2.97a1.288,1.288,0,0,1-.1.494h-.376a.952.952,0,0,0,.139-.495v-2.97a.956.956,0,0,0-.955-.955h-1.58a.955.955,0,0,0-.954.955v2.97a.952.952,0,0,0,.139.495Z" transform="translate(4602.748 1691.038)" fill="url(#linear-gradient)"/>
      <g id="Rectangle_2136" data-name="Rectangle 2136" transform="translate(16.193 523.895)">
        <path id="Path_24940" data-name="Path 24940" d="M96.993,91.915h-6.56a1.28,1.28,0,0,1-1.282-1.282v-2.97a1.28,1.28,0,0,1,1.282-1.282h6.56a1.28,1.28,0,0,1,1.282,1.282v2.97A1.28,1.28,0,0,1,96.993,91.915Zm-6.56-5.356a1.1,1.1,0,0,0-1.1,1.1v2.97a1.1,1.1,0,0,0,1.1,1.1h6.56a1.1,1.1,0,0,0,1.1-1.1v-2.97a1.1,1.1,0,0,0-1.1-1.1Z" transform="translate(-89.15 -86.38)" fill="url(#linear-gradient-2)"/>
        <path id="Path_24941" data-name="Path 24941" d="M97.094,91.866h-6.56A1.133,1.133,0,0,1,89.4,90.733v-2.97a1.133,1.133,0,0,1,1.133-1.133h6.56a1.133,1.133,0,0,1,1.133,1.133v2.97A1.133,1.133,0,0,1,97.094,91.866Zm-6.56-5.057a.957.957,0,0,0-.954.954v2.97a.957.957,0,0,0,.954.954h6.56a.957.957,0,0,0,.954-.954v-2.97a.957.957,0,0,0-.954-.954Z" transform="translate(-89.251 -86.481)" fill="url(#linear-gradient-2)"/>
      </g>
      <g id="Group_3731" data-name="Group 3731" transform="translate(18.829 524.801)">
        <g id="Ellipse_1141" data-name="Ellipse 1141" transform="translate(0.698)">
          <path id="Path_24942" data-name="Path 24942" d="M95.8,90.011a1.056,1.056,0,1,1,1.056-1.056A1.058,1.058,0,0,1,95.8,90.011Zm0-1.938a.877.877,0,1,0,.877.877A.878.878,0,0,0,95.8,88.073Z" transform="translate(-94.74 -87.9)" fill="url(#linear-gradient-4)"/>
          <path id="Path_24943" data-name="Path 24943" d="M95.9,89.963a.907.907,0,1,1,.907-.907A.906.906,0,0,1,95.9,89.963Zm0-1.64a.728.728,0,1,0,.728.728A.731.731,0,0,0,95.9,88.323Z" transform="translate(-94.841 -88.001)" fill="url(#linear-gradient-5)"/>
        </g>
        <path id="Path_24944" data-name="Path 24944" d="M97.22,92.64H93.57l.054-.125c.048-.107.477-1.044.895-1.223l.024-.012h.024a.208.208,0,0,1,.083.036c.775.417,1,.256,1.193.119a.648.648,0,0,1,.3-.137h.018c.412,0,.9,1.008.99,1.217l.06.125Zm-3.37-.179H96.94c-.221-.447-.567-.984-.769-.984h-.006a.442.442,0,0,0-.215.1c-.227.161-.5.358-1.348-.089H94.59l-.03-.018a2.755,2.755,0,0,0-.71.984Z" transform="translate(-93.57 -89.264)" fill="url(#linear-gradient-6)"/>
      </g>
      <path id="Path_24947" data-name="Path 24947" d="M99.028,107.459H91.365l-.859-.769a1.139,1.139,0,1,1,1.557-1.664c.024.024.406.34.829.692v-4.3A1.01,1.01,0,0,1,93.9,100.41a.788.788,0,0,1,.167.012,1.038,1.038,0,0,1,.835,1.044v2.386l2.612,1.026A2.368,2.368,0,0,1,99.022,107h0v.453Zm-7.592-.179h7.419V107.1a2.185,2.185,0,0,0-1.4-2.046l-2.726-1.074v-2.511a.85.85,0,0,0-.692-.865.977.977,0,0,0-.137-.012.827.827,0,0,0-.829.829v4.682l-.149-.119c-.459-.382-.966-.8-.99-.823a.962.962,0,0,0-1.318,1.4l.805.722Z" transform="translate(-73.359 431.852)" fill="url(#linear-gradient-7)"/>
      <g id="Rectangle_2138" data-name="Rectangle 2138" transform="translate(23.35 532.244)">
        <path id="Path_24948" data-name="Path 24948" d="M103.118,101.155H101.15v-.775h1.968Zm-1.789-.179h1.61v-.417h-1.61Z" transform="translate(-101.15 -100.38)" fill="url(#linear-gradient-2)"/>
        <rect id="Rectangle_1994" data-name="Rectangle 1994" width="1.193" height="0.179" transform="translate(0.388 0.298)" fill="url(#linear-gradient-2)"/>
      </g>
      <g id="Rectangle_2139" data-name="Rectangle 2139" transform="translate(23.35 533.437)">
        <path id="Path_24949" data-name="Path 24949" d="M103.118,103.155H101.15v-.775h1.968Zm-1.789-.179h1.61v-.417h-1.61Z" transform="translate(-101.15 -102.38)" fill="url(#linear-gradient-2)"/>
        <rect id="Rectangle_1995" data-name="Rectangle 1995" width="1.193" height="0.179" transform="translate(0.388 0.298)" fill="url(#linear-gradient-2)"/>
      </g>
      <g id="Rectangle_2135" data-name="Rectangle 2135" transform="translate(15 523)">
        <path id="Path_24938" data-name="Path 24938" d="M95.965,97.756h-6.34a2.477,2.477,0,0,1-2.475-2.475V87.355a2.477,2.477,0,0,1,2.475-2.475h6.34a2.477,2.477,0,0,1,2.475,2.475v7.926A2.477,2.477,0,0,1,95.965,97.756Zm-6.34-12.691a2.3,2.3,0,0,0-2.3,2.3v7.926a2.3,2.3,0,0,0,2.3,2.3h6.34a2.3,2.3,0,0,0,2.3-2.3V87.361a2.3,2.3,0,0,0-2.3-2.3Z" transform="translate(-87.15 -84.88)" fill="url(#linear-gradient-12)"/>
        <path id="Path_24939" data-name="Path 24939" d="M96.066,97.708h-6.34A2.329,2.329,0,0,1,87.4,95.382V87.456a2.329,2.329,0,0,1,2.326-2.326h6.34a2.329,2.329,0,0,1,2.326,2.326v7.926A2.329,2.329,0,0,1,96.066,97.708Zm-6.34-12.393a2.149,2.149,0,0,0-2.147,2.147v7.926a2.149,2.149,0,0,0,2.147,2.147h6.34a2.15,2.15,0,0,0,2.147-2.147V87.462a2.15,2.15,0,0,0-2.147-2.147Z" transform="translate(-87.251 -84.981)" fill="url(#linear-gradient-12)"/>
      </g>
    </g>
    <g id="Group_6171" data-name="Group 6171">
      <path id="Subtraction_1-2" data-name="Subtraction 1" d="M-4583.953-1155.251h-.364a1.276,1.276,0,0,1-.1-.495v-2.97a1.284,1.284,0,0,1,1.283-1.283h1.58a1.285,1.285,0,0,1,1.283,1.283v2.97a1.288,1.288,0,0,1-.1.494h-.376a.952.952,0,0,0,.139-.495v-2.97a.956.956,0,0,0-.955-.955h-1.58a.955.955,0,0,0-.954.955v2.97a.952.952,0,0,0,.139.495Z" transform="translate(4602.748 1691.038)" fill="url(#linear-gradient)"/>
      <g id="Rectangle_2136-2" data-name="Rectangle 2136" transform="translate(16.193 523.895)">
        <path id="Path_24940-2" data-name="Path 24940" d="M96.993,91.915h-6.56a1.28,1.28,0,0,1-1.282-1.282v-2.97a1.28,1.28,0,0,1,1.282-1.282h6.56a1.28,1.28,0,0,1,1.282,1.282v2.97A1.28,1.28,0,0,1,96.993,91.915Zm-6.56-5.356a1.1,1.1,0,0,0-1.1,1.1v2.97a1.1,1.1,0,0,0,1.1,1.1h6.56a1.1,1.1,0,0,0,1.1-1.1v-2.97a1.1,1.1,0,0,0-1.1-1.1Z" transform="translate(-89.15 -86.38)" fill="url(#linear-gradient-2)"/>
        <path id="Path_24941-2" data-name="Path 24941" d="M97.094,91.866h-6.56A1.133,1.133,0,0,1,89.4,90.733v-2.97a1.133,1.133,0,0,1,1.133-1.133h6.56a1.133,1.133,0,0,1,1.133,1.133v2.97A1.133,1.133,0,0,1,97.094,91.866Zm-6.56-5.057a.957.957,0,0,0-.954.954v2.97a.957.957,0,0,0,.954.954h6.56a.957.957,0,0,0,.954-.954v-2.97a.957.957,0,0,0-.954-.954Z" transform="translate(-89.251 -86.481)" fill="url(#linear-gradient-2)"/>
      </g>
      <g id="Group_3731-2" data-name="Group 3731" transform="translate(18.829 524.801)">
        <g id="Ellipse_1141-2" data-name="Ellipse 1141" transform="translate(0.698)">
          <path id="Path_24942-2" data-name="Path 24942" d="M95.8,90.011a1.056,1.056,0,1,1,1.056-1.056A1.058,1.058,0,0,1,95.8,90.011Zm0-1.938a.877.877,0,1,0,.877.877A.878.878,0,0,0,95.8,88.073Z" transform="translate(-94.74 -87.9)" fill="url(#linear-gradient-4)"/>
          <path id="Path_24943-2" data-name="Path 24943" d="M95.9,89.963a.907.907,0,1,1,.907-.907A.906.906,0,0,1,95.9,89.963Zm0-1.64a.728.728,0,1,0,.728.728A.731.731,0,0,0,95.9,88.323Z" transform="translate(-94.841 -88.001)" fill="url(#linear-gradient-5)"/>
        </g>
        <path id="Path_24944-2" data-name="Path 24944" d="M97.22,92.64H93.57l.054-.125c.048-.107.477-1.044.895-1.223l.024-.012h.024a.208.208,0,0,1,.083.036c.775.417,1,.256,1.193.119a.648.648,0,0,1,.3-.137h.018c.412,0,.9,1.008.99,1.217l.06.125Zm-3.37-.179H96.94c-.221-.447-.567-.984-.769-.984h-.006a.442.442,0,0,0-.215.1c-.227.161-.5.358-1.348-.089H94.59l-.03-.018a2.755,2.755,0,0,0-.71.984Z" transform="translate(-93.57 -89.264)" fill="url(#linear-gradient-6)"/>
      </g>
      <path id="Path_24947-2" data-name="Path 24947" d="M99.028,107.459H91.365l-.859-.769a1.139,1.139,0,1,1,1.557-1.664c.024.024.406.34.829.692v-4.3A1.01,1.01,0,0,1,93.9,100.41a.788.788,0,0,1,.167.012,1.038,1.038,0,0,1,.835,1.044v2.386l2.612,1.026A2.368,2.368,0,0,1,99.022,107h0v.453Zm-7.592-.179h7.419V107.1a2.185,2.185,0,0,0-1.4-2.046l-2.726-1.074v-2.511a.85.85,0,0,0-.692-.865.977.977,0,0,0-.137-.012.827.827,0,0,0-.829.829v4.682l-.149-.119c-.459-.382-.966-.8-.99-.823a.962.962,0,0,0-1.318,1.4l.805.722Z" transform="translate(-73.359 431.852)" fill="url(#linear-gradient-7)"/>
      <g id="Rectangle_2138-2" data-name="Rectangle 2138" transform="translate(23.35 532.244)">
        <path id="Path_24948-2" data-name="Path 24948" d="M103.118,101.155H101.15v-.775h1.968Zm-1.789-.179h1.61v-.417h-1.61Z" transform="translate(-101.15 -100.38)" fill="url(#linear-gradient-2)"/>
        <rect id="Rectangle_1994-2" data-name="Rectangle 1994" width="1.193" height="0.179" transform="translate(0.388 0.298)" fill="url(#linear-gradient-2)"/>
      </g>
      <g id="Rectangle_2139-2" data-name="Rectangle 2139" transform="translate(23.35 533.437)">
        <path id="Path_24949-2" data-name="Path 24949" d="M103.118,103.155H101.15v-.775h1.968Zm-1.789-.179h1.61v-.417h-1.61Z" transform="translate(-101.15 -102.38)" fill="url(#linear-gradient-2)"/>
        <rect id="Rectangle_1995-2" data-name="Rectangle 1995" width="1.193" height="0.179" transform="translate(0.388 0.298)" fill="url(#linear-gradient-2)"/>
      </g>
      <g id="Rectangle_2135-2" data-name="Rectangle 2135" transform="translate(15 523)">
        <path id="Path_24938-2" data-name="Path 24938" d="M95.965,97.756h-6.34a2.477,2.477,0,0,1-2.475-2.475V87.355a2.477,2.477,0,0,1,2.475-2.475h6.34a2.477,2.477,0,0,1,2.475,2.475v7.926A2.477,2.477,0,0,1,95.965,97.756Zm-6.34-12.691a2.3,2.3,0,0,0-2.3,2.3v7.926a2.3,2.3,0,0,0,2.3,2.3h6.34a2.3,2.3,0,0,0,2.3-2.3V87.361a2.3,2.3,0,0,0-2.3-2.3Z" transform="translate(-87.15 -84.88)" fill="url(#linear-gradient-12)"/>
        <path id="Path_24939-2" data-name="Path 24939" d="M96.066,97.708h-6.34A2.329,2.329,0,0,1,87.4,95.382V87.456a2.329,2.329,0,0,1,2.326-2.326h6.34a2.329,2.329,0,0,1,2.326,2.326v7.926A2.329,2.329,0,0,1,96.066,97.708Zm-6.34-12.393a2.149,2.149,0,0,0-2.147,2.147v7.926a2.149,2.149,0,0,0,2.147,2.147h6.34a2.15,2.15,0,0,0,2.147-2.147V87.462a2.15,2.15,0,0,0-2.147-2.147Z" transform="translate(-87.251 -84.981)" fill="url(#linear-gradient-12)"/>
      </g>
    </g>
    <g id="Group_6172" data-name="Group 6172">
      <path id="Subtraction_1-3" data-name="Subtraction 1" d="M-4583.953-1155.251h-.364a1.276,1.276,0,0,1-.1-.495v-2.97a1.284,1.284,0,0,1,1.283-1.283h1.58a1.285,1.285,0,0,1,1.283,1.283v2.97a1.288,1.288,0,0,1-.1.494h-.376a.952.952,0,0,0,.139-.495v-2.97a.956.956,0,0,0-.955-.955h-1.58a.955.955,0,0,0-.954.955v2.97a.952.952,0,0,0,.139.495Z" transform="translate(4602.748 1691.038)" fill="url(#linear-gradient)"/>
      <g id="Rectangle_2136-3" data-name="Rectangle 2136" transform="translate(16.193 523.895)">
        <path id="Path_24940-3" data-name="Path 24940" d="M96.993,91.915h-6.56a1.28,1.28,0,0,1-1.282-1.282v-2.97a1.28,1.28,0,0,1,1.282-1.282h6.56a1.28,1.28,0,0,1,1.282,1.282v2.97A1.28,1.28,0,0,1,96.993,91.915Zm-6.56-5.356a1.1,1.1,0,0,0-1.1,1.1v2.97a1.1,1.1,0,0,0,1.1,1.1h6.56a1.1,1.1,0,0,0,1.1-1.1v-2.97a1.1,1.1,0,0,0-1.1-1.1Z" transform="translate(-89.15 -86.38)" fill="url(#linear-gradient-2)"/>
        <path id="Path_24941-3" data-name="Path 24941" d="M97.094,91.866h-6.56A1.133,1.133,0,0,1,89.4,90.733v-2.97a1.133,1.133,0,0,1,1.133-1.133h6.56a1.133,1.133,0,0,1,1.133,1.133v2.97A1.133,1.133,0,0,1,97.094,91.866Zm-6.56-5.057a.957.957,0,0,0-.954.954v2.97a.957.957,0,0,0,.954.954h6.56a.957.957,0,0,0,.954-.954v-2.97a.957.957,0,0,0-.954-.954Z" transform="translate(-89.251 -86.481)" fill="url(#linear-gradient-2)"/>
      </g>
      <g id="Group_3731-3" data-name="Group 3731" transform="translate(18.829 524.801)">
        <g id="Ellipse_1141-3" data-name="Ellipse 1141" transform="translate(0.698)">
          <path id="Path_24942-3" data-name="Path 24942" d="M95.8,90.011a1.056,1.056,0,1,1,1.056-1.056A1.058,1.058,0,0,1,95.8,90.011Zm0-1.938a.877.877,0,1,0,.877.877A.878.878,0,0,0,95.8,88.073Z" transform="translate(-94.74 -87.9)" fill="url(#linear-gradient-4)"/>
          <path id="Path_24943-3" data-name="Path 24943" d="M95.9,89.963a.907.907,0,1,1,.907-.907A.906.906,0,0,1,95.9,89.963Zm0-1.64a.728.728,0,1,0,.728.728A.731.731,0,0,0,95.9,88.323Z" transform="translate(-94.841 -88.001)" fill="url(#linear-gradient-5)"/>
        </g>
        <path id="Path_24944-3" data-name="Path 24944" d="M97.22,92.64H93.57l.054-.125c.048-.107.477-1.044.895-1.223l.024-.012h.024a.208.208,0,0,1,.083.036c.775.417,1,.256,1.193.119a.648.648,0,0,1,.3-.137h.018c.412,0,.9,1.008.99,1.217l.06.125Zm-3.37-.179H96.94c-.221-.447-.567-.984-.769-.984h-.006a.442.442,0,0,0-.215.1c-.227.161-.5.358-1.348-.089H94.59l-.03-.018a2.755,2.755,0,0,0-.71.984Z" transform="translate(-93.57 -89.264)" fill="url(#linear-gradient-6)"/>
      </g>
      <path id="Path_24947-3" data-name="Path 24947" d="M99.028,107.459H91.365l-.859-.769a1.139,1.139,0,1,1,1.557-1.664c.024.024.406.34.829.692v-4.3A1.01,1.01,0,0,1,93.9,100.41a.788.788,0,0,1,.167.012,1.038,1.038,0,0,1,.835,1.044v2.386l2.612,1.026A2.368,2.368,0,0,1,99.022,107h0v.453Zm-7.592-.179h7.419V107.1a2.185,2.185,0,0,0-1.4-2.046l-2.726-1.074v-2.511a.85.85,0,0,0-.692-.865.977.977,0,0,0-.137-.012.827.827,0,0,0-.829.829v4.682l-.149-.119c-.459-.382-.966-.8-.99-.823a.962.962,0,0,0-1.318,1.4l.805.722Z" transform="translate(-73.359 431.852)" fill="url(#linear-gradient-7)"/>
      <g id="Rectangle_2138-3" data-name="Rectangle 2138" transform="translate(23.35 532.244)">
        <path id="Path_24948-3" data-name="Path 24948" d="M103.118,101.155H101.15v-.775h1.968Zm-1.789-.179h1.61v-.417h-1.61Z" transform="translate(-101.15 -100.38)" fill="url(#linear-gradient-2)"/>
        <rect id="Rectangle_1994-3" data-name="Rectangle 1994" width="1.193" height="0.179" transform="translate(0.388 0.298)" fill="url(#linear-gradient-2)"/>
      </g>
      <g id="Rectangle_2139-3" data-name="Rectangle 2139" transform="translate(23.35 533.437)">
        <path id="Path_24949-3" data-name="Path 24949" d="M103.118,103.155H101.15v-.775h1.968Zm-1.789-.179h1.61v-.417h-1.61Z" transform="translate(-101.15 -102.38)" fill="url(#linear-gradient-2)"/>
        <rect id="Rectangle_1995-3" data-name="Rectangle 1995" width="1.193" height="0.179" transform="translate(0.388 0.298)" fill="url(#linear-gradient-2)"/>
      </g>
      <g id="Rectangle_2135-3" data-name="Rectangle 2135" transform="translate(15 523)">
        <path id="Path_24938-3" data-name="Path 24938" d="M95.965,97.756h-6.34a2.477,2.477,0,0,1-2.475-2.475V87.355a2.477,2.477,0,0,1,2.475-2.475h6.34a2.477,2.477,0,0,1,2.475,2.475v7.926A2.477,2.477,0,0,1,95.965,97.756Zm-6.34-12.691a2.3,2.3,0,0,0-2.3,2.3v7.926a2.3,2.3,0,0,0,2.3,2.3h6.34a2.3,2.3,0,0,0,2.3-2.3V87.361a2.3,2.3,0,0,0-2.3-2.3Z" transform="translate(-87.15 -84.88)" fill="url(#linear-gradient-12)"/>
        <path id="Path_24939-3" data-name="Path 24939" d="M96.066,97.708h-6.34A2.329,2.329,0,0,1,87.4,95.382V87.456a2.329,2.329,0,0,1,2.326-2.326h6.34a2.329,2.329,0,0,1,2.326,2.326v7.926A2.329,2.329,0,0,1,96.066,97.708Zm-6.34-12.393a2.149,2.149,0,0,0-2.147,2.147v7.926a2.149,2.149,0,0,0,2.147,2.147h6.34a2.15,2.15,0,0,0,2.147-2.147V87.462a2.15,2.15,0,0,0-2.147-2.147Z" transform="translate(-87.251 -84.981)" fill="url(#linear-gradient-12)"/>
      </g>
    </g>
    <g id="Group_6173" data-name="Group 6173">
      <path id="Subtraction_1-4" data-name="Subtraction 1" d="M-4583.953-1155.251h-.364a1.276,1.276,0,0,1-.1-.495v-2.97a1.284,1.284,0,0,1,1.283-1.283h1.58a1.285,1.285,0,0,1,1.283,1.283v2.97a1.288,1.288,0,0,1-.1.494h-.376a.952.952,0,0,0,.139-.495v-2.97a.956.956,0,0,0-.955-.955h-1.58a.955.955,0,0,0-.954.955v2.97a.952.952,0,0,0,.139.495Z" transform="translate(4602.748 1691.038)" fill="url(#linear-gradient)"/>
      <g id="Rectangle_2136-4" data-name="Rectangle 2136" transform="translate(16.193 523.895)">
        <path id="Path_24940-4" data-name="Path 24940" d="M96.993,91.915h-6.56a1.28,1.28,0,0,1-1.282-1.282v-2.97a1.28,1.28,0,0,1,1.282-1.282h6.56a1.28,1.28,0,0,1,1.282,1.282v2.97A1.28,1.28,0,0,1,96.993,91.915Zm-6.56-5.356a1.1,1.1,0,0,0-1.1,1.1v2.97a1.1,1.1,0,0,0,1.1,1.1h6.56a1.1,1.1,0,0,0,1.1-1.1v-2.97a1.1,1.1,0,0,0-1.1-1.1Z" transform="translate(-89.15 -86.38)" fill="url(#linear-gradient-2)"/>
        <path id="Path_24941-4" data-name="Path 24941" d="M97.094,91.866h-6.56A1.133,1.133,0,0,1,89.4,90.733v-2.97a1.133,1.133,0,0,1,1.133-1.133h6.56a1.133,1.133,0,0,1,1.133,1.133v2.97A1.133,1.133,0,0,1,97.094,91.866Zm-6.56-5.057a.957.957,0,0,0-.954.954v2.97a.957.957,0,0,0,.954.954h6.56a.957.957,0,0,0,.954-.954v-2.97a.957.957,0,0,0-.954-.954Z" transform="translate(-89.251 -86.481)" fill="url(#linear-gradient-2)"/>
      </g>
      <g id="Group_3731-4" data-name="Group 3731" transform="translate(18.829 524.801)">
        <g id="Ellipse_1141-4" data-name="Ellipse 1141" transform="translate(0.698)">
          <path id="Path_24942-4" data-name="Path 24942" d="M95.8,90.011a1.056,1.056,0,1,1,1.056-1.056A1.058,1.058,0,0,1,95.8,90.011Zm0-1.938a.877.877,0,1,0,.877.877A.878.878,0,0,0,95.8,88.073Z" transform="translate(-94.74 -87.9)" fill="url(#linear-gradient-4)"/>
          <path id="Path_24943-4" data-name="Path 24943" d="M95.9,89.963a.907.907,0,1,1,.907-.907A.906.906,0,0,1,95.9,89.963Zm0-1.64a.728.728,0,1,0,.728.728A.731.731,0,0,0,95.9,88.323Z" transform="translate(-94.841 -88.001)" fill="url(#linear-gradient-5)"/>
        </g>
        <path id="Path_24944-4" data-name="Path 24944" d="M97.22,92.64H93.57l.054-.125c.048-.107.477-1.044.895-1.223l.024-.012h.024a.208.208,0,0,1,.083.036c.775.417,1,.256,1.193.119a.648.648,0,0,1,.3-.137h.018c.412,0,.9,1.008.99,1.217l.06.125Zm-3.37-.179H96.94c-.221-.447-.567-.984-.769-.984h-.006a.442.442,0,0,0-.215.1c-.227.161-.5.358-1.348-.089H94.59l-.03-.018a2.755,2.755,0,0,0-.71.984Z" transform="translate(-93.57 -89.264)" fill="url(#linear-gradient-6)"/>
      </g>
      <path id="Path_24947-4" data-name="Path 24947" d="M99.028,107.459H91.365l-.859-.769a1.139,1.139,0,1,1,1.557-1.664c.024.024.406.34.829.692v-4.3A1.01,1.01,0,0,1,93.9,100.41a.788.788,0,0,1,.167.012,1.038,1.038,0,0,1,.835,1.044v2.386l2.612,1.026A2.368,2.368,0,0,1,99.022,107h0v.453Zm-7.592-.179h7.419V107.1a2.185,2.185,0,0,0-1.4-2.046l-2.726-1.074v-2.511a.85.85,0,0,0-.692-.865.977.977,0,0,0-.137-.012.827.827,0,0,0-.829.829v4.682l-.149-.119c-.459-.382-.966-.8-.99-.823a.962.962,0,0,0-1.318,1.4l.805.722Z" transform="translate(-73.359 431.852)" fill="url(#linear-gradient-7)"/>
      <g id="Rectangle_2138-4" data-name="Rectangle 2138" transform="translate(23.35 532.244)">
        <path id="Path_24948-4" data-name="Path 24948" d="M103.118,101.155H101.15v-.775h1.968Zm-1.789-.179h1.61v-.417h-1.61Z" transform="translate(-101.15 -100.38)" fill="url(#linear-gradient-2)"/>
        <rect id="Rectangle_1994-4" data-name="Rectangle 1994" width="1.193" height="0.179" transform="translate(0.388 0.298)" fill="url(#linear-gradient-2)"/>
      </g>
      <g id="Rectangle_2139-4" data-name="Rectangle 2139" transform="translate(23.35 533.437)">
        <path id="Path_24949-4" data-name="Path 24949" d="M103.118,103.155H101.15v-.775h1.968Zm-1.789-.179h1.61v-.417h-1.61Z" transform="translate(-101.15 -102.38)" fill="url(#linear-gradient-2)"/>
        <rect id="Rectangle_1995-4" data-name="Rectangle 1995" width="1.193" height="0.179" transform="translate(0.388 0.298)" fill="url(#linear-gradient-2)"/>
      </g>
      <g id="Rectangle_2135-4" data-name="Rectangle 2135" transform="translate(15 523)">
        <path id="Path_24938-4" data-name="Path 24938" d="M95.965,97.756h-6.34a2.477,2.477,0,0,1-2.475-2.475V87.355a2.477,2.477,0,0,1,2.475-2.475h6.34a2.477,2.477,0,0,1,2.475,2.475v7.926A2.477,2.477,0,0,1,95.965,97.756Zm-6.34-12.691a2.3,2.3,0,0,0-2.3,2.3v7.926a2.3,2.3,0,0,0,2.3,2.3h6.34a2.3,2.3,0,0,0,2.3-2.3V87.361a2.3,2.3,0,0,0-2.3-2.3Z" transform="translate(-87.15 -84.88)" fill="url(#linear-gradient-12)"/>
        <path id="Path_24939-4" data-name="Path 24939" d="M96.066,97.708h-6.34A2.329,2.329,0,0,1,87.4,95.382V87.456a2.329,2.329,0,0,1,2.326-2.326h6.34a2.329,2.329,0,0,1,2.326,2.326v7.926A2.329,2.329,0,0,1,96.066,97.708Zm-6.34-12.393a2.149,2.149,0,0,0-2.147,2.147v7.926a2.149,2.149,0,0,0,2.147,2.147h6.34a2.15,2.15,0,0,0,2.147-2.147V87.462a2.15,2.15,0,0,0-2.147-2.147Z" transform="translate(-87.251 -84.981)" fill="url(#linear-gradient-12)"/>
      </g>
    </g>
  </g>
</svg>
