<svg xmlns="http://www.w3.org/2000/svg" xmlns:xlink="http://www.w3.org/1999/xlink" width="14.295" height="14.735" viewBox="0 0 14.295 14.735">
  <defs>
    <linearGradient id="linear-gradient" x1="0.5" x2="0.5" y2="1" gradientUnits="objectBoundingBox">
      <stop offset="0" stop-color="#56be9a"/>
      <stop offset="0.33" stop-color="#2cabb0"/>
      <stop offset="0.76" stop-color="#2a85bf"/>
      <stop offset="1" stop-color="#3a67b0"/>
    </linearGradient>
  </defs>
  <path id="Path_16641" data-name="Path 16641" d="M7.7,14.73a.687.687,0,0,1-.24-.05.625.625,0,0,1-.2-.13.571.571,0,0,1-.13-.21.682.682,0,0,1-.05-.23.62.62,0,0,1,.18-.44.21.21,0,0,1,.08-.06v-2.1l.24.2a1.041,1.041,0,0,0,.36.19l.11.03V13.6a.378.378,0,0,1,.08.07.571.571,0,0,1,.13.21.635.635,0,0,1,.05.23.519.519,0,0,1-.05.24.594.594,0,0,1-.33.33.687.687,0,0,1-.24.05Zm-.06-2.62v1.68l-.07.04-.06.03a.075.075,0,0,0-.03.03.31.31,0,0,0-.09.22.254.254,0,0,0,.02.12.413.413,0,0,0,.07.11.242.242,0,0,0,.1.06.358.358,0,0,0,.25,0A.286.286,0,0,0,8,14.23a.37.37,0,0,0,0-.24.413.413,0,0,0-.07-.11.187.187,0,0,0-.04-.03l-.06-.02-.06-.1V12.16a1.173,1.173,0,0,1-.11-.05ZM4.59,14.73a.687.687,0,0,1-.24-.05.594.594,0,0,1-.33-.33.687.687,0,0,1-.05-.24.519.519,0,0,1,.05-.24.625.625,0,0,1,.13-.2.617.617,0,0,1,.67-.13.69.69,0,0,1,.2.13c.02.02.03.04.05.05H6.2V11.9l.09-.04a1.34,1.34,0,0,0,.37-.25l.26-.25v2.85H6.89a.419.419,0,0,1-.09.14.349.349,0,0,1-.24.1H5.11a1.1,1.1,0,0,1-.08.1.625.625,0,0,1-.2.13.593.593,0,0,1-.23.05Zm0-.94a.31.31,0,0,0-.22.09.359.359,0,0,0-.07.1.254.254,0,0,0-.02.12.3.3,0,0,0,.02.13.315.315,0,0,0,.17.17.331.331,0,0,0,.24,0,.413.413,0,0,0,.11-.07.359.359,0,0,0,.07-.1l.04-.09H6.57s.03,0,.04-.01a.076.076,0,0,0,.02-.04v-.13h0V12.03s-.08.05-.12.07v1.93H4.9l-.04-.09a.381.381,0,0,1-.05-.06.242.242,0,0,0-.1-.06.254.254,0,0,0-.12-.02Zm5.52-.37a.6.6,0,0,1-.24-.05.483.483,0,0,1-.2-.14.265.265,0,0,1-.05-.06H8.75a.359.359,0,0,1-.36-.36v-.83l.1-.03a.563.563,0,0,1,.1-.02,1.32,1.32,0,0,0,.3-.1l.21-.1v.73h.51s.04-.05.07-.08a.718.718,0,0,1,.2-.14.471.471,0,0,1,.16-.04l-.07-.14.39.18a.761.761,0,0,1,.19.12.642.642,0,0,1,.14.21.6.6,0,0,1,0,.48.594.594,0,0,1-.33.33.856.856,0,0,1-.23.05ZM9.85,13l.03.03a.311.311,0,0,0,.35.07.286.286,0,0,0,.17-.17.274.274,0,0,0,.02-.13.318.318,0,0,0-.02-.13.229.229,0,0,0-.07-.1.218.218,0,0,0-.08-.05h-.02a.255.255,0,0,0-.24,0,.359.359,0,0,0-.1.07c-.01.01-.03.04-.05.06a.146.146,0,0,1-.03.05l-.04.07H8.8V12.2l-.12.03v.6s.03.06.06.06H9.78l.04.07a.321.321,0,0,0,.03.05h0Zm-5.53.07h0a.687.687,0,0,1-.24-.05.858.858,0,0,1-.2-.13.6.6,0,0,1-.13-.66.625.625,0,0,1,.13-.2.6.6,0,0,1,.43-.18.434.434,0,0,1,.23.05.625.625,0,0,1,.2.13c.03.03.05.06.07.08h.38v-.26l.18.04.09.03.05.02a.45.45,0,0,1,.08.02v-.09l.05.09h.25v1.09l-.17-.3a.361.361,0,0,1-.2.06H4.78l-.05.07a.607.607,0,0,1-.44.19Zm0-.93a.31.31,0,0,0-.22.09.359.359,0,0,0-.07.1.331.331,0,0,0,0,.24.607.607,0,0,0,.07.1.359.359,0,0,0,.1.07.254.254,0,0,0,.12.02h0a.31.31,0,0,0,.22-.09s.02-.03.03-.05l.04-.1.12-.02h.83s.03,0,.04-.02a.07.07,0,0,0,.02-.04v-.2a.892.892,0,0,1-.11-.02v.17H4.66l-.07-.12a.737.737,0,0,0-.05-.06.7.7,0,0,0-.09-.06c-.04-.02-.09-.04-.12-.02Zm1.67-.41a1.242,1.242,0,0,1-.33-.04,1.416,1.416,0,0,1-.55-.27,1.607,1.607,0,0,1-.33-.36,1.43,1.43,0,0,1-.17-.38.59.59,0,0,1-.14-.02,1.332,1.332,0,0,1-.19-.05,2.162,2.162,0,0,1-.43-.22,1.654,1.654,0,0,1-.37-.33,1.769,1.769,0,0,1-.28-.43,2.134,2.134,0,0,1-.15-.49,1.408,1.408,0,0,1-.01-.29.974.974,0,0,1,.02-.24,1.372,1.372,0,0,1-.16-.18c-.06-.07-.11-.15-.16-.22a1.458,1.458,0,0,1-.2-.44,1.543,1.543,0,0,1,.02-.95,1.948,1.948,0,0,1,.24-.45,1.844,1.844,0,0,1,.23-.25c.08-.07.16-.14.25-.21V5.79a1.69,1.69,0,0,1,.13-.63,1.81,1.81,0,0,1,.31-.54,1.611,1.611,0,0,1,.44-.38,1.277,1.277,0,0,1,.47-.18V4.04a.493.493,0,0,1,.04-.09,1.144,1.144,0,0,1,.25-.42,1.337,1.337,0,0,1,.39-.32,1.419,1.419,0,0,1,.98-.18,1.277,1.277,0,0,1,.49.22,1.518,1.518,0,0,1,.31.31,1.143,1.143,0,0,1,.31-.31l.17-.12.02.05a1.755,1.755,0,0,1,.32-.12,1.188,1.188,0,0,1,.46-.01,1.469,1.469,0,0,1,.45.14,1.442,1.442,0,0,1,.37.26,1.216,1.216,0,0,1,.27.36.774.774,0,0,1,.07.16.69.69,0,0,0,.04.1.554.554,0,0,1,.18.02,1.055,1.055,0,0,1,.24.06,1.513,1.513,0,0,1,.44.22,1.942,1.942,0,0,1,.37.33,1.65,1.65,0,0,1,.29.45,1.757,1.757,0,0,1,.13.5v.26a.784.784,0,0,1-.02.22,1.123,1.123,0,0,1,.18.2,2.2,2.2,0,0,1,.17.25,1.785,1.785,0,0,1,.18.43,1.726,1.726,0,0,1,.05.45,1.54,1.54,0,0,1-.32.9,2.848,2.848,0,0,1-.23.26c-.08.08-.17.14-.25.21a2,2,0,0,1-.08.59,2.047,2.047,0,0,1-.27.58,1.607,1.607,0,0,1-.45.45,1.3,1.3,0,0,1-.51.22,1.251,1.251,0,0,1-.2.4,1.41,1.41,0,0,1-.37.36,1.677,1.677,0,0,1-.61.27,1.534,1.534,0,0,1-.64-.01,1.265,1.265,0,0,1-.46-.24,1.309,1.309,0,0,1-.27-.31,1.722,1.722,0,0,1-.32.34,1.26,1.26,0,0,1-.79.27Zm-1.3-1.36a.211.211,0,0,1,.19.16,1.349,1.349,0,0,0,.14.35,1.062,1.062,0,0,0,.27.29,1.183,1.183,0,0,0,.45.22,1.017,1.017,0,0,0,.86-.17,1.221,1.221,0,0,0,.32-.36l.03-.05.08-.04a.221.221,0,0,1,.27.1,1.128,1.128,0,0,0,.27.34.95.95,0,0,0,.85.18,1.32,1.32,0,0,0,.5-.22,1.376,1.376,0,0,0,.3-.29.928.928,0,0,0,.16-.35.2.2,0,0,1,.19-.17,1.188,1.188,0,0,0,.42-.18,1.375,1.375,0,0,0,.38-.38,1.447,1.447,0,0,0,.22-.49,1.661,1.661,0,0,0,.06-.54.2.2,0,0,1,.09-.18A1.709,1.709,0,0,0,11,8.38a2.089,2.089,0,0,0,.2-.22,1.27,1.27,0,0,0,.26-.73,1.553,1.553,0,0,0-.04-.37,1.2,1.2,0,0,0-.15-.35,1.009,1.009,0,0,0-.15-.21c-.06-.07-.12-.13-.18-.19a.211.211,0,0,1-.07-.2.892.892,0,0,0,.03-.22V5.66a1.465,1.465,0,0,0-.11-.41,1.309,1.309,0,0,0-.24-.37,1.784,1.784,0,0,0-.32-.29,1.216,1.216,0,0,0-.36-.18,1.332,1.332,0,0,0-.19-.05.723.723,0,0,0-.21-.01.212.212,0,0,1-.2-.17.3.3,0,0,0-.04-.11c-.02-.04-.04-.09-.06-.13a1.011,1.011,0,0,0-.22-.28,1.655,1.655,0,0,0-.3-.22,1.425,1.425,0,0,0-.35-.11,1.368,1.368,0,0,0-.35.01,1.171,1.171,0,0,0-.38.17l-.17.12h0a.662.662,0,0,0-.14.18l-.03.05-.04.02h0a.217.217,0,0,1-.29-.05,1.351,1.351,0,0,0-.32-.35,1.038,1.038,0,0,0-.37-.17,1.21,1.21,0,0,0-.38,0,1.091,1.091,0,0,0-.39.15,1.3,1.3,0,0,0-.31.26.916.916,0,0,0-.19.33c-.01.03-.02.04-.02.06l-.02.06a.225.225,0,0,1-.21.17,1.006,1.006,0,0,0-.38.15,1.221,1.221,0,0,0-.36.32,1.733,1.733,0,0,0-.37.99v.19a.238.238,0,0,1-.1.15c-.08.06-.16.13-.24.2a1.3,1.3,0,0,0-.19.22,1.179,1.179,0,0,0-.19.37,1.235,1.235,0,0,0-.02.76A1.462,1.462,0,0,0,3,8.05a2.426,2.426,0,0,0,.14.2c.05.06.1.11.16.17a.25.25,0,0,1,.08.19,1.3,1.3,0,0,0-.03.26,1.927,1.927,0,0,0,.01.24,1.419,1.419,0,0,0,.12.4,1.805,1.805,0,0,0,.24.37,1.139,1.139,0,0,0,.31.27,2.049,2.049,0,0,0,.36.19c.04.01.1.03.16.04a.875.875,0,0,0,.16.02h0Zm-.04.3h0Zm4.96-.01h0Zm.05-.08v0Zm1.46-4.5ZM9.54,4.11Zm-.08-.06ZM4.64,4.04Zm1.35,7.25a.986.986,0,0,1-.24-.03,1.046,1.046,0,0,1-.38-.19,1.18,1.18,0,0,1-.27-.32,1.032,1.032,0,0,1-.11-.39c0-.54.36-.72.68-.89a.074.074,0,1,0-.07-.13,1.138,1.138,0,0,0-.71.71.216.216,0,0,1-.21.16h0a.45.45,0,0,1-.14-.02.419.419,0,0,1-.15-.04,1.681,1.681,0,0,1-.3-.15,1.546,1.546,0,0,1-.27-.24,1.155,1.155,0,0,1-.21-.33,1.2,1.2,0,0,1-.1-.37,1.405,1.405,0,0,1,0-.29.937.937,0,0,1,.06-.28V8.44a.085.085,0,0,0-.03-.05,1.416,1.416,0,0,1-.22-.2,1.242,1.242,0,0,1-.17-.23,1.3,1.3,0,0,1-.14-.32,1.27,1.27,0,0,1-.05-.34,1.073,1.073,0,0,1,.06-.35,1.227,1.227,0,0,1,.17-.32,2.725,2.725,0,0,1,.23-.25,3.3,3.3,0,0,1,.3-.22.187.187,0,0,0,.03-.04V6.09c0-.05-.01-.1-.01-.15V5.81a1.28,1.28,0,0,1,.09-.48,1.409,1.409,0,0,1,.22-.42,1.274,1.274,0,0,1,.27-.25,1.036,1.036,0,0,1,.32-.15.166.166,0,0,1,.15.02.237.237,0,0,1,.11.13v.03a1.009,1.009,0,0,0,.25.41h0l.05.05a.043.043,0,0,0,.04.02c.02,0,.03,0,.04-.02a.142.142,0,0,0,.02-.06.04.04,0,0,0-.02-.04.8.8,0,0,1-.26-.42.773.773,0,0,1,0-.52.923.923,0,0,1,.18-.3,1.086,1.086,0,0,1,.26-.22,1.063,1.063,0,0,1,.34-.12.915.915,0,0,1,.33,0,.835.835,0,0,1,.46.27,1.4,1.4,0,0,1,.29.5c0,.01.04.03.07.04h.11a.164.164,0,0,0,.1-.02c.02,0,.03,0,.04-.02a.765.765,0,0,1,.24-.49,1.037,1.037,0,0,1,.48-.3,1.229,1.229,0,0,1,.33-.01.842.842,0,0,1,.27.08l.04.02a1.51,1.51,0,0,1,.26.18.832.832,0,0,1,.19.26.748.748,0,0,1,.09.51.645.645,0,0,1-.17.42c0,.01-.02.03-.01.05v.03l.02.02s.04.01.04.02.03,0,.04-.02l.04-.04a1.032,1.032,0,0,0,.14-.3V4.62l.05-.03a.27.27,0,0,1,.2-.09h.14a1.17,1.17,0,0,1,.2.05,1.912,1.912,0,0,1,.32.16,1.156,1.156,0,0,1,.28.26,1.852,1.852,0,0,1,.21.33,1.256,1.256,0,0,1,.1.38,1.309,1.309,0,0,1,0,.28,1.221,1.221,0,0,1-.06.26.091.091,0,0,0,.03.1,1.394,1.394,0,0,1,.25.23,1.641,1.641,0,0,1,.19.25.932.932,0,0,1,.13.31,1.035,1.035,0,0,1-.03.65,1.345,1.345,0,0,1-.17.31,1.421,1.421,0,0,1-.24.25,1.688,1.688,0,0,1-.31.21c-.04.05-.04.07-.04.09a1.855,1.855,0,0,1-.03.58,1.644,1.644,0,0,1-.22.51,1.374,1.374,0,0,1-.26.28,1.062,1.062,0,0,1-.33.18.2.2,0,0,1-.26-.11,1.052,1.052,0,0,0-.64-.69H8.7l-.04-.02H8.62a.066.066,0,0,0-.05.04.074.074,0,0,0,.04.09c.32.16.65.32.64.83a.787.787,0,0,1-.12.42,1.15,1.15,0,0,1-.32.34,1.138,1.138,0,0,1-.42.19,1.087,1.087,0,0,1-.44,0,.81.81,0,0,1-.53-.44,1.777,1.777,0,0,1-.18-.55v-.04a.044.044,0,0,0-.03-.01.28.28,0,0,0-.11-.02H7.05l-.21.02.15.02v.03a1.683,1.683,0,0,1-.3.65.959.959,0,0,1-.53.35,1.1,1.1,0,0,1-.18.02ZM5.63,9.04a.364.364,0,0,1,.33.2.385.385,0,0,1-.15.5c-.35.18-.52.28-.52.62a.59.59,0,0,0,.07.25,1.01,1.01,0,0,0,.19.23.658.658,0,0,0,.28.13.5.5,0,0,0,.27,0,.589.589,0,0,0,.35-.23,1.4,1.4,0,0,0,.25-.54.319.319,0,0,1,.28-.3.542.542,0,0,1,.15-.02.364.364,0,0,1,.15.02.331.331,0,0,1,.26.29,1.3,1.3,0,0,0,.15.47.536.536,0,0,0,.33.28.757.757,0,0,0,.3,0,.919.919,0,0,0,.32-.14.684.684,0,0,0,.23-.25.53.53,0,0,0,.08-.27c0-.31-.15-.4-.48-.56a.383.383,0,0,1-.17-.5.389.389,0,0,1,.22-.18.338.338,0,0,1,.26.02h0a1.357,1.357,0,0,1,.81.78.56.56,0,0,0,.15-.1,1.446,1.446,0,0,0,.21-.22,1.031,1.031,0,0,0,.18-.4,1.429,1.429,0,0,0,.03-.46.511.511,0,0,1,.03-.22.353.353,0,0,1,.16-.18,1.51,1.51,0,0,0,.26-.18,1.19,1.19,0,0,0,.19-.2,1.046,1.046,0,0,0,.13-.23.757.757,0,0,0,.02-.47.72.72,0,0,0-.1-.24.834.834,0,0,0-.16-.21,1.071,1.071,0,0,0-.19-.18.375.375,0,0,1-.15-.44,1.291,1.291,0,0,0,.05-.21V5.7a.7.7,0,0,0-.08-.29.782.782,0,0,0-.17-.26,1,1,0,0,0-.21-.2,1.188,1.188,0,0,0-.25-.13.277.277,0,0,0-.13-.03H9.49a1.089,1.089,0,0,1-.22.41l-.07.06a.346.346,0,0,1-.2.07.384.384,0,0,1-.21-.05h0l-.05-.04a.351.351,0,0,1-.12-.25.376.376,0,0,1,.09-.26.4.4,0,0,0,.1-.25.488.488,0,0,0-.06-.34.623.623,0,0,0-.14-.18c-.05-.04-.11-.08-.16-.12l-.03-.02a.864.864,0,0,0-.21-.07,1.472,1.472,0,0,0-.21,0,.8.8,0,0,0-.34.22.48.48,0,0,0-.15.31v.08a.385.385,0,0,1-.26.19c-.04.01-.1.02-.15.03H6.93a.367.367,0,0,1-.31-.23,1.059,1.059,0,0,0-.24-.41.622.622,0,0,0-.3-.18.884.884,0,0,0-.23,0,.619.619,0,0,0-.24.08A.95.95,0,0,0,5.42,4a.719.719,0,0,0-.12.21.469.469,0,0,0,0,.33.533.533,0,0,0,.17.28.337.337,0,0,1,.12.26.392.392,0,0,1-.09.26.351.351,0,0,1-.25.12.274.274,0,0,1-.23-.08l-.03-.02a1.224,1.224,0,0,1-.36-.53.392.392,0,0,0-.14.08,1,1,0,0,0-.21.2,1.289,1.289,0,0,0-.17.33,1.021,1.021,0,0,0-.07.38v.23a.409.409,0,0,1-.03.22.556.556,0,0,1-.14.16,1.742,1.742,0,0,0-.26.19,1.8,1.8,0,0,0-.19.2.7.7,0,0,0-.13.24.727.727,0,0,0-.04.25,1.068,1.068,0,0,0,.03.25,1.118,1.118,0,0,0,.11.25A1.33,1.33,0,0,0,3.53,8a.934.934,0,0,0,.18.16.4.4,0,0,1,.14.19.358.358,0,0,1,0,.25.712.712,0,0,0-.04.21.809.809,0,0,0,0,.22.9.9,0,0,0,.08.28,1.057,1.057,0,0,0,.17.26,1.368,1.368,0,0,0,.22.19.9.9,0,0,0,.24.12.471.471,0,0,0,.09.03h.05a1.428,1.428,0,0,1,.86-.84.319.319,0,0,1,.14-.03Zm-1.02.92v0Zm.08-.05Zm4.83-.03h0ZM4.71,4.81h0Zm7.66,6.06a.687.687,0,0,1-.24-.05.578.578,0,0,1-.2-.13.716.716,0,0,1-.13-.19l-.03-.07v-.02a.651.651,0,0,1,.04-.39.641.641,0,0,1,.13-.19.55.55,0,0,1,.09-.07V9.25h-.91v-.3a.336.336,0,0,1,.07-.17c.11-.08.19-.14.27-.21l.04-.04h.88a.359.359,0,0,1,.36.36v.88a.381.381,0,0,0,.06.05.625.625,0,0,1,.13.2.687.687,0,0,1,.05.24.593.593,0,0,1-.05.23.69.69,0,0,1-.13.2.661.661,0,0,1-.2.14.687.687,0,0,1-.24.05Zm-.26-.43a.274.274,0,0,1,.04.05.437.437,0,0,0,.1.06.311.311,0,0,0,.35-.07.413.413,0,0,0,.07-.11.5.5,0,0,0,.02-.12.254.254,0,0,0-.02-.12.673.673,0,0,0-.07-.11c-.01,0-.03-.02-.05-.04l-.1-.06V8.88s-.03-.06-.06-.06h-.77l-.15.12h.86v.97l-.07.04a.592.592,0,0,1-.06.04.391.391,0,0,0-.05.04.242.242,0,0,0-.06.1.331.331,0,0,0,0,.24l.03.07Zm-9.84.42a.687.687,0,0,1-.24-.05.533.533,0,0,1-.19-.13.586.586,0,0,1-.13-.19.612.612,0,0,1,.13-.68c.02-.02.05-.04.07-.06V9.02a.347.347,0,0,1,.1-.25.358.358,0,0,1,.22-.11h.6l-.03.17a1.1,1.1,0,0,1-.02.18v.36H2.61v.38s.05.04.08.06a.626.626,0,0,1,.14.68.533.533,0,0,1-.13.19.6.6,0,0,1-.21.14.587.587,0,0,1-.23.04ZM2.3,8.95H2.27s-.03,0-.04.02a.076.076,0,0,0-.02.04v.92l-.1.04a.682.682,0,0,1-.07.05.323.323,0,0,0-.07.35.351.351,0,0,0,.17.17.331.331,0,0,0,.24,0,.879.879,0,0,0,.1-.06.607.607,0,0,0,.07-.1.331.331,0,0,0,0-.24.359.359,0,0,0-.07-.1c-.01,0-.04-.03-.06-.04l-.11-.07V9.08h.17V8.97H2.29ZM.62,10.59a.687.687,0,0,1-.24-.05.578.578,0,0,1-.2-.13.586.586,0,0,1-.13-.19.636.636,0,0,1,0-.47.625.625,0,0,1,.13-.2,1.063,1.063,0,0,1,.11-.09V8.01a.4.4,0,0,1,.1-.25.347.347,0,0,1,.25-.1H2.2l.03.1a1.558,1.558,0,0,0,.17.37l.15.23H1V9.48a.274.274,0,0,0,.05.04.6.6,0,0,1,.14.21.6.6,0,0,1,0,.48.556.556,0,0,1-.34.33.6.6,0,0,1-.24.05ZM.63,7.95a.078.078,0,0,0-.05.02V9.64l-.09.04a.631.631,0,0,0-.1.07.413.413,0,0,0-.07.11.331.331,0,0,0,0,.24.413.413,0,0,0,.07.11.242.242,0,0,0,.1.06.358.358,0,0,0,.25,0,.286.286,0,0,0,.17-.17.274.274,0,0,0,.02-.13.254.254,0,0,0-.02-.12.359.359,0,0,0-.07-.1c-.01,0-.03-.02-.04-.03L.71,9.68v-.1L.7,8.08H2.02s-.03-.07-.05-.11H.63Zm7.41.58H6.91l-.12-.41H6.14l-.12.41H4.91L5.96,5.75H7.01L7.9,8.12V5.74H8.97V8.52H8.05Zm-.91-.3H7.6L6.79,6.05H6.47l.47,1.53H5.99l.47-1.53h-.3L5.34,8.23h.45l.12-.41h1.1l.12.41Zm1.05,0h.47V6.05H8.18ZM6.39,7.28h.14l-.07-.23-.07.23Zm7.29,1.18a.593.593,0,0,1-.23-.05.578.578,0,0,1-.2-.13.555.555,0,0,1-.06-.08H11.8l.1-.22a.866.866,0,0,0,.05-.12,1.015,1.015,0,0,0,.06-.25l.02-.13h1.16a.8.8,0,0,1,.06-.08.533.533,0,0,1,.2-.13.636.636,0,0,1,.47,0,.594.594,0,0,1,.33.33.6.6,0,0,1,.05.24.556.556,0,0,1-.05.23.612.612,0,0,1-.33.34.687.687,0,0,1-.24.05ZM12.25,7.9h1.11l.06.13.03.03a.359.359,0,0,0,.1.07.331.331,0,0,0,.24,0,.286.286,0,0,0,.17-.17.254.254,0,0,0,.02-.12.234.234,0,0,0-.02-.12.286.286,0,0,0-.17-.17.311.311,0,0,0-.35.07.218.218,0,0,0-.04.05h0a.062.062,0,0,1-.02.04l-.04.07H12.27l-.03.12ZM.63,7.48h0A.593.593,0,0,1,.4,7.43a.583.583,0,0,1-.33-.34.873.873,0,0,1-.05-.22.7.7,0,0,1,.05-.25.629.629,0,0,1,.34-.34.672.672,0,0,1,.24-.04.593.593,0,0,1,.23.05.69.69,0,0,1,.2.13.5.5,0,0,1,.07.08H2.38l-.14.34a1.015,1.015,0,0,0-.06.25l-.02.13H1.14s-.04.05-.06.08a.625.625,0,0,1-.2.13.593.593,0,0,1-.23.05ZM.62,6.55a.352.352,0,0,0-.12.02.286.286,0,0,0-.17.17.254.254,0,0,0-.02.12.345.345,0,0,0,.03.13.286.286,0,0,0,.17.17c.04.02.07.01.12.02a.254.254,0,0,0,.12-.02.359.359,0,0,0,.1-.07c.01-.01.02-.03.03-.04A.471.471,0,0,1,.9,7l.04-.07h.94s.02-.08.03-.11H.95L.87,6.69a.187.187,0,0,1-.03-.04.359.359,0,0,0-.1-.07.132.132,0,0,0-.12-.02Zm12.96.52H11.99l-.03-.11a2.169,2.169,0,0,0-.15-.35l-.13-.26h1.63V5.22a.274.274,0,0,0-.05-.04.9.9,0,0,1-.14-.2.636.636,0,0,1,.13-.67.533.533,0,0,1,.2-.13.687.687,0,0,1,.24-.05.852.852,0,0,1,.23.04.594.594,0,0,1,.33.33.687.687,0,0,1,.05.24.593.593,0,0,1-.05.23.625.625,0,0,1-.13.2c-.04.03-.07.06-.11.09V6.71a.359.359,0,0,1-.36.36h-.08Zm-1.37-.3h1.48s.03-.03.03-.05V5.08l.09-.04a.631.631,0,0,0,.1-.07.525.525,0,0,0,.07-.11A.5.5,0,0,0,14,4.74a.234.234,0,0,0-.02-.12.286.286,0,0,0-.17-.17.209.209,0,0,0-.13-.02.254.254,0,0,0-.12.02.359.359,0,0,0-.1.07.311.311,0,0,0-.07.34.359.359,0,0,0,.07.1c.01.01.03.02.04.03l.09.04v.11l.01,1.51H12.16a.8.8,0,0,0,.05.11ZM1.91,6.19a.359.359,0,0,1-.36-.36V4.96s-.05-.04-.07-.06a.666.666,0,0,1-.13-.21.687.687,0,0,1-.05-.24.593.593,0,0,1,.05-.23.625.625,0,0,1,.13-.2.6.6,0,0,1,.21-.14.593.593,0,0,1,.23-.05h0a.852.852,0,0,1,.23.04.578.578,0,0,1,.2.13.716.716,0,0,1,.13.19l-.13.08.14-.06a.6.6,0,0,1-.13.66.55.55,0,0,1-.09.07v.51h.76v.27a.371.371,0,0,1-.05.15l-.04.04c-.09.07-.18.14-.26.21l-.04.04H1.91Zm0-2.06a.352.352,0,0,0-.12.02.359.359,0,0,0-.1.07,1.054,1.054,0,0,0-.07.11.37.37,0,0,0,0,.24.413.413,0,0,0,.07.11.391.391,0,0,1,.05.04l.11.07V5.82s.03.06.06.06h.62a1.363,1.363,0,0,1,.14-.11H1.98V4.8l.11-.07s.05-.04.07-.06a.242.242,0,0,0,.06-.1.331.331,0,0,0,0-.24V4.3s-.05-.06-.08-.1a.242.242,0,0,0-.1-.06.153.153,0,0,0-.13-.02ZM12.03,6.07h-.71l.03-.18a1.492,1.492,0,0,0,.02-.21V5.35h.3V4.98a.378.378,0,0,1-.08-.07.656.656,0,0,1-.19-.44.582.582,0,0,1,.18-.43.465.465,0,0,1,.21-.13.61.61,0,0,1,.46,0,.641.641,0,0,1,.19.13.586.586,0,0,1,.13.19.662.662,0,0,1,0,.48.641.641,0,0,1-.13.19.572.572,0,0,1-.08.07v.75a.361.361,0,0,1-.06.2l.25.15h-.54Zm-.36-.31h.36s.05-.02.05-.05V4.78l.1-.04s.05-.04.06-.05a.359.359,0,0,0,.07-.1.331.331,0,0,0,0-.24.3.3,0,0,0-.07-.1.359.359,0,0,0-.1-.07.331.331,0,0,0-.24,0,.879.879,0,0,0-.1.06.31.31,0,0,0-.09.22.254.254,0,0,0,.02.12.413.413,0,0,0,.07.11.311.311,0,0,0,.06.04l.12.06v.86h-.3v.11ZM7.17,3.37V.57L7.2.55A.354.354,0,0,1,7.54.28H8.99a1.1,1.1,0,0,1,.08-.1.9.9,0,0,1,.2-.14.61.61,0,0,1,.46,0,.986.986,0,0,1,.2.13.6.6,0,0,1,.14.21.687.687,0,0,1,.05.24.593.593,0,0,1-.05.23.612.612,0,0,1-.33.34.635.635,0,0,1-.23.05h0a.593.593,0,0,1-.23-.05.625.625,0,0,1-.2-.13A.265.265,0,0,1,9.03,1H7.91V2.8l-.09.04a.878.878,0,0,0-.21.12,1.738,1.738,0,0,0-.15.13l-.26.28ZM7.47.72V2.68l.11-.07V.7H9.17l.04.08a.682.682,0,0,1,.05.07.333.333,0,0,0,.1.06c.04.02.09.04.12.02A.254.254,0,0,0,9.6.91.286.286,0,0,0,9.77.74.254.254,0,0,0,9.79.62.3.3,0,0,0,9.77.49.359.359,0,0,0,9.7.39,1.054,1.054,0,0,0,9.59.32a.3.3,0,0,0-.23,0,.673.673,0,0,0-.11.07.359.359,0,0,0-.07.1L9.14.58H7.51S7.46.6,7.46.63L7.44.72Zm-.72,2.5-.26-.27a1.061,1.061,0,0,0-.34-.16l-.11-.03V1.13a.378.378,0,0,1-.08-.07.625.625,0,0,1-.13-.2A.593.593,0,0,1,5.78.63.593.593,0,0,1,5.83.4.612.612,0,0,1,6.16.06.687.687,0,0,1,6.4.01a.593.593,0,0,1,.23.05.625.625,0,0,1,.2.13A.853.853,0,0,1,6.97.4a.593.593,0,0,1,.05.23.647.647,0,0,1-.18.44c-.03.02-.05.05-.08.07V3.23Zm-.41-.69a.8.8,0,0,1,.11.05V.96L6.52.92A.666.666,0,0,1,6.59.89L6.62.86a.373.373,0,0,0,.1-.23A.254.254,0,0,0,6.7.51.413.413,0,0,0,6.63.4a.242.242,0,0,0-.1-.06.331.331,0,0,0-.24,0,.286.286,0,0,0-.17.17.527.527,0,0,0-.03.12.254.254,0,0,0,.02.12.413.413,0,0,0,.07.11.187.187,0,0,0,.04.03l.15.06-.03.11V2.53Zm-1.35.49V2.27H4.48a.378.378,0,0,1-.07.08.605.605,0,0,1-.68.14l-.05-.03a.418.418,0,0,1-.15-.11.661.661,0,0,1-.14-.2.687.687,0,0,1-.05-.24.656.656,0,0,1,.18-.44.625.625,0,0,1,.2-.13.636.636,0,0,1,.47,0,.457.457,0,0,1,.2.14.265.265,0,0,1,.05.06h.87a.363.363,0,0,1,.26.11.347.347,0,0,1,.1.25v.82l-.12.02a1.281,1.281,0,0,0-.37.14L4.96,3ZM4.32,1.98h.97v.56L5.4,2.5V1.92s-.01-.04-.02-.04-.02-.02-.04-.02H4.3l-.07-.12A.187.187,0,0,1,4.2,1.7a.236.236,0,0,0-.09-.06.358.358,0,0,0-.25,0,.673.673,0,0,0-.11.07.207.207,0,0,0-.06.1.254.254,0,0,0-.02.12.3.3,0,0,0,.02.13.284.284,0,0,0,.06.09.413.413,0,0,0,.11.07l.03.02a.3.3,0,0,0,.21-.01.607.607,0,0,0,.1-.07.311.311,0,0,0,.04-.06l.03-.06.04-.06Zm5.45.91h0a.593.593,0,0,1-.23-.05.69.69,0,0,1-.2-.13c-.03-.03-.05-.06-.07-.08H8.89v.26l-.2-.07a1.1,1.1,0,0,0-.26-.06.41.41,0,0,1-.11-.01H8.17V2.19l.03-.02a.345.345,0,0,1,.34-.25h.75l.04-.06a.87.87,0,0,1,.2-.15.662.662,0,0,1,.48,0,.625.625,0,0,1,.2.13.641.641,0,0,1,.13.19.636.636,0,0,1,0,.47.69.69,0,0,1-.13.2.6.6,0,0,1-.44.18ZM8.58,2.32h.85l.07.12a.736.736,0,0,0,.05.06.242.242,0,0,0,.1.06.254.254,0,0,0,.12.02h0a.31.31,0,0,0,.22-.09.413.413,0,0,0,.07-.11.331.331,0,0,0,0-.24.3.3,0,0,0-.07-.1.55.55,0,0,0-.09-.07.331.331,0,0,0-.24,0,.607.607,0,0,0-.1.07l-.04.06-.04.09H8.54a.047.047,0,0,0-.05.05l-.02.19h0a.425.425,0,0,1,.11.02V2.3Z" transform="translate(-0.005 0.005)" fill="url(#linear-gradient)"/>
</svg>
