<svg xmlns="http://www.w3.org/2000/svg" xmlns:xlink="http://www.w3.org/1999/xlink" width="64.964" height="71.596" viewBox="0 0 64.964 71.596">
  <defs>
    <filter id="apartment-icon" x="0" y="0" width="64.964" height="71.596" filterUnits="userSpaceOnUse">
      <feOffset input="SourceAlpha"/>
      <feGaussianBlur stdDeviation="4.5" result="blur"/>
      <feFlood flood-color="#009530"/>
      <feComposite operator="in" in2="blur"/>
    </filter>
    <filter id="apartment-icon-2" x="0" y="0" width="64.964" height="71.596" filterUnits="userSpaceOnUse">
      <feOffset dx="-17" dy="3" input="SourceAlpha"/>
      <feGaussianBlur stdDeviation="3" result="blur-2"/>
      <feFlood flood-color="#009530" flood-opacity="0.91" result="color"/>
      <feComposite operator="out" in="SourceGraphic" in2="blur-2"/>
      <feComposite operator="in" in="color"/>
      <feComposite operator="in" in2="SourceGraphic"/>
    </filter>
  </defs>
  <g data-type="innerShadowGroup">
    <g transform="matrix(1, 0, 0, 1, 0, 0)" filter="url(#apartment-icon)">
      <path id="apartment-icon-3" data-name="apartment-icon" d="M1.274,42.829H0v1.278H33.193V42.829h-.718v-6.1a.438.438,0,0,0-.438-.438H27.11a.438.438,0,0,0-.438.438v6.1H17.4V34.183a.585.585,0,0,0-.585-.581H7.156a.585.585,0,0,0-.585.581v8.646H0V.94A1,1,0,0,1,.294.311h0a1.019,1.019,0,0,1,.718-.3H22.944a1.012,1.012,0,0,1,.718.3l.047.047a1.016,1.016,0,0,1,.258.678V12.413h12.64a.858.858,0,0,1,.607.251h0a.847.847,0,0,1,.251.6V43.518a.585.585,0,0,1-.585.585H33.193V42.825h3.054V13.644H23.97V42.836H22.692V1.284H1.274Zm30.34,0H27.548V37.151h4.066v5.678Zm-.947-26.672h3.162c.025,0,.047.036.047.079v2.049c0,.036-.022.075-.047.075H30.667c-.025,0-.047-.032-.047-.075V16.235C30.62,16.192,30.642,16.156,30.667,16.156Zm0,14.212h3.162c.025,0,.047.036.047.075v2.049c0,.039-.022.079-.047.079H30.667c-.025,0-.047-.036-.047-.079V30.444C30.62,30.4,30.642,30.368,30.667,30.368Zm-5.329,0H28.5c.029,0,.05.036.05.075v2.049c0,.039-.022.079-.05.079H25.337c-.029,0-.05-.036-.05-.079V30.444C25.287,30.4,25.309,30.368,25.337,30.368Zm5.329-4.737h3.162c.025,0,.047.036.047.079v2.049c0,.039-.022.079-.047.079H30.667c-.025,0-.047-.036-.047-.079V25.71C30.62,25.663,30.642,25.631,30.667,25.631Zm0-4.737h3.162c.025,0,.047.036.047.079v2.049c0,.039-.022.079-.047.079H30.667c-.025,0-.047-.036-.047-.079V20.973c0-.043.022-.079.047-.079Zm-5.329-4.737H28.5c.029,0,.05.036.05.079v2.049c0,.036-.022.075-.05.075H25.337c-.029,0-.05-.032-.05-.075V16.235C25.287,16.192,25.309,16.156,25.337,16.156Zm0,9.475H28.5c.029,0,.05.036.05.079v2.049c0,.039-.022.079-.05.079H25.337c-.029,0-.05-.036-.05-.079V25.71C25.287,25.663,25.309,25.631,25.337,25.631Zm0-4.737H28.5c.029,0,.05.036.05.079v2.049c0,.039-.022.079-.05.079H25.337c-.029,0-.05-.036-.05-.079V20.973c0-.043.022-.079.05-.079ZM16.225,42.829H7.741V34.768h8.484ZM4.353,4.5H7.791a.1.1,0,0,1,.1.1V8.038a.1.1,0,0,1-.1.1H4.353a.1.1,0,0,1-.1-.1V4.6A.1.1,0,0,1,4.353,4.5Zm11.822,0h3.438a.1.1,0,0,1,.1.1V8.038a.1.1,0,0,1-.1.1H16.175a.1.1,0,0,1-.1-.1V4.6A.1.1,0,0,1,16.175,4.5Zm-5.911,0H13.7a.1.1,0,0,1,.1.1V8.038a.1.1,0,0,1-.1.1H10.264a.1.1,0,0,1-.1-.1V4.6A.1.1,0,0,1,10.264,4.5ZM4.353,11.95H7.791a.1.1,0,0,1,.1.1v3.442a.1.1,0,0,1-.1.1H4.353a.1.1,0,0,1-.1-.1V12.047A.1.1,0,0,1,4.353,11.95Zm11.822,0h3.438a.1.1,0,0,1,.1.1v3.442a.1.1,0,0,1-.1.1H16.175a.1.1,0,0,1-.1-.1V12.047A.1.1,0,0,1,16.175,11.95Zm-5.911,0H13.7a.1.1,0,0,1,.1.1v3.442a.1.1,0,0,1-.1.1H10.264a.1.1,0,0,1-.1-.1V12.047A.1.1,0,0,1,10.264,11.95Zm-5.911,14.9H7.791a.1.1,0,0,1,.1.1v3.438a.1.1,0,0,1-.1.1H4.353a.1.1,0,0,1-.1-.1V26.948a.1.1,0,0,1,.1-.1Zm11.822,0h3.438a.1.1,0,0,1,.1.1v3.438a.1.1,0,0,1-.1.1H16.175a.1.1,0,0,1-.1-.1V26.948a.1.1,0,0,1,.1-.1Zm-5.911,0H13.7a.1.1,0,0,1,.1.1v3.438a.1.1,0,0,1-.1.1H10.264a.1.1,0,0,1-.1-.1V26.948a.1.1,0,0,1,.1-.1ZM4.353,19.386H7.791a.1.1,0,0,1,.1.1v3.456a.1.1,0,0,1-.1.1H4.353a.1.1,0,0,1-.1-.1V19.5a.1.1,0,0,1,.1-.1Zm11.822,0h3.438a.1.1,0,0,1,.1.1v3.456a.1.1,0,0,1-.1.1H16.175a.1.1,0,0,1-.1-.1V19.5a.1.1,0,0,1,.1-.1Zm-5.911,0H13.7a.1.1,0,0,1,.1.1v3.456a.1.1,0,0,1-.1.1H10.264a.1.1,0,0,1-.1-.1V19.5a.1.1,0,0,1,.1-.111Z" transform="translate(13.75 13.74)" fill="none" stroke="#009530" stroke-width="0.5"/>
    </g>
    <g transform="matrix(1, 0, 0, 1, 0, 0)" filter="url(#apartment-icon-2)">
      <path id="apartment-icon-4" data-name="apartment-icon" d="M1.274,42.829H0v1.278H33.193V42.829h-.718v-6.1a.438.438,0,0,0-.438-.438H27.11a.438.438,0,0,0-.438.438v6.1H17.4V34.183a.585.585,0,0,0-.585-.581H7.156a.585.585,0,0,0-.585.581v8.646H0V.94A1,1,0,0,1,.294.311h0a1.019,1.019,0,0,1,.718-.3H22.944a1.012,1.012,0,0,1,.718.3l.047.047a1.016,1.016,0,0,1,.258.678V12.413h12.64a.858.858,0,0,1,.607.251h0a.847.847,0,0,1,.251.6V43.518a.585.585,0,0,1-.585.585H33.193V42.825h3.054V13.644H23.97V42.836H22.692V1.284H1.274Zm30.34,0H27.548V37.151h4.066v5.678Zm-.947-26.672h3.162c.025,0,.047.036.047.079v2.049c0,.036-.022.075-.047.075H30.667c-.025,0-.047-.032-.047-.075V16.235C30.62,16.192,30.642,16.156,30.667,16.156Zm0,14.212h3.162c.025,0,.047.036.047.075v2.049c0,.039-.022.079-.047.079H30.667c-.025,0-.047-.036-.047-.079V30.444C30.62,30.4,30.642,30.368,30.667,30.368Zm-5.329,0H28.5c.029,0,.05.036.05.075v2.049c0,.039-.022.079-.05.079H25.337c-.029,0-.05-.036-.05-.079V30.444C25.287,30.4,25.309,30.368,25.337,30.368Zm5.329-4.737h3.162c.025,0,.047.036.047.079v2.049c0,.039-.022.079-.047.079H30.667c-.025,0-.047-.036-.047-.079V25.71C30.62,25.663,30.642,25.631,30.667,25.631Zm0-4.737h3.162c.025,0,.047.036.047.079v2.049c0,.039-.022.079-.047.079H30.667c-.025,0-.047-.036-.047-.079V20.973c0-.043.022-.079.047-.079Zm-5.329-4.737H28.5c.029,0,.05.036.05.079v2.049c0,.036-.022.075-.05.075H25.337c-.029,0-.05-.032-.05-.075V16.235C25.287,16.192,25.309,16.156,25.337,16.156Zm0,9.475H28.5c.029,0,.05.036.05.079v2.049c0,.039-.022.079-.05.079H25.337c-.029,0-.05-.036-.05-.079V25.71C25.287,25.663,25.309,25.631,25.337,25.631Zm0-4.737H28.5c.029,0,.05.036.05.079v2.049c0,.039-.022.079-.05.079H25.337c-.029,0-.05-.036-.05-.079V20.973c0-.043.022-.079.05-.079ZM16.225,42.829H7.741V34.768h8.484ZM4.353,4.5H7.791a.1.1,0,0,1,.1.1V8.038a.1.1,0,0,1-.1.1H4.353a.1.1,0,0,1-.1-.1V4.6A.1.1,0,0,1,4.353,4.5Zm11.822,0h3.438a.1.1,0,0,1,.1.1V8.038a.1.1,0,0,1-.1.1H16.175a.1.1,0,0,1-.1-.1V4.6A.1.1,0,0,1,16.175,4.5Zm-5.911,0H13.7a.1.1,0,0,1,.1.1V8.038a.1.1,0,0,1-.1.1H10.264a.1.1,0,0,1-.1-.1V4.6A.1.1,0,0,1,10.264,4.5ZM4.353,11.95H7.791a.1.1,0,0,1,.1.1v3.442a.1.1,0,0,1-.1.1H4.353a.1.1,0,0,1-.1-.1V12.047A.1.1,0,0,1,4.353,11.95Zm11.822,0h3.438a.1.1,0,0,1,.1.1v3.442a.1.1,0,0,1-.1.1H16.175a.1.1,0,0,1-.1-.1V12.047A.1.1,0,0,1,16.175,11.95Zm-5.911,0H13.7a.1.1,0,0,1,.1.1v3.442a.1.1,0,0,1-.1.1H10.264a.1.1,0,0,1-.1-.1V12.047A.1.1,0,0,1,10.264,11.95Zm-5.911,14.9H7.791a.1.1,0,0,1,.1.1v3.438a.1.1,0,0,1-.1.1H4.353a.1.1,0,0,1-.1-.1V26.948a.1.1,0,0,1,.1-.1Zm11.822,0h3.438a.1.1,0,0,1,.1.1v3.438a.1.1,0,0,1-.1.1H16.175a.1.1,0,0,1-.1-.1V26.948a.1.1,0,0,1,.1-.1Zm-5.911,0H13.7a.1.1,0,0,1,.1.1v3.438a.1.1,0,0,1-.1.1H10.264a.1.1,0,0,1-.1-.1V26.948a.1.1,0,0,1,.1-.1ZM4.353,19.386H7.791a.1.1,0,0,1,.1.1v3.456a.1.1,0,0,1-.1.1H4.353a.1.1,0,0,1-.1-.1V19.5a.1.1,0,0,1,.1-.1Zm11.822,0h3.438a.1.1,0,0,1,.1.1v3.456a.1.1,0,0,1-.1.1H16.175a.1.1,0,0,1-.1-.1V19.5a.1.1,0,0,1,.1-.1Zm-5.911,0H13.7a.1.1,0,0,1,.1.1v3.456a.1.1,0,0,1-.1.1H10.264a.1.1,0,0,1-.1-.1V19.5a.1.1,0,0,1,.1-.111Z" transform="translate(13.75 13.74)" fill="#fff"/>
    </g>
    <path id="apartment-icon-5" data-name="apartment-icon" d="M1.274,42.829H0v1.278H33.193V42.829h-.718v-6.1a.438.438,0,0,0-.438-.438H27.11a.438.438,0,0,0-.438.438v6.1H17.4V34.183a.585.585,0,0,0-.585-.581H7.156a.585.585,0,0,0-.585.581v8.646H0V.94A1,1,0,0,1,.294.311h0a1.019,1.019,0,0,1,.718-.3H22.944a1.012,1.012,0,0,1,.718.3l.047.047a1.016,1.016,0,0,1,.258.678V12.413h12.64a.858.858,0,0,1,.607.251h0a.847.847,0,0,1,.251.6V43.518a.585.585,0,0,1-.585.585H33.193V42.825h3.054V13.644H23.97V42.836H22.692V1.284H1.274Zm30.34,0H27.548V37.151h4.066v5.678Zm-.947-26.672h3.162c.025,0,.047.036.047.079v2.049c0,.036-.022.075-.047.075H30.667c-.025,0-.047-.032-.047-.075V16.235C30.62,16.192,30.642,16.156,30.667,16.156Zm0,14.212h3.162c.025,0,.047.036.047.075v2.049c0,.039-.022.079-.047.079H30.667c-.025,0-.047-.036-.047-.079V30.444C30.62,30.4,30.642,30.368,30.667,30.368Zm-5.329,0H28.5c.029,0,.05.036.05.075v2.049c0,.039-.022.079-.05.079H25.337c-.029,0-.05-.036-.05-.079V30.444C25.287,30.4,25.309,30.368,25.337,30.368Zm5.329-4.737h3.162c.025,0,.047.036.047.079v2.049c0,.039-.022.079-.047.079H30.667c-.025,0-.047-.036-.047-.079V25.71C30.62,25.663,30.642,25.631,30.667,25.631Zm0-4.737h3.162c.025,0,.047.036.047.079v2.049c0,.039-.022.079-.047.079H30.667c-.025,0-.047-.036-.047-.079V20.973c0-.043.022-.079.047-.079Zm-5.329-4.737H28.5c.029,0,.05.036.05.079v2.049c0,.036-.022.075-.05.075H25.337c-.029,0-.05-.032-.05-.075V16.235C25.287,16.192,25.309,16.156,25.337,16.156Zm0,9.475H28.5c.029,0,.05.036.05.079v2.049c0,.039-.022.079-.05.079H25.337c-.029,0-.05-.036-.05-.079V25.71C25.287,25.663,25.309,25.631,25.337,25.631Zm0-4.737H28.5c.029,0,.05.036.05.079v2.049c0,.039-.022.079-.05.079H25.337c-.029,0-.05-.036-.05-.079V20.973c0-.043.022-.079.05-.079ZM16.225,42.829H7.741V34.768h8.484ZM4.353,4.5H7.791a.1.1,0,0,1,.1.1V8.038a.1.1,0,0,1-.1.1H4.353a.1.1,0,0,1-.1-.1V4.6A.1.1,0,0,1,4.353,4.5Zm11.822,0h3.438a.1.1,0,0,1,.1.1V8.038a.1.1,0,0,1-.1.1H16.175a.1.1,0,0,1-.1-.1V4.6A.1.1,0,0,1,16.175,4.5Zm-5.911,0H13.7a.1.1,0,0,1,.1.1V8.038a.1.1,0,0,1-.1.1H10.264a.1.1,0,0,1-.1-.1V4.6A.1.1,0,0,1,10.264,4.5ZM4.353,11.95H7.791a.1.1,0,0,1,.1.1v3.442a.1.1,0,0,1-.1.1H4.353a.1.1,0,0,1-.1-.1V12.047A.1.1,0,0,1,4.353,11.95Zm11.822,0h3.438a.1.1,0,0,1,.1.1v3.442a.1.1,0,0,1-.1.1H16.175a.1.1,0,0,1-.1-.1V12.047A.1.1,0,0,1,16.175,11.95Zm-5.911,0H13.7a.1.1,0,0,1,.1.1v3.442a.1.1,0,0,1-.1.1H10.264a.1.1,0,0,1-.1-.1V12.047A.1.1,0,0,1,10.264,11.95Zm-5.911,14.9H7.791a.1.1,0,0,1,.1.1v3.438a.1.1,0,0,1-.1.1H4.353a.1.1,0,0,1-.1-.1V26.948a.1.1,0,0,1,.1-.1Zm11.822,0h3.438a.1.1,0,0,1,.1.1v3.438a.1.1,0,0,1-.1.1H16.175a.1.1,0,0,1-.1-.1V26.948a.1.1,0,0,1,.1-.1Zm-5.911,0H13.7a.1.1,0,0,1,.1.1v3.438a.1.1,0,0,1-.1.1H10.264a.1.1,0,0,1-.1-.1V26.948a.1.1,0,0,1,.1-.1ZM4.353,19.386H7.791a.1.1,0,0,1,.1.1v3.456a.1.1,0,0,1-.1.1H4.353a.1.1,0,0,1-.1-.1V19.5a.1.1,0,0,1,.1-.1Zm11.822,0h3.438a.1.1,0,0,1,.1.1v3.456a.1.1,0,0,1-.1.1H16.175a.1.1,0,0,1-.1-.1V19.5a.1.1,0,0,1,.1-.1Zm-5.911,0H13.7a.1.1,0,0,1,.1.1v3.456a.1.1,0,0,1-.1.1H10.264a.1.1,0,0,1-.1-.1V19.5a.1.1,0,0,1,.1-.111Z" transform="translate(13.75 13.74)" fill="none" stroke="#009530" stroke-width="0.5"/>
  </g>
</svg>
