<svg xmlns="http://www.w3.org/2000/svg" xmlns:xlink="http://www.w3.org/1999/xlink" width="14.136" height="14.148" viewBox="0 0 14.136 14.148">
  <defs>
    <linearGradient id="linear-gradient" x1="-0.001" y1="0.503" x2="0.999" y2="0.503" gradientUnits="objectBoundingBox">
      <stop offset="0" stop-color="#55bf9b"/>
      <stop offset="0.15" stop-color="#2dacb1"/>
      <stop offset="0.4" stop-color="#2986c1"/>
      <stop offset="1" stop-color="#3b67b1"/>
    </linearGradient>
    <linearGradient id="linear-gradient-2" x1="0.001" y1="0.501" x2="0.998" y2="0.501" xlink:href="#linear-gradient"/>
    <linearGradient id="linear-gradient-3" x1="-0.002" y1="0.5" x2="0.997" y2="0.5" xlink:href="#linear-gradient"/>
    <linearGradient id="linear-gradient-4" x1="0" y1="0.493" x2="1.008" y2="0.493" xlink:href="#linear-gradient"/>
    <linearGradient id="linear-gradient-5" x1="0" y1="0.502" x2="0.999" y2="0.502" xlink:href="#linear-gradient"/>
    <linearGradient id="linear-gradient-6" x1="0" y1="0.5" x2="1" y2="0.5" xlink:href="#linear-gradient"/>
    <linearGradient id="linear-gradient-7" x1="0" y1="0.5" x2="1.002" y2="0.5" xlink:href="#linear-gradient"/>
  </defs>
  <g id="Group_6270" data-name="Group 6270" transform="translate(-947 -667.142)">
    <g id="Group_5334" data-name="Group 5334" transform="translate(947 667.142)">
      <g id="Group_5329" data-name="Group 5329" transform="translate(0 0)">
        <path id="Path_26373" data-name="Path 26373" d="M149.515,173.932a5.024,5.024,0,0,1-.791-.071l-2.315-.142s-.508-.236-.52-.614c0-.236.165-.461.508-.65l.083-.024,2.055-.083a.471.471,0,0,0,.083-.106c-.012,0-.047-.012-.106-.024l-1.677.024c-.449.094-1.169.378-1.157.661q0,.165-1.157.508c-.307.094-.709.213-.98.3l.118.059-.484.094a1.178,1.178,0,0,1-.968-.2.71.71,0,0,1-.13-.685l.024-.083,5.019-2.326h.047a6.913,6.913,0,0,0,2.622-.118l1.181-.579,1.582,2.09-1.476,1.453a1.941,1.941,0,0,1-1.535.5Zm-2.988-.543,2.244.13c1.547.248,2.019-.307,2.031-.319l1.275-1.252-1.228-1.618-.886.437c-.437.342-2.315.224-2.8.177l-.85.39-3.921,1.819a.306.306,0,0,0,.059.283.763.763,0,0,0,.579.106,8.247,8.247,0,0,1,1.382-.461c.342-.094.744-.224.909-.283.106-.59,1.228-.862,1.464-.909l1.748-.024c.26.035.39.13.437.272.059.236-.177.449-.248.508l-.047.035-2.137.083c-.189.106-.3.224-.3.307,0,.106.165.224.283.283Z" transform="translate(-138.414 -169.87)" fill="url(#linear-gradient)"/>
        <path id="Path_26374" data-name="Path 26374" d="M139.715,178.335l.054-2.9a1.294,1.294,0,0,1-.59-.868,1.688,1.688,0,0,1,.635-1.386l.233-.224v1.359l.465.277.394-.259v-1.3l.206.125a1.629,1.629,0,0,1,.733,1.073,1.516,1.516,0,0,1-.581,1.243l-.08,2.129-1.458.724Zm.063-4.7a1.214,1.214,0,0,0-.331.9,1.108,1.108,0,0,0,.528.715l.072.036L140,177.915l.921-.456.072-2.075.045-.036a1.3,1.3,0,0,0,.537-1.055,1.179,1.179,0,0,0-.4-.716v.93l-.653.429-.742-.438v-.841Z" transform="translate(-138.075 -168.628)" fill="url(#linear-gradient-2)"/>
        <path id="Path_26375" data-name="Path 26375" d="M150.03,177.084H148.5l-.056-.664c-.187-.2-.879-.954-.692-1.487a1.472,1.472,0,1,1,2.937.2c0,.019,0,.4-.617,1.16l-.028.786Zm-1.281-.281h1.01l.019-.608.028-.037c.57-.692.58-1.029.58-1.038.122-1.16-1.094-1.3-1.15-1.309-1.253.131-1.225,1.1-1.225,1.141v.028l-.009.028c-.131.309.327.926.655,1.244l.037.037.047.514Z" transform="translate(-137.387 -168.087)" fill="url(#linear-gradient-3)"/>
        <path id="Path_26376" data-name="Path 26376" d="M149.054,178.043a.376.376,0,0,1-.346-.337l-.028-.346h1.178v.318a.444.444,0,0,1-.355.365Zm-.065-.411v.056c0,.056.075.075.084.075h.4a.165.165,0,0,0,.1-.122h-.6Z" transform="translate(-137.45 -168.336)" fill="url(#linear-gradient-4)"/>
        <path id="Path_26377" data-name="Path 26377" d="M140.623,182.482l-1.653-2.1,1.252-1.275a3.236,3.236,0,0,1,2.043-.744l1.866.154.9.035c.094.024.531.142.626.484a.616.616,0,0,1-.213.626l-.035.035a3.027,3.027,0,0,1-1.653.26,2.376,2.376,0,0,0-.779,0V180a1.27,1.27,0,0,0,.5.059,3.954,3.954,0,0,0,2.267-.39.471.471,0,0,0,.165-.319v-.118l2.468-.8c.106-.024.8-.118,1.075.224a.589.589,0,0,1,.035.638l-.024.059-4.287,2.1a4.018,4.018,0,0,1-2.22.3,2.8,2.8,0,0,0-2.161.614l-.142.106Zm-1.181-2.078,1.24,1.582a3.067,3.067,0,0,1,2.291-.579,3.711,3.711,0,0,0,2.008-.26l4.181-2.055a.294.294,0,0,0,0-.224c-.106-.13-.484-.13-.72-.094l-2.208.72a.789.789,0,0,1-.272.449,4.358,4.358,0,0,1-2.515.472c-.449,0-.709-.071-.815-.248a.342.342,0,0,1-.024-.26.3.3,0,0,1,.083-.189c.213-.213.827-.154,1.086-.118a2.707,2.707,0,0,0,1.405-.189c.071-.083.142-.189.118-.272-.035-.118-.248-.213-.342-.236l-.862-.024-1.866-.154a2.858,2.858,0,0,0-1.771.638l-1.027,1.039Z" transform="translate(-138.97 -168.334)" fill="url(#linear-gradient-5)"/>
        <path id="Path_26378" data-name="Path 26378" d="M144.7,176.854a1.282,1.282,0,1,1,1.282-1.282A1.289,1.289,0,0,1,144.7,176.854Zm0-2.316a1.034,1.034,0,1,0,1.034,1.034A1.034,1.034,0,0,0,144.7,174.538Z" transform="translate(-137.756 -168.342)" fill="url(#linear-gradient-6)"/>
        <path id="Path_26379" data-name="Path 26379" d="M144.92,177.6h-.885l-.083-.381-.381-.174-.414.19-.62-.629.256-.323-.182-.372-.422-.174v-.86l.389-.083.207-.414-.248-.364.637-.562.339.19.438-.165.041-.43.9.05.091.381.414.165.356-.232.637.654-.215.331.149.414.463.108-.058.844-.372.091-.149.438.182.339-.6.6-.331-.2-.471.2-.083.347Zm-.687-.248h.488l.066-.281.711-.3.273.165.331-.339-.149-.273.232-.67.323-.083.033-.455-.389-.091-.24-.662.174-.273-.356-.364-.29.19-.645-.256-.083-.323-.488-.025-.033.347-.687.265-.29-.157-.339.306.207.306-.331.645-.306.066v.5l.356.141.29.6-.215.273.347.347.364-.165.6.273.066.306Z" transform="translate(-137.544 -168.127)" fill="url(#linear-gradient-7)"/>
      </g>
      <g id="Group_5330" data-name="Group 5330" transform="translate(0 0)">
        <path id="Path_26373-2" data-name="Path 26373" d="M149.515,173.932a5.024,5.024,0,0,1-.791-.071l-2.315-.142s-.508-.236-.52-.614c0-.236.165-.461.508-.65l.083-.024,2.055-.083a.471.471,0,0,0,.083-.106c-.012,0-.047-.012-.106-.024l-1.677.024c-.449.094-1.169.378-1.157.661q0,.165-1.157.508c-.307.094-.709.213-.98.3l.118.059-.484.094a1.178,1.178,0,0,1-.968-.2.71.71,0,0,1-.13-.685l.024-.083,5.019-2.326h.047a6.913,6.913,0,0,0,2.622-.118l1.181-.579,1.582,2.09-1.476,1.453a1.941,1.941,0,0,1-1.535.5Zm-2.988-.543,2.244.13c1.547.248,2.019-.307,2.031-.319l1.275-1.252-1.228-1.618-.886.437c-.437.342-2.315.224-2.8.177l-.85.39-3.921,1.819a.306.306,0,0,0,.059.283.763.763,0,0,0,.579.106,8.247,8.247,0,0,1,1.382-.461c.342-.094.744-.224.909-.283.106-.59,1.228-.862,1.464-.909l1.748-.024c.26.035.39.13.437.272.059.236-.177.449-.248.508l-.047.035-2.137.083c-.189.106-.3.224-.3.307,0,.106.165.224.283.283Z" transform="translate(-138.414 -169.87)" fill="url(#linear-gradient)"/>
        <path id="Path_26374-2" data-name="Path 26374" d="M139.715,178.335l.054-2.9a1.294,1.294,0,0,1-.59-.868,1.688,1.688,0,0,1,.635-1.386l.233-.224v1.359l.465.277.394-.259v-1.3l.206.125a1.629,1.629,0,0,1,.733,1.073,1.516,1.516,0,0,1-.581,1.243l-.08,2.129-1.458.724Zm.063-4.7a1.214,1.214,0,0,0-.331.9,1.108,1.108,0,0,0,.528.715l.072.036L140,177.915l.921-.456.072-2.075.045-.036a1.3,1.3,0,0,0,.537-1.055,1.179,1.179,0,0,0-.4-.716v.93l-.653.429-.742-.438v-.841Z" transform="translate(-138.075 -168.628)" fill="url(#linear-gradient-2)"/>
        <path id="Path_26375-2" data-name="Path 26375" d="M150.03,177.084H148.5l-.056-.664c-.187-.2-.879-.954-.692-1.487a1.472,1.472,0,1,1,2.937.2c0,.019,0,.4-.617,1.16l-.028.786Zm-1.281-.281h1.01l.019-.608.028-.037c.57-.692.58-1.029.58-1.038.122-1.16-1.094-1.3-1.15-1.309-1.253.131-1.225,1.1-1.225,1.141v.028l-.009.028c-.131.309.327.926.655,1.244l.037.037.047.514Z" transform="translate(-137.387 -168.087)" fill="url(#linear-gradient-3)"/>
        <path id="Path_26376-2" data-name="Path 26376" d="M149.054,178.043a.376.376,0,0,1-.346-.337l-.028-.346h1.178v.318a.444.444,0,0,1-.355.365Zm-.065-.411v.056c0,.056.075.075.084.075h.4a.165.165,0,0,0,.1-.122h-.6Z" transform="translate(-137.45 -168.336)" fill="url(#linear-gradient-4)"/>
        <path id="Path_26377-2" data-name="Path 26377" d="M140.623,182.482l-1.653-2.1,1.252-1.275a3.236,3.236,0,0,1,2.043-.744l1.866.154.9.035c.094.024.531.142.626.484a.616.616,0,0,1-.213.626l-.035.035a3.027,3.027,0,0,1-1.653.26,2.376,2.376,0,0,0-.779,0V180a1.27,1.27,0,0,0,.5.059,3.954,3.954,0,0,0,2.267-.39.471.471,0,0,0,.165-.319v-.118l2.468-.8c.106-.024.8-.118,1.075.224a.589.589,0,0,1,.035.638l-.024.059-4.287,2.1a4.018,4.018,0,0,1-2.22.3,2.8,2.8,0,0,0-2.161.614l-.142.106Zm-1.181-2.078,1.24,1.582a3.067,3.067,0,0,1,2.291-.579,3.711,3.711,0,0,0,2.008-.26l4.181-2.055a.294.294,0,0,0,0-.224c-.106-.13-.484-.13-.72-.094l-2.208.72a.789.789,0,0,1-.272.449,4.358,4.358,0,0,1-2.515.472c-.449,0-.709-.071-.815-.248a.342.342,0,0,1-.024-.26.3.3,0,0,1,.083-.189c.213-.213.827-.154,1.086-.118a2.707,2.707,0,0,0,1.405-.189c.071-.083.142-.189.118-.272-.035-.118-.248-.213-.342-.236l-.862-.024-1.866-.154a2.858,2.858,0,0,0-1.771.638l-1.027,1.039Z" transform="translate(-138.97 -168.334)" fill="url(#linear-gradient-5)"/>
        <path id="Path_26378-2" data-name="Path 26378" d="M144.7,176.854a1.282,1.282,0,1,1,1.282-1.282A1.289,1.289,0,0,1,144.7,176.854Zm0-2.316a1.034,1.034,0,1,0,1.034,1.034A1.034,1.034,0,0,0,144.7,174.538Z" transform="translate(-137.756 -168.342)" fill="url(#linear-gradient-6)"/>
        <path id="Path_26379-2" data-name="Path 26379" d="M144.92,177.6h-.885l-.083-.381-.381-.174-.414.19-.62-.629.256-.323-.182-.372-.422-.174v-.86l.389-.083.207-.414-.248-.364.637-.562.339.19.438-.165.041-.43.9.05.091.381.414.165.356-.232.637.654-.215.331.149.414.463.108-.058.844-.372.091-.149.438.182.339-.6.6-.331-.2-.471.2-.083.347Zm-.687-.248h.488l.066-.281.711-.3.273.165.331-.339-.149-.273.232-.67.323-.083.033-.455-.389-.091-.24-.662.174-.273-.356-.364-.29.19-.645-.256-.083-.323-.488-.025-.033.347-.687.265-.29-.157-.339.306.207.306-.331.645-.306.066v.5l.356.141.29.6-.215.273.347.347.364-.165.6.273.066.306Z" transform="translate(-137.544 -168.127)" fill="url(#linear-gradient-7)"/>
      </g>
      <g id="Group_5331" data-name="Group 5331" transform="translate(0 0)">
        <path id="Path_26373-3" data-name="Path 26373" d="M149.515,173.932a5.024,5.024,0,0,1-.791-.071l-2.315-.142s-.508-.236-.52-.614c0-.236.165-.461.508-.65l.083-.024,2.055-.083a.471.471,0,0,0,.083-.106c-.012,0-.047-.012-.106-.024l-1.677.024c-.449.094-1.169.378-1.157.661q0,.165-1.157.508c-.307.094-.709.213-.98.3l.118.059-.484.094a1.178,1.178,0,0,1-.968-.2.71.71,0,0,1-.13-.685l.024-.083,5.019-2.326h.047a6.913,6.913,0,0,0,2.622-.118l1.181-.579,1.582,2.09-1.476,1.453a1.941,1.941,0,0,1-1.535.5Zm-2.988-.543,2.244.13c1.547.248,2.019-.307,2.031-.319l1.275-1.252-1.228-1.618-.886.437c-.437.342-2.315.224-2.8.177l-.85.39-3.921,1.819a.306.306,0,0,0,.059.283.763.763,0,0,0,.579.106,8.247,8.247,0,0,1,1.382-.461c.342-.094.744-.224.909-.283.106-.59,1.228-.862,1.464-.909l1.748-.024c.26.035.39.13.437.272.059.236-.177.449-.248.508l-.047.035-2.137.083c-.189.106-.3.224-.3.307,0,.106.165.224.283.283Z" transform="translate(-138.414 -169.87)" fill="url(#linear-gradient)"/>
        <path id="Path_26374-3" data-name="Path 26374" d="M139.715,178.335l.054-2.9a1.294,1.294,0,0,1-.59-.868,1.688,1.688,0,0,1,.635-1.386l.233-.224v1.359l.465.277.394-.259v-1.3l.206.125a1.629,1.629,0,0,1,.733,1.073,1.516,1.516,0,0,1-.581,1.243l-.08,2.129-1.458.724Zm.063-4.7a1.214,1.214,0,0,0-.331.9,1.108,1.108,0,0,0,.528.715l.072.036L140,177.915l.921-.456.072-2.075.045-.036a1.3,1.3,0,0,0,.537-1.055,1.179,1.179,0,0,0-.4-.716v.93l-.653.429-.742-.438v-.841Z" transform="translate(-138.075 -168.628)" fill="url(#linear-gradient-2)"/>
        <path id="Path_26375-3" data-name="Path 26375" d="M150.03,177.084H148.5l-.056-.664c-.187-.2-.879-.954-.692-1.487a1.472,1.472,0,1,1,2.937.2c0,.019,0,.4-.617,1.16l-.028.786Zm-1.281-.281h1.01l.019-.608.028-.037c.57-.692.58-1.029.58-1.038.122-1.16-1.094-1.3-1.15-1.309-1.253.131-1.225,1.1-1.225,1.141v.028l-.009.028c-.131.309.327.926.655,1.244l.037.037.047.514Z" transform="translate(-137.387 -168.087)" fill="url(#linear-gradient-3)"/>
        <path id="Path_26376-3" data-name="Path 26376" d="M149.054,178.043a.376.376,0,0,1-.346-.337l-.028-.346h1.178v.318a.444.444,0,0,1-.355.365Zm-.065-.411v.056c0,.056.075.075.084.075h.4a.165.165,0,0,0,.1-.122h-.6Z" transform="translate(-137.45 -168.336)" fill="url(#linear-gradient-4)"/>
        <path id="Path_26377-3" data-name="Path 26377" d="M140.623,182.482l-1.653-2.1,1.252-1.275a3.236,3.236,0,0,1,2.043-.744l1.866.154.9.035c.094.024.531.142.626.484a.616.616,0,0,1-.213.626l-.035.035a3.027,3.027,0,0,1-1.653.26,2.376,2.376,0,0,0-.779,0V180a1.27,1.27,0,0,0,.5.059,3.954,3.954,0,0,0,2.267-.39.471.471,0,0,0,.165-.319v-.118l2.468-.8c.106-.024.8-.118,1.075.224a.589.589,0,0,1,.035.638l-.024.059-4.287,2.1a4.018,4.018,0,0,1-2.22.3,2.8,2.8,0,0,0-2.161.614l-.142.106Zm-1.181-2.078,1.24,1.582a3.067,3.067,0,0,1,2.291-.579,3.711,3.711,0,0,0,2.008-.26l4.181-2.055a.294.294,0,0,0,0-.224c-.106-.13-.484-.13-.72-.094l-2.208.72a.789.789,0,0,1-.272.449,4.358,4.358,0,0,1-2.515.472c-.449,0-.709-.071-.815-.248a.342.342,0,0,1-.024-.26.3.3,0,0,1,.083-.189c.213-.213.827-.154,1.086-.118a2.707,2.707,0,0,0,1.405-.189c.071-.083.142-.189.118-.272-.035-.118-.248-.213-.342-.236l-.862-.024-1.866-.154a2.858,2.858,0,0,0-1.771.638l-1.027,1.039Z" transform="translate(-138.97 -168.334)" fill="url(#linear-gradient-5)"/>
        <path id="Path_26378-3" data-name="Path 26378" d="M144.7,176.854a1.282,1.282,0,1,1,1.282-1.282A1.289,1.289,0,0,1,144.7,176.854Zm0-2.316a1.034,1.034,0,1,0,1.034,1.034A1.034,1.034,0,0,0,144.7,174.538Z" transform="translate(-137.756 -168.342)" fill="url(#linear-gradient-6)"/>
        <path id="Path_26379-3" data-name="Path 26379" d="M144.92,177.6h-.885l-.083-.381-.381-.174-.414.19-.62-.629.256-.323-.182-.372-.422-.174v-.86l.389-.083.207-.414-.248-.364.637-.562.339.19.438-.165.041-.43.9.05.091.381.414.165.356-.232.637.654-.215.331.149.414.463.108-.058.844-.372.091-.149.438.182.339-.6.6-.331-.2-.471.2-.083.347Zm-.687-.248h.488l.066-.281.711-.3.273.165.331-.339-.149-.273.232-.67.323-.083.033-.455-.389-.091-.24-.662.174-.273-.356-.364-.29.19-.645-.256-.083-.323-.488-.025-.033.347-.687.265-.29-.157-.339.306.207.306-.331.645-.306.066v.5l.356.141.29.6-.215.273.347.347.364-.165.6.273.066.306Z" transform="translate(-137.544 -168.127)" fill="url(#linear-gradient-7)"/>
      </g>
      <g id="Group_5332" data-name="Group 5332" transform="translate(0 0)">
        <path id="Path_26373-4" data-name="Path 26373" d="M149.515,173.932a5.024,5.024,0,0,1-.791-.071l-2.315-.142s-.508-.236-.52-.614c0-.236.165-.461.508-.65l.083-.024,2.055-.083a.471.471,0,0,0,.083-.106c-.012,0-.047-.012-.106-.024l-1.677.024c-.449.094-1.169.378-1.157.661q0,.165-1.157.508c-.307.094-.709.213-.98.3l.118.059-.484.094a1.178,1.178,0,0,1-.968-.2.71.71,0,0,1-.13-.685l.024-.083,5.019-2.326h.047a6.913,6.913,0,0,0,2.622-.118l1.181-.579,1.582,2.09-1.476,1.453a1.941,1.941,0,0,1-1.535.5Zm-2.988-.543,2.244.13c1.547.248,2.019-.307,2.031-.319l1.275-1.252-1.228-1.618-.886.437c-.437.342-2.315.224-2.8.177l-.85.39-3.921,1.819a.306.306,0,0,0,.059.283.763.763,0,0,0,.579.106,8.247,8.247,0,0,1,1.382-.461c.342-.094.744-.224.909-.283.106-.59,1.228-.862,1.464-.909l1.748-.024c.26.035.39.13.437.272.059.236-.177.449-.248.508l-.047.035-2.137.083c-.189.106-.3.224-.3.307,0,.106.165.224.283.283Z" transform="translate(-138.414 -169.87)" fill="url(#linear-gradient)"/>
        <path id="Path_26374-4" data-name="Path 26374" d="M139.715,178.335l.054-2.9a1.294,1.294,0,0,1-.59-.868,1.688,1.688,0,0,1,.635-1.386l.233-.224v1.359l.465.277.394-.259v-1.3l.206.125a1.629,1.629,0,0,1,.733,1.073,1.516,1.516,0,0,1-.581,1.243l-.08,2.129-1.458.724Zm.063-4.7a1.214,1.214,0,0,0-.331.9,1.108,1.108,0,0,0,.528.715l.072.036L140,177.915l.921-.456.072-2.075.045-.036a1.3,1.3,0,0,0,.537-1.055,1.179,1.179,0,0,0-.4-.716v.93l-.653.429-.742-.438v-.841Z" transform="translate(-138.075 -168.628)" fill="url(#linear-gradient-2)"/>
        <path id="Path_26375-4" data-name="Path 26375" d="M150.03,177.084H148.5l-.056-.664c-.187-.2-.879-.954-.692-1.487a1.472,1.472,0,1,1,2.937.2c0,.019,0,.4-.617,1.16l-.028.786Zm-1.281-.281h1.01l.019-.608.028-.037c.57-.692.58-1.029.58-1.038.122-1.16-1.094-1.3-1.15-1.309-1.253.131-1.225,1.1-1.225,1.141v.028l-.009.028c-.131.309.327.926.655,1.244l.037.037.047.514Z" transform="translate(-137.387 -168.087)" fill="url(#linear-gradient-3)"/>
        <path id="Path_26376-4" data-name="Path 26376" d="M149.054,178.043a.376.376,0,0,1-.346-.337l-.028-.346h1.178v.318a.444.444,0,0,1-.355.365Zm-.065-.411v.056c0,.056.075.075.084.075h.4a.165.165,0,0,0,.1-.122h-.6Z" transform="translate(-137.45 -168.336)" fill="url(#linear-gradient-4)"/>
        <path id="Path_26377-4" data-name="Path 26377" d="M140.623,182.482l-1.653-2.1,1.252-1.275a3.236,3.236,0,0,1,2.043-.744l1.866.154.9.035c.094.024.531.142.626.484a.616.616,0,0,1-.213.626l-.035.035a3.027,3.027,0,0,1-1.653.26,2.376,2.376,0,0,0-.779,0V180a1.27,1.27,0,0,0,.5.059,3.954,3.954,0,0,0,2.267-.39.471.471,0,0,0,.165-.319v-.118l2.468-.8c.106-.024.8-.118,1.075.224a.589.589,0,0,1,.035.638l-.024.059-4.287,2.1a4.018,4.018,0,0,1-2.22.3,2.8,2.8,0,0,0-2.161.614l-.142.106Zm-1.181-2.078,1.24,1.582a3.067,3.067,0,0,1,2.291-.579,3.711,3.711,0,0,0,2.008-.26l4.181-2.055a.294.294,0,0,0,0-.224c-.106-.13-.484-.13-.72-.094l-2.208.72a.789.789,0,0,1-.272.449,4.358,4.358,0,0,1-2.515.472c-.449,0-.709-.071-.815-.248a.342.342,0,0,1-.024-.26.3.3,0,0,1,.083-.189c.213-.213.827-.154,1.086-.118a2.707,2.707,0,0,0,1.405-.189c.071-.083.142-.189.118-.272-.035-.118-.248-.213-.342-.236l-.862-.024-1.866-.154a2.858,2.858,0,0,0-1.771.638l-1.027,1.039Z" transform="translate(-138.97 -168.334)" fill="url(#linear-gradient-5)"/>
        <path id="Path_26378-4" data-name="Path 26378" d="M144.7,176.854a1.282,1.282,0,1,1,1.282-1.282A1.289,1.289,0,0,1,144.7,176.854Zm0-2.316a1.034,1.034,0,1,0,1.034,1.034A1.034,1.034,0,0,0,144.7,174.538Z" transform="translate(-137.756 -168.342)" fill="url(#linear-gradient-6)"/>
        <path id="Path_26379-4" data-name="Path 26379" d="M144.92,177.6h-.885l-.083-.381-.381-.174-.414.19-.62-.629.256-.323-.182-.372-.422-.174v-.86l.389-.083.207-.414-.248-.364.637-.562.339.19.438-.165.041-.43.9.05.091.381.414.165.356-.232.637.654-.215.331.149.414.463.108-.058.844-.372.091-.149.438.182.339-.6.6-.331-.2-.471.2-.083.347Zm-.687-.248h.488l.066-.281.711-.3.273.165.331-.339-.149-.273.232-.67.323-.083.033-.455-.389-.091-.24-.662.174-.273-.356-.364-.29.19-.645-.256-.083-.323-.488-.025-.033.347-.687.265-.29-.157-.339.306.207.306-.331.645-.306.066v.5l.356.141.29.6-.215.273.347.347.364-.165.6.273.066.306Z" transform="translate(-137.544 -168.127)" fill="url(#linear-gradient-7)"/>
      </g>
      <g id="Group_5333" data-name="Group 5333" transform="translate(0 0)">
        <path id="Path_26373-5" data-name="Path 26373" d="M149.515,173.932a5.024,5.024,0,0,1-.791-.071l-2.315-.142s-.508-.236-.52-.614c0-.236.165-.461.508-.65l.083-.024,2.055-.083a.471.471,0,0,0,.083-.106c-.012,0-.047-.012-.106-.024l-1.677.024c-.449.094-1.169.378-1.157.661q0,.165-1.157.508c-.307.094-.709.213-.98.3l.118.059-.484.094a1.178,1.178,0,0,1-.968-.2.71.71,0,0,1-.13-.685l.024-.083,5.019-2.326h.047a6.913,6.913,0,0,0,2.622-.118l1.181-.579,1.582,2.09-1.476,1.453a1.941,1.941,0,0,1-1.535.5Zm-2.988-.543,2.244.13c1.547.248,2.019-.307,2.031-.319l1.275-1.252-1.228-1.618-.886.437c-.437.342-2.315.224-2.8.177l-.85.39-3.921,1.819a.306.306,0,0,0,.059.283.763.763,0,0,0,.579.106,8.247,8.247,0,0,1,1.382-.461c.342-.094.744-.224.909-.283.106-.59,1.228-.862,1.464-.909l1.748-.024c.26.035.39.13.437.272.059.236-.177.449-.248.508l-.047.035-2.137.083c-.189.106-.3.224-.3.307,0,.106.165.224.283.283Z" transform="translate(-138.414 -169.87)" fill="url(#linear-gradient)"/>
        <path id="Path_26374-5" data-name="Path 26374" d="M139.715,178.335l.054-2.9a1.294,1.294,0,0,1-.59-.868,1.688,1.688,0,0,1,.635-1.386l.233-.224v1.359l.465.277.394-.259v-1.3l.206.125a1.629,1.629,0,0,1,.733,1.073,1.516,1.516,0,0,1-.581,1.243l-.08,2.129-1.458.724Zm.063-4.7a1.214,1.214,0,0,0-.331.9,1.108,1.108,0,0,0,.528.715l.072.036L140,177.915l.921-.456.072-2.075.045-.036a1.3,1.3,0,0,0,.537-1.055,1.179,1.179,0,0,0-.4-.716v.93l-.653.429-.742-.438v-.841Z" transform="translate(-138.075 -168.628)" fill="url(#linear-gradient-2)"/>
        <path id="Path_26375-5" data-name="Path 26375" d="M150.03,177.084H148.5l-.056-.664c-.187-.2-.879-.954-.692-1.487a1.472,1.472,0,1,1,2.937.2c0,.019,0,.4-.617,1.16l-.028.786Zm-1.281-.281h1.01l.019-.608.028-.037c.57-.692.58-1.029.58-1.038.122-1.16-1.094-1.3-1.15-1.309-1.253.131-1.225,1.1-1.225,1.141v.028l-.009.028c-.131.309.327.926.655,1.244l.037.037.047.514Z" transform="translate(-137.387 -168.087)" fill="url(#linear-gradient-3)"/>
        <path id="Path_26376-5" data-name="Path 26376" d="M149.054,178.043a.376.376,0,0,1-.346-.337l-.028-.346h1.178v.318a.444.444,0,0,1-.355.365Zm-.065-.411v.056c0,.056.075.075.084.075h.4a.165.165,0,0,0,.1-.122h-.6Z" transform="translate(-137.45 -168.336)" fill="url(#linear-gradient-4)"/>
        <path id="Path_26377-5" data-name="Path 26377" d="M140.623,182.482l-1.653-2.1,1.252-1.275a3.236,3.236,0,0,1,2.043-.744l1.866.154.9.035c.094.024.531.142.626.484a.616.616,0,0,1-.213.626l-.035.035a3.027,3.027,0,0,1-1.653.26,2.376,2.376,0,0,0-.779,0V180a1.27,1.27,0,0,0,.5.059,3.954,3.954,0,0,0,2.267-.39.471.471,0,0,0,.165-.319v-.118l2.468-.8c.106-.024.8-.118,1.075.224a.589.589,0,0,1,.035.638l-.024.059-4.287,2.1a4.018,4.018,0,0,1-2.22.3,2.8,2.8,0,0,0-2.161.614l-.142.106Zm-1.181-2.078,1.24,1.582a3.067,3.067,0,0,1,2.291-.579,3.711,3.711,0,0,0,2.008-.26l4.181-2.055a.294.294,0,0,0,0-.224c-.106-.13-.484-.13-.72-.094l-2.208.72a.789.789,0,0,1-.272.449,4.358,4.358,0,0,1-2.515.472c-.449,0-.709-.071-.815-.248a.342.342,0,0,1-.024-.26.3.3,0,0,1,.083-.189c.213-.213.827-.154,1.086-.118a2.707,2.707,0,0,0,1.405-.189c.071-.083.142-.189.118-.272-.035-.118-.248-.213-.342-.236l-.862-.024-1.866-.154a2.858,2.858,0,0,0-1.771.638l-1.027,1.039Z" transform="translate(-138.97 -168.334)" fill="url(#linear-gradient-5)"/>
        <path id="Path_26378-5" data-name="Path 26378" d="M144.7,176.854a1.282,1.282,0,1,1,1.282-1.282A1.289,1.289,0,0,1,144.7,176.854Zm0-2.316a1.034,1.034,0,1,0,1.034,1.034A1.034,1.034,0,0,0,144.7,174.538Z" transform="translate(-137.756 -168.342)" fill="url(#linear-gradient-6)"/>
        <path id="Path_26379-5" data-name="Path 26379" d="M144.92,177.6h-.885l-.083-.381-.381-.174-.414.19-.62-.629.256-.323-.182-.372-.422-.174v-.86l.389-.083.207-.414-.248-.364.637-.562.339.19.438-.165.041-.43.9.05.091.381.414.165.356-.232.637.654-.215.331.149.414.463.108-.058.844-.372.091-.149.438.182.339-.6.6-.331-.2-.471.2-.083.347Zm-.687-.248h.488l.066-.281.711-.3.273.165.331-.339-.149-.273.232-.67.323-.083.033-.455-.389-.091-.24-.662.174-.273-.356-.364-.29.19-.645-.256-.083-.323-.488-.025-.033.347-.687.265-.29-.157-.339.306.207.306-.331.645-.306.066v.5l.356.141.29.6-.215.273.347.347.364-.165.6.273.066.306Z" transform="translate(-137.544 -168.127)" fill="url(#linear-gradient-7)"/>
      </g>
    </g>
  </g>
</svg>
