<svg id="Group_6920" data-name="Group 6920" xmlns="http://www.w3.org/2000/svg" width="53.322" height="53.322" viewBox="0 0 53.322 53.322">
  <path id="Path_28397" data-name="Path 28397" d="M345.712,2406.581c0,14.722-9.569,26.661-26.661,26.661a26.661,26.661,0,1,1,26.661-26.661Z" transform="translate(-292.39 -2379.92)" fill="#ffcf36"/>
  <g id="Group_6919" data-name="Group 6919" transform="translate(8.739 15.948)">
    <path id="Path_28276" data-name="Path 28276" d="M2725.214,1338.531c-4.7-3.893-9.909-3.869-14.578,0-.562.465-1.068-.341-.688-1.086a8.674,8.674,0,0,1,15.952,0C2726.282,1338.19,2725.776,1339,2725.214,1338.531Z" transform="translate(-2699.818 -1317.296)" fill="#844b00"/>
    <path id="Path_28277" data-name="Path 28277" d="M2664.45,1269.45a8.088,8.088,0,0,0,14.545,6.8l-5.593-6.261-8.955-.535Z" transform="translate(-2664.05 -1268.27)" fill="#fff"/>
    <path id="Path_28278" data-name="Path 28278" d="M2679.421,1271.384a4.725,4.725,0,1,0,8.564,3.994c.7-1.5-7.863-5.494-8.562-3.994Z" transform="translate(-2675.716 -1269.522)" fill="#844b00"/>
    <path id="Path_28279" data-name="Path 28279" d="M2665.88,1265.229a7.883,7.883,0,0,1,4.37-1.18,11.1,11.1,0,0,1,4.532,1.038,10.941,10.941,0,0,1,3.727,2.79,7.834,7.834,0,0,1,1.918,4.149,23.948,23.948,0,0,0-3.22-2.746,21.981,21.981,0,0,0-3.447-1.986,22.289,22.289,0,0,0-3.747-1.35,24.932,24.932,0,0,0-4.133-.712Z" transform="translate(-2665.481 -1264.05)" fill="#844b00"/>
    <path id="Path_28280" data-name="Path 28280" d="M2775.945,1269.45a8.088,8.088,0,0,1-14.545,6.8l5.592-6.261,8.955-.535Z" transform="translate(-2740.133 -1268.27)" fill="#fff"/>
    <path id="Path_28281" data-name="Path 28281" d="M2782.086,1271.384a4.724,4.724,0,1,1-8.562,3.994C2772.826,1273.876,2781.385,1269.883,2782.086,1271.384Z" transform="translate(-2749.577 -1269.522)" fill="#844b00"/>
    <path id="Path_28282" data-name="Path 28282" d="M2775.938,1265.229a7.876,7.876,0,0,0-4.369-1.18,11.093,11.093,0,0,0-4.533,1.038,10.941,10.941,0,0,0-3.727,2.79,7.836,7.836,0,0,0-1.918,4.149,23.949,23.949,0,0,1,3.22-2.746,21.959,21.959,0,0,1,3.447-1.986,22.273,22.273,0,0,1,3.747-1.35,24.951,24.951,0,0,1,4.133-.712Z" transform="translate(-2740.125 -1264.05)" fill="#844b00"/>
  </g>
</svg>
