<svg xmlns="http://www.w3.org/2000/svg" xmlns:xlink="http://www.w3.org/1999/xlink" width="25.147" height="24.113" viewBox="0 0 25.147 24.113">
  <defs>
    <linearGradient id="linear-gradient" x1="0.5" x2="0.5" y2="1" gradientUnits="objectBoundingBox">
      <stop offset="0" stop-color="#33d4a3"/>
      <stop offset="0.304" stop-color="#2dacb1"/>
      <stop offset="1" stop-color="#2986c0"/>
      <stop offset="1" stop-color="#2466cf"/>
    </linearGradient>
  </defs>
  <path id="construction_24dp_5F6368_FILL0_wght200_GRAD0_opsz24" d="M156.628-776.117l-8.364-8.364,1.6-1.6,8.364,8.364Zm-20.935,0-1.6-1.6L144.576-788.2l-4.473-4.444-.823.823-1.428-1.457v2.712l-.823.823-3.949-3.949.823-.823h2.712l-1.449-1.419,3.262-3.262a3.448,3.448,0,0,1,1.141-.774,3.479,3.479,0,0,1,1.321-.252,3.478,3.478,0,0,1,1.321.252,3.451,3.451,0,0,1,1.142.774l-2.48,2.48,1.652,1.651-.823.823,4.473,4.444,3.853-3.853a3.176,3.176,0,0,1-.491-1.025,4.518,4.518,0,0,1-.138-1.15,4.25,4.25,0,0,1,1.279-3.125,4.251,4.251,0,0,1,3.125-1.279,5.051,5.051,0,0,1,.755.055,2.558,2.558,0,0,1,.717.223l-3.12,3.12,2.654,2.654,3.12-3.12a2.306,2.306,0,0,1,.227.717,5.453,5.453,0,0,1,.051.755,4.25,4.25,0,0,1-1.279,3.125,4.25,4.25,0,0,1-3.124,1.279,4.675,4.675,0,0,1-1.15-.133,3.028,3.028,0,0,1-1.026-.5Z" transform="translate(-133.08 800.23)" fill="url(#linear-gradient)"/>
</svg>
