<svg id="Group_5352" data-name="Group 5352" xmlns="http://www.w3.org/2000/svg" xmlns:xlink="http://www.w3.org/1999/xlink" width="14" height="11.653" viewBox="0 0 14 11.653">
  <defs>
    <linearGradient id="linear-gradient" y1="0.501" x2="1" y2="0.501" gradientUnits="objectBoundingBox">
      <stop offset="0" stop-color="#55bf9b"/>
      <stop offset="0.33" stop-color="#2dacb1"/>
      <stop offset="0.74" stop-color="#2986c1"/>
      <stop offset="1" stop-color="#3b67b1"/>
    </linearGradient>
    <linearGradient id="linear-gradient-2" y1="0.501" x2="1" y2="0.501" gradientUnits="objectBoundingBox">
      <stop offset="0" stop-color="#55bf9b"/>
      <stop offset="0.15" stop-color="#2dacb1"/>
      <stop offset="0.4" stop-color="#2986c1"/>
      <stop offset="1" stop-color="#3b67b1"/>
    </linearGradient>
    <linearGradient id="linear-gradient-3" x1="-0.001" y1="0.498" x2="1" y2="0.498" xlink:href="#linear-gradient"/>
    <linearGradient id="linear-gradient-4" x1="0.001" y1="0.5" x2="1" y2="0.5" xlink:href="#linear-gradient-2"/>
    <linearGradient id="linear-gradient-5" x1="-0.001" y1="0.499" x2="0.998" y2="0.499" xlink:href="#linear-gradient"/>
    <linearGradient id="linear-gradient-6" x1="0" y1="0.498" x2="1" y2="0.498" xlink:href="#linear-gradient-2"/>
    <linearGradient id="linear-gradient-7" x1="0" y1="0.501" x2="1" y2="0.501" xlink:href="#linear-gradient"/>
    <linearGradient id="linear-gradient-8" x1="0" y1="0.501" x2="1" y2="0.501" xlink:href="#linear-gradient-2"/>
    <linearGradient id="linear-gradient-9" x1="0.004" y1="0.497" x2="0.997" y2="0.497" xlink:href="#linear-gradient"/>
    <linearGradient id="linear-gradient-10" x1="0" y1="0.5" x2="0.997" y2="0.5" xlink:href="#linear-gradient"/>
  </defs>
  <g id="Group_4336" data-name="Group 4336" transform="translate(0 0)">
    <g id="Group_4293" data-name="Group 4293" transform="translate(0 7.024)">
      <path id="Path_25366" data-name="Path 25366" d="M56.226,69.926l-.106-.092.841-.926-2.389-3.145-1.2.678-.071-.127,1.307-.735,2.537,3.336Z" transform="translate(-53.152 -65.446)" fill="url(#linear-gradient)"/>
      <path id="Path_25367" data-name="Path 25367" d="M56.171,70.019l-.261-.233.855-.94-2.283-3-1.216.678-.177-.3,1.484-.834.057.071,2.594,3.406Z" transform="translate(-53.09 -65.39)" fill="url(#linear-gradient-2)"/>
    </g>
    <g id="Group_4294" data-name="Group 4294" transform="translate(3.477 5.872)">
      <path id="Path_25368" data-name="Path 25368" d="M58.192,68.039l-.042-.134.495-.163h5.576l4.134-3.18a.68.68,0,0,0-.3-.473,1.042,1.042,0,0,0-.94.085l-2.254,1.314-.071-.12,2.261-1.322a1.161,1.161,0,0,1,1.074-.078.879.879,0,0,1,.375.622v.035l-.028.021-4.2,3.237H58.659l-.459.155Z" transform="translate(-58.051 -63.792)" fill="url(#linear-gradient-3)"/>
      <path id="Path_25369" data-name="Path 25369" d="M58.1,68.092l-.092-.269.579-.191h5.555l4.085-3.138a.6.6,0,0,0-.254-.382,1,1,0,0,0-.876.085l-2.311,1.35-.141-.247,2.325-1.357a1.256,1.256,0,0,1,1.152-.078.937.937,0,0,1,.41.678v.078l-.057.049L64.25,67.922H58.625l-.516.177Zm.509-.311H64.2l3-2.311-3,2.311Zm9.371-3.823s.042.021.064.035a.765.765,0,0,1,.332.523v.014a.764.764,0,0,0-.332-.537c-.021-.014-.042-.021-.064-.035Z" transform="translate(-58.01 -63.759)" fill="url(#linear-gradient-4)"/>
    </g>
    <g id="Group_4295" data-name="Group 4295" transform="translate(1.618 5.877)">
      <path id="Path_25370" data-name="Path 25370" d="M60.237,66.085v-.141l3.534-.049a.365.365,0,0,0,.057-.3c-.085-.375-.643-.707-.742-.763H61.89a2.346,2.346,0,0,1-1.2-.134c0,.007-.014.014-.021.028-.049.049-.1.028-.318-.184l-.4-.382.346.191c-.495-.488-1.922-.332-2.078-.311L55.6,65.64l-.071-.12L58.194,63.9c.071-.007,1.738-.233,2.269.41.071.085.12.148.155.2a2.372,2.372,0,0,0,1.272.177h1.244l.014.007c.028.014.721.389.827.862a.531.531,0,0,1-.1.445l-.021.028H63.82l-3.569.049Z" transform="translate(-55.424 -63.793)" fill="url(#linear-gradient-5)"/>
      <path id="Path_25371" data-name="Path 25371" d="M60.122,66.129v-.283l3.562-.049a.3.3,0,0,0,.028-.219c-.071-.332-.579-.643-.693-.707H61.846a2.393,2.393,0,0,1-1.18-.12c-.113.1-.233-.014-.41-.184l-.41-.4a4.453,4.453,0,0,0-1.647-.085L55.528,65.72l-.148-.24,2.749-1.668c.071-.007,1.774-.24,2.332.431.064.078.113.134.148.184a2.285,2.285,0,0,0,1.216.163H63.1l.028.014c.078.042.756.424.862.912a.608.608,0,0,1-.113.509l-.042.057h-.071l-3.64.049Zm.141-.141,2.961-.042-2.961.042Zm3.526-.1a.022.022,0,0,1-.007.014h0s.007,0,.014-.014Zm0,0Zm-8.219-.367.035-.021Zm7.47-.792h.035a2.328,2.328,0,0,1,.678.6,2.276,2.276,0,0,0-.7-.6H61.832a2.407,2.407,0,0,1-1.23-.155l.014.014h.042a2.149,2.149,0,0,0,1.166.134h1.208Zm-2.693-.269a.96.96,0,0,0,.226.184L60.6,64.6l-.247-.141Zm-.057-.2.007.007h0a.022.022,0,0,1-.014-.007Zm-2.127-.318h0c.035,0,.1-.014.177-.021A1.478,1.478,0,0,0,58.164,63.946Z" transform="translate(-55.38 -63.767)" fill="url(#linear-gradient-6)"/>
    </g>
    <g id="Group_4296" data-name="Group 4296" transform="translate(6.586 0)">
      <path id="Path_25372" data-name="Path 25372" d="M65.394,61.323a2.889,2.889,0,0,1-2.855-2.488h0A2.886,2.886,0,1,1,65.8,61.3,2.574,2.574,0,0,1,65.394,61.323ZM62.68,58.815a2.743,2.743,0,1,0,2.339-3.1,2.742,2.742,0,0,0-2.339,3.1Z" transform="translate(-62.439 -55.479)" fill="url(#linear-gradient-7)"/>
      <path id="Path_25373" data-name="Path 25373" d="M65.364,61.365a2.957,2.957,0,1,1,1.781-5.322,2.958,2.958,0,0,1-1.371,5.293A2.666,2.666,0,0,1,65.364,61.365Zm.777-.247a2.437,2.437,0,0,1-.382.078c-.028,0-.057.007-.085.007a.344.344,0,0,0,.085-.007A3.035,3.035,0,0,0,66.141,61.118Zm-3.42-2.339a2.675,2.675,0,0,0,5.3-.735,2.675,2.675,0,1,0-5.3.735h0Zm2.643-3.187a2.827,2.827,0,0,1,2.791,2.424,2.751,2.751,0,0,1-.12,1.293,2.759,2.759,0,0,0,.12-1.293,2.8,2.8,0,0,0-1.1-1.859,2.751,2.751,0,0,0-2.078-.537,2.509,2.509,0,0,0-.332.064,2.509,2.509,0,0,1,.332-.064,3.593,3.593,0,0,1,.389-.028Zm-2.629,1.823a2.817,2.817,0,0,0-.155,1.378.636.636,0,0,0,.021.113.636.636,0,0,0-.021-.113h0A2.9,2.9,0,0,1,62.735,57.415Z" transform="translate(-62.409 -55.451)" fill="url(#linear-gradient-8)"/>
    </g>
    <path id="Path_25374" data-name="Path 25374" d="M66.184,60.6a1.022,1.022,0,0,1-.643-.247,1.787,1.787,0,0,1-.2-2.594,1.257,1.257,0,0,1,1.618,0l-.085.113a1.128,1.128,0,0,0-1.428,0,1.629,1.629,0,0,0,.2,2.389.877.877,0,0,0,.594.2.913.913,0,0,0,.629-.367l.106.092a1.034,1.034,0,0,1-.728.417h-.057Z" transform="translate(-56.545 -56.037)" fill="url(#linear-gradient-9)"/>
    <rect id="Rectangle_2194" data-name="Rectangle 2194" width="2.134" height="0.141" transform="translate(7.972 3.18)" fill="url(#linear-gradient-10)"/>
    <rect id="Rectangle_2195" data-name="Rectangle 2195" width="2.134" height="0.141" transform="translate(7.972 2.572)" fill="url(#linear-gradient-10)"/>
  </g>
  <g id="Group_5342" data-name="Group 5342" transform="translate(0 0)">
    <g id="Group_4293-2" data-name="Group 4293" transform="translate(0 7.024)">
      <path id="Path_25366-2" data-name="Path 25366" d="M56.226,69.926l-.106-.092.841-.926-2.389-3.145-1.2.678-.071-.127,1.307-.735,2.537,3.336Z" transform="translate(-53.152 -65.446)" fill="url(#linear-gradient)"/>
      <path id="Path_25367-2" data-name="Path 25367" d="M56.171,70.019l-.261-.233.855-.94-2.283-3-1.216.678-.177-.3,1.484-.834.057.071,2.594,3.406Z" transform="translate(-53.09 -65.39)" fill="url(#linear-gradient-2)"/>
    </g>
    <g id="Group_4294-2" data-name="Group 4294" transform="translate(3.477 5.872)">
      <path id="Path_25368-2" data-name="Path 25368" d="M58.192,68.039l-.042-.134.495-.163h5.576l4.134-3.18a.68.68,0,0,0-.3-.473,1.042,1.042,0,0,0-.94.085l-2.254,1.314-.071-.12,2.261-1.322a1.161,1.161,0,0,1,1.074-.078.879.879,0,0,1,.375.622v.035l-.028.021-4.2,3.237H58.659l-.459.155Z" transform="translate(-58.051 -63.792)" fill="url(#linear-gradient-3)"/>
      <path id="Path_25369-2" data-name="Path 25369" d="M58.1,68.092l-.092-.269.579-.191h5.555l4.085-3.138a.6.6,0,0,0-.254-.382,1,1,0,0,0-.876.085l-2.311,1.35-.141-.247,2.325-1.357a1.256,1.256,0,0,1,1.152-.078.937.937,0,0,1,.41.678v.078l-.057.049L64.25,67.922H58.625l-.516.177Zm.509-.311H64.2l3-2.311-3,2.311Zm9.371-3.823s.042.021.064.035a.765.765,0,0,1,.332.523v.014a.764.764,0,0,0-.332-.537c-.021-.014-.042-.021-.064-.035Z" transform="translate(-58.01 -63.759)" fill="url(#linear-gradient-4)"/>
    </g>
    <g id="Group_4295-2" data-name="Group 4295" transform="translate(1.618 5.877)">
      <path id="Path_25370-2" data-name="Path 25370" d="M60.237,66.085v-.141l3.534-.049a.365.365,0,0,0,.057-.3c-.085-.375-.643-.707-.742-.763H61.89a2.346,2.346,0,0,1-1.2-.134c0,.007-.014.014-.021.028-.049.049-.1.028-.318-.184l-.4-.382.346.191c-.495-.488-1.922-.332-2.078-.311L55.6,65.64l-.071-.12L58.194,63.9c.071-.007,1.738-.233,2.269.41.071.085.12.148.155.2a2.372,2.372,0,0,0,1.272.177h1.244l.014.007c.028.014.721.389.827.862a.531.531,0,0,1-.1.445l-.021.028H63.82l-3.569.049Z" transform="translate(-55.424 -63.793)" fill="url(#linear-gradient-5)"/>
      <path id="Path_25371-2" data-name="Path 25371" d="M60.122,66.129v-.283l3.562-.049a.3.3,0,0,0,.028-.219c-.071-.332-.579-.643-.693-.707H61.846a2.393,2.393,0,0,1-1.18-.12c-.113.1-.233-.014-.41-.184l-.41-.4a4.453,4.453,0,0,0-1.647-.085L55.528,65.72l-.148-.24,2.749-1.668c.071-.007,1.774-.24,2.332.431.064.078.113.134.148.184a2.285,2.285,0,0,0,1.216.163H63.1l.028.014c.078.042.756.424.862.912a.608.608,0,0,1-.113.509l-.042.057h-.071l-3.64.049Zm.141-.141,2.961-.042-2.961.042Zm3.526-.1a.022.022,0,0,1-.007.014h0s.007,0,.014-.014Zm0,0Zm-8.219-.367.035-.021Zm7.47-.792h.035a2.328,2.328,0,0,1,.678.6,2.276,2.276,0,0,0-.7-.6H61.832a2.407,2.407,0,0,1-1.23-.155l.014.014h.042a2.149,2.149,0,0,0,1.166.134h1.208Zm-2.693-.269a.96.96,0,0,0,.226.184L60.6,64.6l-.247-.141Zm-.057-.2.007.007h0a.022.022,0,0,1-.014-.007Zm-2.127-.318h0c.035,0,.1-.014.177-.021A1.478,1.478,0,0,0,58.164,63.946Z" transform="translate(-55.38 -63.767)" fill="url(#linear-gradient-6)"/>
    </g>
    <g id="Group_4296-2" data-name="Group 4296" transform="translate(6.586 0)">
      <path id="Path_25372-2" data-name="Path 25372" d="M65.394,61.323a2.889,2.889,0,0,1-2.855-2.488h0A2.886,2.886,0,1,1,65.8,61.3,2.574,2.574,0,0,1,65.394,61.323ZM62.68,58.815a2.743,2.743,0,1,0,2.339-3.1,2.742,2.742,0,0,0-2.339,3.1Z" transform="translate(-62.439 -55.479)" fill="url(#linear-gradient-7)"/>
      <path id="Path_25373-2" data-name="Path 25373" d="M65.364,61.365a2.957,2.957,0,1,1,1.781-5.322,2.958,2.958,0,0,1-1.371,5.293A2.666,2.666,0,0,1,65.364,61.365Zm.777-.247a2.437,2.437,0,0,1-.382.078c-.028,0-.057.007-.085.007a.344.344,0,0,0,.085-.007A3.035,3.035,0,0,0,66.141,61.118Zm-3.42-2.339a2.675,2.675,0,0,0,5.3-.735,2.675,2.675,0,1,0-5.3.735h0Zm2.643-3.187a2.827,2.827,0,0,1,2.791,2.424,2.751,2.751,0,0,1-.12,1.293,2.759,2.759,0,0,0,.12-1.293,2.8,2.8,0,0,0-1.1-1.859,2.751,2.751,0,0,0-2.078-.537,2.509,2.509,0,0,0-.332.064,2.509,2.509,0,0,1,.332-.064,3.593,3.593,0,0,1,.389-.028Zm-2.629,1.823a2.817,2.817,0,0,0-.155,1.378.636.636,0,0,0,.021.113.636.636,0,0,0-.021-.113h0A2.9,2.9,0,0,1,62.735,57.415Z" transform="translate(-62.409 -55.451)" fill="url(#linear-gradient-8)"/>
    </g>
    <path id="Path_25374-2" data-name="Path 25374" d="M66.184,60.6a1.022,1.022,0,0,1-.643-.247,1.787,1.787,0,0,1-.2-2.594,1.257,1.257,0,0,1,1.618,0l-.085.113a1.128,1.128,0,0,0-1.428,0,1.629,1.629,0,0,0,.2,2.389.877.877,0,0,0,.594.2.913.913,0,0,0,.629-.367l.106.092a1.034,1.034,0,0,1-.728.417h-.057Z" transform="translate(-56.545 -56.037)" fill="url(#linear-gradient-9)"/>
    <rect id="Rectangle_2194-2" data-name="Rectangle 2194" width="2.134" height="0.141" transform="translate(7.972 3.18)" fill="url(#linear-gradient-10)"/>
    <rect id="Rectangle_2195-2" data-name="Rectangle 2195" width="2.134" height="0.141" transform="translate(7.972 2.572)" fill="url(#linear-gradient-10)"/>
  </g>
  <g id="Group_5343" data-name="Group 5343" transform="translate(0 0)">
    <g id="Group_4293-3" data-name="Group 4293" transform="translate(0 7.024)">
      <path id="Path_25366-3" data-name="Path 25366" d="M56.226,69.926l-.106-.092.841-.926-2.389-3.145-1.2.678-.071-.127,1.307-.735,2.537,3.336Z" transform="translate(-53.152 -65.446)" fill="url(#linear-gradient)"/>
      <path id="Path_25367-3" data-name="Path 25367" d="M56.171,70.019l-.261-.233.855-.94-2.283-3-1.216.678-.177-.3,1.484-.834.057.071,2.594,3.406Z" transform="translate(-53.09 -65.39)" fill="url(#linear-gradient-2)"/>
    </g>
    <g id="Group_4294-3" data-name="Group 4294" transform="translate(3.477 5.872)">
      <path id="Path_25368-3" data-name="Path 25368" d="M58.192,68.039l-.042-.134.495-.163h5.576l4.134-3.18a.68.68,0,0,0-.3-.473,1.042,1.042,0,0,0-.94.085l-2.254,1.314-.071-.12,2.261-1.322a1.161,1.161,0,0,1,1.074-.078.879.879,0,0,1,.375.622v.035l-.028.021-4.2,3.237H58.659l-.459.155Z" transform="translate(-58.051 -63.792)" fill="url(#linear-gradient-3)"/>
      <path id="Path_25369-3" data-name="Path 25369" d="M58.1,68.092l-.092-.269.579-.191h5.555l4.085-3.138a.6.6,0,0,0-.254-.382,1,1,0,0,0-.876.085l-2.311,1.35-.141-.247,2.325-1.357a1.256,1.256,0,0,1,1.152-.078.937.937,0,0,1,.41.678v.078l-.057.049L64.25,67.922H58.625l-.516.177Zm.509-.311H64.2l3-2.311-3,2.311Zm9.371-3.823s.042.021.064.035a.765.765,0,0,1,.332.523v.014a.764.764,0,0,0-.332-.537c-.021-.014-.042-.021-.064-.035Z" transform="translate(-58.01 -63.759)" fill="url(#linear-gradient-4)"/>
    </g>
    <g id="Group_4295-3" data-name="Group 4295" transform="translate(1.618 5.877)">
      <path id="Path_25370-3" data-name="Path 25370" d="M60.237,66.085v-.141l3.534-.049a.365.365,0,0,0,.057-.3c-.085-.375-.643-.707-.742-.763H61.89a2.346,2.346,0,0,1-1.2-.134c0,.007-.014.014-.021.028-.049.049-.1.028-.318-.184l-.4-.382.346.191c-.495-.488-1.922-.332-2.078-.311L55.6,65.64l-.071-.12L58.194,63.9c.071-.007,1.738-.233,2.269.41.071.085.12.148.155.2a2.372,2.372,0,0,0,1.272.177h1.244l.014.007c.028.014.721.389.827.862a.531.531,0,0,1-.1.445l-.021.028H63.82l-3.569.049Z" transform="translate(-55.424 -63.793)" fill="url(#linear-gradient-5)"/>
      <path id="Path_25371-3" data-name="Path 25371" d="M60.122,66.129v-.283l3.562-.049a.3.3,0,0,0,.028-.219c-.071-.332-.579-.643-.693-.707H61.846a2.393,2.393,0,0,1-1.18-.12c-.113.1-.233-.014-.41-.184l-.41-.4a4.453,4.453,0,0,0-1.647-.085L55.528,65.72l-.148-.24,2.749-1.668c.071-.007,1.774-.24,2.332.431.064.078.113.134.148.184a2.285,2.285,0,0,0,1.216.163H63.1l.028.014c.078.042.756.424.862.912a.608.608,0,0,1-.113.509l-.042.057h-.071l-3.64.049Zm.141-.141,2.961-.042-2.961.042Zm3.526-.1a.022.022,0,0,1-.007.014h0s.007,0,.014-.014Zm0,0Zm-8.219-.367.035-.021Zm7.47-.792h.035a2.328,2.328,0,0,1,.678.6,2.276,2.276,0,0,0-.7-.6H61.832a2.407,2.407,0,0,1-1.23-.155l.014.014h.042a2.149,2.149,0,0,0,1.166.134h1.208Zm-2.693-.269a.96.96,0,0,0,.226.184L60.6,64.6l-.247-.141Zm-.057-.2.007.007h0a.022.022,0,0,1-.014-.007Zm-2.127-.318h0c.035,0,.1-.014.177-.021A1.478,1.478,0,0,0,58.164,63.946Z" transform="translate(-55.38 -63.767)" fill="url(#linear-gradient-6)"/>
    </g>
    <g id="Group_4296-3" data-name="Group 4296" transform="translate(6.586 0)">
      <path id="Path_25372-3" data-name="Path 25372" d="M65.394,61.323a2.889,2.889,0,0,1-2.855-2.488h0A2.886,2.886,0,1,1,65.8,61.3,2.574,2.574,0,0,1,65.394,61.323ZM62.68,58.815a2.743,2.743,0,1,0,2.339-3.1,2.742,2.742,0,0,0-2.339,3.1Z" transform="translate(-62.439 -55.479)" fill="url(#linear-gradient-7)"/>
      <path id="Path_25373-3" data-name="Path 25373" d="M65.364,61.365a2.957,2.957,0,1,1,1.781-5.322,2.958,2.958,0,0,1-1.371,5.293A2.666,2.666,0,0,1,65.364,61.365Zm.777-.247a2.437,2.437,0,0,1-.382.078c-.028,0-.057.007-.085.007a.344.344,0,0,0,.085-.007A3.035,3.035,0,0,0,66.141,61.118Zm-3.42-2.339a2.675,2.675,0,0,0,5.3-.735,2.675,2.675,0,1,0-5.3.735h0Zm2.643-3.187a2.827,2.827,0,0,1,2.791,2.424,2.751,2.751,0,0,1-.12,1.293,2.759,2.759,0,0,0,.12-1.293,2.8,2.8,0,0,0-1.1-1.859,2.751,2.751,0,0,0-2.078-.537,2.509,2.509,0,0,0-.332.064,2.509,2.509,0,0,1,.332-.064,3.593,3.593,0,0,1,.389-.028Zm-2.629,1.823a2.817,2.817,0,0,0-.155,1.378.636.636,0,0,0,.021.113.636.636,0,0,0-.021-.113h0A2.9,2.9,0,0,1,62.735,57.415Z" transform="translate(-62.409 -55.451)" fill="url(#linear-gradient-8)"/>
    </g>
    <path id="Path_25374-3" data-name="Path 25374" d="M66.184,60.6a1.022,1.022,0,0,1-.643-.247,1.787,1.787,0,0,1-.2-2.594,1.257,1.257,0,0,1,1.618,0l-.085.113a1.128,1.128,0,0,0-1.428,0,1.629,1.629,0,0,0,.2,2.389.877.877,0,0,0,.594.2.913.913,0,0,0,.629-.367l.106.092a1.034,1.034,0,0,1-.728.417h-.057Z" transform="translate(-56.545 -56.037)" fill="url(#linear-gradient-9)"/>
    <rect id="Rectangle_2194-3" data-name="Rectangle 2194" width="2.134" height="0.141" transform="translate(7.972 3.18)" fill="url(#linear-gradient-10)"/>
    <rect id="Rectangle_2195-3" data-name="Rectangle 2195" width="2.134" height="0.141" transform="translate(7.972 2.572)" fill="url(#linear-gradient-10)"/>
  </g>
  <g id="Group_5344" data-name="Group 5344" transform="translate(0 0)">
    <g id="Group_4293-4" data-name="Group 4293" transform="translate(0 7.024)">
      <path id="Path_25366-4" data-name="Path 25366" d="M56.226,69.926l-.106-.092.841-.926-2.389-3.145-1.2.678-.071-.127,1.307-.735,2.537,3.336Z" transform="translate(-53.152 -65.446)" fill="url(#linear-gradient)"/>
      <path id="Path_25367-4" data-name="Path 25367" d="M56.171,70.019l-.261-.233.855-.94-2.283-3-1.216.678-.177-.3,1.484-.834.057.071,2.594,3.406Z" transform="translate(-53.09 -65.39)" fill="url(#linear-gradient-2)"/>
    </g>
    <g id="Group_4294-4" data-name="Group 4294" transform="translate(3.477 5.872)">
      <path id="Path_25368-4" data-name="Path 25368" d="M58.192,68.039l-.042-.134.495-.163h5.576l4.134-3.18a.68.68,0,0,0-.3-.473,1.042,1.042,0,0,0-.94.085l-2.254,1.314-.071-.12,2.261-1.322a1.161,1.161,0,0,1,1.074-.078.879.879,0,0,1,.375.622v.035l-.028.021-4.2,3.237H58.659l-.459.155Z" transform="translate(-58.051 -63.792)" fill="url(#linear-gradient-3)"/>
      <path id="Path_25369-4" data-name="Path 25369" d="M58.1,68.092l-.092-.269.579-.191h5.555l4.085-3.138a.6.6,0,0,0-.254-.382,1,1,0,0,0-.876.085l-2.311,1.35-.141-.247,2.325-1.357a1.256,1.256,0,0,1,1.152-.078.937.937,0,0,1,.41.678v.078l-.057.049L64.25,67.922H58.625l-.516.177Zm.509-.311H64.2l3-2.311-3,2.311Zm9.371-3.823s.042.021.064.035a.765.765,0,0,1,.332.523v.014a.764.764,0,0,0-.332-.537c-.021-.014-.042-.021-.064-.035Z" transform="translate(-58.01 -63.759)" fill="url(#linear-gradient-4)"/>
    </g>
    <g id="Group_4295-4" data-name="Group 4295" transform="translate(1.618 5.877)">
      <path id="Path_25370-4" data-name="Path 25370" d="M60.237,66.085v-.141l3.534-.049a.365.365,0,0,0,.057-.3c-.085-.375-.643-.707-.742-.763H61.89a2.346,2.346,0,0,1-1.2-.134c0,.007-.014.014-.021.028-.049.049-.1.028-.318-.184l-.4-.382.346.191c-.495-.488-1.922-.332-2.078-.311L55.6,65.64l-.071-.12L58.194,63.9c.071-.007,1.738-.233,2.269.41.071.085.12.148.155.2a2.372,2.372,0,0,0,1.272.177h1.244l.014.007c.028.014.721.389.827.862a.531.531,0,0,1-.1.445l-.021.028H63.82l-3.569.049Z" transform="translate(-55.424 -63.793)" fill="url(#linear-gradient-5)"/>
      <path id="Path_25371-4" data-name="Path 25371" d="M60.122,66.129v-.283l3.562-.049a.3.3,0,0,0,.028-.219c-.071-.332-.579-.643-.693-.707H61.846a2.393,2.393,0,0,1-1.18-.12c-.113.1-.233-.014-.41-.184l-.41-.4a4.453,4.453,0,0,0-1.647-.085L55.528,65.72l-.148-.24,2.749-1.668c.071-.007,1.774-.24,2.332.431.064.078.113.134.148.184a2.285,2.285,0,0,0,1.216.163H63.1l.028.014c.078.042.756.424.862.912a.608.608,0,0,1-.113.509l-.042.057h-.071l-3.64.049Zm.141-.141,2.961-.042-2.961.042Zm3.526-.1a.022.022,0,0,1-.007.014h0s.007,0,.014-.014Zm0,0Zm-8.219-.367.035-.021Zm7.47-.792h.035a2.328,2.328,0,0,1,.678.6,2.276,2.276,0,0,0-.7-.6H61.832a2.407,2.407,0,0,1-1.23-.155l.014.014h.042a2.149,2.149,0,0,0,1.166.134h1.208Zm-2.693-.269a.96.96,0,0,0,.226.184L60.6,64.6l-.247-.141Zm-.057-.2.007.007h0a.022.022,0,0,1-.014-.007Zm-2.127-.318h0c.035,0,.1-.014.177-.021A1.478,1.478,0,0,0,58.164,63.946Z" transform="translate(-55.38 -63.767)" fill="url(#linear-gradient-6)"/>
    </g>
    <g id="Group_4296-4" data-name="Group 4296" transform="translate(6.586 0)">
      <path id="Path_25372-4" data-name="Path 25372" d="M65.394,61.323a2.889,2.889,0,0,1-2.855-2.488h0A2.886,2.886,0,1,1,65.8,61.3,2.574,2.574,0,0,1,65.394,61.323ZM62.68,58.815a2.743,2.743,0,1,0,2.339-3.1,2.742,2.742,0,0,0-2.339,3.1Z" transform="translate(-62.439 -55.479)" fill="url(#linear-gradient-7)"/>
      <path id="Path_25373-4" data-name="Path 25373" d="M65.364,61.365a2.957,2.957,0,1,1,1.781-5.322,2.958,2.958,0,0,1-1.371,5.293A2.666,2.666,0,0,1,65.364,61.365Zm.777-.247a2.437,2.437,0,0,1-.382.078c-.028,0-.057.007-.085.007a.344.344,0,0,0,.085-.007A3.035,3.035,0,0,0,66.141,61.118Zm-3.42-2.339a2.675,2.675,0,0,0,5.3-.735,2.675,2.675,0,1,0-5.3.735h0Zm2.643-3.187a2.827,2.827,0,0,1,2.791,2.424,2.751,2.751,0,0,1-.12,1.293,2.759,2.759,0,0,0,.12-1.293,2.8,2.8,0,0,0-1.1-1.859,2.751,2.751,0,0,0-2.078-.537,2.509,2.509,0,0,0-.332.064,2.509,2.509,0,0,1,.332-.064,3.593,3.593,0,0,1,.389-.028Zm-2.629,1.823a2.817,2.817,0,0,0-.155,1.378.636.636,0,0,0,.021.113.636.636,0,0,0-.021-.113h0A2.9,2.9,0,0,1,62.735,57.415Z" transform="translate(-62.409 -55.451)" fill="url(#linear-gradient-8)"/>
    </g>
    <path id="Path_25374-4" data-name="Path 25374" d="M66.184,60.6a1.022,1.022,0,0,1-.643-.247,1.787,1.787,0,0,1-.2-2.594,1.257,1.257,0,0,1,1.618,0l-.085.113a1.128,1.128,0,0,0-1.428,0,1.629,1.629,0,0,0,.2,2.389.877.877,0,0,0,.594.2.913.913,0,0,0,.629-.367l.106.092a1.034,1.034,0,0,1-.728.417h-.057Z" transform="translate(-56.545 -56.037)" fill="url(#linear-gradient-9)"/>
    <rect id="Rectangle_2194-4" data-name="Rectangle 2194" width="2.134" height="0.141" transform="translate(7.972 3.18)" fill="url(#linear-gradient-10)"/>
    <rect id="Rectangle_2195-4" data-name="Rectangle 2195" width="2.134" height="0.141" transform="translate(7.972 2.572)" fill="url(#linear-gradient-10)"/>
  </g>
  <g id="Group_5345" data-name="Group 5345" transform="translate(0 0)">
    <g id="Group_4293-5" data-name="Group 4293" transform="translate(0 7.024)">
      <path id="Path_25366-5" data-name="Path 25366" d="M56.226,69.926l-.106-.092.841-.926-2.389-3.145-1.2.678-.071-.127,1.307-.735,2.537,3.336Z" transform="translate(-53.152 -65.446)" fill="url(#linear-gradient)"/>
      <path id="Path_25367-5" data-name="Path 25367" d="M56.171,70.019l-.261-.233.855-.94-2.283-3-1.216.678-.177-.3,1.484-.834.057.071,2.594,3.406Z" transform="translate(-53.09 -65.39)" fill="url(#linear-gradient-2)"/>
    </g>
    <g id="Group_4294-5" data-name="Group 4294" transform="translate(3.477 5.872)">
      <path id="Path_25368-5" data-name="Path 25368" d="M58.192,68.039l-.042-.134.495-.163h5.576l4.134-3.18a.68.68,0,0,0-.3-.473,1.042,1.042,0,0,0-.94.085l-2.254,1.314-.071-.12,2.261-1.322a1.161,1.161,0,0,1,1.074-.078.879.879,0,0,1,.375.622v.035l-.028.021-4.2,3.237H58.659l-.459.155Z" transform="translate(-58.051 -63.792)" fill="url(#linear-gradient-3)"/>
      <path id="Path_25369-5" data-name="Path 25369" d="M58.1,68.092l-.092-.269.579-.191h5.555l4.085-3.138a.6.6,0,0,0-.254-.382,1,1,0,0,0-.876.085l-2.311,1.35-.141-.247,2.325-1.357a1.256,1.256,0,0,1,1.152-.078.937.937,0,0,1,.41.678v.078l-.057.049L64.25,67.922H58.625l-.516.177Zm.509-.311H64.2l3-2.311-3,2.311Zm9.371-3.823s.042.021.064.035a.765.765,0,0,1,.332.523v.014a.764.764,0,0,0-.332-.537c-.021-.014-.042-.021-.064-.035Z" transform="translate(-58.01 -63.759)" fill="url(#linear-gradient-4)"/>
    </g>
    <g id="Group_4295-5" data-name="Group 4295" transform="translate(1.618 5.877)">
      <path id="Path_25370-5" data-name="Path 25370" d="M60.237,66.085v-.141l3.534-.049a.365.365,0,0,0,.057-.3c-.085-.375-.643-.707-.742-.763H61.89a2.346,2.346,0,0,1-1.2-.134c0,.007-.014.014-.021.028-.049.049-.1.028-.318-.184l-.4-.382.346.191c-.495-.488-1.922-.332-2.078-.311L55.6,65.64l-.071-.12L58.194,63.9c.071-.007,1.738-.233,2.269.41.071.085.12.148.155.2a2.372,2.372,0,0,0,1.272.177h1.244l.014.007c.028.014.721.389.827.862a.531.531,0,0,1-.1.445l-.021.028H63.82l-3.569.049Z" transform="translate(-55.424 -63.793)" fill="url(#linear-gradient-5)"/>
      <path id="Path_25371-5" data-name="Path 25371" d="M60.122,66.129v-.283l3.562-.049a.3.3,0,0,0,.028-.219c-.071-.332-.579-.643-.693-.707H61.846a2.393,2.393,0,0,1-1.18-.12c-.113.1-.233-.014-.41-.184l-.41-.4a4.453,4.453,0,0,0-1.647-.085L55.528,65.72l-.148-.24,2.749-1.668c.071-.007,1.774-.24,2.332.431.064.078.113.134.148.184a2.285,2.285,0,0,0,1.216.163H63.1l.028.014c.078.042.756.424.862.912a.608.608,0,0,1-.113.509l-.042.057h-.071l-3.64.049Zm.141-.141,2.961-.042-2.961.042Zm3.526-.1a.022.022,0,0,1-.007.014h0s.007,0,.014-.014Zm0,0Zm-8.219-.367.035-.021Zm7.47-.792h.035a2.328,2.328,0,0,1,.678.6,2.276,2.276,0,0,0-.7-.6H61.832a2.407,2.407,0,0,1-1.23-.155l.014.014h.042a2.149,2.149,0,0,0,1.166.134h1.208Zm-2.693-.269a.96.96,0,0,0,.226.184L60.6,64.6l-.247-.141Zm-.057-.2.007.007h0a.022.022,0,0,1-.014-.007Zm-2.127-.318h0c.035,0,.1-.014.177-.021A1.478,1.478,0,0,0,58.164,63.946Z" transform="translate(-55.38 -63.767)" fill="url(#linear-gradient-6)"/>
    </g>
    <g id="Group_4296-5" data-name="Group 4296" transform="translate(6.586 0)">
      <path id="Path_25372-5" data-name="Path 25372" d="M65.394,61.323a2.889,2.889,0,0,1-2.855-2.488h0A2.886,2.886,0,1,1,65.8,61.3,2.574,2.574,0,0,1,65.394,61.323ZM62.68,58.815a2.743,2.743,0,1,0,2.339-3.1,2.742,2.742,0,0,0-2.339,3.1Z" transform="translate(-62.439 -55.479)" fill="url(#linear-gradient-7)"/>
      <path id="Path_25373-5" data-name="Path 25373" d="M65.364,61.365a2.957,2.957,0,1,1,1.781-5.322,2.958,2.958,0,0,1-1.371,5.293A2.666,2.666,0,0,1,65.364,61.365Zm.777-.247a2.437,2.437,0,0,1-.382.078c-.028,0-.057.007-.085.007a.344.344,0,0,0,.085-.007A3.035,3.035,0,0,0,66.141,61.118Zm-3.42-2.339a2.675,2.675,0,0,0,5.3-.735,2.675,2.675,0,1,0-5.3.735h0Zm2.643-3.187a2.827,2.827,0,0,1,2.791,2.424,2.751,2.751,0,0,1-.12,1.293,2.759,2.759,0,0,0,.12-1.293,2.8,2.8,0,0,0-1.1-1.859,2.751,2.751,0,0,0-2.078-.537,2.509,2.509,0,0,0-.332.064,2.509,2.509,0,0,1,.332-.064,3.593,3.593,0,0,1,.389-.028Zm-2.629,1.823a2.817,2.817,0,0,0-.155,1.378.636.636,0,0,0,.021.113.636.636,0,0,0-.021-.113h0A2.9,2.9,0,0,1,62.735,57.415Z" transform="translate(-62.409 -55.451)" fill="url(#linear-gradient-8)"/>
    </g>
    <path id="Path_25374-5" data-name="Path 25374" d="M66.184,60.6a1.022,1.022,0,0,1-.643-.247,1.787,1.787,0,0,1-.2-2.594,1.257,1.257,0,0,1,1.618,0l-.085.113a1.128,1.128,0,0,0-1.428,0,1.629,1.629,0,0,0,.2,2.389.877.877,0,0,0,.594.2.913.913,0,0,0,.629-.367l.106.092a1.034,1.034,0,0,1-.728.417h-.057Z" transform="translate(-56.545 -56.037)" fill="url(#linear-gradient-9)"/>
    <rect id="Rectangle_2194-5" data-name="Rectangle 2194" width="2.134" height="0.141" transform="translate(7.972 3.18)" fill="url(#linear-gradient-10)"/>
    <rect id="Rectangle_2195-5" data-name="Rectangle 2195" width="2.134" height="0.141" transform="translate(7.972 2.572)" fill="url(#linear-gradient-10)"/>
  </g>
  <g id="Group_5346" data-name="Group 5346" transform="translate(0 0)">
    <g id="Group_4293-6" data-name="Group 4293" transform="translate(0 7.024)">
      <path id="Path_25366-6" data-name="Path 25366" d="M56.226,69.926l-.106-.092.841-.926-2.389-3.145-1.2.678-.071-.127,1.307-.735,2.537,3.336Z" transform="translate(-53.152 -65.446)" fill="url(#linear-gradient)"/>
      <path id="Path_25367-6" data-name="Path 25367" d="M56.171,70.019l-.261-.233.855-.94-2.283-3-1.216.678-.177-.3,1.484-.834.057.071,2.594,3.406Z" transform="translate(-53.09 -65.39)" fill="url(#linear-gradient-2)"/>
    </g>
    <g id="Group_4294-6" data-name="Group 4294" transform="translate(3.477 5.872)">
      <path id="Path_25368-6" data-name="Path 25368" d="M58.192,68.039l-.042-.134.495-.163h5.576l4.134-3.18a.68.68,0,0,0-.3-.473,1.042,1.042,0,0,0-.94.085l-2.254,1.314-.071-.12,2.261-1.322a1.161,1.161,0,0,1,1.074-.078.879.879,0,0,1,.375.622v.035l-.028.021-4.2,3.237H58.659l-.459.155Z" transform="translate(-58.051 -63.792)" fill="url(#linear-gradient-3)"/>
      <path id="Path_25369-6" data-name="Path 25369" d="M58.1,68.092l-.092-.269.579-.191h5.555l4.085-3.138a.6.6,0,0,0-.254-.382,1,1,0,0,0-.876.085l-2.311,1.35-.141-.247,2.325-1.357a1.256,1.256,0,0,1,1.152-.078.937.937,0,0,1,.41.678v.078l-.057.049L64.25,67.922H58.625l-.516.177Zm.509-.311H64.2l3-2.311-3,2.311Zm9.371-3.823s.042.021.064.035a.765.765,0,0,1,.332.523v.014a.764.764,0,0,0-.332-.537c-.021-.014-.042-.021-.064-.035Z" transform="translate(-58.01 -63.759)" fill="url(#linear-gradient-4)"/>
    </g>
    <g id="Group_4295-6" data-name="Group 4295" transform="translate(1.618 5.877)">
      <path id="Path_25370-6" data-name="Path 25370" d="M60.237,66.085v-.141l3.534-.049a.365.365,0,0,0,.057-.3c-.085-.375-.643-.707-.742-.763H61.89a2.346,2.346,0,0,1-1.2-.134c0,.007-.014.014-.021.028-.049.049-.1.028-.318-.184l-.4-.382.346.191c-.495-.488-1.922-.332-2.078-.311L55.6,65.64l-.071-.12L58.194,63.9c.071-.007,1.738-.233,2.269.41.071.085.12.148.155.2a2.372,2.372,0,0,0,1.272.177h1.244l.014.007c.028.014.721.389.827.862a.531.531,0,0,1-.1.445l-.021.028H63.82l-3.569.049Z" transform="translate(-55.424 -63.793)" fill="url(#linear-gradient-5)"/>
      <path id="Path_25371-6" data-name="Path 25371" d="M60.122,66.129v-.283l3.562-.049a.3.3,0,0,0,.028-.219c-.071-.332-.579-.643-.693-.707H61.846a2.393,2.393,0,0,1-1.18-.12c-.113.1-.233-.014-.41-.184l-.41-.4a4.453,4.453,0,0,0-1.647-.085L55.528,65.72l-.148-.24,2.749-1.668c.071-.007,1.774-.24,2.332.431.064.078.113.134.148.184a2.285,2.285,0,0,0,1.216.163H63.1l.028.014c.078.042.756.424.862.912a.608.608,0,0,1-.113.509l-.042.057h-.071l-3.64.049Zm.141-.141,2.961-.042-2.961.042Zm3.526-.1a.022.022,0,0,1-.007.014h0s.007,0,.014-.014Zm0,0Zm-8.219-.367.035-.021Zm7.47-.792h.035a2.328,2.328,0,0,1,.678.6,2.276,2.276,0,0,0-.7-.6H61.832a2.407,2.407,0,0,1-1.23-.155l.014.014h.042a2.149,2.149,0,0,0,1.166.134h1.208Zm-2.693-.269a.96.96,0,0,0,.226.184L60.6,64.6l-.247-.141Zm-.057-.2.007.007h0a.022.022,0,0,1-.014-.007Zm-2.127-.318h0c.035,0,.1-.014.177-.021A1.478,1.478,0,0,0,58.164,63.946Z" transform="translate(-55.38 -63.767)" fill="url(#linear-gradient-6)"/>
    </g>
    <g id="Group_4296-6" data-name="Group 4296" transform="translate(6.586 0)">
      <path id="Path_25372-6" data-name="Path 25372" d="M65.394,61.323a2.889,2.889,0,0,1-2.855-2.488h0A2.886,2.886,0,1,1,65.8,61.3,2.574,2.574,0,0,1,65.394,61.323ZM62.68,58.815a2.743,2.743,0,1,0,2.339-3.1,2.742,2.742,0,0,0-2.339,3.1Z" transform="translate(-62.439 -55.479)" fill="url(#linear-gradient-7)"/>
      <path id="Path_25373-6" data-name="Path 25373" d="M65.364,61.365a2.957,2.957,0,1,1,1.781-5.322,2.958,2.958,0,0,1-1.371,5.293A2.666,2.666,0,0,1,65.364,61.365Zm.777-.247a2.437,2.437,0,0,1-.382.078c-.028,0-.057.007-.085.007a.344.344,0,0,0,.085-.007A3.035,3.035,0,0,0,66.141,61.118Zm-3.42-2.339a2.675,2.675,0,0,0,5.3-.735,2.675,2.675,0,1,0-5.3.735h0Zm2.643-3.187a2.827,2.827,0,0,1,2.791,2.424,2.751,2.751,0,0,1-.12,1.293,2.759,2.759,0,0,0,.12-1.293,2.8,2.8,0,0,0-1.1-1.859,2.751,2.751,0,0,0-2.078-.537,2.509,2.509,0,0,0-.332.064,2.509,2.509,0,0,1,.332-.064,3.593,3.593,0,0,1,.389-.028Zm-2.629,1.823a2.817,2.817,0,0,0-.155,1.378.636.636,0,0,0,.021.113.636.636,0,0,0-.021-.113h0A2.9,2.9,0,0,1,62.735,57.415Z" transform="translate(-62.409 -55.451)" fill="url(#linear-gradient-8)"/>
    </g>
    <path id="Path_25374-6" data-name="Path 25374" d="M66.184,60.6a1.022,1.022,0,0,1-.643-.247,1.787,1.787,0,0,1-.2-2.594,1.257,1.257,0,0,1,1.618,0l-.085.113a1.128,1.128,0,0,0-1.428,0,1.629,1.629,0,0,0,.2,2.389.877.877,0,0,0,.594.2.913.913,0,0,0,.629-.367l.106.092a1.034,1.034,0,0,1-.728.417h-.057Z" transform="translate(-56.545 -56.037)" fill="url(#linear-gradient-9)"/>
    <rect id="Rectangle_2194-6" data-name="Rectangle 2194" width="2.134" height="0.141" transform="translate(7.972 3.18)" fill="url(#linear-gradient-10)"/>
    <rect id="Rectangle_2195-6" data-name="Rectangle 2195" width="2.134" height="0.141" transform="translate(7.972 2.572)" fill="url(#linear-gradient-10)"/>
  </g>
  <g id="Group_5347" data-name="Group 5347" transform="translate(0 0)">
    <g id="Group_4293-7" data-name="Group 4293" transform="translate(0 7.024)">
      <path id="Path_25366-7" data-name="Path 25366" d="M56.226,69.926l-.106-.092.841-.926-2.389-3.145-1.2.678-.071-.127,1.307-.735,2.537,3.336Z" transform="translate(-53.152 -65.446)" fill="url(#linear-gradient)"/>
      <path id="Path_25367-7" data-name="Path 25367" d="M56.171,70.019l-.261-.233.855-.94-2.283-3-1.216.678-.177-.3,1.484-.834.057.071,2.594,3.406Z" transform="translate(-53.09 -65.39)" fill="url(#linear-gradient-2)"/>
    </g>
    <g id="Group_4294-7" data-name="Group 4294" transform="translate(3.477 5.872)">
      <path id="Path_25368-7" data-name="Path 25368" d="M58.192,68.039l-.042-.134.495-.163h5.576l4.134-3.18a.68.68,0,0,0-.3-.473,1.042,1.042,0,0,0-.94.085l-2.254,1.314-.071-.12,2.261-1.322a1.161,1.161,0,0,1,1.074-.078.879.879,0,0,1,.375.622v.035l-.028.021-4.2,3.237H58.659l-.459.155Z" transform="translate(-58.051 -63.792)" fill="url(#linear-gradient-3)"/>
      <path id="Path_25369-7" data-name="Path 25369" d="M58.1,68.092l-.092-.269.579-.191h5.555l4.085-3.138a.6.6,0,0,0-.254-.382,1,1,0,0,0-.876.085l-2.311,1.35-.141-.247,2.325-1.357a1.256,1.256,0,0,1,1.152-.078.937.937,0,0,1,.41.678v.078l-.057.049L64.25,67.922H58.625l-.516.177Zm.509-.311H64.2l3-2.311-3,2.311Zm9.371-3.823s.042.021.064.035a.765.765,0,0,1,.332.523v.014a.764.764,0,0,0-.332-.537c-.021-.014-.042-.021-.064-.035Z" transform="translate(-58.01 -63.759)" fill="url(#linear-gradient-4)"/>
    </g>
    <g id="Group_4295-7" data-name="Group 4295" transform="translate(1.618 5.877)">
      <path id="Path_25370-7" data-name="Path 25370" d="M60.237,66.085v-.141l3.534-.049a.365.365,0,0,0,.057-.3c-.085-.375-.643-.707-.742-.763H61.89a2.346,2.346,0,0,1-1.2-.134c0,.007-.014.014-.021.028-.049.049-.1.028-.318-.184l-.4-.382.346.191c-.495-.488-1.922-.332-2.078-.311L55.6,65.64l-.071-.12L58.194,63.9c.071-.007,1.738-.233,2.269.41.071.085.12.148.155.2a2.372,2.372,0,0,0,1.272.177h1.244l.014.007c.028.014.721.389.827.862a.531.531,0,0,1-.1.445l-.021.028H63.82l-3.569.049Z" transform="translate(-55.424 -63.793)" fill="url(#linear-gradient-5)"/>
      <path id="Path_25371-7" data-name="Path 25371" d="M60.122,66.129v-.283l3.562-.049a.3.3,0,0,0,.028-.219c-.071-.332-.579-.643-.693-.707H61.846a2.393,2.393,0,0,1-1.18-.12c-.113.1-.233-.014-.41-.184l-.41-.4a4.453,4.453,0,0,0-1.647-.085L55.528,65.72l-.148-.24,2.749-1.668c.071-.007,1.774-.24,2.332.431.064.078.113.134.148.184a2.285,2.285,0,0,0,1.216.163H63.1l.028.014c.078.042.756.424.862.912a.608.608,0,0,1-.113.509l-.042.057h-.071l-3.64.049Zm.141-.141,2.961-.042-2.961.042Zm3.526-.1a.022.022,0,0,1-.007.014h0s.007,0,.014-.014Zm0,0Zm-8.219-.367.035-.021Zm7.47-.792h.035a2.328,2.328,0,0,1,.678.6,2.276,2.276,0,0,0-.7-.6H61.832a2.407,2.407,0,0,1-1.23-.155l.014.014h.042a2.149,2.149,0,0,0,1.166.134h1.208Zm-2.693-.269a.96.96,0,0,0,.226.184L60.6,64.6l-.247-.141Zm-.057-.2.007.007h0a.022.022,0,0,1-.014-.007Zm-2.127-.318h0c.035,0,.1-.014.177-.021A1.478,1.478,0,0,0,58.164,63.946Z" transform="translate(-55.38 -63.767)" fill="url(#linear-gradient-6)"/>
    </g>
    <g id="Group_4296-7" data-name="Group 4296" transform="translate(6.586 0)">
      <path id="Path_25372-7" data-name="Path 25372" d="M65.394,61.323a2.889,2.889,0,0,1-2.855-2.488h0A2.886,2.886,0,1,1,65.8,61.3,2.574,2.574,0,0,1,65.394,61.323ZM62.68,58.815a2.743,2.743,0,1,0,2.339-3.1,2.742,2.742,0,0,0-2.339,3.1Z" transform="translate(-62.439 -55.479)" fill="url(#linear-gradient-7)"/>
      <path id="Path_25373-7" data-name="Path 25373" d="M65.364,61.365a2.957,2.957,0,1,1,1.781-5.322,2.958,2.958,0,0,1-1.371,5.293A2.666,2.666,0,0,1,65.364,61.365Zm.777-.247a2.437,2.437,0,0,1-.382.078c-.028,0-.057.007-.085.007a.344.344,0,0,0,.085-.007A3.035,3.035,0,0,0,66.141,61.118Zm-3.42-2.339a2.675,2.675,0,0,0,5.3-.735,2.675,2.675,0,1,0-5.3.735h0Zm2.643-3.187a2.827,2.827,0,0,1,2.791,2.424,2.751,2.751,0,0,1-.12,1.293,2.759,2.759,0,0,0,.12-1.293,2.8,2.8,0,0,0-1.1-1.859,2.751,2.751,0,0,0-2.078-.537,2.509,2.509,0,0,0-.332.064,2.509,2.509,0,0,1,.332-.064,3.593,3.593,0,0,1,.389-.028Zm-2.629,1.823a2.817,2.817,0,0,0-.155,1.378.636.636,0,0,0,.021.113.636.636,0,0,0-.021-.113h0A2.9,2.9,0,0,1,62.735,57.415Z" transform="translate(-62.409 -55.451)" fill="url(#linear-gradient-8)"/>
    </g>
    <path id="Path_25374-7" data-name="Path 25374" d="M66.184,60.6a1.022,1.022,0,0,1-.643-.247,1.787,1.787,0,0,1-.2-2.594,1.257,1.257,0,0,1,1.618,0l-.085.113a1.128,1.128,0,0,0-1.428,0,1.629,1.629,0,0,0,.2,2.389.877.877,0,0,0,.594.2.913.913,0,0,0,.629-.367l.106.092a1.034,1.034,0,0,1-.728.417h-.057Z" transform="translate(-56.545 -56.037)" fill="url(#linear-gradient-9)"/>
    <rect id="Rectangle_2194-7" data-name="Rectangle 2194" width="2.134" height="0.141" transform="translate(7.972 3.18)" fill="url(#linear-gradient-10)"/>
    <rect id="Rectangle_2195-7" data-name="Rectangle 2195" width="2.134" height="0.141" transform="translate(7.972 2.572)" fill="url(#linear-gradient-10)"/>
  </g>
  <g id="Group_5348" data-name="Group 5348" transform="translate(0 0)">
    <g id="Group_4293-8" data-name="Group 4293" transform="translate(0 7.024)">
      <path id="Path_25366-8" data-name="Path 25366" d="M56.226,69.926l-.106-.092.841-.926-2.389-3.145-1.2.678-.071-.127,1.307-.735,2.537,3.336Z" transform="translate(-53.152 -65.446)" fill="url(#linear-gradient)"/>
      <path id="Path_25367-8" data-name="Path 25367" d="M56.171,70.019l-.261-.233.855-.94-2.283-3-1.216.678-.177-.3,1.484-.834.057.071,2.594,3.406Z" transform="translate(-53.09 -65.39)" fill="url(#linear-gradient-2)"/>
    </g>
    <g id="Group_4294-8" data-name="Group 4294" transform="translate(3.477 5.872)">
      <path id="Path_25368-8" data-name="Path 25368" d="M58.192,68.039l-.042-.134.495-.163h5.576l4.134-3.18a.68.68,0,0,0-.3-.473,1.042,1.042,0,0,0-.94.085l-2.254,1.314-.071-.12,2.261-1.322a1.161,1.161,0,0,1,1.074-.078.879.879,0,0,1,.375.622v.035l-.028.021-4.2,3.237H58.659l-.459.155Z" transform="translate(-58.051 -63.792)" fill="url(#linear-gradient-3)"/>
      <path id="Path_25369-8" data-name="Path 25369" d="M58.1,68.092l-.092-.269.579-.191h5.555l4.085-3.138a.6.6,0,0,0-.254-.382,1,1,0,0,0-.876.085l-2.311,1.35-.141-.247,2.325-1.357a1.256,1.256,0,0,1,1.152-.078.937.937,0,0,1,.41.678v.078l-.057.049L64.25,67.922H58.625l-.516.177Zm.509-.311H64.2l3-2.311-3,2.311Zm9.371-3.823s.042.021.064.035a.765.765,0,0,1,.332.523v.014a.764.764,0,0,0-.332-.537c-.021-.014-.042-.021-.064-.035Z" transform="translate(-58.01 -63.759)" fill="url(#linear-gradient-4)"/>
    </g>
    <g id="Group_4295-8" data-name="Group 4295" transform="translate(1.618 5.877)">
      <path id="Path_25370-8" data-name="Path 25370" d="M60.237,66.085v-.141l3.534-.049a.365.365,0,0,0,.057-.3c-.085-.375-.643-.707-.742-.763H61.89a2.346,2.346,0,0,1-1.2-.134c0,.007-.014.014-.021.028-.049.049-.1.028-.318-.184l-.4-.382.346.191c-.495-.488-1.922-.332-2.078-.311L55.6,65.64l-.071-.12L58.194,63.9c.071-.007,1.738-.233,2.269.41.071.085.12.148.155.2a2.372,2.372,0,0,0,1.272.177h1.244l.014.007c.028.014.721.389.827.862a.531.531,0,0,1-.1.445l-.021.028H63.82l-3.569.049Z" transform="translate(-55.424 -63.793)" fill="url(#linear-gradient-5)"/>
      <path id="Path_25371-8" data-name="Path 25371" d="M60.122,66.129v-.283l3.562-.049a.3.3,0,0,0,.028-.219c-.071-.332-.579-.643-.693-.707H61.846a2.393,2.393,0,0,1-1.18-.12c-.113.1-.233-.014-.41-.184l-.41-.4a4.453,4.453,0,0,0-1.647-.085L55.528,65.72l-.148-.24,2.749-1.668c.071-.007,1.774-.24,2.332.431.064.078.113.134.148.184a2.285,2.285,0,0,0,1.216.163H63.1l.028.014c.078.042.756.424.862.912a.608.608,0,0,1-.113.509l-.042.057h-.071l-3.64.049Zm.141-.141,2.961-.042-2.961.042Zm3.526-.1a.022.022,0,0,1-.007.014h0s.007,0,.014-.014Zm0,0Zm-8.219-.367.035-.021Zm7.47-.792h.035a2.328,2.328,0,0,1,.678.6,2.276,2.276,0,0,0-.7-.6H61.832a2.407,2.407,0,0,1-1.23-.155l.014.014h.042a2.149,2.149,0,0,0,1.166.134h1.208Zm-2.693-.269a.96.96,0,0,0,.226.184L60.6,64.6l-.247-.141Zm-.057-.2.007.007h0a.022.022,0,0,1-.014-.007Zm-2.127-.318h0c.035,0,.1-.014.177-.021A1.478,1.478,0,0,0,58.164,63.946Z" transform="translate(-55.38 -63.767)" fill="url(#linear-gradient-6)"/>
    </g>
    <g id="Group_4296-8" data-name="Group 4296" transform="translate(6.586 0)">
      <path id="Path_25372-8" data-name="Path 25372" d="M65.394,61.323a2.889,2.889,0,0,1-2.855-2.488h0A2.886,2.886,0,1,1,65.8,61.3,2.574,2.574,0,0,1,65.394,61.323ZM62.68,58.815a2.743,2.743,0,1,0,2.339-3.1,2.742,2.742,0,0,0-2.339,3.1Z" transform="translate(-62.439 -55.479)" fill="url(#linear-gradient-7)"/>
      <path id="Path_25373-8" data-name="Path 25373" d="M65.364,61.365a2.957,2.957,0,1,1,1.781-5.322,2.958,2.958,0,0,1-1.371,5.293A2.666,2.666,0,0,1,65.364,61.365Zm.777-.247a2.437,2.437,0,0,1-.382.078c-.028,0-.057.007-.085.007a.344.344,0,0,0,.085-.007A3.035,3.035,0,0,0,66.141,61.118Zm-3.42-2.339a2.675,2.675,0,0,0,5.3-.735,2.675,2.675,0,1,0-5.3.735h0Zm2.643-3.187a2.827,2.827,0,0,1,2.791,2.424,2.751,2.751,0,0,1-.12,1.293,2.759,2.759,0,0,0,.12-1.293,2.8,2.8,0,0,0-1.1-1.859,2.751,2.751,0,0,0-2.078-.537,2.509,2.509,0,0,0-.332.064,2.509,2.509,0,0,1,.332-.064,3.593,3.593,0,0,1,.389-.028Zm-2.629,1.823a2.817,2.817,0,0,0-.155,1.378.636.636,0,0,0,.021.113.636.636,0,0,0-.021-.113h0A2.9,2.9,0,0,1,62.735,57.415Z" transform="translate(-62.409 -55.451)" fill="url(#linear-gradient-8)"/>
    </g>
    <path id="Path_25374-8" data-name="Path 25374" d="M66.184,60.6a1.022,1.022,0,0,1-.643-.247,1.787,1.787,0,0,1-.2-2.594,1.257,1.257,0,0,1,1.618,0l-.085.113a1.128,1.128,0,0,0-1.428,0,1.629,1.629,0,0,0,.2,2.389.877.877,0,0,0,.594.2.913.913,0,0,0,.629-.367l.106.092a1.034,1.034,0,0,1-.728.417h-.057Z" transform="translate(-56.545 -56.037)" fill="url(#linear-gradient-9)"/>
    <rect id="Rectangle_2194-8" data-name="Rectangle 2194" width="2.134" height="0.141" transform="translate(7.972 3.18)" fill="url(#linear-gradient-10)"/>
    <rect id="Rectangle_2195-8" data-name="Rectangle 2195" width="2.134" height="0.141" transform="translate(7.972 2.572)" fill="url(#linear-gradient-10)"/>
  </g>
  <g id="Group_5349" data-name="Group 5349" transform="translate(0 0)">
    <g id="Group_4293-9" data-name="Group 4293" transform="translate(0 7.024)">
      <path id="Path_25366-9" data-name="Path 25366" d="M56.226,69.926l-.106-.092.841-.926-2.389-3.145-1.2.678-.071-.127,1.307-.735,2.537,3.336Z" transform="translate(-53.152 -65.446)" fill="url(#linear-gradient)"/>
      <path id="Path_25367-9" data-name="Path 25367" d="M56.171,70.019l-.261-.233.855-.94-2.283-3-1.216.678-.177-.3,1.484-.834.057.071,2.594,3.406Z" transform="translate(-53.09 -65.39)" fill="url(#linear-gradient-2)"/>
    </g>
    <g id="Group_4294-9" data-name="Group 4294" transform="translate(3.477 5.872)">
      <path id="Path_25368-9" data-name="Path 25368" d="M58.192,68.039l-.042-.134.495-.163h5.576l4.134-3.18a.68.68,0,0,0-.3-.473,1.042,1.042,0,0,0-.94.085l-2.254,1.314-.071-.12,2.261-1.322a1.161,1.161,0,0,1,1.074-.078.879.879,0,0,1,.375.622v.035l-.028.021-4.2,3.237H58.659l-.459.155Z" transform="translate(-58.051 -63.792)" fill="url(#linear-gradient-3)"/>
      <path id="Path_25369-9" data-name="Path 25369" d="M58.1,68.092l-.092-.269.579-.191h5.555l4.085-3.138a.6.6,0,0,0-.254-.382,1,1,0,0,0-.876.085l-2.311,1.35-.141-.247,2.325-1.357a1.256,1.256,0,0,1,1.152-.078.937.937,0,0,1,.41.678v.078l-.057.049L64.25,67.922H58.625l-.516.177Zm.509-.311H64.2l3-2.311-3,2.311Zm9.371-3.823s.042.021.064.035a.765.765,0,0,1,.332.523v.014a.764.764,0,0,0-.332-.537c-.021-.014-.042-.021-.064-.035Z" transform="translate(-58.01 -63.759)" fill="url(#linear-gradient-4)"/>
    </g>
    <g id="Group_4295-9" data-name="Group 4295" transform="translate(1.618 5.877)">
      <path id="Path_25370-9" data-name="Path 25370" d="M60.237,66.085v-.141l3.534-.049a.365.365,0,0,0,.057-.3c-.085-.375-.643-.707-.742-.763H61.89a2.346,2.346,0,0,1-1.2-.134c0,.007-.014.014-.021.028-.049.049-.1.028-.318-.184l-.4-.382.346.191c-.495-.488-1.922-.332-2.078-.311L55.6,65.64l-.071-.12L58.194,63.9c.071-.007,1.738-.233,2.269.41.071.085.12.148.155.2a2.372,2.372,0,0,0,1.272.177h1.244l.014.007c.028.014.721.389.827.862a.531.531,0,0,1-.1.445l-.021.028H63.82l-3.569.049Z" transform="translate(-55.424 -63.793)" fill="url(#linear-gradient-5)"/>
      <path id="Path_25371-9" data-name="Path 25371" d="M60.122,66.129v-.283l3.562-.049a.3.3,0,0,0,.028-.219c-.071-.332-.579-.643-.693-.707H61.846a2.393,2.393,0,0,1-1.18-.12c-.113.1-.233-.014-.41-.184l-.41-.4a4.453,4.453,0,0,0-1.647-.085L55.528,65.72l-.148-.24,2.749-1.668c.071-.007,1.774-.24,2.332.431.064.078.113.134.148.184a2.285,2.285,0,0,0,1.216.163H63.1l.028.014c.078.042.756.424.862.912a.608.608,0,0,1-.113.509l-.042.057h-.071l-3.64.049Zm.141-.141,2.961-.042-2.961.042Zm3.526-.1a.022.022,0,0,1-.007.014h0s.007,0,.014-.014Zm0,0Zm-8.219-.367.035-.021Zm7.47-.792h.035a2.328,2.328,0,0,1,.678.6,2.276,2.276,0,0,0-.7-.6H61.832a2.407,2.407,0,0,1-1.23-.155l.014.014h.042a2.149,2.149,0,0,0,1.166.134h1.208Zm-2.693-.269a.96.96,0,0,0,.226.184L60.6,64.6l-.247-.141Zm-.057-.2.007.007h0a.022.022,0,0,1-.014-.007Zm-2.127-.318h0c.035,0,.1-.014.177-.021A1.478,1.478,0,0,0,58.164,63.946Z" transform="translate(-55.38 -63.767)" fill="url(#linear-gradient-6)"/>
    </g>
    <g id="Group_4296-9" data-name="Group 4296" transform="translate(6.586 0)">
      <path id="Path_25372-9" data-name="Path 25372" d="M65.394,61.323a2.889,2.889,0,0,1-2.855-2.488h0A2.886,2.886,0,1,1,65.8,61.3,2.574,2.574,0,0,1,65.394,61.323ZM62.68,58.815a2.743,2.743,0,1,0,2.339-3.1,2.742,2.742,0,0,0-2.339,3.1Z" transform="translate(-62.439 -55.479)" fill="url(#linear-gradient-7)"/>
      <path id="Path_25373-9" data-name="Path 25373" d="M65.364,61.365a2.957,2.957,0,1,1,1.781-5.322,2.958,2.958,0,0,1-1.371,5.293A2.666,2.666,0,0,1,65.364,61.365Zm.777-.247a2.437,2.437,0,0,1-.382.078c-.028,0-.057.007-.085.007a.344.344,0,0,0,.085-.007A3.035,3.035,0,0,0,66.141,61.118Zm-3.42-2.339a2.675,2.675,0,0,0,5.3-.735,2.675,2.675,0,1,0-5.3.735h0Zm2.643-3.187a2.827,2.827,0,0,1,2.791,2.424,2.751,2.751,0,0,1-.12,1.293,2.759,2.759,0,0,0,.12-1.293,2.8,2.8,0,0,0-1.1-1.859,2.751,2.751,0,0,0-2.078-.537,2.509,2.509,0,0,0-.332.064,2.509,2.509,0,0,1,.332-.064,3.593,3.593,0,0,1,.389-.028Zm-2.629,1.823a2.817,2.817,0,0,0-.155,1.378.636.636,0,0,0,.021.113.636.636,0,0,0-.021-.113h0A2.9,2.9,0,0,1,62.735,57.415Z" transform="translate(-62.409 -55.451)" fill="url(#linear-gradient-8)"/>
    </g>
    <path id="Path_25374-9" data-name="Path 25374" d="M66.184,60.6a1.022,1.022,0,0,1-.643-.247,1.787,1.787,0,0,1-.2-2.594,1.257,1.257,0,0,1,1.618,0l-.085.113a1.128,1.128,0,0,0-1.428,0,1.629,1.629,0,0,0,.2,2.389.877.877,0,0,0,.594.2.913.913,0,0,0,.629-.367l.106.092a1.034,1.034,0,0,1-.728.417h-.057Z" transform="translate(-56.545 -56.037)" fill="url(#linear-gradient-9)"/>
    <rect id="Rectangle_2194-9" data-name="Rectangle 2194" width="2.134" height="0.141" transform="translate(7.972 3.18)" fill="url(#linear-gradient-10)"/>
    <rect id="Rectangle_2195-9" data-name="Rectangle 2195" width="2.134" height="0.141" transform="translate(7.972 2.572)" fill="url(#linear-gradient-10)"/>
  </g>
  <g id="Group_5350" data-name="Group 5350" transform="translate(0 0)">
    <g id="Group_4293-10" data-name="Group 4293" transform="translate(0 7.024)">
      <path id="Path_25366-10" data-name="Path 25366" d="M56.226,69.926l-.106-.092.841-.926-2.389-3.145-1.2.678-.071-.127,1.307-.735,2.537,3.336Z" transform="translate(-53.152 -65.446)" fill="url(#linear-gradient)"/>
      <path id="Path_25367-10" data-name="Path 25367" d="M56.171,70.019l-.261-.233.855-.94-2.283-3-1.216.678-.177-.3,1.484-.834.057.071,2.594,3.406Z" transform="translate(-53.09 -65.39)" fill="url(#linear-gradient-2)"/>
    </g>
    <g id="Group_4294-10" data-name="Group 4294" transform="translate(3.477 5.872)">
      <path id="Path_25368-10" data-name="Path 25368" d="M58.192,68.039l-.042-.134.495-.163h5.576l4.134-3.18a.68.68,0,0,0-.3-.473,1.042,1.042,0,0,0-.94.085l-2.254,1.314-.071-.12,2.261-1.322a1.161,1.161,0,0,1,1.074-.078.879.879,0,0,1,.375.622v.035l-.028.021-4.2,3.237H58.659l-.459.155Z" transform="translate(-58.051 -63.792)" fill="url(#linear-gradient-3)"/>
      <path id="Path_25369-10" data-name="Path 25369" d="M58.1,68.092l-.092-.269.579-.191h5.555l4.085-3.138a.6.6,0,0,0-.254-.382,1,1,0,0,0-.876.085l-2.311,1.35-.141-.247,2.325-1.357a1.256,1.256,0,0,1,1.152-.078.937.937,0,0,1,.41.678v.078l-.057.049L64.25,67.922H58.625l-.516.177Zm.509-.311H64.2l3-2.311-3,2.311Zm9.371-3.823s.042.021.064.035a.765.765,0,0,1,.332.523v.014a.764.764,0,0,0-.332-.537c-.021-.014-.042-.021-.064-.035Z" transform="translate(-58.01 -63.759)" fill="url(#linear-gradient-4)"/>
    </g>
    <g id="Group_4295-10" data-name="Group 4295" transform="translate(1.618 5.877)">
      <path id="Path_25370-10" data-name="Path 25370" d="M60.237,66.085v-.141l3.534-.049a.365.365,0,0,0,.057-.3c-.085-.375-.643-.707-.742-.763H61.89a2.346,2.346,0,0,1-1.2-.134c0,.007-.014.014-.021.028-.049.049-.1.028-.318-.184l-.4-.382.346.191c-.495-.488-1.922-.332-2.078-.311L55.6,65.64l-.071-.12L58.194,63.9c.071-.007,1.738-.233,2.269.41.071.085.12.148.155.2a2.372,2.372,0,0,0,1.272.177h1.244l.014.007c.028.014.721.389.827.862a.531.531,0,0,1-.1.445l-.021.028H63.82l-3.569.049Z" transform="translate(-55.424 -63.793)" fill="url(#linear-gradient-5)"/>
      <path id="Path_25371-10" data-name="Path 25371" d="M60.122,66.129v-.283l3.562-.049a.3.3,0,0,0,.028-.219c-.071-.332-.579-.643-.693-.707H61.846a2.393,2.393,0,0,1-1.18-.12c-.113.1-.233-.014-.41-.184l-.41-.4a4.453,4.453,0,0,0-1.647-.085L55.528,65.72l-.148-.24,2.749-1.668c.071-.007,1.774-.24,2.332.431.064.078.113.134.148.184a2.285,2.285,0,0,0,1.216.163H63.1l.028.014c.078.042.756.424.862.912a.608.608,0,0,1-.113.509l-.042.057h-.071l-3.64.049Zm.141-.141,2.961-.042-2.961.042Zm3.526-.1a.022.022,0,0,1-.007.014h0s.007,0,.014-.014Zm0,0Zm-8.219-.367.035-.021Zm7.47-.792h.035a2.328,2.328,0,0,1,.678.6,2.276,2.276,0,0,0-.7-.6H61.832a2.407,2.407,0,0,1-1.23-.155l.014.014h.042a2.149,2.149,0,0,0,1.166.134h1.208Zm-2.693-.269a.96.96,0,0,0,.226.184L60.6,64.6l-.247-.141Zm-.057-.2.007.007h0a.022.022,0,0,1-.014-.007Zm-2.127-.318h0c.035,0,.1-.014.177-.021A1.478,1.478,0,0,0,58.164,63.946Z" transform="translate(-55.38 -63.767)" fill="url(#linear-gradient-6)"/>
    </g>
    <g id="Group_4296-10" data-name="Group 4296" transform="translate(6.586 0)">
      <path id="Path_25372-10" data-name="Path 25372" d="M65.394,61.323a2.889,2.889,0,0,1-2.855-2.488h0A2.886,2.886,0,1,1,65.8,61.3,2.574,2.574,0,0,1,65.394,61.323ZM62.68,58.815a2.743,2.743,0,1,0,2.339-3.1,2.742,2.742,0,0,0-2.339,3.1Z" transform="translate(-62.439 -55.479)" fill="url(#linear-gradient-7)"/>
      <path id="Path_25373-10" data-name="Path 25373" d="M65.364,61.365a2.957,2.957,0,1,1,1.781-5.322,2.958,2.958,0,0,1-1.371,5.293A2.666,2.666,0,0,1,65.364,61.365Zm.777-.247a2.437,2.437,0,0,1-.382.078c-.028,0-.057.007-.085.007a.344.344,0,0,0,.085-.007A3.035,3.035,0,0,0,66.141,61.118Zm-3.42-2.339a2.675,2.675,0,0,0,5.3-.735,2.675,2.675,0,1,0-5.3.735h0Zm2.643-3.187a2.827,2.827,0,0,1,2.791,2.424,2.751,2.751,0,0,1-.12,1.293,2.759,2.759,0,0,0,.12-1.293,2.8,2.8,0,0,0-1.1-1.859,2.751,2.751,0,0,0-2.078-.537,2.509,2.509,0,0,0-.332.064,2.509,2.509,0,0,1,.332-.064,3.593,3.593,0,0,1,.389-.028Zm-2.629,1.823a2.817,2.817,0,0,0-.155,1.378.636.636,0,0,0,.021.113.636.636,0,0,0-.021-.113h0A2.9,2.9,0,0,1,62.735,57.415Z" transform="translate(-62.409 -55.451)" fill="url(#linear-gradient-8)"/>
    </g>
    <path id="Path_25374-10" data-name="Path 25374" d="M66.184,60.6a1.022,1.022,0,0,1-.643-.247,1.787,1.787,0,0,1-.2-2.594,1.257,1.257,0,0,1,1.618,0l-.085.113a1.128,1.128,0,0,0-1.428,0,1.629,1.629,0,0,0,.2,2.389.877.877,0,0,0,.594.2.913.913,0,0,0,.629-.367l.106.092a1.034,1.034,0,0,1-.728.417h-.057Z" transform="translate(-56.545 -56.037)" fill="url(#linear-gradient-9)"/>
    <rect id="Rectangle_2194-10" data-name="Rectangle 2194" width="2.134" height="0.141" transform="translate(7.972 3.18)" fill="url(#linear-gradient-10)"/>
    <rect id="Rectangle_2195-10" data-name="Rectangle 2195" width="2.134" height="0.141" transform="translate(7.972 2.572)" fill="url(#linear-gradient-10)"/>
  </g>
  <g id="Group_5351" data-name="Group 5351" transform="translate(0 0)">
    <g id="Group_4293-11" data-name="Group 4293" transform="translate(0 7.024)">
      <path id="Path_25366-11" data-name="Path 25366" d="M56.226,69.926l-.106-.092.841-.926-2.389-3.145-1.2.678-.071-.127,1.307-.735,2.537,3.336Z" transform="translate(-53.152 -65.446)" fill="url(#linear-gradient)"/>
      <path id="Path_25367-11" data-name="Path 25367" d="M56.171,70.019l-.261-.233.855-.94-2.283-3-1.216.678-.177-.3,1.484-.834.057.071,2.594,3.406Z" transform="translate(-53.09 -65.39)" fill="url(#linear-gradient-2)"/>
    </g>
    <g id="Group_4294-11" data-name="Group 4294" transform="translate(3.477 5.872)">
      <path id="Path_25368-11" data-name="Path 25368" d="M58.192,68.039l-.042-.134.495-.163h5.576l4.134-3.18a.68.68,0,0,0-.3-.473,1.042,1.042,0,0,0-.94.085l-2.254,1.314-.071-.12,2.261-1.322a1.161,1.161,0,0,1,1.074-.078.879.879,0,0,1,.375.622v.035l-.028.021-4.2,3.237H58.659l-.459.155Z" transform="translate(-58.051 -63.792)" fill="url(#linear-gradient-3)"/>
      <path id="Path_25369-11" data-name="Path 25369" d="M58.1,68.092l-.092-.269.579-.191h5.555l4.085-3.138a.6.6,0,0,0-.254-.382,1,1,0,0,0-.876.085l-2.311,1.35-.141-.247,2.325-1.357a1.256,1.256,0,0,1,1.152-.078.937.937,0,0,1,.41.678v.078l-.057.049L64.25,67.922H58.625l-.516.177Zm.509-.311H64.2l3-2.311-3,2.311Zm9.371-3.823s.042.021.064.035a.765.765,0,0,1,.332.523v.014a.764.764,0,0,0-.332-.537c-.021-.014-.042-.021-.064-.035Z" transform="translate(-58.01 -63.759)" fill="url(#linear-gradient-4)"/>
    </g>
    <g id="Group_4295-11" data-name="Group 4295" transform="translate(1.618 5.877)">
      <path id="Path_25370-11" data-name="Path 25370" d="M60.237,66.085v-.141l3.534-.049a.365.365,0,0,0,.057-.3c-.085-.375-.643-.707-.742-.763H61.89a2.346,2.346,0,0,1-1.2-.134c0,.007-.014.014-.021.028-.049.049-.1.028-.318-.184l-.4-.382.346.191c-.495-.488-1.922-.332-2.078-.311L55.6,65.64l-.071-.12L58.194,63.9c.071-.007,1.738-.233,2.269.41.071.085.12.148.155.2a2.372,2.372,0,0,0,1.272.177h1.244l.014.007c.028.014.721.389.827.862a.531.531,0,0,1-.1.445l-.021.028H63.82l-3.569.049Z" transform="translate(-55.424 -63.793)" fill="url(#linear-gradient-5)"/>
      <path id="Path_25371-11" data-name="Path 25371" d="M60.122,66.129v-.283l3.562-.049a.3.3,0,0,0,.028-.219c-.071-.332-.579-.643-.693-.707H61.846a2.393,2.393,0,0,1-1.18-.12c-.113.1-.233-.014-.41-.184l-.41-.4a4.453,4.453,0,0,0-1.647-.085L55.528,65.72l-.148-.24,2.749-1.668c.071-.007,1.774-.24,2.332.431.064.078.113.134.148.184a2.285,2.285,0,0,0,1.216.163H63.1l.028.014c.078.042.756.424.862.912a.608.608,0,0,1-.113.509l-.042.057h-.071l-3.64.049Zm.141-.141,2.961-.042-2.961.042Zm3.526-.1a.022.022,0,0,1-.007.014h0s.007,0,.014-.014Zm0,0Zm-8.219-.367.035-.021Zm7.47-.792h.035a2.328,2.328,0,0,1,.678.6,2.276,2.276,0,0,0-.7-.6H61.832a2.407,2.407,0,0,1-1.23-.155l.014.014h.042a2.149,2.149,0,0,0,1.166.134h1.208Zm-2.693-.269a.96.96,0,0,0,.226.184L60.6,64.6l-.247-.141Zm-.057-.2.007.007h0a.022.022,0,0,1-.014-.007Zm-2.127-.318h0c.035,0,.1-.014.177-.021A1.478,1.478,0,0,0,58.164,63.946Z" transform="translate(-55.38 -63.767)" fill="url(#linear-gradient-6)"/>
    </g>
    <g id="Group_4296-11" data-name="Group 4296" transform="translate(6.586 0)">
      <path id="Path_25372-11" data-name="Path 25372" d="M65.394,61.323a2.889,2.889,0,0,1-2.855-2.488h0A2.886,2.886,0,1,1,65.8,61.3,2.574,2.574,0,0,1,65.394,61.323ZM62.68,58.815a2.743,2.743,0,1,0,2.339-3.1,2.742,2.742,0,0,0-2.339,3.1Z" transform="translate(-62.439 -55.479)" fill="url(#linear-gradient-7)"/>
      <path id="Path_25373-11" data-name="Path 25373" d="M65.364,61.365a2.957,2.957,0,1,1,1.781-5.322,2.958,2.958,0,0,1-1.371,5.293A2.666,2.666,0,0,1,65.364,61.365Zm.777-.247a2.437,2.437,0,0,1-.382.078c-.028,0-.057.007-.085.007a.344.344,0,0,0,.085-.007A3.035,3.035,0,0,0,66.141,61.118Zm-3.42-2.339a2.675,2.675,0,0,0,5.3-.735,2.675,2.675,0,1,0-5.3.735h0Zm2.643-3.187a2.827,2.827,0,0,1,2.791,2.424,2.751,2.751,0,0,1-.12,1.293,2.759,2.759,0,0,0,.12-1.293,2.8,2.8,0,0,0-1.1-1.859,2.751,2.751,0,0,0-2.078-.537,2.509,2.509,0,0,0-.332.064,2.509,2.509,0,0,1,.332-.064,3.593,3.593,0,0,1,.389-.028Zm-2.629,1.823a2.817,2.817,0,0,0-.155,1.378.636.636,0,0,0,.021.113.636.636,0,0,0-.021-.113h0A2.9,2.9,0,0,1,62.735,57.415Z" transform="translate(-62.409 -55.451)" fill="url(#linear-gradient-8)"/>
    </g>
    <path id="Path_25374-11" data-name="Path 25374" d="M66.184,60.6a1.022,1.022,0,0,1-.643-.247,1.787,1.787,0,0,1-.2-2.594,1.257,1.257,0,0,1,1.618,0l-.085.113a1.128,1.128,0,0,0-1.428,0,1.629,1.629,0,0,0,.2,2.389.877.877,0,0,0,.594.2.913.913,0,0,0,.629-.367l.106.092a1.034,1.034,0,0,1-.728.417h-.057Z" transform="translate(-56.545 -56.037)" fill="url(#linear-gradient-9)"/>
    <rect id="Rectangle_2194-11" data-name="Rectangle 2194" width="2.134" height="0.141" transform="translate(7.972 3.18)" fill="url(#linear-gradient-10)"/>
    <rect id="Rectangle_2195-11" data-name="Rectangle 2195" width="2.134" height="0.141" transform="translate(7.972 2.572)" fill="url(#linear-gradient-10)"/>
  </g>
</svg>
