<svg xmlns="http://www.w3.org/2000/svg" xmlns:xlink="http://www.w3.org/1999/xlink" width="64.292" height="73.106" viewBox="0 0 64.292 73.106">
  <defs>
    <filter id="country-icon" x="0" y="0" width="64.292" height="73.106" filterUnits="userSpaceOnUse">
      <feOffset dy="3" input="SourceAlpha"/>
      <feGaussianBlur stdDeviation="5" result="blur"/>
      <feFlood flood-color="#009530"/>
      <feComposite operator="in" in2="blur"/>
    </filter>
    <filter id="country-icon-2" x="0" y="0" width="64.292" height="73.106" filterUnits="userSpaceOnUse">
      <feOffset dx="-17" dy="-2" input="SourceAlpha"/>
      <feGaussianBlur stdDeviation="1" result="blur-2"/>
      <feFlood flood-color="#009530" result="color"/>
      <feComposite operator="out" in="SourceGraphic" in2="blur-2"/>
      <feComposite operator="in" in="color"/>
      <feComposite operator="in" in2="SourceGraphic"/>
    </filter>
  </defs>
  <g data-type="innerShadowGroup">
    <g transform="matrix(1, 0, 0, 1, 0, 0)" filter="url(#country-icon)">
      <path id="country-icon-3" data-name="country-icon" d="M32.55,26.078a.609.609,0,0,1-.464.605,4.068,4.068,0,0,1-1.1.3.612.612,0,0,1-.6-.446l-.6-1.71c-.1-.275-.191-.545-.285-.821l-1.144,2.163a2.823,2.823,0,0,1-.812.63.611.611,0,0,1-.846-.17A.592.592,0,0,1,26.6,26.4l-.676-3.374L25,22.4l-2.151-.336c.076.114.153.228.229.34a5.419,5.419,0,0,1,.893,1.688c.21.907-.115,1.676-1.621,2.253a1.308,1.308,0,0,1,.132.085c.6.439.757,1.1-.5,2.816q-.476.648-.817,1.145c-.179.261-.346.512-.5.753l.335,2.1a1.148,1.148,0,0,1-.195.831c-.282.426-.692.593-1.04.936-.047.047-.092.095-.131.141l.146.6a.608.608,0,0,1-.181.593,1.5,1.5,0,0,1-.376.206,2.615,2.615,0,0,1-.179.514A3.127,3.127,0,0,1,17.7,38.5a4.773,4.773,0,0,1-2.057.263.611.611,0,0,1-.623-.6,4.2,4.2,0,0,0-.119-.877c-.174-.739-.522-1.4-.721-2.139a2.776,2.776,0,0,1,.112-2.122,2.22,2.22,0,0,0,.057-.628,2.348,2.348,0,0,0-.38-1.1,3.415,3.415,0,0,1-.544-1.214c-.022-1-.368-1.209-.842-1.2-.727.015-1.457.235-2.208.251a1.388,1.388,0,0,1-.954-.417,7.292,7.292,0,0,1-1.252-1.786,1.85,1.85,0,0,1-.261-1.164c-.052-1.694-.1-3.3,1.508-4.51A6.063,6.063,0,0,1,11.4,19.227a5.54,5.54,0,0,1,2.752-.618.611.611,0,0,1,.623.6l.018.866.739.3.01-.05c.134-.7.894-.474,1.338-.323.535.181.831.488,1.467.35.241-.053.188-.119.213-.365l-.724.081a.61.61,0,0,1-.479-.16,1.909,1.909,0,0,1-.234-.345,3.207,3.207,0,0,0-1.3-.884,9.08,9.08,0,0,1-2.383-1.531c-2.9,1.1-3.825,1.259-4.073.613-.146-.378.046-.687.3-1.1a2.876,2.876,0,0,0,.551-1.406.611.611,0,0,1,.395-.584l2.432-1.174c-.579,0-.8-1-.895-1.408-.13-.573.584-.826.964-1.094q.387-.275.926-.7l.022-.018a15.659,15.659,0,0,0-12.6,12.6A16.431,16.431,0,0,0,1.6,29.176c.012.055.025.11.038.165l2.852,1.291a.624.624,0,0,1,.361.613,5.121,5.121,0,0,1-.368,1.932,4.939,4.939,0,0,0-.329,1.477.576.576,0,0,1-.027.166,15.483,15.483,0,0,0,4.257,4.062,15.7,15.7,0,0,0,5.685,2.248A16.348,16.348,0,0,0,20.374,41a15.686,15.686,0,0,0,5.585-2.487,15.5,15.5,0,0,0,4.12-4.3,15.7,15.7,0,0,0,2.248-5.685,16.052,16.052,0,0,0,.238-3.145c-.011.229-.02.467-.015.7ZM24.7,4.138a3.24,3.24,0,1,1-3.24,3.241A3.24,3.24,0,0,1,24.7,4.138Zm3.746,12.182a13.407,13.407,0,0,1-2.855,2.372,1.184,1.184,0,0,1-1.336.048,16.291,16.291,0,0,1-4-3.576,12.915,12.915,0,0,1-2.724-5.9,8.132,8.132,0,0,1,1.03-5.726,7.2,7.2,0,0,1,1.6-1.768A7.689,7.689,0,0,1,24.993,0a7.1,7.1,0,0,1,5.889,3.4,8.994,8.994,0,0,1,.883,6.5A13.843,13.843,0,0,1,28.444,16.319Zm-3.557,1.423c5.677-3.442,7.868-11.419,3.96-14.984a5.887,5.887,0,0,0-7.96-.067C16.58,6.123,18.511,13.692,24.887,17.742Zm5.89-1.7a16.936,16.936,0,0,1,2.608,5.913,17.619,17.619,0,0,1,.143,6.783A16.913,16.913,0,0,1,31.1,34.866a16.7,16.7,0,0,1-4.447,4.639,16.933,16.933,0,0,1-6.02,2.683,17.554,17.554,0,0,1-6.783.144,16.909,16.909,0,0,1-6.128-2.425A16.683,16.683,0,0,1,3.086,35.46,16.917,16.917,0,0,1,.4,29.44a17.624,17.624,0,0,1-.143-6.784A16.944,16.944,0,0,1,7.132,11.889a16.738,16.738,0,0,1,8.687-3.054c.016.127.034.254.055.38.069.43.162.864.277,1.3a.758.758,0,0,0-.522.145,6.558,6.558,0,0,0-.828.583q-.533.423-.982.742c-.175.124-.335.231-.48.324.227.048.415.165.573.852.1.435.312,1.119-.211,1.371l-2.286,1.1A4.461,4.461,0,0,1,10.7,17.3a.089.089,0,0,1-.018.021,10.619,10.619,0,0,1,2.643-1.43.61.61,0,0,1,.687.125,7.8,7.8,0,0,0,2.337,1.567,4.107,4.107,0,0,1,1.737,1.236l.984-.109a.611.611,0,0,1,.732.585,3.625,3.625,0,0,1-.243,1.627,1.434,1.434,0,0,1-.954.624,2.818,2.818,0,0,1-2-.34.776.776,0,0,1-.15.4.61.61,0,0,1-.707.181L14,21.064a.612.612,0,0,1-.422-.568l-.013-.633A3.717,3.717,0,0,0,12,20.288,5.078,5.078,0,0,0,10.388,22a.6.6,0,0,1-.17.184c-1.175.844-1.135,2.159-1.093,3.552.008.281.014.393.016.478,0,.028.032.019.1.143a6.322,6.322,0,0,0,1,1.458l.112.1c.742-.016,1.47-.234,2.208-.251,1.184-.024,2.046.4,2.088,2.395,0,0,.358.6.37.617a3.413,3.413,0,0,1,.514,2.41c-.13.8-.445.743-.172,1.751.2.746.549,1.408.732,2.177q.062.266.1.519a2.338,2.338,0,0,0,.975-.12,1.854,1.854,0,0,0,.9-1.3.618.618,0,0,1,.415-.554c-.069-.281-.19-.569-.022-.843a3.608,3.608,0,0,1,1.065-1.065,1.127,1.127,0,0,0,.256-.222c.017-.029.017,0,.011-.046l-.357-2.238a.608.608,0,0,1,.078-.454q.256-.409.653-.987.386-.559.836-1.174a6.243,6.243,0,0,0,.762-1.113,1.379,1.379,0,0,0-.252-.112,1.864,1.864,0,0,1-.927-.6c-.279-.388-.386-1.025.244-1.171,1.648-.381,2.049-.757,1.955-1.162a4.727,4.727,0,0,0-.712-1.276,9.228,9.228,0,0,1-.906-1.546.609.609,0,0,1,.636-.878l3.3.517a1.064,1.064,0,0,1,.46.134l1.207.816a.612.612,0,0,1,.305.418l.5,2.489,1.487-2.811a.611.611,0,0,1,1.137.048c.377,1.108.752,2.2,1.14,3.3.013-.336.038-.774.086-1.212a7.223,7.223,0,0,1,.221-1.233,1.842,1.842,0,0,1,.3-.627,14.449,14.449,0,0,0-.409-1.705,13.993,13.993,0,0,0-.762-1.966,15.786,15.786,0,0,0-.886-1.61q.472-.574.889-1.184ZM3.249,33.022c.025-.078.051-.156.077-.233a4.951,4.951,0,0,0,.3-1.214l-1.3-.585A14.459,14.459,0,0,0,3.249,33.022Z" transform="translate(15.25 12.25)" fill="#57e673" stroke="#009530" stroke-width="0.5"/>
    </g>
    <path id="country-icon-4" data-name="country-icon" d="M32.55,26.078a.609.609,0,0,1-.464.605,4.068,4.068,0,0,1-1.1.3.612.612,0,0,1-.6-.446l-.6-1.71c-.1-.275-.191-.545-.285-.821l-1.144,2.163a2.823,2.823,0,0,1-.812.63.611.611,0,0,1-.846-.17A.592.592,0,0,1,26.6,26.4l-.676-3.374L25,22.4l-2.151-.336c.076.114.153.228.229.34a5.419,5.419,0,0,1,.893,1.688c.21.907-.115,1.676-1.621,2.253a1.308,1.308,0,0,1,.132.085c.6.439.757,1.1-.5,2.816q-.476.648-.817,1.145c-.179.261-.346.512-.5.753l.335,2.1a1.148,1.148,0,0,1-.195.831c-.282.426-.692.593-1.04.936-.047.047-.092.095-.131.141l.146.6a.608.608,0,0,1-.181.593,1.5,1.5,0,0,1-.376.206,2.615,2.615,0,0,1-.179.514A3.127,3.127,0,0,1,17.7,38.5a4.773,4.773,0,0,1-2.057.263.611.611,0,0,1-.623-.6,4.2,4.2,0,0,0-.119-.877c-.174-.739-.522-1.4-.721-2.139a2.776,2.776,0,0,1,.112-2.122,2.22,2.22,0,0,0,.057-.628,2.348,2.348,0,0,0-.38-1.1,3.415,3.415,0,0,1-.544-1.214c-.022-1-.368-1.209-.842-1.2-.727.015-1.457.235-2.208.251a1.388,1.388,0,0,1-.954-.417,7.292,7.292,0,0,1-1.252-1.786,1.85,1.85,0,0,1-.261-1.164c-.052-1.694-.1-3.3,1.508-4.51A6.063,6.063,0,0,1,11.4,19.227a5.54,5.54,0,0,1,2.752-.618.611.611,0,0,1,.623.6l.018.866.739.3.01-.05c.134-.7.894-.474,1.338-.323.535.181.831.488,1.467.35.241-.053.188-.119.213-.365l-.724.081a.61.61,0,0,1-.479-.16,1.909,1.909,0,0,1-.234-.345,3.207,3.207,0,0,0-1.3-.884,9.08,9.08,0,0,1-2.383-1.531c-2.9,1.1-3.825,1.259-4.073.613-.146-.378.046-.687.3-1.1a2.876,2.876,0,0,0,.551-1.406.611.611,0,0,1,.395-.584l2.432-1.174c-.579,0-.8-1-.895-1.408-.13-.573.584-.826.964-1.094q.387-.275.926-.7l.022-.018a15.659,15.659,0,0,0-12.6,12.6A16.431,16.431,0,0,0,1.6,29.176c.012.055.025.11.038.165l2.852,1.291a.624.624,0,0,1,.361.613,5.121,5.121,0,0,1-.368,1.932,4.939,4.939,0,0,0-.329,1.477.576.576,0,0,1-.027.166,15.483,15.483,0,0,0,4.257,4.062,15.7,15.7,0,0,0,5.685,2.248A16.348,16.348,0,0,0,20.374,41a15.686,15.686,0,0,0,5.585-2.487,15.5,15.5,0,0,0,4.12-4.3,15.7,15.7,0,0,0,2.248-5.685,16.052,16.052,0,0,0,.238-3.145c-.011.229-.02.467-.015.7ZM24.7,4.138a3.24,3.24,0,1,1-3.24,3.241A3.24,3.24,0,0,1,24.7,4.138Zm3.746,12.182a13.407,13.407,0,0,1-2.855,2.372,1.184,1.184,0,0,1-1.336.048,16.291,16.291,0,0,1-4-3.576,12.915,12.915,0,0,1-2.724-5.9,8.132,8.132,0,0,1,1.03-5.726,7.2,7.2,0,0,1,1.6-1.768A7.689,7.689,0,0,1,24.993,0a7.1,7.1,0,0,1,5.889,3.4,8.994,8.994,0,0,1,.883,6.5A13.843,13.843,0,0,1,28.444,16.319Zm-3.557,1.423c5.677-3.442,7.868-11.419,3.96-14.984a5.887,5.887,0,0,0-7.96-.067C16.58,6.123,18.511,13.692,24.887,17.742Zm5.89-1.7a16.936,16.936,0,0,1,2.608,5.913,17.619,17.619,0,0,1,.143,6.783A16.913,16.913,0,0,1,31.1,34.866a16.7,16.7,0,0,1-4.447,4.639,16.933,16.933,0,0,1-6.02,2.683,17.554,17.554,0,0,1-6.783.144,16.909,16.909,0,0,1-6.128-2.425A16.683,16.683,0,0,1,3.086,35.46,16.917,16.917,0,0,1,.4,29.44a17.624,17.624,0,0,1-.143-6.784A16.944,16.944,0,0,1,7.132,11.889a16.738,16.738,0,0,1,8.687-3.054c.016.127.034.254.055.38.069.43.162.864.277,1.3a.758.758,0,0,0-.522.145,6.558,6.558,0,0,0-.828.583q-.533.423-.982.742c-.175.124-.335.231-.48.324.227.048.415.165.573.852.1.435.312,1.119-.211,1.371l-2.286,1.1A4.461,4.461,0,0,1,10.7,17.3a.089.089,0,0,1-.018.021,10.619,10.619,0,0,1,2.643-1.43.61.61,0,0,1,.687.125,7.8,7.8,0,0,0,2.337,1.567,4.107,4.107,0,0,1,1.737,1.236l.984-.109a.611.611,0,0,1,.732.585,3.625,3.625,0,0,1-.243,1.627,1.434,1.434,0,0,1-.954.624,2.818,2.818,0,0,1-2-.34.776.776,0,0,1-.15.4.61.61,0,0,1-.707.181L14,21.064a.612.612,0,0,1-.422-.568l-.013-.633A3.717,3.717,0,0,0,12,20.288,5.078,5.078,0,0,0,10.388,22a.6.6,0,0,1-.17.184c-1.175.844-1.135,2.159-1.093,3.552.008.281.014.393.016.478,0,.028.032.019.1.143a6.322,6.322,0,0,0,1,1.458l.112.1c.742-.016,1.47-.234,2.208-.251,1.184-.024,2.046.4,2.088,2.395,0,0,.358.6.37.617a3.413,3.413,0,0,1,.514,2.41c-.13.8-.445.743-.172,1.751.2.746.549,1.408.732,2.177q.062.266.1.519a2.338,2.338,0,0,0,.975-.12,1.854,1.854,0,0,0,.9-1.3.618.618,0,0,1,.415-.554c-.069-.281-.19-.569-.022-.843a3.608,3.608,0,0,1,1.065-1.065,1.127,1.127,0,0,0,.256-.222c.017-.029.017,0,.011-.046l-.357-2.238a.608.608,0,0,1,.078-.454q.256-.409.653-.987.386-.559.836-1.174a6.243,6.243,0,0,0,.762-1.113,1.379,1.379,0,0,0-.252-.112,1.864,1.864,0,0,1-.927-.6c-.279-.388-.386-1.025.244-1.171,1.648-.381,2.049-.757,1.955-1.162a4.727,4.727,0,0,0-.712-1.276,9.228,9.228,0,0,1-.906-1.546.609.609,0,0,1,.636-.878l3.3.517a1.064,1.064,0,0,1,.46.134l1.207.816a.612.612,0,0,1,.305.418l.5,2.489,1.487-2.811a.611.611,0,0,1,1.137.048c.377,1.108.752,2.2,1.14,3.3.013-.336.038-.774.086-1.212a7.223,7.223,0,0,1,.221-1.233,1.842,1.842,0,0,1,.3-.627,14.449,14.449,0,0,0-.409-1.705,13.993,13.993,0,0,0-.762-1.966,15.786,15.786,0,0,0-.886-1.61q.472-.574.889-1.184ZM3.249,33.022c.025-.078.051-.156.077-.233a4.951,4.951,0,0,0,.3-1.214l-1.3-.585A14.459,14.459,0,0,0,3.249,33.022Z" transform="translate(15.251 12.253)" fill="#57e673"/>
    <g transform="matrix(1, 0, 0, 1, 0, 0)" filter="url(#country-icon-2)">
      <path id="country-icon-5" data-name="country-icon" d="M32.55,26.078a.609.609,0,0,1-.464.605,4.068,4.068,0,0,1-1.1.3.612.612,0,0,1-.6-.446l-.6-1.71c-.1-.275-.191-.545-.285-.821l-1.144,2.163a2.823,2.823,0,0,1-.812.63.611.611,0,0,1-.846-.17A.592.592,0,0,1,26.6,26.4l-.676-3.374L25,22.4l-2.151-.336c.076.114.153.228.229.34a5.419,5.419,0,0,1,.893,1.688c.21.907-.115,1.676-1.621,2.253a1.308,1.308,0,0,1,.132.085c.6.439.757,1.1-.5,2.816q-.476.648-.817,1.145c-.179.261-.346.512-.5.753l.335,2.1a1.148,1.148,0,0,1-.195.831c-.282.426-.692.593-1.04.936-.047.047-.092.095-.131.141l.146.6a.608.608,0,0,1-.181.593,1.5,1.5,0,0,1-.376.206,2.615,2.615,0,0,1-.179.514A3.127,3.127,0,0,1,17.7,38.5a4.773,4.773,0,0,1-2.057.263.611.611,0,0,1-.623-.6,4.2,4.2,0,0,0-.119-.877c-.174-.739-.522-1.4-.721-2.139a2.776,2.776,0,0,1,.112-2.122,2.22,2.22,0,0,0,.057-.628,2.348,2.348,0,0,0-.38-1.1,3.415,3.415,0,0,1-.544-1.214c-.022-1-.368-1.209-.842-1.2-.727.015-1.457.235-2.208.251a1.388,1.388,0,0,1-.954-.417,7.292,7.292,0,0,1-1.252-1.786,1.85,1.85,0,0,1-.261-1.164c-.052-1.694-.1-3.3,1.508-4.51A6.063,6.063,0,0,1,11.4,19.227a5.54,5.54,0,0,1,2.752-.618.611.611,0,0,1,.623.6l.018.866.739.3.01-.05c.134-.7.894-.474,1.338-.323.535.181.831.488,1.467.35.241-.053.188-.119.213-.365l-.724.081a.61.61,0,0,1-.479-.16,1.909,1.909,0,0,1-.234-.345,3.207,3.207,0,0,0-1.3-.884,9.08,9.08,0,0,1-2.383-1.531c-2.9,1.1-3.825,1.259-4.073.613-.146-.378.046-.687.3-1.1a2.876,2.876,0,0,0,.551-1.406.611.611,0,0,1,.395-.584l2.432-1.174c-.579,0-.8-1-.895-1.408-.13-.573.584-.826.964-1.094q.387-.275.926-.7l.022-.018a15.659,15.659,0,0,0-12.6,12.6A16.431,16.431,0,0,0,1.6,29.176c.012.055.025.11.038.165l2.852,1.291a.624.624,0,0,1,.361.613,5.121,5.121,0,0,1-.368,1.932,4.939,4.939,0,0,0-.329,1.477.576.576,0,0,1-.027.166,15.483,15.483,0,0,0,4.257,4.062,15.7,15.7,0,0,0,5.685,2.248A16.348,16.348,0,0,0,20.374,41a15.686,15.686,0,0,0,5.585-2.487,15.5,15.5,0,0,0,4.12-4.3,15.7,15.7,0,0,0,2.248-5.685,16.052,16.052,0,0,0,.238-3.145c-.011.229-.02.467-.015.7ZM24.7,4.138a3.24,3.24,0,1,1-3.24,3.241A3.24,3.24,0,0,1,24.7,4.138Zm3.746,12.182a13.407,13.407,0,0,1-2.855,2.372,1.184,1.184,0,0,1-1.336.048,16.291,16.291,0,0,1-4-3.576,12.915,12.915,0,0,1-2.724-5.9,8.132,8.132,0,0,1,1.03-5.726,7.2,7.2,0,0,1,1.6-1.768A7.689,7.689,0,0,1,24.993,0a7.1,7.1,0,0,1,5.889,3.4,8.994,8.994,0,0,1,.883,6.5A13.843,13.843,0,0,1,28.444,16.319Zm-3.557,1.423c5.677-3.442,7.868-11.419,3.96-14.984a5.887,5.887,0,0,0-7.96-.067C16.58,6.123,18.511,13.692,24.887,17.742Zm5.89-1.7a16.936,16.936,0,0,1,2.608,5.913,17.619,17.619,0,0,1,.143,6.783A16.913,16.913,0,0,1,31.1,34.866a16.7,16.7,0,0,1-4.447,4.639,16.933,16.933,0,0,1-6.02,2.683,17.554,17.554,0,0,1-6.783.144,16.909,16.909,0,0,1-6.128-2.425A16.683,16.683,0,0,1,3.086,35.46,16.917,16.917,0,0,1,.4,29.44a17.624,17.624,0,0,1-.143-6.784A16.944,16.944,0,0,1,7.132,11.889a16.738,16.738,0,0,1,8.687-3.054c.016.127.034.254.055.38.069.43.162.864.277,1.3a.758.758,0,0,0-.522.145,6.558,6.558,0,0,0-.828.583q-.533.423-.982.742c-.175.124-.335.231-.48.324.227.048.415.165.573.852.1.435.312,1.119-.211,1.371l-2.286,1.1A4.461,4.461,0,0,1,10.7,17.3a.089.089,0,0,1-.018.021,10.619,10.619,0,0,1,2.643-1.43.61.61,0,0,1,.687.125,7.8,7.8,0,0,0,2.337,1.567,4.107,4.107,0,0,1,1.737,1.236l.984-.109a.611.611,0,0,1,.732.585,3.625,3.625,0,0,1-.243,1.627,1.434,1.434,0,0,1-.954.624,2.818,2.818,0,0,1-2-.34.776.776,0,0,1-.15.4.61.61,0,0,1-.707.181L14,21.064a.612.612,0,0,1-.422-.568l-.013-.633A3.717,3.717,0,0,0,12,20.288,5.078,5.078,0,0,0,10.388,22a.6.6,0,0,1-.17.184c-1.175.844-1.135,2.159-1.093,3.552.008.281.014.393.016.478,0,.028.032.019.1.143a6.322,6.322,0,0,0,1,1.458l.112.1c.742-.016,1.47-.234,2.208-.251,1.184-.024,2.046.4,2.088,2.395,0,0,.358.6.37.617a3.413,3.413,0,0,1,.514,2.41c-.13.8-.445.743-.172,1.751.2.746.549,1.408.732,2.177q.062.266.1.519a2.338,2.338,0,0,0,.975-.12,1.854,1.854,0,0,0,.9-1.3.618.618,0,0,1,.415-.554c-.069-.281-.19-.569-.022-.843a3.608,3.608,0,0,1,1.065-1.065,1.127,1.127,0,0,0,.256-.222c.017-.029.017,0,.011-.046l-.357-2.238a.608.608,0,0,1,.078-.454q.256-.409.653-.987.386-.559.836-1.174a6.243,6.243,0,0,0,.762-1.113,1.379,1.379,0,0,0-.252-.112,1.864,1.864,0,0,1-.927-.6c-.279-.388-.386-1.025.244-1.171,1.648-.381,2.049-.757,1.955-1.162a4.727,4.727,0,0,0-.712-1.276,9.228,9.228,0,0,1-.906-1.546.609.609,0,0,1,.636-.878l3.3.517a1.064,1.064,0,0,1,.46.134l1.207.816a.612.612,0,0,1,.305.418l.5,2.489,1.487-2.811a.611.611,0,0,1,1.137.048c.377,1.108.752,2.2,1.14,3.3.013-.336.038-.774.086-1.212a7.223,7.223,0,0,1,.221-1.233,1.842,1.842,0,0,1,.3-.627,14.449,14.449,0,0,0-.409-1.705,13.993,13.993,0,0,0-.762-1.966,15.786,15.786,0,0,0-.886-1.61q.472-.574.889-1.184ZM3.249,33.022c.025-.078.051-.156.077-.233a4.951,4.951,0,0,0,.3-1.214l-1.3-.585A14.459,14.459,0,0,0,3.249,33.022Z" transform="translate(15.25 12.25)" fill="#fff"/>
    </g>
    <path id="country-icon-6" data-name="country-icon" d="M32.55,26.078a.609.609,0,0,1-.464.605,4.068,4.068,0,0,1-1.1.3.612.612,0,0,1-.6-.446l-.6-1.71c-.1-.275-.191-.545-.285-.821l-1.144,2.163a2.823,2.823,0,0,1-.812.63.611.611,0,0,1-.846-.17A.592.592,0,0,1,26.6,26.4l-.676-3.374L25,22.4l-2.151-.336c.076.114.153.228.229.34a5.419,5.419,0,0,1,.893,1.688c.21.907-.115,1.676-1.621,2.253a1.308,1.308,0,0,1,.132.085c.6.439.757,1.1-.5,2.816q-.476.648-.817,1.145c-.179.261-.346.512-.5.753l.335,2.1a1.148,1.148,0,0,1-.195.831c-.282.426-.692.593-1.04.936-.047.047-.092.095-.131.141l.146.6a.608.608,0,0,1-.181.593,1.5,1.5,0,0,1-.376.206,2.615,2.615,0,0,1-.179.514A3.127,3.127,0,0,1,17.7,38.5a4.773,4.773,0,0,1-2.057.263.611.611,0,0,1-.623-.6,4.2,4.2,0,0,0-.119-.877c-.174-.739-.522-1.4-.721-2.139a2.776,2.776,0,0,1,.112-2.122,2.22,2.22,0,0,0,.057-.628,2.348,2.348,0,0,0-.38-1.1,3.415,3.415,0,0,1-.544-1.214c-.022-1-.368-1.209-.842-1.2-.727.015-1.457.235-2.208.251a1.388,1.388,0,0,1-.954-.417,7.292,7.292,0,0,1-1.252-1.786,1.85,1.85,0,0,1-.261-1.164c-.052-1.694-.1-3.3,1.508-4.51A6.063,6.063,0,0,1,11.4,19.227a5.54,5.54,0,0,1,2.752-.618.611.611,0,0,1,.623.6l.018.866.739.3.01-.05c.134-.7.894-.474,1.338-.323.535.181.831.488,1.467.35.241-.053.188-.119.213-.365l-.724.081a.61.61,0,0,1-.479-.16,1.909,1.909,0,0,1-.234-.345,3.207,3.207,0,0,0-1.3-.884,9.08,9.08,0,0,1-2.383-1.531c-2.9,1.1-3.825,1.259-4.073.613-.146-.378.046-.687.3-1.1a2.876,2.876,0,0,0,.551-1.406.611.611,0,0,1,.395-.584l2.432-1.174c-.579,0-.8-1-.895-1.408-.13-.573.584-.826.964-1.094q.387-.275.926-.7l.022-.018a15.659,15.659,0,0,0-12.6,12.6A16.431,16.431,0,0,0,1.6,29.176c.012.055.025.11.038.165l2.852,1.291a.624.624,0,0,1,.361.613,5.121,5.121,0,0,1-.368,1.932,4.939,4.939,0,0,0-.329,1.477.576.576,0,0,1-.027.166,15.483,15.483,0,0,0,4.257,4.062,15.7,15.7,0,0,0,5.685,2.248A16.348,16.348,0,0,0,20.374,41a15.686,15.686,0,0,0,5.585-2.487,15.5,15.5,0,0,0,4.12-4.3,15.7,15.7,0,0,0,2.248-5.685,16.052,16.052,0,0,0,.238-3.145c-.011.229-.02.467-.015.7ZM24.7,4.138a3.24,3.24,0,1,1-3.24,3.241A3.24,3.24,0,0,1,24.7,4.138Zm3.746,12.182a13.407,13.407,0,0,1-2.855,2.372,1.184,1.184,0,0,1-1.336.048,16.291,16.291,0,0,1-4-3.576,12.915,12.915,0,0,1-2.724-5.9,8.132,8.132,0,0,1,1.03-5.726,7.2,7.2,0,0,1,1.6-1.768A7.689,7.689,0,0,1,24.993,0a7.1,7.1,0,0,1,5.889,3.4,8.994,8.994,0,0,1,.883,6.5A13.843,13.843,0,0,1,28.444,16.319Zm-3.557,1.423c5.677-3.442,7.868-11.419,3.96-14.984a5.887,5.887,0,0,0-7.96-.067C16.58,6.123,18.511,13.692,24.887,17.742Zm5.89-1.7a16.936,16.936,0,0,1,2.608,5.913,17.619,17.619,0,0,1,.143,6.783A16.913,16.913,0,0,1,31.1,34.866a16.7,16.7,0,0,1-4.447,4.639,16.933,16.933,0,0,1-6.02,2.683,17.554,17.554,0,0,1-6.783.144,16.909,16.909,0,0,1-6.128-2.425A16.683,16.683,0,0,1,3.086,35.46,16.917,16.917,0,0,1,.4,29.44a17.624,17.624,0,0,1-.143-6.784A16.944,16.944,0,0,1,7.132,11.889a16.738,16.738,0,0,1,8.687-3.054c.016.127.034.254.055.38.069.43.162.864.277,1.3a.758.758,0,0,0-.522.145,6.558,6.558,0,0,0-.828.583q-.533.423-.982.742c-.175.124-.335.231-.48.324.227.048.415.165.573.852.1.435.312,1.119-.211,1.371l-2.286,1.1A4.461,4.461,0,0,1,10.7,17.3a.089.089,0,0,1-.018.021,10.619,10.619,0,0,1,2.643-1.43.61.61,0,0,1,.687.125,7.8,7.8,0,0,0,2.337,1.567,4.107,4.107,0,0,1,1.737,1.236l.984-.109a.611.611,0,0,1,.732.585,3.625,3.625,0,0,1-.243,1.627,1.434,1.434,0,0,1-.954.624,2.818,2.818,0,0,1-2-.34.776.776,0,0,1-.15.4.61.61,0,0,1-.707.181L14,21.064a.612.612,0,0,1-.422-.568l-.013-.633A3.717,3.717,0,0,0,12,20.288,5.078,5.078,0,0,0,10.388,22a.6.6,0,0,1-.17.184c-1.175.844-1.135,2.159-1.093,3.552.008.281.014.393.016.478,0,.028.032.019.1.143a6.322,6.322,0,0,0,1,1.458l.112.1c.742-.016,1.47-.234,2.208-.251,1.184-.024,2.046.4,2.088,2.395,0,0,.358.6.37.617a3.413,3.413,0,0,1,.514,2.41c-.13.8-.445.743-.172,1.751.2.746.549,1.408.732,2.177q.062.266.1.519a2.338,2.338,0,0,0,.975-.12,1.854,1.854,0,0,0,.9-1.3.618.618,0,0,1,.415-.554c-.069-.281-.19-.569-.022-.843a3.608,3.608,0,0,1,1.065-1.065,1.127,1.127,0,0,0,.256-.222c.017-.029.017,0,.011-.046l-.357-2.238a.608.608,0,0,1,.078-.454q.256-.409.653-.987.386-.559.836-1.174a6.243,6.243,0,0,0,.762-1.113,1.379,1.379,0,0,0-.252-.112,1.864,1.864,0,0,1-.927-.6c-.279-.388-.386-1.025.244-1.171,1.648-.381,2.049-.757,1.955-1.162a4.727,4.727,0,0,0-.712-1.276,9.228,9.228,0,0,1-.906-1.546.609.609,0,0,1,.636-.878l3.3.517a1.064,1.064,0,0,1,.46.134l1.207.816a.612.612,0,0,1,.305.418l.5,2.489,1.487-2.811a.611.611,0,0,1,1.137.048c.377,1.108.752,2.2,1.14,3.3.013-.336.038-.774.086-1.212a7.223,7.223,0,0,1,.221-1.233,1.842,1.842,0,0,1,.3-.627,14.449,14.449,0,0,0-.409-1.705,13.993,13.993,0,0,0-.762-1.966,15.786,15.786,0,0,0-.886-1.61q.472-.574.889-1.184ZM3.249,33.022c.025-.078.051-.156.077-.233a4.951,4.951,0,0,0,.3-1.214l-1.3-.585A14.459,14.459,0,0,0,3.249,33.022Z" transform="translate(15.251 12.253)" fill="none" stroke="#009530" stroke-width="0.5"/>
  </g>
</svg>
