<svg xmlns="http://www.w3.org/2000/svg" xmlns:xlink="http://www.w3.org/1999/xlink" width="14" height="12.094" viewBox="0 0 14 12.094">
  <defs>
    <linearGradient id="linear-gradient" y1="0.5" x2="1" y2="0.5" gradientUnits="objectBoundingBox">
      <stop offset="0" stop-color="#54be9a"/>
      <stop offset="0.33" stop-color="#2cabb0"/>
      <stop offset="0.74" stop-color="#2785c0"/>
      <stop offset="1" stop-color="#3a67b0"/>
    </linearGradient>
    <linearGradient id="linear-gradient-9" x1="0" y1="0.5" x2="1" y2="0.5" xlink:href="#linear-gradient"/>
    <linearGradient id="linear-gradient-17" x1="-0.002" y1="0.499" x2="0.998" y2="0.499" xlink:href="#linear-gradient"/>
    <linearGradient id="linear-gradient-18" x1="39.391" y1="-95.549" x2="39.729" y2="-95.549" xlink:href="#linear-gradient"/>
    <linearGradient id="linear-gradient-19" x1="32.258" y1="-72.445" x2="33.312" y2="-72.445" xlink:href="#linear-gradient"/>
    <linearGradient id="linear-gradient-20" x1="-30.832" y1="-135.068" x2="-30.495" y2="-135.068" xlink:href="#linear-gradient"/>
    <linearGradient id="linear-gradient-21" x1="0.526" y1="0.999" x2="0.473" y2="0" xlink:href="#linear-gradient"/>
    <linearGradient id="linear-gradient-22" x1="0.524" y1="1.486" x2="0.487" y2="-0.486" xlink:href="#linear-gradient"/>
    <linearGradient id="linear-gradient-23" x1="-319.987" y1="-102.204" x2="-320.101" y2="-102.921" xlink:href="#linear-gradient"/>
    <linearGradient id="linear-gradient-24" x1="-310.358" y1="-175.594" x2="-310.473" y2="-176.313" xlink:href="#linear-gradient"/>
    <linearGradient id="linear-gradient-25" x1="0.526" y1="1" x2="0.471" y2="0.003" xlink:href="#linear-gradient"/>
    <linearGradient id="linear-gradient-89" x1="0.502" y1="1.109" x2="0.486" y2="-0.075" xlink:href="#linear-gradient"/>
  </defs>
  <g id="Group_5625" data-name="Group 5625" transform="translate(0 0)">
    <path id="Path_24764" data-name="Path 24764" d="M66.186,137.7a.743.743,0,0,1-.163-.013l-12.17.013a.815.815,0,0,1-.772-.829h0v-8.861c0-.013.069-.7,1.049-.754l12.189.088a.887.887,0,0,1,.747,1.036l.013,8.327a1.255,1.255,0,0,1-.352.81.8.8,0,0,1-.546.188Zm-12.911-.841a.607.607,0,0,0,.584.647l12.183-.013a.7.7,0,0,0,.571-.132,1.031,1.031,0,0,0,.289-.666l-.013-8.339a.726.726,0,0,0-.584-.835l-12.164-.088c-.8.05-.867.553-.867.571v8.842Z" transform="translate(-53.08 -127.26)" fill="url(#linear-gradient)"/>
    <path id="Path_27626" data-name="Path 27626" d="M66.186,137.7a.743.743,0,0,1-.163-.013l-12.17.013a.815.815,0,0,1-.772-.829h0v-8.861c0-.013.069-.7,1.049-.754l12.189.088a.887.887,0,0,1,.747,1.036l.013,8.327a1.255,1.255,0,0,1-.352.81.8.8,0,0,1-.546.188Zm-12.911-.841a.607.607,0,0,0,.584.647l12.183-.013a.7.7,0,0,0,.571-.132,1.031,1.031,0,0,0,.289-.666l-.013-8.339a.726.726,0,0,0-.584-.835l-12.164-.088c-.8.05-.867.553-.867.571v8.842Z" transform="translate(-53.08 -127.26)" fill="url(#linear-gradient)"/>
    <path id="Path_27628" data-name="Path 27628" d="M66.186,137.7a.743.743,0,0,1-.163-.013l-12.17.013a.815.815,0,0,1-.772-.829h0v-8.861c0-.013.069-.7,1.049-.754l12.189.088a.887.887,0,0,1,.747,1.036l.013,8.327a1.255,1.255,0,0,1-.352.81.8.8,0,0,1-.546.188Zm-12.911-.841a.607.607,0,0,0,.584.647l12.183-.013a.7.7,0,0,0,.571-.132,1.031,1.031,0,0,0,.289-.666l-.013-8.339a.726.726,0,0,0-.584-.835l-12.164-.088c-.8.05-.867.553-.867.571v8.842Z" transform="translate(-53.08 -127.26)" fill="url(#linear-gradient)"/>
    <path id="Path_27630" data-name="Path 27630" d="M66.186,137.7a.743.743,0,0,1-.163-.013l-12.17.013a.815.815,0,0,1-.772-.829h0v-8.861c0-.013.069-.7,1.049-.754l12.189.088a.887.887,0,0,1,.747,1.036l.013,8.327a1.255,1.255,0,0,1-.352.81.8.8,0,0,1-.546.188Zm-12.911-.841a.607.607,0,0,0,.584.647l12.183-.013a.7.7,0,0,0,.571-.132,1.031,1.031,0,0,0,.289-.666l-.013-8.339a.726.726,0,0,0-.584-.835l-12.164-.088c-.8.05-.867.553-.867.571v8.842Z" transform="translate(-53.08 -127.26)" fill="url(#linear-gradient)"/>
    <path id="Path_27632" data-name="Path 27632" d="M66.186,137.7a.743.743,0,0,1-.163-.013l-12.17.013a.815.815,0,0,1-.772-.829h0v-8.861c0-.013.069-.7,1.049-.754l12.189.088a.887.887,0,0,1,.747,1.036l.013,8.327a1.255,1.255,0,0,1-.352.81.8.8,0,0,1-.546.188Zm-12.911-.841a.607.607,0,0,0,.584.647l12.183-.013a.7.7,0,0,0,.571-.132,1.031,1.031,0,0,0,.289-.666l-.013-8.339a.726.726,0,0,0-.584-.835l-12.164-.088c-.8.05-.867.553-.867.571v8.842Z" transform="translate(-53.08 -127.26)" fill="url(#linear-gradient)"/>
    <path id="Path_27634" data-name="Path 27634" d="M66.186,137.7a.743.743,0,0,1-.163-.013l-12.17.013a.815.815,0,0,1-.772-.829h0v-8.861c0-.013.069-.7,1.049-.754l12.189.088a.887.887,0,0,1,.747,1.036l.013,8.327a1.255,1.255,0,0,1-.352.81.8.8,0,0,1-.546.188Zm-12.911-.841a.607.607,0,0,0,.584.647l12.183-.013a.7.7,0,0,0,.571-.132,1.031,1.031,0,0,0,.289-.666l-.013-8.339a.726.726,0,0,0-.584-.835l-12.164-.088c-.8.05-.867.553-.867.571v8.842Z" transform="translate(-53.08 -127.26)" fill="url(#linear-gradient)"/>
    <path id="Path_27636" data-name="Path 27636" d="M66.186,137.7a.743.743,0,0,1-.163-.013l-12.17.013a.815.815,0,0,1-.772-.829h0v-8.861c0-.013.069-.7,1.049-.754l12.189.088a.887.887,0,0,1,.747,1.036l.013,8.327a1.255,1.255,0,0,1-.352.81.8.8,0,0,1-.546.188Zm-12.911-.841a.607.607,0,0,0,.584.647l12.183-.013a.7.7,0,0,0,.571-.132,1.031,1.031,0,0,0,.289-.666l-.013-8.339a.726.726,0,0,0-.584-.835l-12.164-.088c-.8.05-.867.553-.867.571v8.842Z" transform="translate(-53.08 -127.26)" fill="url(#linear-gradient)"/>
    <path id="Path_27638" data-name="Path 27638" d="M66.186,137.7a.743.743,0,0,1-.163-.013l-12.17.013a.815.815,0,0,1-.772-.829h0v-8.861c0-.013.069-.7,1.049-.754l12.189.088a.887.887,0,0,1,.747,1.036l.013,8.327a1.255,1.255,0,0,1-.352.81.8.8,0,0,1-.546.188Zm-12.911-.841a.607.607,0,0,0,.584.647l12.183-.013a.7.7,0,0,0,.571-.132,1.031,1.031,0,0,0,.289-.666l-.013-8.339a.726.726,0,0,0-.584-.835l-12.164-.088c-.8.05-.867.553-.867.571v8.842Z" transform="translate(-53.08 -127.26)" fill="url(#linear-gradient)"/>
    <rect id="Rectangle_1940" data-name="Rectangle 1940" width="13.815" height="0.188" transform="translate(0.1 9.018)" fill="url(#linear-gradient-9)"/>
    <rect id="Rectangle_2913" data-name="Rectangle 2913" width="13.815" height="0.188" transform="translate(0.1 9.018)" fill="url(#linear-gradient-9)"/>
    <rect id="Rectangle_2914" data-name="Rectangle 2914" width="13.815" height="0.188" transform="translate(0.1 9.018)" fill="url(#linear-gradient-9)"/>
    <rect id="Rectangle_2915" data-name="Rectangle 2915" width="13.815" height="0.188" transform="translate(0.1 9.018)" fill="url(#linear-gradient-9)"/>
    <rect id="Rectangle_2916" data-name="Rectangle 2916" width="13.815" height="0.188" transform="translate(0.1 9.018)" fill="url(#linear-gradient-9)"/>
    <rect id="Rectangle_2917" data-name="Rectangle 2917" width="13.815" height="0.188" transform="translate(0.1 9.018)" fill="url(#linear-gradient-9)"/>
    <rect id="Rectangle_2918" data-name="Rectangle 2918" width="13.815" height="0.188" transform="translate(0.1 9.018)" fill="url(#linear-gradient-9)"/>
    <rect id="Rectangle_2919" data-name="Rectangle 2919" width="13.815" height="0.188" transform="translate(0.1 9.018)" fill="url(#linear-gradient-9)"/>
    <g id="Group_5617" data-name="Group 5617" transform="translate(4.104 1.697)">
      <path id="Path_24765" data-name="Path 24765" d="M58.6,133.829a3.113,3.113,0,0,1,.248-3.35l-.032-.016c-.074,0-.284-.021-.348-.153-.037-.09,0-.19.105-.306l.021-.021.8-.074.026.026.09.09h0l.037.037h0c.042.053.042.068.016.095-.011.084-.021.379-.032.643v.026s-.084.174-.221.2a.274.274,0,0,1-.232-.084l-.021-.032-.095-.3a2.924,2.924,0,0,0-.227,3.134l-.132.09Zm.6-2.992s.053.037.079.032.079-.063.095-.095c.016-.369.021-.548.032-.637l-.068-.068-.664.058c-.053.063-.063.1-.058.116.016.032.126.058.216.058h.037l.211.105-.016.026h0l.132.406Z" transform="translate(-58.234 -129.301)" fill="url(#linear-gradient-17)"/>
      <path id="Path_24766" data-name="Path 24766" d="M65.156,129.983a.082.082,0,0,1-.032-.016c-.084,0-.379-.005-.643,0h-.026s-.174-.074-.211-.211a.256.256,0,0,1,.074-.237l.032-.021.3-.111a2.923,2.923,0,0,0-3.14-.079l-.095-.126a3.108,3.108,0,0,1,3.361.09l.011-.032c0-.074,0-.29.137-.353.084-.042.19-.011.311.09l.021.021.111.79-.026.026c-.037.037-.063.068-.084.09l-.032.037h0a.1.1,0,0,1-.063.037Zm-.263-.179c.116,0,.195,0,.242.005l.063-.074-.09-.659c-.068-.053-.105-.058-.116-.053-.032.016-.053.132-.053.221v.016l-.09.232-.026-.016h0l-.4.153a.079.079,0,0,0-.026.079.187.187,0,0,0,.1.09h.4Z" transform="translate(-59.737 -128.752)" fill="url(#linear-gradient-18)"/>
      <path id="Path_24767" data-name="Path 24767" d="M67.821,135.81l-.026-.026s-.068-.063-.105-.1l-.079-.074.037-.042c.005-.084.011-.379.016-.643V134.9s.079-.174.216-.205a.251.251,0,0,1,.232.079l.021.032.105.3a2.929,2.929,0,0,0,.142-3.14l.126-.095a3.121,3.121,0,0,1-.158,3.361l.032.016c.079-.005.29.011.353.148.042.084.011.19-.095.311l-.021.021-.8.095Zm-.016-.232s.042.042.068.063l.659-.079c.053-.068.058-.105.053-.116-.016-.037-.137-.068-.221-.053h-.016l-.232-.095.016-.026h0l-.142-.4a.116.116,0,0,0-.079-.032c-.037.011-.074.063-.095.1,0,.369-.005.548-.016.637Z" transform="translate(-62.671 -130.228)" fill="url(#linear-gradient-19)"/>
      <path id="Path_24768" data-name="Path 24768" d="M62.049,139.564a3.792,3.792,0,0,1-1.833-.511l-.011.032c0,.074,0,.29-.137.353-.084.042-.19.016-.311-.09l-.021-.021-.116-.79.026-.026c.032-.037.063-.068.084-.09h0l.037-.042h0c.047-.042.063-.042.095-.021h.669s.179.074.211.211a.256.256,0,0,1-.074.237l-.032.021-.3.111a2.918,2.918,0,0,0,3.14.058l.1.126a2.678,2.678,0,0,1-1.528.442Zm-2.17-.316a.188.188,0,0,0,.116.053c.032-.016.053-.132.047-.221v-.016l.09-.237.026.016h0l.4-.153a.079.079,0,0,0,.026-.079.187.187,0,0,0-.1-.09c-.369.005-.548.011-.637,0l-.063.074.095.658Z" transform="translate(-58.89 -133.291)" fill="url(#linear-gradient-20)"/>
      <path id="Path_24769" data-name="Path 24769" d="M62.178,134.867a2.228,2.228,0,1,1,2.228-2.228A2.233,2.233,0,0,1,62.178,134.867Zm0-4.093a1.86,1.86,0,1,0,1.86,1.86A1.863,1.863,0,0,0,62.178,130.773Z" transform="translate(-59.046 -129.537)" fill="url(#linear-gradient-21)"/>
      <rect id="Rectangle_1941" data-name="Rectangle 1941" width="1.006" height="0.369" transform="translate(1.322 3.75) rotate(-25.42)" fill="url(#linear-gradient-22)"/>
      <rect id="Rectangle_1942" data-name="Rectangle 1942" width="0.369" height="1.006" transform="translate(2.919 1.197) rotate(-3.48)" fill="url(#linear-gradient-23)"/>
      <rect id="Rectangle_1943" data-name="Rectangle 1943" width="0.369" height="1.011" transform="translate(3.502 3.942) rotate(-35.13)" fill="url(#linear-gradient-24)"/>
      <path id="Path_24770" data-name="Path 24770" d="M63.281,134.732a1,1,0,1,1,1-1A1,1,0,0,1,63.281,134.732Zm0-1.633a.632.632,0,1,0,.632.632A.634.634,0,0,0,63.281,133.1Z" transform="translate(-60.148 -130.635)" fill="url(#linear-gradient-25)"/>
    </g>
    <g id="Group_5618" data-name="Group 5618" transform="translate(4.104 1.697)">
      <path id="Path_24765-2" data-name="Path 24765" d="M58.6,133.829a3.113,3.113,0,0,1,.248-3.35l-.032-.016c-.074,0-.284-.021-.348-.153-.037-.09,0-.19.105-.306l.021-.021.8-.074.026.026.09.09h0l.037.037h0c.042.053.042.068.016.095-.011.084-.021.379-.032.643v.026s-.084.174-.221.2a.274.274,0,0,1-.232-.084l-.021-.032-.095-.3a2.924,2.924,0,0,0-.227,3.134l-.132.09Zm.6-2.992s.053.037.079.032.079-.063.095-.095c.016-.369.021-.548.032-.637l-.068-.068-.664.058c-.053.063-.063.1-.058.116.016.032.126.058.216.058h.037l.211.105-.016.026h0l.132.406Z" transform="translate(-58.234 -129.301)" fill="url(#linear-gradient-17)"/>
      <path id="Path_24766-2" data-name="Path 24766" d="M65.156,129.983a.082.082,0,0,1-.032-.016c-.084,0-.379-.005-.643,0h-.026s-.174-.074-.211-.211a.256.256,0,0,1,.074-.237l.032-.021.3-.111a2.923,2.923,0,0,0-3.14-.079l-.095-.126a3.108,3.108,0,0,1,3.361.09l.011-.032c0-.074,0-.29.137-.353.084-.042.19-.011.311.09l.021.021.111.79-.026.026c-.037.037-.063.068-.084.09l-.032.037h0a.1.1,0,0,1-.063.037Zm-.263-.179c.116,0,.195,0,.242.005l.063-.074-.09-.659c-.068-.053-.105-.058-.116-.053-.032.016-.053.132-.053.221v.016l-.09.232-.026-.016h0l-.4.153a.079.079,0,0,0-.026.079.187.187,0,0,0,.1.09h.4Z" transform="translate(-59.737 -128.752)" fill="url(#linear-gradient-18)"/>
      <path id="Path_24767-2" data-name="Path 24767" d="M67.821,135.81l-.026-.026s-.068-.063-.105-.1l-.079-.074.037-.042c.005-.084.011-.379.016-.643V134.9s.079-.174.216-.205a.251.251,0,0,1,.232.079l.021.032.105.3a2.929,2.929,0,0,0,.142-3.14l.126-.095a3.121,3.121,0,0,1-.158,3.361l.032.016c.079-.005.29.011.353.148.042.084.011.19-.095.311l-.021.021-.8.095Zm-.016-.232s.042.042.068.063l.659-.079c.053-.068.058-.105.053-.116-.016-.037-.137-.068-.221-.053h-.016l-.232-.095.016-.026h0l-.142-.4a.116.116,0,0,0-.079-.032c-.037.011-.074.063-.095.1,0,.369-.005.548-.016.637Z" transform="translate(-62.671 -130.228)" fill="url(#linear-gradient-19)"/>
      <path id="Path_24768-2" data-name="Path 24768" d="M62.049,139.564a3.792,3.792,0,0,1-1.833-.511l-.011.032c0,.074,0,.29-.137.353-.084.042-.19.016-.311-.09l-.021-.021-.116-.79.026-.026c.032-.037.063-.068.084-.09h0l.037-.042h0c.047-.042.063-.042.095-.021h.669s.179.074.211.211a.256.256,0,0,1-.074.237l-.032.021-.3.111a2.918,2.918,0,0,0,3.14.058l.1.126a2.678,2.678,0,0,1-1.528.442Zm-2.17-.316a.188.188,0,0,0,.116.053c.032-.016.053-.132.047-.221v-.016l.09-.237.026.016h0l.4-.153a.079.079,0,0,0,.026-.079.187.187,0,0,0-.1-.09c-.369.005-.548.011-.637,0l-.063.074.095.658Z" transform="translate(-58.89 -133.291)" fill="url(#linear-gradient-20)"/>
      <path id="Path_24769-2" data-name="Path 24769" d="M62.178,134.867a2.228,2.228,0,1,1,2.228-2.228A2.233,2.233,0,0,1,62.178,134.867Zm0-4.093a1.86,1.86,0,1,0,1.86,1.86A1.863,1.863,0,0,0,62.178,130.773Z" transform="translate(-59.046 -129.537)" fill="url(#linear-gradient-21)"/>
      <rect id="Rectangle_1941-2" data-name="Rectangle 1941" width="1.006" height="0.369" transform="translate(1.322 3.75) rotate(-25.42)" fill="url(#linear-gradient-22)"/>
      <rect id="Rectangle_1942-2" data-name="Rectangle 1942" width="0.369" height="1.006" transform="translate(2.919 1.197) rotate(-3.48)" fill="url(#linear-gradient-23)"/>
      <rect id="Rectangle_1943-2" data-name="Rectangle 1943" width="0.369" height="1.011" transform="translate(3.502 3.942) rotate(-35.13)" fill="url(#linear-gradient-24)"/>
      <path id="Path_24770-2" data-name="Path 24770" d="M63.281,134.732a1,1,0,1,1,1-1A1,1,0,0,1,63.281,134.732Zm0-1.633a.632.632,0,1,0,.632.632A.634.634,0,0,0,63.281,133.1Z" transform="translate(-60.148 -130.635)" fill="url(#linear-gradient-25)"/>
    </g>
    <g id="Group_5619" data-name="Group 5619" transform="translate(4.104 1.697)">
      <path id="Path_24765-3" data-name="Path 24765" d="M58.6,133.829a3.113,3.113,0,0,1,.248-3.35l-.032-.016c-.074,0-.284-.021-.348-.153-.037-.09,0-.19.105-.306l.021-.021.8-.074.026.026.09.09h0l.037.037h0c.042.053.042.068.016.095-.011.084-.021.379-.032.643v.026s-.084.174-.221.2a.274.274,0,0,1-.232-.084l-.021-.032-.095-.3a2.924,2.924,0,0,0-.227,3.134l-.132.09Zm.6-2.992s.053.037.079.032.079-.063.095-.095c.016-.369.021-.548.032-.637l-.068-.068-.664.058c-.053.063-.063.1-.058.116.016.032.126.058.216.058h.037l.211.105-.016.026h0l.132.406Z" transform="translate(-58.234 -129.301)" fill="url(#linear-gradient-17)"/>
      <path id="Path_24766-3" data-name="Path 24766" d="M65.156,129.983a.082.082,0,0,1-.032-.016c-.084,0-.379-.005-.643,0h-.026s-.174-.074-.211-.211a.256.256,0,0,1,.074-.237l.032-.021.3-.111a2.923,2.923,0,0,0-3.14-.079l-.095-.126a3.108,3.108,0,0,1,3.361.09l.011-.032c0-.074,0-.29.137-.353.084-.042.19-.011.311.09l.021.021.111.79-.026.026c-.037.037-.063.068-.084.09l-.032.037h0a.1.1,0,0,1-.063.037Zm-.263-.179c.116,0,.195,0,.242.005l.063-.074-.09-.659c-.068-.053-.105-.058-.116-.053-.032.016-.053.132-.053.221v.016l-.09.232-.026-.016h0l-.4.153a.079.079,0,0,0-.026.079.187.187,0,0,0,.1.09h.4Z" transform="translate(-59.737 -128.752)" fill="url(#linear-gradient-18)"/>
      <path id="Path_24767-3" data-name="Path 24767" d="M67.821,135.81l-.026-.026s-.068-.063-.105-.1l-.079-.074.037-.042c.005-.084.011-.379.016-.643V134.9s.079-.174.216-.205a.251.251,0,0,1,.232.079l.021.032.105.3a2.929,2.929,0,0,0,.142-3.14l.126-.095a3.121,3.121,0,0,1-.158,3.361l.032.016c.079-.005.29.011.353.148.042.084.011.19-.095.311l-.021.021-.8.095Zm-.016-.232s.042.042.068.063l.659-.079c.053-.068.058-.105.053-.116-.016-.037-.137-.068-.221-.053h-.016l-.232-.095.016-.026h0l-.142-.4a.116.116,0,0,0-.079-.032c-.037.011-.074.063-.095.1,0,.369-.005.548-.016.637Z" transform="translate(-62.671 -130.228)" fill="url(#linear-gradient-19)"/>
      <path id="Path_24768-3" data-name="Path 24768" d="M62.049,139.564a3.792,3.792,0,0,1-1.833-.511l-.011.032c0,.074,0,.29-.137.353-.084.042-.19.016-.311-.09l-.021-.021-.116-.79.026-.026c.032-.037.063-.068.084-.09h0l.037-.042h0c.047-.042.063-.042.095-.021h.669s.179.074.211.211a.256.256,0,0,1-.074.237l-.032.021-.3.111a2.918,2.918,0,0,0,3.14.058l.1.126a2.678,2.678,0,0,1-1.528.442Zm-2.17-.316a.188.188,0,0,0,.116.053c.032-.016.053-.132.047-.221v-.016l.09-.237.026.016h0l.4-.153a.079.079,0,0,0,.026-.079.187.187,0,0,0-.1-.09c-.369.005-.548.011-.637,0l-.063.074.095.658Z" transform="translate(-58.89 -133.291)" fill="url(#linear-gradient-20)"/>
      <path id="Path_24769-3" data-name="Path 24769" d="M62.178,134.867a2.228,2.228,0,1,1,2.228-2.228A2.233,2.233,0,0,1,62.178,134.867Zm0-4.093a1.86,1.86,0,1,0,1.86,1.86A1.863,1.863,0,0,0,62.178,130.773Z" transform="translate(-59.046 -129.537)" fill="url(#linear-gradient-21)"/>
      <rect id="Rectangle_1941-3" data-name="Rectangle 1941" width="1.006" height="0.369" transform="translate(1.322 3.75) rotate(-25.42)" fill="url(#linear-gradient-22)"/>
      <rect id="Rectangle_1942-3" data-name="Rectangle 1942" width="0.369" height="1.006" transform="translate(2.919 1.197) rotate(-3.48)" fill="url(#linear-gradient-23)"/>
      <rect id="Rectangle_1943-3" data-name="Rectangle 1943" width="0.369" height="1.011" transform="translate(3.502 3.942) rotate(-35.13)" fill="url(#linear-gradient-24)"/>
      <path id="Path_24770-3" data-name="Path 24770" d="M63.281,134.732a1,1,0,1,1,1-1A1,1,0,0,1,63.281,134.732Zm0-1.633a.632.632,0,1,0,.632.632A.634.634,0,0,0,63.281,133.1Z" transform="translate(-60.148 -130.635)" fill="url(#linear-gradient-25)"/>
    </g>
    <g id="Group_5620" data-name="Group 5620" transform="translate(4.104 1.697)">
      <path id="Path_24765-4" data-name="Path 24765" d="M58.6,133.829a3.113,3.113,0,0,1,.248-3.35l-.032-.016c-.074,0-.284-.021-.348-.153-.037-.09,0-.19.105-.306l.021-.021.8-.074.026.026.09.09h0l.037.037h0c.042.053.042.068.016.095-.011.084-.021.379-.032.643v.026s-.084.174-.221.2a.274.274,0,0,1-.232-.084l-.021-.032-.095-.3a2.924,2.924,0,0,0-.227,3.134l-.132.09Zm.6-2.992s.053.037.079.032.079-.063.095-.095c.016-.369.021-.548.032-.637l-.068-.068-.664.058c-.053.063-.063.1-.058.116.016.032.126.058.216.058h.037l.211.105-.016.026h0l.132.406Z" transform="translate(-58.234 -129.301)" fill="url(#linear-gradient-17)"/>
      <path id="Path_24766-4" data-name="Path 24766" d="M65.156,129.983a.082.082,0,0,1-.032-.016c-.084,0-.379-.005-.643,0h-.026s-.174-.074-.211-.211a.256.256,0,0,1,.074-.237l.032-.021.3-.111a2.923,2.923,0,0,0-3.14-.079l-.095-.126a3.108,3.108,0,0,1,3.361.09l.011-.032c0-.074,0-.29.137-.353.084-.042.19-.011.311.09l.021.021.111.79-.026.026c-.037.037-.063.068-.084.09l-.032.037h0a.1.1,0,0,1-.063.037Zm-.263-.179c.116,0,.195,0,.242.005l.063-.074-.09-.659c-.068-.053-.105-.058-.116-.053-.032.016-.053.132-.053.221v.016l-.09.232-.026-.016h0l-.4.153a.079.079,0,0,0-.026.079.187.187,0,0,0,.1.09h.4Z" transform="translate(-59.737 -128.752)" fill="url(#linear-gradient-18)"/>
      <path id="Path_24767-4" data-name="Path 24767" d="M67.821,135.81l-.026-.026s-.068-.063-.105-.1l-.079-.074.037-.042c.005-.084.011-.379.016-.643V134.9s.079-.174.216-.205a.251.251,0,0,1,.232.079l.021.032.105.3a2.929,2.929,0,0,0,.142-3.14l.126-.095a3.121,3.121,0,0,1-.158,3.361l.032.016c.079-.005.29.011.353.148.042.084.011.19-.095.311l-.021.021-.8.095Zm-.016-.232s.042.042.068.063l.659-.079c.053-.068.058-.105.053-.116-.016-.037-.137-.068-.221-.053h-.016l-.232-.095.016-.026h0l-.142-.4a.116.116,0,0,0-.079-.032c-.037.011-.074.063-.095.1,0,.369-.005.548-.016.637Z" transform="translate(-62.671 -130.228)" fill="url(#linear-gradient-19)"/>
      <path id="Path_24768-4" data-name="Path 24768" d="M62.049,139.564a3.792,3.792,0,0,1-1.833-.511l-.011.032c0,.074,0,.29-.137.353-.084.042-.19.016-.311-.09l-.021-.021-.116-.79.026-.026c.032-.037.063-.068.084-.09h0l.037-.042h0c.047-.042.063-.042.095-.021h.669s.179.074.211.211a.256.256,0,0,1-.074.237l-.032.021-.3.111a2.918,2.918,0,0,0,3.14.058l.1.126a2.678,2.678,0,0,1-1.528.442Zm-2.17-.316a.188.188,0,0,0,.116.053c.032-.016.053-.132.047-.221v-.016l.09-.237.026.016h0l.4-.153a.079.079,0,0,0,.026-.079.187.187,0,0,0-.1-.09c-.369.005-.548.011-.637,0l-.063.074.095.658Z" transform="translate(-58.89 -133.291)" fill="url(#linear-gradient-20)"/>
      <path id="Path_24769-4" data-name="Path 24769" d="M62.178,134.867a2.228,2.228,0,1,1,2.228-2.228A2.233,2.233,0,0,1,62.178,134.867Zm0-4.093a1.86,1.86,0,1,0,1.86,1.86A1.863,1.863,0,0,0,62.178,130.773Z" transform="translate(-59.046 -129.537)" fill="url(#linear-gradient-21)"/>
      <rect id="Rectangle_1941-4" data-name="Rectangle 1941" width="1.006" height="0.369" transform="translate(1.322 3.75) rotate(-25.42)" fill="url(#linear-gradient-22)"/>
      <rect id="Rectangle_1942-4" data-name="Rectangle 1942" width="0.369" height="1.006" transform="translate(2.919 1.197) rotate(-3.48)" fill="url(#linear-gradient-23)"/>
      <rect id="Rectangle_1943-4" data-name="Rectangle 1943" width="0.369" height="1.011" transform="translate(3.502 3.942) rotate(-35.13)" fill="url(#linear-gradient-24)"/>
      <path id="Path_24770-4" data-name="Path 24770" d="M63.281,134.732a1,1,0,1,1,1-1A1,1,0,0,1,63.281,134.732Zm0-1.633a.632.632,0,1,0,.632.632A.634.634,0,0,0,63.281,133.1Z" transform="translate(-60.148 -130.635)" fill="url(#linear-gradient-25)"/>
    </g>
    <g id="Group_5621" data-name="Group 5621" transform="translate(4.104 1.697)">
      <path id="Path_24765-5" data-name="Path 24765" d="M58.6,133.829a3.113,3.113,0,0,1,.248-3.35l-.032-.016c-.074,0-.284-.021-.348-.153-.037-.09,0-.19.105-.306l.021-.021.8-.074.026.026.09.09h0l.037.037h0c.042.053.042.068.016.095-.011.084-.021.379-.032.643v.026s-.084.174-.221.2a.274.274,0,0,1-.232-.084l-.021-.032-.095-.3a2.924,2.924,0,0,0-.227,3.134l-.132.09Zm.6-2.992s.053.037.079.032.079-.063.095-.095c.016-.369.021-.548.032-.637l-.068-.068-.664.058c-.053.063-.063.1-.058.116.016.032.126.058.216.058h.037l.211.105-.016.026h0l.132.406Z" transform="translate(-58.234 -129.301)" fill="url(#linear-gradient-17)"/>
      <path id="Path_24766-5" data-name="Path 24766" d="M65.156,129.983a.082.082,0,0,1-.032-.016c-.084,0-.379-.005-.643,0h-.026s-.174-.074-.211-.211a.256.256,0,0,1,.074-.237l.032-.021.3-.111a2.923,2.923,0,0,0-3.14-.079l-.095-.126a3.108,3.108,0,0,1,3.361.09l.011-.032c0-.074,0-.29.137-.353.084-.042.19-.011.311.09l.021.021.111.79-.026.026c-.037.037-.063.068-.084.09l-.032.037h0a.1.1,0,0,1-.063.037Zm-.263-.179c.116,0,.195,0,.242.005l.063-.074-.09-.659c-.068-.053-.105-.058-.116-.053-.032.016-.053.132-.053.221v.016l-.09.232-.026-.016h0l-.4.153a.079.079,0,0,0-.026.079.187.187,0,0,0,.1.09h.4Z" transform="translate(-59.737 -128.752)" fill="url(#linear-gradient-18)"/>
      <path id="Path_24767-5" data-name="Path 24767" d="M67.821,135.81l-.026-.026s-.068-.063-.105-.1l-.079-.074.037-.042c.005-.084.011-.379.016-.643V134.9s.079-.174.216-.205a.251.251,0,0,1,.232.079l.021.032.105.3a2.929,2.929,0,0,0,.142-3.14l.126-.095a3.121,3.121,0,0,1-.158,3.361l.032.016c.079-.005.29.011.353.148.042.084.011.19-.095.311l-.021.021-.8.095Zm-.016-.232s.042.042.068.063l.659-.079c.053-.068.058-.105.053-.116-.016-.037-.137-.068-.221-.053h-.016l-.232-.095.016-.026h0l-.142-.4a.116.116,0,0,0-.079-.032c-.037.011-.074.063-.095.1,0,.369-.005.548-.016.637Z" transform="translate(-62.671 -130.228)" fill="url(#linear-gradient-19)"/>
      <path id="Path_24768-5" data-name="Path 24768" d="M62.049,139.564a3.792,3.792,0,0,1-1.833-.511l-.011.032c0,.074,0,.29-.137.353-.084.042-.19.016-.311-.09l-.021-.021-.116-.79.026-.026c.032-.037.063-.068.084-.09h0l.037-.042h0c.047-.042.063-.042.095-.021h.669s.179.074.211.211a.256.256,0,0,1-.074.237l-.032.021-.3.111a2.918,2.918,0,0,0,3.14.058l.1.126a2.678,2.678,0,0,1-1.528.442Zm-2.17-.316a.188.188,0,0,0,.116.053c.032-.016.053-.132.047-.221v-.016l.09-.237.026.016h0l.4-.153a.079.079,0,0,0,.026-.079.187.187,0,0,0-.1-.09c-.369.005-.548.011-.637,0l-.063.074.095.658Z" transform="translate(-58.89 -133.291)" fill="url(#linear-gradient-20)"/>
      <path id="Path_24769-5" data-name="Path 24769" d="M62.178,134.867a2.228,2.228,0,1,1,2.228-2.228A2.233,2.233,0,0,1,62.178,134.867Zm0-4.093a1.86,1.86,0,1,0,1.86,1.86A1.863,1.863,0,0,0,62.178,130.773Z" transform="translate(-59.046 -129.537)" fill="url(#linear-gradient-21)"/>
      <rect id="Rectangle_1941-5" data-name="Rectangle 1941" width="1.006" height="0.369" transform="translate(1.322 3.75) rotate(-25.42)" fill="url(#linear-gradient-22)"/>
      <rect id="Rectangle_1942-5" data-name="Rectangle 1942" width="0.369" height="1.006" transform="translate(2.919 1.197) rotate(-3.48)" fill="url(#linear-gradient-23)"/>
      <rect id="Rectangle_1943-5" data-name="Rectangle 1943" width="0.369" height="1.011" transform="translate(3.502 3.942) rotate(-35.13)" fill="url(#linear-gradient-24)"/>
      <path id="Path_24770-5" data-name="Path 24770" d="M63.281,134.732a1,1,0,1,1,1-1A1,1,0,0,1,63.281,134.732Zm0-1.633a.632.632,0,1,0,.632.632A.634.634,0,0,0,63.281,133.1Z" transform="translate(-60.148 -130.635)" fill="url(#linear-gradient-25)"/>
    </g>
    <g id="Group_5622" data-name="Group 5622" transform="translate(4.104 1.697)">
      <path id="Path_24765-6" data-name="Path 24765" d="M58.6,133.829a3.113,3.113,0,0,1,.248-3.35l-.032-.016c-.074,0-.284-.021-.348-.153-.037-.09,0-.19.105-.306l.021-.021.8-.074.026.026.09.09h0l.037.037h0c.042.053.042.068.016.095-.011.084-.021.379-.032.643v.026s-.084.174-.221.2a.274.274,0,0,1-.232-.084l-.021-.032-.095-.3a2.924,2.924,0,0,0-.227,3.134l-.132.09Zm.6-2.992s.053.037.079.032.079-.063.095-.095c.016-.369.021-.548.032-.637l-.068-.068-.664.058c-.053.063-.063.1-.058.116.016.032.126.058.216.058h.037l.211.105-.016.026h0l.132.406Z" transform="translate(-58.234 -129.301)" fill="url(#linear-gradient-17)"/>
      <path id="Path_24766-6" data-name="Path 24766" d="M65.156,129.983a.082.082,0,0,1-.032-.016c-.084,0-.379-.005-.643,0h-.026s-.174-.074-.211-.211a.256.256,0,0,1,.074-.237l.032-.021.3-.111a2.923,2.923,0,0,0-3.14-.079l-.095-.126a3.108,3.108,0,0,1,3.361.09l.011-.032c0-.074,0-.29.137-.353.084-.042.19-.011.311.09l.021.021.111.79-.026.026c-.037.037-.063.068-.084.09l-.032.037h0a.1.1,0,0,1-.063.037Zm-.263-.179c.116,0,.195,0,.242.005l.063-.074-.09-.659c-.068-.053-.105-.058-.116-.053-.032.016-.053.132-.053.221v.016l-.09.232-.026-.016h0l-.4.153a.079.079,0,0,0-.026.079.187.187,0,0,0,.1.09h.4Z" transform="translate(-59.737 -128.752)" fill="url(#linear-gradient-18)"/>
      <path id="Path_24767-6" data-name="Path 24767" d="M67.821,135.81l-.026-.026s-.068-.063-.105-.1l-.079-.074.037-.042c.005-.084.011-.379.016-.643V134.9s.079-.174.216-.205a.251.251,0,0,1,.232.079l.021.032.105.3a2.929,2.929,0,0,0,.142-3.14l.126-.095a3.121,3.121,0,0,1-.158,3.361l.032.016c.079-.005.29.011.353.148.042.084.011.19-.095.311l-.021.021-.8.095Zm-.016-.232s.042.042.068.063l.659-.079c.053-.068.058-.105.053-.116-.016-.037-.137-.068-.221-.053h-.016l-.232-.095.016-.026h0l-.142-.4a.116.116,0,0,0-.079-.032c-.037.011-.074.063-.095.1,0,.369-.005.548-.016.637Z" transform="translate(-62.671 -130.228)" fill="url(#linear-gradient-19)"/>
      <path id="Path_24768-6" data-name="Path 24768" d="M62.049,139.564a3.792,3.792,0,0,1-1.833-.511l-.011.032c0,.074,0,.29-.137.353-.084.042-.19.016-.311-.09l-.021-.021-.116-.79.026-.026c.032-.037.063-.068.084-.09h0l.037-.042h0c.047-.042.063-.042.095-.021h.669s.179.074.211.211a.256.256,0,0,1-.074.237l-.032.021-.3.111a2.918,2.918,0,0,0,3.14.058l.1.126a2.678,2.678,0,0,1-1.528.442Zm-2.17-.316a.188.188,0,0,0,.116.053c.032-.016.053-.132.047-.221v-.016l.09-.237.026.016h0l.4-.153a.079.079,0,0,0,.026-.079.187.187,0,0,0-.1-.09c-.369.005-.548.011-.637,0l-.063.074.095.658Z" transform="translate(-58.89 -133.291)" fill="url(#linear-gradient-20)"/>
      <path id="Path_24769-6" data-name="Path 24769" d="M62.178,134.867a2.228,2.228,0,1,1,2.228-2.228A2.233,2.233,0,0,1,62.178,134.867Zm0-4.093a1.86,1.86,0,1,0,1.86,1.86A1.863,1.863,0,0,0,62.178,130.773Z" transform="translate(-59.046 -129.537)" fill="url(#linear-gradient-21)"/>
      <rect id="Rectangle_1941-6" data-name="Rectangle 1941" width="1.006" height="0.369" transform="translate(1.322 3.75) rotate(-25.42)" fill="url(#linear-gradient-22)"/>
      <rect id="Rectangle_1942-6" data-name="Rectangle 1942" width="0.369" height="1.006" transform="translate(2.919 1.197) rotate(-3.48)" fill="url(#linear-gradient-23)"/>
      <rect id="Rectangle_1943-6" data-name="Rectangle 1943" width="0.369" height="1.011" transform="translate(3.502 3.942) rotate(-35.13)" fill="url(#linear-gradient-24)"/>
      <path id="Path_24770-6" data-name="Path 24770" d="M63.281,134.732a1,1,0,1,1,1-1A1,1,0,0,1,63.281,134.732Zm0-1.633a.632.632,0,1,0,.632.632A.634.634,0,0,0,63.281,133.1Z" transform="translate(-60.148 -130.635)" fill="url(#linear-gradient-25)"/>
    </g>
    <g id="Group_5623" data-name="Group 5623" transform="translate(4.104 1.697)">
      <path id="Path_24765-7" data-name="Path 24765" d="M58.6,133.829a3.113,3.113,0,0,1,.248-3.35l-.032-.016c-.074,0-.284-.021-.348-.153-.037-.09,0-.19.105-.306l.021-.021.8-.074.026.026.09.09h0l.037.037h0c.042.053.042.068.016.095-.011.084-.021.379-.032.643v.026s-.084.174-.221.2a.274.274,0,0,1-.232-.084l-.021-.032-.095-.3a2.924,2.924,0,0,0-.227,3.134l-.132.09Zm.6-2.992s.053.037.079.032.079-.063.095-.095c.016-.369.021-.548.032-.637l-.068-.068-.664.058c-.053.063-.063.1-.058.116.016.032.126.058.216.058h.037l.211.105-.016.026h0l.132.406Z" transform="translate(-58.234 -129.301)" fill="url(#linear-gradient-17)"/>
      <path id="Path_24766-7" data-name="Path 24766" d="M65.156,129.983a.082.082,0,0,1-.032-.016c-.084,0-.379-.005-.643,0h-.026s-.174-.074-.211-.211a.256.256,0,0,1,.074-.237l.032-.021.3-.111a2.923,2.923,0,0,0-3.14-.079l-.095-.126a3.108,3.108,0,0,1,3.361.09l.011-.032c0-.074,0-.29.137-.353.084-.042.19-.011.311.09l.021.021.111.79-.026.026c-.037.037-.063.068-.084.09l-.032.037h0a.1.1,0,0,1-.063.037Zm-.263-.179c.116,0,.195,0,.242.005l.063-.074-.09-.659c-.068-.053-.105-.058-.116-.053-.032.016-.053.132-.053.221v.016l-.09.232-.026-.016h0l-.4.153a.079.079,0,0,0-.026.079.187.187,0,0,0,.1.09h.4Z" transform="translate(-59.737 -128.752)" fill="url(#linear-gradient-18)"/>
      <path id="Path_24767-7" data-name="Path 24767" d="M67.821,135.81l-.026-.026s-.068-.063-.105-.1l-.079-.074.037-.042c.005-.084.011-.379.016-.643V134.9s.079-.174.216-.205a.251.251,0,0,1,.232.079l.021.032.105.3a2.929,2.929,0,0,0,.142-3.14l.126-.095a3.121,3.121,0,0,1-.158,3.361l.032.016c.079-.005.29.011.353.148.042.084.011.19-.095.311l-.021.021-.8.095Zm-.016-.232s.042.042.068.063l.659-.079c.053-.068.058-.105.053-.116-.016-.037-.137-.068-.221-.053h-.016l-.232-.095.016-.026h0l-.142-.4a.116.116,0,0,0-.079-.032c-.037.011-.074.063-.095.1,0,.369-.005.548-.016.637Z" transform="translate(-62.671 -130.228)" fill="url(#linear-gradient-19)"/>
      <path id="Path_24768-7" data-name="Path 24768" d="M62.049,139.564a3.792,3.792,0,0,1-1.833-.511l-.011.032c0,.074,0,.29-.137.353-.084.042-.19.016-.311-.09l-.021-.021-.116-.79.026-.026c.032-.037.063-.068.084-.09h0l.037-.042h0c.047-.042.063-.042.095-.021h.669s.179.074.211.211a.256.256,0,0,1-.074.237l-.032.021-.3.111a2.918,2.918,0,0,0,3.14.058l.1.126a2.678,2.678,0,0,1-1.528.442Zm-2.17-.316a.188.188,0,0,0,.116.053c.032-.016.053-.132.047-.221v-.016l.09-.237.026.016h0l.4-.153a.079.079,0,0,0,.026-.079.187.187,0,0,0-.1-.09c-.369.005-.548.011-.637,0l-.063.074.095.658Z" transform="translate(-58.89 -133.291)" fill="url(#linear-gradient-20)"/>
      <path id="Path_24769-7" data-name="Path 24769" d="M62.178,134.867a2.228,2.228,0,1,1,2.228-2.228A2.233,2.233,0,0,1,62.178,134.867Zm0-4.093a1.86,1.86,0,1,0,1.86,1.86A1.863,1.863,0,0,0,62.178,130.773Z" transform="translate(-59.046 -129.537)" fill="url(#linear-gradient-21)"/>
      <rect id="Rectangle_1941-7" data-name="Rectangle 1941" width="1.006" height="0.369" transform="translate(1.322 3.75) rotate(-25.42)" fill="url(#linear-gradient-22)"/>
      <rect id="Rectangle_1942-7" data-name="Rectangle 1942" width="0.369" height="1.006" transform="translate(2.919 1.197) rotate(-3.48)" fill="url(#linear-gradient-23)"/>
      <rect id="Rectangle_1943-7" data-name="Rectangle 1943" width="0.369" height="1.011" transform="translate(3.502 3.942) rotate(-35.13)" fill="url(#linear-gradient-24)"/>
      <path id="Path_24770-7" data-name="Path 24770" d="M63.281,134.732a1,1,0,1,1,1-1A1,1,0,0,1,63.281,134.732Zm0-1.633a.632.632,0,1,0,.632.632A.634.634,0,0,0,63.281,133.1Z" transform="translate(-60.148 -130.635)" fill="url(#linear-gradient-25)"/>
    </g>
    <g id="Group_5624" data-name="Group 5624" transform="translate(4.104 1.697)">
      <path id="Path_24765-8" data-name="Path 24765" d="M58.6,133.829a3.113,3.113,0,0,1,.248-3.35l-.032-.016c-.074,0-.284-.021-.348-.153-.037-.09,0-.19.105-.306l.021-.021.8-.074.026.026.09.09h0l.037.037h0c.042.053.042.068.016.095-.011.084-.021.379-.032.643v.026s-.084.174-.221.2a.274.274,0,0,1-.232-.084l-.021-.032-.095-.3a2.924,2.924,0,0,0-.227,3.134l-.132.09Zm.6-2.992s.053.037.079.032.079-.063.095-.095c.016-.369.021-.548.032-.637l-.068-.068-.664.058c-.053.063-.063.1-.058.116.016.032.126.058.216.058h.037l.211.105-.016.026h0l.132.406Z" transform="translate(-58.234 -129.301)" fill="url(#linear-gradient-17)"/>
      <path id="Path_24766-8" data-name="Path 24766" d="M65.156,129.983a.082.082,0,0,1-.032-.016c-.084,0-.379-.005-.643,0h-.026s-.174-.074-.211-.211a.256.256,0,0,1,.074-.237l.032-.021.3-.111a2.923,2.923,0,0,0-3.14-.079l-.095-.126a3.108,3.108,0,0,1,3.361.09l.011-.032c0-.074,0-.29.137-.353.084-.042.19-.011.311.09l.021.021.111.79-.026.026c-.037.037-.063.068-.084.09l-.032.037h0a.1.1,0,0,1-.063.037Zm-.263-.179c.116,0,.195,0,.242.005l.063-.074-.09-.659c-.068-.053-.105-.058-.116-.053-.032.016-.053.132-.053.221v.016l-.09.232-.026-.016h0l-.4.153a.079.079,0,0,0-.026.079.187.187,0,0,0,.1.09h.4Z" transform="translate(-59.737 -128.752)" fill="url(#linear-gradient-18)"/>
      <path id="Path_24767-8" data-name="Path 24767" d="M67.821,135.81l-.026-.026s-.068-.063-.105-.1l-.079-.074.037-.042c.005-.084.011-.379.016-.643V134.9s.079-.174.216-.205a.251.251,0,0,1,.232.079l.021.032.105.3a2.929,2.929,0,0,0,.142-3.14l.126-.095a3.121,3.121,0,0,1-.158,3.361l.032.016c.079-.005.29.011.353.148.042.084.011.19-.095.311l-.021.021-.8.095Zm-.016-.232s.042.042.068.063l.659-.079c.053-.068.058-.105.053-.116-.016-.037-.137-.068-.221-.053h-.016l-.232-.095.016-.026h0l-.142-.4a.116.116,0,0,0-.079-.032c-.037.011-.074.063-.095.1,0,.369-.005.548-.016.637Z" transform="translate(-62.671 -130.228)" fill="url(#linear-gradient-19)"/>
      <path id="Path_24768-8" data-name="Path 24768" d="M62.049,139.564a3.792,3.792,0,0,1-1.833-.511l-.011.032c0,.074,0,.29-.137.353-.084.042-.19.016-.311-.09l-.021-.021-.116-.79.026-.026c.032-.037.063-.068.084-.09h0l.037-.042h0c.047-.042.063-.042.095-.021h.669s.179.074.211.211a.256.256,0,0,1-.074.237l-.032.021-.3.111a2.918,2.918,0,0,0,3.14.058l.1.126a2.678,2.678,0,0,1-1.528.442Zm-2.17-.316a.188.188,0,0,0,.116.053c.032-.016.053-.132.047-.221v-.016l.09-.237.026.016h0l.4-.153a.079.079,0,0,0,.026-.079.187.187,0,0,0-.1-.09c-.369.005-.548.011-.637,0l-.063.074.095.658Z" transform="translate(-58.89 -133.291)" fill="url(#linear-gradient-20)"/>
      <path id="Path_24769-8" data-name="Path 24769" d="M62.178,134.867a2.228,2.228,0,1,1,2.228-2.228A2.233,2.233,0,0,1,62.178,134.867Zm0-4.093a1.86,1.86,0,1,0,1.86,1.86A1.863,1.863,0,0,0,62.178,130.773Z" transform="translate(-59.046 -129.537)" fill="url(#linear-gradient-21)"/>
      <rect id="Rectangle_1941-8" data-name="Rectangle 1941" width="1.006" height="0.369" transform="translate(1.322 3.75) rotate(-25.42)" fill="url(#linear-gradient-22)"/>
      <rect id="Rectangle_1942-8" data-name="Rectangle 1942" width="0.369" height="1.006" transform="translate(2.919 1.197) rotate(-3.48)" fill="url(#linear-gradient-23)"/>
      <rect id="Rectangle_1943-8" data-name="Rectangle 1943" width="0.369" height="1.011" transform="translate(3.502 3.942) rotate(-35.13)" fill="url(#linear-gradient-24)"/>
      <path id="Path_24770-8" data-name="Path 24770" d="M63.281,134.732a1,1,0,1,1,1-1A1,1,0,0,1,63.281,134.732Zm0-1.633a.632.632,0,1,0,.632.632A.634.634,0,0,0,63.281,133.1Z" transform="translate(-60.148 -130.635)" fill="url(#linear-gradient-25)"/>
    </g>
    <path id="Path_24771" data-name="Path 24771" d="M65.621,145.43H58.06l1.042-1.84.327.188-.722,1.275h6.261l-.735-1.275.327-.188Z" transform="translate(-54.933 -133.336)" fill="url(#linear-gradient-89)"/>
    <path id="Path_27627" data-name="Path 27627" d="M65.621,145.43H58.06l1.042-1.84.327.188-.722,1.275h6.261l-.735-1.275.327-.188Z" transform="translate(-54.933 -133.336)" fill="url(#linear-gradient-89)"/>
    <path id="Path_27629" data-name="Path 27629" d="M65.621,145.43H58.06l1.042-1.84.327.188-.722,1.275h6.261l-.735-1.275.327-.188Z" transform="translate(-54.933 -133.336)" fill="url(#linear-gradient-89)"/>
    <path id="Path_27631" data-name="Path 27631" d="M65.621,145.43H58.06l1.042-1.84.327.188-.722,1.275h6.261l-.735-1.275.327-.188Z" transform="translate(-54.933 -133.336)" fill="url(#linear-gradient-89)"/>
    <path id="Path_27633" data-name="Path 27633" d="M65.621,145.43H58.06l1.042-1.84.327.188-.722,1.275h6.261l-.735-1.275.327-.188Z" transform="translate(-54.933 -133.336)" fill="url(#linear-gradient-89)"/>
    <path id="Path_27635" data-name="Path 27635" d="M65.621,145.43H58.06l1.042-1.84.327.188-.722,1.275h6.261l-.735-1.275.327-.188Z" transform="translate(-54.933 -133.336)" fill="url(#linear-gradient-89)"/>
    <path id="Path_27637" data-name="Path 27637" d="M65.621,145.43H58.06l1.042-1.84.327.188-.722,1.275h6.261l-.735-1.275.327-.188Z" transform="translate(-54.933 -133.336)" fill="url(#linear-gradient-89)"/>
    <path id="Path_27639" data-name="Path 27639" d="M65.621,145.43H58.06l1.042-1.84.327.188-.722,1.275h6.261l-.735-1.275.327-.188Z" transform="translate(-54.933 -133.336)" fill="url(#linear-gradient-89)"/>
  </g>
</svg>
