<svg xmlns="http://www.w3.org/2000/svg" xmlns:xlink="http://www.w3.org/1999/xlink" width="14.835" height="14.835" viewBox="0 0 14.835 14.835">
  <defs>
    <linearGradient id="linear-gradient" y1="0.5" x2="0.999" y2="0.5" gradientUnits="objectBoundingBox">
      <stop offset="0" stop-color="#55bf9b"/>
      <stop offset="0.33" stop-color="#2dacb1"/>
      <stop offset="0.74" stop-color="#2986c1"/>
      <stop offset="1" stop-color="#3b67b1"/>
    </linearGradient>
    <linearGradient id="linear-gradient-2" x1="0" y1="0.5" x2="0.999" y2="0.5" xlink:href="#linear-gradient"/>
    <linearGradient id="linear-gradient-3" x1="0" y1="0.5" x2="0.994" y2="0.5" xlink:href="#linear-gradient"/>
    <linearGradient id="linear-gradient-4" x1="0" y1="0.5" x2="0.997" y2="0.5" xlink:href="#linear-gradient"/>
    <linearGradient id="linear-gradient-5" x1="0" y1="0.503" x2="1" y2="0.503" xlink:href="#linear-gradient"/>
    <linearGradient id="linear-gradient-6" x1="0" y1="0.522" x2="0.982" y2="0.522" xlink:href="#linear-gradient"/>
    <linearGradient id="linear-gradient-12" x1="0" y1="0.478" x2="0.982" y2="0.478" xlink:href="#linear-gradient"/>
    <linearGradient id="linear-gradient-15" x1="0" y1="0.5" x2="1" y2="0.5" xlink:href="#linear-gradient"/>
    <linearGradient id="linear-gradient-18" x1="0" y1="0.5" x2="0.997" y2="0.5" xlink:href="#linear-gradient"/>
    <linearGradient id="linear-gradient-20" x1="0" y1="0.5" x2="1.005" y2="0.5" xlink:href="#linear-gradient"/>
    <linearGradient id="linear-gradient-21" x1="0" y1="0.493" x2="1" y2="0.493" xlink:href="#linear-gradient"/>
    <linearGradient id="linear-gradient-22" x1="0" y1="0.497" x2="0.996" y2="0.497" xlink:href="#linear-gradient"/>
    <linearGradient id="linear-gradient-23" x1="76.607" y1="138.161" x2="77.627" y2="138.161" xlink:href="#linear-gradient"/>
    <linearGradient id="linear-gradient-24" x1="5.7" y1="-3.476" x2="7.3" y2="-4.238" xlink:href="#linear-gradient"/>
  </defs>
  <g id="Group_6292" data-name="Group 6292" transform="translate(-1013 -542.613)">
    <path id="Path_25823" data-name="Path 25823" d="M183.709,60.718a3.759,3.759,0,1,1,3.759-3.759A3.765,3.765,0,0,1,183.709,60.718Zm0-7.144a3.394,3.394,0,1,0,3.394,3.394A3.4,3.4,0,0,0,183.709,53.574Z" transform="translate(836.708 493.072)" fill="url(#linear-gradient)"/>
    <path id="Path_25824" data-name="Path 25824" d="M183.358,64.025a7.417,7.417,0,1,1,7.418-7.417A7.429,7.429,0,0,1,183.358,64.025Zm0-14.461a7.053,7.053,0,1,0,7.053,7.053A7.063,7.063,0,0,0,183.358,49.564Z" transform="translate(837.06 493.423)" fill="url(#linear-gradient-2)"/>
    <path id="Path_25825" data-name="Path 25825" d="M184.11,51.422l-.182-.027v-.739h-.447l.675-.675.776.721-.538.027.018.684h-.182l-.018-.858.283-.018-.328-.31-.237.237h.192v.091c0,.128.018.766,0,.867Z" transform="translate(836.399 493.354)" fill="url(#linear-gradient-3)"/>
    <path id="Path_25826" data-name="Path 25826" d="M179.4,58.5h-2.025v-.082H176.3V55.686h.356V55.23h1.925v.447H178.4v-.265h-1.56v.456h-.356v2.363h1.058l-.036-1,1.907-.018V58.5Zm-1.679-.182h1.5v-.921l-1.533.018.037.9Z" transform="translate(837.028 492.894)" fill="url(#linear-gradient-4)"/>
    <path id="Path_25827" data-name="Path 25827" d="M179.007,57.257h-.182V55.842H177.2V55.66h1.806Z" transform="translate(836.95 492.856)" fill="url(#linear-gradient-5)"/>
    <rect id="Rectangle_2353" data-name="Rectangle 2353" width="0.511" height="0.21" transform="translate(1013.73 548.918)" fill="url(#linear-gradient-6)"/>
    <rect id="Rectangle_2354" data-name="Rectangle 2354" width="0.511" height="0.21" transform="translate(1014.469 548.918)" fill="url(#linear-gradient-6)"/>
    <rect id="Rectangle_2355" data-name="Rectangle 2355" width="0.511" height="0.21" transform="translate(1015.153 548.918)" fill="url(#linear-gradient-6)"/>
    <rect id="Rectangle_2356" data-name="Rectangle 2356" width="0.511" height="0.21" transform="translate(1013.73 549.255)" fill="url(#linear-gradient-6)"/>
    <rect id="Rectangle_2357" data-name="Rectangle 2357" width="0.511" height="0.21" transform="translate(1014.469 549.255)" fill="url(#linear-gradient-6)"/>
    <rect id="Rectangle_2358" data-name="Rectangle 2358" width="0.511" height="0.21" transform="translate(1015.153 549.255)" fill="url(#linear-gradient-6)"/>
    <rect id="Rectangle_2359" data-name="Rectangle 2359" width="0.511" height="0.21" transform="translate(1013.73 549.647)" fill="url(#linear-gradient-12)"/>
    <rect id="Rectangle_2360" data-name="Rectangle 2360" width="0.511" height="0.21" transform="translate(1014.469 549.647)" fill="url(#linear-gradient-12)"/>
    <rect id="Rectangle_2361" data-name="Rectangle 2361" width="0.511" height="0.21" transform="translate(1015.153 549.647)" fill="url(#linear-gradient-12)"/>
    <path id="Path_25828" data-name="Path 25828" d="M188.97,57.912V55.23h1.3l.584.611v1.98l-1.889.091Zm.182-2.5v2.308l1.524-.073V55.914l-.484-.5h-1.049Z" transform="translate(835.918 492.894)" fill="url(#linear-gradient-15)"/>
    <path id="Path_25829" data-name="Path 25829" d="M190.868,56.226h-.675l-.073-.748.182-.018.055.584h.511Z" transform="translate(835.817 492.874)" fill="url(#linear-gradient-15)"/>
    <rect id="Rectangle_2362" data-name="Rectangle 2362" width="1.706" height="0.182" transform="translate(1024.979 549.666)" fill="url(#linear-gradient-15)"/>
    <path id="Path_25830" data-name="Path 25830" d="M185.588,63.82H182.34V61.831h.182V61.74H185.6v2.08Zm-3.066-.182h2.883V61.922h-2.883Z" transform="translate(836.499 492.323)" fill="url(#linear-gradient-18)"/>
    <path id="Path_25831" data-name="Path 25831" d="M183.34,64.62v-.392h.31v-.21h.182v.392h-.31v.027l1.2-.018h-.3l.009-.42.182.009v.228h.292v.374Z" transform="translate(836.412 492.125)" fill="url(#linear-gradient-15)"/>
    <path id="Path_25832" data-name="Path 25832" d="M182.94,52.666V51.38h1.971v1.232l-1.971.064Zm.192-1.1v.921l1.606-.046v-.867h-1.606Z" transform="translate(836.447 493.231)" fill="url(#linear-gradient-20)"/>
    <path id="Path_25833" data-name="Path 25833" d="M183.21,52.466V51.18h1.907v1.232l-1.907.064Zm.182-1.1v.921l1.542-.046v-.867h-1.542Z" transform="translate(836.423 493.249)" fill="url(#linear-gradient-21)"/>
    <g id="Group_4550" data-name="Group 4550" transform="translate(1019.14 544.712)">
      <path id="Path_25834" data-name="Path 25834" d="M182.77,51.59h1.971v1.186l-1.971.064Z" transform="translate(-182.679 -51.499)" fill="#0b0017"/>
      <path id="Path_25835" data-name="Path 25835" d="M182.67,52.922V51.49h2.162v1.369Zm.182-1.25V52.74l1.788-.055v-1h-1.788Z" transform="translate(-182.67 -51.49)" fill="url(#linear-gradient-22)"/>
    </g>
    <g id="Group_4551" data-name="Group 4551" transform="translate(1015.245 550.478)">
      <path id="Path_25836" data-name="Path 25836" d="M178.647,58.084a.142.142,0,0,1-.119-.073.127.127,0,0,1-.018-.1.146.146,0,0,1,.064-.082h0a.141.141,0,0,1,.137.246.172.172,0,0,1-.073.018Zm0-.182h-.027s-.018.018-.018.027v.036c0,.009.018.018.027.018h.036a.052.052,0,0,0,.018-.064C178.683,57.9,178.656,57.9,178.647,57.9Z" transform="translate(-178.409 -57.81)" fill="url(#linear-gradient-23)"/>
      <path id="Path_25837" data-name="Path 25837" d="M178.61,58.292V58.1h.091v.192Z" transform="translate(-178.418 -57.835)" fill="url(#linear-gradient-24)"/>
      <rect id="Rectangle_2363" data-name="Rectangle 2363" width="0.447" height="0.091" transform="translate(0 0.42)" fill="url(#linear-gradient-15)"/>
    </g>
    <path id="Path_25823-2" data-name="Path 25823" d="M183.709,60.718a3.759,3.759,0,1,1,3.759-3.759A3.765,3.765,0,0,1,183.709,60.718Zm0-7.144a3.394,3.394,0,1,0,3.394,3.394A3.4,3.4,0,0,0,183.709,53.574Z" transform="translate(836.708 493.072)" fill="url(#linear-gradient)"/>
    <path id="Path_25824-2" data-name="Path 25824" d="M183.358,64.025a7.417,7.417,0,1,1,7.418-7.417A7.429,7.429,0,0,1,183.358,64.025Zm0-14.461a7.053,7.053,0,1,0,7.053,7.053A7.063,7.063,0,0,0,183.358,49.564Z" transform="translate(837.06 493.423)" fill="url(#linear-gradient-2)"/>
    <path id="Path_25825-2" data-name="Path 25825" d="M184.11,51.422l-.182-.027v-.739h-.447l.675-.675.776.721-.538.027.018.684h-.182l-.018-.858.283-.018-.328-.31-.237.237h.192v.091c0,.128.018.766,0,.867Z" transform="translate(836.399 493.354)" fill="url(#linear-gradient-3)"/>
    <path id="Path_25826-2" data-name="Path 25826" d="M179.4,58.5h-2.025v-.082H176.3V55.686h.356V55.23h1.925v.447H178.4v-.265h-1.56v.456h-.356v2.363h1.058l-.036-1,1.907-.018V58.5Zm-1.679-.182h1.5v-.921l-1.533.018.037.9Z" transform="translate(837.028 492.894)" fill="url(#linear-gradient-4)"/>
    <path id="Path_25827-2" data-name="Path 25827" d="M179.007,57.257h-.182V55.842H177.2V55.66h1.806Z" transform="translate(836.95 492.856)" fill="url(#linear-gradient-5)"/>
    <rect id="Rectangle_2353-2" data-name="Rectangle 2353" width="0.511" height="0.21" transform="translate(1013.73 548.918)" fill="url(#linear-gradient-6)"/>
    <rect id="Rectangle_2354-2" data-name="Rectangle 2354" width="0.511" height="0.21" transform="translate(1014.469 548.918)" fill="url(#linear-gradient-6)"/>
    <rect id="Rectangle_2355-2" data-name="Rectangle 2355" width="0.511" height="0.21" transform="translate(1015.153 548.918)" fill="url(#linear-gradient-6)"/>
    <rect id="Rectangle_2356-2" data-name="Rectangle 2356" width="0.511" height="0.21" transform="translate(1013.73 549.255)" fill="url(#linear-gradient-6)"/>
    <rect id="Rectangle_2357-2" data-name="Rectangle 2357" width="0.511" height="0.21" transform="translate(1014.469 549.255)" fill="url(#linear-gradient-6)"/>
    <rect id="Rectangle_2358-2" data-name="Rectangle 2358" width="0.511" height="0.21" transform="translate(1015.153 549.255)" fill="url(#linear-gradient-6)"/>
    <rect id="Rectangle_2359-2" data-name="Rectangle 2359" width="0.511" height="0.21" transform="translate(1013.73 549.647)" fill="url(#linear-gradient-12)"/>
    <rect id="Rectangle_2360-2" data-name="Rectangle 2360" width="0.511" height="0.21" transform="translate(1014.469 549.647)" fill="url(#linear-gradient-12)"/>
    <rect id="Rectangle_2361-2" data-name="Rectangle 2361" width="0.511" height="0.21" transform="translate(1015.153 549.647)" fill="url(#linear-gradient-12)"/>
    <path id="Path_25828-2" data-name="Path 25828" d="M188.97,57.912V55.23h1.3l.584.611v1.98l-1.889.091Zm.182-2.5v2.308l1.524-.073V55.914l-.484-.5h-1.049Z" transform="translate(835.918 492.894)" fill="url(#linear-gradient-15)"/>
    <path id="Path_25829-2" data-name="Path 25829" d="M190.868,56.226h-.675l-.073-.748.182-.018.055.584h.511Z" transform="translate(835.817 492.874)" fill="url(#linear-gradient-15)"/>
    <rect id="Rectangle_2362-2" data-name="Rectangle 2362" width="1.706" height="0.182" transform="translate(1024.979 549.666)" fill="url(#linear-gradient-15)"/>
    <path id="Path_25830-2" data-name="Path 25830" d="M185.588,63.82H182.34V61.831h.182V61.74H185.6v2.08Zm-3.066-.182h2.883V61.922h-2.883Z" transform="translate(836.499 492.323)" fill="url(#linear-gradient-18)"/>
    <path id="Path_25831-2" data-name="Path 25831" d="M183.34,64.62v-.392h.31v-.21h.182v.392h-.31v.027l1.2-.018h-.3l.009-.42.182.009v.228h.292v.374Z" transform="translate(836.412 492.125)" fill="url(#linear-gradient-15)"/>
    <text id="ECM" transform="translate(1018 551)" fill="#fff" font-size="2" font-family="ArialMT, Arial"><tspan x="0" y="0">ECM</tspan></text>
    <path id="Path_25832-2" data-name="Path 25832" d="M182.94,52.666V51.38h1.971v1.232l-1.971.064Zm.192-1.1v.921l1.606-.046v-.867h-1.606Z" transform="translate(836.447 493.231)" fill="url(#linear-gradient-20)"/>
    <path id="Path_25833-2" data-name="Path 25833" d="M183.21,52.466V51.18h1.907v1.232l-1.907.064Zm.182-1.1v.921l1.542-.046v-.867h-1.542Z" transform="translate(836.423 493.249)" fill="url(#linear-gradient-21)"/>
    <g id="Group_4550-2" data-name="Group 4550" transform="translate(1019.14 544.712)">
      <path id="Path_25834-2" data-name="Path 25834" d="M182.77,51.59h1.971v1.186l-1.971.064Z" transform="translate(-182.679 -51.499)" fill="#0b0017"/>
      <path id="Path_25835-2" data-name="Path 25835" d="M182.67,52.922V51.49h2.162v1.369Zm.182-1.25V52.74l1.788-.055v-1h-1.788Z" transform="translate(-182.67 -51.49)" fill="url(#linear-gradient-22)"/>
    </g>
    <g id="Group_4551-2" data-name="Group 4551" transform="translate(1015.245 550.478)">
      <path id="Path_25836-2" data-name="Path 25836" d="M178.647,58.084a.142.142,0,0,1-.119-.073.127.127,0,0,1-.018-.1.146.146,0,0,1,.064-.082h0a.141.141,0,0,1,.137.246.172.172,0,0,1-.073.018Zm0-.182h-.027s-.018.018-.018.027v.036c0,.009.018.018.027.018h.036a.052.052,0,0,0,.018-.064C178.683,57.9,178.656,57.9,178.647,57.9Z" transform="translate(-178.409 -57.81)" fill="url(#linear-gradient-23)"/>
      <path id="Path_25837-2" data-name="Path 25837" d="M178.61,58.292V58.1h.091v.192Z" transform="translate(-178.418 -57.835)" fill="url(#linear-gradient-24)"/>
      <rect id="Rectangle_2363-2" data-name="Rectangle 2363" width="0.447" height="0.091" transform="translate(0 0.42)" fill="url(#linear-gradient-15)"/>
    </g>
  </g>
</svg>
