<svg xmlns="http://www.w3.org/2000/svg" xmlns:xlink="http://www.w3.org/1999/xlink" width="14" height="15.394" viewBox="0 0 14 15.394">
  <defs>
    <linearGradient id="linear-gradient" x1="-0.001" y1="0.5" x2="0.992" y2="0.5" gradientUnits="objectBoundingBox">
      <stop offset="0" stop-color="#55bf9b"/>
      <stop offset="0.33" stop-color="#2dacb1"/>
      <stop offset="0.74" stop-color="#2986c1"/>
      <stop offset="1" stop-color="#3b67b1"/>
    </linearGradient>
    <linearGradient id="linear-gradient-2" x1="0" y1="0.5" x2="0.996" y2="0.5" xlink:href="#linear-gradient"/>
    <linearGradient id="linear-gradient-4" x1="0" y1="0.5" x2="1.001" y2="0.5" xlink:href="#linear-gradient"/>
    <linearGradient id="linear-gradient-5" x1="-0.001" y1="0.499" x2="1" y2="0.499" xlink:href="#linear-gradient"/>
    <linearGradient id="linear-gradient-6" x1="0" y1="0.499" x2="1.005" y2="0.499" xlink:href="#linear-gradient"/>
  </defs>
  <g id="Group_6291" data-name="Group 6291" transform="translate(-1013 -498)">
    <g id="Group_4640" data-name="Group 4640" transform="translate(1013 498)">
      <g id="Group_4639" data-name="Group 4639" transform="translate(5.257 4.373)">
        <path id="Path_26027" data-name="Path 26027" d="M164.34,56a1.47,1.47,0,0,1-.96-.375A2.58,2.58,0,0,1,163.1,51.9a1.811,1.811,0,0,1,2.389-.023l-.293.363a1.385,1.385,0,0,0-1.757-.012,2.1,2.1,0,0,0,.269,3.057h0a1.041,1.041,0,0,0,.7.246,1.162,1.162,0,0,0,.761-.457l.363.3a1.555,1.555,0,0,1-1.089.621h-.082Z" transform="translate(-162.068 -51.429)" fill="url(#linear-gradient)"/>
        <rect id="Rectangle_2428" data-name="Rectangle 2428" width="2.904" height="0.468" transform="translate(0 2.413)" fill="url(#linear-gradient-2)"/>
        <rect id="Rectangle_2429" data-name="Rectangle 2429" width="2.904" height="0.468" transform="translate(0 1.582)" fill="url(#linear-gradient-2)"/>
      </g>
      <path id="Path_26044" data-name="Path 26044" d="M164.152,58.413a4.392,4.392,0,1,1,4.392-4.392A4.393,4.393,0,0,1,164.152,58.413Zm0-7.964a3.572,3.572,0,1,0,3.572,3.572A3.579,3.579,0,0,0,164.152,50.45Z" transform="translate(-157.267 -47.364)" fill="url(#linear-gradient-4)"/>
      <path id="Path_26045" data-name="Path 26045" d="M162.186,61.2a4.02,4.02,0,0,1-2.881-1.593c-.059-.07-4.556-5.621,1.44-10.856.105-.07,5.071-3.01,9.041,1.218a7.582,7.582,0,0,1,.586,9.17l-.7-.422c2.8-4.755-.34-8.057-.468-8.186a6.4,6.4,0,0,0-7.964-1.124c-5.34,4.661-1.476,9.463-1.312,9.662a3.127,3.127,0,0,0,2.436,1.312,2.768,2.768,0,0,0,1.8-1.253l.7.422a3.541,3.541,0,0,1-2.413,1.651c-.082,0-.176.012-.258.012Z" transform="translate(-157.631 -47.695)" fill="url(#linear-gradient-5)"/>
      <path id="Path_26046" data-name="Path 26046" d="M166.26,61.48a.4.4,0,0,1-.246-.082.635.635,0,0,1-.129-.48v-.035l.89-.808-.574-.5-.761.761h-.035a.346.346,0,0,1-.3-.07.757.757,0,0,1-.211-.5V59.7l.761-.714-.281-.3,1.534-1.534,1.148.141.328-.246.141.187-.4.3-1.136-.141-1.3,1.3.281.3-.855.785a.5.5,0,0,0,.117.281.133.133,0,0,0,.094.035l.855-.855.937.831L166.108,61c0,.07,0,.187.059.234a.161.161,0,0,0,.141.023l.984-.96.433.246,1.183-1.5-.164-1.3.141-.269-.363-.246.129-.2.527.363-.2.4.164,1.323-.035.035-1.347,1.7-.457-.258-.9.878h-.035a.829.829,0,0,1-.141.023Z" transform="translate(-156.389 -46.098)" fill="url(#linear-gradient-6)"/>
    </g>
    <g id="Group_6289" data-name="Group 6289" transform="translate(1013 498)">
      <g id="Group_4639-2" data-name="Group 4639" transform="translate(5.257 4.373)">
        <path id="Path_26027-2" data-name="Path 26027" d="M164.34,56a1.47,1.47,0,0,1-.96-.375A2.58,2.58,0,0,1,163.1,51.9a1.811,1.811,0,0,1,2.389-.023l-.293.363a1.385,1.385,0,0,0-1.757-.012,2.1,2.1,0,0,0,.269,3.057h0a1.041,1.041,0,0,0,.7.246,1.162,1.162,0,0,0,.761-.457l.363.3a1.555,1.555,0,0,1-1.089.621h-.082Z" transform="translate(-162.068 -51.429)" fill="url(#linear-gradient)"/>
        <rect id="Rectangle_2428-2" data-name="Rectangle 2428" width="2.904" height="0.468" transform="translate(0 2.413)" fill="url(#linear-gradient-2)"/>
        <rect id="Rectangle_2429-2" data-name="Rectangle 2429" width="2.904" height="0.468" transform="translate(0 1.582)" fill="url(#linear-gradient-2)"/>
      </g>
      <path id="Path_26044-2" data-name="Path 26044" d="M164.152,58.413a4.392,4.392,0,1,1,4.392-4.392A4.393,4.393,0,0,1,164.152,58.413Zm0-7.964a3.572,3.572,0,1,0,3.572,3.572A3.579,3.579,0,0,0,164.152,50.45Z" transform="translate(-157.267 -47.364)" fill="url(#linear-gradient-4)"/>
      <path id="Path_26045-2" data-name="Path 26045" d="M162.186,61.2a4.02,4.02,0,0,1-2.881-1.593c-.059-.07-4.556-5.621,1.44-10.856.105-.07,5.071-3.01,9.041,1.218a7.582,7.582,0,0,1,.586,9.17l-.7-.422c2.8-4.755-.34-8.057-.468-8.186a6.4,6.4,0,0,0-7.964-1.124c-5.34,4.661-1.476,9.463-1.312,9.662a3.127,3.127,0,0,0,2.436,1.312,2.768,2.768,0,0,0,1.8-1.253l.7.422a3.541,3.541,0,0,1-2.413,1.651c-.082,0-.176.012-.258.012Z" transform="translate(-157.631 -47.695)" fill="url(#linear-gradient-5)"/>
      <path id="Path_26046-2" data-name="Path 26046" d="M166.26,61.48a.4.4,0,0,1-.246-.082.635.635,0,0,1-.129-.48v-.035l.89-.808-.574-.5-.761.761h-.035a.346.346,0,0,1-.3-.07.757.757,0,0,1-.211-.5V59.7l.761-.714-.281-.3,1.534-1.534,1.148.141.328-.246.141.187-.4.3-1.136-.141-1.3,1.3.281.3-.855.785a.5.5,0,0,0,.117.281.133.133,0,0,0,.094.035l.855-.855.937.831L166.108,61c0,.07,0,.187.059.234a.161.161,0,0,0,.141.023l.984-.96.433.246,1.183-1.5-.164-1.3.141-.269-.363-.246.129-.2.527.363-.2.4.164,1.323-.035.035-1.347,1.7-.457-.258-.9.878h-.035a.829.829,0,0,1-.141.023Z" transform="translate(-156.389 -46.098)" fill="url(#linear-gradient-6)"/>
    </g>
    <g id="Group_6290" data-name="Group 6290" transform="translate(1013 498)">
      <g id="Group_4639-3" data-name="Group 4639" transform="translate(5.257 4.373)">
        <path id="Path_26027-3" data-name="Path 26027" d="M164.34,56a1.47,1.47,0,0,1-.96-.375A2.58,2.58,0,0,1,163.1,51.9a1.811,1.811,0,0,1,2.389-.023l-.293.363a1.385,1.385,0,0,0-1.757-.012,2.1,2.1,0,0,0,.269,3.057h0a1.041,1.041,0,0,0,.7.246,1.162,1.162,0,0,0,.761-.457l.363.3a1.555,1.555,0,0,1-1.089.621h-.082Z" transform="translate(-162.068 -51.429)" fill="url(#linear-gradient)"/>
        <rect id="Rectangle_2428-3" data-name="Rectangle 2428" width="2.904" height="0.468" transform="translate(0 2.413)" fill="url(#linear-gradient-2)"/>
        <rect id="Rectangle_2429-3" data-name="Rectangle 2429" width="2.904" height="0.468" transform="translate(0 1.582)" fill="url(#linear-gradient-2)"/>
      </g>
      <path id="Path_26044-3" data-name="Path 26044" d="M164.152,58.413a4.392,4.392,0,1,1,4.392-4.392A4.393,4.393,0,0,1,164.152,58.413Zm0-7.964a3.572,3.572,0,1,0,3.572,3.572A3.579,3.579,0,0,0,164.152,50.45Z" transform="translate(-157.267 -47.364)" fill="url(#linear-gradient-4)"/>
      <path id="Path_26045-3" data-name="Path 26045" d="M162.186,61.2a4.02,4.02,0,0,1-2.881-1.593c-.059-.07-4.556-5.621,1.44-10.856.105-.07,5.071-3.01,9.041,1.218a7.582,7.582,0,0,1,.586,9.17l-.7-.422c2.8-4.755-.34-8.057-.468-8.186a6.4,6.4,0,0,0-7.964-1.124c-5.34,4.661-1.476,9.463-1.312,9.662a3.127,3.127,0,0,0,2.436,1.312,2.768,2.768,0,0,0,1.8-1.253l.7.422a3.541,3.541,0,0,1-2.413,1.651c-.082,0-.176.012-.258.012Z" transform="translate(-157.631 -47.695)" fill="url(#linear-gradient-5)"/>
      <path id="Path_26046-3" data-name="Path 26046" d="M166.26,61.48a.4.4,0,0,1-.246-.082.635.635,0,0,1-.129-.48v-.035l.89-.808-.574-.5-.761.761h-.035a.346.346,0,0,1-.3-.07.757.757,0,0,1-.211-.5V59.7l.761-.714-.281-.3,1.534-1.534,1.148.141.328-.246.141.187-.4.3-1.136-.141-1.3,1.3.281.3-.855.785a.5.5,0,0,0,.117.281.133.133,0,0,0,.094.035l.855-.855.937.831L166.108,61c0,.07,0,.187.059.234a.161.161,0,0,0,.141.023l.984-.96.433.246,1.183-1.5-.164-1.3.141-.269-.363-.246.129-.2.527.363-.2.4.164,1.323-.035.035-1.347,1.7-.457-.258-.9.878h-.035a.829.829,0,0,1-.141.023Z" transform="translate(-156.389 -46.098)" fill="url(#linear-gradient-6)"/>
    </g>
  </g>
</svg>
