<svg xmlns="http://www.w3.org/2000/svg" xmlns:xlink="http://www.w3.org/1999/xlink" width="25.147" height="22.941" viewBox="0 0 25.147 22.941">
  <defs>
    <linearGradient id="linear-gradient" x1="0.5" x2="0.5" y2="1" gradientUnits="objectBoundingBox">
      <stop offset="0" stop-color="#33d4a3"/>
      <stop offset="0.304" stop-color="#2dacb1"/>
      <stop offset="1" stop-color="#2986c0"/>
      <stop offset="1" stop-color="#2466cf"/>
    </linearGradient>
  </defs>
  <path id="developer_board_24dp_5F6368_FILL0_wght200_GRAD0_opsz24" d="M131.546-777.059a2.244,2.244,0,0,1-1.653-.663,2.244,2.244,0,0,1-.663-1.653v-18.308a2.243,2.243,0,0,1,.663-1.653,2.244,2.244,0,0,1,1.653-.663h18.309a2.243,2.243,0,0,1,1.653.663,2.244,2.244,0,0,1,.663,1.653v3.088h2.206v1.434h-2.206v3.915h2.206v1.434h-2.206v3.915h2.206v1.434h-2.206v3.088a2.244,2.244,0,0,1-.663,1.653,2.244,2.244,0,0,1-1.653.663Zm0-1.434h18.309a.843.843,0,0,0,.607-.276.844.844,0,0,0,.276-.607v-18.308a.843.843,0,0,0-.276-.607.843.843,0,0,0-.607-.276H131.546a.844.844,0,0,0-.607.276.843.843,0,0,0-.276.607v18.308a.844.844,0,0,0,.276.607A.844.844,0,0,0,131.546-778.493Zm3.088-3.97h5.79v-4.357h-5.79Zm7.776-9.209h4.357V-794.6H142.41Zm-7.776,2.868h5.79v-5.79h-5.79Zm7.776,6.342h4.357v-7.224H142.41Zm-11.746-16.1v0Z" transform="translate(-129.23 800)" fill="url(#linear-gradient)"/>
</svg>
