<svg id="Group_6875" data-name="Group 6875" xmlns="http://www.w3.org/2000/svg" width="52.541" height="52.543" viewBox="0 0 52.541 52.543">
  <path id="Path_28202" data-name="Path 28202" d="M1033.7,806.672a26.27,26.27,0,1,1-26.269-26.271A26.268,26.268,0,0,1,1033.7,806.672Z" transform="translate(-981.16 -780.4)" fill="#ffcf36"/>
  <path id="Path_28203" data-name="Path 28203" d="M1060.622,908.145a1.822,1.822,0,0,0-1.594-1.81,71,71,0,0,0-13.293-1.175h0a70.978,70.978,0,0,0-13.29,1.175,1.818,1.818,0,0,0-1.594,1.81c0,6.367,4.915,12.777,14.885,12.777h0C1055.708,920.922,1060.622,914.512,1060.622,908.145Z" transform="translate(-1019.466 -876.577)" fill="#844b00"/>
  <path id="Path_28204" data-name="Path 28204" d="M1038.508,852.805c-1.629-4.474-4.08-6.715-6.534-6.715s-4.905,2.241-6.532,6.715c-.16.451.678,1.265,1.1.823a7.5,7.5,0,0,1,10.869,0c.419.442,1.258-.371,1.1-.823Z" transform="translate(-1015.282 -831.04)" fill="#844b00"/>
  <path id="Path_28205" data-name="Path 28205" d="M1122.1,852.805c-1.629-4.474-4.08-6.715-6.534-6.715s-4.905,2.241-6.534,6.715c-.16.451.678,1.265,1.1.823a7.5,7.5,0,0,1,10.871,0c.419.442,1.258-.371,1.1-.823Z" transform="translate(-1079.721 -831.04)" fill="#844b00"/>
  <path id="Path_28206" data-name="Path 28206" d="M1065.681,916.1a70.01,70.01,0,0,0-22.228,0c-1.134.19-1.2.651-1.123,1.3.048.387.119.854.232,1.359.124.561.229.82,1.109.715,1.682-.2,20.113-.2,21.792,0,.88.1.985-.156,1.109-.715a13.694,13.694,0,0,0,.232-1.359c.078-.653.009-1.111-1.125-1.3Z" transform="translate(-1028.298 -884.325)" fill="#fff"/>
  <path id="Path_28207" data-name="Path 28207" d="M1033.7,806.672a26.27,26.27,0,1,1-26.269-26.271A26.268,26.268,0,0,1,1033.7,806.672Z" transform="translate(-981.16 -780.4)" fill="#ffcf36"/>
  <path id="Path_28208" data-name="Path 28208" d="M1060.622,908.145a1.822,1.822,0,0,0-1.594-1.81,71,71,0,0,0-13.293-1.175h0a70.978,70.978,0,0,0-13.29,1.175,1.818,1.818,0,0,0-1.594,1.81c0,6.367,4.915,12.777,14.885,12.777h0C1055.708,920.922,1060.622,914.512,1060.622,908.145Z" transform="translate(-1019.466 -876.577)" fill="#844b00"/>
  <path id="Path_28209" data-name="Path 28209" d="M1038.508,852.805c-1.629-4.474-4.08-6.715-6.534-6.715s-4.905,2.241-6.532,6.715c-.16.451.678,1.265,1.1.823a7.5,7.5,0,0,1,10.869,0c.419.442,1.258-.371,1.1-.823Z" transform="translate(-1015.282 -831.04)" fill="#844b00"/>
  <path id="Path_28210" data-name="Path 28210" d="M1122.1,852.805c-1.629-4.474-4.08-6.715-6.534-6.715s-4.905,2.241-6.534,6.715c-.16.451.678,1.265,1.1.823a7.5,7.5,0,0,1,10.871,0c.419.442,1.258-.371,1.1-.823Z" transform="translate(-1079.721 -831.04)" fill="#844b00"/>
  <path id="Path_28211" data-name="Path 28211" d="M1065.681,916.1a70.01,70.01,0,0,0-22.228,0c-1.134.19-1.2.651-1.123,1.3.048.387.119.854.232,1.359.124.561.222.715,1.109.715h21.792c.884,0,.985-.156,1.109-.715a13.694,13.694,0,0,0,.232-1.359c.078-.653.009-1.111-1.125-1.3Z" transform="translate(-1028.298 -884.325)" fill="#fff"/>
</svg>
