<svg xmlns="http://www.w3.org/2000/svg" xmlns:xlink="http://www.w3.org/1999/xlink" width="14" height="14.167" viewBox="0 0 14 14.167">
  <defs>
    <linearGradient id="linear-gradient" y1="0.5" x2="1" y2="0.5" gradientUnits="objectBoundingBox">
      <stop offset="0" stop-color="#54be9a"/>
      <stop offset="0.33" stop-color="#2cabb0"/>
      <stop offset="0.74" stop-color="#2785c0"/>
      <stop offset="1" stop-color="#3a67b0"/>
    </linearGradient>
    <linearGradient id="linear-gradient-2" x1="0" y1="0.5" x2="1" y2="0.5" xlink:href="#linear-gradient"/>
    <linearGradient id="linear-gradient-3" x1="0.002" y1="0.491" x2="1.007" y2="0.491" xlink:href="#linear-gradient"/>
    <linearGradient id="linear-gradient-4" x1="0" y1="0.503" x2="1" y2="0.503" xlink:href="#linear-gradient"/>
    <linearGradient id="linear-gradient-5" x1="0" y1="0.501" x2="0.997" y2="0.501" xlink:href="#linear-gradient"/>
    <linearGradient id="linear-gradient-6" x1="0" y1="0.497" x2="0.999" y2="0.497" xlink:href="#linear-gradient"/>
    <linearGradient id="linear-gradient-7" x1="0.002" y1="0.499" x2="1" y2="0.499" xlink:href="#linear-gradient"/>
    <linearGradient id="linear-gradient-8" x1="0" y1="0.5" x2="1" y2="0.5" xlink:href="#linear-gradient"/>
    <linearGradient id="linear-gradient-9" x1="-0.002" y1="0.5" x2="0.997" y2="0.5" xlink:href="#linear-gradient"/>
  </defs>
  <g id="Group_6377" data-name="Group 6377" transform="translate(-14 -401)">
    <g id="Group_5286" data-name="Group 5286" transform="translate(14 401)">
      <g id="Group_5283" data-name="Group 5283" transform="translate(0 0)">
        <g id="Group_4171" data-name="Group 4171" opacity="0.64">
          <path id="Path_24909" data-name="Path 24909" d="M181.457,45.756a1.922,1.922,0,0,1-.225-.009c-1.077-.095-8.555,0-8.632,0h-.032l-.027-.009a1.5,1.5,0,0,1-1.181-1.357V42.52h11.733v.221c.014.284.045,1.713,0,1.974a1.578,1.578,0,0,1-1.636,1.041Zm-2.957-.5c1.294,0,2.393.009,2.772.045a1.23,1.23,0,0,0,1.379-.658c.027-.149.014-1.028,0-1.668h-10.84v1.411c0,.627.672.865.816.91.4,0,3.475-.045,5.873-.045Z" transform="translate(-170.224 -42.52)" fill="url(#linear-gradient)"/>
          <path id="Path_24910" data-name="Path 24910" d="M182.156,51.178a.979.979,0,0,1-.2-.014c-.766-.068-6.193,0-6.247,0h-.032l-.027-.009a1.154,1.154,0,0,1-.9-1.046V48.69h8.713v.221a10.66,10.66,0,0,1-.068,1.42l-.018.072a1.344,1.344,0,0,1-1.217.771Zm-2.168-.5c.942,0,1.744.009,2.019.032a.9.9,0,0,0,.942-.473,10.012,10.012,0,0,0,.063-1.1H175.2v.969c0,.406.428.568.541.6.329,0,2.524-.032,4.25-.032Z" transform="translate(-172.086 -45.909)" fill="url(#linear-gradient-2)"/>
          <path id="Path_24911" data-name="Path 24911" d="M173.349,55.641a.6.6,0,0,1-.428-.162.774.774,0,0,1-.2-.559l.451.018a.361.361,0,0,0,.068.221c.009.009.041.041.14.036l.032.451h-.059Z" transform="translate(-170.969 -49.331)" fill="url(#linear-gradient-3)"/>
          <path id="Path_24912" data-name="Path 24912" d="M194.481,55.686h-.041l.032-.451c.041,0,.194-.014.252-.275l.442.095a.717.717,0,0,1-.685.627Z" transform="translate(-182.901 -49.353)" fill="url(#linear-gradient-4)"/>
          <path id="Path_24913" data-name="Path 24913" d="M172.295,56.334a1.268,1.268,0,0,1-1.086-.595c-.207-.307-.406-.9-.316-1.059l.2.108.225-.014a1.589,1.589,0,0,0,.473.933.839.839,0,0,0,.667.162l.063.446a1.873,1.873,0,0,1-.221.014Z" transform="translate(-169.955 -49.199)" fill="url(#linear-gradient-5)"/>
          <path id="Path_24914" data-name="Path 24914" d="M194.363,56.415a.268.268,0,0,1-.113-.018l.1-.2-.014-.225a1.589,1.589,0,0,0,.933-.473.85.85,0,0,0,.162-.672l.446-.059a1.293,1.293,0,0,1-.559,1.294,2.123,2.123,0,0,1-.96.356Z" transform="translate(-182.797 -49.248)" fill="url(#linear-gradient-6)"/>
          <path id="Path_24915" data-name="Path 24915" d="M171.269,57.373h-.023a2.424,2.424,0,0,1-2.407-2.443h.451a1.978,1.978,0,0,0,1.961,2h.1l.023.451h-.1Z" transform="translate(-168.84 -49.336)" fill="url(#linear-gradient-7)"/>
          <path id="Path_24916" data-name="Path 24916" d="M194.5,57.353h-.018V56.9h.018a1.977,1.977,0,0,0,1.974-1.961v-.1l.451-.018v.126a2.424,2.424,0,0,1-2.42,2.407Z" transform="translate(-182.923 -49.276)" fill="url(#linear-gradient-8)"/>
          <path id="Path_24917" data-name="Path 24917" d="M181.066,64.42a3.852,3.852,0,0,1-1.154-.176h0l-.059-.023a.717.717,0,0,1-.09-.041l-.023-.009a.78.78,0,0,1-.14-.063l-.018-.009h0a3.113,3.113,0,0,1-1.212-1.65h0a2.849,2.849,0,0,1,.929-2.362,2.911,2.911,0,0,0,.847-2.84l-.09-.649.509.491c.658.636,2.1,2.033,1.519,3.989a2.727,2.727,0,0,0,.415-1.51l-.059-.834.473.708c1.262,1.925,1.1,3.642-.437,4.71l-.05.027a3.931,3.931,0,0,1-1.348.239Zm-.978-.59a3.443,3.443,0,0,0,2.141-.059c1.42-1,1.212-2.366.636-3.493a1.821,1.821,0,0,1-1.221,1.618l-.5.14.239-.46a3.07,3.07,0,0,0-.744-3.759,3.21,3.21,0,0,1-1.014,2.578,2.407,2.407,0,0,0-.816,2.006c.095.27.5,1.158,1.091,1.357l.189.063v.009Zm-.446.014.149.1Z" transform="translate(-174.071 -50.254)" fill="url(#linear-gradient-9)"/>
        </g>
      </g>
      <g id="Group_5284" data-name="Group 5284" transform="translate(0 0)">
        <g id="Group_4171-2" data-name="Group 4171" opacity="0.64">
          <path id="Path_24909-2" data-name="Path 24909" d="M181.457,45.756a1.922,1.922,0,0,1-.225-.009c-1.077-.095-8.555,0-8.632,0h-.032l-.027-.009a1.5,1.5,0,0,1-1.181-1.357V42.52h11.733v.221c.014.284.045,1.713,0,1.974a1.578,1.578,0,0,1-1.636,1.041Zm-2.957-.5c1.294,0,2.393.009,2.772.045a1.23,1.23,0,0,0,1.379-.658c.027-.149.014-1.028,0-1.668h-10.84v1.411c0,.627.672.865.816.91.4,0,3.475-.045,5.873-.045Z" transform="translate(-170.224 -42.52)" fill="url(#linear-gradient)"/>
          <path id="Path_24910-2" data-name="Path 24910" d="M182.156,51.178a.979.979,0,0,1-.2-.014c-.766-.068-6.193,0-6.247,0h-.032l-.027-.009a1.154,1.154,0,0,1-.9-1.046V48.69h8.713v.221a10.66,10.66,0,0,1-.068,1.42l-.018.072a1.344,1.344,0,0,1-1.217.771Zm-2.168-.5c.942,0,1.744.009,2.019.032a.9.9,0,0,0,.942-.473,10.012,10.012,0,0,0,.063-1.1H175.2v.969c0,.406.428.568.541.6.329,0,2.524-.032,4.25-.032Z" transform="translate(-172.086 -45.909)" fill="url(#linear-gradient-2)"/>
          <path id="Path_24911-2" data-name="Path 24911" d="M173.349,55.641a.6.6,0,0,1-.428-.162.774.774,0,0,1-.2-.559l.451.018a.361.361,0,0,0,.068.221c.009.009.041.041.14.036l.032.451h-.059Z" transform="translate(-170.969 -49.331)" fill="url(#linear-gradient-3)"/>
          <path id="Path_24912-2" data-name="Path 24912" d="M194.481,55.686h-.041l.032-.451c.041,0,.194-.014.252-.275l.442.095a.717.717,0,0,1-.685.627Z" transform="translate(-182.901 -49.353)" fill="url(#linear-gradient-4)"/>
          <path id="Path_24913-2" data-name="Path 24913" d="M172.295,56.334a1.268,1.268,0,0,1-1.086-.595c-.207-.307-.406-.9-.316-1.059l.2.108.225-.014a1.589,1.589,0,0,0,.473.933.839.839,0,0,0,.667.162l.063.446a1.873,1.873,0,0,1-.221.014Z" transform="translate(-169.955 -49.199)" fill="url(#linear-gradient-5)"/>
          <path id="Path_24914-2" data-name="Path 24914" d="M194.363,56.415a.268.268,0,0,1-.113-.018l.1-.2-.014-.225a1.589,1.589,0,0,0,.933-.473.85.85,0,0,0,.162-.672l.446-.059a1.293,1.293,0,0,1-.559,1.294,2.123,2.123,0,0,1-.96.356Z" transform="translate(-182.797 -49.248)" fill="url(#linear-gradient-6)"/>
          <path id="Path_24915-2" data-name="Path 24915" d="M171.269,57.373h-.023a2.424,2.424,0,0,1-2.407-2.443h.451a1.978,1.978,0,0,0,1.961,2h.1l.023.451h-.1Z" transform="translate(-168.84 -49.336)" fill="url(#linear-gradient-7)"/>
          <path id="Path_24916-2" data-name="Path 24916" d="M194.5,57.353h-.018V56.9h.018a1.977,1.977,0,0,0,1.974-1.961v-.1l.451-.018v.126a2.424,2.424,0,0,1-2.42,2.407Z" transform="translate(-182.923 -49.276)" fill="url(#linear-gradient-8)"/>
          <path id="Path_24917-2" data-name="Path 24917" d="M181.066,64.42a3.852,3.852,0,0,1-1.154-.176h0l-.059-.023a.717.717,0,0,1-.09-.041l-.023-.009a.78.78,0,0,1-.14-.063l-.018-.009h0a3.113,3.113,0,0,1-1.212-1.65h0a2.849,2.849,0,0,1,.929-2.362,2.911,2.911,0,0,0,.847-2.84l-.09-.649.509.491c.658.636,2.1,2.033,1.519,3.989a2.727,2.727,0,0,0,.415-1.51l-.059-.834.473.708c1.262,1.925,1.1,3.642-.437,4.71l-.05.027a3.931,3.931,0,0,1-1.348.239Zm-.978-.59a3.443,3.443,0,0,0,2.141-.059c1.42-1,1.212-2.366.636-3.493a1.821,1.821,0,0,1-1.221,1.618l-.5.14.239-.46a3.07,3.07,0,0,0-.744-3.759,3.21,3.21,0,0,1-1.014,2.578,2.407,2.407,0,0,0-.816,2.006c.095.27.5,1.158,1.091,1.357l.189.063v.009Zm-.446.014.149.1Z" transform="translate(-174.071 -50.254)" fill="url(#linear-gradient-9)"/>
        </g>
      </g>
      <g id="Group_5285" data-name="Group 5285" transform="translate(0 0)">
        <g id="Group_4171-3" data-name="Group 4171" opacity="0.64">
          <path id="Path_24909-3" data-name="Path 24909" d="M181.457,45.756a1.922,1.922,0,0,1-.225-.009c-1.077-.095-8.555,0-8.632,0h-.032l-.027-.009a1.5,1.5,0,0,1-1.181-1.357V42.52h11.733v.221c.014.284.045,1.713,0,1.974a1.578,1.578,0,0,1-1.636,1.041Zm-2.957-.5c1.294,0,2.393.009,2.772.045a1.23,1.23,0,0,0,1.379-.658c.027-.149.014-1.028,0-1.668h-10.84v1.411c0,.627.672.865.816.91.4,0,3.475-.045,5.873-.045Z" transform="translate(-170.224 -42.52)" fill="url(#linear-gradient)"/>
          <path id="Path_24910-3" data-name="Path 24910" d="M182.156,51.178a.979.979,0,0,1-.2-.014c-.766-.068-6.193,0-6.247,0h-.032l-.027-.009a1.154,1.154,0,0,1-.9-1.046V48.69h8.713v.221a10.66,10.66,0,0,1-.068,1.42l-.018.072a1.344,1.344,0,0,1-1.217.771Zm-2.168-.5c.942,0,1.744.009,2.019.032a.9.9,0,0,0,.942-.473,10.012,10.012,0,0,0,.063-1.1H175.2v.969c0,.406.428.568.541.6.329,0,2.524-.032,4.25-.032Z" transform="translate(-172.086 -45.909)" fill="url(#linear-gradient-2)"/>
          <path id="Path_24911-3" data-name="Path 24911" d="M173.349,55.641a.6.6,0,0,1-.428-.162.774.774,0,0,1-.2-.559l.451.018a.361.361,0,0,0,.068.221c.009.009.041.041.14.036l.032.451h-.059Z" transform="translate(-170.969 -49.331)" fill="url(#linear-gradient-3)"/>
          <path id="Path_24912-3" data-name="Path 24912" d="M194.481,55.686h-.041l.032-.451c.041,0,.194-.014.252-.275l.442.095a.717.717,0,0,1-.685.627Z" transform="translate(-182.901 -49.353)" fill="url(#linear-gradient-4)"/>
          <path id="Path_24913-3" data-name="Path 24913" d="M172.295,56.334a1.268,1.268,0,0,1-1.086-.595c-.207-.307-.406-.9-.316-1.059l.2.108.225-.014a1.589,1.589,0,0,0,.473.933.839.839,0,0,0,.667.162l.063.446a1.873,1.873,0,0,1-.221.014Z" transform="translate(-169.955 -49.199)" fill="url(#linear-gradient-5)"/>
          <path id="Path_24914-3" data-name="Path 24914" d="M194.363,56.415a.268.268,0,0,1-.113-.018l.1-.2-.014-.225a1.589,1.589,0,0,0,.933-.473.85.85,0,0,0,.162-.672l.446-.059a1.293,1.293,0,0,1-.559,1.294,2.123,2.123,0,0,1-.96.356Z" transform="translate(-182.797 -49.248)" fill="url(#linear-gradient-6)"/>
          <path id="Path_24915-3" data-name="Path 24915" d="M171.269,57.373h-.023a2.424,2.424,0,0,1-2.407-2.443h.451a1.978,1.978,0,0,0,1.961,2h.1l.023.451h-.1Z" transform="translate(-168.84 -49.336)" fill="url(#linear-gradient-7)"/>
          <path id="Path_24916-3" data-name="Path 24916" d="M194.5,57.353h-.018V56.9h.018a1.977,1.977,0,0,0,1.974-1.961v-.1l.451-.018v.126a2.424,2.424,0,0,1-2.42,2.407Z" transform="translate(-182.923 -49.276)" fill="url(#linear-gradient-8)"/>
          <path id="Path_24917-3" data-name="Path 24917" d="M181.066,64.42a3.852,3.852,0,0,1-1.154-.176h0l-.059-.023a.717.717,0,0,1-.09-.041l-.023-.009a.78.78,0,0,1-.14-.063l-.018-.009h0a3.113,3.113,0,0,1-1.212-1.65h0a2.849,2.849,0,0,1,.929-2.362,2.911,2.911,0,0,0,.847-2.84l-.09-.649.509.491c.658.636,2.1,2.033,1.519,3.989a2.727,2.727,0,0,0,.415-1.51l-.059-.834.473.708c1.262,1.925,1.1,3.642-.437,4.71l-.05.027a3.931,3.931,0,0,1-1.348.239Zm-.978-.59a3.443,3.443,0,0,0,2.141-.059c1.42-1,1.212-2.366.636-3.493a1.821,1.821,0,0,1-1.221,1.618l-.5.14.239-.46a3.07,3.07,0,0,0-.744-3.759,3.21,3.21,0,0,1-1.014,2.578,2.407,2.407,0,0,0-.816,2.006c.095.27.5,1.158,1.091,1.357l.189.063v.009Zm-.446.014.149.1Z" transform="translate(-174.071 -50.254)" fill="url(#linear-gradient-9)"/>
        </g>
      </g>
    </g>
    <g id="Group_6374" data-name="Group 6374" transform="translate(14 401)">
      <g id="Group_5283-2" data-name="Group 5283" transform="translate(0 0)">
        <g id="Group_4171-4" data-name="Group 4171" opacity="0.64">
          <path id="Path_24909-4" data-name="Path 24909" d="M181.457,45.756a1.922,1.922,0,0,1-.225-.009c-1.077-.095-8.555,0-8.632,0h-.032l-.027-.009a1.5,1.5,0,0,1-1.181-1.357V42.52h11.733v.221c.014.284.045,1.713,0,1.974a1.578,1.578,0,0,1-1.636,1.041Zm-2.957-.5c1.294,0,2.393.009,2.772.045a1.23,1.23,0,0,0,1.379-.658c.027-.149.014-1.028,0-1.668h-10.84v1.411c0,.627.672.865.816.91.4,0,3.475-.045,5.873-.045Z" transform="translate(-170.224 -42.52)" fill="url(#linear-gradient)"/>
          <path id="Path_24910-4" data-name="Path 24910" d="M182.156,51.178a.979.979,0,0,1-.2-.014c-.766-.068-6.193,0-6.247,0h-.032l-.027-.009a1.154,1.154,0,0,1-.9-1.046V48.69h8.713v.221a10.66,10.66,0,0,1-.068,1.42l-.018.072a1.344,1.344,0,0,1-1.217.771Zm-2.168-.5c.942,0,1.744.009,2.019.032a.9.9,0,0,0,.942-.473,10.012,10.012,0,0,0,.063-1.1H175.2v.969c0,.406.428.568.541.6.329,0,2.524-.032,4.25-.032Z" transform="translate(-172.086 -45.909)" fill="url(#linear-gradient-2)"/>
          <path id="Path_24911-4" data-name="Path 24911" d="M173.349,55.641a.6.6,0,0,1-.428-.162.774.774,0,0,1-.2-.559l.451.018a.361.361,0,0,0,.068.221c.009.009.041.041.14.036l.032.451h-.059Z" transform="translate(-170.969 -49.331)" fill="url(#linear-gradient-3)"/>
          <path id="Path_24912-4" data-name="Path 24912" d="M194.481,55.686h-.041l.032-.451c.041,0,.194-.014.252-.275l.442.095a.717.717,0,0,1-.685.627Z" transform="translate(-182.901 -49.353)" fill="url(#linear-gradient-4)"/>
          <path id="Path_24913-4" data-name="Path 24913" d="M172.295,56.334a1.268,1.268,0,0,1-1.086-.595c-.207-.307-.406-.9-.316-1.059l.2.108.225-.014a1.589,1.589,0,0,0,.473.933.839.839,0,0,0,.667.162l.063.446a1.873,1.873,0,0,1-.221.014Z" transform="translate(-169.955 -49.199)" fill="url(#linear-gradient-5)"/>
          <path id="Path_24914-4" data-name="Path 24914" d="M194.363,56.415a.268.268,0,0,1-.113-.018l.1-.2-.014-.225a1.589,1.589,0,0,0,.933-.473.85.85,0,0,0,.162-.672l.446-.059a1.293,1.293,0,0,1-.559,1.294,2.123,2.123,0,0,1-.96.356Z" transform="translate(-182.797 -49.248)" fill="url(#linear-gradient-6)"/>
          <path id="Path_24915-4" data-name="Path 24915" d="M171.269,57.373h-.023a2.424,2.424,0,0,1-2.407-2.443h.451a1.978,1.978,0,0,0,1.961,2h.1l.023.451h-.1Z" transform="translate(-168.84 -49.336)" fill="url(#linear-gradient-7)"/>
          <path id="Path_24916-4" data-name="Path 24916" d="M194.5,57.353h-.018V56.9h.018a1.977,1.977,0,0,0,1.974-1.961v-.1l.451-.018v.126a2.424,2.424,0,0,1-2.42,2.407Z" transform="translate(-182.923 -49.276)" fill="url(#linear-gradient-8)"/>
          <path id="Path_24917-4" data-name="Path 24917" d="M181.066,64.42a3.852,3.852,0,0,1-1.154-.176h0l-.059-.023a.717.717,0,0,1-.09-.041l-.023-.009a.78.78,0,0,1-.14-.063l-.018-.009h0a3.113,3.113,0,0,1-1.212-1.65h0a2.849,2.849,0,0,1,.929-2.362,2.911,2.911,0,0,0,.847-2.84l-.09-.649.509.491c.658.636,2.1,2.033,1.519,3.989a2.727,2.727,0,0,0,.415-1.51l-.059-.834.473.708c1.262,1.925,1.1,3.642-.437,4.71l-.05.027a3.931,3.931,0,0,1-1.348.239Zm-.978-.59a3.443,3.443,0,0,0,2.141-.059c1.42-1,1.212-2.366.636-3.493a1.821,1.821,0,0,1-1.221,1.618l-.5.14.239-.46a3.07,3.07,0,0,0-.744-3.759,3.21,3.21,0,0,1-1.014,2.578,2.407,2.407,0,0,0-.816,2.006c.095.27.5,1.158,1.091,1.357l.189.063v.009Zm-.446.014.149.1Z" transform="translate(-174.071 -50.254)" fill="url(#linear-gradient-9)"/>
        </g>
      </g>
      <g id="Group_5284-2" data-name="Group 5284" transform="translate(0 0)">
        <g id="Group_4171-5" data-name="Group 4171" opacity="0.64">
          <path id="Path_24909-5" data-name="Path 24909" d="M181.457,45.756a1.922,1.922,0,0,1-.225-.009c-1.077-.095-8.555,0-8.632,0h-.032l-.027-.009a1.5,1.5,0,0,1-1.181-1.357V42.52h11.733v.221c.014.284.045,1.713,0,1.974a1.578,1.578,0,0,1-1.636,1.041Zm-2.957-.5c1.294,0,2.393.009,2.772.045a1.23,1.23,0,0,0,1.379-.658c.027-.149.014-1.028,0-1.668h-10.84v1.411c0,.627.672.865.816.91.4,0,3.475-.045,5.873-.045Z" transform="translate(-170.224 -42.52)" fill="url(#linear-gradient)"/>
          <path id="Path_24910-5" data-name="Path 24910" d="M182.156,51.178a.979.979,0,0,1-.2-.014c-.766-.068-6.193,0-6.247,0h-.032l-.027-.009a1.154,1.154,0,0,1-.9-1.046V48.69h8.713v.221a10.66,10.66,0,0,1-.068,1.42l-.018.072a1.344,1.344,0,0,1-1.217.771Zm-2.168-.5c.942,0,1.744.009,2.019.032a.9.9,0,0,0,.942-.473,10.012,10.012,0,0,0,.063-1.1H175.2v.969c0,.406.428.568.541.6.329,0,2.524-.032,4.25-.032Z" transform="translate(-172.086 -45.909)" fill="url(#linear-gradient-2)"/>
          <path id="Path_24911-5" data-name="Path 24911" d="M173.349,55.641a.6.6,0,0,1-.428-.162.774.774,0,0,1-.2-.559l.451.018a.361.361,0,0,0,.068.221c.009.009.041.041.14.036l.032.451h-.059Z" transform="translate(-170.969 -49.331)" fill="url(#linear-gradient-3)"/>
          <path id="Path_24912-5" data-name="Path 24912" d="M194.481,55.686h-.041l.032-.451c.041,0,.194-.014.252-.275l.442.095a.717.717,0,0,1-.685.627Z" transform="translate(-182.901 -49.353)" fill="url(#linear-gradient-4)"/>
          <path id="Path_24913-5" data-name="Path 24913" d="M172.295,56.334a1.268,1.268,0,0,1-1.086-.595c-.207-.307-.406-.9-.316-1.059l.2.108.225-.014a1.589,1.589,0,0,0,.473.933.839.839,0,0,0,.667.162l.063.446a1.873,1.873,0,0,1-.221.014Z" transform="translate(-169.955 -49.199)" fill="url(#linear-gradient-5)"/>
          <path id="Path_24914-5" data-name="Path 24914" d="M194.363,56.415a.268.268,0,0,1-.113-.018l.1-.2-.014-.225a1.589,1.589,0,0,0,.933-.473.85.85,0,0,0,.162-.672l.446-.059a1.293,1.293,0,0,1-.559,1.294,2.123,2.123,0,0,1-.96.356Z" transform="translate(-182.797 -49.248)" fill="url(#linear-gradient-6)"/>
          <path id="Path_24915-5" data-name="Path 24915" d="M171.269,57.373h-.023a2.424,2.424,0,0,1-2.407-2.443h.451a1.978,1.978,0,0,0,1.961,2h.1l.023.451h-.1Z" transform="translate(-168.84 -49.336)" fill="url(#linear-gradient-7)"/>
          <path id="Path_24916-5" data-name="Path 24916" d="M194.5,57.353h-.018V56.9h.018a1.977,1.977,0,0,0,1.974-1.961v-.1l.451-.018v.126a2.424,2.424,0,0,1-2.42,2.407Z" transform="translate(-182.923 -49.276)" fill="url(#linear-gradient-8)"/>
          <path id="Path_24917-5" data-name="Path 24917" d="M181.066,64.42a3.852,3.852,0,0,1-1.154-.176h0l-.059-.023a.717.717,0,0,1-.09-.041l-.023-.009a.78.78,0,0,1-.14-.063l-.018-.009h0a3.113,3.113,0,0,1-1.212-1.65h0a2.849,2.849,0,0,1,.929-2.362,2.911,2.911,0,0,0,.847-2.84l-.09-.649.509.491c.658.636,2.1,2.033,1.519,3.989a2.727,2.727,0,0,0,.415-1.51l-.059-.834.473.708c1.262,1.925,1.1,3.642-.437,4.71l-.05.027a3.931,3.931,0,0,1-1.348.239Zm-.978-.59a3.443,3.443,0,0,0,2.141-.059c1.42-1,1.212-2.366.636-3.493a1.821,1.821,0,0,1-1.221,1.618l-.5.14.239-.46a3.07,3.07,0,0,0-.744-3.759,3.21,3.21,0,0,1-1.014,2.578,2.407,2.407,0,0,0-.816,2.006c.095.27.5,1.158,1.091,1.357l.189.063v.009Zm-.446.014.149.1Z" transform="translate(-174.071 -50.254)" fill="url(#linear-gradient-9)"/>
        </g>
      </g>
      <g id="Group_5285-2" data-name="Group 5285" transform="translate(0 0)">
        <g id="Group_4171-6" data-name="Group 4171" opacity="0.64">
          <path id="Path_24909-6" data-name="Path 24909" d="M181.457,45.756a1.922,1.922,0,0,1-.225-.009c-1.077-.095-8.555,0-8.632,0h-.032l-.027-.009a1.5,1.5,0,0,1-1.181-1.357V42.52h11.733v.221c.014.284.045,1.713,0,1.974a1.578,1.578,0,0,1-1.636,1.041Zm-2.957-.5c1.294,0,2.393.009,2.772.045a1.23,1.23,0,0,0,1.379-.658c.027-.149.014-1.028,0-1.668h-10.84v1.411c0,.627.672.865.816.91.4,0,3.475-.045,5.873-.045Z" transform="translate(-170.224 -42.52)" fill="url(#linear-gradient)"/>
          <path id="Path_24910-6" data-name="Path 24910" d="M182.156,51.178a.979.979,0,0,1-.2-.014c-.766-.068-6.193,0-6.247,0h-.032l-.027-.009a1.154,1.154,0,0,1-.9-1.046V48.69h8.713v.221a10.66,10.66,0,0,1-.068,1.42l-.018.072a1.344,1.344,0,0,1-1.217.771Zm-2.168-.5c.942,0,1.744.009,2.019.032a.9.9,0,0,0,.942-.473,10.012,10.012,0,0,0,.063-1.1H175.2v.969c0,.406.428.568.541.6.329,0,2.524-.032,4.25-.032Z" transform="translate(-172.086 -45.909)" fill="url(#linear-gradient-2)"/>
          <path id="Path_24911-6" data-name="Path 24911" d="M173.349,55.641a.6.6,0,0,1-.428-.162.774.774,0,0,1-.2-.559l.451.018a.361.361,0,0,0,.068.221c.009.009.041.041.14.036l.032.451h-.059Z" transform="translate(-170.969 -49.331)" fill="url(#linear-gradient-3)"/>
          <path id="Path_24912-6" data-name="Path 24912" d="M194.481,55.686h-.041l.032-.451c.041,0,.194-.014.252-.275l.442.095a.717.717,0,0,1-.685.627Z" transform="translate(-182.901 -49.353)" fill="url(#linear-gradient-4)"/>
          <path id="Path_24913-6" data-name="Path 24913" d="M172.295,56.334a1.268,1.268,0,0,1-1.086-.595c-.207-.307-.406-.9-.316-1.059l.2.108.225-.014a1.589,1.589,0,0,0,.473.933.839.839,0,0,0,.667.162l.063.446a1.873,1.873,0,0,1-.221.014Z" transform="translate(-169.955 -49.199)" fill="url(#linear-gradient-5)"/>
          <path id="Path_24914-6" data-name="Path 24914" d="M194.363,56.415a.268.268,0,0,1-.113-.018l.1-.2-.014-.225a1.589,1.589,0,0,0,.933-.473.85.85,0,0,0,.162-.672l.446-.059a1.293,1.293,0,0,1-.559,1.294,2.123,2.123,0,0,1-.96.356Z" transform="translate(-182.797 -49.248)" fill="url(#linear-gradient-6)"/>
          <path id="Path_24915-6" data-name="Path 24915" d="M171.269,57.373h-.023a2.424,2.424,0,0,1-2.407-2.443h.451a1.978,1.978,0,0,0,1.961,2h.1l.023.451h-.1Z" transform="translate(-168.84 -49.336)" fill="url(#linear-gradient-7)"/>
          <path id="Path_24916-6" data-name="Path 24916" d="M194.5,57.353h-.018V56.9h.018a1.977,1.977,0,0,0,1.974-1.961v-.1l.451-.018v.126a2.424,2.424,0,0,1-2.42,2.407Z" transform="translate(-182.923 -49.276)" fill="url(#linear-gradient-8)"/>
          <path id="Path_24917-6" data-name="Path 24917" d="M181.066,64.42a3.852,3.852,0,0,1-1.154-.176h0l-.059-.023a.717.717,0,0,1-.09-.041l-.023-.009a.78.78,0,0,1-.14-.063l-.018-.009h0a3.113,3.113,0,0,1-1.212-1.65h0a2.849,2.849,0,0,1,.929-2.362,2.911,2.911,0,0,0,.847-2.84l-.09-.649.509.491c.658.636,2.1,2.033,1.519,3.989a2.727,2.727,0,0,0,.415-1.51l-.059-.834.473.708c1.262,1.925,1.1,3.642-.437,4.71l-.05.027a3.931,3.931,0,0,1-1.348.239Zm-.978-.59a3.443,3.443,0,0,0,2.141-.059c1.42-1,1.212-2.366.636-3.493a1.821,1.821,0,0,1-1.221,1.618l-.5.14.239-.46a3.07,3.07,0,0,0-.744-3.759,3.21,3.21,0,0,1-1.014,2.578,2.407,2.407,0,0,0-.816,2.006c.095.27.5,1.158,1.091,1.357l.189.063v.009Zm-.446.014.149.1Z" transform="translate(-174.071 -50.254)" fill="url(#linear-gradient-9)"/>
        </g>
      </g>
    </g>
    <g id="Group_6375" data-name="Group 6375" transform="translate(14 401)">
      <g id="Group_5283-3" data-name="Group 5283" transform="translate(0 0)">
        <g id="Group_4171-7" data-name="Group 4171" opacity="0.64">
          <path id="Path_24909-7" data-name="Path 24909" d="M181.457,45.756a1.922,1.922,0,0,1-.225-.009c-1.077-.095-8.555,0-8.632,0h-.032l-.027-.009a1.5,1.5,0,0,1-1.181-1.357V42.52h11.733v.221c.014.284.045,1.713,0,1.974a1.578,1.578,0,0,1-1.636,1.041Zm-2.957-.5c1.294,0,2.393.009,2.772.045a1.23,1.23,0,0,0,1.379-.658c.027-.149.014-1.028,0-1.668h-10.84v1.411c0,.627.672.865.816.91.4,0,3.475-.045,5.873-.045Z" transform="translate(-170.224 -42.52)" fill="url(#linear-gradient)"/>
          <path id="Path_24910-7" data-name="Path 24910" d="M182.156,51.178a.979.979,0,0,1-.2-.014c-.766-.068-6.193,0-6.247,0h-.032l-.027-.009a1.154,1.154,0,0,1-.9-1.046V48.69h8.713v.221a10.66,10.66,0,0,1-.068,1.42l-.018.072a1.344,1.344,0,0,1-1.217.771Zm-2.168-.5c.942,0,1.744.009,2.019.032a.9.9,0,0,0,.942-.473,10.012,10.012,0,0,0,.063-1.1H175.2v.969c0,.406.428.568.541.6.329,0,2.524-.032,4.25-.032Z" transform="translate(-172.086 -45.909)" fill="url(#linear-gradient-2)"/>
          <path id="Path_24911-7" data-name="Path 24911" d="M173.349,55.641a.6.6,0,0,1-.428-.162.774.774,0,0,1-.2-.559l.451.018a.361.361,0,0,0,.068.221c.009.009.041.041.14.036l.032.451h-.059Z" transform="translate(-170.969 -49.331)" fill="url(#linear-gradient-3)"/>
          <path id="Path_24912-7" data-name="Path 24912" d="M194.481,55.686h-.041l.032-.451c.041,0,.194-.014.252-.275l.442.095a.717.717,0,0,1-.685.627Z" transform="translate(-182.901 -49.353)" fill="url(#linear-gradient-4)"/>
          <path id="Path_24913-7" data-name="Path 24913" d="M172.295,56.334a1.268,1.268,0,0,1-1.086-.595c-.207-.307-.406-.9-.316-1.059l.2.108.225-.014a1.589,1.589,0,0,0,.473.933.839.839,0,0,0,.667.162l.063.446a1.873,1.873,0,0,1-.221.014Z" transform="translate(-169.955 -49.199)" fill="url(#linear-gradient-5)"/>
          <path id="Path_24914-7" data-name="Path 24914" d="M194.363,56.415a.268.268,0,0,1-.113-.018l.1-.2-.014-.225a1.589,1.589,0,0,0,.933-.473.85.85,0,0,0,.162-.672l.446-.059a1.293,1.293,0,0,1-.559,1.294,2.123,2.123,0,0,1-.96.356Z" transform="translate(-182.797 -49.248)" fill="url(#linear-gradient-6)"/>
          <path id="Path_24915-7" data-name="Path 24915" d="M171.269,57.373h-.023a2.424,2.424,0,0,1-2.407-2.443h.451a1.978,1.978,0,0,0,1.961,2h.1l.023.451h-.1Z" transform="translate(-168.84 -49.336)" fill="url(#linear-gradient-7)"/>
          <path id="Path_24916-7" data-name="Path 24916" d="M194.5,57.353h-.018V56.9h.018a1.977,1.977,0,0,0,1.974-1.961v-.1l.451-.018v.126a2.424,2.424,0,0,1-2.42,2.407Z" transform="translate(-182.923 -49.276)" fill="url(#linear-gradient-8)"/>
          <path id="Path_24917-7" data-name="Path 24917" d="M181.066,64.42a3.852,3.852,0,0,1-1.154-.176h0l-.059-.023a.717.717,0,0,1-.09-.041l-.023-.009a.78.78,0,0,1-.14-.063l-.018-.009h0a3.113,3.113,0,0,1-1.212-1.65h0a2.849,2.849,0,0,1,.929-2.362,2.911,2.911,0,0,0,.847-2.84l-.09-.649.509.491c.658.636,2.1,2.033,1.519,3.989a2.727,2.727,0,0,0,.415-1.51l-.059-.834.473.708c1.262,1.925,1.1,3.642-.437,4.71l-.05.027a3.931,3.931,0,0,1-1.348.239Zm-.978-.59a3.443,3.443,0,0,0,2.141-.059c1.42-1,1.212-2.366.636-3.493a1.821,1.821,0,0,1-1.221,1.618l-.5.14.239-.46a3.07,3.07,0,0,0-.744-3.759,3.21,3.21,0,0,1-1.014,2.578,2.407,2.407,0,0,0-.816,2.006c.095.27.5,1.158,1.091,1.357l.189.063v.009Zm-.446.014.149.1Z" transform="translate(-174.071 -50.254)" fill="url(#linear-gradient-9)"/>
        </g>
      </g>
      <g id="Group_5284-3" data-name="Group 5284" transform="translate(0 0)">
        <g id="Group_4171-8" data-name="Group 4171" opacity="0.64">
          <path id="Path_24909-8" data-name="Path 24909" d="M181.457,45.756a1.922,1.922,0,0,1-.225-.009c-1.077-.095-8.555,0-8.632,0h-.032l-.027-.009a1.5,1.5,0,0,1-1.181-1.357V42.52h11.733v.221c.014.284.045,1.713,0,1.974a1.578,1.578,0,0,1-1.636,1.041Zm-2.957-.5c1.294,0,2.393.009,2.772.045a1.23,1.23,0,0,0,1.379-.658c.027-.149.014-1.028,0-1.668h-10.84v1.411c0,.627.672.865.816.91.4,0,3.475-.045,5.873-.045Z" transform="translate(-170.224 -42.52)" fill="url(#linear-gradient)"/>
          <path id="Path_24910-8" data-name="Path 24910" d="M182.156,51.178a.979.979,0,0,1-.2-.014c-.766-.068-6.193,0-6.247,0h-.032l-.027-.009a1.154,1.154,0,0,1-.9-1.046V48.69h8.713v.221a10.66,10.66,0,0,1-.068,1.42l-.018.072a1.344,1.344,0,0,1-1.217.771Zm-2.168-.5c.942,0,1.744.009,2.019.032a.9.9,0,0,0,.942-.473,10.012,10.012,0,0,0,.063-1.1H175.2v.969c0,.406.428.568.541.6.329,0,2.524-.032,4.25-.032Z" transform="translate(-172.086 -45.909)" fill="url(#linear-gradient-2)"/>
          <path id="Path_24911-8" data-name="Path 24911" d="M173.349,55.641a.6.6,0,0,1-.428-.162.774.774,0,0,1-.2-.559l.451.018a.361.361,0,0,0,.068.221c.009.009.041.041.14.036l.032.451h-.059Z" transform="translate(-170.969 -49.331)" fill="url(#linear-gradient-3)"/>
          <path id="Path_24912-8" data-name="Path 24912" d="M194.481,55.686h-.041l.032-.451c.041,0,.194-.014.252-.275l.442.095a.717.717,0,0,1-.685.627Z" transform="translate(-182.901 -49.353)" fill="url(#linear-gradient-4)"/>
          <path id="Path_24913-8" data-name="Path 24913" d="M172.295,56.334a1.268,1.268,0,0,1-1.086-.595c-.207-.307-.406-.9-.316-1.059l.2.108.225-.014a1.589,1.589,0,0,0,.473.933.839.839,0,0,0,.667.162l.063.446a1.873,1.873,0,0,1-.221.014Z" transform="translate(-169.955 -49.199)" fill="url(#linear-gradient-5)"/>
          <path id="Path_24914-8" data-name="Path 24914" d="M194.363,56.415a.268.268,0,0,1-.113-.018l.1-.2-.014-.225a1.589,1.589,0,0,0,.933-.473.85.85,0,0,0,.162-.672l.446-.059a1.293,1.293,0,0,1-.559,1.294,2.123,2.123,0,0,1-.96.356Z" transform="translate(-182.797 -49.248)" fill="url(#linear-gradient-6)"/>
          <path id="Path_24915-8" data-name="Path 24915" d="M171.269,57.373h-.023a2.424,2.424,0,0,1-2.407-2.443h.451a1.978,1.978,0,0,0,1.961,2h.1l.023.451h-.1Z" transform="translate(-168.84 -49.336)" fill="url(#linear-gradient-7)"/>
          <path id="Path_24916-8" data-name="Path 24916" d="M194.5,57.353h-.018V56.9h.018a1.977,1.977,0,0,0,1.974-1.961v-.1l.451-.018v.126a2.424,2.424,0,0,1-2.42,2.407Z" transform="translate(-182.923 -49.276)" fill="url(#linear-gradient-8)"/>
          <path id="Path_24917-8" data-name="Path 24917" d="M181.066,64.42a3.852,3.852,0,0,1-1.154-.176h0l-.059-.023a.717.717,0,0,1-.09-.041l-.023-.009a.78.78,0,0,1-.14-.063l-.018-.009h0a3.113,3.113,0,0,1-1.212-1.65h0a2.849,2.849,0,0,1,.929-2.362,2.911,2.911,0,0,0,.847-2.84l-.09-.649.509.491c.658.636,2.1,2.033,1.519,3.989a2.727,2.727,0,0,0,.415-1.51l-.059-.834.473.708c1.262,1.925,1.1,3.642-.437,4.71l-.05.027a3.931,3.931,0,0,1-1.348.239Zm-.978-.59a3.443,3.443,0,0,0,2.141-.059c1.42-1,1.212-2.366.636-3.493a1.821,1.821,0,0,1-1.221,1.618l-.5.14.239-.46a3.07,3.07,0,0,0-.744-3.759,3.21,3.21,0,0,1-1.014,2.578,2.407,2.407,0,0,0-.816,2.006c.095.27.5,1.158,1.091,1.357l.189.063v.009Zm-.446.014.149.1Z" transform="translate(-174.071 -50.254)" fill="url(#linear-gradient-9)"/>
        </g>
      </g>
      <g id="Group_5285-3" data-name="Group 5285" transform="translate(0 0)">
        <g id="Group_4171-9" data-name="Group 4171" opacity="0.64">
          <path id="Path_24909-9" data-name="Path 24909" d="M181.457,45.756a1.922,1.922,0,0,1-.225-.009c-1.077-.095-8.555,0-8.632,0h-.032l-.027-.009a1.5,1.5,0,0,1-1.181-1.357V42.52h11.733v.221c.014.284.045,1.713,0,1.974a1.578,1.578,0,0,1-1.636,1.041Zm-2.957-.5c1.294,0,2.393.009,2.772.045a1.23,1.23,0,0,0,1.379-.658c.027-.149.014-1.028,0-1.668h-10.84v1.411c0,.627.672.865.816.91.4,0,3.475-.045,5.873-.045Z" transform="translate(-170.224 -42.52)" fill="url(#linear-gradient)"/>
          <path id="Path_24910-9" data-name="Path 24910" d="M182.156,51.178a.979.979,0,0,1-.2-.014c-.766-.068-6.193,0-6.247,0h-.032l-.027-.009a1.154,1.154,0,0,1-.9-1.046V48.69h8.713v.221a10.66,10.66,0,0,1-.068,1.42l-.018.072a1.344,1.344,0,0,1-1.217.771Zm-2.168-.5c.942,0,1.744.009,2.019.032a.9.9,0,0,0,.942-.473,10.012,10.012,0,0,0,.063-1.1H175.2v.969c0,.406.428.568.541.6.329,0,2.524-.032,4.25-.032Z" transform="translate(-172.086 -45.909)" fill="url(#linear-gradient-2)"/>
          <path id="Path_24911-9" data-name="Path 24911" d="M173.349,55.641a.6.6,0,0,1-.428-.162.774.774,0,0,1-.2-.559l.451.018a.361.361,0,0,0,.068.221c.009.009.041.041.14.036l.032.451h-.059Z" transform="translate(-170.969 -49.331)" fill="url(#linear-gradient-3)"/>
          <path id="Path_24912-9" data-name="Path 24912" d="M194.481,55.686h-.041l.032-.451c.041,0,.194-.014.252-.275l.442.095a.717.717,0,0,1-.685.627Z" transform="translate(-182.901 -49.353)" fill="url(#linear-gradient-4)"/>
          <path id="Path_24913-9" data-name="Path 24913" d="M172.295,56.334a1.268,1.268,0,0,1-1.086-.595c-.207-.307-.406-.9-.316-1.059l.2.108.225-.014a1.589,1.589,0,0,0,.473.933.839.839,0,0,0,.667.162l.063.446a1.873,1.873,0,0,1-.221.014Z" transform="translate(-169.955 -49.199)" fill="url(#linear-gradient-5)"/>
          <path id="Path_24914-9" data-name="Path 24914" d="M194.363,56.415a.268.268,0,0,1-.113-.018l.1-.2-.014-.225a1.589,1.589,0,0,0,.933-.473.85.85,0,0,0,.162-.672l.446-.059a1.293,1.293,0,0,1-.559,1.294,2.123,2.123,0,0,1-.96.356Z" transform="translate(-182.797 -49.248)" fill="url(#linear-gradient-6)"/>
          <path id="Path_24915-9" data-name="Path 24915" d="M171.269,57.373h-.023a2.424,2.424,0,0,1-2.407-2.443h.451a1.978,1.978,0,0,0,1.961,2h.1l.023.451h-.1Z" transform="translate(-168.84 -49.336)" fill="url(#linear-gradient-7)"/>
          <path id="Path_24916-9" data-name="Path 24916" d="M194.5,57.353h-.018V56.9h.018a1.977,1.977,0,0,0,1.974-1.961v-.1l.451-.018v.126a2.424,2.424,0,0,1-2.42,2.407Z" transform="translate(-182.923 -49.276)" fill="url(#linear-gradient-8)"/>
          <path id="Path_24917-9" data-name="Path 24917" d="M181.066,64.42a3.852,3.852,0,0,1-1.154-.176h0l-.059-.023a.717.717,0,0,1-.09-.041l-.023-.009a.78.78,0,0,1-.14-.063l-.018-.009h0a3.113,3.113,0,0,1-1.212-1.65h0a2.849,2.849,0,0,1,.929-2.362,2.911,2.911,0,0,0,.847-2.84l-.09-.649.509.491c.658.636,2.1,2.033,1.519,3.989a2.727,2.727,0,0,0,.415-1.51l-.059-.834.473.708c1.262,1.925,1.1,3.642-.437,4.71l-.05.027a3.931,3.931,0,0,1-1.348.239Zm-.978-.59a3.443,3.443,0,0,0,2.141-.059c1.42-1,1.212-2.366.636-3.493a1.821,1.821,0,0,1-1.221,1.618l-.5.14.239-.46a3.07,3.07,0,0,0-.744-3.759,3.21,3.21,0,0,1-1.014,2.578,2.407,2.407,0,0,0-.816,2.006c.095.27.5,1.158,1.091,1.357l.189.063v.009Zm-.446.014.149.1Z" transform="translate(-174.071 -50.254)" fill="url(#linear-gradient-9)"/>
        </g>
      </g>
    </g>
    <g id="Group_6376" data-name="Group 6376" transform="translate(14 401)">
      <g id="Group_5283-4" data-name="Group 5283" transform="translate(0 0)">
        <g id="Group_4171-10" data-name="Group 4171" opacity="0.64">
          <path id="Path_24909-10" data-name="Path 24909" d="M181.457,45.756a1.922,1.922,0,0,1-.225-.009c-1.077-.095-8.555,0-8.632,0h-.032l-.027-.009a1.5,1.5,0,0,1-1.181-1.357V42.52h11.733v.221c.014.284.045,1.713,0,1.974a1.578,1.578,0,0,1-1.636,1.041Zm-2.957-.5c1.294,0,2.393.009,2.772.045a1.23,1.23,0,0,0,1.379-.658c.027-.149.014-1.028,0-1.668h-10.84v1.411c0,.627.672.865.816.91.4,0,3.475-.045,5.873-.045Z" transform="translate(-170.224 -42.52)" fill="url(#linear-gradient)"/>
          <path id="Path_24910-10" data-name="Path 24910" d="M182.156,51.178a.979.979,0,0,1-.2-.014c-.766-.068-6.193,0-6.247,0h-.032l-.027-.009a1.154,1.154,0,0,1-.9-1.046V48.69h8.713v.221a10.66,10.66,0,0,1-.068,1.42l-.018.072a1.344,1.344,0,0,1-1.217.771Zm-2.168-.5c.942,0,1.744.009,2.019.032a.9.9,0,0,0,.942-.473,10.012,10.012,0,0,0,.063-1.1H175.2v.969c0,.406.428.568.541.6.329,0,2.524-.032,4.25-.032Z" transform="translate(-172.086 -45.909)" fill="url(#linear-gradient-2)"/>
          <path id="Path_24911-10" data-name="Path 24911" d="M173.349,55.641a.6.6,0,0,1-.428-.162.774.774,0,0,1-.2-.559l.451.018a.361.361,0,0,0,.068.221c.009.009.041.041.14.036l.032.451h-.059Z" transform="translate(-170.969 -49.331)" fill="url(#linear-gradient-3)"/>
          <path id="Path_24912-10" data-name="Path 24912" d="M194.481,55.686h-.041l.032-.451c.041,0,.194-.014.252-.275l.442.095a.717.717,0,0,1-.685.627Z" transform="translate(-182.901 -49.353)" fill="url(#linear-gradient-4)"/>
          <path id="Path_24913-10" data-name="Path 24913" d="M172.295,56.334a1.268,1.268,0,0,1-1.086-.595c-.207-.307-.406-.9-.316-1.059l.2.108.225-.014a1.589,1.589,0,0,0,.473.933.839.839,0,0,0,.667.162l.063.446a1.873,1.873,0,0,1-.221.014Z" transform="translate(-169.955 -49.199)" fill="url(#linear-gradient-5)"/>
          <path id="Path_24914-10" data-name="Path 24914" d="M194.363,56.415a.268.268,0,0,1-.113-.018l.1-.2-.014-.225a1.589,1.589,0,0,0,.933-.473.85.85,0,0,0,.162-.672l.446-.059a1.293,1.293,0,0,1-.559,1.294,2.123,2.123,0,0,1-.96.356Z" transform="translate(-182.797 -49.248)" fill="url(#linear-gradient-6)"/>
          <path id="Path_24915-10" data-name="Path 24915" d="M171.269,57.373h-.023a2.424,2.424,0,0,1-2.407-2.443h.451a1.978,1.978,0,0,0,1.961,2h.1l.023.451h-.1Z" transform="translate(-168.84 -49.336)" fill="url(#linear-gradient-7)"/>
          <path id="Path_24916-10" data-name="Path 24916" d="M194.5,57.353h-.018V56.9h.018a1.977,1.977,0,0,0,1.974-1.961v-.1l.451-.018v.126a2.424,2.424,0,0,1-2.42,2.407Z" transform="translate(-182.923 -49.276)" fill="url(#linear-gradient-8)"/>
          <path id="Path_24917-10" data-name="Path 24917" d="M181.066,64.42a3.852,3.852,0,0,1-1.154-.176h0l-.059-.023a.717.717,0,0,1-.09-.041l-.023-.009a.78.78,0,0,1-.14-.063l-.018-.009h0a3.113,3.113,0,0,1-1.212-1.65h0a2.849,2.849,0,0,1,.929-2.362,2.911,2.911,0,0,0,.847-2.84l-.09-.649.509.491c.658.636,2.1,2.033,1.519,3.989a2.727,2.727,0,0,0,.415-1.51l-.059-.834.473.708c1.262,1.925,1.1,3.642-.437,4.71l-.05.027a3.931,3.931,0,0,1-1.348.239Zm-.978-.59a3.443,3.443,0,0,0,2.141-.059c1.42-1,1.212-2.366.636-3.493a1.821,1.821,0,0,1-1.221,1.618l-.5.14.239-.46a3.07,3.07,0,0,0-.744-3.759,3.21,3.21,0,0,1-1.014,2.578,2.407,2.407,0,0,0-.816,2.006c.095.27.5,1.158,1.091,1.357l.189.063v.009Zm-.446.014.149.1Z" transform="translate(-174.071 -50.254)" fill="url(#linear-gradient-9)"/>
        </g>
      </g>
      <g id="Group_5284-4" data-name="Group 5284" transform="translate(0 0)">
        <g id="Group_4171-11" data-name="Group 4171" opacity="0.64">
          <path id="Path_24909-11" data-name="Path 24909" d="M181.457,45.756a1.922,1.922,0,0,1-.225-.009c-1.077-.095-8.555,0-8.632,0h-.032l-.027-.009a1.5,1.5,0,0,1-1.181-1.357V42.52h11.733v.221c.014.284.045,1.713,0,1.974a1.578,1.578,0,0,1-1.636,1.041Zm-2.957-.5c1.294,0,2.393.009,2.772.045a1.23,1.23,0,0,0,1.379-.658c.027-.149.014-1.028,0-1.668h-10.84v1.411c0,.627.672.865.816.91.4,0,3.475-.045,5.873-.045Z" transform="translate(-170.224 -42.52)" fill="url(#linear-gradient)"/>
          <path id="Path_24910-11" data-name="Path 24910" d="M182.156,51.178a.979.979,0,0,1-.2-.014c-.766-.068-6.193,0-6.247,0h-.032l-.027-.009a1.154,1.154,0,0,1-.9-1.046V48.69h8.713v.221a10.66,10.66,0,0,1-.068,1.42l-.018.072a1.344,1.344,0,0,1-1.217.771Zm-2.168-.5c.942,0,1.744.009,2.019.032a.9.9,0,0,0,.942-.473,10.012,10.012,0,0,0,.063-1.1H175.2v.969c0,.406.428.568.541.6.329,0,2.524-.032,4.25-.032Z" transform="translate(-172.086 -45.909)" fill="url(#linear-gradient-2)"/>
          <path id="Path_24911-11" data-name="Path 24911" d="M173.349,55.641a.6.6,0,0,1-.428-.162.774.774,0,0,1-.2-.559l.451.018a.361.361,0,0,0,.068.221c.009.009.041.041.14.036l.032.451h-.059Z" transform="translate(-170.969 -49.331)" fill="url(#linear-gradient-3)"/>
          <path id="Path_24912-11" data-name="Path 24912" d="M194.481,55.686h-.041l.032-.451c.041,0,.194-.014.252-.275l.442.095a.717.717,0,0,1-.685.627Z" transform="translate(-182.901 -49.353)" fill="url(#linear-gradient-4)"/>
          <path id="Path_24913-11" data-name="Path 24913" d="M172.295,56.334a1.268,1.268,0,0,1-1.086-.595c-.207-.307-.406-.9-.316-1.059l.2.108.225-.014a1.589,1.589,0,0,0,.473.933.839.839,0,0,0,.667.162l.063.446a1.873,1.873,0,0,1-.221.014Z" transform="translate(-169.955 -49.199)" fill="url(#linear-gradient-5)"/>
          <path id="Path_24914-11" data-name="Path 24914" d="M194.363,56.415a.268.268,0,0,1-.113-.018l.1-.2-.014-.225a1.589,1.589,0,0,0,.933-.473.85.85,0,0,0,.162-.672l.446-.059a1.293,1.293,0,0,1-.559,1.294,2.123,2.123,0,0,1-.96.356Z" transform="translate(-182.797 -49.248)" fill="url(#linear-gradient-6)"/>
          <path id="Path_24915-11" data-name="Path 24915" d="M171.269,57.373h-.023a2.424,2.424,0,0,1-2.407-2.443h.451a1.978,1.978,0,0,0,1.961,2h.1l.023.451h-.1Z" transform="translate(-168.84 -49.336)" fill="url(#linear-gradient-7)"/>
          <path id="Path_24916-11" data-name="Path 24916" d="M194.5,57.353h-.018V56.9h.018a1.977,1.977,0,0,0,1.974-1.961v-.1l.451-.018v.126a2.424,2.424,0,0,1-2.42,2.407Z" transform="translate(-182.923 -49.276)" fill="url(#linear-gradient-8)"/>
          <path id="Path_24917-11" data-name="Path 24917" d="M181.066,64.42a3.852,3.852,0,0,1-1.154-.176h0l-.059-.023a.717.717,0,0,1-.09-.041l-.023-.009a.78.78,0,0,1-.14-.063l-.018-.009h0a3.113,3.113,0,0,1-1.212-1.65h0a2.849,2.849,0,0,1,.929-2.362,2.911,2.911,0,0,0,.847-2.84l-.09-.649.509.491c.658.636,2.1,2.033,1.519,3.989a2.727,2.727,0,0,0,.415-1.51l-.059-.834.473.708c1.262,1.925,1.1,3.642-.437,4.71l-.05.027a3.931,3.931,0,0,1-1.348.239Zm-.978-.59a3.443,3.443,0,0,0,2.141-.059c1.42-1,1.212-2.366.636-3.493a1.821,1.821,0,0,1-1.221,1.618l-.5.14.239-.46a3.07,3.07,0,0,0-.744-3.759,3.21,3.21,0,0,1-1.014,2.578,2.407,2.407,0,0,0-.816,2.006c.095.27.5,1.158,1.091,1.357l.189.063v.009Zm-.446.014.149.1Z" transform="translate(-174.071 -50.254)" fill="url(#linear-gradient-9)"/>
        </g>
      </g>
      <g id="Group_5285-4" data-name="Group 5285" transform="translate(0 0)">
        <g id="Group_4171-12" data-name="Group 4171" opacity="0.64">
          <path id="Path_24909-12" data-name="Path 24909" d="M181.457,45.756a1.922,1.922,0,0,1-.225-.009c-1.077-.095-8.555,0-8.632,0h-.032l-.027-.009a1.5,1.5,0,0,1-1.181-1.357V42.52h11.733v.221c.014.284.045,1.713,0,1.974a1.578,1.578,0,0,1-1.636,1.041Zm-2.957-.5c1.294,0,2.393.009,2.772.045a1.23,1.23,0,0,0,1.379-.658c.027-.149.014-1.028,0-1.668h-10.84v1.411c0,.627.672.865.816.91.4,0,3.475-.045,5.873-.045Z" transform="translate(-170.224 -42.52)" fill="url(#linear-gradient)"/>
          <path id="Path_24910-12" data-name="Path 24910" d="M182.156,51.178a.979.979,0,0,1-.2-.014c-.766-.068-6.193,0-6.247,0h-.032l-.027-.009a1.154,1.154,0,0,1-.9-1.046V48.69h8.713v.221a10.66,10.66,0,0,1-.068,1.42l-.018.072a1.344,1.344,0,0,1-1.217.771Zm-2.168-.5c.942,0,1.744.009,2.019.032a.9.9,0,0,0,.942-.473,10.012,10.012,0,0,0,.063-1.1H175.2v.969c0,.406.428.568.541.6.329,0,2.524-.032,4.25-.032Z" transform="translate(-172.086 -45.909)" fill="url(#linear-gradient-2)"/>
          <path id="Path_24911-12" data-name="Path 24911" d="M173.349,55.641a.6.6,0,0,1-.428-.162.774.774,0,0,1-.2-.559l.451.018a.361.361,0,0,0,.068.221c.009.009.041.041.14.036l.032.451h-.059Z" transform="translate(-170.969 -49.331)" fill="url(#linear-gradient-3)"/>
          <path id="Path_24912-12" data-name="Path 24912" d="M194.481,55.686h-.041l.032-.451c.041,0,.194-.014.252-.275l.442.095a.717.717,0,0,1-.685.627Z" transform="translate(-182.901 -49.353)" fill="url(#linear-gradient-4)"/>
          <path id="Path_24913-12" data-name="Path 24913" d="M172.295,56.334a1.268,1.268,0,0,1-1.086-.595c-.207-.307-.406-.9-.316-1.059l.2.108.225-.014a1.589,1.589,0,0,0,.473.933.839.839,0,0,0,.667.162l.063.446a1.873,1.873,0,0,1-.221.014Z" transform="translate(-169.955 -49.199)" fill="url(#linear-gradient-5)"/>
          <path id="Path_24914-12" data-name="Path 24914" d="M194.363,56.415a.268.268,0,0,1-.113-.018l.1-.2-.014-.225a1.589,1.589,0,0,0,.933-.473.85.85,0,0,0,.162-.672l.446-.059a1.293,1.293,0,0,1-.559,1.294,2.123,2.123,0,0,1-.96.356Z" transform="translate(-182.797 -49.248)" fill="url(#linear-gradient-6)"/>
          <path id="Path_24915-12" data-name="Path 24915" d="M171.269,57.373h-.023a2.424,2.424,0,0,1-2.407-2.443h.451a1.978,1.978,0,0,0,1.961,2h.1l.023.451h-.1Z" transform="translate(-168.84 -49.336)" fill="url(#linear-gradient-7)"/>
          <path id="Path_24916-12" data-name="Path 24916" d="M194.5,57.353h-.018V56.9h.018a1.977,1.977,0,0,0,1.974-1.961v-.1l.451-.018v.126a2.424,2.424,0,0,1-2.42,2.407Z" transform="translate(-182.923 -49.276)" fill="url(#linear-gradient-8)"/>
          <path id="Path_24917-12" data-name="Path 24917" d="M181.066,64.42a3.852,3.852,0,0,1-1.154-.176h0l-.059-.023a.717.717,0,0,1-.09-.041l-.023-.009a.78.78,0,0,1-.14-.063l-.018-.009h0a3.113,3.113,0,0,1-1.212-1.65h0a2.849,2.849,0,0,1,.929-2.362,2.911,2.911,0,0,0,.847-2.84l-.09-.649.509.491c.658.636,2.1,2.033,1.519,3.989a2.727,2.727,0,0,0,.415-1.51l-.059-.834.473.708c1.262,1.925,1.1,3.642-.437,4.71l-.05.027a3.931,3.931,0,0,1-1.348.239Zm-.978-.59a3.443,3.443,0,0,0,2.141-.059c1.42-1,1.212-2.366.636-3.493a1.821,1.821,0,0,1-1.221,1.618l-.5.14.239-.46a3.07,3.07,0,0,0-.744-3.759,3.21,3.21,0,0,1-1.014,2.578,2.407,2.407,0,0,0-.816,2.006c.095.27.5,1.158,1.091,1.357l.189.063v.009Zm-.446.014.149.1Z" transform="translate(-174.071 -50.254)" fill="url(#linear-gradient-9)"/>
        </g>
      </g>
    </g>
  </g>
</svg>
