<svg xmlns="http://www.w3.org/2000/svg" xmlns:xlink="http://www.w3.org/1999/xlink" width="10.724" height="18.802" viewBox="0 0 10.724 18.802">
  <defs>
    <linearGradient id="linear-gradient" y1="0.502" x2="1" y2="0.502" gradientUnits="objectBoundingBox">
      <stop offset="0" stop-color="#54be9a"/>
      <stop offset="0.33" stop-color="#2cabb0"/>
      <stop offset="0.74" stop-color="#2785c0"/>
      <stop offset="1" stop-color="#3a67b0"/>
    </linearGradient>
    <linearGradient id="linear-gradient-2" x1="0" y1="0.5" x2="1" y2="0.5" xlink:href="#linear-gradient"/>
    <linearGradient id="linear-gradient-3" x1="-0.001" y1="0.5" x2="1" y2="0.5" xlink:href="#linear-gradient"/>
    <linearGradient id="linear-gradient-4" x1="0" y1="0.5" x2="1.001" y2="0.5" xlink:href="#linear-gradient"/>
    <linearGradient id="linear-gradient-5" x1="0" y1="0.499" x2="1" y2="0.499" xlink:href="#linear-gradient"/>
    <linearGradient id="linear-gradient-6" x1="-0.001" y1="0.498" x2="1.001" y2="0.498" xlink:href="#linear-gradient"/>
    <linearGradient id="linear-gradient-7" x1="0.002" y1="0.5" x2="1.005" y2="0.5" xlink:href="#linear-gradient"/>
    <linearGradient id="linear-gradient-8" x1="0" y1="0.5" x2="0.999" y2="0.5" xlink:href="#linear-gradient"/>
    <linearGradient id="linear-gradient-9" x1="-0.002" y1="0.5" x2="0.997" y2="0.5" xlink:href="#linear-gradient"/>
  </defs>
  <g id="Group_6334" data-name="Group 6334" transform="translate(-16 -441)">
    <g id="Group_6331" data-name="Group 6331">
      <g id="Group_4172" data-name="Group 4172" transform="translate(16 441)" opacity="0.64">
        <g id="Group_4169" data-name="Group 4169" transform="translate(0 0)">
          <path id="Path_24919" data-name="Path 24919" d="M52.085,84.293a1.223,1.223,0,0,1-1.176-.884l-.009-.06V82.19H61.584l.017.193a5.371,5.371,0,0,1,0,.983,1.33,1.33,0,0,1-.768.9l-.043.021h-.052c-.077,0-7.808-.086-8.576,0H52.08Zm-.755-.97a.783.783,0,0,0,.8.541c.76-.086,7.825-.009,8.568,0,.155-.086.451-.292.481-.537a4.808,4.808,0,0,0,.013-.7h-9.86Z" transform="translate(-50.9 -82.19)" fill="url(#linear-gradient)"/>
          <path id="Path_24920" data-name="Path 24920" d="M56.294,90.066a.2.2,0,0,1-.1-.026l-1.726-.893V86.315a.215.215,0,0,1,.429,0V88.89l1.494.773a.21.21,0,0,1,.09.288A.214.214,0,0,1,56.294,90.066Z" transform="translate(-52.938 -84.422)" fill="url(#linear-gradient-2)"/>
          <path id="Path_24921" data-name="Path 24921" d="M67.846,90.066a.209.209,0,0,1-.189-.116.211.211,0,0,1,.09-.288l1.494-.773V86.315a.215.215,0,0,1,.429,0v2.833l-1.726.893A.2.2,0,0,1,67.846,90.066Z" transform="translate(-60.45 -84.422)" fill="url(#linear-gradient-3)"/>
          <path id="Path_24922" data-name="Path 24922" d="M62.907,97.3H58.55l.009-1.133a.717.717,0,0,1,.811-.554c.3.056,1.893.03,2.889,0a.783.783,0,0,1,.67.558,3.059,3.059,0,0,1,0,.949l-.03.18Zm-3.928-.429h3.554a2.636,2.636,0,0,0-.021-.61.341.341,0,0,0-.275-.223c-.219.013-2.507.082-2.945,0-.193-.039-.283.146-.309.223v.61Z" transform="translate(-55.266 -89.843)" fill="url(#linear-gradient-4)"/>
          <path id="Path_24923" data-name="Path 24923" d="M63.355,93.051a.213.213,0,0,1-.215-.215V90.575a.215.215,0,1,1,.429,0v2.262A.213.213,0,0,1,63.355,93.051Z" transform="translate(-57.886 -86.853)" fill="url(#linear-gradient-5)"/>
          <path id="Path_24924" data-name="Path 24924" d="M62.3,102.706a.585.585,0,0,1-.549-.27c-.288-.5.326-1.494.451-1.687l.18-.279.18.283c.112.18.665,1.1.391,1.623a.66.66,0,0,1-.605.335h-.052Zm.077-1.408c-.2.386-.335.785-.253.923.03.056.146.056.206.056.193-.009.232-.077.24-.1.086-.167-.039-.549-.2-.876Z" transform="translate(-57.049 -92.624)" fill="url(#linear-gradient-6)"/>
          <path id="Path_24925" data-name="Path 24925" d="M55.727,102.971a.757.757,0,0,1-.459-.176.6.6,0,0,1-.288-.592c.1-.567,1.21-.936,1.429-1l.318-.1-.043.331c-.03.21-.193,1.266-.743,1.494a.552.552,0,0,1-.219.043Zm.468-1.236c-.4.167-.76.386-.786.545-.013.06.073.137.124.176.155.12.227.086.249.077C55.959,102.461,56.1,102.092,56.2,101.735Z" transform="translate(-53.225 -92.983)" fill="url(#linear-gradient-7)"/>
          <path id="Path_24926" data-name="Path 24926" d="M69.133,103.074a.261.261,0,0,1-.1-.013c-.528-.116-.833-1.1-.914-1.4l-.086-.322.331.056c.2.034,1.2.228,1.4.764a.629.629,0,0,1-.15.648A.615.615,0,0,1,69.133,103.074Zm-.489-1.168c.142.373.335.708.476.738.052.013.129-.073.159-.107.112-.137.09-.2.082-.223C69.3,102.151,68.97,102.005,68.644,101.907Z" transform="translate(-60.677 -93.12)" fill="url(#linear-gradient-8)"/>
        </g>
        <path id="Path_25014" data-name="Path 25014" d="M180.937,64.047a3.669,3.669,0,0,1-1.1-.167h0l-.056-.021a.682.682,0,0,1-.086-.039l-.021-.009a.742.742,0,0,1-.133-.06l-.017-.009h0a2.964,2.964,0,0,1-1.155-1.571h0a2.713,2.713,0,0,1,.884-2.249,2.772,2.772,0,0,0,.807-2.7l-.086-.618.485.468c.627.605,2,1.936,1.447,3.8a2.6,2.6,0,0,0,.395-1.438l-.056-.794.451.674c1.2,1.833,1.052,3.468-.416,4.486l-.047.026a3.744,3.744,0,0,1-1.283.227Zm-.931-.562a3.279,3.279,0,0,0,2.039-.056,2.365,2.365,0,0,0,.605-3.327,1.734,1.734,0,0,1-1.163,1.541l-.476.133.228-.438a2.924,2.924,0,0,0-.708-3.58,3.056,3.056,0,0,1-.966,2.455,2.293,2.293,0,0,0-.777,1.91c.09.258.476,1.1,1.039,1.292l.18.06v.009Zm-.425.013.142.1Z" transform="translate(-175.788 -45.245)" fill="url(#linear-gradient-9)"/>
      </g>
      <g id="Group_6325" data-name="Group 6325" transform="translate(16 441)" opacity="0.64">
        <g id="Group_4169-2" data-name="Group 4169" transform="translate(0 0)">
          <path id="Path_24919-2" data-name="Path 24919" d="M52.085,84.293a1.223,1.223,0,0,1-1.176-.884l-.009-.06V82.19H61.584l.017.193a5.371,5.371,0,0,1,0,.983,1.33,1.33,0,0,1-.768.9l-.043.021h-.052c-.077,0-7.808-.086-8.576,0H52.08Zm-.755-.97a.783.783,0,0,0,.8.541c.76-.086,7.825-.009,8.568,0,.155-.086.451-.292.481-.537a4.808,4.808,0,0,0,.013-.7h-9.86Z" transform="translate(-50.9 -82.19)" fill="url(#linear-gradient)"/>
          <path id="Path_24920-2" data-name="Path 24920" d="M56.294,90.066a.2.2,0,0,1-.1-.026l-1.726-.893V86.315a.215.215,0,0,1,.429,0V88.89l1.494.773a.21.21,0,0,1,.09.288A.214.214,0,0,1,56.294,90.066Z" transform="translate(-52.938 -84.422)" fill="url(#linear-gradient-2)"/>
          <path id="Path_24921-2" data-name="Path 24921" d="M67.846,90.066a.209.209,0,0,1-.189-.116.211.211,0,0,1,.09-.288l1.494-.773V86.315a.215.215,0,0,1,.429,0v2.833l-1.726.893A.2.2,0,0,1,67.846,90.066Z" transform="translate(-60.45 -84.422)" fill="url(#linear-gradient-3)"/>
          <path id="Path_24922-2" data-name="Path 24922" d="M62.907,97.3H58.55l.009-1.133a.717.717,0,0,1,.811-.554c.3.056,1.893.03,2.889,0a.783.783,0,0,1,.67.558,3.059,3.059,0,0,1,0,.949l-.03.18Zm-3.928-.429h3.554a2.636,2.636,0,0,0-.021-.61.341.341,0,0,0-.275-.223c-.219.013-2.507.082-2.945,0-.193-.039-.283.146-.309.223v.61Z" transform="translate(-55.266 -89.843)" fill="url(#linear-gradient-4)"/>
          <path id="Path_24923-2" data-name="Path 24923" d="M63.355,93.051a.213.213,0,0,1-.215-.215V90.575a.215.215,0,1,1,.429,0v2.262A.213.213,0,0,1,63.355,93.051Z" transform="translate(-57.886 -86.853)" fill="url(#linear-gradient-5)"/>
          <path id="Path_24924-2" data-name="Path 24924" d="M62.3,102.706a.585.585,0,0,1-.549-.27c-.288-.5.326-1.494.451-1.687l.18-.279.18.283c.112.18.665,1.1.391,1.623a.66.66,0,0,1-.605.335h-.052Zm.077-1.408c-.2.386-.335.785-.253.923.03.056.146.056.206.056.193-.009.232-.077.24-.1.086-.167-.039-.549-.2-.876Z" transform="translate(-57.049 -92.624)" fill="url(#linear-gradient-6)"/>
          <path id="Path_24925-2" data-name="Path 24925" d="M55.727,102.971a.757.757,0,0,1-.459-.176.6.6,0,0,1-.288-.592c.1-.567,1.21-.936,1.429-1l.318-.1-.043.331c-.03.21-.193,1.266-.743,1.494a.552.552,0,0,1-.219.043Zm.468-1.236c-.4.167-.76.386-.786.545-.013.06.073.137.124.176.155.12.227.086.249.077C55.959,102.461,56.1,102.092,56.2,101.735Z" transform="translate(-53.225 -92.983)" fill="url(#linear-gradient-7)"/>
          <path id="Path_24926-2" data-name="Path 24926" d="M69.133,103.074a.261.261,0,0,1-.1-.013c-.528-.116-.833-1.1-.914-1.4l-.086-.322.331.056c.2.034,1.2.228,1.4.764a.629.629,0,0,1-.15.648A.615.615,0,0,1,69.133,103.074Zm-.489-1.168c.142.373.335.708.476.738.052.013.129-.073.159-.107.112-.137.09-.2.082-.223C69.3,102.151,68.97,102.005,68.644,101.907Z" transform="translate(-60.677 -93.12)" fill="url(#linear-gradient-8)"/>
        </g>
        <path id="Path_25014-2" data-name="Path 25014" d="M180.937,64.047a3.669,3.669,0,0,1-1.1-.167h0l-.056-.021a.682.682,0,0,1-.086-.039l-.021-.009a.742.742,0,0,1-.133-.06l-.017-.009h0a2.964,2.964,0,0,1-1.155-1.571h0a2.713,2.713,0,0,1,.884-2.249,2.772,2.772,0,0,0,.807-2.7l-.086-.618.485.468c.627.605,2,1.936,1.447,3.8a2.6,2.6,0,0,0,.395-1.438l-.056-.794.451.674c1.2,1.833,1.052,3.468-.416,4.486l-.047.026a3.744,3.744,0,0,1-1.283.227Zm-.931-.562a3.279,3.279,0,0,0,2.039-.056,2.365,2.365,0,0,0,.605-3.327,1.734,1.734,0,0,1-1.163,1.541l-.476.133.228-.438a2.924,2.924,0,0,0-.708-3.58,3.056,3.056,0,0,1-.966,2.455,2.293,2.293,0,0,0-.777,1.91c.09.258.476,1.1,1.039,1.292l.18.06v.009Zm-.425.013.142.1Z" transform="translate(-175.788 -45.245)" fill="url(#linear-gradient-9)"/>
      </g>
      <g id="Group_6328" data-name="Group 6328" transform="translate(16 441)" opacity="0.64">
        <g id="Group_4169-3" data-name="Group 4169" transform="translate(0 0)">
          <path id="Path_24919-3" data-name="Path 24919" d="M52.085,84.293a1.223,1.223,0,0,1-1.176-.884l-.009-.06V82.19H61.584l.017.193a5.371,5.371,0,0,1,0,.983,1.33,1.33,0,0,1-.768.9l-.043.021h-.052c-.077,0-7.808-.086-8.576,0H52.08Zm-.755-.97a.783.783,0,0,0,.8.541c.76-.086,7.825-.009,8.568,0,.155-.086.451-.292.481-.537a4.808,4.808,0,0,0,.013-.7h-9.86Z" transform="translate(-50.9 -82.19)" fill="url(#linear-gradient)"/>
          <path id="Path_24920-3" data-name="Path 24920" d="M56.294,90.066a.2.2,0,0,1-.1-.026l-1.726-.893V86.315a.215.215,0,0,1,.429,0V88.89l1.494.773a.21.21,0,0,1,.09.288A.214.214,0,0,1,56.294,90.066Z" transform="translate(-52.938 -84.422)" fill="url(#linear-gradient-2)"/>
          <path id="Path_24921-3" data-name="Path 24921" d="M67.846,90.066a.209.209,0,0,1-.189-.116.211.211,0,0,1,.09-.288l1.494-.773V86.315a.215.215,0,0,1,.429,0v2.833l-1.726.893A.2.2,0,0,1,67.846,90.066Z" transform="translate(-60.45 -84.422)" fill="url(#linear-gradient-3)"/>
          <path id="Path_24922-3" data-name="Path 24922" d="M62.907,97.3H58.55l.009-1.133a.717.717,0,0,1,.811-.554c.3.056,1.893.03,2.889,0a.783.783,0,0,1,.67.558,3.059,3.059,0,0,1,0,.949l-.03.18Zm-3.928-.429h3.554a2.636,2.636,0,0,0-.021-.61.341.341,0,0,0-.275-.223c-.219.013-2.507.082-2.945,0-.193-.039-.283.146-.309.223v.61Z" transform="translate(-55.266 -89.843)" fill="url(#linear-gradient-4)"/>
          <path id="Path_24923-3" data-name="Path 24923" d="M63.355,93.051a.213.213,0,0,1-.215-.215V90.575a.215.215,0,1,1,.429,0v2.262A.213.213,0,0,1,63.355,93.051Z" transform="translate(-57.886 -86.853)" fill="url(#linear-gradient-5)"/>
          <path id="Path_24924-3" data-name="Path 24924" d="M62.3,102.706a.585.585,0,0,1-.549-.27c-.288-.5.326-1.494.451-1.687l.18-.279.18.283c.112.18.665,1.1.391,1.623a.66.66,0,0,1-.605.335h-.052Zm.077-1.408c-.2.386-.335.785-.253.923.03.056.146.056.206.056.193-.009.232-.077.24-.1.086-.167-.039-.549-.2-.876Z" transform="translate(-57.049 -92.624)" fill="url(#linear-gradient-6)"/>
          <path id="Path_24925-3" data-name="Path 24925" d="M55.727,102.971a.757.757,0,0,1-.459-.176.6.6,0,0,1-.288-.592c.1-.567,1.21-.936,1.429-1l.318-.1-.043.331c-.03.21-.193,1.266-.743,1.494a.552.552,0,0,1-.219.043Zm.468-1.236c-.4.167-.76.386-.786.545-.013.06.073.137.124.176.155.12.227.086.249.077C55.959,102.461,56.1,102.092,56.2,101.735Z" transform="translate(-53.225 -92.983)" fill="url(#linear-gradient-7)"/>
          <path id="Path_24926-3" data-name="Path 24926" d="M69.133,103.074a.261.261,0,0,1-.1-.013c-.528-.116-.833-1.1-.914-1.4l-.086-.322.331.056c.2.034,1.2.228,1.4.764a.629.629,0,0,1-.15.648A.615.615,0,0,1,69.133,103.074Zm-.489-1.168c.142.373.335.708.476.738.052.013.129-.073.159-.107.112-.137.09-.2.082-.223C69.3,102.151,68.97,102.005,68.644,101.907Z" transform="translate(-60.677 -93.12)" fill="url(#linear-gradient-8)"/>
        </g>
        <path id="Path_25014-3" data-name="Path 25014" d="M180.937,64.047a3.669,3.669,0,0,1-1.1-.167h0l-.056-.021a.682.682,0,0,1-.086-.039l-.021-.009a.742.742,0,0,1-.133-.06l-.017-.009h0a2.964,2.964,0,0,1-1.155-1.571h0a2.713,2.713,0,0,1,.884-2.249,2.772,2.772,0,0,0,.807-2.7l-.086-.618.485.468c.627.605,2,1.936,1.447,3.8a2.6,2.6,0,0,0,.395-1.438l-.056-.794.451.674c1.2,1.833,1.052,3.468-.416,4.486l-.047.026a3.744,3.744,0,0,1-1.283.227Zm-.931-.562a3.279,3.279,0,0,0,2.039-.056,2.365,2.365,0,0,0,.605-3.327,1.734,1.734,0,0,1-1.163,1.541l-.476.133.228-.438a2.924,2.924,0,0,0-.708-3.58,3.056,3.056,0,0,1-.966,2.455,2.293,2.293,0,0,0-.777,1.91c.09.258.476,1.1,1.039,1.292l.18.06v.009Zm-.425.013.142.1Z" transform="translate(-175.788 -45.245)" fill="url(#linear-gradient-9)"/>
      </g>
      <g id="Group_5287" data-name="Group 5287" transform="translate(16 441)" opacity="0.64">
        <g id="Group_4169-4" data-name="Group 4169" transform="translate(0 0)">
          <path id="Path_24919-4" data-name="Path 24919" d="M52.085,84.293a1.223,1.223,0,0,1-1.176-.884l-.009-.06V82.19H61.584l.017.193a5.371,5.371,0,0,1,0,.983,1.33,1.33,0,0,1-.768.9l-.043.021h-.052c-.077,0-7.808-.086-8.576,0H52.08Zm-.755-.97a.783.783,0,0,0,.8.541c.76-.086,7.825-.009,8.568,0,.155-.086.451-.292.481-.537a4.808,4.808,0,0,0,.013-.7h-9.86Z" transform="translate(-50.9 -82.19)" fill="url(#linear-gradient)"/>
          <path id="Path_24920-4" data-name="Path 24920" d="M56.294,90.066a.2.2,0,0,1-.1-.026l-1.726-.893V86.315a.215.215,0,0,1,.429,0V88.89l1.494.773a.21.21,0,0,1,.09.288A.214.214,0,0,1,56.294,90.066Z" transform="translate(-52.938 -84.422)" fill="url(#linear-gradient-2)"/>
          <path id="Path_24921-4" data-name="Path 24921" d="M67.846,90.066a.209.209,0,0,1-.189-.116.211.211,0,0,1,.09-.288l1.494-.773V86.315a.215.215,0,0,1,.429,0v2.833l-1.726.893A.2.2,0,0,1,67.846,90.066Z" transform="translate(-60.45 -84.422)" fill="url(#linear-gradient-3)"/>
          <path id="Path_24922-4" data-name="Path 24922" d="M62.907,97.3H58.55l.009-1.133a.717.717,0,0,1,.811-.554c.3.056,1.893.03,2.889,0a.783.783,0,0,1,.67.558,3.059,3.059,0,0,1,0,.949l-.03.18Zm-3.928-.429h3.554a2.636,2.636,0,0,0-.021-.61.341.341,0,0,0-.275-.223c-.219.013-2.507.082-2.945,0-.193-.039-.283.146-.309.223v.61Z" transform="translate(-55.266 -89.843)" fill="url(#linear-gradient-4)"/>
          <path id="Path_24923-4" data-name="Path 24923" d="M63.355,93.051a.213.213,0,0,1-.215-.215V90.575a.215.215,0,1,1,.429,0v2.262A.213.213,0,0,1,63.355,93.051Z" transform="translate(-57.886 -86.853)" fill="url(#linear-gradient-5)"/>
          <path id="Path_24924-4" data-name="Path 24924" d="M62.3,102.706a.585.585,0,0,1-.549-.27c-.288-.5.326-1.494.451-1.687l.18-.279.18.283c.112.18.665,1.1.391,1.623a.66.66,0,0,1-.605.335h-.052Zm.077-1.408c-.2.386-.335.785-.253.923.03.056.146.056.206.056.193-.009.232-.077.24-.1.086-.167-.039-.549-.2-.876Z" transform="translate(-57.049 -92.624)" fill="url(#linear-gradient-6)"/>
          <path id="Path_24925-4" data-name="Path 24925" d="M55.727,102.971a.757.757,0,0,1-.459-.176.6.6,0,0,1-.288-.592c.1-.567,1.21-.936,1.429-1l.318-.1-.043.331c-.03.21-.193,1.266-.743,1.494a.552.552,0,0,1-.219.043Zm.468-1.236c-.4.167-.76.386-.786.545-.013.06.073.137.124.176.155.12.227.086.249.077C55.959,102.461,56.1,102.092,56.2,101.735Z" transform="translate(-53.225 -92.983)" fill="url(#linear-gradient-7)"/>
          <path id="Path_24926-4" data-name="Path 24926" d="M69.133,103.074a.261.261,0,0,1-.1-.013c-.528-.116-.833-1.1-.914-1.4l-.086-.322.331.056c.2.034,1.2.228,1.4.764a.629.629,0,0,1-.15.648A.615.615,0,0,1,69.133,103.074Zm-.489-1.168c.142.373.335.708.476.738.052.013.129-.073.159-.107.112-.137.09-.2.082-.223C69.3,102.151,68.97,102.005,68.644,101.907Z" transform="translate(-60.677 -93.12)" fill="url(#linear-gradient-8)"/>
        </g>
        <path id="Path_25014-4" data-name="Path 25014" d="M180.937,64.047a3.669,3.669,0,0,1-1.1-.167h0l-.056-.021a.682.682,0,0,1-.086-.039l-.021-.009a.742.742,0,0,1-.133-.06l-.017-.009h0a2.964,2.964,0,0,1-1.155-1.571h0a2.713,2.713,0,0,1,.884-2.249,2.772,2.772,0,0,0,.807-2.7l-.086-.618.485.468c.627.605,2,1.936,1.447,3.8a2.6,2.6,0,0,0,.395-1.438l-.056-.794.451.674c1.2,1.833,1.052,3.468-.416,4.486l-.047.026a3.744,3.744,0,0,1-1.283.227Zm-.931-.562a3.279,3.279,0,0,0,2.039-.056,2.365,2.365,0,0,0,.605-3.327,1.734,1.734,0,0,1-1.163,1.541l-.476.133.228-.438a2.924,2.924,0,0,0-.708-3.58,3.056,3.056,0,0,1-.966,2.455,2.293,2.293,0,0,0-.777,1.91c.09.258.476,1.1,1.039,1.292l.18.06v.009Zm-.425.013.142.1Z" transform="translate(-175.788 -45.245)" fill="url(#linear-gradient-9)"/>
      </g>
      <g id="Group_6326" data-name="Group 6326" transform="translate(16 441)" opacity="0.64">
        <g id="Group_4169-5" data-name="Group 4169" transform="translate(0 0)">
          <path id="Path_24919-5" data-name="Path 24919" d="M52.085,84.293a1.223,1.223,0,0,1-1.176-.884l-.009-.06V82.19H61.584l.017.193a5.371,5.371,0,0,1,0,.983,1.33,1.33,0,0,1-.768.9l-.043.021h-.052c-.077,0-7.808-.086-8.576,0H52.08Zm-.755-.97a.783.783,0,0,0,.8.541c.76-.086,7.825-.009,8.568,0,.155-.086.451-.292.481-.537a4.808,4.808,0,0,0,.013-.7h-9.86Z" transform="translate(-50.9 -82.19)" fill="url(#linear-gradient)"/>
          <path id="Path_24920-5" data-name="Path 24920" d="M56.294,90.066a.2.2,0,0,1-.1-.026l-1.726-.893V86.315a.215.215,0,0,1,.429,0V88.89l1.494.773a.21.21,0,0,1,.09.288A.214.214,0,0,1,56.294,90.066Z" transform="translate(-52.938 -84.422)" fill="url(#linear-gradient-2)"/>
          <path id="Path_24921-5" data-name="Path 24921" d="M67.846,90.066a.209.209,0,0,1-.189-.116.211.211,0,0,1,.09-.288l1.494-.773V86.315a.215.215,0,0,1,.429,0v2.833l-1.726.893A.2.2,0,0,1,67.846,90.066Z" transform="translate(-60.45 -84.422)" fill="url(#linear-gradient-3)"/>
          <path id="Path_24922-5" data-name="Path 24922" d="M62.907,97.3H58.55l.009-1.133a.717.717,0,0,1,.811-.554c.3.056,1.893.03,2.889,0a.783.783,0,0,1,.67.558,3.059,3.059,0,0,1,0,.949l-.03.18Zm-3.928-.429h3.554a2.636,2.636,0,0,0-.021-.61.341.341,0,0,0-.275-.223c-.219.013-2.507.082-2.945,0-.193-.039-.283.146-.309.223v.61Z" transform="translate(-55.266 -89.843)" fill="url(#linear-gradient-4)"/>
          <path id="Path_24923-5" data-name="Path 24923" d="M63.355,93.051a.213.213,0,0,1-.215-.215V90.575a.215.215,0,1,1,.429,0v2.262A.213.213,0,0,1,63.355,93.051Z" transform="translate(-57.886 -86.853)" fill="url(#linear-gradient-5)"/>
          <path id="Path_24924-5" data-name="Path 24924" d="M62.3,102.706a.585.585,0,0,1-.549-.27c-.288-.5.326-1.494.451-1.687l.18-.279.18.283c.112.18.665,1.1.391,1.623a.66.66,0,0,1-.605.335h-.052Zm.077-1.408c-.2.386-.335.785-.253.923.03.056.146.056.206.056.193-.009.232-.077.24-.1.086-.167-.039-.549-.2-.876Z" transform="translate(-57.049 -92.624)" fill="url(#linear-gradient-6)"/>
          <path id="Path_24925-5" data-name="Path 24925" d="M55.727,102.971a.757.757,0,0,1-.459-.176.6.6,0,0,1-.288-.592c.1-.567,1.21-.936,1.429-1l.318-.1-.043.331c-.03.21-.193,1.266-.743,1.494a.552.552,0,0,1-.219.043Zm.468-1.236c-.4.167-.76.386-.786.545-.013.06.073.137.124.176.155.12.227.086.249.077C55.959,102.461,56.1,102.092,56.2,101.735Z" transform="translate(-53.225 -92.983)" fill="url(#linear-gradient-7)"/>
          <path id="Path_24926-5" data-name="Path 24926" d="M69.133,103.074a.261.261,0,0,1-.1-.013c-.528-.116-.833-1.1-.914-1.4l-.086-.322.331.056c.2.034,1.2.228,1.4.764a.629.629,0,0,1-.15.648A.615.615,0,0,1,69.133,103.074Zm-.489-1.168c.142.373.335.708.476.738.052.013.129-.073.159-.107.112-.137.09-.2.082-.223C69.3,102.151,68.97,102.005,68.644,101.907Z" transform="translate(-60.677 -93.12)" fill="url(#linear-gradient-8)"/>
        </g>
        <path id="Path_25014-5" data-name="Path 25014" d="M180.937,64.047a3.669,3.669,0,0,1-1.1-.167h0l-.056-.021a.682.682,0,0,1-.086-.039l-.021-.009a.742.742,0,0,1-.133-.06l-.017-.009h0a2.964,2.964,0,0,1-1.155-1.571h0a2.713,2.713,0,0,1,.884-2.249,2.772,2.772,0,0,0,.807-2.7l-.086-.618.485.468c.627.605,2,1.936,1.447,3.8a2.6,2.6,0,0,0,.395-1.438l-.056-.794.451.674c1.2,1.833,1.052,3.468-.416,4.486l-.047.026a3.744,3.744,0,0,1-1.283.227Zm-.931-.562a3.279,3.279,0,0,0,2.039-.056,2.365,2.365,0,0,0,.605-3.327,1.734,1.734,0,0,1-1.163,1.541l-.476.133.228-.438a2.924,2.924,0,0,0-.708-3.58,3.056,3.056,0,0,1-.966,2.455,2.293,2.293,0,0,0-.777,1.91c.09.258.476,1.1,1.039,1.292l.18.06v.009Zm-.425.013.142.1Z" transform="translate(-175.788 -45.245)" fill="url(#linear-gradient-9)"/>
      </g>
      <g id="Group_6329" data-name="Group 6329" transform="translate(16 441)" opacity="0.64">
        <g id="Group_4169-6" data-name="Group 4169" transform="translate(0 0)">
          <path id="Path_24919-6" data-name="Path 24919" d="M52.085,84.293a1.223,1.223,0,0,1-1.176-.884l-.009-.06V82.19H61.584l.017.193a5.371,5.371,0,0,1,0,.983,1.33,1.33,0,0,1-.768.9l-.043.021h-.052c-.077,0-7.808-.086-8.576,0H52.08Zm-.755-.97a.783.783,0,0,0,.8.541c.76-.086,7.825-.009,8.568,0,.155-.086.451-.292.481-.537a4.808,4.808,0,0,0,.013-.7h-9.86Z" transform="translate(-50.9 -82.19)" fill="url(#linear-gradient)"/>
          <path id="Path_24920-6" data-name="Path 24920" d="M56.294,90.066a.2.2,0,0,1-.1-.026l-1.726-.893V86.315a.215.215,0,0,1,.429,0V88.89l1.494.773a.21.21,0,0,1,.09.288A.214.214,0,0,1,56.294,90.066Z" transform="translate(-52.938 -84.422)" fill="url(#linear-gradient-2)"/>
          <path id="Path_24921-6" data-name="Path 24921" d="M67.846,90.066a.209.209,0,0,1-.189-.116.211.211,0,0,1,.09-.288l1.494-.773V86.315a.215.215,0,0,1,.429,0v2.833l-1.726.893A.2.2,0,0,1,67.846,90.066Z" transform="translate(-60.45 -84.422)" fill="url(#linear-gradient-3)"/>
          <path id="Path_24922-6" data-name="Path 24922" d="M62.907,97.3H58.55l.009-1.133a.717.717,0,0,1,.811-.554c.3.056,1.893.03,2.889,0a.783.783,0,0,1,.67.558,3.059,3.059,0,0,1,0,.949l-.03.18Zm-3.928-.429h3.554a2.636,2.636,0,0,0-.021-.61.341.341,0,0,0-.275-.223c-.219.013-2.507.082-2.945,0-.193-.039-.283.146-.309.223v.61Z" transform="translate(-55.266 -89.843)" fill="url(#linear-gradient-4)"/>
          <path id="Path_24923-6" data-name="Path 24923" d="M63.355,93.051a.213.213,0,0,1-.215-.215V90.575a.215.215,0,1,1,.429,0v2.262A.213.213,0,0,1,63.355,93.051Z" transform="translate(-57.886 -86.853)" fill="url(#linear-gradient-5)"/>
          <path id="Path_24924-6" data-name="Path 24924" d="M62.3,102.706a.585.585,0,0,1-.549-.27c-.288-.5.326-1.494.451-1.687l.18-.279.18.283c.112.18.665,1.1.391,1.623a.66.66,0,0,1-.605.335h-.052Zm.077-1.408c-.2.386-.335.785-.253.923.03.056.146.056.206.056.193-.009.232-.077.24-.1.086-.167-.039-.549-.2-.876Z" transform="translate(-57.049 -92.624)" fill="url(#linear-gradient-6)"/>
          <path id="Path_24925-6" data-name="Path 24925" d="M55.727,102.971a.757.757,0,0,1-.459-.176.6.6,0,0,1-.288-.592c.1-.567,1.21-.936,1.429-1l.318-.1-.043.331c-.03.21-.193,1.266-.743,1.494a.552.552,0,0,1-.219.043Zm.468-1.236c-.4.167-.76.386-.786.545-.013.06.073.137.124.176.155.12.227.086.249.077C55.959,102.461,56.1,102.092,56.2,101.735Z" transform="translate(-53.225 -92.983)" fill="url(#linear-gradient-7)"/>
          <path id="Path_24926-6" data-name="Path 24926" d="M69.133,103.074a.261.261,0,0,1-.1-.013c-.528-.116-.833-1.1-.914-1.4l-.086-.322.331.056c.2.034,1.2.228,1.4.764a.629.629,0,0,1-.15.648A.615.615,0,0,1,69.133,103.074Zm-.489-1.168c.142.373.335.708.476.738.052.013.129-.073.159-.107.112-.137.09-.2.082-.223C69.3,102.151,68.97,102.005,68.644,101.907Z" transform="translate(-60.677 -93.12)" fill="url(#linear-gradient-8)"/>
        </g>
        <path id="Path_25014-6" data-name="Path 25014" d="M180.937,64.047a3.669,3.669,0,0,1-1.1-.167h0l-.056-.021a.682.682,0,0,1-.086-.039l-.021-.009a.742.742,0,0,1-.133-.06l-.017-.009h0a2.964,2.964,0,0,1-1.155-1.571h0a2.713,2.713,0,0,1,.884-2.249,2.772,2.772,0,0,0,.807-2.7l-.086-.618.485.468c.627.605,2,1.936,1.447,3.8a2.6,2.6,0,0,0,.395-1.438l-.056-.794.451.674c1.2,1.833,1.052,3.468-.416,4.486l-.047.026a3.744,3.744,0,0,1-1.283.227Zm-.931-.562a3.279,3.279,0,0,0,2.039-.056,2.365,2.365,0,0,0,.605-3.327,1.734,1.734,0,0,1-1.163,1.541l-.476.133.228-.438a2.924,2.924,0,0,0-.708-3.58,3.056,3.056,0,0,1-.966,2.455,2.293,2.293,0,0,0-.777,1.91c.09.258.476,1.1,1.039,1.292l.18.06v.009Zm-.425.013.142.1Z" transform="translate(-175.788 -45.245)" fill="url(#linear-gradient-9)"/>
      </g>
      <g id="Group_5288" data-name="Group 5288" transform="translate(16 441)" opacity="0.64">
        <g id="Group_4169-7" data-name="Group 4169" transform="translate(0 0)">
          <path id="Path_24919-7" data-name="Path 24919" d="M52.085,84.293a1.223,1.223,0,0,1-1.176-.884l-.009-.06V82.19H61.584l.017.193a5.371,5.371,0,0,1,0,.983,1.33,1.33,0,0,1-.768.9l-.043.021h-.052c-.077,0-7.808-.086-8.576,0H52.08Zm-.755-.97a.783.783,0,0,0,.8.541c.76-.086,7.825-.009,8.568,0,.155-.086.451-.292.481-.537a4.808,4.808,0,0,0,.013-.7h-9.86Z" transform="translate(-50.9 -82.19)" fill="url(#linear-gradient)"/>
          <path id="Path_24920-7" data-name="Path 24920" d="M56.294,90.066a.2.2,0,0,1-.1-.026l-1.726-.893V86.315a.215.215,0,0,1,.429,0V88.89l1.494.773a.21.21,0,0,1,.09.288A.214.214,0,0,1,56.294,90.066Z" transform="translate(-52.938 -84.422)" fill="url(#linear-gradient-2)"/>
          <path id="Path_24921-7" data-name="Path 24921" d="M67.846,90.066a.209.209,0,0,1-.189-.116.211.211,0,0,1,.09-.288l1.494-.773V86.315a.215.215,0,0,1,.429,0v2.833l-1.726.893A.2.2,0,0,1,67.846,90.066Z" transform="translate(-60.45 -84.422)" fill="url(#linear-gradient-3)"/>
          <path id="Path_24922-7" data-name="Path 24922" d="M62.907,97.3H58.55l.009-1.133a.717.717,0,0,1,.811-.554c.3.056,1.893.03,2.889,0a.783.783,0,0,1,.67.558,3.059,3.059,0,0,1,0,.949l-.03.18Zm-3.928-.429h3.554a2.636,2.636,0,0,0-.021-.61.341.341,0,0,0-.275-.223c-.219.013-2.507.082-2.945,0-.193-.039-.283.146-.309.223v.61Z" transform="translate(-55.266 -89.843)" fill="url(#linear-gradient-4)"/>
          <path id="Path_24923-7" data-name="Path 24923" d="M63.355,93.051a.213.213,0,0,1-.215-.215V90.575a.215.215,0,1,1,.429,0v2.262A.213.213,0,0,1,63.355,93.051Z" transform="translate(-57.886 -86.853)" fill="url(#linear-gradient-5)"/>
          <path id="Path_24924-7" data-name="Path 24924" d="M62.3,102.706a.585.585,0,0,1-.549-.27c-.288-.5.326-1.494.451-1.687l.18-.279.18.283c.112.18.665,1.1.391,1.623a.66.66,0,0,1-.605.335h-.052Zm.077-1.408c-.2.386-.335.785-.253.923.03.056.146.056.206.056.193-.009.232-.077.24-.1.086-.167-.039-.549-.2-.876Z" transform="translate(-57.049 -92.624)" fill="url(#linear-gradient-6)"/>
          <path id="Path_24925-7" data-name="Path 24925" d="M55.727,102.971a.757.757,0,0,1-.459-.176.6.6,0,0,1-.288-.592c.1-.567,1.21-.936,1.429-1l.318-.1-.043.331c-.03.21-.193,1.266-.743,1.494a.552.552,0,0,1-.219.043Zm.468-1.236c-.4.167-.76.386-.786.545-.013.06.073.137.124.176.155.12.227.086.249.077C55.959,102.461,56.1,102.092,56.2,101.735Z" transform="translate(-53.225 -92.983)" fill="url(#linear-gradient-7)"/>
          <path id="Path_24926-7" data-name="Path 24926" d="M69.133,103.074a.261.261,0,0,1-.1-.013c-.528-.116-.833-1.1-.914-1.4l-.086-.322.331.056c.2.034,1.2.228,1.4.764a.629.629,0,0,1-.15.648A.615.615,0,0,1,69.133,103.074Zm-.489-1.168c.142.373.335.708.476.738.052.013.129-.073.159-.107.112-.137.09-.2.082-.223C69.3,102.151,68.97,102.005,68.644,101.907Z" transform="translate(-60.677 -93.12)" fill="url(#linear-gradient-8)"/>
        </g>
        <path id="Path_25014-7" data-name="Path 25014" d="M180.937,64.047a3.669,3.669,0,0,1-1.1-.167h0l-.056-.021a.682.682,0,0,1-.086-.039l-.021-.009a.742.742,0,0,1-.133-.06l-.017-.009h0a2.964,2.964,0,0,1-1.155-1.571h0a2.713,2.713,0,0,1,.884-2.249,2.772,2.772,0,0,0,.807-2.7l-.086-.618.485.468c.627.605,2,1.936,1.447,3.8a2.6,2.6,0,0,0,.395-1.438l-.056-.794.451.674c1.2,1.833,1.052,3.468-.416,4.486l-.047.026a3.744,3.744,0,0,1-1.283.227Zm-.931-.562a3.279,3.279,0,0,0,2.039-.056,2.365,2.365,0,0,0,.605-3.327,1.734,1.734,0,0,1-1.163,1.541l-.476.133.228-.438a2.924,2.924,0,0,0-.708-3.58,3.056,3.056,0,0,1-.966,2.455,2.293,2.293,0,0,0-.777,1.91c.09.258.476,1.1,1.039,1.292l.18.06v.009Zm-.425.013.142.1Z" transform="translate(-175.788 -45.245)" fill="url(#linear-gradient-9)"/>
      </g>
      <g id="Group_6327" data-name="Group 6327" transform="translate(16 441)" opacity="0.64">
        <g id="Group_4169-8" data-name="Group 4169" transform="translate(0 0)">
          <path id="Path_24919-8" data-name="Path 24919" d="M52.085,84.293a1.223,1.223,0,0,1-1.176-.884l-.009-.06V82.19H61.584l.017.193a5.371,5.371,0,0,1,0,.983,1.33,1.33,0,0,1-.768.9l-.043.021h-.052c-.077,0-7.808-.086-8.576,0H52.08Zm-.755-.97a.783.783,0,0,0,.8.541c.76-.086,7.825-.009,8.568,0,.155-.086.451-.292.481-.537a4.808,4.808,0,0,0,.013-.7h-9.86Z" transform="translate(-50.9 -82.19)" fill="url(#linear-gradient)"/>
          <path id="Path_24920-8" data-name="Path 24920" d="M56.294,90.066a.2.2,0,0,1-.1-.026l-1.726-.893V86.315a.215.215,0,0,1,.429,0V88.89l1.494.773a.21.21,0,0,1,.09.288A.214.214,0,0,1,56.294,90.066Z" transform="translate(-52.938 -84.422)" fill="url(#linear-gradient-2)"/>
          <path id="Path_24921-8" data-name="Path 24921" d="M67.846,90.066a.209.209,0,0,1-.189-.116.211.211,0,0,1,.09-.288l1.494-.773V86.315a.215.215,0,0,1,.429,0v2.833l-1.726.893A.2.2,0,0,1,67.846,90.066Z" transform="translate(-60.45 -84.422)" fill="url(#linear-gradient-3)"/>
          <path id="Path_24922-8" data-name="Path 24922" d="M62.907,97.3H58.55l.009-1.133a.717.717,0,0,1,.811-.554c.3.056,1.893.03,2.889,0a.783.783,0,0,1,.67.558,3.059,3.059,0,0,1,0,.949l-.03.18Zm-3.928-.429h3.554a2.636,2.636,0,0,0-.021-.61.341.341,0,0,0-.275-.223c-.219.013-2.507.082-2.945,0-.193-.039-.283.146-.309.223v.61Z" transform="translate(-55.266 -89.843)" fill="url(#linear-gradient-4)"/>
          <path id="Path_24923-8" data-name="Path 24923" d="M63.355,93.051a.213.213,0,0,1-.215-.215V90.575a.215.215,0,1,1,.429,0v2.262A.213.213,0,0,1,63.355,93.051Z" transform="translate(-57.886 -86.853)" fill="url(#linear-gradient-5)"/>
          <path id="Path_24924-8" data-name="Path 24924" d="M62.3,102.706a.585.585,0,0,1-.549-.27c-.288-.5.326-1.494.451-1.687l.18-.279.18.283c.112.18.665,1.1.391,1.623a.66.66,0,0,1-.605.335h-.052Zm.077-1.408c-.2.386-.335.785-.253.923.03.056.146.056.206.056.193-.009.232-.077.24-.1.086-.167-.039-.549-.2-.876Z" transform="translate(-57.049 -92.624)" fill="url(#linear-gradient-6)"/>
          <path id="Path_24925-8" data-name="Path 24925" d="M55.727,102.971a.757.757,0,0,1-.459-.176.6.6,0,0,1-.288-.592c.1-.567,1.21-.936,1.429-1l.318-.1-.043.331c-.03.21-.193,1.266-.743,1.494a.552.552,0,0,1-.219.043Zm.468-1.236c-.4.167-.76.386-.786.545-.013.06.073.137.124.176.155.12.227.086.249.077C55.959,102.461,56.1,102.092,56.2,101.735Z" transform="translate(-53.225 -92.983)" fill="url(#linear-gradient-7)"/>
          <path id="Path_24926-8" data-name="Path 24926" d="M69.133,103.074a.261.261,0,0,1-.1-.013c-.528-.116-.833-1.1-.914-1.4l-.086-.322.331.056c.2.034,1.2.228,1.4.764a.629.629,0,0,1-.15.648A.615.615,0,0,1,69.133,103.074Zm-.489-1.168c.142.373.335.708.476.738.052.013.129-.073.159-.107.112-.137.09-.2.082-.223C69.3,102.151,68.97,102.005,68.644,101.907Z" transform="translate(-60.677 -93.12)" fill="url(#linear-gradient-8)"/>
        </g>
        <path id="Path_25014-8" data-name="Path 25014" d="M180.937,64.047a3.669,3.669,0,0,1-1.1-.167h0l-.056-.021a.682.682,0,0,1-.086-.039l-.021-.009a.742.742,0,0,1-.133-.06l-.017-.009h0a2.964,2.964,0,0,1-1.155-1.571h0a2.713,2.713,0,0,1,.884-2.249,2.772,2.772,0,0,0,.807-2.7l-.086-.618.485.468c.627.605,2,1.936,1.447,3.8a2.6,2.6,0,0,0,.395-1.438l-.056-.794.451.674c1.2,1.833,1.052,3.468-.416,4.486l-.047.026a3.744,3.744,0,0,1-1.283.227Zm-.931-.562a3.279,3.279,0,0,0,2.039-.056,2.365,2.365,0,0,0,.605-3.327,1.734,1.734,0,0,1-1.163,1.541l-.476.133.228-.438a2.924,2.924,0,0,0-.708-3.58,3.056,3.056,0,0,1-.966,2.455,2.293,2.293,0,0,0-.777,1.91c.09.258.476,1.1,1.039,1.292l.18.06v.009Zm-.425.013.142.1Z" transform="translate(-175.788 -45.245)" fill="url(#linear-gradient-9)"/>
      </g>
      <g id="Group_6330" data-name="Group 6330" transform="translate(16 441)" opacity="0.64">
        <g id="Group_4169-9" data-name="Group 4169" transform="translate(0 0)">
          <path id="Path_24919-9" data-name="Path 24919" d="M52.085,84.293a1.223,1.223,0,0,1-1.176-.884l-.009-.06V82.19H61.584l.017.193a5.371,5.371,0,0,1,0,.983,1.33,1.33,0,0,1-.768.9l-.043.021h-.052c-.077,0-7.808-.086-8.576,0H52.08Zm-.755-.97a.783.783,0,0,0,.8.541c.76-.086,7.825-.009,8.568,0,.155-.086.451-.292.481-.537a4.808,4.808,0,0,0,.013-.7h-9.86Z" transform="translate(-50.9 -82.19)" fill="url(#linear-gradient)"/>
          <path id="Path_24920-9" data-name="Path 24920" d="M56.294,90.066a.2.2,0,0,1-.1-.026l-1.726-.893V86.315a.215.215,0,0,1,.429,0V88.89l1.494.773a.21.21,0,0,1,.09.288A.214.214,0,0,1,56.294,90.066Z" transform="translate(-52.938 -84.422)" fill="url(#linear-gradient-2)"/>
          <path id="Path_24921-9" data-name="Path 24921" d="M67.846,90.066a.209.209,0,0,1-.189-.116.211.211,0,0,1,.09-.288l1.494-.773V86.315a.215.215,0,0,1,.429,0v2.833l-1.726.893A.2.2,0,0,1,67.846,90.066Z" transform="translate(-60.45 -84.422)" fill="url(#linear-gradient-3)"/>
          <path id="Path_24922-9" data-name="Path 24922" d="M62.907,97.3H58.55l.009-1.133a.717.717,0,0,1,.811-.554c.3.056,1.893.03,2.889,0a.783.783,0,0,1,.67.558,3.059,3.059,0,0,1,0,.949l-.03.18Zm-3.928-.429h3.554a2.636,2.636,0,0,0-.021-.61.341.341,0,0,0-.275-.223c-.219.013-2.507.082-2.945,0-.193-.039-.283.146-.309.223v.61Z" transform="translate(-55.266 -89.843)" fill="url(#linear-gradient-4)"/>
          <path id="Path_24923-9" data-name="Path 24923" d="M63.355,93.051a.213.213,0,0,1-.215-.215V90.575a.215.215,0,1,1,.429,0v2.262A.213.213,0,0,1,63.355,93.051Z" transform="translate(-57.886 -86.853)" fill="url(#linear-gradient-5)"/>
          <path id="Path_24924-9" data-name="Path 24924" d="M62.3,102.706a.585.585,0,0,1-.549-.27c-.288-.5.326-1.494.451-1.687l.18-.279.18.283c.112.18.665,1.1.391,1.623a.66.66,0,0,1-.605.335h-.052Zm.077-1.408c-.2.386-.335.785-.253.923.03.056.146.056.206.056.193-.009.232-.077.24-.1.086-.167-.039-.549-.2-.876Z" transform="translate(-57.049 -92.624)" fill="url(#linear-gradient-6)"/>
          <path id="Path_24925-9" data-name="Path 24925" d="M55.727,102.971a.757.757,0,0,1-.459-.176.6.6,0,0,1-.288-.592c.1-.567,1.21-.936,1.429-1l.318-.1-.043.331c-.03.21-.193,1.266-.743,1.494a.552.552,0,0,1-.219.043Zm.468-1.236c-.4.167-.76.386-.786.545-.013.06.073.137.124.176.155.12.227.086.249.077C55.959,102.461,56.1,102.092,56.2,101.735Z" transform="translate(-53.225 -92.983)" fill="url(#linear-gradient-7)"/>
          <path id="Path_24926-9" data-name="Path 24926" d="M69.133,103.074a.261.261,0,0,1-.1-.013c-.528-.116-.833-1.1-.914-1.4l-.086-.322.331.056c.2.034,1.2.228,1.4.764a.629.629,0,0,1-.15.648A.615.615,0,0,1,69.133,103.074Zm-.489-1.168c.142.373.335.708.476.738.052.013.129-.073.159-.107.112-.137.09-.2.082-.223C69.3,102.151,68.97,102.005,68.644,101.907Z" transform="translate(-60.677 -93.12)" fill="url(#linear-gradient-8)"/>
        </g>
        <path id="Path_25014-9" data-name="Path 25014" d="M180.937,64.047a3.669,3.669,0,0,1-1.1-.167h0l-.056-.021a.682.682,0,0,1-.086-.039l-.021-.009a.742.742,0,0,1-.133-.06l-.017-.009h0a2.964,2.964,0,0,1-1.155-1.571h0a2.713,2.713,0,0,1,.884-2.249,2.772,2.772,0,0,0,.807-2.7l-.086-.618.485.468c.627.605,2,1.936,1.447,3.8a2.6,2.6,0,0,0,.395-1.438l-.056-.794.451.674c1.2,1.833,1.052,3.468-.416,4.486l-.047.026a3.744,3.744,0,0,1-1.283.227Zm-.931-.562a3.279,3.279,0,0,0,2.039-.056,2.365,2.365,0,0,0,.605-3.327,1.734,1.734,0,0,1-1.163,1.541l-.476.133.228-.438a2.924,2.924,0,0,0-.708-3.58,3.056,3.056,0,0,1-.966,2.455,2.293,2.293,0,0,0-.777,1.91c.09.258.476,1.1,1.039,1.292l.18.06v.009Zm-.425.013.142.1Z" transform="translate(-175.788 -45.245)" fill="url(#linear-gradient-9)"/>
      </g>
    </g>
  </g>
</svg>
