<svg id="Group_6917" data-name="Group 6917" xmlns="http://www.w3.org/2000/svg" width="53.851" height="53.852" viewBox="0 0 53.851 53.852">
  <path id="Path_28395" data-name="Path 28395" d="M346.241,2406.846c0,14.868-9.664,26.926-26.926,26.926a26.926,26.926,0,1,1,26.926-26.926Z" transform="translate(-292.39 -2379.92)" fill="#ffcf36"/>
  <ellipse id="Ellipse_137" data-name="Ellipse 137" cx="8.975" cy="8.975" rx="8.975" ry="8.975" transform="translate(7.729 15.257)" fill="#fff"/>
  <ellipse id="Ellipse_138" data-name="Ellipse 138" cx="3.142" cy="3.142" rx="3.142" ry="3.142" transform="translate(13.562 21.09)" fill="#844b00"/>
  <circle id="Ellipse_139" data-name="Ellipse 139" cx="8.975" cy="8.975" r="8.975" transform="translate(24.658 24.234) rotate(-45)" fill="#fff"/>
  <circle id="Ellipse_140" data-name="Ellipse 140" cx="3.142" cy="3.142" r="3.142" transform="translate(32.908 24.234) rotate(-45)" fill="#844b00"/>
  <path id="Path_28396" data-name="Path 28396" d="M712.607,1334.618c-6.884,4.8-14.52,4.772-21.364,0-.823-.576-1.566.419-1.008,1.339a13.77,13.77,0,0,0,23.38,0C714.176,1335.038,713.432,1334.045,712.607,1334.618Z" transform="translate(-674.818 -1297.521)" fill="#844b00"/>
</svg>
