<svg id="Group_2589" data-name="Group 2589" xmlns="http://www.w3.org/2000/svg" xmlns:xlink="http://www.w3.org/1999/xlink" width="25.147" height="19.476" viewBox="0 0 25.147 19.476">
  <defs>
    <linearGradient id="linear-gradient" x1="0.5" x2="0.5" y2="1" gradientUnits="objectBoundingBox">
      <stop offset="0" stop-color="#33d4a3"/>
      <stop offset="0.304" stop-color="#2dacb1"/>
      <stop offset="1" stop-color="#2986c0"/>
      <stop offset="1" stop-color="#2466cf"/>
    </linearGradient>
  </defs>
  <path id="diversity_1_24dp_5F6368_FILL0_wght200_GRAD0_opsz24" d="M41.306-789.216a9.413,9.413,0,0,1-.976-2.185,7.7,7.7,0,0,1-.33-2.2,6.175,6.175,0,0,1,1.864-4.537A6.175,6.175,0,0,1,46.4-800a6.687,6.687,0,0,1,3.33.9,9.1,9.1,0,0,1,2.842,2.595,9.1,9.1,0,0,1,2.842-2.595,6.687,6.687,0,0,1,3.33-.9,6.175,6.175,0,0,1,4.537,1.864,6.175,6.175,0,0,1,1.864,4.537,7.346,7.346,0,0,1-.33,2.132,10.971,10.971,0,0,1-.976,2.229,2.213,2.213,0,0,0-.422-.423,2.841,2.841,0,0,0-.508-.312,9.42,9.42,0,0,0,.818-1.869A6.027,6.027,0,0,0,64-793.6a5.077,5.077,0,0,0-1.525-3.733,5.078,5.078,0,0,0-3.733-1.525,5.274,5.274,0,0,0-3.206,1.063,15.432,15.432,0,0,0-2.967,3.052,15.282,15.282,0,0,0-2.967-3.056,5.284,5.284,0,0,0-3.206-1.059,5.078,5.078,0,0,0-3.733,1.525,5.077,5.077,0,0,0-1.525,3.733,6.273,6.273,0,0,0,.275,1.813,8.976,8.976,0,0,0,.8,1.835,4.2,4.2,0,0,0-.495.323A2.245,2.245,0,0,0,41.306-789.216ZM40-780.524v-.987a2.026,2.026,0,0,1,1.119-1.751,5.459,5.459,0,0,1,2.9-.691q.327,0,.626.025a4.679,4.679,0,0,1,.57.083,4.147,4.147,0,0,0-.38.923,3.846,3.846,0,0,0-.134,1.031v1.368Zm6.858,0v-1.286a2.518,2.518,0,0,1,1.585-2.253,8.867,8.867,0,0,1,4.136-.835,8.815,8.815,0,0,1,4.142.835,2.517,2.517,0,0,1,1.567,2.253v1.286Zm13.585,0v-1.368a4.279,4.279,0,0,0-.12-1.031,3.862,3.862,0,0,0-.359-.923,4.667,4.667,0,0,1,.57-.083q.3-.025.612-.025a5.391,5.391,0,0,1,2.9.691,2.03,2.03,0,0,1,1.1,1.751v.987Zm-7.872-3.232a8.6,8.6,0,0,0-3.209.517q-1.275.517-1.328,1.33v.242h9.085v-.242q-.059-.813-1.32-1.33A8.6,8.6,0,0,0,52.571-783.756Zm-8.548-1.275a1.566,1.566,0,0,1-1.149-.478,1.566,1.566,0,0,1-.478-1.149,1.533,1.533,0,0,1,.478-1.134,1.579,1.579,0,0,1,1.149-.47,1.583,1.583,0,0,1,1.145.47,1.528,1.528,0,0,1,.481,1.134,1.561,1.561,0,0,1-.481,1.149A1.57,1.57,0,0,1,44.023-785.03Zm17.124,0A1.573,1.573,0,0,1,60-785.508a1.555,1.555,0,0,1-.485-1.149A1.523,1.523,0,0,1,60-787.791a1.591,1.591,0,0,1,1.146-.47,1.566,1.566,0,0,1,1.152.47,1.545,1.545,0,0,1,.47,1.134,1.584,1.584,0,0,1-.468,1.149A1.557,1.557,0,0,1,61.146-785.03Zm-8.565-.726a2.43,2.43,0,0,1-1.777-.731,2.407,2.407,0,0,1-.736-1.775,2.407,2.407,0,0,1,.731-1.785,2.435,2.435,0,0,1,1.775-.72,2.429,2.429,0,0,1,1.785.718,2.413,2.413,0,0,1,.72,1.78,2.453,2.453,0,0,1-.718,1.777A2.386,2.386,0,0,1,52.581-785.756Zm-.008-3.869a1.332,1.332,0,0,0-.957.392,1.3,1.3,0,0,0-.405.971,1.309,1.309,0,0,0,.405.957,1.322,1.322,0,0,0,.968.406,1.286,1.286,0,0,0,.957-.406,1.34,1.34,0,0,0,.395-.969,1.308,1.308,0,0,0-.392-.957A1.314,1.314,0,0,0,52.574-789.625ZM52.574-788.262ZM52.58-781.667Z" transform="translate(-40 800)" fill="url(#linear-gradient)"/>
</svg>
