<svg xmlns="http://www.w3.org/2000/svg" xmlns:xlink="http://www.w3.org/1999/xlink" width="11.971" height="14.898" viewBox="0 0 11.971 14.898">
  <defs>
    <linearGradient id="linear-gradient" y1="0.5" x2="1" y2="0.5" gradientUnits="objectBoundingBox">
      <stop offset="0" stop-color="#55bf9b"/>
      <stop offset="0.33" stop-color="#2dacb1"/>
      <stop offset="0.74" stop-color="#2986c1"/>
      <stop offset="1" stop-color="#3b67b1"/>
    </linearGradient>
    <linearGradient id="linear-gradient-2" x1="-0.002" y1="0.496" x2="0.998" y2="0.496" xlink:href="#linear-gradient"/>
    <linearGradient id="linear-gradient-3" x1="-0.002" y1="0.499" x2="0.998" y2="0.499" xlink:href="#linear-gradient"/>
    <linearGradient id="linear-gradient-4" x1="0.001" y1="0.5" x2="0.999" y2="0.5" xlink:href="#linear-gradient"/>
  </defs>
  <g id="Group_5365" data-name="Group 5365" transform="translate(0)">
    <g id="Group_4557" data-name="Group 4557" transform="translate(0 0)" opacity="0.92">
      <path id="Path_25806" data-name="Path 25806" d="M118.113,68.209H114.95V62.54h3.163Zm-2.8-.365h2.433V62.9h-2.433Z" transform="translate(-114.333 -53.542)" fill="url(#linear-gradient)"/>
      <path id="Path_25807" data-name="Path 25807" d="M122.918,68.973a.757.757,0,0,1-.438-.243,35.506,35.506,0,0,0-4.027.049h-.134l-.049-.122c-.061-.17-.207-.45-.329-.474-.073-.012-.146.061-.207.122l-.268-.243a.566.566,0,0,1,.547-.231c.292.061.474.389.547.584,3.905-.195,4.1,0,4.173.061a1.79,1.79,0,0,0,.146.122,3.267,3.267,0,0,0-.134-1.2l-.037-.158.158-.049c.219-.073.5-.207.523-.389.036-.255-.353-.584-.487-.681l-.256-.182.292-.134c.328-.146.511-.316.511-.462,0-.231-.353-.462-.475-.535l-.231-.122.207-.17a.732.732,0,0,0,.328-.572.622.622,0,0,0-.268-.426H121c-.158.073-.5.219-.718.024-.243-.207-.122-.62-.1-.706l.791-1.752a.953.953,0,0,0-.207-.73.444.444,0,0,0-.17-.085,5.585,5.585,0,0,1-3.115,3.48l-.109-.353a5.4,5.4,0,0,0,2.932-3.37l.036-.1h.1a.7.7,0,0,1,.56.158,1.321,1.321,0,0,1,.328,1.058v.073l-.815,1.764c-.036.11-.036.28,0,.3,0,0,.073.049.353-.1l.085-.024h2.178l.049.024a1.093,1.093,0,0,1,.474.742.958.958,0,0,1-.28.706.933.933,0,0,1,.462.73.81.81,0,0,1-.474.657,1.073,1.073,0,0,1,.414.852c-.036.268-.243.474-.608.633.134.608.207,1.314-.085,1.472a.324.324,0,0,1-.146.036Z" transform="translate(-113.808 -54.111)" fill="url(#linear-gradient-2)"/>
      <path id="Path_25809" data-name="Path 25809" d="M124.021,63.359l-1.277-1.217c-.572.122-3.358.584-4.526-2.02a3.736,3.736,0,0,1,.353-2.628,3.161,3.161,0,0,1,2.08-1.411c3.163-.791,4.866,2.226,4.891,2.251l.024.049a2.906,2.906,0,0,1-1.46,3.163l-.061,1.813Zm-1.18-1.618.839.791.049-1.229.11-.049A2.5,2.5,0,0,0,125.2,58.48a4.153,4.153,0,0,0-4.465-2.056,2.846,2.846,0,0,0-2.166,3.565c1.156,2.579,4.064,1.8,4.185,1.764l.1-.024Z" transform="translate(-113.646 -54.969)" fill="url(#linear-gradient-3)"/>
      <path id="Path_25860" data-name="Path 25860" d="M122.84,61.7l1.022,1.314V61.325s2.932-1.484.353-4.258a3.824,3.824,0,0,0-4.6-.3s-2.883,1.959-.633,4.258c0,0,2.226,1.691,3.857.681Z" transform="translate(-113.645 -54.93)" fill="#0c0018"/>
      <path id="Path_25808" data-name="Path 25808" d="M116.8,63.23V61.21a3.816,3.816,0,0,1-2.2-1.874,2.751,2.751,0,0,1,.353-2.458,3.862,3.862,0,0,1,4.611-1.46c.012,0,2.677.791,2.421,3.115a3.817,3.817,0,0,1-3.674,2.956L116.8,63.23Zm1.314-7.713a3.575,3.575,0,0,0-2.847,1.557,2.411,2.411,0,0,0-.328,2.129,3.577,3.577,0,0,0,2.093,1.7l.134.037v1.3l.973-1.131h.122a3.4,3.4,0,0,0,3.358-2.64c.219-2-2.08-2.689-2.178-2.713A3.8,3.8,0,0,0,118.1,55.5Z" transform="translate(-114.442 -55.144)" fill="url(#linear-gradient-4)"/>
      <path id="Path_25859" data-name="Path 25859" d="M116.914,62.912l.073-2.129s-4.465-1.168-1.058-4.781a3.649,3.649,0,0,1,5.341.876h0s1.606,3.759-3.054,4.112Z" transform="translate(-114.398 -55.021)" fill="#0c0019"/>
    </g>
    <g id="Group_5361" data-name="Group 5361" transform="translate(0 0)" opacity="0.92">
      <path id="Path_25806-2" data-name="Path 25806" d="M118.113,68.209H114.95V62.54h3.163Zm-2.8-.365h2.433V62.9h-2.433Z" transform="translate(-114.333 -53.542)" fill="url(#linear-gradient)"/>
      <path id="Path_25807-2" data-name="Path 25807" d="M122.918,68.973a.757.757,0,0,1-.438-.243,35.506,35.506,0,0,0-4.027.049h-.134l-.049-.122c-.061-.17-.207-.45-.329-.474-.073-.012-.146.061-.207.122l-.268-.243a.566.566,0,0,1,.547-.231c.292.061.474.389.547.584,3.905-.195,4.1,0,4.173.061a1.79,1.79,0,0,0,.146.122,3.267,3.267,0,0,0-.134-1.2l-.037-.158.158-.049c.219-.073.5-.207.523-.389.036-.255-.353-.584-.487-.681l-.256-.182.292-.134c.328-.146.511-.316.511-.462,0-.231-.353-.462-.475-.535l-.231-.122.207-.17a.732.732,0,0,0,.328-.572.622.622,0,0,0-.268-.426H121c-.158.073-.5.219-.718.024-.243-.207-.122-.62-.1-.706l.791-1.752a.953.953,0,0,0-.207-.73.444.444,0,0,0-.17-.085,5.585,5.585,0,0,1-3.115,3.48l-.109-.353a5.4,5.4,0,0,0,2.932-3.37l.036-.1h.1a.7.7,0,0,1,.56.158,1.321,1.321,0,0,1,.328,1.058v.073l-.815,1.764c-.036.11-.036.28,0,.3,0,0,.073.049.353-.1l.085-.024h2.178l.049.024a1.093,1.093,0,0,1,.474.742.958.958,0,0,1-.28.706.933.933,0,0,1,.462.73.81.81,0,0,1-.474.657,1.073,1.073,0,0,1,.414.852c-.036.268-.243.474-.608.633.134.608.207,1.314-.085,1.472a.324.324,0,0,1-.146.036Z" transform="translate(-113.808 -54.111)" fill="url(#linear-gradient-2)"/>
      <path id="Path_25809-2" data-name="Path 25809" d="M124.021,63.359l-1.277-1.217c-.572.122-3.358.584-4.526-2.02a3.736,3.736,0,0,1,.353-2.628,3.161,3.161,0,0,1,2.08-1.411c3.163-.791,4.866,2.226,4.891,2.251l.024.049a2.906,2.906,0,0,1-1.46,3.163l-.061,1.813Zm-1.18-1.618.839.791.049-1.229.11-.049A2.5,2.5,0,0,0,125.2,58.48a4.153,4.153,0,0,0-4.465-2.056,2.846,2.846,0,0,0-2.166,3.565c1.156,2.579,4.064,1.8,4.185,1.764l.1-.024Z" transform="translate(-113.646 -54.969)" fill="url(#linear-gradient-3)"/>
      <path id="Path_25860-2" data-name="Path 25860" d="M122.84,61.7l1.022,1.314V61.325s2.932-1.484.353-4.258a3.824,3.824,0,0,0-4.6-.3s-2.883,1.959-.633,4.258c0,0,2.226,1.691,3.857.681Z" transform="translate(-113.645 -54.93)" fill="#0c0018"/>
      <path id="Path_25808-2" data-name="Path 25808" d="M116.8,63.23V61.21a3.816,3.816,0,0,1-2.2-1.874,2.751,2.751,0,0,1,.353-2.458,3.862,3.862,0,0,1,4.611-1.46c.012,0,2.677.791,2.421,3.115a3.817,3.817,0,0,1-3.674,2.956L116.8,63.23Zm1.314-7.713a3.575,3.575,0,0,0-2.847,1.557,2.411,2.411,0,0,0-.328,2.129,3.577,3.577,0,0,0,2.093,1.7l.134.037v1.3l.973-1.131h.122a3.4,3.4,0,0,0,3.358-2.64c.219-2-2.08-2.689-2.178-2.713A3.8,3.8,0,0,0,118.1,55.5Z" transform="translate(-114.442 -55.144)" fill="url(#linear-gradient-4)"/>
      <path id="Path_25859-2" data-name="Path 25859" d="M116.914,62.912l.073-2.129s-4.465-1.168-1.058-4.781a3.649,3.649,0,0,1,5.341.876h0s1.606,3.759-3.054,4.112Z" transform="translate(-114.398 -55.021)" fill="#0c0019"/>
    </g>
    <g id="Group_5362" data-name="Group 5362" transform="translate(0 0)" opacity="0.92">
      <path id="Path_25806-3" data-name="Path 25806" d="M118.113,68.209H114.95V62.54h3.163Zm-2.8-.365h2.433V62.9h-2.433Z" transform="translate(-114.333 -53.542)" fill="url(#linear-gradient)"/>
      <path id="Path_25807-3" data-name="Path 25807" d="M122.918,68.973a.757.757,0,0,1-.438-.243,35.506,35.506,0,0,0-4.027.049h-.134l-.049-.122c-.061-.17-.207-.45-.329-.474-.073-.012-.146.061-.207.122l-.268-.243a.566.566,0,0,1,.547-.231c.292.061.474.389.547.584,3.905-.195,4.1,0,4.173.061a1.79,1.79,0,0,0,.146.122,3.267,3.267,0,0,0-.134-1.2l-.037-.158.158-.049c.219-.073.5-.207.523-.389.036-.255-.353-.584-.487-.681l-.256-.182.292-.134c.328-.146.511-.316.511-.462,0-.231-.353-.462-.475-.535l-.231-.122.207-.17a.732.732,0,0,0,.328-.572.622.622,0,0,0-.268-.426H121c-.158.073-.5.219-.718.024-.243-.207-.122-.62-.1-.706l.791-1.752a.953.953,0,0,0-.207-.73.444.444,0,0,0-.17-.085,5.585,5.585,0,0,1-3.115,3.48l-.109-.353a5.4,5.4,0,0,0,2.932-3.37l.036-.1h.1a.7.7,0,0,1,.56.158,1.321,1.321,0,0,1,.328,1.058v.073l-.815,1.764c-.036.11-.036.28,0,.3,0,0,.073.049.353-.1l.085-.024h2.178l.049.024a1.093,1.093,0,0,1,.474.742.958.958,0,0,1-.28.706.933.933,0,0,1,.462.73.81.81,0,0,1-.474.657,1.073,1.073,0,0,1,.414.852c-.036.268-.243.474-.608.633.134.608.207,1.314-.085,1.472a.324.324,0,0,1-.146.036Z" transform="translate(-113.808 -54.111)" fill="url(#linear-gradient-2)"/>
      <path id="Path_25809-3" data-name="Path 25809" d="M124.021,63.359l-1.277-1.217c-.572.122-3.358.584-4.526-2.02a3.736,3.736,0,0,1,.353-2.628,3.161,3.161,0,0,1,2.08-1.411c3.163-.791,4.866,2.226,4.891,2.251l.024.049a2.906,2.906,0,0,1-1.46,3.163l-.061,1.813Zm-1.18-1.618.839.791.049-1.229.11-.049A2.5,2.5,0,0,0,125.2,58.48a4.153,4.153,0,0,0-4.465-2.056,2.846,2.846,0,0,0-2.166,3.565c1.156,2.579,4.064,1.8,4.185,1.764l.1-.024Z" transform="translate(-113.646 -54.969)" fill="url(#linear-gradient-3)"/>
      <path id="Path_25860-3" data-name="Path 25860" d="M122.84,61.7l1.022,1.314V61.325s2.932-1.484.353-4.258a3.824,3.824,0,0,0-4.6-.3s-2.883,1.959-.633,4.258c0,0,2.226,1.691,3.857.681Z" transform="translate(-113.645 -54.93)" fill="#0c0018"/>
      <path id="Path_25808-3" data-name="Path 25808" d="M116.8,63.23V61.21a3.816,3.816,0,0,1-2.2-1.874,2.751,2.751,0,0,1,.353-2.458,3.862,3.862,0,0,1,4.611-1.46c.012,0,2.677.791,2.421,3.115a3.817,3.817,0,0,1-3.674,2.956L116.8,63.23Zm1.314-7.713a3.575,3.575,0,0,0-2.847,1.557,2.411,2.411,0,0,0-.328,2.129,3.577,3.577,0,0,0,2.093,1.7l.134.037v1.3l.973-1.131h.122a3.4,3.4,0,0,0,3.358-2.64c.219-2-2.08-2.689-2.178-2.713A3.8,3.8,0,0,0,118.1,55.5Z" transform="translate(-114.442 -55.144)" fill="url(#linear-gradient-4)"/>
      <path id="Path_25859-3" data-name="Path 25859" d="M116.914,62.912l.073-2.129s-4.465-1.168-1.058-4.781a3.649,3.649,0,0,1,5.341.876h0s1.606,3.759-3.054,4.112Z" transform="translate(-114.398 -55.021)" fill="#0c0019"/>
    </g>
    <g id="Group_5363" data-name="Group 5363" transform="translate(0 0)" opacity="0.92">
      <path id="Path_25806-4" data-name="Path 25806" d="M118.113,68.209H114.95V62.54h3.163Zm-2.8-.365h2.433V62.9h-2.433Z" transform="translate(-114.333 -53.542)" fill="url(#linear-gradient)"/>
      <path id="Path_25807-4" data-name="Path 25807" d="M122.918,68.973a.757.757,0,0,1-.438-.243,35.506,35.506,0,0,0-4.027.049h-.134l-.049-.122c-.061-.17-.207-.45-.329-.474-.073-.012-.146.061-.207.122l-.268-.243a.566.566,0,0,1,.547-.231c.292.061.474.389.547.584,3.905-.195,4.1,0,4.173.061a1.79,1.79,0,0,0,.146.122,3.267,3.267,0,0,0-.134-1.2l-.037-.158.158-.049c.219-.073.5-.207.523-.389.036-.255-.353-.584-.487-.681l-.256-.182.292-.134c.328-.146.511-.316.511-.462,0-.231-.353-.462-.475-.535l-.231-.122.207-.17a.732.732,0,0,0,.328-.572.622.622,0,0,0-.268-.426H121c-.158.073-.5.219-.718.024-.243-.207-.122-.62-.1-.706l.791-1.752a.953.953,0,0,0-.207-.73.444.444,0,0,0-.17-.085,5.585,5.585,0,0,1-3.115,3.48l-.109-.353a5.4,5.4,0,0,0,2.932-3.37l.036-.1h.1a.7.7,0,0,1,.56.158,1.321,1.321,0,0,1,.328,1.058v.073l-.815,1.764c-.036.11-.036.28,0,.3,0,0,.073.049.353-.1l.085-.024h2.178l.049.024a1.093,1.093,0,0,1,.474.742.958.958,0,0,1-.28.706.933.933,0,0,1,.462.73.81.81,0,0,1-.474.657,1.073,1.073,0,0,1,.414.852c-.036.268-.243.474-.608.633.134.608.207,1.314-.085,1.472a.324.324,0,0,1-.146.036Z" transform="translate(-113.808 -54.111)" fill="url(#linear-gradient-2)"/>
      <path id="Path_25809-4" data-name="Path 25809" d="M124.021,63.359l-1.277-1.217c-.572.122-3.358.584-4.526-2.02a3.736,3.736,0,0,1,.353-2.628,3.161,3.161,0,0,1,2.08-1.411c3.163-.791,4.866,2.226,4.891,2.251l.024.049a2.906,2.906,0,0,1-1.46,3.163l-.061,1.813Zm-1.18-1.618.839.791.049-1.229.11-.049A2.5,2.5,0,0,0,125.2,58.48a4.153,4.153,0,0,0-4.465-2.056,2.846,2.846,0,0,0-2.166,3.565c1.156,2.579,4.064,1.8,4.185,1.764l.1-.024Z" transform="translate(-113.646 -54.969)" fill="url(#linear-gradient-3)"/>
      <path id="Path_25860-4" data-name="Path 25860" d="M122.84,61.7l1.022,1.314V61.325s2.932-1.484.353-4.258a3.824,3.824,0,0,0-4.6-.3s-2.883,1.959-.633,4.258c0,0,2.226,1.691,3.857.681Z" transform="translate(-113.645 -54.93)" fill="#0c0018"/>
      <path id="Path_25808-4" data-name="Path 25808" d="M116.8,63.23V61.21a3.816,3.816,0,0,1-2.2-1.874,2.751,2.751,0,0,1,.353-2.458,3.862,3.862,0,0,1,4.611-1.46c.012,0,2.677.791,2.421,3.115a3.817,3.817,0,0,1-3.674,2.956L116.8,63.23Zm1.314-7.713a3.575,3.575,0,0,0-2.847,1.557,2.411,2.411,0,0,0-.328,2.129,3.577,3.577,0,0,0,2.093,1.7l.134.037v1.3l.973-1.131h.122a3.4,3.4,0,0,0,3.358-2.64c.219-2-2.08-2.689-2.178-2.713A3.8,3.8,0,0,0,118.1,55.5Z" transform="translate(-114.442 -55.144)" fill="url(#linear-gradient-4)"/>
      <path id="Path_25859-4" data-name="Path 25859" d="M116.914,62.912l.073-2.129s-4.465-1.168-1.058-4.781a3.649,3.649,0,0,1,5.341.876h0s1.606,3.759-3.054,4.112Z" transform="translate(-114.398 -55.021)" fill="#0c0019"/>
    </g>
    <g id="Group_5364" data-name="Group 5364" transform="translate(0 0)" opacity="0.92">
      <path id="Path_25806-5" data-name="Path 25806" d="M118.113,68.209H114.95V62.54h3.163Zm-2.8-.365h2.433V62.9h-2.433Z" transform="translate(-114.333 -53.542)" fill="url(#linear-gradient)"/>
      <path id="Path_25807-5" data-name="Path 25807" d="M122.918,68.973a.757.757,0,0,1-.438-.243,35.506,35.506,0,0,0-4.027.049h-.134l-.049-.122c-.061-.17-.207-.45-.329-.474-.073-.012-.146.061-.207.122l-.268-.243a.566.566,0,0,1,.547-.231c.292.061.474.389.547.584,3.905-.195,4.1,0,4.173.061a1.79,1.79,0,0,0,.146.122,3.267,3.267,0,0,0-.134-1.2l-.037-.158.158-.049c.219-.073.5-.207.523-.389.036-.255-.353-.584-.487-.681l-.256-.182.292-.134c.328-.146.511-.316.511-.462,0-.231-.353-.462-.475-.535l-.231-.122.207-.17a.732.732,0,0,0,.328-.572.622.622,0,0,0-.268-.426H121c-.158.073-.5.219-.718.024-.243-.207-.122-.62-.1-.706l.791-1.752a.953.953,0,0,0-.207-.73.444.444,0,0,0-.17-.085,5.585,5.585,0,0,1-3.115,3.48l-.109-.353a5.4,5.4,0,0,0,2.932-3.37l.036-.1h.1a.7.7,0,0,1,.56.158,1.321,1.321,0,0,1,.328,1.058v.073l-.815,1.764c-.036.11-.036.28,0,.3,0,0,.073.049.353-.1l.085-.024h2.178l.049.024a1.093,1.093,0,0,1,.474.742.958.958,0,0,1-.28.706.933.933,0,0,1,.462.73.81.81,0,0,1-.474.657,1.073,1.073,0,0,1,.414.852c-.036.268-.243.474-.608.633.134.608.207,1.314-.085,1.472a.324.324,0,0,1-.146.036Z" transform="translate(-113.808 -54.111)" fill="url(#linear-gradient-2)"/>
      <path id="Path_25809-5" data-name="Path 25809" d="M124.021,63.359l-1.277-1.217c-.572.122-3.358.584-4.526-2.02a3.736,3.736,0,0,1,.353-2.628,3.161,3.161,0,0,1,2.08-1.411c3.163-.791,4.866,2.226,4.891,2.251l.024.049a2.906,2.906,0,0,1-1.46,3.163l-.061,1.813Zm-1.18-1.618.839.791.049-1.229.11-.049A2.5,2.5,0,0,0,125.2,58.48a4.153,4.153,0,0,0-4.465-2.056,2.846,2.846,0,0,0-2.166,3.565c1.156,2.579,4.064,1.8,4.185,1.764l.1-.024Z" transform="translate(-113.646 -54.969)" fill="url(#linear-gradient-3)"/>
      <path id="Path_25860-5" data-name="Path 25860" d="M122.84,61.7l1.022,1.314V61.325s2.932-1.484.353-4.258a3.824,3.824,0,0,0-4.6-.3s-2.883,1.959-.633,4.258c0,0,2.226,1.691,3.857.681Z" transform="translate(-113.645 -54.93)" fill="#0c0018"/>
      <path id="Path_25808-5" data-name="Path 25808" d="M116.8,63.23V61.21a3.816,3.816,0,0,1-2.2-1.874,2.751,2.751,0,0,1,.353-2.458,3.862,3.862,0,0,1,4.611-1.46c.012,0,2.677.791,2.421,3.115a3.817,3.817,0,0,1-3.674,2.956L116.8,63.23Zm1.314-7.713a3.575,3.575,0,0,0-2.847,1.557,2.411,2.411,0,0,0-.328,2.129,3.577,3.577,0,0,0,2.093,1.7l.134.037v1.3l.973-1.131h.122a3.4,3.4,0,0,0,3.358-2.64c.219-2-2.08-2.689-2.178-2.713A3.8,3.8,0,0,0,118.1,55.5Z" transform="translate(-114.442 -55.144)" fill="url(#linear-gradient-4)"/>
      <path id="Path_25859-5" data-name="Path 25859" d="M116.914,62.912l.073-2.129s-4.465-1.168-1.058-4.781a3.649,3.649,0,0,1,5.341.876h0s1.606,3.759-3.054,4.112Z" transform="translate(-114.398 -55.021)" fill="#0c0019"/>
    </g>
  </g>
</svg>
