<svg id="Group_4689" data-name="Group 4689" xmlns="http://www.w3.org/2000/svg" width="122.735" height="27.369" viewBox="0 0 122.735 27.369">
  <path id="Path_1328" data-name="Path 1328" d="M159.818,19.6a4.813,4.813,0,0,0,4.795-4.792c-.187-1.135-.585-3.235-3.531-3.235-3.221,0-4.29,4.5-6.913,7.405a4.222,4.222,0,0,1-3.726,3.376,4.12,4.12,0,0,0,2.81.77c2.324,0,5.137-.7,6.608-2.152a3.111,3.111,0,0,1-3.351-2.985,4.042,4.042,0,0,0,3.308,1.612" transform="translate(-41.878 -3.223)" fill="#fff" fill-rule="evenodd"/>
  <path id="Path_1329" data-name="Path 1329" d="M97.273,9.216c0-1.43-.087-2.385-1.022-2.385a2.679,2.679,0,0,0-1.008.209c.331,4.835-.761,9.093-2.094,9.093-1.749,0-.875-10.363-4.581-10.363-3.415,0-3.905,8.272-4.294,8.272-.265,0-.3-2.172-.291-3.828A12.146,12.146,0,0,0,84.2,8.166c0-.771-.313-2.1-2.062-1.437.062,5.914-1.123,9.489-2.456,9.489-1.957,0-1.977-5.363-1.977-6.841,0-1.443.1-3.372-2.041-2.685-.322,5.16-1.673,9.054-2.526,9.054-1.272,0-1.015-8.915-3.765-8.915-2.47,0-3.234,8.443-3.75,8.443-.922,0,.288-9.505-3.28-9.505-1.873,0-2.616,3.174-3.349,6.726-.143.688-.292.709-.316-.067q-.029-.995-.017-1.99c.9-3.57-.2-4.888-1.852-3.937.533,6.588-2.49,9.808-4.811,9.808a2.565,2.565,0,0,1-1.992-.92c2.783-1.706,4.019-3.664,4.019-5.577a2.948,2.948,0,0,0-3.168-3.268c-2.761,0-4.3,2.842-4.3,5.257a8.184,8.184,0,0,0,.642,3.315c-.948.452-1.842.844-2.674,1.223-.072-2.485-.354-5.1-.567-7.5-1.469-.4-1.9.3-2.011,1.609-.26,2.984-1.365,4.835-2.342,4.835-.736,0-1.184-.895-1.238-1.845-.273-4.783,3.61-6.114,5.64-5.42.421-1.054-.041-1.814-1.873-1.814a6.287,6.287,0,0,0-5.1,3.081,14.112,14.112,0,0,1-3,2.964,7.7,7.7,0,0,0,.049-.85c0-3.373-1.828-4.853-3.573-4.853a3.009,3.009,0,0,0-2.878,2.194c-.13-1.331-.395-1.907-1.169-1.907a3.073,3.073,0,0,0-1.287.333,15.819,15.819,0,0,1,.315,3.478c0,4.056-1.162,5.873-2.28,5.873-1.277,0-1.481-4.81-1.588-6.682A1.739,1.739,0,0,0,21,9.717c-1.155,0-1.306,1.553-1.591,2.98-.316,1.582-1.228,3.571-2.577,3.571-.815,0-1.324-.787-1.388-2.2C15.309,11.2,17.694,7.8,21.428,8.86c.489-1.142-.279-2.012-1.828-2.012a6.766,6.766,0,0,0-5.968,4.459c-1,2.215-2.747,5.47-6.3,5.47-2.511,0-4.432-2.189-4.432-6.786,0-3.962,2.5-7.725,5.162-7.725,1.864,0,2.3,1.833,2.132,3.555.964.776,2.549.055,2.549-1.882,0-1.335-1.084-3.6-4.582-3.6C3.826.341,0,4.659,0,10.334c0,5.493,2.788,8.74,6.736,8.74A7.7,7.7,0,0,0,13.2,15.032c.408,2.295,1.972,3.261,3.145,3.261A4.087,4.087,0,0,0,20.156,15.4c.422,1.667,1.313,2.9,2.793,2.9a2.98,2.98,0,0,0,2.469-1.375c-.242,5.79-.55,9.481,2.871,8.753a28.771,28.771,0,0,1-.7-7.333c0-7.363,1.215-9.785,2.736-9.785,1.1,0,1.46,1.406,1.46,2.905a11.065,11.065,0,0,1-.281,2.56c-1.87,1.18-3.364,2.111-3.364,3.294,0,.936.694,1.023,1.3,1.023,1.436,0,3.164-1.409,4.12-4.069A13.052,13.052,0,0,0,36.033,12.4c-.027.27-.043.541-.043.818,0,2.64,1.157,4.235,3,4.235,1.445,0,2.53-1.025,3.295-2.56.048.885.078,1.7.092,2.45C39.446,18.7,36.2,20.076,36.2,23.9a3.317,3.317,0,0,0,3.291,3.469c4.084,0,5.015-4.311,5.054-9.319,1.329-.577,2.32-1.022,3.463-1.586A4.607,4.607,0,0,0,51.533,18.3c2.306,0,4.036-1.222,5.427-3.7.247,1.885.735,3.7,1.737,3.7,1.828,0,2.2-9.554,3.557-9.554,1.041,0,.185,10.338,2.933,10.338,2.353,0,2.794-9.1,3.939-9.1.812,0,.873,8.315,3.435,8.315,1.26,0,2.627-1.514,3.312-4.686.321,2.11,1.388,4.686,3.47,4.686,1.215,0,2.259-1.229,3.065-2.863.222,1.681.7,2.863,1.619,2.863,2.394,0,2.314-9.534,4.209-9.534,1.478,0,1.02,9.534,4.539,9.534,1.674,0,2.468-1.427,2.94-3.217.647,2.633,1.694,3.217,2.554,3.217a1.813,1.813,0,0,0,1.5-.836c-2.721-1.181-2.492-5.476-2.492-8.25M39.663,25.587c-.845,0-1.292-.8-1.292-1.71,0-2.444,1.8-3.742,4.008-4.857-.1,5.345-1.343,6.567-2.716,6.567M50.653,8.26c.823,0,1.294.756,1.212,1.842a5.712,5.712,0,0,1-2.639,3.885c-.844-2.4-.217-5.727,1.427-5.727M76.721,4.646a1.43,1.43,0,0,0,1.335-1.5,1.3,1.3,0,0,0-1.323-1.4,1.506,1.506,0,0,0-1.427,1.5,1.372,1.372,0,0,0,1.415,1.4m19.5.406a1.407,1.407,0,0,0,1.3-1.429,1.277,1.277,0,0,0-1.288-1.336,1.408,1.408,0,0,0-1.3,1.43,1.278,1.278,0,0,0,1.289,1.336M122.73,11.4a10.513,10.513,0,0,0-3.713-7.606A19.974,19.974,0,0,0,113.238.208Q112.985.1,112.729,0h0c-2.581,3.092-11.519,5.4-11.519,11.883a6.4,6.4,0,0,0,3.951,5.855,5.913,5.913,0,0,0,4.09.085,7.112,7.112,0,0,0,3.039-2.067c2.625-2.9,3.693-7.4,6.914-7.4,2.947,0,3.344,2.1,3.532,3.234,0,0,0-.082-.005-.191" transform="translate(0 -0.001)" fill="#fff" fill-rule="evenodd"/>
</svg>
