<svg xmlns="http://www.w3.org/2000/svg" xmlns:xlink="http://www.w3.org/1999/xlink" width="14.03" height="9.508" viewBox="0 0 14.03 9.508">
  <defs>
    <linearGradient id="linear-gradient" y1="0.501" x2="1" y2="0.501" gradientUnits="objectBoundingBox">
      <stop offset="0" stop-color="#54be9a"/>
      <stop offset="0.33" stop-color="#2cabb0"/>
      <stop offset="0.74" stop-color="#2785c0"/>
      <stop offset="1" stop-color="#3a67b0"/>
    </linearGradient>
    <linearGradient id="linear-gradient-2" x1="0" y1="0.5" x2="0.999" y2="0.5" xlink:href="#linear-gradient"/>
    <linearGradient id="linear-gradient-3" x1="-66.964" y1="116.798" x2="-66.772" y2="116.798" xlink:href="#linear-gradient"/>
    <linearGradient id="linear-gradient-4" x1="0" y1="0.5" x2="1" y2="0.5" xlink:href="#linear-gradient"/>
    <linearGradient id="linear-gradient-9" x1="-62.602" y1="88.151" x2="-62.311" y2="88.151" xlink:href="#linear-gradient"/>
    <linearGradient id="linear-gradient-10" x1="0.003" y1="0.501" x2="1.003" y2="0.501" xlink:href="#linear-gradient"/>
    <linearGradient id="linear-gradient-11" x1="0.003" y1="0.5" x2="1.003" y2="0.5" xlink:href="#linear-gradient"/>
    <linearGradient id="linear-gradient-12" x1="0.003" y1="0.501" x2="1.003" y2="0.501" xlink:href="#linear-gradient"/>
    <linearGradient id="linear-gradient-17" x1="-61.023" y1="110.861" x2="-60.831" y2="110.861" xlink:href="#linear-gradient"/>
    <linearGradient id="linear-gradient-18" x1="0" y1="0.5" x2="1" y2="0.5" xlink:href="#linear-gradient"/>
  </defs>
  <g id="Group_5933" data-name="Group 5933" transform="translate(-253 -375)">
    <g id="Group_5922" data-name="Group 5922" transform="translate(255.613 375)">
      <path id="Path_25006" data-name="Path 25006" d="M11.073,9.129a.236.236,0,0,1-.052.052c-2.76.021-5.52.031-8.28.052l.031-1.5a4.3,4.3,0,0,1,3.82-2.319c.1,0,.22,0,.325.01s.21-.01.315-.01a4.311,4.311,0,0,1,3.82,2.319h0l.021.1V9.129Zm-8.228,0h8.123V7.849l-.021-.073a4.213,4.213,0,0,0-4.04-2.246,4.194,4.194,0,0,0-4.04,2.235L2.845,9.119Zm.367-.357V7.88h0a3.914,3.914,0,0,1,3.4-2,2.75,2.75,0,0,1,.294.01c.094,0,.2-.01.294-.01a3.912,3.912,0,0,1,3.39,1.984v.882H3.212Zm.1-.115h7.189V7.912A3.808,3.808,0,0,0,6.917,6c-.094,0-.189-.01-.294-.01A3.805,3.805,0,0,0,3.317,7.912v.745ZM6.864,4.7h0A2.2,2.2,0,0,1,4.682,2.549V2.475A2.206,2.206,0,0,1,6.833.24h.126A2.185,2.185,0,0,1,9.142,2.391v.084a2.244,2.244,0,0,1-.609,1.553A2.173,2.173,0,0,1,7,4.7H6.875ZM6.833.355a2.088,2.088,0,0,0-2.046,2.13v.073A2.088,2.088,0,0,0,6.854,4.606H6.98a2.036,2.036,0,0,0,1.459-.64,2.1,2.1,0,0,0,.588-1.48V2.4A2.1,2.1,0,0,0,6.938.345H6.822Zm.052,3.873a1.72,1.72,0,0,1-1.721-1.69V2.465a1.729,1.729,0,0,1,.483-1.228A1.758,1.758,0,0,1,6.854.7h.1A1.722,1.722,0,0,1,8.68,2.391v.073A1.729,1.729,0,0,1,8.2,3.693a1.684,1.684,0,0,1-1.207.525h-.1ZM6.843.817A1.613,1.613,0,0,0,5.259,2.465v.073A1.612,1.612,0,0,0,6.875,4.123h.1A1.608,1.608,0,0,0,8.113,3.63a1.59,1.59,0,0,0,.451-1.154V2.4A1.624,1.624,0,0,0,6.948.817h-.1Z" transform="translate(-2.478 0.012)" fill="url(#linear-gradient)"/>
      <path id="Path_25007" data-name="Path 25007" d="M2.49,9.508l.063-1.889a4.527,4.527,0,0,1,4.4-2.445c.073,0,.189-.01.3-.01a4.58,4.58,0,0,1,4.051,2.456l.052.178V9.246l-.063.073-.031-.031V9.4l-8.753.1Zm1.1-1.1h6.664V8A3.572,3.572,0,0,0,6.95,6.276H6.635A3.537,3.537,0,0,0,3.592,8.007v.409ZM6.877,4.975h0a2.46,2.46,0,0,1-2.445-2.4V2.5A2.471,2.471,0,0,1,6.835,0h.084A2.444,2.444,0,0,1,8.65.682,2.4,2.4,0,0,1,9.4,2.4v.084a2.452,2.452,0,0,1-.682,1.732,2.383,2.383,0,0,1-1.721.745H6.866ZM6.856,1.091a1.314,1.314,0,0,0-.945.42,1.338,1.338,0,0,0-.378.966V2.55a1.346,1.346,0,0,0,.409.945,1.36,1.36,0,0,0,.945.378h.1a1.314,1.314,0,0,0,.945-.42,1.338,1.338,0,0,0,.378-.966V2.414A1.358,1.358,0,0,0,6.961,1.091Z" transform="translate(-2.49 0)" fill="url(#linear-gradient-2)"/>
    </g>
    <g id="Group_5923" data-name="Group 5923" transform="translate(263.064 380.279)">
      <path id="Path_24481" data-name="Path 24481" d="M13.48,7.588H11.287v-.2A2.912,2.912,0,0,0,9.933,5.857L9.66,5.72l.252-.189a2.058,2.058,0,0,1,1.364-.451A2.286,2.286,0,0,1,13.47,6.654v.073l.01.861h0Zm-1.9-.378h1.574V6.759a1.947,1.947,0,0,0-1.868-1.312h-.01a1.756,1.756,0,0,0-.913.22,3.167,3.167,0,0,1,1.228,1.543h0Z" transform="translate(-9.587 -5.028)" fill="url(#linear-gradient-3)"/>
      <path id="Path_25008" data-name="Path 25008" d="M13.484,7.633H11.259V7.4A2.768,2.768,0,0,0,9.926,5.9L9.59,5.733l.3-.241a2.106,2.106,0,0,1,1.312-.462h.168A2.346,2.346,0,0,1,13.5,6.636V6.72l.021.871h-.031v.042Zm-2.151-.084h2.12V6.657a2.3,2.3,0,0,0-2.078-1.543H11.28a2.05,2.05,0,0,0-1.343.441L9.747,5.7l.21.1A2.912,2.912,0,0,1,11.332,7.36v.178Zm1.858-.294H11.584V7.213h-.031a3.136,3.136,0,0,0-1.217-1.5l-.063-.042.063-.031a1.831,1.831,0,0,1,.934-.22h.1a1.982,1.982,0,0,1,1.805,1.333v.514Zm-1.574-.084h1.511v-.4a1.906,1.906,0,0,0-1.742-1.28h-.1a1.78,1.78,0,0,0-.84.178,3.327,3.327,0,0,1,1.175,1.49Z" transform="translate(-9.59 -5.03)" fill="url(#linear-gradient-4)"/>
    </g>
    <g id="Group_5929" data-name="Group 5929" transform="translate(253.42 375.105)">
      <g id="Group_5927" data-name="Group 5927" transform="translate(0.105 0.105)">
        <path id="Path_24484" data-name="Path 24484" d="M2.405,3.91A1.805,1.805,0,1,1,4.21,2.105,1.805,1.805,0,0,1,2.405,3.91Zm0-3.148a1.349,1.349,0,1,1,0,.01h0Z" transform="translate(-0.495 -0.195)" fill="url(#linear-gradient-4)"/>
        <path id="Path_25012" data-name="Path 25012" d="M2.41,4.02h0a1.923,1.923,0,0,1-1.354-.556A1.91,1.91,0,0,1,2.41.2h0A1.923,1.923,0,0,1,3.764.756,1.915,1.915,0,0,1,2.41,4.02Zm0-3.61a1.7,1.7,0,0,0-1.7,1.7A1.735,1.735,0,0,0,1.2,3.317a1.682,1.682,0,0,0,1.207.5,1.707,1.707,0,0,0,1.7-1.7A1.735,1.735,0,0,0,3.617.914,1.682,1.682,0,0,0,2.41.41h0Zm0,3.138a1.448,1.448,0,0,1,0-2.9h.1A1.478,1.478,0,0,1,3.858,2.1,1.442,1.442,0,0,1,2.41,3.537ZM2.305.882a1.292,1.292,0,1,0,.1,0h-.1Z" transform="translate(-0.5 -0.2)" fill="url(#linear-gradient-4)"/>
      </g>
      <g id="Group_5928" data-name="Group 5928">
        <path id="Path_25013" data-name="Path 25013" d="M2.41,4.02h0a1.923,1.923,0,0,1-1.354-.556A1.91,1.91,0,0,1,2.41.2h0A1.923,1.923,0,0,1,3.764.756,1.915,1.915,0,0,1,2.41,4.02Zm0-3.61a1.7,1.7,0,0,0-1.7,1.7A1.735,1.735,0,0,0,1.2,3.317a1.682,1.682,0,0,0,1.207.5,1.707,1.707,0,0,0,1.7-1.7A1.735,1.735,0,0,0,3.617.914,1.682,1.682,0,0,0,2.41.41h0Zm0,3.138a1.448,1.448,0,0,1,0-2.9h.1A1.478,1.478,0,0,1,3.858,2.1,1.442,1.442,0,0,1,2.41,3.537ZM2.305.882a1.292,1.292,0,1,0,.1,0h-.1Z" transform="translate(-0.395 -0.095)" fill="url(#linear-gradient-4)"/>
        <path id="Path_25014" data-name="Path 25014" d="M2.415,4.13h0A2.018,2.018,0,0,1,.988.688,2.035,2.035,0,0,1,2.415.1,2.007,2.007,0,0,1,4.43,2.115,2.022,2.022,0,0,1,2.415,4.13ZM1.712.457a1.709,1.709,0,0,0-.567.388A1.82,1.82,0,0,0,.61,2.125a1.785,1.785,0,0,0,.525,1.28,1.82,1.82,0,0,0,1.28.535v0a1.774,1.774,0,0,0,1.364-.63,1.8,1.8,0,0,1-2.645.094A1.829,1.829,0,0,1,.61,2.125,1.8,1.8,0,0,1,1.145.845,1.881,1.881,0,0,1,1.712.457Zm.7-.042v.1A1.595,1.595,0,0,0,.82,2.1a1.622,1.622,0,0,0,.462,1.133A1.592,1.592,0,0,0,3.538.992,1.582,1.582,0,0,0,2.415.52v-.1ZM4.1,1.464a1.75,1.75,0,0,1,.126.651,1.846,1.846,0,0,1-.063.483,1.846,1.846,0,0,0,.063-.483A1.672,1.672,0,0,0,4.1,1.464ZM2.415.31h0A1.8,1.8,0,0,1,3.6.751,1.8,1.8,0,0,0,2.415.31a.9.9,0,0,0-.241.021c.084,0,.157-.021.241-.021Zm-.7.147Zm.7,3.2a1.553,1.553,0,0,1,0-3.106H2.53A1.572,1.572,0,0,1,3.968,2.1,1.554,1.554,0,0,1,2.415,3.647ZM2.4.772A1.343,1.343,0,1,0,3.087,3.28a1.31,1.31,0,0,1-.672.178A1.34,1.34,0,0,1,2.3.782h.094ZM2.31.992a1.333,1.333,0,1,0,.1.01h-.1Zm1.427.9a1.566,1.566,0,0,1,.021.22,1.333,1.333,0,0,1-.052.357,1.333,1.333,0,0,0,.052-.357A.786.786,0,0,0,3.737,1.895Z" transform="translate(-0.4 -0.1)" fill="url(#linear-gradient-4)"/>
      </g>
    </g>
    <g id="Group_5932" data-name="Group 5932">
      <g id="Group_5926" data-name="Group 5926" transform="translate(263 375.105)">
        <g id="Group_5924" data-name="Group 5924" transform="translate(0.105 0.105)">
          <path id="Path_24482" data-name="Path 24482" d="M11.235,3.91A1.805,1.805,0,1,1,13.04,2.105,1.805,1.805,0,0,1,11.235,3.91Zm0-3.148a1.349,1.349,0,1,1,0,.01h0Z" transform="translate(-9.325 -0.185)" fill="url(#linear-gradient-9)"/>
          <path id="Path_25009" data-name="Path 25009" d="M11.24,4.021h0a1.889,1.889,0,0,1-1.354-.567A1.91,1.91,0,0,1,11.24.19h0a1.91,1.91,0,0,1,0,3.82Zm.01-3.61a1.7,1.7,0,0,0-1.7,1.7,1.735,1.735,0,0,0,.493,1.207,1.682,1.682,0,0,0,1.207.5,1.7,1.7,0,0,0,0-3.4h0Zm-.01,3.138a1.448,1.448,0,0,1,0-2.9h.1A1.478,1.478,0,0,1,12.688,2.1,1.442,1.442,0,0,1,11.24,3.538Zm-.1-2.666a1.292,1.292,0,1,0,.1,0h-.1Z" transform="translate(-9.33 -0.19)" fill="url(#linear-gradient-10)"/>
        </g>
        <g id="Group_5925" data-name="Group 5925">
          <path id="Path_25010" data-name="Path 25010" d="M11.24,4.02h0a1.91,1.91,0,1,1,0-3.82h0a1.91,1.91,0,0,1,0,3.82Zm0-3.61a1.7,1.7,0,1,0,1.7,1.7,1.691,1.691,0,0,0-1.7-1.7h0Zm0,3.138a1.448,1.448,0,0,1,0-2.9h.1A1.478,1.478,0,0,1,12.688,2.1,1.442,1.442,0,0,1,11.24,3.537Zm-.1-2.666a1.292,1.292,0,1,0,.1,0h-.1Z" transform="translate(-9.225 -0.085)" fill="url(#linear-gradient-11)"/>
          <path id="Path_25011" data-name="Path 25011" d="M11.245,4.13h0a1.984,1.984,0,0,1-1.427-.6,2.027,2.027,0,0,1,0-2.855A2.018,2.018,0,0,1,13.26,2.1,2.022,2.022,0,0,1,11.245,4.12ZM9.471,2.451a1.758,1.758,0,0,0,.493.945,1.8,1.8,0,0,0,1.28.535,1.819,1.819,0,0,0,1.165-.42,1.81,1.81,0,0,1-2.939-1.06ZM11.255.415v.1a1.59,1.59,0,1,0,0-.01V.4ZM9.8,1.045Zm.84-.63a1.773,1.773,0,0,0-.661.42,1.713,1.713,0,0,0-.178.21,1.713,1.713,0,0,1,.178-.21A1.773,1.773,0,0,1,10.636.415Zm.619-.1h0a1.8,1.8,0,0,1,.787.178A1.783,1.783,0,0,0,11.13.31Zm-.619.1Zm.609,3.243a1.553,1.553,0,0,1,0-3.106h.115A1.58,1.58,0,0,1,12.8,2.1a1.554,1.554,0,0,1-1.553,1.543Zm-.6-.346a1.3,1.3,0,0,0,.609.147,1.345,1.345,0,0,0,.735-.22,1.37,1.37,0,0,1-1.333.073Zm.5-2.319a1.333,1.333,0,1,0,.1.01h-.1Zm.084-.22A1.348,1.348,0,0,0,9.944,1.79,1.355,1.355,0,0,1,11.13.772h.094Z" transform="translate(-9.23 -0.09)" fill="url(#linear-gradient-12)"/>
        </g>
      </g>
      <g id="Group_5931" data-name="Group 5931" transform="translate(263 375.115)">
        <g id="Group_5927-2" data-name="Group 5927" transform="translate(0.105 0.105)">
          <path id="Path_24484-2" data-name="Path 24484" d="M2.405,3.91A1.805,1.805,0,1,1,4.21,2.105,1.805,1.805,0,0,1,2.405,3.91Zm0-3.148a1.349,1.349,0,1,1,0,.01h0Z" transform="translate(-0.495 -0.195)" fill="url(#linear-gradient-4)"/>
          <path id="Path_25012-2" data-name="Path 25012" d="M2.41,4.02h0a1.923,1.923,0,0,1-1.354-.556A1.91,1.91,0,0,1,2.41.2h0A1.923,1.923,0,0,1,3.764.756,1.915,1.915,0,0,1,2.41,4.02Zm0-3.61a1.7,1.7,0,0,0-1.7,1.7A1.735,1.735,0,0,0,1.2,3.317a1.682,1.682,0,0,0,1.207.5,1.707,1.707,0,0,0,1.7-1.7A1.735,1.735,0,0,0,3.617.914,1.682,1.682,0,0,0,2.41.41h0Zm0,3.138a1.448,1.448,0,0,1,0-2.9h.1A1.478,1.478,0,0,1,3.858,2.1,1.442,1.442,0,0,1,2.41,3.537ZM2.305.882a1.292,1.292,0,1,0,.1,0h-.1Z" transform="translate(-0.5 -0.2)" fill="url(#linear-gradient-4)"/>
        </g>
        <g id="Group_5928-2" data-name="Group 5928">
          <path id="Path_25013-2" data-name="Path 25013" d="M2.41,4.02h0a1.923,1.923,0,0,1-1.354-.556A1.91,1.91,0,0,1,2.41.2h0A1.923,1.923,0,0,1,3.764.756,1.915,1.915,0,0,1,2.41,4.02Zm0-3.61a1.7,1.7,0,0,0-1.7,1.7A1.735,1.735,0,0,0,1.2,3.317a1.682,1.682,0,0,0,1.207.5,1.707,1.707,0,0,0,1.7-1.7A1.735,1.735,0,0,0,3.617.914,1.682,1.682,0,0,0,2.41.41h0Zm0,3.138a1.448,1.448,0,0,1,0-2.9h.1A1.478,1.478,0,0,1,3.858,2.1,1.442,1.442,0,0,1,2.41,3.537ZM2.305.882a1.292,1.292,0,1,0,.1,0h-.1Z" transform="translate(-0.395 -0.095)" fill="url(#linear-gradient-4)"/>
          <path id="Path_25014-2" data-name="Path 25014" d="M2.415,4.13h0A2.018,2.018,0,0,1,.988.688,2.035,2.035,0,0,1,2.415.1,2.007,2.007,0,0,1,4.43,2.115,2.022,2.022,0,0,1,2.415,4.13ZM1.712.457a1.709,1.709,0,0,0-.567.388A1.82,1.82,0,0,0,.61,2.125a1.785,1.785,0,0,0,.525,1.28,1.82,1.82,0,0,0,1.28.535v0a1.774,1.774,0,0,0,1.364-.63,1.8,1.8,0,0,1-2.645.094A1.829,1.829,0,0,1,.61,2.125,1.8,1.8,0,0,1,1.145.845,1.881,1.881,0,0,1,1.712.457Zm.7-.042v.1A1.595,1.595,0,0,0,.82,2.1a1.622,1.622,0,0,0,.462,1.133A1.592,1.592,0,0,0,3.538.992,1.582,1.582,0,0,0,2.415.52v-.1ZM4.1,1.464a1.75,1.75,0,0,1,.126.651,1.846,1.846,0,0,1-.063.483,1.846,1.846,0,0,0,.063-.483A1.672,1.672,0,0,0,4.1,1.464ZM2.415.31h0A1.8,1.8,0,0,1,3.6.751,1.8,1.8,0,0,0,2.415.31a.9.9,0,0,0-.241.021c.084,0,.157-.021.241-.021Zm-.7.147Zm.7,3.2a1.553,1.553,0,0,1,0-3.106H2.53A1.572,1.572,0,0,1,3.968,2.1,1.554,1.554,0,0,1,2.415,3.647ZM2.4.772A1.343,1.343,0,1,0,3.087,3.28a1.31,1.31,0,0,1-.672.178A1.34,1.34,0,0,1,2.3.782h.094ZM2.31.992a1.333,1.333,0,1,0,.1.01h-.1Zm1.427.9a1.566,1.566,0,0,1,.021.22,1.333,1.333,0,0,1-.052.357,1.333,1.333,0,0,0,.052-.357A.786.786,0,0,0,3.737,1.895Z" transform="translate(-0.4 -0.1)" fill="url(#linear-gradient-4)"/>
        </g>
      </g>
    </g>
    <g id="Group_5930" data-name="Group 5930" transform="translate(253 380.151)">
      <path id="Path_24485" data-name="Path 24485" d="M2.349,7.595H.04V6.608A2.444,2.444,0,0,1,2.37,4.95a2.215,2.215,0,0,1,1.438.472l.262.2-.283.147A3.034,3.034,0,0,0,2.359,7.374v.21ZM.386,7.2H2.034A3.425,3.425,0,0,1,3.325,5.58a1.85,1.85,0,0,0-.966-.231h-.01A2.048,2.048,0,0,0,.386,6.724V7.2Z" transform="translate(0.002 -4.906)" fill="url(#linear-gradient-17)"/>
      <path id="Path_25015" data-name="Path 25015" d="M2.382,7.639H0L.021,6.589A2.458,2.458,0,0,1,2.267,4.91h.1a2.178,2.178,0,0,1,1.448.483l.315.252-.357.178A2.914,2.914,0,0,0,2.382,7.4ZM.073,7.544H2.3V7.355A3.1,3.1,0,0,1,3.747,5.718l.22-.1-.2-.157a2.122,2.122,0,0,0-1.406-.462h-.1A2.383,2.383,0,0,0,.084,6.61v.934Zm1.994-.3H.262l.094-.073V6.7A2.107,2.107,0,0,1,2.267,5.3h.094a1.826,1.826,0,0,1,.987.231l.063.031L3.348,5.6a3.4,3.4,0,0,0-1.28,1.6v.021ZM.43,7.145H2.015A3.353,3.353,0,0,1,3.253,5.582a1.858,1.858,0,0,0-.882-.189H2.277A2.017,2.017,0,0,0,.441,6.736v.42Z" transform="translate(0 -4.908)" fill="url(#linear-gradient-18)"/>
    </g>
  </g>
</svg>
