<svg id="Group_2590" data-name="Group 2590" xmlns="http://www.w3.org/2000/svg" xmlns:xlink="http://www.w3.org/1999/xlink" width="25.147" height="20.716" viewBox="0 0 25.147 20.716">
  <defs>
    <linearGradient id="linear-gradient" x1="0.5" x2="0.5" y2="1" gradientUnits="objectBoundingBox">
      <stop offset="0" stop-color="#33d4a3"/>
      <stop offset="0.304" stop-color="#2dacb1"/>
      <stop offset="1" stop-color="#2986c0"/>
      <stop offset="1" stop-color="#2466cf"/>
    </linearGradient>
  </defs>
  <path id="engineering_24dp_5F6368_FILL0_wght200_GRAD0_opsz24" d="M76.62-796.2v-2.052a2.53,2.53,0,0,1,.434-1.453,3.129,3.129,0,0,1,1.225-1.036,16.366,16.366,0,0,1,3.369-1.227,15.123,15.123,0,0,1,3.7-.465,15.122,15.122,0,0,1,3.7.465,16.366,16.366,0,0,1,3.369,1.227,3.129,3.129,0,0,1,1.225,1.036,2.529,2.529,0,0,1,.434,1.453v2.052Zm1.247-1.247H92.829v-.806a1.218,1.218,0,0,0-.291-.839,2.569,2.569,0,0,0-.716-.556,14.35,14.35,0,0,0-2.931-1.074,13.81,13.81,0,0,0-3.543-.465,13.812,13.812,0,0,0-3.543.465,14.35,14.35,0,0,0-2.931,1.074,2.569,2.569,0,0,0-.716.556,1.219,1.219,0,0,0-.291.839Zm7.481-7.769a3.625,3.625,0,0,1-2.671-1.069,3.806,3.806,0,0,1-1.069-2.815h-.264a.465.465,0,0,1-.344-.136.466.466,0,0,1-.136-.344.466.466,0,0,1,.136-.344.466.466,0,0,1,.344-.135h.264a4.717,4.717,0,0,1,.4-1.721,4.494,4.494,0,0,1,1.137-1.477v1.184a.467.467,0,0,0,.135.344.467.467,0,0,0,.344.136.466.466,0,0,0,.344-.136.466.466,0,0,0,.136-.344v-1.635a4.546,4.546,0,0,1,.58-.164,3.114,3.114,0,0,1,.667-.071,3.11,3.11,0,0,1,.666.071,4.562,4.562,0,0,1,.58.164v1.635a.467.467,0,0,0,.135.344.466.466,0,0,0,.344.136.467.467,0,0,0,.344-.136.467.467,0,0,0,.135-.344v-1.185a4.235,4.235,0,0,1,1.149,1.477,4.884,4.884,0,0,1,.386,1.721h.264a.467.467,0,0,1,.344.135.467.467,0,0,1,.135.344.466.466,0,0,1-.135.344.466.466,0,0,1-.344.136h-.264a3.8,3.8,0,0,1-1.069,2.815A3.624,3.624,0,0,1,85.348-805.219Zm0-1.247a2.42,2.42,0,0,0,1.785-.708,2.42,2.42,0,0,0,.709-1.785H82.854a2.42,2.42,0,0,0,.709,1.785A2.42,2.42,0,0,0,85.348-806.466Zm9.4,3.6-.091-.888a2.255,2.255,0,0,1-.49-.2,1.853,1.853,0,0,1-.435-.318l-.825.36-.48-.834.734-.528a.813.813,0,0,1-.048-.259v-.506a1.019,1.019,0,0,1,.048-.271l-.734-.527.48-.834.825.36a1.884,1.884,0,0,1,.431-.314,2.242,2.242,0,0,1,.494-.2l.091-.887h.959l.091.887a2.245,2.245,0,0,1,.494.2,1.882,1.882,0,0,1,.432.314l.825-.36.479.834-.733.527a1.025,1.025,0,0,1,.048.271v.506a.817.817,0,0,1-.048.259l.733.528-.479.834-.825-.36a1.853,1.853,0,0,1-.435.318,2.263,2.263,0,0,1-.49.2l-.091.888Zm.48-1.8a1.086,1.086,0,0,0,.8-.328,1.087,1.087,0,0,0,.329-.8,1.087,1.087,0,0,0-.329-.8,1.087,1.087,0,0,0-.8-.328,1.088,1.088,0,0,0-.8.328,1.087,1.087,0,0,0-.329.8,1.087,1.087,0,0,0,.329.8A1.087,1.087,0,0,0,95.226-804.668Zm2.532-4.963-.106-.973a2.629,2.629,0,0,1-.742-.282,1.938,1.938,0,0,1-.625-.519l-.925.388-.537-.921.82-.6a1.827,1.827,0,0,1-.086-.369,2.937,2.937,0,0,1-.024-.369,2.937,2.937,0,0,1,.024-.369,1.822,1.822,0,0,1,.086-.369l-.82-.6.537-.921.925.388a1.936,1.936,0,0,1,.625-.519,2.63,2.63,0,0,1,.742-.282l.106-.973h1.074l.106.973a2.63,2.63,0,0,1,.742.282,1.936,1.936,0,0,1,.625.519l.925-.388.537.921-.82.6a1.824,1.824,0,0,1,.086.369,2.939,2.939,0,0,1,.024.369,2.938,2.938,0,0,1-.024.369,1.827,1.827,0,0,1-.086.369l.82.6-.537.921-.925-.388a1.938,1.938,0,0,1-.625.519,2.629,2.629,0,0,1-.742.282l-.106.973Zm.537-1.942a1.648,1.648,0,0,0,1.214-.488,1.648,1.648,0,0,0,.488-1.214,1.647,1.647,0,0,0-.488-1.214,1.648,1.648,0,0,0-1.214-.488,1.648,1.648,0,0,0-1.214.488,1.648,1.648,0,0,0-.488,1.214,1.648,1.648,0,0,0,.488,1.214A1.648,1.648,0,0,0,98.3-811.573ZM85.348-797.451Z" transform="translate(-76.62 816.92)" fill="url(#linear-gradient)"/>
</svg>
