<svg xmlns="http://www.w3.org/2000/svg" xmlns:xlink="http://www.w3.org/1999/xlink" width="14" height="10.973" viewBox="0 0 14 10.973">
  <defs>
    <linearGradient id="linear-gradient" y1="0.5" x2="1" y2="0.5" gradientUnits="objectBoundingBox">
      <stop offset="0" stop-color="#54be9a"/>
      <stop offset="0.33" stop-color="#2cabb0"/>
      <stop offset="0.74" stop-color="#2785c0"/>
      <stop offset="1" stop-color="#3a67b0"/>
    </linearGradient>
    <linearGradient id="linear-gradient-5" y1="0.496" y2="0.496" xlink:href="#linear-gradient"/>
    <linearGradient id="linear-gradient-6" x2="1.003" xlink:href="#linear-gradient"/>
    <linearGradient id="linear-gradient-8" x1="0.012" y1="0.512" y2="0.512" xlink:href="#linear-gradient"/>
    <linearGradient id="linear-gradient-9" y1="0.512" x2="0.988" y2="0.512" xlink:href="#linear-gradient"/>
    <linearGradient id="linear-gradient-13" y1="0.499" x2="1.001" y2="0.499" xlink:href="#linear-gradient"/>
    <linearGradient id="linear-gradient-16" y1="0.505" y2="0.505" xlink:href="#linear-gradient"/>
  </defs>
  <g id="Group_5907" data-name="Group 5907" transform="translate(-248 -236.873)">
    <path id="Path_24442" data-name="Path 24442" d="M3.459,13.892H1.189A.187.187,0,0,1,1,13.7V12.189A.187.187,0,0,1,1.189,12h2.27a.187.187,0,0,1,.189.189V13.7A.187.187,0,0,1,3.459,13.892Zm-2.081-.378H3.27V12.378H1.378Z" transform="translate(247.757 233.954)" fill="url(#linear-gradient)"/>
    <path id="Path_24443" data-name="Path 24443" d="M13.811,14.378H.189a.189.189,0,1,1,0-.378H13.811a.189.189,0,1,1,0,.378Z" transform="translate(248 233.467)" fill="url(#linear-gradient)"/>
    <path id="Path_24444" data-name="Path 24444" d="M2.946,10.676H2.189A.187.187,0,0,1,2,10.486v-5.3A.187.187,0,0,1,2.189,5h.757a.187.187,0,0,1,.189.189v5.3A.187.187,0,0,1,2.946,10.676ZM2.378,10.3h.378V5.378H2.378Z" transform="translate(247.513 235.657)" fill="url(#linear-gradient)"/>
    <path id="Path_24445" data-name="Path 24445" d="M2.081,4.162A2.081,2.081,0,1,1,4.162,2.081,2.08,2.08,0,0,1,2.081,4.162Zm0-3.784a1.7,1.7,0,1,0,1.7,1.7A1.705,1.705,0,0,0,2.081.378Z" transform="translate(248 236.873)" fill="url(#linear-gradient)"/>
    <path id="Path_24446" data-name="Path 24446" d="M2.269,3.551a.187.187,0,0,1-.189-.189V1.689A.187.187,0,0,1,2.269,1.5h.477a.666.666,0,1,1,0,1.332h-.3v.537a.187.187,0,0,1-.189.189Zm.189-1.672v.583h.3a.284.284,0,0,0,.288-.288.287.287,0,0,0-.288-.288H2.466Z" transform="translate(247.494 236.508)" fill="url(#linear-gradient-5)"/>
    <path id="Path_24447" data-name="Path 24447" d="M8.394,13.508a1.264,1.264,0,1,1,1.264-1.264A1.266,1.266,0,0,1,8.394,13.508ZM8.4,11.351a.885.885,0,1,0,.885.885A.887.887,0,0,0,8.4,11.351Z" transform="translate(246.266 234.202)" fill="url(#linear-gradient-6)"/>
    <path id="Path_24448" data-name="Path 24448" d="M14.714,13.508a1.264,1.264,0,1,1,1.264-1.264,1.266,1.266,0,0,1-1.264,1.264Zm0-2.157a.885.885,0,1,0,.885.885.887.887,0,0,0-.885-.885Z" transform="translate(244.728 234.202)" fill="url(#linear-gradient-6)"/>
    <path id="Path_24449" data-name="Path 24449" d="M15.02,12.851a.31.31,0,1,1,.31-.31A.307.307,0,0,1,15.02,12.851Zm0-.378a.068.068,0,0,0-.068.068c0,.076.136.076.136,0A.068.068,0,0,0,15.02,12.472Z" transform="translate(244.421 233.898)" fill="url(#linear-gradient-8)"/>
    <path id="Path_24450" data-name="Path 24450" d="M8.71,12.851a.31.31,0,1,1,.31-.31A.307.307,0,0,1,8.71,12.851Zm0-.378a.068.068,0,0,0-.068.068c0,.076.136.076.136,0A.068.068,0,0,0,8.71,12.472Z" transform="translate(245.957 233.898)" fill="url(#linear-gradient-9)"/>
    <path id="Path_24451" data-name="Path 24451" d="M6.946,12.378H6.189a.189.189,0,1,1,0-.378h.757a.189.189,0,0,1,0,.378Z" transform="translate(246.54 233.954)" fill="url(#linear-gradient)"/>
    <path id="Path_24452" data-name="Path 24452" d="M12.459,12.378h-2.27a.189.189,0,0,1,0-.378h2.27a.189.189,0,0,1,0,.378Z" transform="translate(245.567 233.954)" fill="url(#linear-gradient)"/>
    <path id="Path_24453" data-name="Path 24453" d="M17.7,12.378H16.189a.189.189,0,0,1,0-.378H17.7a.189.189,0,1,1,0,.378Z" transform="translate(244.108 233.954)" fill="url(#linear-gradient)"/>
    <path id="Path_24454" data-name="Path 24454" d="M14.749,10.839a.187.187,0,0,1-.189-.189V9.7a1.25,1.25,0,0,0-1.249-1.249.2.2,0,0,1-.159-.083l-.87-1.3a1.72,1.72,0,0,0-1.43-.764H8.725a1.206,1.206,0,0,0-1.2,1.2v.757a.187.187,0,0,1-.189.189.767.767,0,0,0-.764.764V10.65a.189.189,0,1,1-.378,0V9.212a1.147,1.147,0,0,1,.954-1.128V7.5A1.586,1.586,0,0,1,8.725,5.92h2.126a2.093,2.093,0,0,1,1.748.938l.81,1.218A1.631,1.631,0,0,1,14.931,9.7v.954a.187.187,0,0,1-.189.189Z" transform="translate(246.494 235.433)" fill="url(#linear-gradient-13)"/>
    <path id="Path_24455" data-name="Path 24455" d="M13.255,8.754h-1.2a.187.187,0,0,1-.189-.189v-1.2a.187.187,0,0,1,.189-.189,1.386,1.386,0,0,1,1.385,1.385A.187.187,0,0,1,13.255,8.754Zm-1.006-.378h.8a1.018,1.018,0,0,0-.8-.8v.8Z" transform="translate(245.112 235.127)" fill="url(#linear-gradient)"/>
    <path id="Path_24456" data-name="Path 24456" d="M10.337,8.754H8.9a.187.187,0,0,1-.189-.189V8.1a.922.922,0,0,1,.908-.916h.719a.187.187,0,0,1,.189.189v1.2A.187.187,0,0,1,10.337,8.754ZM9.088,8.376h1.059V7.558h-.53a.509.509,0,0,0-.378.159.539.539,0,0,0-.159.378v.288Z" transform="translate(245.881 235.127)" fill="url(#linear-gradient)"/>
    <path id="Path_24457" data-name="Path 24457" d="M12.189,10.377a.2.2,0,0,1-.136-.061A.218.218,0,0,1,12,10.18a.2.2,0,0,1,.053-.129l.068-.045a.233.233,0,0,1,.144,0,.42.42,0,0,1,.061.045.165.165,0,0,1,.038.061.112.112,0,0,1,.015.068.124.124,0,0,1-.015.076.165.165,0,0,1-.038.061.19.19,0,0,1-.136.061Z" transform="translate(245.081 234.442)" fill="url(#linear-gradient-16)"/>
    <path id="Path_24442-2" data-name="Path 24442" d="M3.459,13.892H1.189A.187.187,0,0,1,1,13.7V12.189A.187.187,0,0,1,1.189,12h2.27a.187.187,0,0,1,.189.189V13.7A.187.187,0,0,1,3.459,13.892Zm-2.081-.378H3.27V12.378H1.378Z" transform="translate(247.757 233.954)" fill="url(#linear-gradient)"/>
    <path id="Path_24443-2" data-name="Path 24443" d="M13.811,14.378H.189a.189.189,0,1,1,0-.378H13.811a.189.189,0,1,1,0,.378Z" transform="translate(248 233.467)" fill="url(#linear-gradient)"/>
    <path id="Path_24444-2" data-name="Path 24444" d="M2.946,10.676H2.189A.187.187,0,0,1,2,10.486v-5.3A.187.187,0,0,1,2.189,5h.757a.187.187,0,0,1,.189.189v5.3A.187.187,0,0,1,2.946,10.676ZM2.378,10.3h.378V5.378H2.378Z" transform="translate(247.513 235.657)" fill="url(#linear-gradient)"/>
    <path id="Path_24445-2" data-name="Path 24445" d="M2.081,4.162A2.081,2.081,0,1,1,4.162,2.081,2.08,2.08,0,0,1,2.081,4.162Zm0-3.784a1.7,1.7,0,1,0,1.7,1.7A1.705,1.705,0,0,0,2.081.378Z" transform="translate(248 236.873)" fill="url(#linear-gradient)"/>
    <path id="Path_24446-2" data-name="Path 24446" d="M2.269,3.551a.187.187,0,0,1-.189-.189V1.689A.187.187,0,0,1,2.269,1.5h.477a.666.666,0,1,1,0,1.332h-.3v.537a.187.187,0,0,1-.189.189Zm.189-1.672v.583h.3a.284.284,0,0,0,.288-.288.287.287,0,0,0-.288-.288H2.466Z" transform="translate(247.494 236.508)" fill="url(#linear-gradient-5)"/>
    <path id="Path_24447-2" data-name="Path 24447" d="M8.394,13.508a1.264,1.264,0,1,1,1.264-1.264A1.266,1.266,0,0,1,8.394,13.508ZM8.4,11.351a.885.885,0,1,0,.885.885A.887.887,0,0,0,8.4,11.351Z" transform="translate(246.266 234.202)" fill="url(#linear-gradient-6)"/>
    <path id="Path_24448-2" data-name="Path 24448" d="M14.714,13.508a1.264,1.264,0,1,1,1.264-1.264,1.266,1.266,0,0,1-1.264,1.264Zm0-2.157a.885.885,0,1,0,.885.885.887.887,0,0,0-.885-.885Z" transform="translate(244.728 234.202)" fill="url(#linear-gradient-6)"/>
    <path id="Path_24449-2" data-name="Path 24449" d="M15.02,12.851a.31.31,0,1,1,.31-.31A.307.307,0,0,1,15.02,12.851Zm0-.378a.068.068,0,0,0-.068.068c0,.076.136.076.136,0A.068.068,0,0,0,15.02,12.472Z" transform="translate(244.421 233.898)" fill="url(#linear-gradient-8)"/>
    <path id="Path_24450-2" data-name="Path 24450" d="M8.71,12.851a.31.31,0,1,1,.31-.31A.307.307,0,0,1,8.71,12.851Zm0-.378a.068.068,0,0,0-.068.068c0,.076.136.076.136,0A.068.068,0,0,0,8.71,12.472Z" transform="translate(245.957 233.898)" fill="url(#linear-gradient-9)"/>
    <path id="Path_24451-2" data-name="Path 24451" d="M6.946,12.378H6.189a.189.189,0,1,1,0-.378h.757a.189.189,0,0,1,0,.378Z" transform="translate(246.54 233.954)" fill="url(#linear-gradient)"/>
    <path id="Path_24452-2" data-name="Path 24452" d="M12.459,12.378h-2.27a.189.189,0,0,1,0-.378h2.27a.189.189,0,0,1,0,.378Z" transform="translate(245.567 233.954)" fill="url(#linear-gradient)"/>
    <path id="Path_24453-2" data-name="Path 24453" d="M17.7,12.378H16.189a.189.189,0,0,1,0-.378H17.7a.189.189,0,1,1,0,.378Z" transform="translate(244.108 233.954)" fill="url(#linear-gradient)"/>
    <path id="Path_24454-2" data-name="Path 24454" d="M14.749,10.839a.187.187,0,0,1-.189-.189V9.7a1.25,1.25,0,0,0-1.249-1.249.2.2,0,0,1-.159-.083l-.87-1.3a1.72,1.72,0,0,0-1.43-.764H8.725a1.206,1.206,0,0,0-1.2,1.2v.757a.187.187,0,0,1-.189.189.767.767,0,0,0-.764.764V10.65a.189.189,0,1,1-.378,0V9.212a1.147,1.147,0,0,1,.954-1.128V7.5A1.586,1.586,0,0,1,8.725,5.92h2.126a2.093,2.093,0,0,1,1.748.938l.81,1.218A1.631,1.631,0,0,1,14.931,9.7v.954a.187.187,0,0,1-.189.189Z" transform="translate(246.494 235.433)" fill="url(#linear-gradient-13)"/>
    <path id="Path_24455-2" data-name="Path 24455" d="M13.255,8.754h-1.2a.187.187,0,0,1-.189-.189v-1.2a.187.187,0,0,1,.189-.189,1.386,1.386,0,0,1,1.385,1.385A.187.187,0,0,1,13.255,8.754Zm-1.006-.378h.8a1.018,1.018,0,0,0-.8-.8v.8Z" transform="translate(245.112 235.127)" fill="url(#linear-gradient)"/>
    <path id="Path_24456-2" data-name="Path 24456" d="M10.337,8.754H8.9a.187.187,0,0,1-.189-.189V8.1a.922.922,0,0,1,.908-.916h.719a.187.187,0,0,1,.189.189v1.2A.187.187,0,0,1,10.337,8.754ZM9.088,8.376h1.059V7.558h-.53a.509.509,0,0,0-.378.159.539.539,0,0,0-.159.378v.288Z" transform="translate(245.881 235.127)" fill="url(#linear-gradient)"/>
    <path id="Path_24457-2" data-name="Path 24457" d="M12.189,10.377a.2.2,0,0,1-.136-.061A.218.218,0,0,1,12,10.18a.2.2,0,0,1,.053-.129l.068-.045a.233.233,0,0,1,.144,0,.42.42,0,0,1,.061.045.165.165,0,0,1,.038.061.112.112,0,0,1,.015.068.124.124,0,0,1-.015.076.165.165,0,0,1-.038.061.19.19,0,0,1-.136.061Z" transform="translate(245.081 234.442)" fill="url(#linear-gradient-16)"/>
    <path id="Path_24442-3" data-name="Path 24442" d="M3.459,13.892H1.189A.187.187,0,0,1,1,13.7V12.189A.187.187,0,0,1,1.189,12h2.27a.187.187,0,0,1,.189.189V13.7A.187.187,0,0,1,3.459,13.892Zm-2.081-.378H3.27V12.378H1.378Z" transform="translate(247.757 233.954)" fill="url(#linear-gradient)"/>
    <path id="Path_24443-3" data-name="Path 24443" d="M13.811,14.378H.189a.189.189,0,1,1,0-.378H13.811a.189.189,0,1,1,0,.378Z" transform="translate(248 233.467)" fill="url(#linear-gradient)"/>
    <path id="Path_24444-3" data-name="Path 24444" d="M2.946,10.676H2.189A.187.187,0,0,1,2,10.486v-5.3A.187.187,0,0,1,2.189,5h.757a.187.187,0,0,1,.189.189v5.3A.187.187,0,0,1,2.946,10.676ZM2.378,10.3h.378V5.378H2.378Z" transform="translate(247.513 235.657)" fill="url(#linear-gradient)"/>
    <path id="Path_24445-3" data-name="Path 24445" d="M2.081,4.162A2.081,2.081,0,1,1,4.162,2.081,2.08,2.08,0,0,1,2.081,4.162Zm0-3.784a1.7,1.7,0,1,0,1.7,1.7A1.705,1.705,0,0,0,2.081.378Z" transform="translate(248 236.873)" fill="url(#linear-gradient)"/>
    <path id="Path_24446-3" data-name="Path 24446" d="M2.269,3.551a.187.187,0,0,1-.189-.189V1.689A.187.187,0,0,1,2.269,1.5h.477a.666.666,0,1,1,0,1.332h-.3v.537a.187.187,0,0,1-.189.189Zm.189-1.672v.583h.3a.284.284,0,0,0,.288-.288.287.287,0,0,0-.288-.288H2.466Z" transform="translate(247.494 236.508)" fill="url(#linear-gradient-5)"/>
    <path id="Path_24447-3" data-name="Path 24447" d="M8.394,13.508a1.264,1.264,0,1,1,1.264-1.264A1.266,1.266,0,0,1,8.394,13.508ZM8.4,11.351a.885.885,0,1,0,.885.885A.887.887,0,0,0,8.4,11.351Z" transform="translate(246.266 234.202)" fill="url(#linear-gradient-6)"/>
    <path id="Path_24448-3" data-name="Path 24448" d="M14.714,13.508a1.264,1.264,0,1,1,1.264-1.264,1.266,1.266,0,0,1-1.264,1.264Zm0-2.157a.885.885,0,1,0,.885.885.887.887,0,0,0-.885-.885Z" transform="translate(244.728 234.202)" fill="url(#linear-gradient-6)"/>
    <path id="Path_24449-3" data-name="Path 24449" d="M15.02,12.851a.31.31,0,1,1,.31-.31A.307.307,0,0,1,15.02,12.851Zm0-.378a.068.068,0,0,0-.068.068c0,.076.136.076.136,0A.068.068,0,0,0,15.02,12.472Z" transform="translate(244.421 233.898)" fill="url(#linear-gradient-8)"/>
    <path id="Path_24450-3" data-name="Path 24450" d="M8.71,12.851a.31.31,0,1,1,.31-.31A.307.307,0,0,1,8.71,12.851Zm0-.378a.068.068,0,0,0-.068.068c0,.076.136.076.136,0A.068.068,0,0,0,8.71,12.472Z" transform="translate(245.957 233.898)" fill="url(#linear-gradient-9)"/>
    <path id="Path_24451-3" data-name="Path 24451" d="M6.946,12.378H6.189a.189.189,0,1,1,0-.378h.757a.189.189,0,0,1,0,.378Z" transform="translate(246.54 233.954)" fill="url(#linear-gradient)"/>
    <path id="Path_24452-3" data-name="Path 24452" d="M12.459,12.378h-2.27a.189.189,0,0,1,0-.378h2.27a.189.189,0,0,1,0,.378Z" transform="translate(245.567 233.954)" fill="url(#linear-gradient)"/>
    <path id="Path_24453-3" data-name="Path 24453" d="M17.7,12.378H16.189a.189.189,0,0,1,0-.378H17.7a.189.189,0,1,1,0,.378Z" transform="translate(244.108 233.954)" fill="url(#linear-gradient)"/>
    <path id="Path_24454-3" data-name="Path 24454" d="M14.749,10.839a.187.187,0,0,1-.189-.189V9.7a1.25,1.25,0,0,0-1.249-1.249.2.2,0,0,1-.159-.083l-.87-1.3a1.72,1.72,0,0,0-1.43-.764H8.725a1.206,1.206,0,0,0-1.2,1.2v.757a.187.187,0,0,1-.189.189.767.767,0,0,0-.764.764V10.65a.189.189,0,1,1-.378,0V9.212a1.147,1.147,0,0,1,.954-1.128V7.5A1.586,1.586,0,0,1,8.725,5.92h2.126a2.093,2.093,0,0,1,1.748.938l.81,1.218A1.631,1.631,0,0,1,14.931,9.7v.954a.187.187,0,0,1-.189.189Z" transform="translate(246.494 235.433)" fill="url(#linear-gradient-13)"/>
    <path id="Path_24455-3" data-name="Path 24455" d="M13.255,8.754h-1.2a.187.187,0,0,1-.189-.189v-1.2a.187.187,0,0,1,.189-.189,1.386,1.386,0,0,1,1.385,1.385A.187.187,0,0,1,13.255,8.754Zm-1.006-.378h.8a1.018,1.018,0,0,0-.8-.8v.8Z" transform="translate(245.112 235.127)" fill="url(#linear-gradient)"/>
    <path id="Path_24456-3" data-name="Path 24456" d="M10.337,8.754H8.9a.187.187,0,0,1-.189-.189V8.1a.922.922,0,0,1,.908-.916h.719a.187.187,0,0,1,.189.189v1.2A.187.187,0,0,1,10.337,8.754ZM9.088,8.376h1.059V7.558h-.53a.509.509,0,0,0-.378.159.539.539,0,0,0-.159.378v.288Z" transform="translate(245.881 235.127)" fill="url(#linear-gradient)"/>
    <path id="Path_24457-3" data-name="Path 24457" d="M12.189,10.377a.2.2,0,0,1-.136-.061A.218.218,0,0,1,12,10.18a.2.2,0,0,1,.053-.129l.068-.045a.233.233,0,0,1,.144,0,.42.42,0,0,1,.061.045.165.165,0,0,1,.038.061.112.112,0,0,1,.015.068.124.124,0,0,1-.015.076.165.165,0,0,1-.038.061.19.19,0,0,1-.136.061Z" transform="translate(245.081 234.442)" fill="url(#linear-gradient-16)"/>
  </g>
</svg>
