<svg id="Group_6921" data-name="Group 6921" xmlns="http://www.w3.org/2000/svg" width="53.395" height="53.395" viewBox="0 0 53.395 53.395">
  <path id="Path_28080" data-name="Path 28080" d="M345.785,2406.617c0,14.742-9.582,26.7-26.7,26.7a26.7,26.7,0,1,1,26.7-26.7Z" transform="translate(-292.39 -2379.92)" fill="#ffcf36"/>
  <ellipse id="Ellipse_30" data-name="Ellipse 30" cx="8.899" cy="8.899" rx="8.899" ry="8.899" transform="translate(7.563 15.127)" fill="#fff"/>
  <ellipse id="Ellipse_31" data-name="Ellipse 31" cx="3.115" cy="3.115" rx="3.115" ry="3.115" transform="translate(13.347 20.911)" fill="#844b00"/>
  <circle id="Ellipse_32" data-name="Ellipse 32" cx="8.899" cy="8.899" r="8.899" transform="translate(24.349 24.029) rotate(-45)" fill="#fff"/>
  <circle id="Ellipse_33" data-name="Ellipse 33" cx="3.115" cy="3.115" r="3.115" transform="translate(32.529 24.029) rotate(-45)" fill="#844b00"/>
  <path id="Path_28398" data-name="Path 28398" d="M2730.971,539.534a23.344,23.344,0,0,0-16.693-.009c-1.3.523.322,3.371,1.613,2.842a19.213,19.213,0,0,1,13.469.009C2730.655,542.878,2732.347,540.091,2730.971,539.534Z" transform="translate(-2695.862 -499.142)" fill="#844b00"/>
</svg>
