<svg xmlns="http://www.w3.org/2000/svg" xmlns:xlink="http://www.w3.org/1999/xlink" width="13.546" height="13.099" viewBox="0 0 13.546 13.099">
  <defs>
    <linearGradient id="linear-gradient" x1="0.523" y1="0.994" x2="0.477" y2="-0.023" gradientUnits="objectBoundingBox">
      <stop offset="0" stop-color="#54be9a"/>
      <stop offset="0.33" stop-color="#2cabb0"/>
      <stop offset="0.74" stop-color="#2785c0"/>
      <stop offset="1" stop-color="#3a67b0"/>
    </linearGradient>
    <linearGradient id="linear-gradient-2" x1="0.542" y1="1.011" x2="0.458" y2="-0.008" xlink:href="#linear-gradient"/>
    <linearGradient id="linear-gradient-3" x1="0.542" y1="1.011" x2="0.458" y2="-0.011" xlink:href="#linear-gradient"/>
    <linearGradient id="linear-gradient-4" x1="0.507" y1="1.086" x2="0.488" y2="-0.086" xlink:href="#linear-gradient"/>
    <linearGradient id="linear-gradient-5" x1="0.512" y1="1.086" x2="0.488" y2="-0.086" xlink:href="#linear-gradient"/>
    <linearGradient id="linear-gradient-6" x1="0.507" y1="1.071" x2="0.488" y2="-0.086" xlink:href="#linear-gradient"/>
    <linearGradient id="linear-gradient-7" x1="0.512" y1="1.071" x2="0.488" y2="-0.086" xlink:href="#linear-gradient"/>
    <linearGradient id="linear-gradient-8" x1="0.521" y1="0.978" x2="0.471" y2="0.007" xlink:href="#linear-gradient"/>
  </defs>
  <g id="Group_6363" data-name="Group 6363" transform="translate(-1014.454 -347)">
    <g id="Group_5976" data-name="Group 5976" transform="translate(1014.454 347)">
      <path id="Path_24810" data-name="Path 24810" d="M82.9,137.889H78.814a.914.914,0,0,1-.64-.3,1.108,1.108,0,0,1-.245-.854v-7.724l.008-.04c.1-.308.419-.814.957-.759,8.008-.047,9.345-.04,9.629.032h0a1.053,1.053,0,0,1,.9.925v2.119L78.482,131.2v5.558a.576.576,0,0,0,.1.459.381.381,0,0,0,.245.119H82.9v.553Zm-4.419-7.242,10.4.079v-1.518a.485.485,0,0,0-.443-.427.446.446,0,0,1-.095-.032c-.553-.032-5.913-.008-9.471.008-.2-.024-.34.245-.387.348v1.542Z" transform="translate(-77.925 -126.971)" fill="url(#linear-gradient)"/>
      <path id="Path_24811" data-name="Path 24811" d="M89.063,129.623H88.019a.422.422,0,0,1-.419-.419v-2.135a.422.422,0,0,1,.419-.419h1.044a.422.422,0,0,1,.419.419V129.2A.422.422,0,0,1,89.063,129.623Zm-.988-.466h.941v-2.032h-.941Z" transform="translate(-79.951 -126.65)" fill="url(#linear-gradient-2)"/>
      <path id="Path_24812" data-name="Path 24812" d="M82.093,129.623H80.828a.309.309,0,0,1-.308-.308v-2.356a.309.309,0,0,1,.308-.308h1.265a.309.309,0,0,1,.308.308v2.356A.309.309,0,0,1,82.093,129.623Zm-1.1-.466h.941v-2.032h-.941Z" transform="translate(-78.468 -126.65)" fill="url(#linear-gradient-3)"/>
      <rect id="Rectangle_1964" data-name="Rectangle 1964" width="1.7" height="0.553" transform="translate(2.004 5.859)" fill="url(#linear-gradient-4)"/>
      <rect id="Rectangle_1965" data-name="Rectangle 1965" width="1.7" height="0.553" transform="translate(4.905 5.859)" fill="url(#linear-gradient-5)"/>
      <rect id="Rectangle_1966" data-name="Rectangle 1966" width="1.7" height="0.553" transform="translate(2.004 8.063)" fill="url(#linear-gradient-6)"/>
      <rect id="Rectangle_1967" data-name="Rectangle 1967" width="1.7" height="0.553" transform="translate(4.905 8.063)" fill="url(#linear-gradient-7)"/>
      <path id="Path_24813" data-name="Path 24813" d="M84.821,140.879a1.163,1.163,0,0,1-.854-.387h0a1.293,1.293,0,0,1-.427-.885,1.527,1.527,0,0,1,.6-1.178c.095-.087,2.174-2.142,3-2.973a1.036,1.036,0,0,0,.032-.743l-.016-.071a2.427,2.427,0,0,1,2.008-2.561h2.048l-1.581,1.731,1.138,1.028,1.47-1.217.166.261a2.041,2.041,0,0,1,.158,1.55,2.282,2.282,0,0,1-2.316,1.795h-.04a4.6,4.6,0,0,0-1,.055H89.2l-3.067,2.933a2.09,2.09,0,0,1-1.312.672H84.8Zm-.308-2.048a1.038,1.038,0,0,0-.419.759.762.762,0,0,0,.245.5.73.73,0,0,0,.49.237,1.58,1.58,0,0,0,.925-.506l3.044-2.9c.079-.126.3-.292,1.439-.253a1.756,1.756,0,0,0,1.81-1.376,1.661,1.661,0,0,0,.024-.806l-1.3,1.083-1.905-1.723,1.115-1.225h-.759a1.887,1.887,0,0,0-1.494,1.961,1.56,1.56,0,0,1-.111,1.178l-.04.055c-.3.3-2.973,2.941-3.052,3.02h0Z" transform="translate(-79.101 -127.788)" fill="url(#linear-gradient-8)"/>
    </g>
    <g id="Group_6360" data-name="Group 6360" transform="translate(1014.454 347)">
      <path id="Path_24810-2" data-name="Path 24810" d="M82.9,137.889H78.814a.914.914,0,0,1-.64-.3,1.108,1.108,0,0,1-.245-.854v-7.724l.008-.04c.1-.308.419-.814.957-.759,8.008-.047,9.345-.04,9.629.032h0a1.053,1.053,0,0,1,.9.925v2.119L78.482,131.2v5.558a.576.576,0,0,0,.1.459.381.381,0,0,0,.245.119H82.9v.553Zm-4.419-7.242,10.4.079v-1.518a.485.485,0,0,0-.443-.427.446.446,0,0,1-.095-.032c-.553-.032-5.913-.008-9.471.008-.2-.024-.34.245-.387.348v1.542Z" transform="translate(-77.925 -126.971)" fill="url(#linear-gradient)"/>
      <path id="Path_24811-2" data-name="Path 24811" d="M89.063,129.623H88.019a.422.422,0,0,1-.419-.419v-2.135a.422.422,0,0,1,.419-.419h1.044a.422.422,0,0,1,.419.419V129.2A.422.422,0,0,1,89.063,129.623Zm-.988-.466h.941v-2.032h-.941Z" transform="translate(-79.951 -126.65)" fill="url(#linear-gradient-2)"/>
      <path id="Path_24812-2" data-name="Path 24812" d="M82.093,129.623H80.828a.309.309,0,0,1-.308-.308v-2.356a.309.309,0,0,1,.308-.308h1.265a.309.309,0,0,1,.308.308v2.356A.309.309,0,0,1,82.093,129.623Zm-1.1-.466h.941v-2.032h-.941Z" transform="translate(-78.468 -126.65)" fill="url(#linear-gradient-3)"/>
      <rect id="Rectangle_1964-2" data-name="Rectangle 1964" width="1.7" height="0.553" transform="translate(2.004 5.859)" fill="url(#linear-gradient-4)"/>
      <rect id="Rectangle_1965-2" data-name="Rectangle 1965" width="1.7" height="0.553" transform="translate(4.905 5.859)" fill="url(#linear-gradient-5)"/>
      <rect id="Rectangle_1966-2" data-name="Rectangle 1966" width="1.7" height="0.553" transform="translate(2.004 8.063)" fill="url(#linear-gradient-6)"/>
      <rect id="Rectangle_1967-2" data-name="Rectangle 1967" width="1.7" height="0.553" transform="translate(4.905 8.063)" fill="url(#linear-gradient-7)"/>
      <path id="Path_24813-2" data-name="Path 24813" d="M84.821,140.879a1.163,1.163,0,0,1-.854-.387h0a1.293,1.293,0,0,1-.427-.885,1.527,1.527,0,0,1,.6-1.178c.095-.087,2.174-2.142,3-2.973a1.036,1.036,0,0,0,.032-.743l-.016-.071a2.427,2.427,0,0,1,2.008-2.561h2.048l-1.581,1.731,1.138,1.028,1.47-1.217.166.261a2.041,2.041,0,0,1,.158,1.55,2.282,2.282,0,0,1-2.316,1.795h-.04a4.6,4.6,0,0,0-1,.055H89.2l-3.067,2.933a2.09,2.09,0,0,1-1.312.672H84.8Zm-.308-2.048a1.038,1.038,0,0,0-.419.759.762.762,0,0,0,.245.5.73.73,0,0,0,.49.237,1.58,1.58,0,0,0,.925-.506l3.044-2.9c.079-.126.3-.292,1.439-.253a1.756,1.756,0,0,0,1.81-1.376,1.661,1.661,0,0,0,.024-.806l-1.3,1.083-1.905-1.723,1.115-1.225h-.759a1.887,1.887,0,0,0-1.494,1.961,1.56,1.56,0,0,1-.111,1.178l-.04.055c-.3.3-2.973,2.941-3.052,3.02h0Z" transform="translate(-79.101 -127.788)" fill="url(#linear-gradient-8)"/>
    </g>
    <g id="Group_6361" data-name="Group 6361" transform="translate(1014.454 347)">
      <path id="Path_24810-3" data-name="Path 24810" d="M82.9,137.889H78.814a.914.914,0,0,1-.64-.3,1.108,1.108,0,0,1-.245-.854v-7.724l.008-.04c.1-.308.419-.814.957-.759,8.008-.047,9.345-.04,9.629.032h0a1.053,1.053,0,0,1,.9.925v2.119L78.482,131.2v5.558a.576.576,0,0,0,.1.459.381.381,0,0,0,.245.119H82.9v.553Zm-4.419-7.242,10.4.079v-1.518a.485.485,0,0,0-.443-.427.446.446,0,0,1-.095-.032c-.553-.032-5.913-.008-9.471.008-.2-.024-.34.245-.387.348v1.542Z" transform="translate(-77.925 -126.971)" fill="url(#linear-gradient)"/>
      <path id="Path_24811-3" data-name="Path 24811" d="M89.063,129.623H88.019a.422.422,0,0,1-.419-.419v-2.135a.422.422,0,0,1,.419-.419h1.044a.422.422,0,0,1,.419.419V129.2A.422.422,0,0,1,89.063,129.623Zm-.988-.466h.941v-2.032h-.941Z" transform="translate(-79.951 -126.65)" fill="url(#linear-gradient-2)"/>
      <path id="Path_24812-3" data-name="Path 24812" d="M82.093,129.623H80.828a.309.309,0,0,1-.308-.308v-2.356a.309.309,0,0,1,.308-.308h1.265a.309.309,0,0,1,.308.308v2.356A.309.309,0,0,1,82.093,129.623Zm-1.1-.466h.941v-2.032h-.941Z" transform="translate(-78.468 -126.65)" fill="url(#linear-gradient-3)"/>
      <rect id="Rectangle_1964-3" data-name="Rectangle 1964" width="1.7" height="0.553" transform="translate(2.004 5.859)" fill="url(#linear-gradient-4)"/>
      <rect id="Rectangle_1965-3" data-name="Rectangle 1965" width="1.7" height="0.553" transform="translate(4.905 5.859)" fill="url(#linear-gradient-5)"/>
      <rect id="Rectangle_1966-3" data-name="Rectangle 1966" width="1.7" height="0.553" transform="translate(2.004 8.063)" fill="url(#linear-gradient-6)"/>
      <rect id="Rectangle_1967-3" data-name="Rectangle 1967" width="1.7" height="0.553" transform="translate(4.905 8.063)" fill="url(#linear-gradient-7)"/>
      <path id="Path_24813-3" data-name="Path 24813" d="M84.821,140.879a1.163,1.163,0,0,1-.854-.387h0a1.293,1.293,0,0,1-.427-.885,1.527,1.527,0,0,1,.6-1.178c.095-.087,2.174-2.142,3-2.973a1.036,1.036,0,0,0,.032-.743l-.016-.071a2.427,2.427,0,0,1,2.008-2.561h2.048l-1.581,1.731,1.138,1.028,1.47-1.217.166.261a2.041,2.041,0,0,1,.158,1.55,2.282,2.282,0,0,1-2.316,1.795h-.04a4.6,4.6,0,0,0-1,.055H89.2l-3.067,2.933a2.09,2.09,0,0,1-1.312.672H84.8Zm-.308-2.048a1.038,1.038,0,0,0-.419.759.762.762,0,0,0,.245.5.73.73,0,0,0,.49.237,1.58,1.58,0,0,0,.925-.506l3.044-2.9c.079-.126.3-.292,1.439-.253a1.756,1.756,0,0,0,1.81-1.376,1.661,1.661,0,0,0,.024-.806l-1.3,1.083-1.905-1.723,1.115-1.225h-.759a1.887,1.887,0,0,0-1.494,1.961,1.56,1.56,0,0,1-.111,1.178l-.04.055c-.3.3-2.973,2.941-3.052,3.02h0Z" transform="translate(-79.101 -127.788)" fill="url(#linear-gradient-8)"/>
    </g>
    <g id="Group_6362" data-name="Group 6362" transform="translate(1014.454 347)">
      <path id="Path_24810-4" data-name="Path 24810" d="M82.9,137.889H78.814a.914.914,0,0,1-.64-.3,1.108,1.108,0,0,1-.245-.854v-7.724l.008-.04c.1-.308.419-.814.957-.759,8.008-.047,9.345-.04,9.629.032h0a1.053,1.053,0,0,1,.9.925v2.119L78.482,131.2v5.558a.576.576,0,0,0,.1.459.381.381,0,0,0,.245.119H82.9v.553Zm-4.419-7.242,10.4.079v-1.518a.485.485,0,0,0-.443-.427.446.446,0,0,1-.095-.032c-.553-.032-5.913-.008-9.471.008-.2-.024-.34.245-.387.348v1.542Z" transform="translate(-77.925 -126.971)" fill="url(#linear-gradient)"/>
      <path id="Path_24811-4" data-name="Path 24811" d="M89.063,129.623H88.019a.422.422,0,0,1-.419-.419v-2.135a.422.422,0,0,1,.419-.419h1.044a.422.422,0,0,1,.419.419V129.2A.422.422,0,0,1,89.063,129.623Zm-.988-.466h.941v-2.032h-.941Z" transform="translate(-79.951 -126.65)" fill="url(#linear-gradient-2)"/>
      <path id="Path_24812-4" data-name="Path 24812" d="M82.093,129.623H80.828a.309.309,0,0,1-.308-.308v-2.356a.309.309,0,0,1,.308-.308h1.265a.309.309,0,0,1,.308.308v2.356A.309.309,0,0,1,82.093,129.623Zm-1.1-.466h.941v-2.032h-.941Z" transform="translate(-78.468 -126.65)" fill="url(#linear-gradient-3)"/>
      <rect id="Rectangle_1964-4" data-name="Rectangle 1964" width="1.7" height="0.553" transform="translate(2.004 5.859)" fill="url(#linear-gradient-4)"/>
      <rect id="Rectangle_1965-4" data-name="Rectangle 1965" width="1.7" height="0.553" transform="translate(4.905 5.859)" fill="url(#linear-gradient-5)"/>
      <rect id="Rectangle_1966-4" data-name="Rectangle 1966" width="1.7" height="0.553" transform="translate(2.004 8.063)" fill="url(#linear-gradient-6)"/>
      <rect id="Rectangle_1967-4" data-name="Rectangle 1967" width="1.7" height="0.553" transform="translate(4.905 8.063)" fill="url(#linear-gradient-7)"/>
      <path id="Path_24813-4" data-name="Path 24813" d="M84.821,140.879a1.163,1.163,0,0,1-.854-.387h0a1.293,1.293,0,0,1-.427-.885,1.527,1.527,0,0,1,.6-1.178c.095-.087,2.174-2.142,3-2.973a1.036,1.036,0,0,0,.032-.743l-.016-.071a2.427,2.427,0,0,1,2.008-2.561h2.048l-1.581,1.731,1.138,1.028,1.47-1.217.166.261a2.041,2.041,0,0,1,.158,1.55,2.282,2.282,0,0,1-2.316,1.795h-.04a4.6,4.6,0,0,0-1,.055H89.2l-3.067,2.933a2.09,2.09,0,0,1-1.312.672H84.8Zm-.308-2.048a1.038,1.038,0,0,0-.419.759.762.762,0,0,0,.245.5.73.73,0,0,0,.49.237,1.58,1.58,0,0,0,.925-.506l3.044-2.9c.079-.126.3-.292,1.439-.253a1.756,1.756,0,0,0,1.81-1.376,1.661,1.661,0,0,0,.024-.806l-1.3,1.083-1.905-1.723,1.115-1.225h-.759a1.887,1.887,0,0,0-1.494,1.961,1.56,1.56,0,0,1-.111,1.178l-.04.055c-.3.3-2.973,2.941-3.052,3.02h0Z" transform="translate(-79.101 -127.788)" fill="url(#linear-gradient-8)"/>
    </g>
  </g>
</svg>
