<svg xmlns="http://www.w3.org/2000/svg" xmlns:xlink="http://www.w3.org/1999/xlink" width="13.828" height="16.034" viewBox="0 0 13.828 16.034">
  <defs>
    <linearGradient id="linear-gradient" x1="0.002" y1="0.501" x2="0.998" y2="0.501" gradientUnits="objectBoundingBox">
      <stop offset="0" stop-color="#55bf9b"/>
      <stop offset="0.15" stop-color="#2dacb1"/>
      <stop offset="0.4" stop-color="#2986c1"/>
      <stop offset="1" stop-color="#3b67b1"/>
    </linearGradient>
  </defs>
  <g id="Layer_2" data-name="Layer 2" transform="translate(0)">
    <path id="Path_26720" data-name="Path 26720" d="M209.32,170.784h-13v-2.5h3.292l.856-3.457-3.292,1.91-1.251-2.173,4.148-2.436v-.165a2.734,2.734,0,0,1,1.514-2.4V154.75h2.5v4.807a2.746,2.746,0,0,1,1.514,2.436v.132l4.148,2.436-1.251,2.173-3.292-1.91.856,3.457h3.292v2.5Zm-11.984-.988h11.029v-.527H205.3l-1.58-6.354a1.346,1.346,0,0,1-1.745,0l-1.58,6.354h-3.062v.527Zm6.42-6.914,4.379,2.535.263-.461-3.819-2.239v-.3a1.05,1.05,0,0,0,0-.329,1.711,1.711,0,0,0-1.185-1.679l-.329-.132V155.8h-.527v4.51l-.329.132a1.821,1.821,0,0,0-1.185,1.646v.658l-3.786,2.239.263.461,4.346-2.535a1.2,1.2,0,0,1-.3-.823,1.251,1.251,0,0,1,2.5,0,1.169,1.169,0,0,1-.329.823Zm-.922-1.119s-.263.132-.263.263c0,.3.527.3.527,0A.283.283,0,0,0,202.834,161.763Z" transform="translate(-195.92 -154.75)" fill="url(#linear-gradient)"/>
  </g>
</svg>
