<svg xmlns="http://www.w3.org/2000/svg" xmlns:xlink="http://www.w3.org/1999/xlink" width="25" height="25" viewBox="0 0 25 25">
  <defs>
    <linearGradient id="linear-gradient" x1="0.5" x2="0.5" y2="1" gradientUnits="objectBoundingBox">
      <stop offset="0" stop-color="#33d4a3"/>
      <stop offset="0.304" stop-color="#2dacb1"/>
      <stop offset="1" stop-color="#2986c0"/>
      <stop offset="1" stop-color="#2466cf"/>
    </linearGradient>
  </defs>
  <path id="list_alt_24dp_5F6368_FILL0_wght200_GRAD0_opsz24" d="M166.432-780.409a1.158,1.158,0,0,0,.856-.346,1.169,1.169,0,0,0,.344-.858,1.159,1.159,0,0,0-.346-.856,1.169,1.169,0,0,0-.858-.344,1.158,1.158,0,0,0-.856.346,1.169,1.169,0,0,0-.344.858,1.158,1.158,0,0,0,.346.856A1.168,1.168,0,0,0,166.432-780.409Zm0-5.889a1.158,1.158,0,0,0,.856-.346,1.169,1.169,0,0,0,.344-.858,1.158,1.158,0,0,0-.346-.856,1.168,1.168,0,0,0-.858-.344,1.159,1.159,0,0,0-.856.346,1.169,1.169,0,0,0-.344.858,1.158,1.158,0,0,0,.346.856A1.168,1.168,0,0,0,166.432-786.3Zm0-5.89a1.158,1.158,0,0,0,.856-.346,1.169,1.169,0,0,0,.344-.858,1.158,1.158,0,0,0-.346-.856,1.168,1.168,0,0,0-.858-.344,1.158,1.158,0,0,0-.856.346,1.169,1.169,0,0,0-.344.858,1.159,1.159,0,0,0,.346.856A1.168,1.168,0,0,0,166.432-792.188Zm4.805,11.358h8.414v-1.562h-8.414Zm0-5.889h8.414v-1.563h-8.414Zm0-5.889h8.414v-1.563h-8.414ZM162.524-775a2.445,2.445,0,0,1-1.8-.723,2.445,2.445,0,0,1-.723-1.8v-19.951a2.445,2.445,0,0,1,.723-1.8,2.445,2.445,0,0,1,1.8-.723h19.952a2.445,2.445,0,0,1,1.8.723,2.445,2.445,0,0,1,.723,1.8v19.951a2.445,2.445,0,0,1-.723,1.8,2.445,2.445,0,0,1-1.8.723Zm0-1.562h19.952a.919.919,0,0,0,.661-.3.919.919,0,0,0,.3-.661v-19.951a.919.919,0,0,0-.3-.661.919.919,0,0,0-.661-.3H162.524a.919.919,0,0,0-.661.3.919.919,0,0,0-.3.661v19.951a.919.919,0,0,0,.3.661A.919.919,0,0,0,162.524-776.562Zm-.962-21.875v0Z" transform="translate(-160 800)" fill="url(#linear-gradient)"/>
</svg>
