<svg xmlns="http://www.w3.org/2000/svg" xmlns:xlink="http://www.w3.org/1999/xlink" width="25.147" height="17.727" viewBox="0 0 25.147 17.727">
  <defs>
    <linearGradient id="linear-gradient" x1="0.5" x2="0.5" y2="1" gradientUnits="objectBoundingBox">
      <stop offset="0" stop-color="#33d4a3"/>
      <stop offset="0.304" stop-color="#2dacb1"/>
      <stop offset="1" stop-color="#2986c0"/>
      <stop offset="1" stop-color="#2466cf"/>
    </linearGradient>
  </defs>
  <path id="supervisor_account_24dp_5F6368_FILL0_wght200_GRAD0_opsz24" d="M123.738-733.592a2.578,2.578,0,0,1-1.888-.791,2.578,2.578,0,0,1-.791-1.888,2.578,2.578,0,0,1,.791-1.889,2.578,2.578,0,0,1,1.888-.791,2.579,2.579,0,0,1,1.889.791,2.579,2.579,0,0,1,.791,1.889,2.578,2.578,0,0,1-.791,1.888A2.578,2.578,0,0,1,123.738-733.592Zm-6.029,6.7V-728.1a2.117,2.117,0,0,1,.311-1.131,1.749,1.749,0,0,1,.884-.729,11.992,11.992,0,0,1,2.342-.715,12.876,12.876,0,0,1,2.491-.238,12.638,12.638,0,0,1,2.441.238,13.158,13.158,0,0,1,2.393.715,1.751,1.751,0,0,1,.884.729,2.119,2.119,0,0,1,.311,1.131v1.206ZM114-736.581a3.87,3.87,0,0,1-2.839-1.181,3.87,3.87,0,0,1-1.181-2.839,3.87,3.87,0,0,1,1.181-2.839A3.87,3.87,0,0,1,114-744.62a3.87,3.87,0,0,1,2.839,1.181,3.87,3.87,0,0,1,1.181,2.839,3.87,3.87,0,0,1-1.181,2.839A3.87,3.87,0,0,1,114-736.581ZM114-740.6Zm-9.379,13.708V-729.1a2.85,2.85,0,0,1,.479-1.6,2.849,2.849,0,0,1,1.3-1.077,16.771,16.771,0,0,1,3.692-1.36,16.7,16.7,0,0,1,3.9-.459,15.579,15.579,0,0,1,1.623.085q.812.085,1.623.224l-.572.6-.572.6a7.833,7.833,0,0,0-1.051-.134q-.526-.031-1.051-.031a16.528,16.528,0,0,0-3.583.392,12.881,12.881,0,0,0-3.374,1.262,2.873,2.873,0,0,0-.76.611,1.3,1.3,0,0,0-.322.889v.866H114v1.34ZM114-728.233Zm0-9.688a2.58,2.58,0,0,0,1.892-.787,2.58,2.58,0,0,0,.787-1.893,2.58,2.58,0,0,0-.787-1.892A2.58,2.58,0,0,0,114-743.28a2.58,2.58,0,0,0-1.892.787,2.58,2.58,0,0,0-.787,1.892,2.58,2.58,0,0,0,.787,1.893A2.58,2.58,0,0,0,114-737.921Z" transform="translate(-104.62 744.62)" fill="url(#linear-gradient)"/>
</svg>
