<svg xmlns="http://www.w3.org/2000/svg" xmlns:xlink="http://www.w3.org/1999/xlink" width="43" height="45.347" viewBox="0 0 43 45.347">
  <defs>
    <linearGradient id="linear-gradient" x1="0.5" y1="0.5" x2="0.865" y2="1.296" gradientUnits="objectBoundingBox">
      <stop offset="0" stop-color="#33d4a4"/>
      <stop offset="0.216" stop-color="#2dacb1"/>
      <stop offset="0.547" stop-color="#2986c0"/>
      <stop offset="1" stop-color="#2466cf"/>
    </linearGradient>
    <filter id="settings_account_box_24dp_5F6368_FILL0_wght200_GRAD0_opsz24" x="0" y="0" width="43" height="45.347" filterUnits="userSpaceOnUse">
      <feOffset dy="11" input="SourceAlpha"/>
      <feGaussianBlur stdDeviation="3" result="blur"/>
      <feFlood flood-opacity="0.161"/>
      <feComposite operator="in" in2="blur"/>
      <feComposite in="SourceGraphic"/>
    </filter>
    <filter id="settings_account_box_24dp_5F6368_FILL0_wght200_GRAD0_opsz24-2" x="0" y="0" width="43" height="45.347" filterUnits="userSpaceOnUse">
      <feOffset dy="3" input="SourceAlpha"/>
      <feGaussianBlur stdDeviation="3" result="blur-2"/>
      <feFlood flood-color="#2881c2" result="color"/>
      <feComposite operator="out" in="SourceGraphic" in2="blur-2"/>
      <feComposite operator="in" in="color"/>
      <feComposite operator="in" in2="SourceGraphic"/>
    </filter>
  </defs>
  <g data-type="innerShadowGroup">
    <g transform="matrix(1, 0, 0, 1, 0, 0)" filter="url(#settings_account_box_24dp_5F6368_FILL0_wght200_GRAD0_opsz24)">
      <path id="settings_account_box_24dp_5F6368_FILL0_wght200_GRAD0_opsz24-3" data-name="settings_account_box_24dp_5F6368_FILL0_wght200_GRAD0_opsz24" d="M145.792-816.516h7.656v-.928a4.783,4.783,0,0,0-1.715-1.306,5.056,5.056,0,0,0-2.113-.455,5.059,5.059,0,0,0-2.113.455,4.783,4.783,0,0,0-1.715,1.306Zm3.828-3.828a1.646,1.646,0,0,0,1.209-.5,1.646,1.646,0,0,0,.5-1.209,1.647,1.647,0,0,0-.5-1.209,1.647,1.647,0,0,0-1.209-.5,1.647,1.647,0,0,0-1.209.5,1.647,1.647,0,0,0-.5,1.209,1.646,1.646,0,0,0,.5,1.209A1.646,1.646,0,0,0,149.62-820.343ZM142.068-827.9Zm-.036-3.362a3.245,3.245,0,0,0-2.385.978,3.244,3.244,0,0,0-.978,2.384,3.227,3.227,0,0,0,.585,1.919,3.483,3.483,0,0,0,1.521,1.215q.026-.36.081-.7a2.267,2.267,0,0,1,.2-.631,1.622,1.622,0,0,1-.78-.74,2.271,2.271,0,0,1-.258-1.061,1.946,1.946,0,0,1,.588-1.429,1.946,1.946,0,0,1,1.429-.588,1.964,1.964,0,0,1,1.023.278,2.113,2.113,0,0,1,.743.741,1.93,1.93,0,0,1,.5-.209,2.139,2.139,0,0,1,.536-.067h.279a3.2,3.2,0,0,0-1.2-1.508A3.239,3.239,0,0,0,142.031-831.258Zm-2.473,15.467-.486-3.89a7.135,7.135,0,0,1-1.393-.61,6.818,6.818,0,0,1-1.274-.892l-3.588,1.526-2.509-4.371,3.1-2.338q-.059-.364-.1-.751a7.486,7.486,0,0,1-.039-.751,6.87,6.87,0,0,1,.039-.713q.039-.374.1-.842l-3.1-2.338,2.509-4.319,3.562,1.5a9.215,9.215,0,0,1,1.3-.905,7.453,7.453,0,0,1,1.363-.623l.512-3.89h5.018l.486,3.916a7.643,7.643,0,0,1,1.367.623,9.274,9.274,0,0,1,1.222.879l3.665-1.5,2.509,4.319-3.065,2.315a.226.226,0,0,1,.026.1.23.23,0,0,0,.026.1h-1.586q-.034-.168-.054-.314a1.376,1.376,0,0,0-.088-.314l3-2.263-1.337-2.286-3.432,1.438a6.873,6.873,0,0,0-1.6-1.256,6.42,6.42,0,0,0-1.882-.777l-.411-3.642H140.73l-.419,3.616a6.538,6.538,0,0,0-1.869.7,8,8,0,0,0-1.7,1.325l-3.355-1.4-1.337,2.286,2.917,2.178a4.408,4.408,0,0,0-.235.983,8.76,8.76,0,0,0-.067,1.1,7.684,7.684,0,0,0,.067,1.016,6.422,6.422,0,0,0,.209.983l-2.892,2.211,1.337,2.286,3.329-1.412a7.33,7.33,0,0,0,1.828,1.348,8.535,8.535,0,0,0,2.173.778v4.868Zm6.078,1.138a1.646,1.646,0,0,1-1.209-.5,1.646,1.646,0,0,1-.5-1.209v-7.966a1.645,1.645,0,0,1,.5-1.209,1.646,1.646,0,0,1,1.209-.5H153.6a1.646,1.646,0,0,1,1.209.5,1.645,1.645,0,0,1,.5,1.209v7.966a1.646,1.646,0,0,1-.5,1.209,1.646,1.646,0,0,1-1.209.5Z" transform="translate(-121.31 840)" fill="url(#linear-gradient)"/>
    </g>
    <g transform="matrix(1, 0, 0, 1, 0, 0)" filter="url(#settings_account_box_24dp_5F6368_FILL0_wght200_GRAD0_opsz24-2)">
      <path id="settings_account_box_24dp_5F6368_FILL0_wght200_GRAD0_opsz24-4" data-name="settings_account_box_24dp_5F6368_FILL0_wght200_GRAD0_opsz24" d="M145.792-816.516h7.656v-.928a4.783,4.783,0,0,0-1.715-1.306,5.056,5.056,0,0,0-2.113-.455,5.059,5.059,0,0,0-2.113.455,4.783,4.783,0,0,0-1.715,1.306Zm3.828-3.828a1.646,1.646,0,0,0,1.209-.5,1.646,1.646,0,0,0,.5-1.209,1.647,1.647,0,0,0-.5-1.209,1.647,1.647,0,0,0-1.209-.5,1.647,1.647,0,0,0-1.209.5,1.647,1.647,0,0,0-.5,1.209,1.646,1.646,0,0,0,.5,1.209A1.646,1.646,0,0,0,149.62-820.343ZM142.068-827.9Zm-.036-3.362a3.245,3.245,0,0,0-2.385.978,3.244,3.244,0,0,0-.978,2.384,3.227,3.227,0,0,0,.585,1.919,3.483,3.483,0,0,0,1.521,1.215q.026-.36.081-.7a2.267,2.267,0,0,1,.2-.631,1.622,1.622,0,0,1-.78-.74,2.271,2.271,0,0,1-.258-1.061,1.946,1.946,0,0,1,.588-1.429,1.946,1.946,0,0,1,1.429-.588,1.964,1.964,0,0,1,1.023.278,2.113,2.113,0,0,1,.743.741,1.93,1.93,0,0,1,.5-.209,2.139,2.139,0,0,1,.536-.067h.279a3.2,3.2,0,0,0-1.2-1.508A3.239,3.239,0,0,0,142.031-831.258Zm-2.473,15.467-.486-3.89a7.135,7.135,0,0,1-1.393-.61,6.818,6.818,0,0,1-1.274-.892l-3.588,1.526-2.509-4.371,3.1-2.338q-.059-.364-.1-.751a7.486,7.486,0,0,1-.039-.751,6.87,6.87,0,0,1,.039-.713q.039-.374.1-.842l-3.1-2.338,2.509-4.319,3.562,1.5a9.215,9.215,0,0,1,1.3-.905,7.453,7.453,0,0,1,1.363-.623l.512-3.89h5.018l.486,3.916a7.643,7.643,0,0,1,1.367.623,9.274,9.274,0,0,1,1.222.879l3.665-1.5,2.509,4.319-3.065,2.315a.226.226,0,0,1,.026.1.23.23,0,0,0,.026.1h-1.586q-.034-.168-.054-.314a1.376,1.376,0,0,0-.088-.314l3-2.263-1.337-2.286-3.432,1.438a6.873,6.873,0,0,0-1.6-1.256,6.42,6.42,0,0,0-1.882-.777l-.411-3.642H140.73l-.419,3.616a6.538,6.538,0,0,0-1.869.7,8,8,0,0,0-1.7,1.325l-3.355-1.4-1.337,2.286,2.917,2.178a4.408,4.408,0,0,0-.235.983,8.76,8.76,0,0,0-.067,1.1,7.684,7.684,0,0,0,.067,1.016,6.422,6.422,0,0,0,.209.983l-2.892,2.211,1.337,2.286,3.329-1.412a7.33,7.33,0,0,0,1.828,1.348,8.535,8.535,0,0,0,2.173.778v4.868Zm6.078,1.138a1.646,1.646,0,0,1-1.209-.5,1.646,1.646,0,0,1-.5-1.209v-7.966a1.645,1.645,0,0,1,.5-1.209,1.646,1.646,0,0,1,1.209-.5H153.6a1.646,1.646,0,0,1,1.209.5,1.645,1.645,0,0,1,.5,1.209v7.966a1.646,1.646,0,0,1-.5,1.209,1.646,1.646,0,0,1-1.209.5Z" transform="translate(-121.31 840)" fill="#fff"/>
    </g>
  </g>
</svg>
