<svg xmlns="http://www.w3.org/2000/svg" xmlns:xlink="http://www.w3.org/1999/xlink" width="14" height="14.005" viewBox="0 0 14 14.005">
  <defs>
    <linearGradient id="linear-gradient" y1="0.5" x2="1.001" y2="0.5" gradientUnits="objectBoundingBox">
      <stop offset="0" stop-color="#54be9a"/>
      <stop offset="0.33" stop-color="#2cabb0"/>
      <stop offset="0.74" stop-color="#2785c0"/>
      <stop offset="1" stop-color="#3a67b0"/>
    </linearGradient>
    <linearGradient id="linear-gradient-2" x1="0" y1="0.5" x2="1" y2="0.5" xlink:href="#linear-gradient"/>
    <linearGradient id="linear-gradient-3" x1="0" y1="0.5" x2="1" y2="0.5" xlink:href="#linear-gradient"/>
  </defs>
  <g id="Group_6373" data-name="Group 6373" transform="translate(-1014 -510)">
    <g id="Group_5977" data-name="Group 5977" transform="translate(1014 510)">
      <g id="_9040207_clock_history_icon" data-name=" 9040207 clock history icon" transform="translate(0 0)">
        <path id="Path_24392" data-name="Path 24392" d="M145.661,46.1c-.149-.01-.3-.015-.451-.015V45.21c.173,0,.342,0,.515.02Zm1.753.4a6.637,6.637,0,0,0-.862-.262l.193-.857a6.84,6.84,0,0,1,.985.3Zm1.2.624q-.186-.126-.386-.238l.431-.763a7.561,7.561,0,0,1,.857.569l-.54.688c-.119-.094-.243-.178-.366-.262h0Zm1.6,1.565a6.481,6.481,0,0,0-.569-.7l.634-.6a6.745,6.745,0,0,1,.654.8Zm.654,1.178c-.059-.139-.119-.277-.188-.411l.782-.4a7.267,7.267,0,0,1,.4.951l-.832.272c-.05-.139-.1-.282-.158-.421Zm.465,2.194a5.443,5.443,0,0,0-.089-.9l.862-.149a6.417,6.417,0,0,1,.1,1.025l-.876.02h0Zm-.114,1.347c.03-.149.054-.3.069-.446l.867.109a6.4,6.4,0,0,1-.2,1.01l-.842-.233c.04-.144.074-.292.1-.441h0Zm-.837,2.08a6.769,6.769,0,0,0,.426-.792l.8.357a7.312,7.312,0,0,1-.485.911l-.738-.47Zm-.842,1.055c.109-.109.208-.218.307-.332l.664.569c-.114.129-.228.257-.352.376l-.619-.619Z" transform="translate(-138.207 -45.21)" fill="url(#linear-gradient)"/>
        <path id="Path_24393" data-name="Path 24393" d="M138.07,46.086A6.125,6.125,0,1,0,142.4,56.544l.619.619a7,7,0,1,1-4.947-11.953v.876Z" transform="translate(-131.066 -45.21)" fill="url(#linear-gradient-2)"/>
        <path id="Path_24394" data-name="Path 24394" d="M143.881,50.51a.436.436,0,0,1,.436.436v4.56l2.842,1.624a.441.441,0,0,1,.144.6.436.436,0,0,1-.574.158l-3.065-1.748a.437.437,0,0,1-.223-.381V50.951a.436.436,0,0,1,.436-.436Z" transform="translate(-137.313 -47.886)" fill="url(#linear-gradient-3)"/>
      </g>
    </g>
    <g id="Group_6370" data-name="Group 6370" transform="translate(1014 510)">
      <g id="_9040207_clock_history_icon-2" data-name=" 9040207 clock history icon" transform="translate(0 0)">
        <path id="Path_24392-2" data-name="Path 24392" d="M145.661,46.1c-.149-.01-.3-.015-.451-.015V45.21c.173,0,.342,0,.515.02Zm1.753.4a6.637,6.637,0,0,0-.862-.262l.193-.857a6.84,6.84,0,0,1,.985.3Zm1.2.624q-.186-.126-.386-.238l.431-.763a7.561,7.561,0,0,1,.857.569l-.54.688c-.119-.094-.243-.178-.366-.262h0Zm1.6,1.565a6.481,6.481,0,0,0-.569-.7l.634-.6a6.745,6.745,0,0,1,.654.8Zm.654,1.178c-.059-.139-.119-.277-.188-.411l.782-.4a7.267,7.267,0,0,1,.4.951l-.832.272c-.05-.139-.1-.282-.158-.421Zm.465,2.194a5.443,5.443,0,0,0-.089-.9l.862-.149a6.417,6.417,0,0,1,.1,1.025l-.876.02h0Zm-.114,1.347c.03-.149.054-.3.069-.446l.867.109a6.4,6.4,0,0,1-.2,1.01l-.842-.233c.04-.144.074-.292.1-.441h0Zm-.837,2.08a6.769,6.769,0,0,0,.426-.792l.8.357a7.312,7.312,0,0,1-.485.911l-.738-.47Zm-.842,1.055c.109-.109.208-.218.307-.332l.664.569c-.114.129-.228.257-.352.376l-.619-.619Z" transform="translate(-138.207 -45.21)" fill="url(#linear-gradient)"/>
        <path id="Path_24393-2" data-name="Path 24393" d="M138.07,46.086A6.125,6.125,0,1,0,142.4,56.544l.619.619a7,7,0,1,1-4.947-11.953v.876Z" transform="translate(-131.066 -45.21)" fill="url(#linear-gradient-2)"/>
        <path id="Path_24394-2" data-name="Path 24394" d="M143.881,50.51a.436.436,0,0,1,.436.436v4.56l2.842,1.624a.441.441,0,0,1,.144.6.436.436,0,0,1-.574.158l-3.065-1.748a.437.437,0,0,1-.223-.381V50.951a.436.436,0,0,1,.436-.436Z" transform="translate(-137.313 -47.886)" fill="url(#linear-gradient-3)"/>
      </g>
    </g>
    <g id="Group_6371" data-name="Group 6371" transform="translate(1014 510)">
      <g id="_9040207_clock_history_icon-3" data-name=" 9040207 clock history icon" transform="translate(0 0)">
        <path id="Path_24392-3" data-name="Path 24392" d="M145.661,46.1c-.149-.01-.3-.015-.451-.015V45.21c.173,0,.342,0,.515.02Zm1.753.4a6.637,6.637,0,0,0-.862-.262l.193-.857a6.84,6.84,0,0,1,.985.3Zm1.2.624q-.186-.126-.386-.238l.431-.763a7.561,7.561,0,0,1,.857.569l-.54.688c-.119-.094-.243-.178-.366-.262h0Zm1.6,1.565a6.481,6.481,0,0,0-.569-.7l.634-.6a6.745,6.745,0,0,1,.654.8Zm.654,1.178c-.059-.139-.119-.277-.188-.411l.782-.4a7.267,7.267,0,0,1,.4.951l-.832.272c-.05-.139-.1-.282-.158-.421Zm.465,2.194a5.443,5.443,0,0,0-.089-.9l.862-.149a6.417,6.417,0,0,1,.1,1.025l-.876.02h0Zm-.114,1.347c.03-.149.054-.3.069-.446l.867.109a6.4,6.4,0,0,1-.2,1.01l-.842-.233c.04-.144.074-.292.1-.441h0Zm-.837,2.08a6.769,6.769,0,0,0,.426-.792l.8.357a7.312,7.312,0,0,1-.485.911l-.738-.47Zm-.842,1.055c.109-.109.208-.218.307-.332l.664.569c-.114.129-.228.257-.352.376l-.619-.619Z" transform="translate(-138.207 -45.21)" fill="url(#linear-gradient)"/>
        <path id="Path_24393-3" data-name="Path 24393" d="M138.07,46.086A6.125,6.125,0,1,0,142.4,56.544l.619.619a7,7,0,1,1-4.947-11.953v.876Z" transform="translate(-131.066 -45.21)" fill="url(#linear-gradient-2)"/>
        <path id="Path_24394-3" data-name="Path 24394" d="M143.881,50.51a.436.436,0,0,1,.436.436v4.56l2.842,1.624a.441.441,0,0,1,.144.6.436.436,0,0,1-.574.158l-3.065-1.748a.437.437,0,0,1-.223-.381V50.951a.436.436,0,0,1,.436-.436Z" transform="translate(-137.313 -47.886)" fill="url(#linear-gradient-3)"/>
      </g>
    </g>
    <g id="Group_6372" data-name="Group 6372" transform="translate(1014 510)">
      <g id="_9040207_clock_history_icon-4" data-name=" 9040207 clock history icon" transform="translate(0 0)">
        <path id="Path_24392-4" data-name="Path 24392" d="M145.661,46.1c-.149-.01-.3-.015-.451-.015V45.21c.173,0,.342,0,.515.02Zm1.753.4a6.637,6.637,0,0,0-.862-.262l.193-.857a6.84,6.84,0,0,1,.985.3Zm1.2.624q-.186-.126-.386-.238l.431-.763a7.561,7.561,0,0,1,.857.569l-.54.688c-.119-.094-.243-.178-.366-.262h0Zm1.6,1.565a6.481,6.481,0,0,0-.569-.7l.634-.6a6.745,6.745,0,0,1,.654.8Zm.654,1.178c-.059-.139-.119-.277-.188-.411l.782-.4a7.267,7.267,0,0,1,.4.951l-.832.272c-.05-.139-.1-.282-.158-.421Zm.465,2.194a5.443,5.443,0,0,0-.089-.9l.862-.149a6.417,6.417,0,0,1,.1,1.025l-.876.02h0Zm-.114,1.347c.03-.149.054-.3.069-.446l.867.109a6.4,6.4,0,0,1-.2,1.01l-.842-.233c.04-.144.074-.292.1-.441h0Zm-.837,2.08a6.769,6.769,0,0,0,.426-.792l.8.357a7.312,7.312,0,0,1-.485.911l-.738-.47Zm-.842,1.055c.109-.109.208-.218.307-.332l.664.569c-.114.129-.228.257-.352.376l-.619-.619Z" transform="translate(-138.207 -45.21)" fill="url(#linear-gradient)"/>
        <path id="Path_24393-4" data-name="Path 24393" d="M138.07,46.086A6.125,6.125,0,1,0,142.4,56.544l.619.619a7,7,0,1,1-4.947-11.953v.876Z" transform="translate(-131.066 -45.21)" fill="url(#linear-gradient-2)"/>
        <path id="Path_24394-4" data-name="Path 24394" d="M143.881,50.51a.436.436,0,0,1,.436.436v4.56l2.842,1.624a.441.441,0,0,1,.144.6.436.436,0,0,1-.574.158l-3.065-1.748a.437.437,0,0,1-.223-.381V50.951a.436.436,0,0,1,.436-.436Z" transform="translate(-137.313 -47.886)" fill="url(#linear-gradient-3)"/>
      </g>
    </g>
  </g>
</svg>
