<svg xmlns="http://www.w3.org/2000/svg" xmlns:xlink="http://www.w3.org/1999/xlink" width="21.986" height="28.086" viewBox="0 0 21.986 28.086">
  <defs>
    <linearGradient id="linear-gradient" x1="0.5" x2="0.5" y2="1" gradientUnits="objectBoundingBox">
      <stop offset="0" stop-color="#33d4a3"/>
      <stop offset="0.304" stop-color="#2dacb1"/>
      <stop offset="1" stop-color="#2986c0"/>
      <stop offset="1" stop-color="#2466cf"/>
    </linearGradient>
  </defs>
  <path id="encrypted_24dp_5F6368_FILL0_wght200_GRAD0_opsz24" d="M209.392-818.981h3.2l-.873-4.853a2.366,2.366,0,0,0,1.146-.852,2.235,2.235,0,0,0,.452-1.362,2.239,2.239,0,0,0-.681-1.644,2.24,2.24,0,0,0-1.644-.681,2.24,2.24,0,0,0-1.644.681,2.239,2.239,0,0,0-.681,1.644,2.234,2.234,0,0,0,.452,1.362,2.366,2.366,0,0,0,1.146.852Zm1.6,10.147a14.723,14.723,0,0,1-7.863-5.734,16.239,16.239,0,0,1-3.13-9.753v-8.492l10.993-4.107,10.993,4.107v8.492a16.239,16.239,0,0,1-3.13,9.753A14.723,14.723,0,0,1,210.993-808.834Zm0-1.667a12.779,12.779,0,0,0,6.753-5.182,14.916,14.916,0,0,0,2.67-8.637v-7.42l-9.422-3.5-9.422,3.5v7.42a14.916,14.916,0,0,0,2.67,8.637A12.779,12.779,0,0,0,210.993-810.5ZM210.993-822.877Z" transform="translate(-200 836.92)" fill="url(#linear-gradient)"/>
</svg>
