<svg xmlns="http://www.w3.org/2000/svg" xmlns:xlink="http://www.w3.org/1999/xlink" width="13.551" height="11.28" viewBox="0 0 13.551 11.28">
  <defs>
    <linearGradient id="linear-gradient" y1="0.501" x2="1" y2="0.501" gradientUnits="objectBoundingBox">
      <stop offset="0" stop-color="#55bf9b"/>
      <stop offset="0.33" stop-color="#2dacb1"/>
      <stop offset="0.74" stop-color="#2986c1"/>
      <stop offset="1" stop-color="#3b67b1"/>
    </linearGradient>
    <linearGradient id="linear-gradient-2" y1="0.501" x2="1" y2="0.501" gradientUnits="objectBoundingBox">
      <stop offset="0" stop-color="#55bf9b"/>
      <stop offset="0.15" stop-color="#2dacb1"/>
      <stop offset="0.4" stop-color="#2986c1"/>
      <stop offset="1" stop-color="#3b67b1"/>
    </linearGradient>
    <linearGradient id="linear-gradient-3" x1="-0.001" y1="0.498" x2="1" y2="0.498" xlink:href="#linear-gradient"/>
    <linearGradient id="linear-gradient-4" x1="0.001" y1="0.5" x2="1" y2="0.5" xlink:href="#linear-gradient-2"/>
    <linearGradient id="linear-gradient-5" x1="-0.001" y1="0.499" x2="0.998" y2="0.499" xlink:href="#linear-gradient"/>
    <linearGradient id="linear-gradient-6" x1="0" y1="0.498" x2="1" y2="0.498" xlink:href="#linear-gradient-2"/>
    <linearGradient id="linear-gradient-7" x1="0" y1="0.501" x2="1" y2="0.501" xlink:href="#linear-gradient"/>
    <linearGradient id="linear-gradient-8" x1="0" y1="0.501" x2="1" y2="0.501" xlink:href="#linear-gradient-2"/>
    <linearGradient id="linear-gradient-9" x1="0.004" y1="0.497" x2="0.997" y2="0.497" xlink:href="#linear-gradient"/>
    <linearGradient id="linear-gradient-10" x1="0" y1="0.5" x2="0.997" y2="0.5" xlink:href="#linear-gradient"/>
  </defs>
  <g id="Group_5370" data-name="Group 5370" transform="translate(0)">
    <g id="Group_4336" data-name="Group 4336" transform="translate(0 0)">
      <g id="Group_4293" data-name="Group 4293" transform="translate(0 6.799)">
        <path id="Path_25366" data-name="Path 25366" d="M56.132,69.787l-.1-.089.814-.9-2.312-3.044-1.163.657-.068-.123,1.266-.711,2.456,3.229Z" transform="translate(-53.156 -65.45)" fill="url(#linear-gradient)"/>
        <path id="Path_25367" data-name="Path 25367" d="M56.072,69.871l-.253-.226.828-.91-2.21-2.9-1.177.657L53.09,66.2l1.437-.807.055.068,2.51,3.3Z" transform="translate(-53.09 -65.39)" fill="url(#linear-gradient-2)"/>
      </g>
      <g id="Group_4294" data-name="Group 4294" transform="translate(3.366 5.684)">
        <path id="Path_25368" data-name="Path 25368" d="M58.191,67.906l-.041-.13.479-.157h5.4l4-3.078a.658.658,0,0,0-.287-.458,1.009,1.009,0,0,0-.91.082l-2.182,1.272-.068-.116,2.189-1.279a1.124,1.124,0,0,1,1.04-.075.851.851,0,0,1,.363.6V64.6l-.027.021-4.07,3.133H58.643l-.445.15Z" transform="translate(-58.054 -63.794)" fill="url(#linear-gradient-3)"/>
        <path id="Path_25369" data-name="Path 25369" d="M58.1,67.953l-.089-.26.561-.185h5.377L67.9,64.471a.584.584,0,0,0-.246-.369.969.969,0,0,0-.848.082L64.57,65.49l-.137-.239,2.251-1.313a1.215,1.215,0,0,1,1.115-.075.907.907,0,0,1,.4.657v.075l-.055.048L64.05,67.789H58.605l-.5.171Zm.493-.3H64l2.9-2.237L64,67.652Zm9.071-3.7s.041.021.062.034a.741.741,0,0,1,.322.506v.014a.74.74,0,0,0-.322-.52c-.021-.014-.041-.021-.062-.034Z" transform="translate(-58.01 -63.759)" fill="url(#linear-gradient-4)"/>
      </g>
      <g id="Group_4295" data-name="Group 4295" transform="translate(1.566 5.689)">
        <path id="Path_25370" data-name="Path 25370" d="M60.086,66.014v-.137l3.42-.048a.353.353,0,0,0,.055-.294c-.082-.363-.623-.684-.718-.739H61.687a2.271,2.271,0,0,1-1.163-.13c0,.007-.014.014-.021.027-.048.048-.1.027-.308-.178l-.383-.369.335.185c-.479-.472-1.861-.322-2.011-.3L55.6,65.583l-.068-.116L58.109,63.9c.068-.007,1.683-.226,2.2.4.068.082.116.144.15.192a2.3,2.3,0,0,0,1.231.171h1.2l.014.007c.027.014.7.376.8.835a.514.514,0,0,1-.1.431l-.021.027h-.034l-3.455.048Z" transform="translate(-55.427 -63.795)" fill="url(#linear-gradient-5)"/>
        <path id="Path_25371" data-name="Path 25371" d="M59.97,66.054V65.78l3.448-.048a.287.287,0,0,0,.027-.212c-.068-.322-.561-.623-.67-.684H61.639A2.316,2.316,0,0,1,60.5,64.72c-.109.1-.226-.014-.4-.178l-.4-.383a4.31,4.31,0,0,0-1.594-.082l-2.586,1.58-.144-.233,2.661-1.614c.068-.007,1.717-.233,2.257.417.062.075.109.13.144.178a2.212,2.212,0,0,0,1.177.157H62.85l.027.014c.075.041.732.41.835.882a.589.589,0,0,1-.109.493l-.041.055h-.068l-3.523.048Zm.137-.137,2.866-.041-2.866.041Zm3.413-.1a.021.021,0,0,1-.007.014h0s.007,0,.014-.014Zm0,0Zm-7.956-.356.034-.021ZM62.8,64.7h.034a2.254,2.254,0,0,1,.657.581,2.2,2.2,0,0,0-.677-.581H61.625a2.329,2.329,0,0,1-1.19-.15l.014.014h.041a2.08,2.08,0,0,0,1.129.13h1.17Zm-2.606-.26a.93.93,0,0,0,.219.178l.021-.041-.239-.137Zm-.055-.192.007.007h0a.021.021,0,0,1-.014-.007Zm-2.059-.308h0c.034,0,.1-.014.171-.021A1.435,1.435,0,0,0,58.075,63.94Z" transform="translate(-55.38 -63.767)" fill="url(#linear-gradient-6)"/>
      </g>
      <g id="Group_4296" data-name="Group 4296" transform="translate(6.375 0)">
        <path id="Path_25372" data-name="Path 25372" d="M65.3,61.138a2.8,2.8,0,0,1-2.764-2.408h0a2.794,2.794,0,1,1,3.154,2.381A2.491,2.491,0,0,1,65.3,61.138ZM62.674,58.71a2.656,2.656,0,1,0,2.264-3,2.654,2.654,0,0,0-2.264,3Z" transform="translate(-62.441 -55.482)" fill="url(#linear-gradient-7)"/>
        <path id="Path_25373" data-name="Path 25373" d="M65.269,61.176a2.863,2.863,0,1,1,1.724-5.151,2.863,2.863,0,0,1-1.327,5.124A2.581,2.581,0,0,1,65.269,61.176Zm.752-.239a2.361,2.361,0,0,1-.369.075c-.027,0-.055.007-.082.007a.334.334,0,0,0,.082-.007A2.94,2.94,0,0,0,66.022,60.936Zm-3.311-2.264a2.59,2.59,0,0,0,5.13-.711,2.59,2.59,0,1,0-5.13.711h0Zm2.558-3.085a2.736,2.736,0,0,1,2.7,2.346,2.663,2.663,0,0,1-.116,1.252,2.671,2.671,0,0,0,.116-1.252,2.708,2.708,0,0,0-1.06-1.8,2.663,2.663,0,0,0-2.011-.52,2.43,2.43,0,0,0-.322.062,2.43,2.43,0,0,1,.322-.062,3.479,3.479,0,0,1,.376-.027Zm-2.545,1.765a2.727,2.727,0,0,0-.15,1.334.616.616,0,0,0,.021.109.616.616,0,0,0-.021-.109h0A2.81,2.81,0,0,1,62.724,57.352Z" transform="translate(-62.409 -55.451)" fill="url(#linear-gradient-8)"/>
      </g>
      <path id="Path_25374" data-name="Path 25374" d="M66.142,60.5a.99.99,0,0,1-.622-.239,1.73,1.73,0,0,1-.192-2.511,1.217,1.217,0,0,1,1.566,0l-.082.109a1.092,1.092,0,0,0-1.382,0,1.576,1.576,0,0,0,.192,2.312.849.849,0,0,0,.575.2.884.884,0,0,0,.609-.356l.1.089a1,1,0,0,1-.7.4h-.055Z" transform="translate(-56.811 -56.082)" fill="url(#linear-gradient-9)"/>
      <rect id="Rectangle_2194" data-name="Rectangle 2194" width="2.066" height="0.137" transform="translate(7.716 3.078)" fill="url(#linear-gradient-10)"/>
      <rect id="Rectangle_2195" data-name="Rectangle 2195" width="2.066" height="0.137" transform="translate(7.716 2.49)" fill="url(#linear-gradient-10)"/>
    </g>
    <g id="Group_5366" data-name="Group 5366" transform="translate(0 0)">
      <g id="Group_4293-2" data-name="Group 4293" transform="translate(0 6.799)">
        <path id="Path_25366-2" data-name="Path 25366" d="M56.132,69.787l-.1-.089.814-.9-2.312-3.044-1.163.657-.068-.123,1.266-.711,2.456,3.229Z" transform="translate(-53.156 -65.45)" fill="url(#linear-gradient)"/>
        <path id="Path_25367-2" data-name="Path 25367" d="M56.072,69.871l-.253-.226.828-.91-2.21-2.9-1.177.657L53.09,66.2l1.437-.807.055.068,2.51,3.3Z" transform="translate(-53.09 -65.39)" fill="url(#linear-gradient-2)"/>
      </g>
      <g id="Group_4294-2" data-name="Group 4294" transform="translate(3.366 5.684)">
        <path id="Path_25368-2" data-name="Path 25368" d="M58.191,67.906l-.041-.13.479-.157h5.4l4-3.078a.658.658,0,0,0-.287-.458,1.009,1.009,0,0,0-.91.082l-2.182,1.272-.068-.116,2.189-1.279a1.124,1.124,0,0,1,1.04-.075.851.851,0,0,1,.363.6V64.6l-.027.021-4.07,3.133H58.643l-.445.15Z" transform="translate(-58.054 -63.794)" fill="url(#linear-gradient-3)"/>
        <path id="Path_25369-2" data-name="Path 25369" d="M58.1,67.953l-.089-.26.561-.185h5.377L67.9,64.471a.584.584,0,0,0-.246-.369.969.969,0,0,0-.848.082L64.57,65.49l-.137-.239,2.251-1.313a1.215,1.215,0,0,1,1.115-.075.907.907,0,0,1,.4.657v.075l-.055.048L64.05,67.789H58.605l-.5.171Zm.493-.3H64l2.9-2.237L64,67.652Zm9.071-3.7s.041.021.062.034a.741.741,0,0,1,.322.506v.014a.74.74,0,0,0-.322-.52c-.021-.014-.041-.021-.062-.034Z" transform="translate(-58.01 -63.759)" fill="url(#linear-gradient-4)"/>
      </g>
      <g id="Group_4295-2" data-name="Group 4295" transform="translate(1.566 5.689)">
        <path id="Path_25370-2" data-name="Path 25370" d="M60.086,66.014v-.137l3.42-.048a.353.353,0,0,0,.055-.294c-.082-.363-.623-.684-.718-.739H61.687a2.271,2.271,0,0,1-1.163-.13c0,.007-.014.014-.021.027-.048.048-.1.027-.308-.178l-.383-.369.335.185c-.479-.472-1.861-.322-2.011-.3L55.6,65.583l-.068-.116L58.109,63.9c.068-.007,1.683-.226,2.2.4.068.082.116.144.15.192a2.3,2.3,0,0,0,1.231.171h1.2l.014.007c.027.014.7.376.8.835a.514.514,0,0,1-.1.431l-.021.027h-.034l-3.455.048Z" transform="translate(-55.427 -63.795)" fill="url(#linear-gradient-5)"/>
        <path id="Path_25371-2" data-name="Path 25371" d="M59.97,66.054V65.78l3.448-.048a.287.287,0,0,0,.027-.212c-.068-.322-.561-.623-.67-.684H61.639A2.316,2.316,0,0,1,60.5,64.72c-.109.1-.226-.014-.4-.178l-.4-.383a4.31,4.31,0,0,0-1.594-.082l-2.586,1.58-.144-.233,2.661-1.614c.068-.007,1.717-.233,2.257.417.062.075.109.13.144.178a2.212,2.212,0,0,0,1.177.157H62.85l.027.014c.075.041.732.41.835.882a.589.589,0,0,1-.109.493l-.041.055h-.068l-3.523.048Zm.137-.137,2.866-.041-2.866.041Zm3.413-.1a.021.021,0,0,1-.007.014h0s.007,0,.014-.014Zm0,0Zm-7.956-.356.034-.021ZM62.8,64.7h.034a2.254,2.254,0,0,1,.657.581,2.2,2.2,0,0,0-.677-.581H61.625a2.329,2.329,0,0,1-1.19-.15l.014.014h.041a2.08,2.08,0,0,0,1.129.13h1.17Zm-2.606-.26a.93.93,0,0,0,.219.178l.021-.041-.239-.137Zm-.055-.192.007.007h0a.021.021,0,0,1-.014-.007Zm-2.059-.308h0c.034,0,.1-.014.171-.021A1.435,1.435,0,0,0,58.075,63.94Z" transform="translate(-55.38 -63.767)" fill="url(#linear-gradient-6)"/>
      </g>
      <g id="Group_4296-2" data-name="Group 4296" transform="translate(6.375 0)">
        <path id="Path_25372-2" data-name="Path 25372" d="M65.3,61.138a2.8,2.8,0,0,1-2.764-2.408h0a2.794,2.794,0,1,1,3.154,2.381A2.491,2.491,0,0,1,65.3,61.138ZM62.674,58.71a2.656,2.656,0,1,0,2.264-3,2.654,2.654,0,0,0-2.264,3Z" transform="translate(-62.441 -55.482)" fill="url(#linear-gradient-7)"/>
        <path id="Path_25373-2" data-name="Path 25373" d="M65.269,61.176a2.863,2.863,0,1,1,1.724-5.151,2.863,2.863,0,0,1-1.327,5.124A2.581,2.581,0,0,1,65.269,61.176Zm.752-.239a2.361,2.361,0,0,1-.369.075c-.027,0-.055.007-.082.007a.334.334,0,0,0,.082-.007A2.94,2.94,0,0,0,66.022,60.936Zm-3.311-2.264a2.59,2.59,0,0,0,5.13-.711,2.59,2.59,0,1,0-5.13.711h0Zm2.558-3.085a2.736,2.736,0,0,1,2.7,2.346,2.663,2.663,0,0,1-.116,1.252,2.671,2.671,0,0,0,.116-1.252,2.708,2.708,0,0,0-1.06-1.8,2.663,2.663,0,0,0-2.011-.52,2.43,2.43,0,0,0-.322.062,2.43,2.43,0,0,1,.322-.062,3.479,3.479,0,0,1,.376-.027Zm-2.545,1.765a2.727,2.727,0,0,0-.15,1.334.616.616,0,0,0,.021.109.616.616,0,0,0-.021-.109h0A2.81,2.81,0,0,1,62.724,57.352Z" transform="translate(-62.409 -55.451)" fill="url(#linear-gradient-8)"/>
      </g>
      <path id="Path_25374-2" data-name="Path 25374" d="M66.142,60.5a.99.99,0,0,1-.622-.239,1.73,1.73,0,0,1-.192-2.511,1.217,1.217,0,0,1,1.566,0l-.082.109a1.092,1.092,0,0,0-1.382,0,1.576,1.576,0,0,0,.192,2.312.849.849,0,0,0,.575.2.884.884,0,0,0,.609-.356l.1.089a1,1,0,0,1-.7.4h-.055Z" transform="translate(-56.811 -56.082)" fill="url(#linear-gradient-9)"/>
      <rect id="Rectangle_2194-2" data-name="Rectangle 2194" width="2.066" height="0.137" transform="translate(7.716 3.078)" fill="url(#linear-gradient-10)"/>
      <rect id="Rectangle_2195-2" data-name="Rectangle 2195" width="2.066" height="0.137" transform="translate(7.716 2.49)" fill="url(#linear-gradient-10)"/>
    </g>
    <g id="Group_5367" data-name="Group 5367" transform="translate(0 0)">
      <g id="Group_4293-3" data-name="Group 4293" transform="translate(0 6.799)">
        <path id="Path_25366-3" data-name="Path 25366" d="M56.132,69.787l-.1-.089.814-.9-2.312-3.044-1.163.657-.068-.123,1.266-.711,2.456,3.229Z" transform="translate(-53.156 -65.45)" fill="url(#linear-gradient)"/>
        <path id="Path_25367-3" data-name="Path 25367" d="M56.072,69.871l-.253-.226.828-.91-2.21-2.9-1.177.657L53.09,66.2l1.437-.807.055.068,2.51,3.3Z" transform="translate(-53.09 -65.39)" fill="url(#linear-gradient-2)"/>
      </g>
      <g id="Group_4294-3" data-name="Group 4294" transform="translate(3.366 5.684)">
        <path id="Path_25368-3" data-name="Path 25368" d="M58.191,67.906l-.041-.13.479-.157h5.4l4-3.078a.658.658,0,0,0-.287-.458,1.009,1.009,0,0,0-.91.082l-2.182,1.272-.068-.116,2.189-1.279a1.124,1.124,0,0,1,1.04-.075.851.851,0,0,1,.363.6V64.6l-.027.021-4.07,3.133H58.643l-.445.15Z" transform="translate(-58.054 -63.794)" fill="url(#linear-gradient-3)"/>
        <path id="Path_25369-3" data-name="Path 25369" d="M58.1,67.953l-.089-.26.561-.185h5.377L67.9,64.471a.584.584,0,0,0-.246-.369.969.969,0,0,0-.848.082L64.57,65.49l-.137-.239,2.251-1.313a1.215,1.215,0,0,1,1.115-.075.907.907,0,0,1,.4.657v.075l-.055.048L64.05,67.789H58.605l-.5.171Zm.493-.3H64l2.9-2.237L64,67.652Zm9.071-3.7s.041.021.062.034a.741.741,0,0,1,.322.506v.014a.74.74,0,0,0-.322-.52c-.021-.014-.041-.021-.062-.034Z" transform="translate(-58.01 -63.759)" fill="url(#linear-gradient-4)"/>
      </g>
      <g id="Group_4295-3" data-name="Group 4295" transform="translate(1.566 5.689)">
        <path id="Path_25370-3" data-name="Path 25370" d="M60.086,66.014v-.137l3.42-.048a.353.353,0,0,0,.055-.294c-.082-.363-.623-.684-.718-.739H61.687a2.271,2.271,0,0,1-1.163-.13c0,.007-.014.014-.021.027-.048.048-.1.027-.308-.178l-.383-.369.335.185c-.479-.472-1.861-.322-2.011-.3L55.6,65.583l-.068-.116L58.109,63.9c.068-.007,1.683-.226,2.2.4.068.082.116.144.15.192a2.3,2.3,0,0,0,1.231.171h1.2l.014.007c.027.014.7.376.8.835a.514.514,0,0,1-.1.431l-.021.027h-.034l-3.455.048Z" transform="translate(-55.427 -63.795)" fill="url(#linear-gradient-5)"/>
        <path id="Path_25371-3" data-name="Path 25371" d="M59.97,66.054V65.78l3.448-.048a.287.287,0,0,0,.027-.212c-.068-.322-.561-.623-.67-.684H61.639A2.316,2.316,0,0,1,60.5,64.72c-.109.1-.226-.014-.4-.178l-.4-.383a4.31,4.31,0,0,0-1.594-.082l-2.586,1.58-.144-.233,2.661-1.614c.068-.007,1.717-.233,2.257.417.062.075.109.13.144.178a2.212,2.212,0,0,0,1.177.157H62.85l.027.014c.075.041.732.41.835.882a.589.589,0,0,1-.109.493l-.041.055h-.068l-3.523.048Zm.137-.137,2.866-.041-2.866.041Zm3.413-.1a.021.021,0,0,1-.007.014h0s.007,0,.014-.014Zm0,0Zm-7.956-.356.034-.021ZM62.8,64.7h.034a2.254,2.254,0,0,1,.657.581,2.2,2.2,0,0,0-.677-.581H61.625a2.329,2.329,0,0,1-1.19-.15l.014.014h.041a2.08,2.08,0,0,0,1.129.13h1.17Zm-2.606-.26a.93.93,0,0,0,.219.178l.021-.041-.239-.137Zm-.055-.192.007.007h0a.021.021,0,0,1-.014-.007Zm-2.059-.308h0c.034,0,.1-.014.171-.021A1.435,1.435,0,0,0,58.075,63.94Z" transform="translate(-55.38 -63.767)" fill="url(#linear-gradient-6)"/>
      </g>
      <g id="Group_4296-3" data-name="Group 4296" transform="translate(6.375 0)">
        <path id="Path_25372-3" data-name="Path 25372" d="M65.3,61.138a2.8,2.8,0,0,1-2.764-2.408h0a2.794,2.794,0,1,1,3.154,2.381A2.491,2.491,0,0,1,65.3,61.138ZM62.674,58.71a2.656,2.656,0,1,0,2.264-3,2.654,2.654,0,0,0-2.264,3Z" transform="translate(-62.441 -55.482)" fill="url(#linear-gradient-7)"/>
        <path id="Path_25373-3" data-name="Path 25373" d="M65.269,61.176a2.863,2.863,0,1,1,1.724-5.151,2.863,2.863,0,0,1-1.327,5.124A2.581,2.581,0,0,1,65.269,61.176Zm.752-.239a2.361,2.361,0,0,1-.369.075c-.027,0-.055.007-.082.007a.334.334,0,0,0,.082-.007A2.94,2.94,0,0,0,66.022,60.936Zm-3.311-2.264a2.59,2.59,0,0,0,5.13-.711,2.59,2.59,0,1,0-5.13.711h0Zm2.558-3.085a2.736,2.736,0,0,1,2.7,2.346,2.663,2.663,0,0,1-.116,1.252,2.671,2.671,0,0,0,.116-1.252,2.708,2.708,0,0,0-1.06-1.8,2.663,2.663,0,0,0-2.011-.52,2.43,2.43,0,0,0-.322.062,2.43,2.43,0,0,1,.322-.062,3.479,3.479,0,0,1,.376-.027Zm-2.545,1.765a2.727,2.727,0,0,0-.15,1.334.616.616,0,0,0,.021.109.616.616,0,0,0-.021-.109h0A2.81,2.81,0,0,1,62.724,57.352Z" transform="translate(-62.409 -55.451)" fill="url(#linear-gradient-8)"/>
      </g>
      <path id="Path_25374-3" data-name="Path 25374" d="M66.142,60.5a.99.99,0,0,1-.622-.239,1.73,1.73,0,0,1-.192-2.511,1.217,1.217,0,0,1,1.566,0l-.082.109a1.092,1.092,0,0,0-1.382,0,1.576,1.576,0,0,0,.192,2.312.849.849,0,0,0,.575.2.884.884,0,0,0,.609-.356l.1.089a1,1,0,0,1-.7.4h-.055Z" transform="translate(-56.811 -56.082)" fill="url(#linear-gradient-9)"/>
      <rect id="Rectangle_2194-3" data-name="Rectangle 2194" width="2.066" height="0.137" transform="translate(7.716 3.078)" fill="url(#linear-gradient-10)"/>
      <rect id="Rectangle_2195-3" data-name="Rectangle 2195" width="2.066" height="0.137" transform="translate(7.716 2.49)" fill="url(#linear-gradient-10)"/>
    </g>
    <g id="Group_5368" data-name="Group 5368" transform="translate(0 0)">
      <g id="Group_4293-4" data-name="Group 4293" transform="translate(0 6.799)">
        <path id="Path_25366-4" data-name="Path 25366" d="M56.132,69.787l-.1-.089.814-.9-2.312-3.044-1.163.657-.068-.123,1.266-.711,2.456,3.229Z" transform="translate(-53.156 -65.45)" fill="url(#linear-gradient)"/>
        <path id="Path_25367-4" data-name="Path 25367" d="M56.072,69.871l-.253-.226.828-.91-2.21-2.9-1.177.657L53.09,66.2l1.437-.807.055.068,2.51,3.3Z" transform="translate(-53.09 -65.39)" fill="url(#linear-gradient-2)"/>
      </g>
      <g id="Group_4294-4" data-name="Group 4294" transform="translate(3.366 5.684)">
        <path id="Path_25368-4" data-name="Path 25368" d="M58.191,67.906l-.041-.13.479-.157h5.4l4-3.078a.658.658,0,0,0-.287-.458,1.009,1.009,0,0,0-.91.082l-2.182,1.272-.068-.116,2.189-1.279a1.124,1.124,0,0,1,1.04-.075.851.851,0,0,1,.363.6V64.6l-.027.021-4.07,3.133H58.643l-.445.15Z" transform="translate(-58.054 -63.794)" fill="url(#linear-gradient-3)"/>
        <path id="Path_25369-4" data-name="Path 25369" d="M58.1,67.953l-.089-.26.561-.185h5.377L67.9,64.471a.584.584,0,0,0-.246-.369.969.969,0,0,0-.848.082L64.57,65.49l-.137-.239,2.251-1.313a1.215,1.215,0,0,1,1.115-.075.907.907,0,0,1,.4.657v.075l-.055.048L64.05,67.789H58.605l-.5.171Zm.493-.3H64l2.9-2.237L64,67.652Zm9.071-3.7s.041.021.062.034a.741.741,0,0,1,.322.506v.014a.74.74,0,0,0-.322-.52c-.021-.014-.041-.021-.062-.034Z" transform="translate(-58.01 -63.759)" fill="url(#linear-gradient-4)"/>
      </g>
      <g id="Group_4295-4" data-name="Group 4295" transform="translate(1.566 5.689)">
        <path id="Path_25370-4" data-name="Path 25370" d="M60.086,66.014v-.137l3.42-.048a.353.353,0,0,0,.055-.294c-.082-.363-.623-.684-.718-.739H61.687a2.271,2.271,0,0,1-1.163-.13c0,.007-.014.014-.021.027-.048.048-.1.027-.308-.178l-.383-.369.335.185c-.479-.472-1.861-.322-2.011-.3L55.6,65.583l-.068-.116L58.109,63.9c.068-.007,1.683-.226,2.2.4.068.082.116.144.15.192a2.3,2.3,0,0,0,1.231.171h1.2l.014.007c.027.014.7.376.8.835a.514.514,0,0,1-.1.431l-.021.027h-.034l-3.455.048Z" transform="translate(-55.427 -63.795)" fill="url(#linear-gradient-5)"/>
        <path id="Path_25371-4" data-name="Path 25371" d="M59.97,66.054V65.78l3.448-.048a.287.287,0,0,0,.027-.212c-.068-.322-.561-.623-.67-.684H61.639A2.316,2.316,0,0,1,60.5,64.72c-.109.1-.226-.014-.4-.178l-.4-.383a4.31,4.31,0,0,0-1.594-.082l-2.586,1.58-.144-.233,2.661-1.614c.068-.007,1.717-.233,2.257.417.062.075.109.13.144.178a2.212,2.212,0,0,0,1.177.157H62.85l.027.014c.075.041.732.41.835.882a.589.589,0,0,1-.109.493l-.041.055h-.068l-3.523.048Zm.137-.137,2.866-.041-2.866.041Zm3.413-.1a.021.021,0,0,1-.007.014h0s.007,0,.014-.014Zm0,0Zm-7.956-.356.034-.021ZM62.8,64.7h.034a2.254,2.254,0,0,1,.657.581,2.2,2.2,0,0,0-.677-.581H61.625a2.329,2.329,0,0,1-1.19-.15l.014.014h.041a2.08,2.08,0,0,0,1.129.13h1.17Zm-2.606-.26a.93.93,0,0,0,.219.178l.021-.041-.239-.137Zm-.055-.192.007.007h0a.021.021,0,0,1-.014-.007Zm-2.059-.308h0c.034,0,.1-.014.171-.021A1.435,1.435,0,0,0,58.075,63.94Z" transform="translate(-55.38 -63.767)" fill="url(#linear-gradient-6)"/>
      </g>
      <g id="Group_4296-4" data-name="Group 4296" transform="translate(6.375 0)">
        <path id="Path_25372-4" data-name="Path 25372" d="M65.3,61.138a2.8,2.8,0,0,1-2.764-2.408h0a2.794,2.794,0,1,1,3.154,2.381A2.491,2.491,0,0,1,65.3,61.138ZM62.674,58.71a2.656,2.656,0,1,0,2.264-3,2.654,2.654,0,0,0-2.264,3Z" transform="translate(-62.441 -55.482)" fill="url(#linear-gradient-7)"/>
        <path id="Path_25373-4" data-name="Path 25373" d="M65.269,61.176a2.863,2.863,0,1,1,1.724-5.151,2.863,2.863,0,0,1-1.327,5.124A2.581,2.581,0,0,1,65.269,61.176Zm.752-.239a2.361,2.361,0,0,1-.369.075c-.027,0-.055.007-.082.007a.334.334,0,0,0,.082-.007A2.94,2.94,0,0,0,66.022,60.936Zm-3.311-2.264a2.59,2.59,0,0,0,5.13-.711,2.59,2.59,0,1,0-5.13.711h0Zm2.558-3.085a2.736,2.736,0,0,1,2.7,2.346,2.663,2.663,0,0,1-.116,1.252,2.671,2.671,0,0,0,.116-1.252,2.708,2.708,0,0,0-1.06-1.8,2.663,2.663,0,0,0-2.011-.52,2.43,2.43,0,0,0-.322.062,2.43,2.43,0,0,1,.322-.062,3.479,3.479,0,0,1,.376-.027Zm-2.545,1.765a2.727,2.727,0,0,0-.15,1.334.616.616,0,0,0,.021.109.616.616,0,0,0-.021-.109h0A2.81,2.81,0,0,1,62.724,57.352Z" transform="translate(-62.409 -55.451)" fill="url(#linear-gradient-8)"/>
      </g>
      <path id="Path_25374-4" data-name="Path 25374" d="M66.142,60.5a.99.99,0,0,1-.622-.239,1.73,1.73,0,0,1-.192-2.511,1.217,1.217,0,0,1,1.566,0l-.082.109a1.092,1.092,0,0,0-1.382,0,1.576,1.576,0,0,0,.192,2.312.849.849,0,0,0,.575.2.884.884,0,0,0,.609-.356l.1.089a1,1,0,0,1-.7.4h-.055Z" transform="translate(-56.811 -56.082)" fill="url(#linear-gradient-9)"/>
      <rect id="Rectangle_2194-4" data-name="Rectangle 2194" width="2.066" height="0.137" transform="translate(7.716 3.078)" fill="url(#linear-gradient-10)"/>
      <rect id="Rectangle_2195-4" data-name="Rectangle 2195" width="2.066" height="0.137" transform="translate(7.716 2.49)" fill="url(#linear-gradient-10)"/>
    </g>
    <g id="Group_5369" data-name="Group 5369" transform="translate(0 0)">
      <g id="Group_4293-5" data-name="Group 4293" transform="translate(0 6.799)">
        <path id="Path_25366-5" data-name="Path 25366" d="M56.132,69.787l-.1-.089.814-.9-2.312-3.044-1.163.657-.068-.123,1.266-.711,2.456,3.229Z" transform="translate(-53.156 -65.45)" fill="url(#linear-gradient)"/>
        <path id="Path_25367-5" data-name="Path 25367" d="M56.072,69.871l-.253-.226.828-.91-2.21-2.9-1.177.657L53.09,66.2l1.437-.807.055.068,2.51,3.3Z" transform="translate(-53.09 -65.39)" fill="url(#linear-gradient-2)"/>
      </g>
      <g id="Group_4294-5" data-name="Group 4294" transform="translate(3.366 5.684)">
        <path id="Path_25368-5" data-name="Path 25368" d="M58.191,67.906l-.041-.13.479-.157h5.4l4-3.078a.658.658,0,0,0-.287-.458,1.009,1.009,0,0,0-.91.082l-2.182,1.272-.068-.116,2.189-1.279a1.124,1.124,0,0,1,1.04-.075.851.851,0,0,1,.363.6V64.6l-.027.021-4.07,3.133H58.643l-.445.15Z" transform="translate(-58.054 -63.794)" fill="url(#linear-gradient-3)"/>
        <path id="Path_25369-5" data-name="Path 25369" d="M58.1,67.953l-.089-.26.561-.185h5.377L67.9,64.471a.584.584,0,0,0-.246-.369.969.969,0,0,0-.848.082L64.57,65.49l-.137-.239,2.251-1.313a1.215,1.215,0,0,1,1.115-.075.907.907,0,0,1,.4.657v.075l-.055.048L64.05,67.789H58.605l-.5.171Zm.493-.3H64l2.9-2.237L64,67.652Zm9.071-3.7s.041.021.062.034a.741.741,0,0,1,.322.506v.014a.74.74,0,0,0-.322-.52c-.021-.014-.041-.021-.062-.034Z" transform="translate(-58.01 -63.759)" fill="url(#linear-gradient-4)"/>
      </g>
      <g id="Group_4295-5" data-name="Group 4295" transform="translate(1.566 5.689)">
        <path id="Path_25370-5" data-name="Path 25370" d="M60.086,66.014v-.137l3.42-.048a.353.353,0,0,0,.055-.294c-.082-.363-.623-.684-.718-.739H61.687a2.271,2.271,0,0,1-1.163-.13c0,.007-.014.014-.021.027-.048.048-.1.027-.308-.178l-.383-.369.335.185c-.479-.472-1.861-.322-2.011-.3L55.6,65.583l-.068-.116L58.109,63.9c.068-.007,1.683-.226,2.2.4.068.082.116.144.15.192a2.3,2.3,0,0,0,1.231.171h1.2l.014.007c.027.014.7.376.8.835a.514.514,0,0,1-.1.431l-.021.027h-.034l-3.455.048Z" transform="translate(-55.427 -63.795)" fill="url(#linear-gradient-5)"/>
        <path id="Path_25371-5" data-name="Path 25371" d="M59.97,66.054V65.78l3.448-.048a.287.287,0,0,0,.027-.212c-.068-.322-.561-.623-.67-.684H61.639A2.316,2.316,0,0,1,60.5,64.72c-.109.1-.226-.014-.4-.178l-.4-.383a4.31,4.31,0,0,0-1.594-.082l-2.586,1.58-.144-.233,2.661-1.614c.068-.007,1.717-.233,2.257.417.062.075.109.13.144.178a2.212,2.212,0,0,0,1.177.157H62.85l.027.014c.075.041.732.41.835.882a.589.589,0,0,1-.109.493l-.041.055h-.068l-3.523.048Zm.137-.137,2.866-.041-2.866.041Zm3.413-.1a.021.021,0,0,1-.007.014h0s.007,0,.014-.014Zm0,0Zm-7.956-.356.034-.021ZM62.8,64.7h.034a2.254,2.254,0,0,1,.657.581,2.2,2.2,0,0,0-.677-.581H61.625a2.329,2.329,0,0,1-1.19-.15l.014.014h.041a2.08,2.08,0,0,0,1.129.13h1.17Zm-2.606-.26a.93.93,0,0,0,.219.178l.021-.041-.239-.137Zm-.055-.192.007.007h0a.021.021,0,0,1-.014-.007Zm-2.059-.308h0c.034,0,.1-.014.171-.021A1.435,1.435,0,0,0,58.075,63.94Z" transform="translate(-55.38 -63.767)" fill="url(#linear-gradient-6)"/>
      </g>
      <g id="Group_4296-5" data-name="Group 4296" transform="translate(6.375 0)">
        <path id="Path_25372-5" data-name="Path 25372" d="M65.3,61.138a2.8,2.8,0,0,1-2.764-2.408h0a2.794,2.794,0,1,1,3.154,2.381A2.491,2.491,0,0,1,65.3,61.138ZM62.674,58.71a2.656,2.656,0,1,0,2.264-3,2.654,2.654,0,0,0-2.264,3Z" transform="translate(-62.441 -55.482)" fill="url(#linear-gradient-7)"/>
        <path id="Path_25373-5" data-name="Path 25373" d="M65.269,61.176a2.863,2.863,0,1,1,1.724-5.151,2.863,2.863,0,0,1-1.327,5.124A2.581,2.581,0,0,1,65.269,61.176Zm.752-.239a2.361,2.361,0,0,1-.369.075c-.027,0-.055.007-.082.007a.334.334,0,0,0,.082-.007A2.94,2.94,0,0,0,66.022,60.936Zm-3.311-2.264a2.59,2.59,0,0,0,5.13-.711,2.59,2.59,0,1,0-5.13.711h0Zm2.558-3.085a2.736,2.736,0,0,1,2.7,2.346,2.663,2.663,0,0,1-.116,1.252,2.671,2.671,0,0,0,.116-1.252,2.708,2.708,0,0,0-1.06-1.8,2.663,2.663,0,0,0-2.011-.52,2.43,2.43,0,0,0-.322.062,2.43,2.43,0,0,1,.322-.062,3.479,3.479,0,0,1,.376-.027Zm-2.545,1.765a2.727,2.727,0,0,0-.15,1.334.616.616,0,0,0,.021.109.616.616,0,0,0-.021-.109h0A2.81,2.81,0,0,1,62.724,57.352Z" transform="translate(-62.409 -55.451)" fill="url(#linear-gradient-8)"/>
      </g>
      <path id="Path_25374-5" data-name="Path 25374" d="M66.142,60.5a.99.99,0,0,1-.622-.239,1.73,1.73,0,0,1-.192-2.511,1.217,1.217,0,0,1,1.566,0l-.082.109a1.092,1.092,0,0,0-1.382,0,1.576,1.576,0,0,0,.192,2.312.849.849,0,0,0,.575.2.884.884,0,0,0,.609-.356l.1.089a1,1,0,0,1-.7.4h-.055Z" transform="translate(-56.811 -56.082)" fill="url(#linear-gradient-9)"/>
      <rect id="Rectangle_2194-5" data-name="Rectangle 2194" width="2.066" height="0.137" transform="translate(7.716 3.078)" fill="url(#linear-gradient-10)"/>
      <rect id="Rectangle_2195-5" data-name="Rectangle 2195" width="2.066" height="0.137" transform="translate(7.716 2.49)" fill="url(#linear-gradient-10)"/>
    </g>
  </g>
</svg>
