<svg id="Group_5322" data-name="Group 5322" xmlns="http://www.w3.org/2000/svg" xmlns:xlink="http://www.w3.org/1999/xlink" width="14" height="11.879" viewBox="0 0 14 11.879">
  <defs>
    <linearGradient id="linear-gradient" x1="-53.61" y1="375.286" x2="-53.61" y2="374.711" gradientUnits="objectBoundingBox">
      <stop offset="0" stop-color="#55bf9b"/>
      <stop offset="0.19" stop-color="#2dacb1"/>
      <stop offset="0.49" stop-color="#2986c1"/>
      <stop offset="1" stop-color="#3b67b1"/>
    </linearGradient>
    <linearGradient id="linear-gradient-2" x1="-47.908" y1="375.286" x2="-47.908" y2="374.711" xlink:href="#linear-gradient"/>
    <linearGradient id="linear-gradient-3" x1="-10.149" y1="78.783" x2="-10.149" y2="78.672" xlink:href="#linear-gradient"/>
    <linearGradient id="linear-gradient-4" x1="-31.577" y1="269.011" x2="-31.577" y2="268.614" xlink:href="#linear-gradient"/>
    <linearGradient id="linear-gradient-5" x1="-33.554" y1="267.968" x2="-33.554" y2="267.573" xlink:href="#linear-gradient"/>
    <linearGradient id="linear-gradient-6" x1="0" y1="0.5" x2="0.999" y2="0.5" xlink:href="#linear-gradient"/>
  </defs>
  <g id="Group_4318" data-name="Group 4318" transform="translate(0 0)">
    <g id="Group_3762" data-name="Group 3762">
      <g id="Layer_25" data-name="Layer 25" transform="translate(1.35 5.299)">
        <g id="Group_3749" data-name="Group 3749">
          <path id="Path_24638" data-name="Path 24638" d="M196.264,113.07a.623.623,0,1,1-.022,0h.015Zm0,.831a.2.2,0,1,0-.2-.2h0A.2.2,0,0,0,196.264,113.9Z" transform="translate(-185.918 -108.542)" fill="url(#linear-gradient)"/>
          <path id="Path_24639" data-name="Path 24639" d="M186.344,113.07a.623.623,0,1,1-.022,0h.015Zm0,.831a.2.2,0,1,0-.2-.2h0A.2.2,0,0,0,186.344,113.9Z" transform="translate(-183.231 -108.542)" fill="url(#linear-gradient-2)"/>
          <path id="Path_24640" data-name="Path 24640" d="M182.85,108.756h.117a2.461,2.461,0,0,1,2.37-1.9h4.484c1.188,0,2.216,1.8,2.472,2.3h1.145a1.523,1.523,0,0,1,1.524,1.524v1.108a.439.439,0,0,1-.437.437h-.452a1.44,1.44,0,0,1-2.844,0h-4.389a1.44,1.44,0,0,1-2.844,0h-.612a.439.439,0,0,1-.437-.437h0v-1.028h-.1a.531.531,0,0,1-.532-.532h0V109.3a.529.529,0,0,1,.525-.532h0Zm9.807,4.251a1.01,1.01,0,1,0-1.006-1.013h0a1,1,0,0,0,.992,1.006h.015Zm-7.233,0A1.006,1.006,0,1,0,184.417,112h0a1.007,1.007,0,0,0,.992,1.013h.022Zm-2.034-1.2H184a1.44,1.44,0,0,1,2.844,0h4.389a1.44,1.44,0,0,1,2.844,0h.452V110.7a1.089,1.089,0,0,0-1.086-1.086H192.19a.221.221,0,0,1-.2-.117c-.3-.612-1.261-2.173-2.151-2.173h-4.469A1.976,1.976,0,0,0,183.418,109V111.8H183.4Zm-.634-1.582a.1.1,0,0,0,.087.1h.109v-1.13h-.1a.1.1,0,0,0-.1.087v.941Z" transform="translate(-182.31 -106.86)" fill="url(#linear-gradient-3)"/>
          <path id="Path_24641" data-name="Path 24641" d="M189.861,108.11h1.466a1.684,1.684,0,0,1,1.422.751l.5.751a.232.232,0,0,1,0,.219.221.221,0,0,1-.2.117h-3.179a.215.215,0,0,1-.219-.219v-1.4a.215.215,0,0,1,.219-.219h0Zm.219,1.4h2.566l-.277-.416a1.255,1.255,0,0,0-1.05-.554h-1.247v.97Z" transform="translate(-184.298 -107.199)" fill="url(#linear-gradient-4)"/>
          <path id="Path_24642" data-name="Path 24642" d="M186.351,108.107H187.6a.215.215,0,0,1,.219.219v1.4a.215.215,0,0,1-.219.219h-2.749a.215.215,0,0,1-.219-.219,1.652,1.652,0,0,1,1.677-1.626h.036Zm1.006,1.4v-.962h-1.028a1.247,1.247,0,0,0-1.261.97h2.289Z" transform="translate(-182.938 -107.196)" fill="url(#linear-gradient-5)"/>
        </g>
      </g>
      <path id="Path_25440" data-name="Path 25440" d="M181.947,106.889h-.78l-.27-1.239v-.51a.553.553,0,0,0-.058-.109,1.61,1.61,0,0,1-.379-1.043,1.469,1.469,0,0,1,.89-1.4h.029a.327.327,0,0,0,.095-.16,1.2,1.2,0,0,1,.671-.853.192.192,0,0,0,.109-.19v-.146a1.465,1.465,0,0,1,1.269-1.633,1.468,1.468,0,0,1,1.648,1.269,2.222,2.222,0,0,1-.5,1.611.18.18,0,0,0-.066.139,1.169,1.169,0,0,1-.08.416v.022l.007.036a1.362,1.362,0,0,1,.131.583,1.2,1.2,0,0,1-1.079,1.254h-.044a.359.359,0,0,0-.066.029l-.015.015a.714.714,0,0,1-.773.117l-.044.022a1.117,1.117,0,0,1-.394.255l.015.306v.08c0,.649-.044.948-.153,1.065a.183.183,0,0,1-.146.066Zm-.547-.292h.5a2.637,2.637,0,0,0,.058-.831v-.357a.3.3,0,0,1,.146-.284.938.938,0,0,0,.335-.226l.029-.022a.283.283,0,0,1,.321-.036.414.414,0,0,0,.459-.08l.051-.036a.4.4,0,0,1,.211-.073h.036a.9.9,0,0,0,.8-.955,1.056,1.056,0,0,0-.117-.5l-.022-.036v-.022a.321.321,0,0,1,.015-.219.839.839,0,0,0,.058-.3.466.466,0,0,1,.16-.35,1.438,1.438,0,0,0,.416-1.028,1.232,1.232,0,0,0,0-.328,1.181,1.181,0,0,0-2.34.314v.058a.567.567,0,0,1,.007.066.5.5,0,0,1-.277.489.918.918,0,0,0-.51.656c-.087.27-.233.343-.3.357a1.175,1.175,0,0,0-.7,1.123,1.349,1.349,0,0,0,.306.86.563.563,0,0,1,.124.277v.5l.219.977Z" transform="translate(-180.459 -99.592)" fill="url(#linear-gradient-6)"/>
    </g>
  </g>
  <g id="Group_5319" data-name="Group 5319" transform="translate(0 0)">
    <g id="Group_3762-2" data-name="Group 3762">
      <g id="Layer_25-2" data-name="Layer 25" transform="translate(1.35 5.299)">
        <g id="Group_3749-2" data-name="Group 3749">
          <path id="Path_24638-2" data-name="Path 24638" d="M196.264,113.07a.623.623,0,1,1-.022,0h.015Zm0,.831a.2.2,0,1,0-.2-.2h0A.2.2,0,0,0,196.264,113.9Z" transform="translate(-185.918 -108.542)" fill="url(#linear-gradient)"/>
          <path id="Path_24639-2" data-name="Path 24639" d="M186.344,113.07a.623.623,0,1,1-.022,0h.015Zm0,.831a.2.2,0,1,0-.2-.2h0A.2.2,0,0,0,186.344,113.9Z" transform="translate(-183.231 -108.542)" fill="url(#linear-gradient-2)"/>
          <path id="Path_24640-2" data-name="Path 24640" d="M182.85,108.756h.117a2.461,2.461,0,0,1,2.37-1.9h4.484c1.188,0,2.216,1.8,2.472,2.3h1.145a1.523,1.523,0,0,1,1.524,1.524v1.108a.439.439,0,0,1-.437.437h-.452a1.44,1.44,0,0,1-2.844,0h-4.389a1.44,1.44,0,0,1-2.844,0h-.612a.439.439,0,0,1-.437-.437h0v-1.028h-.1a.531.531,0,0,1-.532-.532h0V109.3a.529.529,0,0,1,.525-.532h0Zm9.807,4.251a1.01,1.01,0,1,0-1.006-1.013h0a1,1,0,0,0,.992,1.006h.015Zm-7.233,0A1.006,1.006,0,1,0,184.417,112h0a1.007,1.007,0,0,0,.992,1.013h.022Zm-2.034-1.2H184a1.44,1.44,0,0,1,2.844,0h4.389a1.44,1.44,0,0,1,2.844,0h.452V110.7a1.089,1.089,0,0,0-1.086-1.086H192.19a.221.221,0,0,1-.2-.117c-.3-.612-1.261-2.173-2.151-2.173h-4.469A1.976,1.976,0,0,0,183.418,109V111.8H183.4Zm-.634-1.582a.1.1,0,0,0,.087.1h.109v-1.13h-.1a.1.1,0,0,0-.1.087v.941Z" transform="translate(-182.31 -106.86)" fill="url(#linear-gradient-3)"/>
          <path id="Path_24641-2" data-name="Path 24641" d="M189.861,108.11h1.466a1.684,1.684,0,0,1,1.422.751l.5.751a.232.232,0,0,1,0,.219.221.221,0,0,1-.2.117h-3.179a.215.215,0,0,1-.219-.219v-1.4a.215.215,0,0,1,.219-.219h0Zm.219,1.4h2.566l-.277-.416a1.255,1.255,0,0,0-1.05-.554h-1.247v.97Z" transform="translate(-184.298 -107.199)" fill="url(#linear-gradient-4)"/>
          <path id="Path_24642-2" data-name="Path 24642" d="M186.351,108.107H187.6a.215.215,0,0,1,.219.219v1.4a.215.215,0,0,1-.219.219h-2.749a.215.215,0,0,1-.219-.219,1.652,1.652,0,0,1,1.677-1.626h.036Zm1.006,1.4v-.962h-1.028a1.247,1.247,0,0,0-1.261.97h2.289Z" transform="translate(-182.938 -107.196)" fill="url(#linear-gradient-5)"/>
        </g>
      </g>
      <path id="Path_25440-2" data-name="Path 25440" d="M181.947,106.889h-.78l-.27-1.239v-.51a.553.553,0,0,0-.058-.109,1.61,1.61,0,0,1-.379-1.043,1.469,1.469,0,0,1,.89-1.4h.029a.327.327,0,0,0,.095-.16,1.2,1.2,0,0,1,.671-.853.192.192,0,0,0,.109-.19v-.146a1.465,1.465,0,0,1,1.269-1.633,1.468,1.468,0,0,1,1.648,1.269,2.222,2.222,0,0,1-.5,1.611.18.18,0,0,0-.066.139,1.169,1.169,0,0,1-.08.416v.022l.007.036a1.362,1.362,0,0,1,.131.583,1.2,1.2,0,0,1-1.079,1.254h-.044a.359.359,0,0,0-.066.029l-.015.015a.714.714,0,0,1-.773.117l-.044.022a1.117,1.117,0,0,1-.394.255l.015.306v.08c0,.649-.044.948-.153,1.065a.183.183,0,0,1-.146.066Zm-.547-.292h.5a2.637,2.637,0,0,0,.058-.831v-.357a.3.3,0,0,1,.146-.284.938.938,0,0,0,.335-.226l.029-.022a.283.283,0,0,1,.321-.036.414.414,0,0,0,.459-.08l.051-.036a.4.4,0,0,1,.211-.073h.036a.9.9,0,0,0,.8-.955,1.056,1.056,0,0,0-.117-.5l-.022-.036v-.022a.321.321,0,0,1,.015-.219.839.839,0,0,0,.058-.3.466.466,0,0,1,.16-.35,1.438,1.438,0,0,0,.416-1.028,1.232,1.232,0,0,0,0-.328,1.181,1.181,0,0,0-2.34.314v.058a.567.567,0,0,1,.007.066.5.5,0,0,1-.277.489.918.918,0,0,0-.51.656c-.087.27-.233.343-.3.357a1.175,1.175,0,0,0-.7,1.123,1.349,1.349,0,0,0,.306.86.563.563,0,0,1,.124.277v.5l.219.977Z" transform="translate(-180.459 -99.592)" fill="url(#linear-gradient-6)"/>
    </g>
  </g>
  <g id="Group_5320" data-name="Group 5320" transform="translate(0 0)">
    <g id="Group_3762-3" data-name="Group 3762">
      <g id="Layer_25-3" data-name="Layer 25" transform="translate(1.35 5.299)">
        <g id="Group_3749-3" data-name="Group 3749">
          <path id="Path_24638-3" data-name="Path 24638" d="M196.264,113.07a.623.623,0,1,1-.022,0h.015Zm0,.831a.2.2,0,1,0-.2-.2h0A.2.2,0,0,0,196.264,113.9Z" transform="translate(-185.918 -108.542)" fill="url(#linear-gradient)"/>
          <path id="Path_24639-3" data-name="Path 24639" d="M186.344,113.07a.623.623,0,1,1-.022,0h.015Zm0,.831a.2.2,0,1,0-.2-.2h0A.2.2,0,0,0,186.344,113.9Z" transform="translate(-183.231 -108.542)" fill="url(#linear-gradient-2)"/>
          <path id="Path_24640-3" data-name="Path 24640" d="M182.85,108.756h.117a2.461,2.461,0,0,1,2.37-1.9h4.484c1.188,0,2.216,1.8,2.472,2.3h1.145a1.523,1.523,0,0,1,1.524,1.524v1.108a.439.439,0,0,1-.437.437h-.452a1.44,1.44,0,0,1-2.844,0h-4.389a1.44,1.44,0,0,1-2.844,0h-.612a.439.439,0,0,1-.437-.437h0v-1.028h-.1a.531.531,0,0,1-.532-.532h0V109.3a.529.529,0,0,1,.525-.532h0Zm9.807,4.251a1.01,1.01,0,1,0-1.006-1.013h0a1,1,0,0,0,.992,1.006h.015Zm-7.233,0A1.006,1.006,0,1,0,184.417,112h0a1.007,1.007,0,0,0,.992,1.013h.022Zm-2.034-1.2H184a1.44,1.44,0,0,1,2.844,0h4.389a1.44,1.44,0,0,1,2.844,0h.452V110.7a1.089,1.089,0,0,0-1.086-1.086H192.19a.221.221,0,0,1-.2-.117c-.3-.612-1.261-2.173-2.151-2.173h-4.469A1.976,1.976,0,0,0,183.418,109V111.8H183.4Zm-.634-1.582a.1.1,0,0,0,.087.1h.109v-1.13h-.1a.1.1,0,0,0-.1.087v.941Z" transform="translate(-182.31 -106.86)" fill="url(#linear-gradient-3)"/>
          <path id="Path_24641-3" data-name="Path 24641" d="M189.861,108.11h1.466a1.684,1.684,0,0,1,1.422.751l.5.751a.232.232,0,0,1,0,.219.221.221,0,0,1-.2.117h-3.179a.215.215,0,0,1-.219-.219v-1.4a.215.215,0,0,1,.219-.219h0Zm.219,1.4h2.566l-.277-.416a1.255,1.255,0,0,0-1.05-.554h-1.247v.97Z" transform="translate(-184.298 -107.199)" fill="url(#linear-gradient-4)"/>
          <path id="Path_24642-3" data-name="Path 24642" d="M186.351,108.107H187.6a.215.215,0,0,1,.219.219v1.4a.215.215,0,0,1-.219.219h-2.749a.215.215,0,0,1-.219-.219,1.652,1.652,0,0,1,1.677-1.626h.036Zm1.006,1.4v-.962h-1.028a1.247,1.247,0,0,0-1.261.97h2.289Z" transform="translate(-182.938 -107.196)" fill="url(#linear-gradient-5)"/>
        </g>
      </g>
      <path id="Path_25440-3" data-name="Path 25440" d="M181.947,106.889h-.78l-.27-1.239v-.51a.553.553,0,0,0-.058-.109,1.61,1.61,0,0,1-.379-1.043,1.469,1.469,0,0,1,.89-1.4h.029a.327.327,0,0,0,.095-.16,1.2,1.2,0,0,1,.671-.853.192.192,0,0,0,.109-.19v-.146a1.465,1.465,0,0,1,1.269-1.633,1.468,1.468,0,0,1,1.648,1.269,2.222,2.222,0,0,1-.5,1.611.18.18,0,0,0-.066.139,1.169,1.169,0,0,1-.08.416v.022l.007.036a1.362,1.362,0,0,1,.131.583,1.2,1.2,0,0,1-1.079,1.254h-.044a.359.359,0,0,0-.066.029l-.015.015a.714.714,0,0,1-.773.117l-.044.022a1.117,1.117,0,0,1-.394.255l.015.306v.08c0,.649-.044.948-.153,1.065a.183.183,0,0,1-.146.066Zm-.547-.292h.5a2.637,2.637,0,0,0,.058-.831v-.357a.3.3,0,0,1,.146-.284.938.938,0,0,0,.335-.226l.029-.022a.283.283,0,0,1,.321-.036.414.414,0,0,0,.459-.08l.051-.036a.4.4,0,0,1,.211-.073h.036a.9.9,0,0,0,.8-.955,1.056,1.056,0,0,0-.117-.5l-.022-.036v-.022a.321.321,0,0,1,.015-.219.839.839,0,0,0,.058-.3.466.466,0,0,1,.16-.35,1.438,1.438,0,0,0,.416-1.028,1.232,1.232,0,0,0,0-.328,1.181,1.181,0,0,0-2.34.314v.058a.567.567,0,0,1,.007.066.5.5,0,0,1-.277.489.918.918,0,0,0-.51.656c-.087.27-.233.343-.3.357a1.175,1.175,0,0,0-.7,1.123,1.349,1.349,0,0,0,.306.86.563.563,0,0,1,.124.277v.5l.219.977Z" transform="translate(-180.459 -99.592)" fill="url(#linear-gradient-6)"/>
    </g>
  </g>
  <g id="Group_5321" data-name="Group 5321" transform="translate(0 0)">
    <g id="Group_3762-4" data-name="Group 3762">
      <g id="Layer_25-4" data-name="Layer 25" transform="translate(1.35 5.299)">
        <g id="Group_3749-4" data-name="Group 3749">
          <path id="Path_24638-4" data-name="Path 24638" d="M196.264,113.07a.623.623,0,1,1-.022,0h.015Zm0,.831a.2.2,0,1,0-.2-.2h0A.2.2,0,0,0,196.264,113.9Z" transform="translate(-185.918 -108.542)" fill="url(#linear-gradient)"/>
          <path id="Path_24639-4" data-name="Path 24639" d="M186.344,113.07a.623.623,0,1,1-.022,0h.015Zm0,.831a.2.2,0,1,0-.2-.2h0A.2.2,0,0,0,186.344,113.9Z" transform="translate(-183.231 -108.542)" fill="url(#linear-gradient-2)"/>
          <path id="Path_24640-4" data-name="Path 24640" d="M182.85,108.756h.117a2.461,2.461,0,0,1,2.37-1.9h4.484c1.188,0,2.216,1.8,2.472,2.3h1.145a1.523,1.523,0,0,1,1.524,1.524v1.108a.439.439,0,0,1-.437.437h-.452a1.44,1.44,0,0,1-2.844,0h-4.389a1.44,1.44,0,0,1-2.844,0h-.612a.439.439,0,0,1-.437-.437h0v-1.028h-.1a.531.531,0,0,1-.532-.532h0V109.3a.529.529,0,0,1,.525-.532h0Zm9.807,4.251a1.01,1.01,0,1,0-1.006-1.013h0a1,1,0,0,0,.992,1.006h.015Zm-7.233,0A1.006,1.006,0,1,0,184.417,112h0a1.007,1.007,0,0,0,.992,1.013h.022Zm-2.034-1.2H184a1.44,1.44,0,0,1,2.844,0h4.389a1.44,1.44,0,0,1,2.844,0h.452V110.7a1.089,1.089,0,0,0-1.086-1.086H192.19a.221.221,0,0,1-.2-.117c-.3-.612-1.261-2.173-2.151-2.173h-4.469A1.976,1.976,0,0,0,183.418,109V111.8H183.4Zm-.634-1.582a.1.1,0,0,0,.087.1h.109v-1.13h-.1a.1.1,0,0,0-.1.087v.941Z" transform="translate(-182.31 -106.86)" fill="url(#linear-gradient-3)"/>
          <path id="Path_24641-4" data-name="Path 24641" d="M189.861,108.11h1.466a1.684,1.684,0,0,1,1.422.751l.5.751a.232.232,0,0,1,0,.219.221.221,0,0,1-.2.117h-3.179a.215.215,0,0,1-.219-.219v-1.4a.215.215,0,0,1,.219-.219h0Zm.219,1.4h2.566l-.277-.416a1.255,1.255,0,0,0-1.05-.554h-1.247v.97Z" transform="translate(-184.298 -107.199)" fill="url(#linear-gradient-4)"/>
          <path id="Path_24642-4" data-name="Path 24642" d="M186.351,108.107H187.6a.215.215,0,0,1,.219.219v1.4a.215.215,0,0,1-.219.219h-2.749a.215.215,0,0,1-.219-.219,1.652,1.652,0,0,1,1.677-1.626h.036Zm1.006,1.4v-.962h-1.028a1.247,1.247,0,0,0-1.261.97h2.289Z" transform="translate(-182.938 -107.196)" fill="url(#linear-gradient-5)"/>
        </g>
      </g>
      <path id="Path_25440-4" data-name="Path 25440" d="M181.947,106.889h-.78l-.27-1.239v-.51a.553.553,0,0,0-.058-.109,1.61,1.61,0,0,1-.379-1.043,1.469,1.469,0,0,1,.89-1.4h.029a.327.327,0,0,0,.095-.16,1.2,1.2,0,0,1,.671-.853.192.192,0,0,0,.109-.19v-.146a1.465,1.465,0,0,1,1.269-1.633,1.468,1.468,0,0,1,1.648,1.269,2.222,2.222,0,0,1-.5,1.611.18.18,0,0,0-.066.139,1.169,1.169,0,0,1-.08.416v.022l.007.036a1.362,1.362,0,0,1,.131.583,1.2,1.2,0,0,1-1.079,1.254h-.044a.359.359,0,0,0-.066.029l-.015.015a.714.714,0,0,1-.773.117l-.044.022a1.117,1.117,0,0,1-.394.255l.015.306v.08c0,.649-.044.948-.153,1.065a.183.183,0,0,1-.146.066Zm-.547-.292h.5a2.637,2.637,0,0,0,.058-.831v-.357a.3.3,0,0,1,.146-.284.938.938,0,0,0,.335-.226l.029-.022a.283.283,0,0,1,.321-.036.414.414,0,0,0,.459-.08l.051-.036a.4.4,0,0,1,.211-.073h.036a.9.9,0,0,0,.8-.955,1.056,1.056,0,0,0-.117-.5l-.022-.036v-.022a.321.321,0,0,1,.015-.219.839.839,0,0,0,.058-.3.466.466,0,0,1,.16-.35,1.438,1.438,0,0,0,.416-1.028,1.232,1.232,0,0,0,0-.328,1.181,1.181,0,0,0-2.34.314v.058a.567.567,0,0,1,.007.066.5.5,0,0,1-.277.489.918.918,0,0,0-.51.656c-.087.27-.233.343-.3.357a1.175,1.175,0,0,0-.7,1.123,1.349,1.349,0,0,0,.306.86.563.563,0,0,1,.124.277v.5l.219.977Z" transform="translate(-180.459 -99.592)" fill="url(#linear-gradient-6)"/>
    </g>
  </g>
</svg>
