<svg xmlns="http://www.w3.org/2000/svg" xmlns:xlink="http://www.w3.org/1999/xlink" width="14" height="17.25" viewBox="0 0 14 17.25">
  <defs>
    <linearGradient id="linear-gradient" y1="0.5" x2="1" y2="0.5" gradientUnits="objectBoundingBox">
      <stop offset="0" stop-color="#55bf9b"/>
      <stop offset="0.15" stop-color="#2dacb1"/>
      <stop offset="0.4" stop-color="#2986c1"/>
      <stop offset="1" stop-color="#3b67b1"/>
    </linearGradient>
    <linearGradient id="linear-gradient-2" x1="0.001" y1="0.5" x2="1" y2="0.5" xlink:href="#linear-gradient"/>
    <linearGradient id="linear-gradient-3" x1="0.001" y1="0.5" x2="1" y2="0.5" xlink:href="#linear-gradient"/>
    <linearGradient id="linear-gradient-4" x1="0" y1="0.501" x2="1" y2="0.501" xlink:href="#linear-gradient"/>
    <linearGradient id="linear-gradient-5" x1="0" y1="0.499" x2="1" y2="0.499" xlink:href="#linear-gradient"/>
  </defs>
  <g id="Group_5318" data-name="Group 5318" transform="translate(0)">
    <g id="Group_4317" data-name="Group 4317" transform="translate(0 0)" opacity="0.64">
      <path id="Path_25441" data-name="Path 25441" d="M243.494,100.5l-.113-.062-.66-.475.526-1.176.3-.423V98.28a1.63,1.63,0,0,1,.31-1.083,1.5,1.5,0,0,1,1.568-.619h.031a.181.181,0,0,0,.1-.041,1.243,1.243,0,0,1,1.073-.3.134.134,0,0,0,.134-.052l.217.041-.175-.1.041-.062a1.5,1.5,0,1,1,2.414,1.754,1.784,1.784,0,0,1-1.155.712.092.092,0,0,0-.083.041,1.256,1.256,0,0,1-.32.3,1.447,1.447,0,0,1-.248.578,1.232,1.232,0,0,1-1.661.392l-.041-.031h-.083a.751.751,0,0,1-.671-.361,1.445,1.445,0,0,1-.423-.01l-.165.227c-.5.7-.681.815-.815.836h-.083Zm-.258-.671.31.227a4.075,4.075,0,0,0,.506-.609l.186-.258a.36.36,0,0,1,.34-.165.99.99,0,0,0,.382.021.36.36,0,0,1,.382.186.326.326,0,0,0,.34.165h.113a.352.352,0,0,1,.2.072.832.832,0,0,0,1.135-.248.9.9,0,0,0,.186-.433l.021-.072a.435.435,0,0,1,.165-.2.67.67,0,0,0,.2-.186.5.5,0,0,1,.361-.206,1.358,1.358,0,0,0,.877-.547,1.2,1.2,0,0,0-.144-1.661,1.176,1.176,0,0,0-1.6.382.817.817,0,0,0-.062.1.549.549,0,0,1-.567.248.839.839,0,0,0-.732.217.529.529,0,0,1-.5.124,1.09,1.09,0,0,0-1.135.454,1.223,1.223,0,0,0-.237.815.8.8,0,0,1-.062.32l-.3.413-.361.836Zm1.269-.413Zm.464,0Z" transform="translate(-235.612 -95.34)" fill="url(#linear-gradient)"/>
      <path id="Path_25442" data-name="Path 25442" d="M247.364,102.862H236.18V100.18h11.184Zm-10.142-1.032h9.12v-.619h-9.12Z" transform="translate(-235.819 -95.187)" fill="url(#linear-gradient-2)"/>
      <path id="Path_25443" data-name="Path 25443" d="M246.832,102.331H236.68V100.68h10.152Zm-9.832-.31h9.533V100.99H237Z" transform="translate(-235.803 -95.171)" fill="url(#linear-gradient-3)"/>
      <path id="Path_25444" data-name="Path 25444" d="M248.272,112.371H235.83v-1.186c0-.083.041-.134.134-.237,1.475-1.682,2.29-4.684,2.373-8.677h.413c-.052,2.858-.526,6.727-2.476,8.945-.01.021-.031.031-.041.041v.7H247.86v-.536c-.537-.444-3.281-3.044-2.486-9.172l.413.052c-.836,6.386,2.373,8.831,2.4,8.852l.083.062v1.156Z" transform="translate(-235.83 -95.121)" fill="url(#linear-gradient-4)"/>
      <path id="Path_25445" data-name="Path 25445" d="M239.961,110.757l.722-2.951h-.763l2.5-3.786-.33,2.445h.815Z" transform="translate(-235.7 -95.065)" fill="url(#linear-gradient-5)"/>
    </g>
    <g id="Group_5315" data-name="Group 5315" transform="translate(0 0)" opacity="0.64">
      <path id="Path_25441-2" data-name="Path 25441" d="M243.494,100.5l-.113-.062-.66-.475.526-1.176.3-.423V98.28a1.63,1.63,0,0,1,.31-1.083,1.5,1.5,0,0,1,1.568-.619h.031a.181.181,0,0,0,.1-.041,1.243,1.243,0,0,1,1.073-.3.134.134,0,0,0,.134-.052l.217.041-.175-.1.041-.062a1.5,1.5,0,1,1,2.414,1.754,1.784,1.784,0,0,1-1.155.712.092.092,0,0,0-.083.041,1.256,1.256,0,0,1-.32.3,1.447,1.447,0,0,1-.248.578,1.232,1.232,0,0,1-1.661.392l-.041-.031h-.083a.751.751,0,0,1-.671-.361,1.445,1.445,0,0,1-.423-.01l-.165.227c-.5.7-.681.815-.815.836h-.083Zm-.258-.671.31.227a4.075,4.075,0,0,0,.506-.609l.186-.258a.36.36,0,0,1,.34-.165.99.99,0,0,0,.382.021.36.36,0,0,1,.382.186.326.326,0,0,0,.34.165h.113a.352.352,0,0,1,.2.072.832.832,0,0,0,1.135-.248.9.9,0,0,0,.186-.433l.021-.072a.435.435,0,0,1,.165-.2.67.67,0,0,0,.2-.186.5.5,0,0,1,.361-.206,1.358,1.358,0,0,0,.877-.547,1.2,1.2,0,0,0-.144-1.661,1.176,1.176,0,0,0-1.6.382.817.817,0,0,0-.062.1.549.549,0,0,1-.567.248.839.839,0,0,0-.732.217.529.529,0,0,1-.5.124,1.09,1.09,0,0,0-1.135.454,1.223,1.223,0,0,0-.237.815.8.8,0,0,1-.062.32l-.3.413-.361.836Zm1.269-.413Zm.464,0Z" transform="translate(-235.612 -95.34)" fill="url(#linear-gradient)"/>
      <path id="Path_25442-2" data-name="Path 25442" d="M247.364,102.862H236.18V100.18h11.184Zm-10.142-1.032h9.12v-.619h-9.12Z" transform="translate(-235.819 -95.187)" fill="url(#linear-gradient-2)"/>
      <path id="Path_25443-2" data-name="Path 25443" d="M246.832,102.331H236.68V100.68h10.152Zm-9.832-.31h9.533V100.99H237Z" transform="translate(-235.803 -95.171)" fill="url(#linear-gradient-3)"/>
      <path id="Path_25444-2" data-name="Path 25444" d="M248.272,112.371H235.83v-1.186c0-.083.041-.134.134-.237,1.475-1.682,2.29-4.684,2.373-8.677h.413c-.052,2.858-.526,6.727-2.476,8.945-.01.021-.031.031-.041.041v.7H247.86v-.536c-.537-.444-3.281-3.044-2.486-9.172l.413.052c-.836,6.386,2.373,8.831,2.4,8.852l.083.062v1.156Z" transform="translate(-235.83 -95.121)" fill="url(#linear-gradient-4)"/>
      <path id="Path_25445-2" data-name="Path 25445" d="M239.961,110.757l.722-2.951h-.763l2.5-3.786-.33,2.445h.815Z" transform="translate(-235.7 -95.065)" fill="url(#linear-gradient-5)"/>
    </g>
    <g id="Group_5313" data-name="Group 5313" transform="translate(0 0)" opacity="0.64">
      <path id="Path_25441-3" data-name="Path 25441" d="M243.494,100.5l-.113-.062-.66-.475.526-1.176.3-.423V98.28a1.63,1.63,0,0,1,.31-1.083,1.5,1.5,0,0,1,1.568-.619h.031a.181.181,0,0,0,.1-.041,1.243,1.243,0,0,1,1.073-.3.134.134,0,0,0,.134-.052l.217.041-.175-.1.041-.062a1.5,1.5,0,1,1,2.414,1.754,1.784,1.784,0,0,1-1.155.712.092.092,0,0,0-.083.041,1.256,1.256,0,0,1-.32.3,1.447,1.447,0,0,1-.248.578,1.232,1.232,0,0,1-1.661.392l-.041-.031h-.083a.751.751,0,0,1-.671-.361,1.445,1.445,0,0,1-.423-.01l-.165.227c-.5.7-.681.815-.815.836h-.083Zm-.258-.671.31.227a4.075,4.075,0,0,0,.506-.609l.186-.258a.36.36,0,0,1,.34-.165.99.99,0,0,0,.382.021.36.36,0,0,1,.382.186.326.326,0,0,0,.34.165h.113a.352.352,0,0,1,.2.072.832.832,0,0,0,1.135-.248.9.9,0,0,0,.186-.433l.021-.072a.435.435,0,0,1,.165-.2.67.67,0,0,0,.2-.186.5.5,0,0,1,.361-.206,1.358,1.358,0,0,0,.877-.547,1.2,1.2,0,0,0-.144-1.661,1.176,1.176,0,0,0-1.6.382.817.817,0,0,0-.062.1.549.549,0,0,1-.567.248.839.839,0,0,0-.732.217.529.529,0,0,1-.5.124,1.09,1.09,0,0,0-1.135.454,1.223,1.223,0,0,0-.237.815.8.8,0,0,1-.062.32l-.3.413-.361.836Zm1.269-.413Zm.464,0Z" transform="translate(-235.612 -95.34)" fill="url(#linear-gradient)"/>
      <path id="Path_25442-3" data-name="Path 25442" d="M247.364,102.862H236.18V100.18h11.184Zm-10.142-1.032h9.12v-.619h-9.12Z" transform="translate(-235.819 -95.187)" fill="url(#linear-gradient-2)"/>
      <path id="Path_25443-3" data-name="Path 25443" d="M246.832,102.331H236.68V100.68h10.152Zm-9.832-.31h9.533V100.99H237Z" transform="translate(-235.803 -95.171)" fill="url(#linear-gradient-3)"/>
      <path id="Path_25444-3" data-name="Path 25444" d="M248.272,112.371H235.83v-1.186c0-.083.041-.134.134-.237,1.475-1.682,2.29-4.684,2.373-8.677h.413c-.052,2.858-.526,6.727-2.476,8.945-.01.021-.031.031-.041.041v.7H247.86v-.536c-.537-.444-3.281-3.044-2.486-9.172l.413.052c-.836,6.386,2.373,8.831,2.4,8.852l.083.062v1.156Z" transform="translate(-235.83 -95.121)" fill="url(#linear-gradient-4)"/>
      <path id="Path_25445-3" data-name="Path 25445" d="M239.961,110.757l.722-2.951h-.763l2.5-3.786-.33,2.445h.815Z" transform="translate(-235.7 -95.065)" fill="url(#linear-gradient-5)"/>
    </g>
    <g id="Group_5316" data-name="Group 5316" transform="translate(0 0)" opacity="0.64">
      <path id="Path_25441-4" data-name="Path 25441" d="M243.494,100.5l-.113-.062-.66-.475.526-1.176.3-.423V98.28a1.63,1.63,0,0,1,.31-1.083,1.5,1.5,0,0,1,1.568-.619h.031a.181.181,0,0,0,.1-.041,1.243,1.243,0,0,1,1.073-.3.134.134,0,0,0,.134-.052l.217.041-.175-.1.041-.062a1.5,1.5,0,1,1,2.414,1.754,1.784,1.784,0,0,1-1.155.712.092.092,0,0,0-.083.041,1.256,1.256,0,0,1-.32.3,1.447,1.447,0,0,1-.248.578,1.232,1.232,0,0,1-1.661.392l-.041-.031h-.083a.751.751,0,0,1-.671-.361,1.445,1.445,0,0,1-.423-.01l-.165.227c-.5.7-.681.815-.815.836h-.083Zm-.258-.671.31.227a4.075,4.075,0,0,0,.506-.609l.186-.258a.36.36,0,0,1,.34-.165.99.99,0,0,0,.382.021.36.36,0,0,1,.382.186.326.326,0,0,0,.34.165h.113a.352.352,0,0,1,.2.072.832.832,0,0,0,1.135-.248.9.9,0,0,0,.186-.433l.021-.072a.435.435,0,0,1,.165-.2.67.67,0,0,0,.2-.186.5.5,0,0,1,.361-.206,1.358,1.358,0,0,0,.877-.547,1.2,1.2,0,0,0-.144-1.661,1.176,1.176,0,0,0-1.6.382.817.817,0,0,0-.062.1.549.549,0,0,1-.567.248.839.839,0,0,0-.732.217.529.529,0,0,1-.5.124,1.09,1.09,0,0,0-1.135.454,1.223,1.223,0,0,0-.237.815.8.8,0,0,1-.062.32l-.3.413-.361.836Zm1.269-.413Zm.464,0Z" transform="translate(-235.612 -95.34)" fill="url(#linear-gradient)"/>
      <path id="Path_25442-4" data-name="Path 25442" d="M247.364,102.862H236.18V100.18h11.184Zm-10.142-1.032h9.12v-.619h-9.12Z" transform="translate(-235.819 -95.187)" fill="url(#linear-gradient-2)"/>
      <path id="Path_25443-4" data-name="Path 25443" d="M246.832,102.331H236.68V100.68h10.152Zm-9.832-.31h9.533V100.99H237Z" transform="translate(-235.803 -95.171)" fill="url(#linear-gradient-3)"/>
      <path id="Path_25444-4" data-name="Path 25444" d="M248.272,112.371H235.83v-1.186c0-.083.041-.134.134-.237,1.475-1.682,2.29-4.684,2.373-8.677h.413c-.052,2.858-.526,6.727-2.476,8.945-.01.021-.031.031-.041.041v.7H247.86v-.536c-.537-.444-3.281-3.044-2.486-9.172l.413.052c-.836,6.386,2.373,8.831,2.4,8.852l.083.062v1.156Z" transform="translate(-235.83 -95.121)" fill="url(#linear-gradient-4)"/>
      <path id="Path_25445-4" data-name="Path 25445" d="M239.961,110.757l.722-2.951h-.763l2.5-3.786-.33,2.445h.815Z" transform="translate(-235.7 -95.065)" fill="url(#linear-gradient-5)"/>
    </g>
    <g id="Group_5314" data-name="Group 5314" transform="translate(0 0)" opacity="0.64">
      <path id="Path_25441-5" data-name="Path 25441" d="M243.494,100.5l-.113-.062-.66-.475.526-1.176.3-.423V98.28a1.63,1.63,0,0,1,.31-1.083,1.5,1.5,0,0,1,1.568-.619h.031a.181.181,0,0,0,.1-.041,1.243,1.243,0,0,1,1.073-.3.134.134,0,0,0,.134-.052l.217.041-.175-.1.041-.062a1.5,1.5,0,1,1,2.414,1.754,1.784,1.784,0,0,1-1.155.712.092.092,0,0,0-.083.041,1.256,1.256,0,0,1-.32.3,1.447,1.447,0,0,1-.248.578,1.232,1.232,0,0,1-1.661.392l-.041-.031h-.083a.751.751,0,0,1-.671-.361,1.445,1.445,0,0,1-.423-.01l-.165.227c-.5.7-.681.815-.815.836h-.083Zm-.258-.671.31.227a4.075,4.075,0,0,0,.506-.609l.186-.258a.36.36,0,0,1,.34-.165.99.99,0,0,0,.382.021.36.36,0,0,1,.382.186.326.326,0,0,0,.34.165h.113a.352.352,0,0,1,.2.072.832.832,0,0,0,1.135-.248.9.9,0,0,0,.186-.433l.021-.072a.435.435,0,0,1,.165-.2.67.67,0,0,0,.2-.186.5.5,0,0,1,.361-.206,1.358,1.358,0,0,0,.877-.547,1.2,1.2,0,0,0-.144-1.661,1.176,1.176,0,0,0-1.6.382.817.817,0,0,0-.062.1.549.549,0,0,1-.567.248.839.839,0,0,0-.732.217.529.529,0,0,1-.5.124,1.09,1.09,0,0,0-1.135.454,1.223,1.223,0,0,0-.237.815.8.8,0,0,1-.062.32l-.3.413-.361.836Zm1.269-.413Zm.464,0Z" transform="translate(-235.612 -95.34)" fill="url(#linear-gradient)"/>
      <path id="Path_25442-5" data-name="Path 25442" d="M247.364,102.862H236.18V100.18h11.184Zm-10.142-1.032h9.12v-.619h-9.12Z" transform="translate(-235.819 -95.187)" fill="url(#linear-gradient-2)"/>
      <path id="Path_25443-5" data-name="Path 25443" d="M246.832,102.331H236.68V100.68h10.152Zm-9.832-.31h9.533V100.99H237Z" transform="translate(-235.803 -95.171)" fill="url(#linear-gradient-3)"/>
      <path id="Path_25444-5" data-name="Path 25444" d="M248.272,112.371H235.83v-1.186c0-.083.041-.134.134-.237,1.475-1.682,2.29-4.684,2.373-8.677h.413c-.052,2.858-.526,6.727-2.476,8.945-.01.021-.031.031-.041.041v.7H247.86v-.536c-.537-.444-3.281-3.044-2.486-9.172l.413.052c-.836,6.386,2.373,8.831,2.4,8.852l.083.062v1.156Z" transform="translate(-235.83 -95.121)" fill="url(#linear-gradient-4)"/>
      <path id="Path_25445-5" data-name="Path 25445" d="M239.961,110.757l.722-2.951h-.763l2.5-3.786-.33,2.445h.815Z" transform="translate(-235.7 -95.065)" fill="url(#linear-gradient-5)"/>
    </g>
    <g id="Group_5317" data-name="Group 5317" transform="translate(0 0)" opacity="0.64">
      <path id="Path_25441-6" data-name="Path 25441" d="M243.494,100.5l-.113-.062-.66-.475.526-1.176.3-.423V98.28a1.63,1.63,0,0,1,.31-1.083,1.5,1.5,0,0,1,1.568-.619h.031a.181.181,0,0,0,.1-.041,1.243,1.243,0,0,1,1.073-.3.134.134,0,0,0,.134-.052l.217.041-.175-.1.041-.062a1.5,1.5,0,1,1,2.414,1.754,1.784,1.784,0,0,1-1.155.712.092.092,0,0,0-.083.041,1.256,1.256,0,0,1-.32.3,1.447,1.447,0,0,1-.248.578,1.232,1.232,0,0,1-1.661.392l-.041-.031h-.083a.751.751,0,0,1-.671-.361,1.445,1.445,0,0,1-.423-.01l-.165.227c-.5.7-.681.815-.815.836h-.083Zm-.258-.671.31.227a4.075,4.075,0,0,0,.506-.609l.186-.258a.36.36,0,0,1,.34-.165.99.99,0,0,0,.382.021.36.36,0,0,1,.382.186.326.326,0,0,0,.34.165h.113a.352.352,0,0,1,.2.072.832.832,0,0,0,1.135-.248.9.9,0,0,0,.186-.433l.021-.072a.435.435,0,0,1,.165-.2.67.67,0,0,0,.2-.186.5.5,0,0,1,.361-.206,1.358,1.358,0,0,0,.877-.547,1.2,1.2,0,0,0-.144-1.661,1.176,1.176,0,0,0-1.6.382.817.817,0,0,0-.062.1.549.549,0,0,1-.567.248.839.839,0,0,0-.732.217.529.529,0,0,1-.5.124,1.09,1.09,0,0,0-1.135.454,1.223,1.223,0,0,0-.237.815.8.8,0,0,1-.062.32l-.3.413-.361.836Zm1.269-.413Zm.464,0Z" transform="translate(-235.612 -95.34)" fill="url(#linear-gradient)"/>
      <path id="Path_25442-6" data-name="Path 25442" d="M247.364,102.862H236.18V100.18h11.184Zm-10.142-1.032h9.12v-.619h-9.12Z" transform="translate(-235.819 -95.187)" fill="url(#linear-gradient-2)"/>
      <path id="Path_25443-6" data-name="Path 25443" d="M246.832,102.331H236.68V100.68h10.152Zm-9.832-.31h9.533V100.99H237Z" transform="translate(-235.803 -95.171)" fill="url(#linear-gradient-3)"/>
      <path id="Path_25444-6" data-name="Path 25444" d="M248.272,112.371H235.83v-1.186c0-.083.041-.134.134-.237,1.475-1.682,2.29-4.684,2.373-8.677h.413c-.052,2.858-.526,6.727-2.476,8.945-.01.021-.031.031-.041.041v.7H247.86v-.536c-.537-.444-3.281-3.044-2.486-9.172l.413.052c-.836,6.386,2.373,8.831,2.4,8.852l.083.062v1.156Z" transform="translate(-235.83 -95.121)" fill="url(#linear-gradient-4)"/>
      <path id="Path_25445-6" data-name="Path 25445" d="M239.961,110.757l.722-2.951h-.763l2.5-3.786-.33,2.445h.815Z" transform="translate(-235.7 -95.065)" fill="url(#linear-gradient-5)"/>
    </g>
  </g>
</svg>
