<svg xmlns="http://www.w3.org/2000/svg" xmlns:xlink="http://www.w3.org/1999/xlink" width="14" height="12.342" viewBox="0 0 14 12.342">
  <defs>
    <linearGradient id="linear-gradient" x1="0.504" y1="1.014" x2="0.47" y2="-0.033" gradientUnits="objectBoundingBox">
      <stop offset="0" stop-color="#55bf9b"/>
      <stop offset="0.33" stop-color="#2dacb1"/>
      <stop offset="0.74" stop-color="#2986c1"/>
      <stop offset="1" stop-color="#3b67b1"/>
    </linearGradient>
    <linearGradient id="linear-gradient-2" y1="0.5" x2="1" y2="0.5" gradientUnits="objectBoundingBox">
      <stop offset="0" stop-color="#55bf9b"/>
      <stop offset="0.15" stop-color="#2dacb1"/>
      <stop offset="0.4" stop-color="#2986c1"/>
      <stop offset="1" stop-color="#3b67b1"/>
    </linearGradient>
    <linearGradient id="linear-gradient-3" x1="0.519" y1="1.039" x2="0.486" y2="-0.039" xlink:href="#linear-gradient"/>
    <linearGradient id="linear-gradient-4" x1="0" y1="0.5" x2="1" y2="0.5" xlink:href="#linear-gradient-2"/>
    <linearGradient id="linear-gradient-5" x1="0.514" y1="1.039" x2="0.481" y2="-0.039" xlink:href="#linear-gradient"/>
    <linearGradient id="linear-gradient-6" x1="-0.004" y1="0.5" x2="1" y2="0.5" xlink:href="#linear-gradient-2"/>
    <linearGradient id="linear-gradient-7" x1="0.519" y1="1.039" x2="0.486" y2="-0.047" xlink:href="#linear-gradient"/>
    <linearGradient id="linear-gradient-9" x1="0.514" y1="1.039" x2="0.481" y2="-0.047" xlink:href="#linear-gradient"/>
    <linearGradient id="linear-gradient-19" x1="0.509" y1="1.075" x2="0.491" y2="-0.075" xlink:href="#linear-gradient"/>
    <linearGradient id="linear-gradient-20" x1="-0.003" y1="0.504" x2="1" y2="0.504" xlink:href="#linear-gradient-2"/>
    <linearGradient id="linear-gradient-21" x1="0.509" y1="1.075" x2="0.491" y2="-0.075" xlink:href="#linear-gradient"/>
    <linearGradient id="linear-gradient-22" x1="0" y1="0.504" x2="1" y2="0.504" xlink:href="#linear-gradient-2"/>
    <linearGradient id="linear-gradient-25" x1="0.509" y1="1.075" x2="0.491" y2="-0.065" xlink:href="#linear-gradient"/>
    <linearGradient id="linear-gradient-27" x1="0.512" y1="1.075" x2="0.491" y2="-0.065" xlink:href="#linear-gradient"/>
    <linearGradient id="linear-gradient-28" x1="0.003" y1="0.504" x2="1" y2="0.504" xlink:href="#linear-gradient-2"/>
    <linearGradient id="linear-gradient-29" x1="0.509" y1="1.075" x2="0.491" y2="-0.065" xlink:href="#linear-gradient"/>
    <linearGradient id="linear-gradient-31" x1="0.505" y1="1.047" x2="0.478" y2="-0.05" xlink:href="#linear-gradient"/>
    <linearGradient id="linear-gradient-32" x1="0.001" y1="0.501" x2="1" y2="0.501" xlink:href="#linear-gradient-2"/>
    <linearGradient id="linear-gradient-33" x1="0.512" y1="1.028" x2="0.465" y2="-0.028" xlink:href="#linear-gradient"/>
    <linearGradient id="linear-gradient-34" x1="0" y1="0.497" x2="1" y2="0.497" xlink:href="#linear-gradient-2"/>
    <linearGradient id="linear-gradient-36" x1="0.525" y1="1" x2="0.475" y2="0.005" xlink:href="#linear-gradient"/>
    <linearGradient id="linear-gradient-37" x1="0" y1="0.5" x2="0.996" y2="0.5" xlink:href="#linear-gradient-2"/>
    <linearGradient id="linear-gradient-38" x1="0" y1="0.5" x2="0.995" y2="0.5" xlink:href="#linear-gradient-2"/>
    <linearGradient id="linear-gradient-39" x1="0.52" y1="1" x2="0.475" y2="0.005" xlink:href="#linear-gradient"/>
    <linearGradient id="linear-gradient-41" x1="0.519" y1="0.975" x2="0.479" y2="0.025" xlink:href="#linear-gradient"/>
    <linearGradient id="linear-gradient-42" x1="0" y1="0.5" x2="0.998" y2="0.5" xlink:href="#linear-gradient-2"/>
    <linearGradient id="linear-gradient-43" x1="0.516" y1="0.97" x2="0.486" y2="0.03" xlink:href="#linear-gradient"/>
  </defs>
  <g id="Group_6299" data-name="Group 6299" transform="translate(-503 -522)">
    <g id="Group_4267" data-name="Group 4267" transform="translate(503 522)" opacity="0.81">
      <g id="Group_4244" data-name="Group 4244" transform="translate(0 2.56)">
        <path id="Path_25287" data-name="Path 25287" d="M24.723,62.026H24.7l-7.959-.01V60.208H17l-.01-5.828h.9v.853h.024l1.008.043v.713l.858.039v.024l-.01.68,2,.029-.029-.6h.029l2.054.26v-.236h.029l2.1.482.014-.472H26l2.059.5v.019l.029,3.534h.26v.55H28.32l-3.592-.092v1.306Zm-7.94-.058,7.887.01V60.671h.024l3.592.092V60.31h-.26v-.024L28,56.747l-1.991-.482-.067,2.01H25.89l.01-1.557-2.03-.463v2.03h-.048l-.01-1.808-2.02-.256.029.588H21.8l-2.073-.029v-.024l.01-.68-.81-.039L18.9,60.252h-.048l.019-4.932-.935-.039-.039,4.98h-.048l-.01-5.833h-.805l.01,5.828h-.26v1.711Z" transform="translate(-16.668 -54.308)" fill="url(#linear-gradient)"/>
        <path id="Path_25288" data-name="Path 25288" d="M24.718,62.021h-.1l-8.032-.01V60.058h.26l-.01-5.828h1.046v.853l1.036.043v.713l.853.039-.01.7,1.851.029-.029-.6,2.083.265v-.246l2.126.482.014-.472,2.227.535v.077l.029,3.461h.26v.7h-.1l-3.519-.092v1.306Zm-7.94-.2,7.742.01V60.521h.1l3.519.092V60.3h-.26v-.1l-.029-3.481L26,56.279l-.067,1.991H25.74l.01-1.576-1.885-.429v2.01h-.193l-.01-1.817-1.871-.236.029.579-2.251-.034.01-.7-.665-.034-.019,4.209H18.7l.019-4.932-.791-.034-.039,4.975H17.7v-.072l-.01-5.761h-.66l.01,5.828h-.26v1.567Z" transform="translate(-16.59 -54.23)" fill="url(#linear-gradient-2)"/>
      </g>
      <g id="Group_4245" data-name="Group 4245" transform="translate(2.753 5.279)">
        <path id="Path_25289" data-name="Path 25289" d="M23.382,60.537H22.35V59.92h1.032ZM22.4,60.47h.926v-.487H22.4Z" transform="translate(-22.326 -59.896)" fill="url(#linear-gradient-3)"/>
        <path id="Path_25290" data-name="Path 25290" d="M23.38,60.535H22.3V59.87h1.08Zm-1.032-.048h.983v-.569h-.983v.569Zm.979-.019h-.974v-.535h.974ZM22.4,60.42h.877v-.439H22.4Z" transform="translate(-22.3 -59.87)" fill="url(#linear-gradient-4)"/>
      </g>
      <g id="Group_4246" data-name="Group 4246" transform="translate(3.929 5.279)">
        <path id="Path_25291" data-name="Path 25291" d="M25.822,60.537H24.79V59.92h1.032Zm-.979-.067h.926v-.487h-.926Z" transform="translate(-24.766 -59.896)" fill="url(#linear-gradient-5)"/>
        <path id="Path_25292" data-name="Path 25292" d="M25.82,60.535H24.74V59.87h1.08Zm-1.036-.048h.983v-.569h-.983Zm.979-.019h-.974v-.535h.974Zm-.921-.048h.877v-.439h-.877Z" transform="translate(-24.74 -59.87)" fill="url(#linear-gradient-6)"/>
      </g>
      <g id="Group_4247" data-name="Group 4247" transform="translate(2.753 6.084)">
        <path id="Path_25293" data-name="Path 25293" d="M23.382,62.207H22.35V61.59h1.032ZM22.4,62.14h.926v-.487H22.4Z" transform="translate(-22.326 -61.566)" fill="url(#linear-gradient-7)"/>
        <path id="Path_25294" data-name="Path 25294" d="M23.38,62.205H22.3V61.54h1.08Zm-1.032-.048h.983v-.569h-.983v.569Zm.979-.019h-.974V61.6h.974ZM22.4,62.09h.877v-.439H22.4Z" transform="translate(-22.3 -61.54)" fill="url(#linear-gradient-4)"/>
      </g>
      <g id="Group_4248" data-name="Group 4248" transform="translate(3.929 6.084)">
        <path id="Path_25295" data-name="Path 25295" d="M25.822,62.207H24.79V61.59h1.032Zm-.979-.067h.926v-.487h-.926Z" transform="translate(-24.766 -61.566)" fill="url(#linear-gradient-9)"/>
        <path id="Path_25296" data-name="Path 25296" d="M25.82,62.205H24.74V61.54h1.08Zm-1.036-.048h.983v-.569h-.983Zm.979-.019h-.974V61.6h.974Zm-.921-.048h.877v-.439h-.877Z" transform="translate(-24.74 -61.54)" fill="url(#linear-gradient-6)"/>
      </g>
      <g id="Group_4249" data-name="Group 4249" transform="translate(2.753 6.904)">
        <path id="Path_25297" data-name="Path 25297" d="M23.382,63.907H22.35V63.29h1.032ZM22.4,63.84h.926v-.487H22.4Z" transform="translate(-22.326 -63.266)" fill="url(#linear-gradient-3)"/>
        <path id="Path_25298" data-name="Path 25298" d="M23.38,63.905H22.3V63.24h1.08Zm-1.032-.048h.983v-.569h-.983v.569Zm.979-.019h-.974V63.3h.974ZM22.4,63.79h.877v-.439H22.4Z" transform="translate(-22.3 -63.24)" fill="url(#linear-gradient-4)"/>
      </g>
      <g id="Group_4250" data-name="Group 4250" transform="translate(3.929 6.904)">
        <path id="Path_25299" data-name="Path 25299" d="M25.822,63.907H24.79V63.29h1.032Zm-.979-.067h.926v-.487h-.926Z" transform="translate(-24.766 -63.266)" fill="url(#linear-gradient-5)"/>
        <path id="Path_25300" data-name="Path 25300" d="M25.82,63.905H24.74V63.24h1.08Zm-1.036-.048h.983v-.569h-.983Zm.979-.019h-.974V63.3h.974Zm-.921-.048h.877v-.439h-.877Z" transform="translate(-24.74 -63.24)" fill="url(#linear-gradient-6)"/>
      </g>
      <g id="Group_4251" data-name="Group 4251" transform="translate(2.753 7.747)">
        <path id="Path_25301" data-name="Path 25301" d="M23.382,65.657H22.35V65.04h1.032ZM22.4,65.59h.926V65.1H22.4Z" transform="translate(-22.326 -65.016)" fill="url(#linear-gradient-7)"/>
        <path id="Path_25302" data-name="Path 25302" d="M23.38,65.655H22.3V64.99h1.08Zm-1.032-.048h.983v-.569h-.983v.569Zm.979-.019h-.974v-.535h.974ZM22.4,65.54h.877V65.1H22.4Z" transform="translate(-22.3 -64.99)" fill="url(#linear-gradient-4)"/>
      </g>
      <g id="Group_4252" data-name="Group 4252" transform="translate(3.929 7.747)">
        <path id="Path_25303" data-name="Path 25303" d="M25.822,65.657H24.79V65.04h1.032Zm-.979-.067h.926V65.1h-.926Z" transform="translate(-24.766 -65.016)" fill="url(#linear-gradient-9)"/>
        <path id="Path_25304" data-name="Path 25304" d="M25.82,65.655H24.74V64.99h1.08Zm-1.036-.048h.983v-.569h-.983Zm.979-.019h-.974v-.535h.974Zm-.921-.048h.877V65.1h-.877Z" transform="translate(-24.74 -64.99)" fill="url(#linear-gradient-6)"/>
      </g>
      <g id="Group_4253" data-name="Group 4253" transform="translate(5.669 7.207)">
        <path id="Path_25305" data-name="Path 25305" d="M29.874,64.468H28.5V64.02h1.374Zm-1.331-.048h1.282v-.352H28.543Z" transform="translate(-28.428 -63.948)" fill="url(#linear-gradient-19)"/>
        <path id="Path_25306" data-name="Path 25306" d="M29.869,64.463H28.35V63.87h1.519Zm-1.331-.193h1.138v-.207H28.538Z" transform="translate(-28.35 -63.87)" fill="url(#linear-gradient-20)"/>
      </g>
      <g id="Group_4254" data-name="Group 4254" transform="translate(7.284 7.207)">
        <path id="Path_25307" data-name="Path 25307" d="M33.253,64.468h-1.4V64.02h1.4ZM31.9,64.42H33.2v-.352H31.9Z" transform="translate(-31.778 -63.948)" fill="url(#linear-gradient-21)"/>
        <path id="Path_25308" data-name="Path 25308" d="M33.248,64.463H31.7V63.87h1.548Zm-1.355-.193h1.162v-.207H31.893Z" transform="translate(-31.7 -63.87)" fill="url(#linear-gradient-22)"/>
      </g>
      <g id="Group_4255" data-name="Group 4255" transform="translate(8.899 7.207)">
        <path id="Path_25309" data-name="Path 25309" d="M36.6,64.468H35.2V64.02h1.4Zm-1.355-.048h1.306v-.352H35.248Z" transform="translate(-35.128 -63.948)" fill="url(#linear-gradient-21)"/>
        <path id="Path_25310" data-name="Path 25310" d="M36.6,64.463H35.05V63.87H36.6Zm-1.355-.193H36.4v-.207H35.243Z" transform="translate(-35.05 -63.87)" fill="url(#linear-gradient-22)"/>
      </g>
      <g id="Group_4256" data-name="Group 4256" transform="translate(5.669 8.089)">
        <path id="Path_25311" data-name="Path 25311" d="M29.874,66.3H28.5V65.85h1.374Zm-1.326-.048h1.282V65.9H28.548Z" transform="translate(-28.428 -65.778)" fill="url(#linear-gradient-25)"/>
        <path id="Path_25312" data-name="Path 25312" d="M29.869,66.293H28.35V65.7h1.519ZM28.543,66.1h1.138v-.207H28.543Z" transform="translate(-28.35 -65.7)" fill="url(#linear-gradient-22)"/>
      </g>
      <g id="Group_4257" data-name="Group 4257" transform="translate(7.284 8.089)">
        <path id="Path_25313" data-name="Path 25313" d="M33.253,66.3h-1.4V65.85h1.4ZM31.9,66.25H33.2V65.9H31.9Z" transform="translate(-31.778 -65.778)" fill="url(#linear-gradient-27)"/>
        <path id="Path_25314" data-name="Path 25314" d="M33.248,66.293H31.7V65.7h1.548ZM31.893,66.1h1.162v-.207H31.893Z" transform="translate(-31.7 -65.7)" fill="url(#linear-gradient-28)"/>
      </g>
      <g id="Group_4258" data-name="Group 4258" transform="translate(8.928 8.089)">
        <path id="Path_25315" data-name="Path 25315" d="M36.663,66.3h-1.4V65.85h1.4Zm-1.355-.048h1.306V65.9H35.308Z" transform="translate(-35.188 -65.778)" fill="url(#linear-gradient-29)"/>
        <path id="Path_25316" data-name="Path 25316" d="M36.658,66.293H35.11V65.7h1.548ZM35.3,66.1h1.162v-.207H35.3Z" transform="translate(-35.11 -65.7)" fill="url(#linear-gradient-22)"/>
      </g>
      <g id="Group_4259" data-name="Group 4259" transform="translate(8.2 9.184)">
        <path id="Path_25317" data-name="Path 25317" d="M33.962,70.815v-.029s.024-.145-.188-.26H33.76V68.12h3.813l.029.492,1.094-.034.641.622v1.032h.077v.284l-.111-.024-.111.323H33.962Zm.4-.053h4.787l.111-.328.1.019v-.178h-.077V69.214l-.612-.593-1.118.034-.029-.492H33.808v2.324c.178.1.207.222.207.275Z" transform="translate(-33.683 -68.048)" fill="url(#linear-gradient-31)"/>
        <path id="Path_25318" data-name="Path 25318" d="M33.793,70.81l.019-.116s.01-.1-.159-.183l-.039-.019-.014-.048V67.97h3.953l.029.487,1.051-.034.689.665v1H39.4v.439l-.135-.029-.106.309H33.793Zm.492-.2h4.739l.116-.342.072.014V70.26h-.077v-1.1l-.569-.55-1.157.034-.029-.492H33.8v2.213a.443.443,0,0,1,.2.241h.289Z" transform="translate(-33.6 -67.97)" fill="url(#linear-gradient-32)"/>
      </g>
      <g id="Group_4260" data-name="Group 4260" transform="translate(12.727 9.806)">
        <path id="Path_25319" data-name="Path 25319" d="M43.969,70.109H43.14v-.7h.4l.01.01.419.448Zm-.781-.048h.733v-.174l-.4-.429h-.333Z" transform="translate(-43.068 -69.338)" fill="url(#linear-gradient-33)"/>
        <path id="Path_25320" data-name="Path 25320" d="M43.964,70.1H42.99V69.26h.5l.019.024.448.477V70.1Zm-.781-.193h.588v-.072l-.362-.386h-.227v.458Z" transform="translate(-42.99 -69.26)" fill="url(#linear-gradient-34)"/>
      </g>
      <g id="Group_4261" data-name="Group 4261" transform="translate(9.039 11.266)">
        <circle id="Ellipse_1074" data-name="Ellipse 1074" cx="0.453" cy="0.453" r="0.453" transform="translate(0.072 0.072)" fill="#231f20"/>
        <path id="Path_25321" data-name="Path 25321" d="M35.865,73.341a.525.525,0,1,1,.525-.525A.527.527,0,0,1,35.865,73.341Zm0-.906a.381.381,0,1,0,.381.381A.382.382,0,0,0,35.865,72.435Z" transform="translate(-35.34 -72.29)" fill="url(#linear-gradient-4)"/>
      </g>
      <g id="Group_4262" data-name="Group 4262" transform="translate(9.015 11.242)">
        <path id="Path_25322" data-name="Path 25322" d="M35.917,73.345a.477.477,0,1,1,.477-.477A.478.478,0,0,1,35.917,73.345Zm0-.906a.429.429,0,1,0,.429.429A.43.43,0,0,0,35.917,72.438Z" transform="translate(-35.368 -72.318)" fill="url(#linear-gradient-36)"/>
        <path id="Path_25323" data-name="Path 25323" d="M35.84,73.339a.55.55,0,1,1,.55-.55A.549.549,0,0,1,35.84,73.339Zm0-.906a.357.357,0,1,0,.357.357A.356.356,0,0,0,35.84,72.433Z" transform="translate(-35.29 -72.24)" fill="url(#linear-gradient-37)"/>
      </g>
      <g id="Group_4263" data-name="Group 4263" transform="translate(12.409 11.266)">
        <circle id="Ellipse_1075" data-name="Ellipse 1075" cx="0.453" cy="0.453" r="0.453" transform="translate(0.072 0.072)" fill="#231f20"/>
        <path id="Path_25324" data-name="Path 25324" d="M42.855,73.341a.525.525,0,1,1,.525-.525A.527.527,0,0,1,42.855,73.341Zm0-.906a.381.381,0,1,0,.381.381A.379.379,0,0,0,42.855,72.435Z" transform="translate(-42.33 -72.29)" fill="url(#linear-gradient-38)"/>
      </g>
      <g id="Group_4264" data-name="Group 4264" transform="translate(12.385 11.242)">
        <path id="Path_25325" data-name="Path 25325" d="M42.907,73.345a.477.477,0,1,1,.477-.477A.475.475,0,0,1,42.907,73.345Zm0-.906a.429.429,0,1,0,.429.429A.43.43,0,0,0,42.907,72.438Z" transform="translate(-42.358 -72.318)" fill="url(#linear-gradient-39)"/>
        <path id="Path_25326" data-name="Path 25326" d="M42.83,73.339a.55.55,0,1,1,.55-.55A.549.549,0,0,1,42.83,73.339Zm0-.906a.357.357,0,1,0,.357.357A.356.356,0,0,0,42.83,72.433Z" transform="translate(-42.28 -72.24)" fill="url(#linear-gradient-37)"/>
      </g>
      <g id="Group_4265" data-name="Group 4265" transform="translate(0.853 0)">
        <path id="Path_25327" data-name="Path 25327" d="M18.656,51.14l-.236-.034a1.654,1.654,0,0,1,1.292-1.244,1.052,1.052,0,0,0,.974-.882l.241.029a1.294,1.294,0,0,1-1.171,1.09A1.42,1.42,0,0,0,18.656,51.14Z" transform="translate(-18.391 -48.951)" fill="url(#linear-gradient-41)"/>
        <path id="Path_25328" data-name="Path 25328" d="M18.644,51.138l-.284-.043V51.07a1.7,1.7,0,0,1,1.316-1.263h.01a1.01,1.01,0,0,0,.95-.863V48.92l.289.034v.024a1.319,1.319,0,0,1-1.2,1.109,1.4,1.4,0,0,0-1.075,1.022v.024Zm-.231-.082.193.029a1.461,1.461,0,0,1,1.109-1.036A1.267,1.267,0,0,0,20.867,49l-.193-.024a1.058,1.058,0,0,1-.988.877A1.647,1.647,0,0,0,18.413,51.056Z" transform="translate(-18.36 -48.92)" fill="url(#linear-gradient-42)"/>
      </g>
      <g id="Group_4266" data-name="Group 4266" transform="translate(1.258 0.704)">
        <path id="Path_25329" data-name="Path 25329" d="M19.5,52.05l-.236-.043c0-.029.14-.7,1.22-.94.029,0,.815-.063.9-.627l.236.034c-.111.757-1.065.824-1.1.829-.9.2-1.012.723-1.017.747Z" transform="translate(-19.231 -50.411)" fill="url(#linear-gradient-43)"/>
        <path id="Path_25330" data-name="Path 25330" d="M19.484,52.048,19.2,52v-.024c.01-.029.145-.713,1.244-.959h.01c.135-.014.8-.106.873-.607V50.38l.289.043v.024c-.121.776-1.09.848-1.128.848-.877.2-.988.709-.993.728v.024Zm-.227-.092.188.034c.034-.106.212-.559,1.027-.742.043,0,.955-.072,1.08-.786l-.193-.029c-.1.516-.776.607-.911.622-.969.217-1.167.776-1.2.9Z" transform="translate(-19.2 -50.38)" fill="url(#linear-gradient-4)"/>
      </g>
    </g>
    <g id="Group_5309" data-name="Group 5309" transform="translate(503 522)" opacity="0.81">
      <g id="Group_4244-2" data-name="Group 4244" transform="translate(0 2.56)">
        <path id="Path_25287-2" data-name="Path 25287" d="M24.723,62.026H24.7l-7.959-.01V60.208H17l-.01-5.828h.9v.853h.024l1.008.043v.713l.858.039v.024l-.01.68,2,.029-.029-.6h.029l2.054.26v-.236h.029l2.1.482.014-.472H26l2.059.5v.019l.029,3.534h.26v.55H28.32l-3.592-.092v1.306Zm-7.94-.058,7.887.01V60.671h.024l3.592.092V60.31h-.26v-.024L28,56.747l-1.991-.482-.067,2.01H25.89l.01-1.557-2.03-.463v2.03h-.048l-.01-1.808-2.02-.256.029.588H21.8l-2.073-.029v-.024l.01-.68-.81-.039L18.9,60.252h-.048l.019-4.932-.935-.039-.039,4.98h-.048l-.01-5.833h-.805l.01,5.828h-.26v1.711Z" transform="translate(-16.668 -54.308)" fill="url(#linear-gradient)"/>
        <path id="Path_25288-2" data-name="Path 25288" d="M24.718,62.021h-.1l-8.032-.01V60.058h.26l-.01-5.828h1.046v.853l1.036.043v.713l.853.039-.01.7,1.851.029-.029-.6,2.083.265v-.246l2.126.482.014-.472,2.227.535v.077l.029,3.461h.26v.7h-.1l-3.519-.092v1.306Zm-7.94-.2,7.742.01V60.521h.1l3.519.092V60.3h-.26v-.1l-.029-3.481L26,56.279l-.067,1.991H25.74l.01-1.576-1.885-.429v2.01h-.193l-.01-1.817-1.871-.236.029.579-2.251-.034.01-.7-.665-.034-.019,4.209H18.7l.019-4.932-.791-.034-.039,4.975H17.7v-.072l-.01-5.761h-.66l.01,5.828h-.26v1.567Z" transform="translate(-16.59 -54.23)" fill="url(#linear-gradient-2)"/>
      </g>
      <g id="Group_4245-2" data-name="Group 4245" transform="translate(2.753 5.279)">
        <path id="Path_25289-2" data-name="Path 25289" d="M23.382,60.537H22.35V59.92h1.032ZM22.4,60.47h.926v-.487H22.4Z" transform="translate(-22.326 -59.896)" fill="url(#linear-gradient-3)"/>
        <path id="Path_25290-2" data-name="Path 25290" d="M23.38,60.535H22.3V59.87h1.08Zm-1.032-.048h.983v-.569h-.983v.569Zm.979-.019h-.974v-.535h.974ZM22.4,60.42h.877v-.439H22.4Z" transform="translate(-22.3 -59.87)" fill="url(#linear-gradient-4)"/>
      </g>
      <g id="Group_4246-2" data-name="Group 4246" transform="translate(3.929 5.279)">
        <path id="Path_25291-2" data-name="Path 25291" d="M25.822,60.537H24.79V59.92h1.032Zm-.979-.067h.926v-.487h-.926Z" transform="translate(-24.766 -59.896)" fill="url(#linear-gradient-5)"/>
        <path id="Path_25292-2" data-name="Path 25292" d="M25.82,60.535H24.74V59.87h1.08Zm-1.036-.048h.983v-.569h-.983Zm.979-.019h-.974v-.535h.974Zm-.921-.048h.877v-.439h-.877Z" transform="translate(-24.74 -59.87)" fill="url(#linear-gradient-6)"/>
      </g>
      <g id="Group_4247-2" data-name="Group 4247" transform="translate(2.753 6.084)">
        <path id="Path_25293-2" data-name="Path 25293" d="M23.382,62.207H22.35V61.59h1.032ZM22.4,62.14h.926v-.487H22.4Z" transform="translate(-22.326 -61.566)" fill="url(#linear-gradient-7)"/>
        <path id="Path_25294-2" data-name="Path 25294" d="M23.38,62.205H22.3V61.54h1.08Zm-1.032-.048h.983v-.569h-.983v.569Zm.979-.019h-.974V61.6h.974ZM22.4,62.09h.877v-.439H22.4Z" transform="translate(-22.3 -61.54)" fill="url(#linear-gradient-4)"/>
      </g>
      <g id="Group_4248-2" data-name="Group 4248" transform="translate(3.929 6.084)">
        <path id="Path_25295-2" data-name="Path 25295" d="M25.822,62.207H24.79V61.59h1.032Zm-.979-.067h.926v-.487h-.926Z" transform="translate(-24.766 -61.566)" fill="url(#linear-gradient-9)"/>
        <path id="Path_25296-2" data-name="Path 25296" d="M25.82,62.205H24.74V61.54h1.08Zm-1.036-.048h.983v-.569h-.983Zm.979-.019h-.974V61.6h.974Zm-.921-.048h.877v-.439h-.877Z" transform="translate(-24.74 -61.54)" fill="url(#linear-gradient-6)"/>
      </g>
      <g id="Group_4249-2" data-name="Group 4249" transform="translate(2.753 6.904)">
        <path id="Path_25297-2" data-name="Path 25297" d="M23.382,63.907H22.35V63.29h1.032ZM22.4,63.84h.926v-.487H22.4Z" transform="translate(-22.326 -63.266)" fill="url(#linear-gradient-3)"/>
        <path id="Path_25298-2" data-name="Path 25298" d="M23.38,63.905H22.3V63.24h1.08Zm-1.032-.048h.983v-.569h-.983v.569Zm.979-.019h-.974V63.3h.974ZM22.4,63.79h.877v-.439H22.4Z" transform="translate(-22.3 -63.24)" fill="url(#linear-gradient-4)"/>
      </g>
      <g id="Group_4250-2" data-name="Group 4250" transform="translate(3.929 6.904)">
        <path id="Path_25299-2" data-name="Path 25299" d="M25.822,63.907H24.79V63.29h1.032Zm-.979-.067h.926v-.487h-.926Z" transform="translate(-24.766 -63.266)" fill="url(#linear-gradient-5)"/>
        <path id="Path_25300-2" data-name="Path 25300" d="M25.82,63.905H24.74V63.24h1.08Zm-1.036-.048h.983v-.569h-.983Zm.979-.019h-.974V63.3h.974Zm-.921-.048h.877v-.439h-.877Z" transform="translate(-24.74 -63.24)" fill="url(#linear-gradient-6)"/>
      </g>
      <g id="Group_4251-2" data-name="Group 4251" transform="translate(2.753 7.747)">
        <path id="Path_25301-2" data-name="Path 25301" d="M23.382,65.657H22.35V65.04h1.032ZM22.4,65.59h.926V65.1H22.4Z" transform="translate(-22.326 -65.016)" fill="url(#linear-gradient-7)"/>
        <path id="Path_25302-2" data-name="Path 25302" d="M23.38,65.655H22.3V64.99h1.08Zm-1.032-.048h.983v-.569h-.983v.569Zm.979-.019h-.974v-.535h.974ZM22.4,65.54h.877V65.1H22.4Z" transform="translate(-22.3 -64.99)" fill="url(#linear-gradient-4)"/>
      </g>
      <g id="Group_4252-2" data-name="Group 4252" transform="translate(3.929 7.747)">
        <path id="Path_25303-2" data-name="Path 25303" d="M25.822,65.657H24.79V65.04h1.032Zm-.979-.067h.926V65.1h-.926Z" transform="translate(-24.766 -65.016)" fill="url(#linear-gradient-9)"/>
        <path id="Path_25304-2" data-name="Path 25304" d="M25.82,65.655H24.74V64.99h1.08Zm-1.036-.048h.983v-.569h-.983Zm.979-.019h-.974v-.535h.974Zm-.921-.048h.877V65.1h-.877Z" transform="translate(-24.74 -64.99)" fill="url(#linear-gradient-6)"/>
      </g>
      <g id="Group_4253-2" data-name="Group 4253" transform="translate(5.669 7.207)">
        <path id="Path_25305-2" data-name="Path 25305" d="M29.874,64.468H28.5V64.02h1.374Zm-1.331-.048h1.282v-.352H28.543Z" transform="translate(-28.428 -63.948)" fill="url(#linear-gradient-19)"/>
        <path id="Path_25306-2" data-name="Path 25306" d="M29.869,64.463H28.35V63.87h1.519Zm-1.331-.193h1.138v-.207H28.538Z" transform="translate(-28.35 -63.87)" fill="url(#linear-gradient-20)"/>
      </g>
      <g id="Group_4254-2" data-name="Group 4254" transform="translate(7.284 7.207)">
        <path id="Path_25307-2" data-name="Path 25307" d="M33.253,64.468h-1.4V64.02h1.4ZM31.9,64.42H33.2v-.352H31.9Z" transform="translate(-31.778 -63.948)" fill="url(#linear-gradient-21)"/>
        <path id="Path_25308-2" data-name="Path 25308" d="M33.248,64.463H31.7V63.87h1.548Zm-1.355-.193h1.162v-.207H31.893Z" transform="translate(-31.7 -63.87)" fill="url(#linear-gradient-22)"/>
      </g>
      <g id="Group_4255-2" data-name="Group 4255" transform="translate(8.899 7.207)">
        <path id="Path_25309-2" data-name="Path 25309" d="M36.6,64.468H35.2V64.02h1.4Zm-1.355-.048h1.306v-.352H35.248Z" transform="translate(-35.128 -63.948)" fill="url(#linear-gradient-21)"/>
        <path id="Path_25310-2" data-name="Path 25310" d="M36.6,64.463H35.05V63.87H36.6Zm-1.355-.193H36.4v-.207H35.243Z" transform="translate(-35.05 -63.87)" fill="url(#linear-gradient-22)"/>
      </g>
      <g id="Group_4256-2" data-name="Group 4256" transform="translate(5.669 8.089)">
        <path id="Path_25311-2" data-name="Path 25311" d="M29.874,66.3H28.5V65.85h1.374Zm-1.326-.048h1.282V65.9H28.548Z" transform="translate(-28.428 -65.778)" fill="url(#linear-gradient-25)"/>
        <path id="Path_25312-2" data-name="Path 25312" d="M29.869,66.293H28.35V65.7h1.519ZM28.543,66.1h1.138v-.207H28.543Z" transform="translate(-28.35 -65.7)" fill="url(#linear-gradient-22)"/>
      </g>
      <g id="Group_4257-2" data-name="Group 4257" transform="translate(7.284 8.089)">
        <path id="Path_25313-2" data-name="Path 25313" d="M33.253,66.3h-1.4V65.85h1.4ZM31.9,66.25H33.2V65.9H31.9Z" transform="translate(-31.778 -65.778)" fill="url(#linear-gradient-27)"/>
        <path id="Path_25314-2" data-name="Path 25314" d="M33.248,66.293H31.7V65.7h1.548ZM31.893,66.1h1.162v-.207H31.893Z" transform="translate(-31.7 -65.7)" fill="url(#linear-gradient-28)"/>
      </g>
      <g id="Group_4258-2" data-name="Group 4258" transform="translate(8.928 8.089)">
        <path id="Path_25315-2" data-name="Path 25315" d="M36.663,66.3h-1.4V65.85h1.4Zm-1.355-.048h1.306V65.9H35.308Z" transform="translate(-35.188 -65.778)" fill="url(#linear-gradient-29)"/>
        <path id="Path_25316-2" data-name="Path 25316" d="M36.658,66.293H35.11V65.7h1.548ZM35.3,66.1h1.162v-.207H35.3Z" transform="translate(-35.11 -65.7)" fill="url(#linear-gradient-22)"/>
      </g>
      <g id="Group_4259-2" data-name="Group 4259" transform="translate(8.2 9.184)">
        <path id="Path_25317-2" data-name="Path 25317" d="M33.962,70.815v-.029s.024-.145-.188-.26H33.76V68.12h3.813l.029.492,1.094-.034.641.622v1.032h.077v.284l-.111-.024-.111.323H33.962Zm.4-.053h4.787l.111-.328.1.019v-.178h-.077V69.214l-.612-.593-1.118.034-.029-.492H33.808v2.324c.178.1.207.222.207.275Z" transform="translate(-33.683 -68.048)" fill="url(#linear-gradient-31)"/>
        <path id="Path_25318-2" data-name="Path 25318" d="M33.793,70.81l.019-.116s.01-.1-.159-.183l-.039-.019-.014-.048V67.97h3.953l.029.487,1.051-.034.689.665v1H39.4v.439l-.135-.029-.106.309H33.793Zm.492-.2h4.739l.116-.342.072.014V70.26h-.077v-1.1l-.569-.55-1.157.034-.029-.492H33.8v2.213a.443.443,0,0,1,.2.241h.289Z" transform="translate(-33.6 -67.97)" fill="url(#linear-gradient-32)"/>
      </g>
      <g id="Group_4260-2" data-name="Group 4260" transform="translate(12.727 9.806)">
        <path id="Path_25319-2" data-name="Path 25319" d="M43.969,70.109H43.14v-.7h.4l.01.01.419.448Zm-.781-.048h.733v-.174l-.4-.429h-.333Z" transform="translate(-43.068 -69.338)" fill="url(#linear-gradient-33)"/>
        <path id="Path_25320-2" data-name="Path 25320" d="M43.964,70.1H42.99V69.26h.5l.019.024.448.477V70.1Zm-.781-.193h.588v-.072l-.362-.386h-.227v.458Z" transform="translate(-42.99 -69.26)" fill="url(#linear-gradient-34)"/>
      </g>
      <g id="Group_4261-2" data-name="Group 4261" transform="translate(9.039 11.266)">
        <circle id="Ellipse_1074-2" data-name="Ellipse 1074" cx="0.453" cy="0.453" r="0.453" transform="translate(0.072 0.072)" fill="#231f20"/>
        <path id="Path_25321-2" data-name="Path 25321" d="M35.865,73.341a.525.525,0,1,1,.525-.525A.527.527,0,0,1,35.865,73.341Zm0-.906a.381.381,0,1,0,.381.381A.382.382,0,0,0,35.865,72.435Z" transform="translate(-35.34 -72.29)" fill="url(#linear-gradient-4)"/>
      </g>
      <g id="Group_4262-2" data-name="Group 4262" transform="translate(9.015 11.242)">
        <path id="Path_25322-2" data-name="Path 25322" d="M35.917,73.345a.477.477,0,1,1,.477-.477A.478.478,0,0,1,35.917,73.345Zm0-.906a.429.429,0,1,0,.429.429A.43.43,0,0,0,35.917,72.438Z" transform="translate(-35.368 -72.318)" fill="url(#linear-gradient-36)"/>
        <path id="Path_25323-2" data-name="Path 25323" d="M35.84,73.339a.55.55,0,1,1,.55-.55A.549.549,0,0,1,35.84,73.339Zm0-.906a.357.357,0,1,0,.357.357A.356.356,0,0,0,35.84,72.433Z" transform="translate(-35.29 -72.24)" fill="url(#linear-gradient-37)"/>
      </g>
      <g id="Group_4263-2" data-name="Group 4263" transform="translate(12.409 11.266)">
        <circle id="Ellipse_1075-2" data-name="Ellipse 1075" cx="0.453" cy="0.453" r="0.453" transform="translate(0.072 0.072)" fill="#231f20"/>
        <path id="Path_25324-2" data-name="Path 25324" d="M42.855,73.341a.525.525,0,1,1,.525-.525A.527.527,0,0,1,42.855,73.341Zm0-.906a.381.381,0,1,0,.381.381A.379.379,0,0,0,42.855,72.435Z" transform="translate(-42.33 -72.29)" fill="url(#linear-gradient-38)"/>
      </g>
      <g id="Group_4264-2" data-name="Group 4264" transform="translate(12.385 11.242)">
        <path id="Path_25325-2" data-name="Path 25325" d="M42.907,73.345a.477.477,0,1,1,.477-.477A.475.475,0,0,1,42.907,73.345Zm0-.906a.429.429,0,1,0,.429.429A.43.43,0,0,0,42.907,72.438Z" transform="translate(-42.358 -72.318)" fill="url(#linear-gradient-39)"/>
        <path id="Path_25326-2" data-name="Path 25326" d="M42.83,73.339a.55.55,0,1,1,.55-.55A.549.549,0,0,1,42.83,73.339Zm0-.906a.357.357,0,1,0,.357.357A.356.356,0,0,0,42.83,72.433Z" transform="translate(-42.28 -72.24)" fill="url(#linear-gradient-37)"/>
      </g>
      <g id="Group_4265-2" data-name="Group 4265" transform="translate(0.853 0)">
        <path id="Path_25327-2" data-name="Path 25327" d="M18.656,51.14l-.236-.034a1.654,1.654,0,0,1,1.292-1.244,1.052,1.052,0,0,0,.974-.882l.241.029a1.294,1.294,0,0,1-1.171,1.09A1.42,1.42,0,0,0,18.656,51.14Z" transform="translate(-18.391 -48.951)" fill="url(#linear-gradient-41)"/>
        <path id="Path_25328-2" data-name="Path 25328" d="M18.644,51.138l-.284-.043V51.07a1.7,1.7,0,0,1,1.316-1.263h.01a1.01,1.01,0,0,0,.95-.863V48.92l.289.034v.024a1.319,1.319,0,0,1-1.2,1.109,1.4,1.4,0,0,0-1.075,1.022v.024Zm-.231-.082.193.029a1.461,1.461,0,0,1,1.109-1.036A1.267,1.267,0,0,0,20.867,49l-.193-.024a1.058,1.058,0,0,1-.988.877A1.647,1.647,0,0,0,18.413,51.056Z" transform="translate(-18.36 -48.92)" fill="url(#linear-gradient-42)"/>
      </g>
      <g id="Group_4266-2" data-name="Group 4266" transform="translate(1.258 0.704)">
        <path id="Path_25329-2" data-name="Path 25329" d="M19.5,52.05l-.236-.043c0-.029.14-.7,1.22-.94.029,0,.815-.063.9-.627l.236.034c-.111.757-1.065.824-1.1.829-.9.2-1.012.723-1.017.747Z" transform="translate(-19.231 -50.411)" fill="url(#linear-gradient-43)"/>
        <path id="Path_25330-2" data-name="Path 25330" d="M19.484,52.048,19.2,52v-.024c.01-.029.145-.713,1.244-.959h.01c.135-.014.8-.106.873-.607V50.38l.289.043v.024c-.121.776-1.09.848-1.128.848-.877.2-.988.709-.993.728v.024Zm-.227-.092.188.034c.034-.106.212-.559,1.027-.742.043,0,.955-.072,1.08-.786l-.193-.029c-.1.516-.776.607-.911.622-.969.217-1.167.776-1.2.9Z" transform="translate(-19.2 -50.38)" fill="url(#linear-gradient-4)"/>
      </g>
    </g>
    <g id="Group_5310" data-name="Group 5310" transform="translate(503 522)" opacity="0.81">
      <g id="Group_4244-3" data-name="Group 4244" transform="translate(0 2.56)">
        <path id="Path_25287-3" data-name="Path 25287" d="M24.723,62.026H24.7l-7.959-.01V60.208H17l-.01-5.828h.9v.853h.024l1.008.043v.713l.858.039v.024l-.01.68,2,.029-.029-.6h.029l2.054.26v-.236h.029l2.1.482.014-.472H26l2.059.5v.019l.029,3.534h.26v.55H28.32l-3.592-.092v1.306Zm-7.94-.058,7.887.01V60.671h.024l3.592.092V60.31h-.26v-.024L28,56.747l-1.991-.482-.067,2.01H25.89l.01-1.557-2.03-.463v2.03h-.048l-.01-1.808-2.02-.256.029.588H21.8l-2.073-.029v-.024l.01-.68-.81-.039L18.9,60.252h-.048l.019-4.932-.935-.039-.039,4.98h-.048l-.01-5.833h-.805l.01,5.828h-.26v1.711Z" transform="translate(-16.668 -54.308)" fill="url(#linear-gradient)"/>
        <path id="Path_25288-3" data-name="Path 25288" d="M24.718,62.021h-.1l-8.032-.01V60.058h.26l-.01-5.828h1.046v.853l1.036.043v.713l.853.039-.01.7,1.851.029-.029-.6,2.083.265v-.246l2.126.482.014-.472,2.227.535v.077l.029,3.461h.26v.7h-.1l-3.519-.092v1.306Zm-7.94-.2,7.742.01V60.521h.1l3.519.092V60.3h-.26v-.1l-.029-3.481L26,56.279l-.067,1.991H25.74l.01-1.576-1.885-.429v2.01h-.193l-.01-1.817-1.871-.236.029.579-2.251-.034.01-.7-.665-.034-.019,4.209H18.7l.019-4.932-.791-.034-.039,4.975H17.7v-.072l-.01-5.761h-.66l.01,5.828h-.26v1.567Z" transform="translate(-16.59 -54.23)" fill="url(#linear-gradient-2)"/>
      </g>
      <g id="Group_4245-3" data-name="Group 4245" transform="translate(2.753 5.279)">
        <path id="Path_25289-3" data-name="Path 25289" d="M23.382,60.537H22.35V59.92h1.032ZM22.4,60.47h.926v-.487H22.4Z" transform="translate(-22.326 -59.896)" fill="url(#linear-gradient-3)"/>
        <path id="Path_25290-3" data-name="Path 25290" d="M23.38,60.535H22.3V59.87h1.08Zm-1.032-.048h.983v-.569h-.983v.569Zm.979-.019h-.974v-.535h.974ZM22.4,60.42h.877v-.439H22.4Z" transform="translate(-22.3 -59.87)" fill="url(#linear-gradient-4)"/>
      </g>
      <g id="Group_4246-3" data-name="Group 4246" transform="translate(3.929 5.279)">
        <path id="Path_25291-3" data-name="Path 25291" d="M25.822,60.537H24.79V59.92h1.032Zm-.979-.067h.926v-.487h-.926Z" transform="translate(-24.766 -59.896)" fill="url(#linear-gradient-5)"/>
        <path id="Path_25292-3" data-name="Path 25292" d="M25.82,60.535H24.74V59.87h1.08Zm-1.036-.048h.983v-.569h-.983Zm.979-.019h-.974v-.535h.974Zm-.921-.048h.877v-.439h-.877Z" transform="translate(-24.74 -59.87)" fill="url(#linear-gradient-6)"/>
      </g>
      <g id="Group_4247-3" data-name="Group 4247" transform="translate(2.753 6.084)">
        <path id="Path_25293-3" data-name="Path 25293" d="M23.382,62.207H22.35V61.59h1.032ZM22.4,62.14h.926v-.487H22.4Z" transform="translate(-22.326 -61.566)" fill="url(#linear-gradient-7)"/>
        <path id="Path_25294-3" data-name="Path 25294" d="M23.38,62.205H22.3V61.54h1.08Zm-1.032-.048h.983v-.569h-.983v.569Zm.979-.019h-.974V61.6h.974ZM22.4,62.09h.877v-.439H22.4Z" transform="translate(-22.3 -61.54)" fill="url(#linear-gradient-4)"/>
      </g>
      <g id="Group_4248-3" data-name="Group 4248" transform="translate(3.929 6.084)">
        <path id="Path_25295-3" data-name="Path 25295" d="M25.822,62.207H24.79V61.59h1.032Zm-.979-.067h.926v-.487h-.926Z" transform="translate(-24.766 -61.566)" fill="url(#linear-gradient-9)"/>
        <path id="Path_25296-3" data-name="Path 25296" d="M25.82,62.205H24.74V61.54h1.08Zm-1.036-.048h.983v-.569h-.983Zm.979-.019h-.974V61.6h.974Zm-.921-.048h.877v-.439h-.877Z" transform="translate(-24.74 -61.54)" fill="url(#linear-gradient-6)"/>
      </g>
      <g id="Group_4249-3" data-name="Group 4249" transform="translate(2.753 6.904)">
        <path id="Path_25297-3" data-name="Path 25297" d="M23.382,63.907H22.35V63.29h1.032ZM22.4,63.84h.926v-.487H22.4Z" transform="translate(-22.326 -63.266)" fill="url(#linear-gradient-3)"/>
        <path id="Path_25298-3" data-name="Path 25298" d="M23.38,63.905H22.3V63.24h1.08Zm-1.032-.048h.983v-.569h-.983v.569Zm.979-.019h-.974V63.3h.974ZM22.4,63.79h.877v-.439H22.4Z" transform="translate(-22.3 -63.24)" fill="url(#linear-gradient-4)"/>
      </g>
      <g id="Group_4250-3" data-name="Group 4250" transform="translate(3.929 6.904)">
        <path id="Path_25299-3" data-name="Path 25299" d="M25.822,63.907H24.79V63.29h1.032Zm-.979-.067h.926v-.487h-.926Z" transform="translate(-24.766 -63.266)" fill="url(#linear-gradient-5)"/>
        <path id="Path_25300-3" data-name="Path 25300" d="M25.82,63.905H24.74V63.24h1.08Zm-1.036-.048h.983v-.569h-.983Zm.979-.019h-.974V63.3h.974Zm-.921-.048h.877v-.439h-.877Z" transform="translate(-24.74 -63.24)" fill="url(#linear-gradient-6)"/>
      </g>
      <g id="Group_4251-3" data-name="Group 4251" transform="translate(2.753 7.747)">
        <path id="Path_25301-3" data-name="Path 25301" d="M23.382,65.657H22.35V65.04h1.032ZM22.4,65.59h.926V65.1H22.4Z" transform="translate(-22.326 -65.016)" fill="url(#linear-gradient-7)"/>
        <path id="Path_25302-3" data-name="Path 25302" d="M23.38,65.655H22.3V64.99h1.08Zm-1.032-.048h.983v-.569h-.983v.569Zm.979-.019h-.974v-.535h.974ZM22.4,65.54h.877V65.1H22.4Z" transform="translate(-22.3 -64.99)" fill="url(#linear-gradient-4)"/>
      </g>
      <g id="Group_4252-3" data-name="Group 4252" transform="translate(3.929 7.747)">
        <path id="Path_25303-3" data-name="Path 25303" d="M25.822,65.657H24.79V65.04h1.032Zm-.979-.067h.926V65.1h-.926Z" transform="translate(-24.766 -65.016)" fill="url(#linear-gradient-9)"/>
        <path id="Path_25304-3" data-name="Path 25304" d="M25.82,65.655H24.74V64.99h1.08Zm-1.036-.048h.983v-.569h-.983Zm.979-.019h-.974v-.535h.974Zm-.921-.048h.877V65.1h-.877Z" transform="translate(-24.74 -64.99)" fill="url(#linear-gradient-6)"/>
      </g>
      <g id="Group_4253-3" data-name="Group 4253" transform="translate(5.669 7.207)">
        <path id="Path_25305-3" data-name="Path 25305" d="M29.874,64.468H28.5V64.02h1.374Zm-1.331-.048h1.282v-.352H28.543Z" transform="translate(-28.428 -63.948)" fill="url(#linear-gradient-19)"/>
        <path id="Path_25306-3" data-name="Path 25306" d="M29.869,64.463H28.35V63.87h1.519Zm-1.331-.193h1.138v-.207H28.538Z" transform="translate(-28.35 -63.87)" fill="url(#linear-gradient-20)"/>
      </g>
      <g id="Group_4254-3" data-name="Group 4254" transform="translate(7.284 7.207)">
        <path id="Path_25307-3" data-name="Path 25307" d="M33.253,64.468h-1.4V64.02h1.4ZM31.9,64.42H33.2v-.352H31.9Z" transform="translate(-31.778 -63.948)" fill="url(#linear-gradient-21)"/>
        <path id="Path_25308-3" data-name="Path 25308" d="M33.248,64.463H31.7V63.87h1.548Zm-1.355-.193h1.162v-.207H31.893Z" transform="translate(-31.7 -63.87)" fill="url(#linear-gradient-22)"/>
      </g>
      <g id="Group_4255-3" data-name="Group 4255" transform="translate(8.899 7.207)">
        <path id="Path_25309-3" data-name="Path 25309" d="M36.6,64.468H35.2V64.02h1.4Zm-1.355-.048h1.306v-.352H35.248Z" transform="translate(-35.128 -63.948)" fill="url(#linear-gradient-21)"/>
        <path id="Path_25310-3" data-name="Path 25310" d="M36.6,64.463H35.05V63.87H36.6Zm-1.355-.193H36.4v-.207H35.243Z" transform="translate(-35.05 -63.87)" fill="url(#linear-gradient-22)"/>
      </g>
      <g id="Group_4256-3" data-name="Group 4256" transform="translate(5.669 8.089)">
        <path id="Path_25311-3" data-name="Path 25311" d="M29.874,66.3H28.5V65.85h1.374Zm-1.326-.048h1.282V65.9H28.548Z" transform="translate(-28.428 -65.778)" fill="url(#linear-gradient-25)"/>
        <path id="Path_25312-3" data-name="Path 25312" d="M29.869,66.293H28.35V65.7h1.519ZM28.543,66.1h1.138v-.207H28.543Z" transform="translate(-28.35 -65.7)" fill="url(#linear-gradient-22)"/>
      </g>
      <g id="Group_4257-3" data-name="Group 4257" transform="translate(7.284 8.089)">
        <path id="Path_25313-3" data-name="Path 25313" d="M33.253,66.3h-1.4V65.85h1.4ZM31.9,66.25H33.2V65.9H31.9Z" transform="translate(-31.778 -65.778)" fill="url(#linear-gradient-27)"/>
        <path id="Path_25314-3" data-name="Path 25314" d="M33.248,66.293H31.7V65.7h1.548ZM31.893,66.1h1.162v-.207H31.893Z" transform="translate(-31.7 -65.7)" fill="url(#linear-gradient-28)"/>
      </g>
      <g id="Group_4258-3" data-name="Group 4258" transform="translate(8.928 8.089)">
        <path id="Path_25315-3" data-name="Path 25315" d="M36.663,66.3h-1.4V65.85h1.4Zm-1.355-.048h1.306V65.9H35.308Z" transform="translate(-35.188 -65.778)" fill="url(#linear-gradient-29)"/>
        <path id="Path_25316-3" data-name="Path 25316" d="M36.658,66.293H35.11V65.7h1.548ZM35.3,66.1h1.162v-.207H35.3Z" transform="translate(-35.11 -65.7)" fill="url(#linear-gradient-22)"/>
      </g>
      <g id="Group_4259-3" data-name="Group 4259" transform="translate(8.2 9.184)">
        <path id="Path_25317-3" data-name="Path 25317" d="M33.962,70.815v-.029s.024-.145-.188-.26H33.76V68.12h3.813l.029.492,1.094-.034.641.622v1.032h.077v.284l-.111-.024-.111.323H33.962Zm.4-.053h4.787l.111-.328.1.019v-.178h-.077V69.214l-.612-.593-1.118.034-.029-.492H33.808v2.324c.178.1.207.222.207.275Z" transform="translate(-33.683 -68.048)" fill="url(#linear-gradient-31)"/>
        <path id="Path_25318-3" data-name="Path 25318" d="M33.793,70.81l.019-.116s.01-.1-.159-.183l-.039-.019-.014-.048V67.97h3.953l.029.487,1.051-.034.689.665v1H39.4v.439l-.135-.029-.106.309H33.793Zm.492-.2h4.739l.116-.342.072.014V70.26h-.077v-1.1l-.569-.55-1.157.034-.029-.492H33.8v2.213a.443.443,0,0,1,.2.241h.289Z" transform="translate(-33.6 -67.97)" fill="url(#linear-gradient-32)"/>
      </g>
      <g id="Group_4260-3" data-name="Group 4260" transform="translate(12.727 9.806)">
        <path id="Path_25319-3" data-name="Path 25319" d="M43.969,70.109H43.14v-.7h.4l.01.01.419.448Zm-.781-.048h.733v-.174l-.4-.429h-.333Z" transform="translate(-43.068 -69.338)" fill="url(#linear-gradient-33)"/>
        <path id="Path_25320-3" data-name="Path 25320" d="M43.964,70.1H42.99V69.26h.5l.019.024.448.477V70.1Zm-.781-.193h.588v-.072l-.362-.386h-.227v.458Z" transform="translate(-42.99 -69.26)" fill="url(#linear-gradient-34)"/>
      </g>
      <g id="Group_4261-3" data-name="Group 4261" transform="translate(9.039 11.266)">
        <circle id="Ellipse_1074-3" data-name="Ellipse 1074" cx="0.453" cy="0.453" r="0.453" transform="translate(0.072 0.072)" fill="#231f20"/>
        <path id="Path_25321-3" data-name="Path 25321" d="M35.865,73.341a.525.525,0,1,1,.525-.525A.527.527,0,0,1,35.865,73.341Zm0-.906a.381.381,0,1,0,.381.381A.382.382,0,0,0,35.865,72.435Z" transform="translate(-35.34 -72.29)" fill="url(#linear-gradient-4)"/>
      </g>
      <g id="Group_4262-3" data-name="Group 4262" transform="translate(9.015 11.242)">
        <path id="Path_25322-3" data-name="Path 25322" d="M35.917,73.345a.477.477,0,1,1,.477-.477A.478.478,0,0,1,35.917,73.345Zm0-.906a.429.429,0,1,0,.429.429A.43.43,0,0,0,35.917,72.438Z" transform="translate(-35.368 -72.318)" fill="url(#linear-gradient-36)"/>
        <path id="Path_25323-3" data-name="Path 25323" d="M35.84,73.339a.55.55,0,1,1,.55-.55A.549.549,0,0,1,35.84,73.339Zm0-.906a.357.357,0,1,0,.357.357A.356.356,0,0,0,35.84,72.433Z" transform="translate(-35.29 -72.24)" fill="url(#linear-gradient-37)"/>
      </g>
      <g id="Group_4263-3" data-name="Group 4263" transform="translate(12.409 11.266)">
        <circle id="Ellipse_1075-3" data-name="Ellipse 1075" cx="0.453" cy="0.453" r="0.453" transform="translate(0.072 0.072)" fill="#231f20"/>
        <path id="Path_25324-3" data-name="Path 25324" d="M42.855,73.341a.525.525,0,1,1,.525-.525A.527.527,0,0,1,42.855,73.341Zm0-.906a.381.381,0,1,0,.381.381A.379.379,0,0,0,42.855,72.435Z" transform="translate(-42.33 -72.29)" fill="url(#linear-gradient-38)"/>
      </g>
      <g id="Group_4264-3" data-name="Group 4264" transform="translate(12.385 11.242)">
        <path id="Path_25325-3" data-name="Path 25325" d="M42.907,73.345a.477.477,0,1,1,.477-.477A.475.475,0,0,1,42.907,73.345Zm0-.906a.429.429,0,1,0,.429.429A.43.43,0,0,0,42.907,72.438Z" transform="translate(-42.358 -72.318)" fill="url(#linear-gradient-39)"/>
        <path id="Path_25326-3" data-name="Path 25326" d="M42.83,73.339a.55.55,0,1,1,.55-.55A.549.549,0,0,1,42.83,73.339Zm0-.906a.357.357,0,1,0,.357.357A.356.356,0,0,0,42.83,72.433Z" transform="translate(-42.28 -72.24)" fill="url(#linear-gradient-37)"/>
      </g>
      <g id="Group_4265-3" data-name="Group 4265" transform="translate(0.853 0)">
        <path id="Path_25327-3" data-name="Path 25327" d="M18.656,51.14l-.236-.034a1.654,1.654,0,0,1,1.292-1.244,1.052,1.052,0,0,0,.974-.882l.241.029a1.294,1.294,0,0,1-1.171,1.09A1.42,1.42,0,0,0,18.656,51.14Z" transform="translate(-18.391 -48.951)" fill="url(#linear-gradient-41)"/>
        <path id="Path_25328-3" data-name="Path 25328" d="M18.644,51.138l-.284-.043V51.07a1.7,1.7,0,0,1,1.316-1.263h.01a1.01,1.01,0,0,0,.95-.863V48.92l.289.034v.024a1.319,1.319,0,0,1-1.2,1.109,1.4,1.4,0,0,0-1.075,1.022v.024Zm-.231-.082.193.029a1.461,1.461,0,0,1,1.109-1.036A1.267,1.267,0,0,0,20.867,49l-.193-.024a1.058,1.058,0,0,1-.988.877A1.647,1.647,0,0,0,18.413,51.056Z" transform="translate(-18.36 -48.92)" fill="url(#linear-gradient-42)"/>
      </g>
      <g id="Group_4266-3" data-name="Group 4266" transform="translate(1.258 0.704)">
        <path id="Path_25329-3" data-name="Path 25329" d="M19.5,52.05l-.236-.043c0-.029.14-.7,1.22-.94.029,0,.815-.063.9-.627l.236.034c-.111.757-1.065.824-1.1.829-.9.2-1.012.723-1.017.747Z" transform="translate(-19.231 -50.411)" fill="url(#linear-gradient-43)"/>
        <path id="Path_25330-3" data-name="Path 25330" d="M19.484,52.048,19.2,52v-.024c.01-.029.145-.713,1.244-.959h.01c.135-.014.8-.106.873-.607V50.38l.289.043v.024c-.121.776-1.09.848-1.128.848-.877.2-.988.709-.993.728v.024Zm-.227-.092.188.034c.034-.106.212-.559,1.027-.742.043,0,.955-.072,1.08-.786l-.193-.029c-.1.516-.776.607-.911.622-.969.217-1.167.776-1.2.9Z" transform="translate(-19.2 -50.38)" fill="url(#linear-gradient-4)"/>
      </g>
    </g>
    <g id="Group_4244-4" data-name="Group 4244" transform="translate(503 524.56)">
      <path id="Path_25287-4" data-name="Path 25287" d="M24.723,62.026H24.7l-7.959-.01V60.208H17l-.01-5.828h.9v.853h.024l1.008.043v.713l.858.039v.024l-.01.68,2,.029-.029-.6h.029l2.054.26v-.236h.029l2.1.482.014-.472H26l2.059.5v.019l.029,3.534h.26v.55H28.32l-3.592-.092v1.306Zm-7.94-.058,7.887.01V60.671h.024l3.592.092V60.31h-.26v-.024L28,56.747l-1.991-.482-.067,2.01H25.89l.01-1.557-2.03-.463v2.03h-.048l-.01-1.808-2.02-.256.029.588H21.8l-2.073-.029v-.024l.01-.68-.81-.039L18.9,60.252h-.048l.019-4.932-.935-.039-.039,4.98h-.048l-.01-5.833h-.805l.01,5.828h-.26v1.711Z" transform="translate(-16.668 -54.308)" fill="url(#linear-gradient)"/>
      <path id="Path_25288-4" data-name="Path 25288" d="M24.718,62.021h-.1l-8.032-.01V60.058h.26l-.01-5.828h1.046v.853l1.036.043v.713l.853.039-.01.7,1.851.029-.029-.6,2.083.265v-.246l2.126.482.014-.472,2.227.535v.077l.029,3.461h.26v.7h-.1l-3.519-.092v1.306Zm-7.94-.2,7.742.01V60.521h.1l3.519.092V60.3h-.26v-.1l-.029-3.481L26,56.279l-.067,1.991H25.74l.01-1.576-1.885-.429v2.01h-.193l-.01-1.817-1.871-.236.029.579-2.251-.034.01-.7-.665-.034-.019,4.209H18.7l.019-4.932-.791-.034-.039,4.975H17.7v-.072l-.01-5.761h-.66l.01,5.828h-.26v1.567Z" transform="translate(-16.59 -54.23)" fill="url(#linear-gradient-2)"/>
    </g>
    <g id="Group_4245-4" data-name="Group 4245" transform="translate(505.753 527.279)">
      <path id="Path_25289-4" data-name="Path 25289" d="M23.382,60.537H22.35V59.92h1.032ZM22.4,60.47h.926v-.487H22.4Z" transform="translate(-22.326 -59.896)" fill="url(#linear-gradient-3)"/>
      <path id="Path_25290-4" data-name="Path 25290" d="M23.38,60.535H22.3V59.87h1.08Zm-1.032-.048h.983v-.569h-.983v.569Zm.979-.019h-.974v-.535h.974ZM22.4,60.42h.877v-.439H22.4Z" transform="translate(-22.3 -59.87)" fill="url(#linear-gradient-4)"/>
    </g>
    <g id="Group_4246-4" data-name="Group 4246" transform="translate(506.929 527.279)">
      <path id="Path_25291-4" data-name="Path 25291" d="M25.822,60.537H24.79V59.92h1.032Zm-.979-.067h.926v-.487h-.926Z" transform="translate(-24.766 -59.896)" fill="url(#linear-gradient-5)"/>
      <path id="Path_25292-4" data-name="Path 25292" d="M25.82,60.535H24.74V59.87h1.08Zm-1.036-.048h.983v-.569h-.983Zm.979-.019h-.974v-.535h.974Zm-.921-.048h.877v-.439h-.877Z" transform="translate(-24.74 -59.87)" fill="url(#linear-gradient-6)"/>
    </g>
    <g id="Group_4247-4" data-name="Group 4247" transform="translate(505.753 528.084)">
      <path id="Path_25293-4" data-name="Path 25293" d="M23.382,62.207H22.35V61.59h1.032ZM22.4,62.14h.926v-.487H22.4Z" transform="translate(-22.326 -61.566)" fill="url(#linear-gradient-7)"/>
      <path id="Path_25294-4" data-name="Path 25294" d="M23.38,62.205H22.3V61.54h1.08Zm-1.032-.048h.983v-.569h-.983v.569Zm.979-.019h-.974V61.6h.974ZM22.4,62.09h.877v-.439H22.4Z" transform="translate(-22.3 -61.54)" fill="url(#linear-gradient-4)"/>
    </g>
    <g id="Group_4248-4" data-name="Group 4248" transform="translate(506.929 528.084)">
      <path id="Path_25295-4" data-name="Path 25295" d="M25.822,62.207H24.79V61.59h1.032Zm-.979-.067h.926v-.487h-.926Z" transform="translate(-24.766 -61.566)" fill="url(#linear-gradient-9)"/>
      <path id="Path_25296-4" data-name="Path 25296" d="M25.82,62.205H24.74V61.54h1.08Zm-1.036-.048h.983v-.569h-.983Zm.979-.019h-.974V61.6h.974Zm-.921-.048h.877v-.439h-.877Z" transform="translate(-24.74 -61.54)" fill="url(#linear-gradient-6)"/>
    </g>
    <g id="Group_4249-4" data-name="Group 4249" transform="translate(505.753 528.904)">
      <path id="Path_25297-4" data-name="Path 25297" d="M23.382,63.907H22.35V63.29h1.032ZM22.4,63.84h.926v-.487H22.4Z" transform="translate(-22.326 -63.266)" fill="url(#linear-gradient-3)"/>
      <path id="Path_25298-4" data-name="Path 25298" d="M23.38,63.905H22.3V63.24h1.08Zm-1.032-.048h.983v-.569h-.983v.569Zm.979-.019h-.974V63.3h.974ZM22.4,63.79h.877v-.439H22.4Z" transform="translate(-22.3 -63.24)" fill="url(#linear-gradient-4)"/>
    </g>
    <g id="Group_4250-4" data-name="Group 4250" transform="translate(506.929 528.904)">
      <path id="Path_25299-4" data-name="Path 25299" d="M25.822,63.907H24.79V63.29h1.032Zm-.979-.067h.926v-.487h-.926Z" transform="translate(-24.766 -63.266)" fill="url(#linear-gradient-5)"/>
      <path id="Path_25300-4" data-name="Path 25300" d="M25.82,63.905H24.74V63.24h1.08Zm-1.036-.048h.983v-.569h-.983Zm.979-.019h-.974V63.3h.974Zm-.921-.048h.877v-.439h-.877Z" transform="translate(-24.74 -63.24)" fill="url(#linear-gradient-6)"/>
    </g>
    <g id="Group_4251-4" data-name="Group 4251" transform="translate(505.753 529.747)">
      <path id="Path_25301-4" data-name="Path 25301" d="M23.382,65.657H22.35V65.04h1.032ZM22.4,65.59h.926V65.1H22.4Z" transform="translate(-22.326 -65.016)" fill="url(#linear-gradient-7)"/>
      <path id="Path_25302-4" data-name="Path 25302" d="M23.38,65.655H22.3V64.99h1.08Zm-1.032-.048h.983v-.569h-.983v.569Zm.979-.019h-.974v-.535h.974ZM22.4,65.54h.877V65.1H22.4Z" transform="translate(-22.3 -64.99)" fill="url(#linear-gradient-4)"/>
    </g>
    <g id="Group_4252-4" data-name="Group 4252" transform="translate(506.929 529.747)">
      <path id="Path_25303-4" data-name="Path 25303" d="M25.822,65.657H24.79V65.04h1.032Zm-.979-.067h.926V65.1h-.926Z" transform="translate(-24.766 -65.016)" fill="url(#linear-gradient-9)"/>
      <path id="Path_25304-4" data-name="Path 25304" d="M25.82,65.655H24.74V64.99h1.08Zm-1.036-.048h.983v-.569h-.983Zm.979-.019h-.974v-.535h.974Zm-.921-.048h.877V65.1h-.877Z" transform="translate(-24.74 -64.99)" fill="url(#linear-gradient-6)"/>
    </g>
    <g id="Group_4253-4" data-name="Group 4253" transform="translate(508.669 529.207)">
      <path id="Path_25305-4" data-name="Path 25305" d="M29.874,64.468H28.5V64.02h1.374Zm-1.331-.048h1.282v-.352H28.543Z" transform="translate(-28.428 -63.948)" fill="url(#linear-gradient-19)"/>
      <path id="Path_25306-4" data-name="Path 25306" d="M29.869,64.463H28.35V63.87h1.519Zm-1.331-.193h1.138v-.207H28.538Z" transform="translate(-28.35 -63.87)" fill="url(#linear-gradient-20)"/>
    </g>
    <g id="Group_4254-4" data-name="Group 4254" transform="translate(510.284 529.207)">
      <path id="Path_25307-4" data-name="Path 25307" d="M33.253,64.468h-1.4V64.02h1.4ZM31.9,64.42H33.2v-.352H31.9Z" transform="translate(-31.778 -63.948)" fill="url(#linear-gradient-21)"/>
      <path id="Path_25308-4" data-name="Path 25308" d="M33.248,64.463H31.7V63.87h1.548Zm-1.355-.193h1.162v-.207H31.893Z" transform="translate(-31.7 -63.87)" fill="url(#linear-gradient-22)"/>
    </g>
    <g id="Group_4255-4" data-name="Group 4255" transform="translate(511.899 529.207)">
      <path id="Path_25309-4" data-name="Path 25309" d="M36.6,64.468H35.2V64.02h1.4Zm-1.355-.048h1.306v-.352H35.248Z" transform="translate(-35.128 -63.948)" fill="url(#linear-gradient-21)"/>
      <path id="Path_25310-4" data-name="Path 25310" d="M36.6,64.463H35.05V63.87H36.6Zm-1.355-.193H36.4v-.207H35.243Z" transform="translate(-35.05 -63.87)" fill="url(#linear-gradient-22)"/>
    </g>
    <g id="Group_4256-4" data-name="Group 4256" transform="translate(508.669 530.089)">
      <path id="Path_25311-4" data-name="Path 25311" d="M29.874,66.3H28.5V65.85h1.374Zm-1.326-.048h1.282V65.9H28.548Z" transform="translate(-28.428 -65.778)" fill="url(#linear-gradient-25)"/>
      <path id="Path_25312-4" data-name="Path 25312" d="M29.869,66.293H28.35V65.7h1.519ZM28.543,66.1h1.138v-.207H28.543Z" transform="translate(-28.35 -65.7)" fill="url(#linear-gradient-22)"/>
    </g>
    <g id="Group_4257-4" data-name="Group 4257" transform="translate(510.284 530.089)">
      <path id="Path_25313-4" data-name="Path 25313" d="M33.253,66.3h-1.4V65.85h1.4ZM31.9,66.25H33.2V65.9H31.9Z" transform="translate(-31.778 -65.778)" fill="url(#linear-gradient-27)"/>
      <path id="Path_25314-4" data-name="Path 25314" d="M33.248,66.293H31.7V65.7h1.548ZM31.893,66.1h1.162v-.207H31.893Z" transform="translate(-31.7 -65.7)" fill="url(#linear-gradient-28)"/>
    </g>
    <g id="Group_4258-4" data-name="Group 4258" transform="translate(511.928 530.089)">
      <path id="Path_25315-4" data-name="Path 25315" d="M36.663,66.3h-1.4V65.85h1.4Zm-1.355-.048h1.306V65.9H35.308Z" transform="translate(-35.188 -65.778)" fill="url(#linear-gradient-29)"/>
      <path id="Path_25316-4" data-name="Path 25316" d="M36.658,66.293H35.11V65.7h1.548ZM35.3,66.1h1.162v-.207H35.3Z" transform="translate(-35.11 -65.7)" fill="url(#linear-gradient-22)"/>
    </g>
    <g id="Group_4259-4" data-name="Group 4259" transform="translate(511.2 531.184)">
      <path id="Path_25317-4" data-name="Path 25317" d="M33.962,70.815v-.029s.024-.145-.188-.26H33.76V68.12h3.813l.029.492,1.094-.034.641.622v1.032h.077v.284l-.111-.024-.111.323H33.962Zm.4-.053h4.787l.111-.328.1.019v-.178h-.077V69.214l-.612-.593-1.118.034-.029-.492H33.808v2.324c.178.1.207.222.207.275Z" transform="translate(-33.683 -68.048)" fill="url(#linear-gradient-31)"/>
      <path id="Path_25318-4" data-name="Path 25318" d="M33.793,70.81l.019-.116s.01-.1-.159-.183l-.039-.019-.014-.048V67.97h3.953l.029.487,1.051-.034.689.665v1H39.4v.439l-.135-.029-.106.309H33.793Zm.492-.2h4.739l.116-.342.072.014V70.26h-.077v-1.1l-.569-.55-1.157.034-.029-.492H33.8v2.213a.443.443,0,0,1,.2.241h.289Z" transform="translate(-33.6 -67.97)" fill="url(#linear-gradient-32)"/>
    </g>
    <g id="Group_4260-4" data-name="Group 4260" transform="translate(515.727 531.806)">
      <path id="Path_25319-4" data-name="Path 25319" d="M43.969,70.109H43.14v-.7h.4l.01.01.419.448Zm-.781-.048h.733v-.174l-.4-.429h-.333Z" transform="translate(-43.068 -69.338)" fill="url(#linear-gradient-33)"/>
      <path id="Path_25320-4" data-name="Path 25320" d="M43.964,70.1H42.99V69.26h.5l.019.024.448.477V70.1Zm-.781-.193h.588v-.072l-.362-.386h-.227v.458Z" transform="translate(-42.99 -69.26)" fill="url(#linear-gradient-34)"/>
    </g>
    <g id="Group_4261-4" data-name="Group 4261" transform="translate(512.039 533.266)">
      <circle id="Ellipse_1074-4" data-name="Ellipse 1074" cx="0.453" cy="0.453" r="0.453" transform="translate(0.072 0.072)" fill="#003d3d"/>
      <path id="Path_25321-4" data-name="Path 25321" d="M35.865,73.341a.525.525,0,1,1,.525-.525A.527.527,0,0,1,35.865,73.341Zm0-.906a.381.381,0,1,0,.381.381A.382.382,0,0,0,35.865,72.435Z" transform="translate(-35.34 -72.29)" fill="url(#linear-gradient-4)"/>
    </g>
    <g id="Group_4262-4" data-name="Group 4262" transform="translate(512.015 533.242)">
      <path id="Path_25322-4" data-name="Path 25322" d="M35.917,73.345a.477.477,0,1,1,.477-.477A.478.478,0,0,1,35.917,73.345Zm0-.906a.429.429,0,1,0,.429.429A.43.43,0,0,0,35.917,72.438Z" transform="translate(-35.368 -72.318)" fill="url(#linear-gradient-36)"/>
      <path id="Path_25323-4" data-name="Path 25323" d="M35.84,73.339a.55.55,0,1,1,.55-.55A.549.549,0,0,1,35.84,73.339Zm0-.906a.357.357,0,1,0,.357.357A.356.356,0,0,0,35.84,72.433Z" transform="translate(-35.29 -72.24)" fill="url(#linear-gradient-37)"/>
    </g>
    <g id="Group_4263-4" data-name="Group 4263" transform="translate(515.409 533.266)">
      <circle id="Ellipse_1075-4" data-name="Ellipse 1075" cx="0.453" cy="0.453" r="0.453" transform="translate(0.072 0.072)" fill="#003d3d"/>
      <path id="Path_25324-4" data-name="Path 25324" d="M42.855,73.341a.525.525,0,1,1,.525-.525A.527.527,0,0,1,42.855,73.341Zm0-.906a.381.381,0,1,0,.381.381A.379.379,0,0,0,42.855,72.435Z" transform="translate(-42.33 -72.29)" fill="url(#linear-gradient-38)"/>
    </g>
    <g id="Group_4264-4" data-name="Group 4264" transform="translate(515.385 533.242)">
      <path id="Path_25325-4" data-name="Path 25325" d="M42.907,73.345a.477.477,0,1,1,.477-.477A.475.475,0,0,1,42.907,73.345Zm0-.906a.429.429,0,1,0,.429.429A.43.43,0,0,0,42.907,72.438Z" transform="translate(-42.358 -72.318)" fill="url(#linear-gradient-39)"/>
      <path id="Path_25326-4" data-name="Path 25326" d="M42.83,73.339a.55.55,0,1,1,.55-.55A.549.549,0,0,1,42.83,73.339Zm0-.906a.357.357,0,1,0,.357.357A.356.356,0,0,0,42.83,72.433Z" transform="translate(-42.28 -72.24)" fill="url(#linear-gradient-37)"/>
    </g>
    <g id="Group_4265-4" data-name="Group 4265" transform="translate(503.854 522)">
      <path id="Path_25327-4" data-name="Path 25327" d="M18.656,51.14l-.236-.034a1.654,1.654,0,0,1,1.292-1.244,1.052,1.052,0,0,0,.974-.882l.241.029a1.294,1.294,0,0,1-1.171,1.09A1.42,1.42,0,0,0,18.656,51.14Z" transform="translate(-18.391 -48.951)" fill="url(#linear-gradient-41)"/>
      <path id="Path_25328-4" data-name="Path 25328" d="M18.644,51.138l-.284-.043V51.07a1.7,1.7,0,0,1,1.316-1.263h.01a1.01,1.01,0,0,0,.95-.863V48.92l.289.034v.024a1.319,1.319,0,0,1-1.2,1.109,1.4,1.4,0,0,0-1.075,1.022v.024Zm-.231-.082.193.029a1.461,1.461,0,0,1,1.109-1.036A1.267,1.267,0,0,0,20.867,49l-.193-.024a1.058,1.058,0,0,1-.988.877A1.647,1.647,0,0,0,18.413,51.056Z" transform="translate(-18.36 -48.92)" fill="url(#linear-gradient-42)"/>
    </g>
    <g id="Group_4266-4" data-name="Group 4266" transform="translate(504.258 522.704)">
      <path id="Path_25329-4" data-name="Path 25329" d="M19.5,52.05l-.236-.043c0-.029.14-.7,1.22-.94.029,0,.815-.063.9-.627l.236.034c-.111.757-1.065.824-1.1.829-.9.2-1.012.723-1.017.747Z" transform="translate(-19.231 -50.411)" fill="url(#linear-gradient-43)"/>
      <path id="Path_25330-4" data-name="Path 25330" d="M19.484,52.048,19.2,52v-.024c.01-.029.145-.713,1.244-.959h.01c.135-.014.8-.106.873-.607V50.38l.289.043v.024c-.121.776-1.09.848-1.128.848-.877.2-.988.709-.993.728v.024Zm-.227-.092.188.034c.034-.106.212-.559,1.027-.742.043,0,.955-.072,1.08-.786l-.193-.029c-.1.516-.776.607-.911.622-.969.217-1.167.776-1.2.9Z" transform="translate(-19.2 -50.38)" fill="url(#linear-gradient-4)"/>
    </g>
  </g>
</svg>
