<svg xmlns="http://www.w3.org/2000/svg" xmlns:xlink="http://www.w3.org/1999/xlink" width="14" height="11.838" viewBox="0 0 14 11.838">
  <defs>
    <linearGradient id="linear-gradient" y1="0.5" x2="1" y2="0.5" gradientUnits="objectBoundingBox">
      <stop offset="0" stop-color="#54be9a"/>
      <stop offset="0.33" stop-color="#2cabb0"/>
      <stop offset="0.74" stop-color="#2785c0"/>
      <stop offset="1" stop-color="#3a67b0"/>
    </linearGradient>
    <linearGradient id="linear-gradient-4" y1="0.501" x2="1.001" y2="0.501" xlink:href="#linear-gradient"/>
    <linearGradient id="linear-gradient-5" y1="0.5" x2="1.001" y2="0.5" xlink:href="#linear-gradient"/>
    <linearGradient id="linear-gradient-6" y1="0.504" y2="0.504" xlink:href="#linear-gradient"/>
    <linearGradient id="linear-gradient-8" y1="0.501" y2="0.501" xlink:href="#linear-gradient"/>
    <linearGradient id="linear-gradient-9" y1="0.502" y2="0.502" xlink:href="#linear-gradient"/>
    <linearGradient id="linear-gradient-11" y1="0.5" x2="1.003" y2="0.5" xlink:href="#linear-gradient"/>
    <linearGradient id="linear-gradient-15" y1="0.506" y2="0.506" xlink:href="#linear-gradient"/>
    <linearGradient id="linear-gradient-17" x1="0.005" y1="0.506" y2="0.506" xlink:href="#linear-gradient"/>
    <linearGradient id="linear-gradient-20" y1="0.498" y2="0.498" xlink:href="#linear-gradient"/>
    <linearGradient id="linear-gradient-22" y1="0.497" y2="0.497" xlink:href="#linear-gradient"/>
  </defs>
  <g id="Group_5906" data-name="Group 5906" transform="translate(-249.911 -177.911)">
    <path id="Path_24466" data-name="Path 24466" d="M14,12.687H12.948V6.4H.976v6.285H0V5.35H14Zm-.8-.252h.547V5.6H.252v6.832H.724V6.149H13.209v6.285Z" transform="translate(249.911 177.062)" fill="url(#linear-gradient)"/>
    <path id="Path_24467" data-name="Path 24467" d="M7.259,8.188H2.11V1.02H3.3V3.552H2.362v3.2h4.9Zm-4.9-.252H7.007V7H2.362Zm0-4.636h.681V1.272H2.362Z" transform="translate(249.576 177.749)" fill="url(#linear-gradient)"/>
    <rect id="Rectangle_1873" data-name="Rectangle 1873" width="2.936" height="0.252" transform="translate(251.812 183.884)" fill="url(#linear-gradient)"/>
    <path id="Path_24468" data-name="Path 24468" d="M10.1,3.66h-5a.582.582,0,0,1-.581-.581V.581A.582.582,0,0,1,5.1,0h5a.582.582,0,0,1,.581.581v2.5A.582.582,0,0,1,10.1,3.66ZM5.109.252a.329.329,0,0,0-.328.328v2.5a.329.329,0,0,0,.328.328h5a.329.329,0,0,0,.328-.328V.581a.329.329,0,0,0-.328-.328Z" transform="translate(249.193 177.911)" fill="url(#linear-gradient-4)"/>
    <rect id="Rectangle_1874" data-name="Rectangle 1874" width="5.906" height="0.252" transform="translate(253.84 180.409)" fill="url(#linear-gradient-5)"/>
    <rect id="Rectangle_1875" data-name="Rectangle 1875" width="0.252" height="1.136" transform="translate(255.758 181.445)" fill="url(#linear-gradient-6)"/>
    <rect id="Rectangle_1876" data-name="Rectangle 1876" width="0.252" height="1.136" transform="translate(257.575 181.445)" fill="url(#linear-gradient-6)"/>
    <rect id="Rectangle_1877" data-name="Rectangle 1877" width="0.252" height="3.508" transform="translate(254.134 185.92)" fill="url(#linear-gradient-8)"/>
    <path id="Path_24469" data-name="Path 24469" d="M6.954,13.371H6.7v-1l-2.019-.438-2.23.438v1H2.2V12.16l2.482-.48.025.008,2.246.471Z" transform="translate(249.562 176.057)" fill="url(#linear-gradient-9)"/>
    <path id="Path_24470" data-name="Path 24470" d="M11.893,12.873H10.85V6.58H11.1v6.041h.538V6.58h.252Z" transform="translate(248.189 176.866)" fill="url(#linear-gradient)"/>
    <rect id="Rectangle_1878" data-name="Rectangle 1878" width="2.852" height="0.252" transform="translate(260.074 185.011)" fill="url(#linear-gradient-11)"/>
    <rect id="Rectangle_1879" data-name="Rectangle 1879" width="2.852" height="0.252" transform="translate(260.074 188.646)" fill="url(#linear-gradient-11)"/>
    <rect id="Rectangle_1880" data-name="Rectangle 1880" width="2.852" height="0.252" transform="translate(260.074 186.829)" fill="url(#linear-gradient-11)"/>
    <path id="Path_24471" data-name="Path 24471" d="M14.375,7.867H12.76V7.16h1.615Zm-1.363-.252h1.111v-.2H13.012Z" transform="translate(247.886 176.775)" fill="url(#linear-gradient)"/>
    <path id="Path_24472" data-name="Path 24472" d="M14.283,7.845H12.71V7.18h1.573Zm-1.321-.252h1.069v-.16H12.962Z" transform="translate(247.894 176.771)" fill="url(#linear-gradient-15)"/>
    <path id="Path_24473" data-name="Path 24473" d="M14.375,10.027H12.76V9.32h1.615Zm-1.363-.252h1.111v-.2H13.012Z" transform="translate(247.886 176.433)" fill="url(#linear-gradient)"/>
    <path id="Path_24474" data-name="Path 24474" d="M14.353,10H12.78V9.34h1.573Zm-1.312-.252h1.069v-.16H13.041Z" transform="translate(247.883 176.429)" fill="url(#linear-gradient-17)"/>
    <path id="Path_24475" data-name="Path 24475" d="M14.375,12.187H12.76V11.48h1.615Zm-1.363-.252h1.111v-.2H13.012Z" transform="translate(247.886 176.089)" fill="url(#linear-gradient)"/>
    <path id="Path_24476" data-name="Path 24476" d="M14.353,12.165H12.78V11.5h1.573Zm-1.312-.252h1.069v-.16H13.041Z" transform="translate(247.883 176.086)" fill="url(#linear-gradient-17)"/>
    <path id="Path_24477" data-name="Path 24477" d="M13.522,5.095H13.27V3h2.154V5.044h-.252V3.252H13.522Z" transform="translate(247.805 177.434)" fill="url(#linear-gradient-20)"/>
    <rect id="Rectangle_1881" data-name="Rectangle 1881" width="0.252" height="0.993" transform="translate(261.26 179.467)" fill="url(#linear-gradient)"/>
    <path id="Path_24478" data-name="Path 24478" d="M15.339,2.861h-.252V1.742h-.454V2.794H14.38V1.49h.959Z" transform="translate(247.629 177.674)" fill="url(#linear-gradient-22)"/>
    <path id="Path_24466-2" data-name="Path 24466" d="M14,12.687H12.948V6.4H.976v6.285H0V5.35H14Zm-.8-.252h.547V5.6H.252v6.832H.724V6.149H13.209v6.285Z" transform="translate(249.911 177.062)" fill="url(#linear-gradient)"/>
    <path id="Path_24467-2" data-name="Path 24467" d="M7.259,8.188H2.11V1.02H3.3V3.552H2.362v3.2h4.9Zm-4.9-.252H7.007V7H2.362Zm0-4.636h.681V1.272H2.362Z" transform="translate(249.576 177.749)" fill="url(#linear-gradient)"/>
    <rect id="Rectangle_1873-2" data-name="Rectangle 1873" width="2.936" height="0.252" transform="translate(251.812 183.884)" fill="url(#linear-gradient)"/>
    <path id="Path_24468-2" data-name="Path 24468" d="M10.1,3.66h-5a.582.582,0,0,1-.581-.581V.581A.582.582,0,0,1,5.1,0h5a.582.582,0,0,1,.581.581v2.5A.582.582,0,0,1,10.1,3.66ZM5.109.252a.329.329,0,0,0-.328.328v2.5a.329.329,0,0,0,.328.328h5a.329.329,0,0,0,.328-.328V.581a.329.329,0,0,0-.328-.328Z" transform="translate(249.193 177.911)" fill="url(#linear-gradient-4)"/>
    <rect id="Rectangle_1874-2" data-name="Rectangle 1874" width="5.906" height="0.252" transform="translate(253.84 180.409)" fill="url(#linear-gradient-5)"/>
    <rect id="Rectangle_1875-2" data-name="Rectangle 1875" width="0.252" height="1.136" transform="translate(255.758 181.445)" fill="url(#linear-gradient-6)"/>
    <rect id="Rectangle_1876-2" data-name="Rectangle 1876" width="0.252" height="1.136" transform="translate(257.575 181.445)" fill="url(#linear-gradient-6)"/>
    <rect id="Rectangle_1877-2" data-name="Rectangle 1877" width="0.252" height="3.508" transform="translate(254.134 185.92)" fill="url(#linear-gradient-8)"/>
    <path id="Path_24469-2" data-name="Path 24469" d="M6.954,13.371H6.7v-1l-2.019-.438-2.23.438v1H2.2V12.16l2.482-.48.025.008,2.246.471Z" transform="translate(249.562 176.057)" fill="url(#linear-gradient-9)"/>
    <path id="Path_24470-2" data-name="Path 24470" d="M11.893,12.873H10.85V6.58H11.1v6.041h.538V6.58h.252Z" transform="translate(248.189 176.866)" fill="url(#linear-gradient)"/>
    <rect id="Rectangle_1878-2" data-name="Rectangle 1878" width="2.852" height="0.252" transform="translate(260.074 185.011)" fill="url(#linear-gradient-11)"/>
    <rect id="Rectangle_1879-2" data-name="Rectangle 1879" width="2.852" height="0.252" transform="translate(260.074 188.646)" fill="url(#linear-gradient-11)"/>
    <rect id="Rectangle_1880-2" data-name="Rectangle 1880" width="2.852" height="0.252" transform="translate(260.074 186.829)" fill="url(#linear-gradient-11)"/>
    <path id="Path_24471-2" data-name="Path 24471" d="M14.375,7.867H12.76V7.16h1.615Zm-1.363-.252h1.111v-.2H13.012Z" transform="translate(247.886 176.775)" fill="url(#linear-gradient)"/>
    <path id="Path_24472-2" data-name="Path 24472" d="M14.283,7.845H12.71V7.18h1.573Zm-1.321-.252h1.069v-.16H12.962Z" transform="translate(247.894 176.771)" fill="url(#linear-gradient-15)"/>
    <path id="Path_24473-2" data-name="Path 24473" d="M14.375,10.027H12.76V9.32h1.615Zm-1.363-.252h1.111v-.2H13.012Z" transform="translate(247.886 176.433)" fill="url(#linear-gradient)"/>
    <path id="Path_24474-2" data-name="Path 24474" d="M14.353,10H12.78V9.34h1.573Zm-1.312-.252h1.069v-.16H13.041Z" transform="translate(247.883 176.429)" fill="url(#linear-gradient-17)"/>
    <path id="Path_24475-2" data-name="Path 24475" d="M14.375,12.187H12.76V11.48h1.615Zm-1.363-.252h1.111v-.2H13.012Z" transform="translate(247.886 176.089)" fill="url(#linear-gradient)"/>
    <path id="Path_24476-2" data-name="Path 24476" d="M14.353,12.165H12.78V11.5h1.573Zm-1.312-.252h1.069v-.16H13.041Z" transform="translate(247.883 176.086)" fill="url(#linear-gradient-17)"/>
    <path id="Path_24477-2" data-name="Path 24477" d="M13.522,5.095H13.27V3h2.154V5.044h-.252V3.252H13.522Z" transform="translate(247.805 177.434)" fill="url(#linear-gradient-20)"/>
    <rect id="Rectangle_1881-2" data-name="Rectangle 1881" width="0.252" height="0.993" transform="translate(261.26 179.467)" fill="url(#linear-gradient)"/>
    <path id="Path_24478-2" data-name="Path 24478" d="M15.339,2.861h-.252V1.742h-.454V2.794H14.38V1.49h.959Z" transform="translate(247.629 177.674)" fill="url(#linear-gradient-22)"/>
  </g>
</svg>
