<svg xmlns="http://www.w3.org/2000/svg" xmlns:xlink="http://www.w3.org/1999/xlink" width="25.147" height="25.119" viewBox="0 0 25.147 25.119">
  <defs>
    <linearGradient id="linear-gradient" x1="0.5" x2="0.5" y2="1" gradientUnits="objectBoundingBox">
      <stop offset="0" stop-color="#33d4a3"/>
      <stop offset="0.304" stop-color="#2dacb1"/>
      <stop offset="1" stop-color="#2986c0"/>
      <stop offset="1" stop-color="#2466cf"/>
    </linearGradient>
  </defs>
  <path id="recycling_24dp_5F6368_FILL0_wght200_GRAD0_opsz24" d="M117.487-806.789l2.683-4.379-1.786-2.947a1.113,1.113,0,0,0-1.029-.6,1.142,1.142,0,0,0-1.042.6l-2.906,4.889Zm11.579,8.144-2.652-4.415,4.151-2.392,1.908,3.183a2.633,2.633,0,0,1,.356,1.153,1.99,1.99,0,0,1-.25,1.161,2.173,2.173,0,0,1-.893.968,2.52,2.52,0,0,1-1.279.342Zm-3.435,8.373-4.784-4.785,4.784-4.784v2.392h5.682l-1.734,3.469a2.589,2.589,0,0,1-.9.957,2.3,2.3,0,0,1-1.256.359h-1.794Zm-11.582-2.392a2.021,2.021,0,0,1-1.087-.3,1.807,1.807,0,0,1-.716-.82,2.3,2.3,0,0,1-.224-1.01,1.89,1.89,0,0,1,.273-.973l1.017-1.679h5.143v4.784Zm-2.956-3.4-1.944-3.887a2.234,2.234,0,0,1-.26-1.17,2.4,2.4,0,0,1,.354-1.143l.469-.791-2.022-1.232,6.544-1.645,1.644,6.579-2.058-1.267ZM127.241-806.3l-6.548-1.644,2.063-1.225-3.738-6.216h4.216a2.361,2.361,0,0,1,1.181.313,2.4,2.4,0,0,1,.882.848l1.566,2.612,2.022-1.267Z" transform="translate(-107.69 815.39)" fill="url(#linear-gradient)"/>
</svg>
