<svg id="Group_5119" data-name="Group 5119" xmlns="http://www.w3.org/2000/svg" width="22.469" height="19.857" viewBox="0 0 22.469 19.857">
  <path id="Path_24986" data-name="Path 24986" d="M17.165,3.784C13.6,2.071,9.426,2.471,6.858,5.574c-.825,1-2.23,3.514-.528,4.156-1.981,2.256-3.173,2.487-5.414.359-.231-.763.539-.418.73-.778C3.817,5.229,4.481,1.818,10.145.93c2.179-.341,6.191.572,7.02,2.857Z" transform="translate(-0.873 -0.861)" fill="#fff"/>
  <g id="Group_5117" data-name="Group 5117" transform="translate(7.655 2.931)">
    <path id="Path_24987" data-name="Path 24987" d="M27.57,20.734,31.9,15.507c.183-1.089-1.364-.011-1.071-1.06l1.431-5.6C35.144,14.154,34.935,20.668,27.57,20.734Z" transform="translate(-25.433 -8.85)" fill="#fff"/>
    <path id="Path_24988" data-name="Path 24988" d="M24.24,19.419c2.428-.1-.532,3.782-1.258,3.609-3.4-3.862.968-6.4,3.972-8.279C26.8,16.76,25.443,18,24.243,19.419Z" transform="translate(-21.743 -12.586)" fill="#fff"/>
  </g>
  <g id="Group_5118" data-name="Group 5118" transform="translate(4.375 9.1)">
    <path id="Path_24989" data-name="Path 24989" d="M18.443,33.9c3.492,2.557,11.928-1.632,10.846-5.891-.088-.341-1.093-.055-.734-.946,1.291-.253,1.783-1.783,3.257-1.306.536.172,2.52,1.559,2.153,2.01-.048.059-.642.022-.884.367-1.071,1.53-1.5,3.983-3.448,5.942a16.3,16.3,0,0,1-3.969,2.344H20.61c.091.079-1.959-1.4-2.89-2.16l.723-.359Z" transform="translate(-15.915 -25.671)" fill="#fff"/>
    <path id="Path_24990" data-name="Path 24990" d="M15.327,45.589l-.723.359c-.5-.407-1.621-.466-1.8-1.8,1.225-.224,1.83.924,2.527,1.438Z" transform="translate(-12.8 -37.354)" fill="#fff"/>
  </g>
</svg>
