<svg xmlns="http://www.w3.org/2000/svg" xmlns:xlink="http://www.w3.org/1999/xlink" width="14" height="14.14" viewBox="0 0 14 14.14">
  <defs>
    <linearGradient id="linear-gradient" y1="0.502" x2="1.002" y2="0.502" gradientUnits="objectBoundingBox">
      <stop offset="0" stop-color="#55bf9b"/>
      <stop offset="0.15" stop-color="#2dacb1"/>
      <stop offset="0.4" stop-color="#2986c1"/>
      <stop offset="1" stop-color="#3b67b1"/>
    </linearGradient>
    <linearGradient id="linear-gradient-2" x1="0" y1="0.498" x2="1.001" y2="0.498" xlink:href="#linear-gradient"/>
    <linearGradient id="linear-gradient-3" x1="0.007" y1="0.5" x2="1" y2="0.5" xlink:href="#linear-gradient"/>
    <linearGradient id="linear-gradient-4" x1="0.001" y1="0.499" x2="1.003" y2="0.499" xlink:href="#linear-gradient"/>
    <linearGradient id="linear-gradient-5" x1="-0.003" y1="0.497" x2="0.99" y2="0.497" xlink:href="#linear-gradient"/>
    <linearGradient id="linear-gradient-6" x1="0.005" y1="0.503" x2="1.009" y2="0.503" xlink:href="#linear-gradient"/>
    <linearGradient id="linear-gradient-7" x1="0" y1="0.503" x2="1" y2="0.503" xlink:href="#linear-gradient"/>
  </defs>
  <g id="Group_6383" data-name="Group 6383" transform="translate(-253 -505)">
    <g id="Group_5300" data-name="Group 5300" transform="translate(253 505)">
      <g id="Group_4836" data-name="Group 4836" transform="translate(0 0)">
        <path id="Path_26380" data-name="Path 26380" d="M131.039,179.7l-.139-.355c.19-.076,1.28-.57,1.28-.57l1.837-1.419c.127-.063.95-.443,1.419-.127a.8.8,0,0,1,.3.773l-.38-.025c.013-.228-.025-.367-.139-.443-.253-.177-.836.038-1.014.127l-1.85,1.419s-1.14.519-1.33.6Z" transform="translate(-123.235 -168.915)" fill="url(#linear-gradient)"/>
        <path id="Path_26381" data-name="Path 26381" d="M131.915,182.491a2.185,2.185,0,0,1-.57-.063l-5.245.051v-.38l5.283-.038a3.809,3.809,0,0,0,2.281-.418l4.46-3.066a.518.518,0,0,0-.241-.367,1.154,1.154,0,0,0-.9,0l-2.737,1.66-2.2-.1-3.307-.342,3.066-1.862c.127-.215.127-.342.089-.393-.114-.152-.722-.114-1.216.025l-3.231,1.862-1.191.228-.076-.367,1.153-.228,3.205-1.85c.215-.063,1.3-.342,1.647.1.152.2.127.494-.089.862l-.063.063-2.141,1.3,2.167.228,2.078.1,2.673-1.622a1.7,1.7,0,0,1,1.267.013.98.98,0,0,1,.443.76v.114l-4.65,3.205a4.285,4.285,0,0,1-1.951.532Z" transform="translate(-124.516 -169.023)" fill="url(#linear-gradient-2)"/>
        <path id="Path_26382" data-name="Path 26382" d="M126.092,182.841h-.57a.676.676,0,0,1-.671-.671v-3.6a.676.676,0,0,1,.671-.671h.57a.676.676,0,0,1,.672.671v3.6A.676.676,0,0,1,126.092,182.841Zm-.57-4.561a.287.287,0,0,0-.291.291v3.6a.287.287,0,0,0,.291.291h.57a.287.287,0,0,0,.291-.291v-3.6a.287.287,0,0,0-.291-.291Z" transform="translate(-124.85 -168.702)" fill="url(#linear-gradient-3)"/>
        <path id="Path_26383" data-name="Path 26383" d="M131.414,177.722h-.038a2.714,2.714,0,0,1-2.065-1.343c-.367-.862-.038-2,.976-3.4l1.14-2.344,1.14,2.407c.177.2,1.457,1.774,1.026,3.1-.241.76-.963,1.28-2.154,1.558H131.4Zm.013-6.208-.811,1.66q-1.425,1.938-.95,3.041a2.349,2.349,0,0,0,1.723,1.115c1.026-.253,1.66-.684,1.85-1.292.38-1.2-.963-2.749-.976-2.762l-.025-.038-.811-1.71Z" transform="translate(-123.698 -170.64)" fill="url(#linear-gradient-4)"/>
        <path id="Path_26384" data-name="Path 26384" d="M128.789,175.574s-.317-.684-1.736-.3l-.114.025-.076-.089s-.494-.608-.3-1.077c.114-.291.431-.469.938-.519h.1a3.174,3.174,0,0,1,1.558,1.812h0l-.355.139Zm-1.318-1.584c-.228.025-.494.1-.57.279s.063.443.165.6a2.577,2.577,0,0,1,1.318-.025A2.51,2.51,0,0,0,127.471,173.99Z" transform="translate(-124.405 -169.847)" fill="url(#linear-gradient-5)"/>
        <path id="Path_26385" data-name="Path 26385" d="M133.625,175.669l-.355-.152.038-.114c.2-.532.773-1.761,1.723-1.723a.978.978,0,0,1,.786.494.938.938,0,0,1-.2.912l-.076.114-.127-.038s-1.33-.393-1.786.507Zm1.368-1.6c-.393,0-.735.38-.963.76a2.328,2.328,0,0,1,1.368-.063.514.514,0,0,0,.1-.431c-.076-.177-.38-.253-.469-.266h-.025Z" transform="translate(-122.602 -169.829)" fill="url(#linear-gradient-6)"/>
        <path id="Path_26386" data-name="Path 26386" d="M133.08,174.662l.1-1.09s.152-1.508,1.14-1.432a.515.515,0,0,1,.367.279.88.88,0,0,1-.051.748l-.051.1h-.114c-.2.025-.8.127-.938.405Zm1.166-2.141c-.291,0-.469.291-.57.57a2.389,2.389,0,0,1,.646-.177c.063-.177.051-.279.025-.317a.146.146,0,0,0-.089-.076h-.025Z" transform="translate(-122.653 -170.24)" fill="url(#linear-gradient-7)"/>
      </g>
      <g id="Group_5299" data-name="Group 5299" transform="translate(0 0)">
        <path id="Path_26380-2" data-name="Path 26380" d="M131.039,179.7l-.139-.355c.19-.076,1.28-.57,1.28-.57l1.837-1.419c.127-.063.95-.443,1.419-.127a.8.8,0,0,1,.3.773l-.38-.025c.013-.228-.025-.367-.139-.443-.253-.177-.836.038-1.014.127l-1.85,1.419s-1.14.519-1.33.6Z" transform="translate(-123.235 -168.915)" fill="url(#linear-gradient)"/>
        <path id="Path_26381-2" data-name="Path 26381" d="M131.915,182.491a2.185,2.185,0,0,1-.57-.063l-5.245.051v-.38l5.283-.038a3.809,3.809,0,0,0,2.281-.418l4.46-3.066a.518.518,0,0,0-.241-.367,1.154,1.154,0,0,0-.9,0l-2.737,1.66-2.2-.1-3.307-.342,3.066-1.862c.127-.215.127-.342.089-.393-.114-.152-.722-.114-1.216.025l-3.231,1.862-1.191.228-.076-.367,1.153-.228,3.205-1.85c.215-.063,1.3-.342,1.647.1.152.2.127.494-.089.862l-.063.063-2.141,1.3,2.167.228,2.078.1,2.673-1.622a1.7,1.7,0,0,1,1.267.013.98.98,0,0,1,.443.76v.114l-4.65,3.205a4.285,4.285,0,0,1-1.951.532Z" transform="translate(-124.516 -169.023)" fill="url(#linear-gradient-2)"/>
        <path id="Path_26382-2" data-name="Path 26382" d="M126.092,182.841h-.57a.676.676,0,0,1-.671-.671v-3.6a.676.676,0,0,1,.671-.671h.57a.676.676,0,0,1,.672.671v3.6A.676.676,0,0,1,126.092,182.841Zm-.57-4.561a.287.287,0,0,0-.291.291v3.6a.287.287,0,0,0,.291.291h.57a.287.287,0,0,0,.291-.291v-3.6a.287.287,0,0,0-.291-.291Z" transform="translate(-124.85 -168.702)" fill="url(#linear-gradient-3)"/>
        <path id="Path_26383-2" data-name="Path 26383" d="M131.414,177.722h-.038a2.714,2.714,0,0,1-2.065-1.343c-.367-.862-.038-2,.976-3.4l1.14-2.344,1.14,2.407c.177.2,1.457,1.774,1.026,3.1-.241.76-.963,1.28-2.154,1.558H131.4Zm.013-6.208-.811,1.66q-1.425,1.938-.95,3.041a2.349,2.349,0,0,0,1.723,1.115c1.026-.253,1.66-.684,1.85-1.292.38-1.2-.963-2.749-.976-2.762l-.025-.038-.811-1.71Z" transform="translate(-123.698 -170.64)" fill="url(#linear-gradient-4)"/>
        <path id="Path_26384-2" data-name="Path 26384" d="M128.789,175.574s-.317-.684-1.736-.3l-.114.025-.076-.089s-.494-.608-.3-1.077c.114-.291.431-.469.938-.519h.1a3.174,3.174,0,0,1,1.558,1.812h0l-.355.139Zm-1.318-1.584c-.228.025-.494.1-.57.279s.063.443.165.6a2.577,2.577,0,0,1,1.318-.025A2.51,2.51,0,0,0,127.471,173.99Z" transform="translate(-124.405 -169.847)" fill="url(#linear-gradient-5)"/>
        <path id="Path_26385-2" data-name="Path 26385" d="M133.625,175.669l-.355-.152.038-.114c.2-.532.773-1.761,1.723-1.723a.978.978,0,0,1,.786.494.938.938,0,0,1-.2.912l-.076.114-.127-.038s-1.33-.393-1.786.507Zm1.368-1.6c-.393,0-.735.38-.963.76a2.328,2.328,0,0,1,1.368-.063.514.514,0,0,0,.1-.431c-.076-.177-.38-.253-.469-.266h-.025Z" transform="translate(-122.602 -169.829)" fill="url(#linear-gradient-6)"/>
        <path id="Path_26386-2" data-name="Path 26386" d="M133.08,174.662l.1-1.09s.152-1.508,1.14-1.432a.515.515,0,0,1,.367.279.88.88,0,0,1-.051.748l-.051.1h-.114c-.2.025-.8.127-.938.405Zm1.166-2.141c-.291,0-.469.291-.57.57a2.389,2.389,0,0,1,.646-.177c.063-.177.051-.279.025-.317a.146.146,0,0,0-.089-.076h-.025Z" transform="translate(-122.653 -170.24)" fill="url(#linear-gradient-7)"/>
      </g>
    </g>
    <g id="Group_6380" data-name="Group 6380" transform="translate(253 505)">
      <g id="Group_4836-2" data-name="Group 4836" transform="translate(0 0)">
        <path id="Path_26380-3" data-name="Path 26380" d="M131.039,179.7l-.139-.355c.19-.076,1.28-.57,1.28-.57l1.837-1.419c.127-.063.95-.443,1.419-.127a.8.8,0,0,1,.3.773l-.38-.025c.013-.228-.025-.367-.139-.443-.253-.177-.836.038-1.014.127l-1.85,1.419s-1.14.519-1.33.6Z" transform="translate(-123.235 -168.915)" fill="url(#linear-gradient)"/>
        <path id="Path_26381-3" data-name="Path 26381" d="M131.915,182.491a2.185,2.185,0,0,1-.57-.063l-5.245.051v-.38l5.283-.038a3.809,3.809,0,0,0,2.281-.418l4.46-3.066a.518.518,0,0,0-.241-.367,1.154,1.154,0,0,0-.9,0l-2.737,1.66-2.2-.1-3.307-.342,3.066-1.862c.127-.215.127-.342.089-.393-.114-.152-.722-.114-1.216.025l-3.231,1.862-1.191.228-.076-.367,1.153-.228,3.205-1.85c.215-.063,1.3-.342,1.647.1.152.2.127.494-.089.862l-.063.063-2.141,1.3,2.167.228,2.078.1,2.673-1.622a1.7,1.7,0,0,1,1.267.013.98.98,0,0,1,.443.76v.114l-4.65,3.205a4.285,4.285,0,0,1-1.951.532Z" transform="translate(-124.516 -169.023)" fill="url(#linear-gradient-2)"/>
        <path id="Path_26382-3" data-name="Path 26382" d="M126.092,182.841h-.57a.676.676,0,0,1-.671-.671v-3.6a.676.676,0,0,1,.671-.671h.57a.676.676,0,0,1,.672.671v3.6A.676.676,0,0,1,126.092,182.841Zm-.57-4.561a.287.287,0,0,0-.291.291v3.6a.287.287,0,0,0,.291.291h.57a.287.287,0,0,0,.291-.291v-3.6a.287.287,0,0,0-.291-.291Z" transform="translate(-124.85 -168.702)" fill="url(#linear-gradient-3)"/>
        <path id="Path_26383-3" data-name="Path 26383" d="M131.414,177.722h-.038a2.714,2.714,0,0,1-2.065-1.343c-.367-.862-.038-2,.976-3.4l1.14-2.344,1.14,2.407c.177.2,1.457,1.774,1.026,3.1-.241.76-.963,1.28-2.154,1.558H131.4Zm.013-6.208-.811,1.66q-1.425,1.938-.95,3.041a2.349,2.349,0,0,0,1.723,1.115c1.026-.253,1.66-.684,1.85-1.292.38-1.2-.963-2.749-.976-2.762l-.025-.038-.811-1.71Z" transform="translate(-123.698 -170.64)" fill="url(#linear-gradient-4)"/>
        <path id="Path_26384-3" data-name="Path 26384" d="M128.789,175.574s-.317-.684-1.736-.3l-.114.025-.076-.089s-.494-.608-.3-1.077c.114-.291.431-.469.938-.519h.1a3.174,3.174,0,0,1,1.558,1.812h0l-.355.139Zm-1.318-1.584c-.228.025-.494.1-.57.279s.063.443.165.6a2.577,2.577,0,0,1,1.318-.025A2.51,2.51,0,0,0,127.471,173.99Z" transform="translate(-124.405 -169.847)" fill="url(#linear-gradient-5)"/>
        <path id="Path_26385-3" data-name="Path 26385" d="M133.625,175.669l-.355-.152.038-.114c.2-.532.773-1.761,1.723-1.723a.978.978,0,0,1,.786.494.938.938,0,0,1-.2.912l-.076.114-.127-.038s-1.33-.393-1.786.507Zm1.368-1.6c-.393,0-.735.38-.963.76a2.328,2.328,0,0,1,1.368-.063.514.514,0,0,0,.1-.431c-.076-.177-.38-.253-.469-.266h-.025Z" transform="translate(-122.602 -169.829)" fill="url(#linear-gradient-6)"/>
        <path id="Path_26386-3" data-name="Path 26386" d="M133.08,174.662l.1-1.09s.152-1.508,1.14-1.432a.515.515,0,0,1,.367.279.88.88,0,0,1-.051.748l-.051.1h-.114c-.2.025-.8.127-.938.405Zm1.166-2.141c-.291,0-.469.291-.57.57a2.389,2.389,0,0,1,.646-.177c.063-.177.051-.279.025-.317a.146.146,0,0,0-.089-.076h-.025Z" transform="translate(-122.653 -170.24)" fill="url(#linear-gradient-7)"/>
      </g>
      <g id="Group_5299-2" data-name="Group 5299" transform="translate(0 0)">
        <path id="Path_26380-4" data-name="Path 26380" d="M131.039,179.7l-.139-.355c.19-.076,1.28-.57,1.28-.57l1.837-1.419c.127-.063.95-.443,1.419-.127a.8.8,0,0,1,.3.773l-.38-.025c.013-.228-.025-.367-.139-.443-.253-.177-.836.038-1.014.127l-1.85,1.419s-1.14.519-1.33.6Z" transform="translate(-123.235 -168.915)" fill="url(#linear-gradient)"/>
        <path id="Path_26381-4" data-name="Path 26381" d="M131.915,182.491a2.185,2.185,0,0,1-.57-.063l-5.245.051v-.38l5.283-.038a3.809,3.809,0,0,0,2.281-.418l4.46-3.066a.518.518,0,0,0-.241-.367,1.154,1.154,0,0,0-.9,0l-2.737,1.66-2.2-.1-3.307-.342,3.066-1.862c.127-.215.127-.342.089-.393-.114-.152-.722-.114-1.216.025l-3.231,1.862-1.191.228-.076-.367,1.153-.228,3.205-1.85c.215-.063,1.3-.342,1.647.1.152.2.127.494-.089.862l-.063.063-2.141,1.3,2.167.228,2.078.1,2.673-1.622a1.7,1.7,0,0,1,1.267.013.98.98,0,0,1,.443.76v.114l-4.65,3.205a4.285,4.285,0,0,1-1.951.532Z" transform="translate(-124.516 -169.023)" fill="url(#linear-gradient-2)"/>
        <path id="Path_26382-4" data-name="Path 26382" d="M126.092,182.841h-.57a.676.676,0,0,1-.671-.671v-3.6a.676.676,0,0,1,.671-.671h.57a.676.676,0,0,1,.672.671v3.6A.676.676,0,0,1,126.092,182.841Zm-.57-4.561a.287.287,0,0,0-.291.291v3.6a.287.287,0,0,0,.291.291h.57a.287.287,0,0,0,.291-.291v-3.6a.287.287,0,0,0-.291-.291Z" transform="translate(-124.85 -168.702)" fill="url(#linear-gradient-3)"/>
        <path id="Path_26383-4" data-name="Path 26383" d="M131.414,177.722h-.038a2.714,2.714,0,0,1-2.065-1.343c-.367-.862-.038-2,.976-3.4l1.14-2.344,1.14,2.407c.177.2,1.457,1.774,1.026,3.1-.241.76-.963,1.28-2.154,1.558H131.4Zm.013-6.208-.811,1.66q-1.425,1.938-.95,3.041a2.349,2.349,0,0,0,1.723,1.115c1.026-.253,1.66-.684,1.85-1.292.38-1.2-.963-2.749-.976-2.762l-.025-.038-.811-1.71Z" transform="translate(-123.698 -170.64)" fill="url(#linear-gradient-4)"/>
        <path id="Path_26384-4" data-name="Path 26384" d="M128.789,175.574s-.317-.684-1.736-.3l-.114.025-.076-.089s-.494-.608-.3-1.077c.114-.291.431-.469.938-.519h.1a3.174,3.174,0,0,1,1.558,1.812h0l-.355.139Zm-1.318-1.584c-.228.025-.494.1-.57.279s.063.443.165.6a2.577,2.577,0,0,1,1.318-.025A2.51,2.51,0,0,0,127.471,173.99Z" transform="translate(-124.405 -169.847)" fill="url(#linear-gradient-5)"/>
        <path id="Path_26385-4" data-name="Path 26385" d="M133.625,175.669l-.355-.152.038-.114c.2-.532.773-1.761,1.723-1.723a.978.978,0,0,1,.786.494.938.938,0,0,1-.2.912l-.076.114-.127-.038s-1.33-.393-1.786.507Zm1.368-1.6c-.393,0-.735.38-.963.76a2.328,2.328,0,0,1,1.368-.063.514.514,0,0,0,.1-.431c-.076-.177-.38-.253-.469-.266h-.025Z" transform="translate(-122.602 -169.829)" fill="url(#linear-gradient-6)"/>
        <path id="Path_26386-4" data-name="Path 26386" d="M133.08,174.662l.1-1.09s.152-1.508,1.14-1.432a.515.515,0,0,1,.367.279.88.88,0,0,1-.051.748l-.051.1h-.114c-.2.025-.8.127-.938.405Zm1.166-2.141c-.291,0-.469.291-.57.57a2.389,2.389,0,0,1,.646-.177c.063-.177.051-.279.025-.317a.146.146,0,0,0-.089-.076h-.025Z" transform="translate(-122.653 -170.24)" fill="url(#linear-gradient-7)"/>
      </g>
    </g>
    <g id="Group_6378" data-name="Group 6378" transform="translate(253 505)">
      <g id="Group_4836-3" data-name="Group 4836" transform="translate(0 0)">
        <path id="Path_26380-5" data-name="Path 26380" d="M131.039,179.7l-.139-.355c.19-.076,1.28-.57,1.28-.57l1.837-1.419c.127-.063.95-.443,1.419-.127a.8.8,0,0,1,.3.773l-.38-.025c.013-.228-.025-.367-.139-.443-.253-.177-.836.038-1.014.127l-1.85,1.419s-1.14.519-1.33.6Z" transform="translate(-123.235 -168.915)" fill="url(#linear-gradient)"/>
        <path id="Path_26381-5" data-name="Path 26381" d="M131.915,182.491a2.185,2.185,0,0,1-.57-.063l-5.245.051v-.38l5.283-.038a3.809,3.809,0,0,0,2.281-.418l4.46-3.066a.518.518,0,0,0-.241-.367,1.154,1.154,0,0,0-.9,0l-2.737,1.66-2.2-.1-3.307-.342,3.066-1.862c.127-.215.127-.342.089-.393-.114-.152-.722-.114-1.216.025l-3.231,1.862-1.191.228-.076-.367,1.153-.228,3.205-1.85c.215-.063,1.3-.342,1.647.1.152.2.127.494-.089.862l-.063.063-2.141,1.3,2.167.228,2.078.1,2.673-1.622a1.7,1.7,0,0,1,1.267.013.98.98,0,0,1,.443.76v.114l-4.65,3.205a4.285,4.285,0,0,1-1.951.532Z" transform="translate(-124.516 -169.023)" fill="url(#linear-gradient-2)"/>
        <path id="Path_26382-5" data-name="Path 26382" d="M126.092,182.841h-.57a.676.676,0,0,1-.671-.671v-3.6a.676.676,0,0,1,.671-.671h.57a.676.676,0,0,1,.672.671v3.6A.676.676,0,0,1,126.092,182.841Zm-.57-4.561a.287.287,0,0,0-.291.291v3.6a.287.287,0,0,0,.291.291h.57a.287.287,0,0,0,.291-.291v-3.6a.287.287,0,0,0-.291-.291Z" transform="translate(-124.85 -168.702)" fill="url(#linear-gradient-3)"/>
        <path id="Path_26383-5" data-name="Path 26383" d="M131.414,177.722h-.038a2.714,2.714,0,0,1-2.065-1.343c-.367-.862-.038-2,.976-3.4l1.14-2.344,1.14,2.407c.177.2,1.457,1.774,1.026,3.1-.241.76-.963,1.28-2.154,1.558H131.4Zm.013-6.208-.811,1.66q-1.425,1.938-.95,3.041a2.349,2.349,0,0,0,1.723,1.115c1.026-.253,1.66-.684,1.85-1.292.38-1.2-.963-2.749-.976-2.762l-.025-.038-.811-1.71Z" transform="translate(-123.698 -170.64)" fill="url(#linear-gradient-4)"/>
        <path id="Path_26384-5" data-name="Path 26384" d="M128.789,175.574s-.317-.684-1.736-.3l-.114.025-.076-.089s-.494-.608-.3-1.077c.114-.291.431-.469.938-.519h.1a3.174,3.174,0,0,1,1.558,1.812h0l-.355.139Zm-1.318-1.584c-.228.025-.494.1-.57.279s.063.443.165.6a2.577,2.577,0,0,1,1.318-.025A2.51,2.51,0,0,0,127.471,173.99Z" transform="translate(-124.405 -169.847)" fill="url(#linear-gradient-5)"/>
        <path id="Path_26385-5" data-name="Path 26385" d="M133.625,175.669l-.355-.152.038-.114c.2-.532.773-1.761,1.723-1.723a.978.978,0,0,1,.786.494.938.938,0,0,1-.2.912l-.076.114-.127-.038s-1.33-.393-1.786.507Zm1.368-1.6c-.393,0-.735.38-.963.76a2.328,2.328,0,0,1,1.368-.063.514.514,0,0,0,.1-.431c-.076-.177-.38-.253-.469-.266h-.025Z" transform="translate(-122.602 -169.829)" fill="url(#linear-gradient-6)"/>
        <path id="Path_26386-5" data-name="Path 26386" d="M133.08,174.662l.1-1.09s.152-1.508,1.14-1.432a.515.515,0,0,1,.367.279.88.88,0,0,1-.051.748l-.051.1h-.114c-.2.025-.8.127-.938.405Zm1.166-2.141c-.291,0-.469.291-.57.57a2.389,2.389,0,0,1,.646-.177c.063-.177.051-.279.025-.317a.146.146,0,0,0-.089-.076h-.025Z" transform="translate(-122.653 -170.24)" fill="url(#linear-gradient-7)"/>
      </g>
      <g id="Group_5299-3" data-name="Group 5299" transform="translate(0 0)">
        <path id="Path_26380-6" data-name="Path 26380" d="M131.039,179.7l-.139-.355c.19-.076,1.28-.57,1.28-.57l1.837-1.419c.127-.063.95-.443,1.419-.127a.8.8,0,0,1,.3.773l-.38-.025c.013-.228-.025-.367-.139-.443-.253-.177-.836.038-1.014.127l-1.85,1.419s-1.14.519-1.33.6Z" transform="translate(-123.235 -168.915)" fill="url(#linear-gradient)"/>
        <path id="Path_26381-6" data-name="Path 26381" d="M131.915,182.491a2.185,2.185,0,0,1-.57-.063l-5.245.051v-.38l5.283-.038a3.809,3.809,0,0,0,2.281-.418l4.46-3.066a.518.518,0,0,0-.241-.367,1.154,1.154,0,0,0-.9,0l-2.737,1.66-2.2-.1-3.307-.342,3.066-1.862c.127-.215.127-.342.089-.393-.114-.152-.722-.114-1.216.025l-3.231,1.862-1.191.228-.076-.367,1.153-.228,3.205-1.85c.215-.063,1.3-.342,1.647.1.152.2.127.494-.089.862l-.063.063-2.141,1.3,2.167.228,2.078.1,2.673-1.622a1.7,1.7,0,0,1,1.267.013.98.98,0,0,1,.443.76v.114l-4.65,3.205a4.285,4.285,0,0,1-1.951.532Z" transform="translate(-124.516 -169.023)" fill="url(#linear-gradient-2)"/>
        <path id="Path_26382-6" data-name="Path 26382" d="M126.092,182.841h-.57a.676.676,0,0,1-.671-.671v-3.6a.676.676,0,0,1,.671-.671h.57a.676.676,0,0,1,.672.671v3.6A.676.676,0,0,1,126.092,182.841Zm-.57-4.561a.287.287,0,0,0-.291.291v3.6a.287.287,0,0,0,.291.291h.57a.287.287,0,0,0,.291-.291v-3.6a.287.287,0,0,0-.291-.291Z" transform="translate(-124.85 -168.702)" fill="url(#linear-gradient-3)"/>
        <path id="Path_26383-6" data-name="Path 26383" d="M131.414,177.722h-.038a2.714,2.714,0,0,1-2.065-1.343c-.367-.862-.038-2,.976-3.4l1.14-2.344,1.14,2.407c.177.2,1.457,1.774,1.026,3.1-.241.76-.963,1.28-2.154,1.558H131.4Zm.013-6.208-.811,1.66q-1.425,1.938-.95,3.041a2.349,2.349,0,0,0,1.723,1.115c1.026-.253,1.66-.684,1.85-1.292.38-1.2-.963-2.749-.976-2.762l-.025-.038-.811-1.71Z" transform="translate(-123.698 -170.64)" fill="url(#linear-gradient-4)"/>
        <path id="Path_26384-6" data-name="Path 26384" d="M128.789,175.574s-.317-.684-1.736-.3l-.114.025-.076-.089s-.494-.608-.3-1.077c.114-.291.431-.469.938-.519h.1a3.174,3.174,0,0,1,1.558,1.812h0l-.355.139Zm-1.318-1.584c-.228.025-.494.1-.57.279s.063.443.165.6a2.577,2.577,0,0,1,1.318-.025A2.51,2.51,0,0,0,127.471,173.99Z" transform="translate(-124.405 -169.847)" fill="url(#linear-gradient-5)"/>
        <path id="Path_26385-6" data-name="Path 26385" d="M133.625,175.669l-.355-.152.038-.114c.2-.532.773-1.761,1.723-1.723a.978.978,0,0,1,.786.494.938.938,0,0,1-.2.912l-.076.114-.127-.038s-1.33-.393-1.786.507Zm1.368-1.6c-.393,0-.735.38-.963.76a2.328,2.328,0,0,1,1.368-.063.514.514,0,0,0,.1-.431c-.076-.177-.38-.253-.469-.266h-.025Z" transform="translate(-122.602 -169.829)" fill="url(#linear-gradient-6)"/>
        <path id="Path_26386-6" data-name="Path 26386" d="M133.08,174.662l.1-1.09s.152-1.508,1.14-1.432a.515.515,0,0,1,.367.279.88.88,0,0,1-.051.748l-.051.1h-.114c-.2.025-.8.127-.938.405Zm1.166-2.141c-.291,0-.469.291-.57.57a2.389,2.389,0,0,1,.646-.177c.063-.177.051-.279.025-.317a.146.146,0,0,0-.089-.076h-.025Z" transform="translate(-122.653 -170.24)" fill="url(#linear-gradient-7)"/>
      </g>
    </g>
    <g id="Group_6381" data-name="Group 6381" transform="translate(253 505)">
      <g id="Group_4836-4" data-name="Group 4836" transform="translate(0 0)">
        <path id="Path_26380-7" data-name="Path 26380" d="M131.039,179.7l-.139-.355c.19-.076,1.28-.57,1.28-.57l1.837-1.419c.127-.063.95-.443,1.419-.127a.8.8,0,0,1,.3.773l-.38-.025c.013-.228-.025-.367-.139-.443-.253-.177-.836.038-1.014.127l-1.85,1.419s-1.14.519-1.33.6Z" transform="translate(-123.235 -168.915)" fill="url(#linear-gradient)"/>
        <path id="Path_26381-7" data-name="Path 26381" d="M131.915,182.491a2.185,2.185,0,0,1-.57-.063l-5.245.051v-.38l5.283-.038a3.809,3.809,0,0,0,2.281-.418l4.46-3.066a.518.518,0,0,0-.241-.367,1.154,1.154,0,0,0-.9,0l-2.737,1.66-2.2-.1-3.307-.342,3.066-1.862c.127-.215.127-.342.089-.393-.114-.152-.722-.114-1.216.025l-3.231,1.862-1.191.228-.076-.367,1.153-.228,3.205-1.85c.215-.063,1.3-.342,1.647.1.152.2.127.494-.089.862l-.063.063-2.141,1.3,2.167.228,2.078.1,2.673-1.622a1.7,1.7,0,0,1,1.267.013.98.98,0,0,1,.443.76v.114l-4.65,3.205a4.285,4.285,0,0,1-1.951.532Z" transform="translate(-124.516 -169.023)" fill="url(#linear-gradient-2)"/>
        <path id="Path_26382-7" data-name="Path 26382" d="M126.092,182.841h-.57a.676.676,0,0,1-.671-.671v-3.6a.676.676,0,0,1,.671-.671h.57a.676.676,0,0,1,.672.671v3.6A.676.676,0,0,1,126.092,182.841Zm-.57-4.561a.287.287,0,0,0-.291.291v3.6a.287.287,0,0,0,.291.291h.57a.287.287,0,0,0,.291-.291v-3.6a.287.287,0,0,0-.291-.291Z" transform="translate(-124.85 -168.702)" fill="url(#linear-gradient-3)"/>
        <path id="Path_26383-7" data-name="Path 26383" d="M131.414,177.722h-.038a2.714,2.714,0,0,1-2.065-1.343c-.367-.862-.038-2,.976-3.4l1.14-2.344,1.14,2.407c.177.2,1.457,1.774,1.026,3.1-.241.76-.963,1.28-2.154,1.558H131.4Zm.013-6.208-.811,1.66q-1.425,1.938-.95,3.041a2.349,2.349,0,0,0,1.723,1.115c1.026-.253,1.66-.684,1.85-1.292.38-1.2-.963-2.749-.976-2.762l-.025-.038-.811-1.71Z" transform="translate(-123.698 -170.64)" fill="url(#linear-gradient-4)"/>
        <path id="Path_26384-7" data-name="Path 26384" d="M128.789,175.574s-.317-.684-1.736-.3l-.114.025-.076-.089s-.494-.608-.3-1.077c.114-.291.431-.469.938-.519h.1a3.174,3.174,0,0,1,1.558,1.812h0l-.355.139Zm-1.318-1.584c-.228.025-.494.1-.57.279s.063.443.165.6a2.577,2.577,0,0,1,1.318-.025A2.51,2.51,0,0,0,127.471,173.99Z" transform="translate(-124.405 -169.847)" fill="url(#linear-gradient-5)"/>
        <path id="Path_26385-7" data-name="Path 26385" d="M133.625,175.669l-.355-.152.038-.114c.2-.532.773-1.761,1.723-1.723a.978.978,0,0,1,.786.494.938.938,0,0,1-.2.912l-.076.114-.127-.038s-1.33-.393-1.786.507Zm1.368-1.6c-.393,0-.735.38-.963.76a2.328,2.328,0,0,1,1.368-.063.514.514,0,0,0,.1-.431c-.076-.177-.38-.253-.469-.266h-.025Z" transform="translate(-122.602 -169.829)" fill="url(#linear-gradient-6)"/>
        <path id="Path_26386-7" data-name="Path 26386" d="M133.08,174.662l.1-1.09s.152-1.508,1.14-1.432a.515.515,0,0,1,.367.279.88.88,0,0,1-.051.748l-.051.1h-.114c-.2.025-.8.127-.938.405Zm1.166-2.141c-.291,0-.469.291-.57.57a2.389,2.389,0,0,1,.646-.177c.063-.177.051-.279.025-.317a.146.146,0,0,0-.089-.076h-.025Z" transform="translate(-122.653 -170.24)" fill="url(#linear-gradient-7)"/>
      </g>
      <g id="Group_5299-4" data-name="Group 5299" transform="translate(0 0)">
        <path id="Path_26380-8" data-name="Path 26380" d="M131.039,179.7l-.139-.355c.19-.076,1.28-.57,1.28-.57l1.837-1.419c.127-.063.95-.443,1.419-.127a.8.8,0,0,1,.3.773l-.38-.025c.013-.228-.025-.367-.139-.443-.253-.177-.836.038-1.014.127l-1.85,1.419s-1.14.519-1.33.6Z" transform="translate(-123.235 -168.915)" fill="url(#linear-gradient)"/>
        <path id="Path_26381-8" data-name="Path 26381" d="M131.915,182.491a2.185,2.185,0,0,1-.57-.063l-5.245.051v-.38l5.283-.038a3.809,3.809,0,0,0,2.281-.418l4.46-3.066a.518.518,0,0,0-.241-.367,1.154,1.154,0,0,0-.9,0l-2.737,1.66-2.2-.1-3.307-.342,3.066-1.862c.127-.215.127-.342.089-.393-.114-.152-.722-.114-1.216.025l-3.231,1.862-1.191.228-.076-.367,1.153-.228,3.205-1.85c.215-.063,1.3-.342,1.647.1.152.2.127.494-.089.862l-.063.063-2.141,1.3,2.167.228,2.078.1,2.673-1.622a1.7,1.7,0,0,1,1.267.013.98.98,0,0,1,.443.76v.114l-4.65,3.205a4.285,4.285,0,0,1-1.951.532Z" transform="translate(-124.516 -169.023)" fill="url(#linear-gradient-2)"/>
        <path id="Path_26382-8" data-name="Path 26382" d="M126.092,182.841h-.57a.676.676,0,0,1-.671-.671v-3.6a.676.676,0,0,1,.671-.671h.57a.676.676,0,0,1,.672.671v3.6A.676.676,0,0,1,126.092,182.841Zm-.57-4.561a.287.287,0,0,0-.291.291v3.6a.287.287,0,0,0,.291.291h.57a.287.287,0,0,0,.291-.291v-3.6a.287.287,0,0,0-.291-.291Z" transform="translate(-124.85 -168.702)" fill="url(#linear-gradient-3)"/>
        <path id="Path_26383-8" data-name="Path 26383" d="M131.414,177.722h-.038a2.714,2.714,0,0,1-2.065-1.343c-.367-.862-.038-2,.976-3.4l1.14-2.344,1.14,2.407c.177.2,1.457,1.774,1.026,3.1-.241.76-.963,1.28-2.154,1.558H131.4Zm.013-6.208-.811,1.66q-1.425,1.938-.95,3.041a2.349,2.349,0,0,0,1.723,1.115c1.026-.253,1.66-.684,1.85-1.292.38-1.2-.963-2.749-.976-2.762l-.025-.038-.811-1.71Z" transform="translate(-123.698 -170.64)" fill="url(#linear-gradient-4)"/>
        <path id="Path_26384-8" data-name="Path 26384" d="M128.789,175.574s-.317-.684-1.736-.3l-.114.025-.076-.089s-.494-.608-.3-1.077c.114-.291.431-.469.938-.519h.1a3.174,3.174,0,0,1,1.558,1.812h0l-.355.139Zm-1.318-1.584c-.228.025-.494.1-.57.279s.063.443.165.6a2.577,2.577,0,0,1,1.318-.025A2.51,2.51,0,0,0,127.471,173.99Z" transform="translate(-124.405 -169.847)" fill="url(#linear-gradient-5)"/>
        <path id="Path_26385-8" data-name="Path 26385" d="M133.625,175.669l-.355-.152.038-.114c.2-.532.773-1.761,1.723-1.723a.978.978,0,0,1,.786.494.938.938,0,0,1-.2.912l-.076.114-.127-.038s-1.33-.393-1.786.507Zm1.368-1.6c-.393,0-.735.38-.963.76a2.328,2.328,0,0,1,1.368-.063.514.514,0,0,0,.1-.431c-.076-.177-.38-.253-.469-.266h-.025Z" transform="translate(-122.602 -169.829)" fill="url(#linear-gradient-6)"/>
        <path id="Path_26386-8" data-name="Path 26386" d="M133.08,174.662l.1-1.09s.152-1.508,1.14-1.432a.515.515,0,0,1,.367.279.88.88,0,0,1-.051.748l-.051.1h-.114c-.2.025-.8.127-.938.405Zm1.166-2.141c-.291,0-.469.291-.57.57a2.389,2.389,0,0,1,.646-.177c.063-.177.051-.279.025-.317a.146.146,0,0,0-.089-.076h-.025Z" transform="translate(-122.653 -170.24)" fill="url(#linear-gradient-7)"/>
      </g>
    </g>
    <g id="Group_6379" data-name="Group 6379" transform="translate(253 505)">
      <g id="Group_4836-5" data-name="Group 4836" transform="translate(0 0)">
        <path id="Path_26380-9" data-name="Path 26380" d="M131.039,179.7l-.139-.355c.19-.076,1.28-.57,1.28-.57l1.837-1.419c.127-.063.95-.443,1.419-.127a.8.8,0,0,1,.3.773l-.38-.025c.013-.228-.025-.367-.139-.443-.253-.177-.836.038-1.014.127l-1.85,1.419s-1.14.519-1.33.6Z" transform="translate(-123.235 -168.915)" fill="url(#linear-gradient)"/>
        <path id="Path_26381-9" data-name="Path 26381" d="M131.915,182.491a2.185,2.185,0,0,1-.57-.063l-5.245.051v-.38l5.283-.038a3.809,3.809,0,0,0,2.281-.418l4.46-3.066a.518.518,0,0,0-.241-.367,1.154,1.154,0,0,0-.9,0l-2.737,1.66-2.2-.1-3.307-.342,3.066-1.862c.127-.215.127-.342.089-.393-.114-.152-.722-.114-1.216.025l-3.231,1.862-1.191.228-.076-.367,1.153-.228,3.205-1.85c.215-.063,1.3-.342,1.647.1.152.2.127.494-.089.862l-.063.063-2.141,1.3,2.167.228,2.078.1,2.673-1.622a1.7,1.7,0,0,1,1.267.013.98.98,0,0,1,.443.76v.114l-4.65,3.205a4.285,4.285,0,0,1-1.951.532Z" transform="translate(-124.516 -169.023)" fill="url(#linear-gradient-2)"/>
        <path id="Path_26382-9" data-name="Path 26382" d="M126.092,182.841h-.57a.676.676,0,0,1-.671-.671v-3.6a.676.676,0,0,1,.671-.671h.57a.676.676,0,0,1,.672.671v3.6A.676.676,0,0,1,126.092,182.841Zm-.57-4.561a.287.287,0,0,0-.291.291v3.6a.287.287,0,0,0,.291.291h.57a.287.287,0,0,0,.291-.291v-3.6a.287.287,0,0,0-.291-.291Z" transform="translate(-124.85 -168.702)" fill="url(#linear-gradient-3)"/>
        <path id="Path_26383-9" data-name="Path 26383" d="M131.414,177.722h-.038a2.714,2.714,0,0,1-2.065-1.343c-.367-.862-.038-2,.976-3.4l1.14-2.344,1.14,2.407c.177.2,1.457,1.774,1.026,3.1-.241.76-.963,1.28-2.154,1.558H131.4Zm.013-6.208-.811,1.66q-1.425,1.938-.95,3.041a2.349,2.349,0,0,0,1.723,1.115c1.026-.253,1.66-.684,1.85-1.292.38-1.2-.963-2.749-.976-2.762l-.025-.038-.811-1.71Z" transform="translate(-123.698 -170.64)" fill="url(#linear-gradient-4)"/>
        <path id="Path_26384-9" data-name="Path 26384" d="M128.789,175.574s-.317-.684-1.736-.3l-.114.025-.076-.089s-.494-.608-.3-1.077c.114-.291.431-.469.938-.519h.1a3.174,3.174,0,0,1,1.558,1.812h0l-.355.139Zm-1.318-1.584c-.228.025-.494.1-.57.279s.063.443.165.6a2.577,2.577,0,0,1,1.318-.025A2.51,2.51,0,0,0,127.471,173.99Z" transform="translate(-124.405 -169.847)" fill="url(#linear-gradient-5)"/>
        <path id="Path_26385-9" data-name="Path 26385" d="M133.625,175.669l-.355-.152.038-.114c.2-.532.773-1.761,1.723-1.723a.978.978,0,0,1,.786.494.938.938,0,0,1-.2.912l-.076.114-.127-.038s-1.33-.393-1.786.507Zm1.368-1.6c-.393,0-.735.38-.963.76a2.328,2.328,0,0,1,1.368-.063.514.514,0,0,0,.1-.431c-.076-.177-.38-.253-.469-.266h-.025Z" transform="translate(-122.602 -169.829)" fill="url(#linear-gradient-6)"/>
        <path id="Path_26386-9" data-name="Path 26386" d="M133.08,174.662l.1-1.09s.152-1.508,1.14-1.432a.515.515,0,0,1,.367.279.88.88,0,0,1-.051.748l-.051.1h-.114c-.2.025-.8.127-.938.405Zm1.166-2.141c-.291,0-.469.291-.57.57a2.389,2.389,0,0,1,.646-.177c.063-.177.051-.279.025-.317a.146.146,0,0,0-.089-.076h-.025Z" transform="translate(-122.653 -170.24)" fill="url(#linear-gradient-7)"/>
      </g>
      <g id="Group_5299-5" data-name="Group 5299" transform="translate(0 0)">
        <path id="Path_26380-10" data-name="Path 26380" d="M131.039,179.7l-.139-.355c.19-.076,1.28-.57,1.28-.57l1.837-1.419c.127-.063.95-.443,1.419-.127a.8.8,0,0,1,.3.773l-.38-.025c.013-.228-.025-.367-.139-.443-.253-.177-.836.038-1.014.127l-1.85,1.419s-1.14.519-1.33.6Z" transform="translate(-123.235 -168.915)" fill="url(#linear-gradient)"/>
        <path id="Path_26381-10" data-name="Path 26381" d="M131.915,182.491a2.185,2.185,0,0,1-.57-.063l-5.245.051v-.38l5.283-.038a3.809,3.809,0,0,0,2.281-.418l4.46-3.066a.518.518,0,0,0-.241-.367,1.154,1.154,0,0,0-.9,0l-2.737,1.66-2.2-.1-3.307-.342,3.066-1.862c.127-.215.127-.342.089-.393-.114-.152-.722-.114-1.216.025l-3.231,1.862-1.191.228-.076-.367,1.153-.228,3.205-1.85c.215-.063,1.3-.342,1.647.1.152.2.127.494-.089.862l-.063.063-2.141,1.3,2.167.228,2.078.1,2.673-1.622a1.7,1.7,0,0,1,1.267.013.98.98,0,0,1,.443.76v.114l-4.65,3.205a4.285,4.285,0,0,1-1.951.532Z" transform="translate(-124.516 -169.023)" fill="url(#linear-gradient-2)"/>
        <path id="Path_26382-10" data-name="Path 26382" d="M126.092,182.841h-.57a.676.676,0,0,1-.671-.671v-3.6a.676.676,0,0,1,.671-.671h.57a.676.676,0,0,1,.672.671v3.6A.676.676,0,0,1,126.092,182.841Zm-.57-4.561a.287.287,0,0,0-.291.291v3.6a.287.287,0,0,0,.291.291h.57a.287.287,0,0,0,.291-.291v-3.6a.287.287,0,0,0-.291-.291Z" transform="translate(-124.85 -168.702)" fill="url(#linear-gradient-3)"/>
        <path id="Path_26383-10" data-name="Path 26383" d="M131.414,177.722h-.038a2.714,2.714,0,0,1-2.065-1.343c-.367-.862-.038-2,.976-3.4l1.14-2.344,1.14,2.407c.177.2,1.457,1.774,1.026,3.1-.241.76-.963,1.28-2.154,1.558H131.4Zm.013-6.208-.811,1.66q-1.425,1.938-.95,3.041a2.349,2.349,0,0,0,1.723,1.115c1.026-.253,1.66-.684,1.85-1.292.38-1.2-.963-2.749-.976-2.762l-.025-.038-.811-1.71Z" transform="translate(-123.698 -170.64)" fill="url(#linear-gradient-4)"/>
        <path id="Path_26384-10" data-name="Path 26384" d="M128.789,175.574s-.317-.684-1.736-.3l-.114.025-.076-.089s-.494-.608-.3-1.077c.114-.291.431-.469.938-.519h.1a3.174,3.174,0,0,1,1.558,1.812h0l-.355.139Zm-1.318-1.584c-.228.025-.494.1-.57.279s.063.443.165.6a2.577,2.577,0,0,1,1.318-.025A2.51,2.51,0,0,0,127.471,173.99Z" transform="translate(-124.405 -169.847)" fill="url(#linear-gradient-5)"/>
        <path id="Path_26385-10" data-name="Path 26385" d="M133.625,175.669l-.355-.152.038-.114c.2-.532.773-1.761,1.723-1.723a.978.978,0,0,1,.786.494.938.938,0,0,1-.2.912l-.076.114-.127-.038s-1.33-.393-1.786.507Zm1.368-1.6c-.393,0-.735.38-.963.76a2.328,2.328,0,0,1,1.368-.063.514.514,0,0,0,.1-.431c-.076-.177-.38-.253-.469-.266h-.025Z" transform="translate(-122.602 -169.829)" fill="url(#linear-gradient-6)"/>
        <path id="Path_26386-10" data-name="Path 26386" d="M133.08,174.662l.1-1.09s.152-1.508,1.14-1.432a.515.515,0,0,1,.367.279.88.88,0,0,1-.051.748l-.051.1h-.114c-.2.025-.8.127-.938.405Zm1.166-2.141c-.291,0-.469.291-.57.57a2.389,2.389,0,0,1,.646-.177c.063-.177.051-.279.025-.317a.146.146,0,0,0-.089-.076h-.025Z" transform="translate(-122.653 -170.24)" fill="url(#linear-gradient-7)"/>
      </g>
    </g>
    <g id="Group_6382" data-name="Group 6382" transform="translate(253 505)">
      <g id="Group_4836-6" data-name="Group 4836" transform="translate(0 0)">
        <path id="Path_26380-11" data-name="Path 26380" d="M131.039,179.7l-.139-.355c.19-.076,1.28-.57,1.28-.57l1.837-1.419c.127-.063.95-.443,1.419-.127a.8.8,0,0,1,.3.773l-.38-.025c.013-.228-.025-.367-.139-.443-.253-.177-.836.038-1.014.127l-1.85,1.419s-1.14.519-1.33.6Z" transform="translate(-123.235 -168.915)" fill="url(#linear-gradient)"/>
        <path id="Path_26381-11" data-name="Path 26381" d="M131.915,182.491a2.185,2.185,0,0,1-.57-.063l-5.245.051v-.38l5.283-.038a3.809,3.809,0,0,0,2.281-.418l4.46-3.066a.518.518,0,0,0-.241-.367,1.154,1.154,0,0,0-.9,0l-2.737,1.66-2.2-.1-3.307-.342,3.066-1.862c.127-.215.127-.342.089-.393-.114-.152-.722-.114-1.216.025l-3.231,1.862-1.191.228-.076-.367,1.153-.228,3.205-1.85c.215-.063,1.3-.342,1.647.1.152.2.127.494-.089.862l-.063.063-2.141,1.3,2.167.228,2.078.1,2.673-1.622a1.7,1.7,0,0,1,1.267.013.98.98,0,0,1,.443.76v.114l-4.65,3.205a4.285,4.285,0,0,1-1.951.532Z" transform="translate(-124.516 -169.023)" fill="url(#linear-gradient-2)"/>
        <path id="Path_26382-11" data-name="Path 26382" d="M126.092,182.841h-.57a.676.676,0,0,1-.671-.671v-3.6a.676.676,0,0,1,.671-.671h.57a.676.676,0,0,1,.672.671v3.6A.676.676,0,0,1,126.092,182.841Zm-.57-4.561a.287.287,0,0,0-.291.291v3.6a.287.287,0,0,0,.291.291h.57a.287.287,0,0,0,.291-.291v-3.6a.287.287,0,0,0-.291-.291Z" transform="translate(-124.85 -168.702)" fill="url(#linear-gradient-3)"/>
        <path id="Path_26383-11" data-name="Path 26383" d="M131.414,177.722h-.038a2.714,2.714,0,0,1-2.065-1.343c-.367-.862-.038-2,.976-3.4l1.14-2.344,1.14,2.407c.177.2,1.457,1.774,1.026,3.1-.241.76-.963,1.28-2.154,1.558H131.4Zm.013-6.208-.811,1.66q-1.425,1.938-.95,3.041a2.349,2.349,0,0,0,1.723,1.115c1.026-.253,1.66-.684,1.85-1.292.38-1.2-.963-2.749-.976-2.762l-.025-.038-.811-1.71Z" transform="translate(-123.698 -170.64)" fill="url(#linear-gradient-4)"/>
        <path id="Path_26384-11" data-name="Path 26384" d="M128.789,175.574s-.317-.684-1.736-.3l-.114.025-.076-.089s-.494-.608-.3-1.077c.114-.291.431-.469.938-.519h.1a3.174,3.174,0,0,1,1.558,1.812h0l-.355.139Zm-1.318-1.584c-.228.025-.494.1-.57.279s.063.443.165.6a2.577,2.577,0,0,1,1.318-.025A2.51,2.51,0,0,0,127.471,173.99Z" transform="translate(-124.405 -169.847)" fill="url(#linear-gradient-5)"/>
        <path id="Path_26385-11" data-name="Path 26385" d="M133.625,175.669l-.355-.152.038-.114c.2-.532.773-1.761,1.723-1.723a.978.978,0,0,1,.786.494.938.938,0,0,1-.2.912l-.076.114-.127-.038s-1.33-.393-1.786.507Zm1.368-1.6c-.393,0-.735.38-.963.76a2.328,2.328,0,0,1,1.368-.063.514.514,0,0,0,.1-.431c-.076-.177-.38-.253-.469-.266h-.025Z" transform="translate(-122.602 -169.829)" fill="url(#linear-gradient-6)"/>
        <path id="Path_26386-11" data-name="Path 26386" d="M133.08,174.662l.1-1.09s.152-1.508,1.14-1.432a.515.515,0,0,1,.367.279.88.88,0,0,1-.051.748l-.051.1h-.114c-.2.025-.8.127-.938.405Zm1.166-2.141c-.291,0-.469.291-.57.57a2.389,2.389,0,0,1,.646-.177c.063-.177.051-.279.025-.317a.146.146,0,0,0-.089-.076h-.025Z" transform="translate(-122.653 -170.24)" fill="url(#linear-gradient-7)"/>
      </g>
      <g id="Group_5299-6" data-name="Group 5299" transform="translate(0 0)">
        <path id="Path_26380-12" data-name="Path 26380" d="M131.039,179.7l-.139-.355c.19-.076,1.28-.57,1.28-.57l1.837-1.419c.127-.063.95-.443,1.419-.127a.8.8,0,0,1,.3.773l-.38-.025c.013-.228-.025-.367-.139-.443-.253-.177-.836.038-1.014.127l-1.85,1.419s-1.14.519-1.33.6Z" transform="translate(-123.235 -168.915)" fill="url(#linear-gradient)"/>
        <path id="Path_26381-12" data-name="Path 26381" d="M131.915,182.491a2.185,2.185,0,0,1-.57-.063l-5.245.051v-.38l5.283-.038a3.809,3.809,0,0,0,2.281-.418l4.46-3.066a.518.518,0,0,0-.241-.367,1.154,1.154,0,0,0-.9,0l-2.737,1.66-2.2-.1-3.307-.342,3.066-1.862c.127-.215.127-.342.089-.393-.114-.152-.722-.114-1.216.025l-3.231,1.862-1.191.228-.076-.367,1.153-.228,3.205-1.85c.215-.063,1.3-.342,1.647.1.152.2.127.494-.089.862l-.063.063-2.141,1.3,2.167.228,2.078.1,2.673-1.622a1.7,1.7,0,0,1,1.267.013.98.98,0,0,1,.443.76v.114l-4.65,3.205a4.285,4.285,0,0,1-1.951.532Z" transform="translate(-124.516 -169.023)" fill="url(#linear-gradient-2)"/>
        <path id="Path_26382-12" data-name="Path 26382" d="M126.092,182.841h-.57a.676.676,0,0,1-.671-.671v-3.6a.676.676,0,0,1,.671-.671h.57a.676.676,0,0,1,.672.671v3.6A.676.676,0,0,1,126.092,182.841Zm-.57-4.561a.287.287,0,0,0-.291.291v3.6a.287.287,0,0,0,.291.291h.57a.287.287,0,0,0,.291-.291v-3.6a.287.287,0,0,0-.291-.291Z" transform="translate(-124.85 -168.702)" fill="url(#linear-gradient-3)"/>
        <path id="Path_26383-12" data-name="Path 26383" d="M131.414,177.722h-.038a2.714,2.714,0,0,1-2.065-1.343c-.367-.862-.038-2,.976-3.4l1.14-2.344,1.14,2.407c.177.2,1.457,1.774,1.026,3.1-.241.76-.963,1.28-2.154,1.558H131.4Zm.013-6.208-.811,1.66q-1.425,1.938-.95,3.041a2.349,2.349,0,0,0,1.723,1.115c1.026-.253,1.66-.684,1.85-1.292.38-1.2-.963-2.749-.976-2.762l-.025-.038-.811-1.71Z" transform="translate(-123.698 -170.64)" fill="url(#linear-gradient-4)"/>
        <path id="Path_26384-12" data-name="Path 26384" d="M128.789,175.574s-.317-.684-1.736-.3l-.114.025-.076-.089s-.494-.608-.3-1.077c.114-.291.431-.469.938-.519h.1a3.174,3.174,0,0,1,1.558,1.812h0l-.355.139Zm-1.318-1.584c-.228.025-.494.1-.57.279s.063.443.165.6a2.577,2.577,0,0,1,1.318-.025A2.51,2.51,0,0,0,127.471,173.99Z" transform="translate(-124.405 -169.847)" fill="url(#linear-gradient-5)"/>
        <path id="Path_26385-12" data-name="Path 26385" d="M133.625,175.669l-.355-.152.038-.114c.2-.532.773-1.761,1.723-1.723a.978.978,0,0,1,.786.494.938.938,0,0,1-.2.912l-.076.114-.127-.038s-1.33-.393-1.786.507Zm1.368-1.6c-.393,0-.735.38-.963.76a2.328,2.328,0,0,1,1.368-.063.514.514,0,0,0,.1-.431c-.076-.177-.38-.253-.469-.266h-.025Z" transform="translate(-122.602 -169.829)" fill="url(#linear-gradient-6)"/>
        <path id="Path_26386-12" data-name="Path 26386" d="M133.08,174.662l.1-1.09s.152-1.508,1.14-1.432a.515.515,0,0,1,.367.279.88.88,0,0,1-.051.748l-.051.1h-.114c-.2.025-.8.127-.938.405Zm1.166-2.141c-.291,0-.469.291-.57.57a2.389,2.389,0,0,1,.646-.177c.063-.177.051-.279.025-.317a.146.146,0,0,0-.089-.076h-.025Z" transform="translate(-122.653 -170.24)" fill="url(#linear-gradient-7)"/>
      </g>
    </g>
  </g>
</svg>
