<svg xmlns="http://www.w3.org/2000/svg" width="249.099" height="66.44" viewBox="0 0 249.099 66.44">
  <g id="Group_986" data-name="Group 986" transform="translate(-16.206 -83.138)">
    <g id="Group_970" data-name="Group 970">
      <path id="Path_563" data-name="Path 563" d="M0,0V63.921H95.559l11.338-11.3h68.63V0Z" transform="translate(17.206 84.138)" fill="rgba(180,255,172,0.06)" stroke="#b4ffac" stroke-width="2"/>
      <path id="Path_565" data-name="Path 565" d="M79.1,40.458l-8.338,8.294h61.849l8.337-8.294Z" transform="translate(47.831 100.825)" fill="#b4ffac"/>
      <text id="Resources" transform="translate(104.28 121.397)" fill="#b4ffac" font-size="16" font-family="Helvetica"><tspan x="-38" y="0">Resources</tspan></text>
      <g id="Rectangle_139" data-name="Rectangle 139" transform="translate(200.86 83.703)" fill="rgba(180,255,172,0.06)" stroke="#b4ffac" stroke-width="2">
        <rect width="64.445" height="53.358" stroke="none"/>
        <rect x="1" y="1" width="62.445" height="51.358" fill="none"/>
      </g>
      <path id="settings_account_box_24dp_5F6368_FILL0_wght200_GRAD0_opsz24" d="M150.05-810.057h9.761v-1.184a6.1,6.1,0,0,0-2.186-1.665,6.447,6.447,0,0,0-2.694-.581,6.45,6.45,0,0,0-2.694.581,6.1,6.1,0,0,0-2.186,1.665Zm4.881-4.88a2.1,2.1,0,0,0,1.542-.635,2.1,2.1,0,0,0,.635-1.542,2.1,2.1,0,0,0-.635-1.542,2.1,2.1,0,0,0-1.542-.634,2.1,2.1,0,0,0-1.542.634,2.1,2.1,0,0,0-.634,1.542,2.1,2.1,0,0,0,.634,1.542A2.1,2.1,0,0,0,154.931-814.937ZM145.3-824.567Zm-.046-4.287a4.138,4.138,0,0,0-3.04,1.247,4.136,4.136,0,0,0-1.247,3.04,4.114,4.114,0,0,0,.746,2.447,4.44,4.44,0,0,0,1.939,1.55q.033-.458.1-.9a2.89,2.89,0,0,1,.249-.8,2.067,2.067,0,0,1-.994-.943,2.9,2.9,0,0,1-.328-1.352,2.481,2.481,0,0,1,.75-1.822,2.481,2.481,0,0,1,1.822-.75,2.5,2.5,0,0,1,1.3.355,2.692,2.692,0,0,1,.948.945,2.463,2.463,0,0,1,.64-.267,2.733,2.733,0,0,1,.683-.086h.356a4.086,4.086,0,0,0-1.529-1.923A4.13,4.13,0,0,0,145.255-828.854ZM142.1-809.133l-.62-4.96a9.106,9.106,0,0,1-1.776-.778,8.707,8.707,0,0,1-1.624-1.137l-4.574,1.945-3.2-5.573,3.954-2.981q-.076-.465-.125-.958a9.546,9.546,0,0,1-.05-.958,8.762,8.762,0,0,1,.05-.909q.049-.477.125-1.073L130.31-829.5l3.2-5.507,4.541,1.912a11.751,11.751,0,0,1,1.662-1.154,9.5,9.5,0,0,1,1.738-.795L142.1-840h6.4l.62,4.993a9.755,9.755,0,0,1,1.743.795,11.828,11.828,0,0,1,1.558,1.121L157.094-835l3.2,5.507-3.908,2.952a.289.289,0,0,1,.033.132.293.293,0,0,0,.033.132H154.43q-.043-.214-.069-.4a1.752,1.752,0,0,0-.112-.4l3.819-2.886-1.7-2.915-4.376,1.834a8.763,8.763,0,0,0-2.046-1.6,8.188,8.188,0,0,0-2.4-.991l-.524-4.643H143.6l-.534,4.61a8.341,8.341,0,0,0-2.383.892,10.2,10.2,0,0,0-2.162,1.69l-4.277-1.791-1.7,2.915,3.72,2.777a5.621,5.621,0,0,0-.3,1.253,11.163,11.163,0,0,0-.086,1.4,9.8,9.8,0,0,0,.086,1.3,8.193,8.193,0,0,0,.267,1.253l-3.687,2.82,1.7,2.915,4.244-1.8a9.348,9.348,0,0,0,2.331,1.718,10.878,10.878,0,0,0,2.77.992v6.207Zm7.75,1.451a2.1,2.1,0,0,1-1.542-.635,2.1,2.1,0,0,1-.635-1.542v-10.157a2.1,2.1,0,0,1,.635-1.542,2.1,2.1,0,0,1,1.542-.635H160.01a2.1,2.1,0,0,1,1.542.635,2.1,2.1,0,0,1,.635,1.542v10.157a2.1,2.1,0,0,1-.635,1.542,2.1,2.1,0,0,1-1.542.635Z" transform="translate(86.835 934.223)" fill="#b4ffac"/>
    </g>
  </g>
</svg>
